<svg id="Layer_1" data-name="Layer 1" xmlns="http://www.w3.org/2000/svg" xmlns:xlink="http://www.w3.org/1999/xlink" width="202.54" height="266.28" viewBox="0 0 202.54 266.28"><defs><clipPath id="clip-path" transform="translate(-282.38 -244.84)"><path d="M428,427.5h0m-3.76-.15c1.22,0,2.4.15,3.76.15-1.35,0-2.54-.14-3.76-.15Z" style="fill:none"/></clipPath><linearGradient id="linear-gradient" x1="87.35" y1="804.73" x2="88.64" y2="804.73" gradientTransform="matrix(189.83, 0, 0, -189.83, -16204.23, 153187.86)" gradientUnits="userSpaceOnUse"><stop offset="0" stop-color="#841618"/><stop offset="1" stop-color="#e91d26"/></linearGradient><clipPath id="clip-path-2" transform="translate(-282.38 -244.84)"><path d="M434.74,430.37a14.7,14.7,0,0,0,1.49-.5,14.92,14.92,0,0,1-1.49.5" style="fill:none"/></clipPath><linearGradient id="linear-gradient-2" x1="87.35" y1="804.72" x2="88.64" y2="804.72" gradientTransform="matrix(189.83, 0, 0, -189.83, -16196.46, 153188.28)" xlink:href="#linear-gradient"/><clipPath id="clip-path-3" transform="translate(-282.38 -244.84)"><path d="M383.57,244.85a362.59,362.59,0,0,0-101.19,14.4v69.36a222.81,222.81,0,0,0,12.82,73.46c.69,1.95,1.45,4,2.36,6.36.85,2.18,1.66,4.16,2.46,6l0,.05,0,.05.15.38c14.39,33.63,36.79,62.13,66.58,84.68,3.77,2.85,7.74,5.65,11.78,8.33l.06,0,5,3.13,5-3.13.06,0c4-2.68,8-5.49,11.79-8.34,29.78-22.55,52.18-51,66.57-84.68l.15-.38,0-.05,0-.05c.8-1.86,1.61-3.84,2.47-6s1.66-4.39,2.34-6.33a222.87,222.87,0,0,0,12.82-73.47V259.25a362.59,362.59,0,0,0-101.19-14.4Z" style="fill:none"/></clipPath><linearGradient id="linear-gradient-3" x1="87.28" y1="805.01" x2="88.57" y2="805.01" gradientTransform="matrix(0, -196.6, -196.6, 0, 158363.22, 17421.24)" xlink:href="#linear-gradient"/><clipPath id="clip-path-4" transform="translate(-282.38 -244.84)"><rect x="282.38" y="244.84" width="202.54" height="267.16" style="fill:none"/></clipPath><clipPath id="clip-path-5" transform="translate(-282.38 -244.84)"><path d="M299,267.72c0-.2.09-.3.26-.34s.21,0,.24.23l1.14,4.95-2.78.62,1.13-5.45m.26-3a3.56,3.56,0,0,0-3.09,2.79l-2.77,12.34s0,.09,0,.1c0,.19.13.27.32.23l2.6-.61a.56.56,0,0,0,.37-.43c.22-1.08.44-2.17.67-3.25q1.91-.44,3.82-.85l.67,2.94a.31.31,0,0,0,.38.26l2.61-.55a.37.37,0,0,0,.31-.37s0-.05,0-.09q-1.39-5.56-2.77-11.09a1.83,1.83,0,0,0-2-1.56,5.2,5.2,0,0,0-1.13.15" style="fill:none"/></clipPath><linearGradient id="linear-gradient-4" x1="88.38" y1="804.15" x2="89.68" y2="804.15" gradientTransform="matrix(0, 97.21, 97.21, 0, -77869.61, -8313.2)" gradientUnits="userSpaceOnUse"><stop offset="0" stop-color="#a8996e"/><stop offset="0.44" stop-color="#ffe4c7"/><stop offset="1" stop-color="#a8996e"/></linearGradient><clipPath id="clip-path-6" transform="translate(-282.38 -244.84)"><path d="M314.9,261.81a20.58,20.58,0,0,0-3.62.42c-2.41.46-4.56,1.5-4.56,4.93v9.74a.3.3,0,0,0,.38.3l2.43-.49a.48.48,0,0,0,.38-.45v-5.5q2.42-.47,4.85-.91a.47.47,0,0,0,.37-.44v-1.79a.3.3,0,0,0-.37-.31c-1.62.29-3.24.6-4.85.91v-1.7c0-1,.32-1.35,1.2-1.51l3.8-.71a.47.47,0,0,0,.38-.44v-1.75c0-.23-.1-.31-.34-.31h0" style="fill:none"/></clipPath><linearGradient id="linear-gradient-5" x1="88.38" y1="804.16" x2="89.68" y2="804.16" gradientTransform="matrix(0, 97.19, 97.19, 0, -77848.72, -8322.4)" xlink:href="#linear-gradient-4"/><clipPath id="clip-path-7" transform="translate(-282.38 -244.84)"><path d="M322.89,260.19c-2.86.45-5.56,2.41-5.56,6.9v2.37c0,4.49,2.7,5.52,5.56,5.06a12.09,12.09,0,0,0,2.8-.76c.27-.11.42-.23.42-.49v-1.83c0-.22-.12-.37-.36-.33h-.06c-.72.17-1.75.43-2.78.59-1.3.21-2.33-.3-2.33-2.81v-2.37c0-2.51,1-3.36,2.33-3.56,1-.16,2.07-.23,2.78-.28l.06,0a.39.39,0,0,0,.36-.42v-1.83c0-.27-.15-.32-.42-.35a4.7,4.7,0,0,0-.82-.05,12.85,12.85,0,0,0-2,.17" style="fill:none"/></clipPath><linearGradient id="linear-gradient-6" x1="88.38" y1="804.18" x2="89.68" y2="804.18" gradientTransform="matrix(0, 97.17, 97.17, 0, -77821.61, -8329.88)" xlink:href="#linear-gradient-4"/><clipPath id="clip-path-8" transform="translate(-282.38 -244.84)"><path d="M336.26,266.46l2.12-.26c1.51-.17,2,.55,2,1.45v.21c0,1.06-.63,1.73-2.57,2l-1.55.17c0-1.18,0-2.35,0-3.52m0-5.5c.26-.06,1.13-.16,1.43-.2,1.94-.23,2.61.17,2.61,1.2v.28c0,.81-.44,1.54-1.93,1.71l-2.12.26c0-1.09,0-2.17,0-3.26m1.19-2.81a27.83,27.83,0,0,0-3.38.63,1.15,1.15,0,0,0-1,1.35v11.46c0,.85.28,1.06,1,1.09a24.88,24.88,0,0,0,3.45-.21c3.26-.39,6-1.57,6-4.88v-.28a2.64,2.64,0,0,0-1.68-2.61,3.4,3.4,0,0,0,1.59-2.94v-.34c0-2.47-1.64-3.38-4.22-3.38a14.91,14.91,0,0,0-1.75.11" style="fill:none"/></clipPath><linearGradient id="linear-gradient-7" x1="88.38" y1="804.22" x2="89.68" y2="804.22" gradientTransform="matrix(0, 97.21, 97.21, 0, -77836.72, -8347.22)" xlink:href="#linear-gradient-4"/><clipPath id="clip-path-9" transform="translate(-282.38 -244.84)"><path d="M348.64,265.27V263c0-2.26.74-3.29,2.33-3.43s2.34.77,2.34,3v2.24c0,2.27-.76,3.28-2.34,3.41h-.3c-1.38,0-2-.91-2-3m2.33-8.5c-3.12.26-5.6,2.19-5.6,6.56v2.25c0,4.38,2.47,5.8,5.6,5.53s5.6-2.11,5.6-6.48v-2.24c0-4.06-2.14-5.64-4.94-5.64l-.67,0" style="fill:none"/></clipPath><linearGradient id="linear-gradient-8" x1="88.38" y1="804.23" x2="89.68" y2="804.23" gradientTransform="matrix(0, 97.18, 97.18, 0, -77805.96, -8355.64)" xlink:href="#linear-gradient-4"/><clipPath id="clip-path-10" transform="translate(-282.38 -244.84)"><path d="M369.37,255.82l-2.47.1a.38.38,0,0,0-.38.37v8.39c0,1.92-.53,2.75-2.24,2.84s-2.22-.68-2.22-2.61v-8.38a.35.35,0,0,0-.38-.34l-2.48.15a.39.39,0,0,0-.38.38v8.39c0,4.3,2.45,5.26,5.46,5.11s5.48-1.36,5.48-5.66v-8.39a.37.37,0,0,0-.39-.34h0" style="fill:none"/></clipPath><linearGradient id="linear-gradient-9" x1="88.38" y1="804.24" x2="89.68" y2="804.24" gradientTransform="matrix(0, 97.14, 97.14, 0, -77762.96, -8363.49)" xlink:href="#linear-gradient-4"/><clipPath id="clip-path-11" transform="translate(-282.38 -244.84)"><path d="M375.58,261.88v-3.62c.23,0,1.21-.08,1.48-.09,1.59,0,2.48.5,2.48,1.65v.25c0,1.27-.63,1.79-2.62,1.83h-1.34m1.48-6.44a27.77,27.77,0,0,0-3.85.33c-.58.11-.86.28-.85.93v12.65a.37.37,0,0,0,.38.36l2.46-.06a.39.39,0,0,0,.38-.38v-4.78h1.34l.21,0,2.55,4.73c.09.19.16.37.37.37l2.91,0c.21,0,.28-.09.28-.23a.53.53,0,0,0-.06-.21l-2.87-5.3a3.83,3.83,0,0,0,2.45-3.78v-.24c0-3.26-2.38-4.36-5.51-4.36h-.2" style="fill:none"/></clipPath><linearGradient id="linear-gradient-10" x1="88.38" y1="804.28" x2="89.68" y2="804.28" gradientTransform="matrix(0, 97.16, 97.16, 0, -77765.64, -8375.84)" xlink:href="#linear-gradient-4"/><clipPath id="clip-path-12" transform="translate(-282.38 -244.84)"><path d="M385.95,255.56a.71.71,0,0,0-.71.71v12.9a.38.38,0,0,0,.38.38l2.24,0a.37.37,0,0,0,.38-.37v-7.63c0-.12,0-.15.09-.15s.1,0,.17.15q2.17,3.74,4.33,7.5a1,1,0,0,0,1,.61l1.86.05a.7.7,0,0,0,.74-.69q0-6.46,0-12.92a.38.38,0,0,0-.38-.37l-2.24-.06a.35.35,0,0,0-.38.34v8c0,.13-.06.17-.1.17s-.08,0-.14-.15l-4.5-7.84c-.23-.4-.41-.59-.8-.59l-1.92,0h0" style="fill:none"/></clipPath><linearGradient id="linear-gradient-11" x1="88.38" y1="804.29" x2="89.68" y2="804.29" gradientTransform="matrix(0, 97.19, 97.19, 0, -77781.15, -8389.19)" xlink:href="#linear-gradient-4"/><clipPath id="clip-path-13" transform="translate(-282.38 -244.84)"><path d="M399,259.73V266c0,3.43,2.16,4.13,4.61,4.26a24.43,24.43,0,0,0,3.68,0c.27,0,.37-.12.37-.38v-1.75a.4.4,0,0,0-.37-.4l-3.85-.22c-.9,0-1.22-.35-1.21-1.34v-2q2.45.11,4.91.26a.35.35,0,0,0,.38-.35v-1.79a.41.41,0,0,0-.38-.4c-1.63-.1-3.27-.19-4.91-.26v-1.72c0-1,.32-1.27,1.21-1.22l3.85.22a.35.35,0,0,0,.37-.35v-1.76c0-.24-.11-.34-.37-.4a20.67,20.67,0,0,0-3.66-.45l-.64,0c-2.17,0-4,.71-4,3.84" style="fill:none"/></clipPath><linearGradient id="linear-gradient-12" x1="88.38" y1="804.3" x2="89.68" y2="804.3" gradientTransform="matrix(0, 97.17, 97.17, 0, -77749.51, -8397.12)" xlink:href="#linear-gradient-4"/><clipPath id="clip-path-14" transform="translate(-282.38 -244.84)"><path d="M410,257.1v13.1c0,.2.17.27.32.28l2.5.18c.17,0,.3-.15.3-.36v-7.85c0-.13.06-.15.09-.15s.1.05.15.15l1.7,3.25a.7.7,0,0,0,.57.37l1.51.13a.55.55,0,0,0,.57-.27l1.7-3c.06-.09.1-.12.15-.12s.1,0,.1.16v7.86a.39.39,0,0,0,.3.41l2.49.24c.15,0,.33,0,.32-.23V258.21a.71.71,0,0,0-.68-.73l-1.78-.18a.8.8,0,0,0-.83.44l-2.9,5.1c-.07.14-.13.24-.2.23s-.13-.1-.21-.26l-2.9-5.6a1,1,0,0,0-.84-.57l-1.78-.13h-.07a.57.57,0,0,0-.61.6" style="fill:none"/></clipPath><linearGradient id="linear-gradient-13" x1="88.38" y1="804.32" x2="89.68" y2="804.32" gradientTransform="matrix(0, 97.21, 97.21, 0, -77771.54, -8410.55)" xlink:href="#linear-gradient-4"/><clipPath id="clip-path-15" transform="translate(-282.38 -244.84)"><path d="M430.73,269.78c-1.59-.2-2.32-1.24-2.32-3.5V264c0-2.26.74-3.14,2.32-2.94s2.34,1.25,2.34,3.51v2.25c0,2.05-.63,3-1.93,3l-.41,0m-5.59-6.11v2.24c0,4.37,2.48,6.31,5.59,6.69s5.58-1,5.58-5.32V265c0-4.37-2.47-6.4-5.58-6.77a7.59,7.59,0,0,0-.94-.06c-2.66,0-4.65,1.54-4.65,5.46" style="fill:none"/></clipPath><linearGradient id="linear-gradient-14" x1="88.38" y1="804.34" x2="89.68" y2="804.34" gradientTransform="matrix(0, 97.19, 97.19, 0, -77744.19, -8419.83)" xlink:href="#linear-gradient-4"/><clipPath id="clip-path-16" transform="translate(-282.38 -244.84)"><path d="M438.56,259.83v8.39c0,4.3,2.44,5.77,5.42,6.24s5.43-.23,5.43-4.53v-8.39a.47.47,0,0,0-.4-.42l-2.44-.41a.3.3,0,0,0-.38.29v8.39c0,1.92-.52,2.64-2.22,2.37s-2.2-1.15-2.2-3.07v-8.38a.44.44,0,0,0-.38-.42l-2.47-.36h-.06a.3.3,0,0,0-.32.31" style="fill:none"/></clipPath><linearGradient id="linear-gradient-15" x1="88.38" y1="804.35" x2="89.68" y2="804.35" gradientTransform="matrix(0, 97.18, 97.18, 0, -77719.78, -8428.51)" xlink:href="#linear-gradient-4"/><clipPath id="clip-path-17" transform="translate(-282.38 -244.84)"><path d="M451.12,261.85v1.94a.45.45,0,0,0,.38.43l3,.56v11a.48.48,0,0,0,.38.45l2.45.47a.3.3,0,0,0,.37-.31v-11l3,.6a.29.29,0,0,0,.39-.28v-1.95a.48.48,0,0,0-.39-.43c-3.08-.63-6.18-1.22-9.28-1.77h-.08a.29.29,0,0,0-.3.3" style="fill:none"/></clipPath><linearGradient id="linear-gradient-16" x1="88.38" y1="804.36" x2="89.68" y2="804.36" gradientTransform="matrix(0, 97.2, 97.2, 0, -77728.48, -8439.6)" xlink:href="#linear-gradient-4"/><clipPath id="clip-path-18" transform="translate(-282.38 -244.84)"><path d="M462.93,264.13V277.4a.48.48,0,0,0,.37.46l2.45.53a.3.3,0,0,0,.37-.3v-5.45q2.3.5,4.6,1v5.44a.51.51,0,0,0,.37.47l2.44.57a.29.29,0,0,0,.37-.29V266.6a.49.49,0,0,0-.37-.45l-2.44-.57a.27.27,0,0,0-.37.27v5l-4.6-1v-5a.47.47,0,0,0-.37-.44l-2.45-.52h-.09a.27.27,0,0,0-.28.29" style="fill:none"/></clipPath><linearGradient id="linear-gradient-17" x1="88.38" y1="804.38" x2="89.68" y2="804.38" gradientTransform="matrix(0, 97.17, 97.17, 0, -77690.3, -8445.05)" xlink:href="#linear-gradient-4"/></defs><title>AFC Bournemouth logo - Brandlogos.net</title><g style="clip-path:url(#clip-path)"><rect x="425.4" y="425.61" width="1.51" height="3.62" transform="translate(-408.25 426.64) rotate(-68.94)" style="fill:url(#linear-gradient)"/></g><g style="clip-path:url(#clip-path-2)"><rect x="434.98" y="429.33" width="1" height="1.57" transform="translate(-404.79 437.07) rotate(-68.94)" style="fill:url(#linear-gradient-2)"/></g><g style="clip-path:url(#clip-path-3)"><rect y="0.01" width="202.54" height="266.27" style="fill:url(#linear-gradient-3)"/></g><g style="clip-path:url(#clip-path-4)"><path d="M406.19,382.51l-8.46-9.68a44.43,44.43,0,0,1-29.95-14.6,21.92,21.92,0,0,0-4.46,4.3L342.65,362l-.37,8.2s-3-.17-6.24,0-3.39,4.64-3.39,4.64a17.72,17.72,0,0,0-5.17.53c-2.67.71-2.31,4.82-2.31,4.82s-7,.18-9.27,2.85-2.67,8.2-.35,11.41,15.5,22.1,18.88,29.58c3.25,7.18,3.88,31,3.93,33a202.6,202.6,0,0,0,35.07,33.77c3.27,2.46,6.7,4.91,10.21,7.26,3.51-2.35,6.94-4.8,10.23-7.28,2.54-1.92,5-3.91,7.43-5.92l-33.84-39.06,0,0,2.11-1.83.68,0,.67,0h0c.56,0,1.11,0,1.69.07s1.33.08,2.05.08h.08a16.51,16.51,0,0,0,8.13-2.07,6.52,6.52,0,0,0,2.87-3,9.44,9.44,0,0,0,.86-4.13,8.81,8.81,0,0,0-.74-3.75,6.77,6.77,0,0,0-3.7-3,15.62,15.62,0,0,0-3.81-1l-.22,0h-.11l-2-.35h0l-6.46-7.2,0,0,2.93-2.53,0,0,0,0h0l5.24,5.9a20.55,20.55,0,0,1,5.13,1.21L374.89,415l2.53-2.2,0,0,0,0h0l45.42,51.29c.68-.76,1.34-1.54,2-2.3l-45.17-51,0,0,2.5-2.17,0,0,0,0h0l3.42,3.86,41.38,46.73c.66-.79,1.3-1.6,2-2.4l-44.5-50.25,1-.83h0a17.29,17.29,0,0,0,3,.47h0l0,0h0l42.49,48c.64-.82,1.26-1.65,1.88-2.47L392.7,406.23h.08a22.77,22.77,0,0,0,3.8-.66h0l0,0,0,0h0l2.18,2.47,36.28,41c.61-.84,1.21-1.7,1.81-2.55l-37.21-42,0,0a7.42,7.42,0,0,0,2.47-2.12l0,0,0,0,0,0h0l3.09,3.49,33.49,37.82c.59-.87,1.17-1.75,1.74-2.63l-37-41.76v0a14.58,14.58,0,0,0,.38-4.71v-.12l.08.09,0,0v0L442.62,438c.56-.9,1.12-1.81,1.67-2.71L402,387.47v-5.08l.07.08,0,0v0l8.26,9.33,33.62,38,2.13,2.4q.81-1.39,1.6-2.8Z" transform="translate(-282.38 -244.84)" style="fill:#fff"/><path d="M377.88,447.93l-.71.1-.14,0-.22,0-.38,0-.61,0h-.6c-.38,0-.79,0-1.23-.06l30.25,34.33c.77-.66,1.52-1.35,2.27-2Z" transform="translate(-282.38 -244.84)" style="fill:#fff"/><path d="M389.14,441.33a11,11,0,0,1-1.85,2.5l26.39,29.95c.73-.71,1.43-1.44,2.15-2.16Z" transform="translate(-282.38 -244.84)" style="fill:#fff"/><path d="M390.37,432.49a15.36,15.36,0,0,1,.16,1.9,15.19,15.19,0,0,1-.19,2.67l28.18,31.82c.71-.74,1.39-1.5,2.09-2.25Z" transform="translate(-282.38 -244.84)" style="fill:#fff"/><path d="M384.52,445.77l-.38.2-.2.1-.47.23h0l-.09,0-.19.09h0l-.05,0,0,0-.06,0,0,0a14.36,14.36,0,0,1-1.42.48L409,478.18c.75-.69,1.47-1.4,2.21-2.09Z" transform="translate(-282.38 -244.84)" style="fill:#fff"/><path d="M484.92,259.24a362.55,362.55,0,0,0-101.19-14.4h-.16a362.55,362.55,0,0,0-101.19,14.4V328.6a222.86,222.86,0,0,0,12.82,73.46c.69,1.95,1.46,4,2.36,6.36.86,2.18,1.66,4.16,2.46,6l0,.05,0,.05.16.38c14.39,33.64,36.79,62.13,66.58,84.68,3.77,2.85,7.74,5.65,11.78,8.33l.06,0,5,3.14,5-3.14.06,0c4-2.68,8-5.49,11.79-8.34,29.78-22.55,52.18-51,66.57-84.68l.16-.38,0-.05,0-.05c.8-1.86,1.61-3.84,2.47-6s1.66-4.39,2.34-6.33a222.88,222.88,0,0,0,12.82-73.47Zm-80.68,223.2L374,448.11c.45,0,.86.06,1.24.06h.6l.61,0,.38,0,.22,0,.14,0,.71-.1,28.63,32.49c-.76.67-1.51,1.36-2.28,2m4.79-4.26L381.53,447a14.33,14.33,0,0,0,1.43-.49l0,0,.06,0,0,0,.05,0h0l.19-.09.09,0h0l.47-.23.2-.1.38-.2,26.72,30.32c-.74.7-1.46,1.41-2.22,2.1m4.65-4.4-26.4-30a10.89,10.89,0,0,0,1.85-2.51l26.7,30.3c-.72.72-1.42,1.46-2.15,2.17m4.84-4.91L390.32,437a15.15,15.15,0,0,0,0-4.58l30.26,34.17c-.69.75-1.38,1.51-2.09,2.25M446.1,432.2l-44-49.73-.07-.08v5.08l42.3,47.77c-.55.91-1.11,1.82-1.68,2.72l-38.5-43.47-.08-.09v.12a14.58,14.58,0,0,1-.38,4.72v0l37,41.76c-.58.88-1.15,1.77-1.75,2.64L405.38,405.8l-3.09-3.49,0,0,0,0a7.43,7.43,0,0,1-2.47,2.12l0,0,37.21,42c-.6.86-1.2,1.71-1.82,2.56l-38.5-43.47v0h0a22.77,22.77,0,0,1-3.8.66h-.08L433,451.8c-.63.83-1.25,1.66-1.89,2.48l-42.52-48h0a17.43,17.43,0,0,1-3-.47h0l-1,.83,44.5,50.25c-.65.8-1.29,1.61-2,2.4L382.3,408.63l0,0-2.5,2.17,0,0,45.17,51c-.67.77-1.33,1.55-2,2.31l-45.45-51.32,0,0-2.53,2.2,8.13,9.17a20.5,20.5,0,0,0-5.15-1.21L372.61,417l0,0-2.93,2.53,0,0,6.46,7.2h0l2,.35h.11l.22,0a15.55,15.55,0,0,1,3.81,1,6.77,6.77,0,0,1,3.7,3,8.82,8.82,0,0,1,.74,3.75,9.42,9.42,0,0,1-.87,4.12,6.49,6.49,0,0,1-2.86,3,16.5,16.5,0,0,1-8.13,2.07h-.08c-.72,0-1.4,0-2.05-.08s-1.13-.06-1.69-.07h0l-.67,0-.68,0-2.11,1.83,0,0,33.84,39.06c-2.43,2-4.89,4-7.43,5.92-3.29,2.48-6.73,4.92-10.23,7.28-3.51-2.35-6.94-4.8-10.21-7.26a196.72,196.72,0,0,1-63.05-80.12l-.11-.28,0-.05,0-.12,0-.11,0,0c-.75-1.74-1.51-3.6-2.32-5.67-.86-2.22-1.59-4.19-2.24-6a211.7,211.7,0,0,1-12.19-69.79V291.22a351.49,351.49,0,0,1,90.17-11.76h.16A351.12,351.12,0,0,1,424,281.79V290a44.67,44.67,0,1,0-26.29,82.79l8.46,9.68,41.51,46.88q-.79,1.41-1.6,2.81M424,366.43v31.11l-21.76-24.62A44.27,44.27,0,0,0,424,366.43m25.39,59.83L437.15,412.4V354.15a44.77,44.77,0,0,0,0-51.82V283.55q6.14.95,12.25,2.11Zm24.5-97.67a211.81,211.81,0,0,1-12.19,69.82l-.06.15V288.21q6.15,1.4,12.25,3Z" transform="translate(-282.38 -244.84)"/><path d="M401.13,296.37l-13.61-5.45a39.81,39.81,0,0,0-16.71,11.55l.69,15-10.2,13.1-.27.35a42.05,42.05,0,0,0,5.5,17.39l.06,0,15.95,4.81,9,13.89a39.91,39.91,0,0,0,18.95,0l8.42-12.9,15.59-4.18a39.56,39.56,0,0,0,6.15-17.44L430.35,319.1l.64-16.94a39.91,39.91,0,0,0-15.63-10.94Zm10.37,46.55-20.24.1-6.33-19.42,16-11.94,16.37,12.15Z" transform="translate(-282.38 -244.84)" style="fill:#fff"/></g><g style="clip-path:url(#clip-path-5)"><rect x="289.46" y="262.99" width="19.57" height="18.79" transform="translate(-380.48 104.1) rotate(-53.22)" style="fill:url(#linear-gradient-4)"/></g><g style="clip-path:url(#clip-path-6)"><rect x="302.25" y="261.48" width="17.49" height="16.1" transform="translate(-373.47 112.37) rotate(-53.22)" style="fill:url(#linear-gradient-5)"/></g><g style="clip-path:url(#clip-path-7)"><rect x="313.1" y="259.51" width="17.23" height="15.99" transform="translate(-367.55 120.14) rotate(-53.22)" style="fill:url(#linear-gradient-6)"/></g><g style="clip-path:url(#clip-path-8)"><rect x="329.29" y="256.81" width="18.01" height="17.15" transform="translate(-359.2 132.56) rotate(-53.22)" style="fill:url(#linear-gradient-7)"/></g><g style="clip-path:url(#clip-path-9)"><rect x="341.75" y="255.19" width="18.43" height="17.74" transform="translate(-353.05 142.18) rotate(-53.22)" style="fill:url(#linear-gradient-8)"/></g><g style="clip-path:url(#clip-path-10)"><rect x="355.2" y="254.35" width="18.2" height="17.47" transform="translate(-346.93 152.47) rotate(-53.22)" style="fill:url(#linear-gradient-9)"/></g><g style="clip-path:url(#clip-path-11)"><rect x="368.82" y="253.94" width="17.96" height="17.27" transform="translate(-341.1 163.08) rotate(-53.22)" style="fill:url(#linear-gradient-10)"/></g><g style="clip-path:url(#clip-path-12)"><rect x="381.8" y="253.94" width="18.06" height="17.45" transform="translate(-335.94 173.55) rotate(-53.22)" style="fill:url(#linear-gradient-11)"/></g><g style="clip-path:url(#clip-path-13)"><rect x="394.95" y="255.32" width="16.76" height="15.59" transform="matrix(0.6, -0.8, 0.8, 0.6, -331.29, 183.75)" style="fill:url(#linear-gradient-12)"/></g><g style="clip-path:url(#clip-path-14)"><rect x="406.59" y="254.39" width="19.7" height="19.25" transform="translate(-326.76 194.6) rotate(-53.22)" style="fill:url(#linear-gradient-13)"/></g><g style="clip-path:url(#clip-path-15)"><rect x="421.46" y="256.7" width="18.53" height="17.8" transform="translate(-322.29 206.68) rotate(-53.22)" style="fill:url(#linear-gradient-14)"/></g><g style="clip-path:url(#clip-path-16)"><rect x="434.56" y="258.27" width="18.84" height="17.92" transform="translate(-318.28 217.95) rotate(-53.22)" style="fill:url(#linear-gradient-15)"/></g><g style="clip-path:url(#clip-path-17)"><rect x="447.07" y="260.56" width="18.15" height="17.12" transform="matrix(0.6, -0.8, 0.8, 0.6, -314.91, 228.45)" style="fill:url(#linear-gradient-16)"/></g><g style="clip-path:url(#clip-path-18)"><rect x="458.58" y="262.73" width="19.67" height="18.58" transform="translate(-312.31 239.45) rotate(-53.22)" style="fill:url(#linear-gradient-17)"/></g></svg>