<svg xmlns="http://www.w3.org/2000/svg" xmlns:xlink="http://www.w3.org/1999/xlink" viewBox="0 0 154.14 180.33"><defs><style>.a{fill:url(#a);}.b{fill:url(#b);}.c{fill:#97d9f6;}.d{fill:#fff30d;}.e{fill:#0c2950;}.f{fill:#fff200;}.g{fill:#630530;}.h{fill:#06121e;}.i{fill:#fab41d;}.j{fill:#fab217;}</style><linearGradient id="a" x1="206.31" y1="909.22" x2="206.84" y2="909.22" gradientTransform="translate(-156003.01 178958.07) rotate(-125.93) scale(254.58)" gradientUnits="userSpaceOnUse"><stop offset="0" stop-color="#241d10"/><stop offset="1" stop-color="#fff30d"/></linearGradient><linearGradient id="b" x1="208.05" y1="908.87" x2="208.58" y2="908.87" gradientTransform="translate(263674.81 -232613.45) rotate(61.38) scale(377.02)" xlink:href="#a"/></defs><title>Burnley FC logo</title><path class="a" d="M434.93,421.83v92.38c0,19.94,8.07,39.16,23.36,55.59A116.1,116.1,0,0,0,512.21,602l.47.13.49-.06c5.65-.81,22.65-6.59,39.15-19.27,14.74-11.34,33.07-31.51,36.74-63.23V421.83Z" transform="translate(-434.93 -421.83)"/><path class="b" d="M438.37,426.56v87.36c0,19.13,7.75,37.49,22.39,53.07a109.53,109.53,0,0,0,50.42,30l1.45.33,1.62-.16h.07c5.67-.81,13-4,15.14-4.94a107.07,107.07,0,0,0,22-13.29c19.58-15.33,31.38-36,34.12-59.71l0-92.68" transform="translate(-434.93 -421.83)"/><path class="c" d="M444.59,432.7H579.41v85.85c-6.09,52.77-57.9,71.31-66.66,72.56-36.21-9.89-68.15-40.33-68.15-77.19" transform="translate(-434.93 -421.83)"/><path class="d" d="M510.93,434.73a6.12,6.12,0,0,1,0,1.74,3.51,3.51,0,0,1-.3,1,12.8,12.8,0,0,1,1.63-.69c.55-.15,1.39-.3,1.68-.4s-1.73.85-2.42,1.24a5.69,5.69,0,0,0-1.74,1.29,9.15,9.15,0,0,0-1.39,2.38c0,.5.6,1,.5,1.79a2.31,2.31,0,0,1-.5,1.3c-.15.15-.2-.1-.24-.75a3.54,3.54,0,0,0-.15-.89,1.75,1.75,0,0,0-.45.59,3.8,3.8,0,0,1-.64,1.25,5.56,5.56,0,0,1-.84.84s.15-2.34.64-2.93a9.78,9.78,0,0,0,.79-1.09,6.66,6.66,0,0,0,.5-2.09,5.31,5.31,0,0,1,.79-2.93,7.27,7.27,0,0,1,2.13-1.64" transform="translate(-434.93 -421.83)"/><path class="e" d="M510.93,434.73l-.11,0a7.36,7.36,0,0,1,.06.94,3.6,3.6,0,0,1-.06.76,5,5,0,0,1-.2.76l-.06.16,0,0-.2.34.35-.18a13.36,13.36,0,0,1,1.61-.69c.54-.15,1.38-.3,1.69-.4h0l0-.07v.08h0l0-.07v0l0,.1h0v-.11l0,.1,0-.1h-.11l.07.1,0-.1h0l-.08-.08,0,.08H514l-.08-.08,0,0,0,0h0l0,0,0,0c-.13.09-1.82.88-2.44,1.23a5.67,5.67,0,0,0-1.78,1.33c-.15.22-.5.69-.81,1.18a3.32,3.32,0,0,0-.6,1.27c0,.54.52,1,.51,1.62v.16a2.15,2.15,0,0,1-.46,1.22l0,0,0,0v0h0l0,0v0l0-.05h0v.06l0-.05h0a2.85,2.85,0,0,1-.1-.69,3.45,3.45,0,0,0-.16-.93l-.06-.15-.12.1a1.94,1.94,0,0,0-.48.64,3.57,3.57,0,0,1-.63,1.22h0a6.53,6.53,0,0,1-.57.61c-.15.14-.24.21-.24.21l.07.09h.11s0-.58.14-1.23a4,4,0,0,1,.48-1.63,9.21,9.21,0,0,0,.8-1.11h0a7,7,0,0,0,.51-2v-.27a5.19,5.19,0,0,1,.77-2.69h0a7.19,7.19,0,0,1,2.08-1.6l0-.1-.11,0,.11,0,0-.1a7.29,7.29,0,0,0-2.17,1.67h0a5.45,5.45,0,0,0-.83,2.83v.27a4.65,4.65,0,0,1-.24,1.24c-.13.4-.25.7-.25.7l.11,0-.1-.06a8.91,8.91,0,0,1-.78,1.08,4.14,4.14,0,0,0-.53,1.75c-.1.66-.14,1.25-.14,1.25l0,.24.2-.15a5.6,5.6,0,0,0,.87-.86,3.71,3.71,0,0,0,.65-1.27,1.66,1.66,0,0,1,.26-.4l.15-.15-.07-.09-.11,0,.05.19a6.07,6.07,0,0,1,.09.67,4.71,4.71,0,0,0,.07.6l.06.18.16.11.15-.07a2.38,2.38,0,0,0,.53-1.36v-.19c0-.71-.52-1.23-.51-1.62a3.39,3.39,0,0,1,.56-1.15c.31-.47.65-.94.8-1.17a5.62,5.62,0,0,1,1.7-1.25c.31-.18.93-.49,1.46-.75l.69-.34.22-.11.06,0,0,0,0,0,0-.08-.07-.11h0l-.06,0c-.28.09-1.13.24-1.68.39a13.27,13.27,0,0,0-1.66.71l.05.1.1.06a3.73,3.73,0,0,0,.31-1,4.2,4.2,0,0,0,.07-.8,7.39,7.39,0,0,0-.07-1l0-.15-.14.06" transform="translate(-434.93 -421.83)"/><path class="f" d="M520.74,455.37l.64-.1-.35-.5s1.14.6,1.29.65.3-.15.3-.15a1.28,1.28,0,0,0,.44.2c.25,0,.5-.3.75-.6s.55-.6.05-.69a6.36,6.36,0,0,1-1.14-.4.89.89,0,0,1-.5-.35l.6-.1a10.16,10.16,0,0,1-1.93-1.74,10.64,10.64,0,0,0-2.38-2.53,9.42,9.42,0,0,0-3-1.84c-.89-.19-1.43-.35-1.43-.35a17.7,17.7,0,0,1,.24-2.68,28.57,28.57,0,0,0,.94-3,2.33,2.33,0,0,0-.6-1.94,2.68,2.68,0,0,0-2-.94,5.79,5.79,0,0,0-2.15.76c-.55.24-.87.57-1.47.87a5.25,5.25,0,0,0-1,.53c-.15.15-.07.2-.07.2l.22.06a10.75,10.75,0,0,1,1.17-.3c.55-.1,1,.27,1.66.67a1.49,1.49,0,0,1,.9,1.47,7.94,7.94,0,0,1-1.14,2.93,8.43,8.43,0,0,0-1.34,2.28,7.94,7.94,0,0,0-.3,2.44,6.08,6.08,0,0,0,1.29,2.83,5.2,5.2,0,0,0,1.18,1.4,5.41,5.41,0,0,0,2,.19c.32,0,.51.37,1.39.83,1,.69,3,1.25,3.25.93a7.68,7.68,0,0,1,1.16-.6l1.29-.42" transform="translate(-434.93 -421.83)"/><path class="e" d="M520.74,455.37l0,.11.64-.1.18,0-.45-.65-.1.06-.05.1s1.13.59,1.3.65l.09,0a.49.49,0,0,0,.34-.2l-.09-.07-.07.09a1.3,1.3,0,0,0,.49.22h.07c.34,0,.55-.38.79-.64s.32-.35.34-.57-.15-.28-.36-.31a6.11,6.11,0,0,1-1.13-.39,1.12,1.12,0,0,1-.36-.2l-.06-.07h0l-.1,0,0,.11.59-.1.27,0-.23-.16s-.38-.27-.81-.63a5.77,5.77,0,0,1-1.09-1.08,10.77,10.77,0,0,0-2.41-2.56h0a9.49,9.49,0,0,0-3-1.86c-.89-.2-1.43-.35-1.43-.35l0,.11h.11a17.11,17.11,0,0,1,.24-2.66c.09-.36.33-1,.54-1.6a6.53,6.53,0,0,0,.4-1.46v-.36a2.15,2.15,0,0,0-.63-1.66,2.77,2.77,0,0,0-2.11-1,5.76,5.76,0,0,0-2.2.77h0c-.57.26-.89.59-1.47.87a4.87,4.87,0,0,0-1,.56l-.13.24.06.14h0l.24.07h.06a10.69,10.69,0,0,1,1.16-.29l.16,0a3.11,3.11,0,0,1,1.41.67,1.37,1.37,0,0,1,.84,1.37,7.93,7.93,0,0,1-1.12,2.87,8.33,8.33,0,0,0-1.35,2.32,11.38,11.38,0,0,0-.32,2.05,3.53,3.53,0,0,0,0,.42h0a6.18,6.18,0,0,0,1.31,2.89l.09-.07-.1.06a5.23,5.23,0,0,0,1.23,1.44,3.21,3.21,0,0,0,1.38.22h.71c.22,0,.44.34,1.34.82l.05-.1-.06.1a6.84,6.84,0,0,0,3,1,.56.56,0,0,0,.42-.13l-.09-.07,0,.11a8.35,8.35,0,0,1,1.15-.6l1.29-.42,0-.11,0,.11,0-.11,0-.11-1.29.42h0a8,8,0,0,0-1.16.61h0l0,0a.39.39,0,0,1-.24.05,6.8,6.8,0,0,1-2.85-1h0c-.86-.44-1-.82-1.44-.85l-.71,0a3.17,3.17,0,0,1-1.27-.19,3,3,0,0,1-.75-.77,6.52,6.52,0,0,1-.39-.59h0a6,6,0,0,1-1.26-2.77l0-.39a11.22,11.22,0,0,1,.32-2,8.36,8.36,0,0,1,1.33-2.25,8.05,8.05,0,0,0,1.16-3,1.61,1.61,0,0,0-1-1.57,3.22,3.22,0,0,0-1.53-.7l-.2,0a12.22,12.22,0,0,0-1.19.3l0,.11,0-.11-.22-.06,0,.11.07-.09,0,0h.06l0,0,0,0h.06l.06-.07a4.83,4.83,0,0,1,1-.51h0c.61-.3.94-.63,1.46-.87a5.81,5.81,0,0,1,2.11-.75,2.56,2.56,0,0,1,2,.91,1.93,1.93,0,0,1,.56,1.5v.36a6.38,6.38,0,0,1-.39,1.39c-.21.6-.44,1.23-.55,1.62a18.72,18.72,0,0,0-.26,2.71V447l.09,0s.55.15,1.45.35a9.35,9.35,0,0,1,2.93,1.82,10.72,10.72,0,0,1,2.35,2.5h0a10.35,10.35,0,0,0,2,1.78l.07-.1,0-.11-.59.1-.15,0,.07.14a1,1,0,0,0,.56.41,6.41,6.41,0,0,0,1.16.4c.18,0,.18.08.18.09a1.33,1.33,0,0,1-.29.42c-.23.29-.48.58-.61.56h0l-.28-.11-.11-.07-.1-.07-.07.09-.06.06-.1.05h0l0,.11,0-.11-.68-.34-.59-.31-.15.17.35.49.09-.06,0-.11-.64.1h0" transform="translate(-434.93 -421.83)"/><path class="g" d="M510.2,439.07c-.6.28-.77.43-1.42.77a5.75,5.75,0,0,0-1.25.94.56.56,0,0,0-.23.35l.21-.1s1-.24,1.64-.35a2.32,2.32,0,0,1,1.8.48,7.13,7.13,0,0,1-.66-1.49,3.82,3.82,0,0,1-.09-.61" transform="translate(-434.93 -421.83)"/><path class="e" d="M512.64,448.2a7.61,7.61,0,0,0,.58,2.75,3.84,3.84,0,0,0,.27.42c.1.14.22.28.34.42a5.59,5.59,0,0,0,2,1.5l.39.11-.12-.15.27-.25a2.26,2.26,0,0,0,.93.51l.08,0-.22-.34h0l.31-.2h0v0l0,.06c.12.18.45.63.63.52a1,1,0,0,0,.4-.35l.32.19a1.4,1.4,0,0,1-.52.48l-.22.07.06.09-.43-.08-.51-.09-.16,0,0,0h-.4a4.44,4.44,0,0,1-1-.24,6,6,0,0,1-2.13-1.6c-.13-.15-.26-.3-.36-.45a4.1,4.1,0,0,1-.3-.46h0a8.06,8.06,0,0,1-.63-2.92" transform="translate(-434.93 -421.83)"/><path class="e" d="M511.81,439.14a.92.92,0,0,1,.51-.19,2.25,2.25,0,0,1,.69.19,1.09,1.09,0,0,1-.51.28c-.28,0-.69-.28-.69-.28" transform="translate(-434.93 -421.83)"/><path class="g" d="M511.7,454.36a4.58,4.58,0,0,1,.84,1c.22.43.65,1.1.69,1.27s.07.26-.07.26-.67-.05-1.37-.15a5.35,5.35,0,0,1-1.92-.92,3.08,3.08,0,0,0-1.38-.6c-.52-.05-.87-.05-.87-.05s1.3,1.4,1.62,1.68a9.21,9.21,0,0,0,1.87,1.33,8.86,8.86,0,0,0,2.39,1.15c.93.13,1,.2,1.38-.18a7.08,7.08,0,0,0,.69-1s.13.13.1.75a7.71,7.71,0,0,1-.55,1.93c-.1.27-.75,1.72-.87,2a1.8,1.8,0,0,1-.32.5s.1.17.47.17h.9a1.55,1.55,0,0,0,.75-.12,2.36,2.36,0,0,1,.15-1.18,9.75,9.75,0,0,1,1.85-2.57,5,5,0,0,0,1-.88c0-.1-.15-.5-.22-.9s-.28-1.38-.28-1.38.14-.12-.68-.16a5.11,5.11,0,0,1-2.1-.63c-1.72-1.18-2-1.19-2-1.19s-.68,0-1,0-1.09-.15-1.09-.15" transform="translate(-434.93 -421.83)"/><path class="d" d="M509.55,456.51c.38,1.2-.76,2.64-2.56,3.21s-3.55.06-3.93-1.14.76-2.64,2.56-3.21,3.55-.06,3.93,1.14" transform="translate(-434.93 -421.83)"/><path class="e" d="M509.55,456.51l-.11,0a1.5,1.5,0,0,1,.07.44c0,1-1,2.14-2.55,2.62a4.72,4.72,0,0,1-1.42.23,2.31,2.31,0,0,1-2.37-1.3,1.44,1.44,0,0,1-.07-.44c0-1,1-2.14,2.55-2.62a4.7,4.7,0,0,1,1.42-.23,2.31,2.31,0,0,1,2.37,1.3l.11,0,.11,0a2.53,2.53,0,0,0-2.59-1.46,5.06,5.06,0,0,0-1.49.24c-1.59.51-2.7,1.68-2.7,2.85a1.56,1.56,0,0,0,.08.51,2.53,2.53,0,0,0,2.59,1.46,5,5,0,0,0,1.49-.24c1.59-.51,2.7-1.68,2.71-2.85a1.58,1.58,0,0,0-.08-.51" transform="translate(-434.93 -421.83)"/><path class="g" d="M509.65,461.49a13,13,0,0,1-.44,2.34,2.85,2.85,0,0,1-.77.39l-3.23-1.71-2.39,2.23a22.53,22.53,0,0,1-2.6-1.7,10.38,10.38,0,0,1-.53,1.94.69.69,0,0,1-.15.08h-5.09a3,3,0,0,0,0,6v0h26.43c-1.45,0-1.8-1.23-3.07-1.59-.36-1.25-2.19-1.66-3-2.75-.37-1.08,1.34-.75,2.19-1,.3,0,.58,0,.85,0,4,0,5.08,3,8.15,4.37V471c-2.67-.58-3.53-1.91-5.72-2.75-1.82,1.33,1.34,1.58,1.34,2.75a3.2,3.2,0,0,1-.69.1h10a3,3,0,0,0,0-6v0h-4.75a10.93,10.93,0,0,1-1.42-1.87l-.57.52a2.86,2.86,0,0,1-1.84.13c-.83-.31-1.68-1.71-1.68-1.71l-3.58,1.14-.77-1.43-1.48,1.3-.44-.7-.85.7-.27-1.52s-1.23,1.69-1.47,1.93-2.15-2.05-2.15-2.05Zm-4.72,3.78a11.55,11.55,0,0,1,2.12.14,14,14,0,0,1,5.54,4.83V471c-1.54.09-2.36-1.74-3.69-.67l.41.5c-1.95.42-2.77-1.49-4.11-2.24-.31-1-2.16-1.33-2.16-2.58A2.7,2.7,0,0,1,504.94,465.27Zm-8.61.81c1.95.08,2,2,3.6,2.5.25.83,2.53,1.41,1.39,2.25-2.91.25-2.4-3-5.06-1.67-.38.75.63.75,1.14,1.08v.41c-1.52.67-1.9-.74-2.91-1.08a2.82,2.82,0,0,1,.89-3.41,4,4,0,0,1,1-.09Zm33.34.09a.43.43,0,0,1,.18,0,2.2,2.2,0,0,1,1.13,1.08V468c-.84.42-1.33-.58-1.66-1.25,0-.37.18-.54.35-.58Z" transform="translate(-434.93 -421.83)"/><path class="h" d="M456.2,524.76s-.64-4,0-5.71,2.9-4.2,4.95-4.2,4.62,2.7,5,4.31-.32,3.88-.43,5.71.11,4.85.11,4.85l-9-2.26" transform="translate(-434.93 -421.83)"/><path class="i" d="M456.72,519.24c-.57,1.53,0,5.13,0,5.41l.56,2.34,8,2c-.06-1-.14-2.87-.06-4.15a20,20,0,0,1,.28-2.08,9.05,9.05,0,0,0,.17-3.44h0a7,7,0,0,0-3-3.41,4.66,4.66,0,0,0-.8-.36,2.35,2.35,0,0,0-.71-.12h0c-1.27,0-2.69,1.17-3.61,2.42a7.35,7.35,0,0,0-.48.73,5.24,5.24,0,0,0-.32.68m-1.07,5.6s-.67-4.13,0-6h0a6.85,6.85,0,0,1,.4-.84,8,8,0,0,1,.56-.85c1.1-1.48,2.85-2.87,4.51-2.87h0a3.61,3.61,0,0,1,1,.18,5.43,5.43,0,0,1,1,.45,8.23,8.23,0,0,1,3.53,4.1h0a9.77,9.77,0,0,1-.15,3.91,19.18,19.18,0,0,0-.26,2c-.1,1.79.11,4.77.11,4.78l.06.76-.75-.19-9-2.26-.32-.09-.08-.33-.64-2.69" transform="translate(-434.93 -421.83)"/><path class="h" d="M466,522.6s-3.65-.11-4.94,1.18-2,2-1.83,2.91,2.47,1.08,3.44,1.29a28.05,28.05,0,0,0,3.22.32s-.11-2.69-.11-3.88a6.31,6.31,0,0,1,.22-1.83" transform="translate(-434.93 -421.83)"/><path class="i" d="M460.65,523.39C462.1,521.93,466,522,466,522l.75,0-.23.71a5.67,5.67,0,0,0-.19,1.66c0,1.22.1,3.85.11,3.86l0,.6-.6,0a28.1,28.1,0,0,1-3.32-.34l-.63-.12c-1.23-.22-3-.53-3.23-1.58h0a2,2,0,0,1,.43-1.75,14.48,14.48,0,0,1,1.54-1.69Zm4.65-.23c-1.05,0-3.06.2-3.86,1a13.21,13.21,0,0,0-1.42,1.54,1.06,1.06,0,0,0-.27.84c.09.35,1.41.59,2.35.76l.67.13a22.28,22.28,0,0,0,2.53.28c0-.88-.09-2.48-.09-3.29a9,9,0,0,1,.09-1.27" transform="translate(-434.93 -421.83)"/><path class="h" d="M457.82,537.25s-2.15-4.2-2.36-7.32a21.34,21.34,0,0,1,.54-6,21,21,0,0,0,4.3,3.23c1.72.76,8.81,1.72,10,2.16s4,2,4.19,3.67-.32,6.46-.86,7.32a4.89,4.89,0,0,1-1.39,1.4L458,538.87" transform="translate(-434.93 -421.83)"/><path class="i" d="M456,529.89c.2,3,2.29,7.1,2.3,7.11l.06.18.16,1.22,13.56,2.68a4.28,4.28,0,0,0,1-1.1,18.58,18.58,0,0,0,.8-5.09c0-.4,0-.76,0-1.08a7,7,0,0,0,0-.78h0c-.13-.94-1.49-2-2.63-2.63l-.67-.35c-.2-.1-.39-.18-.53-.23-.45-.17-1.92-.43-3.6-.73a43.14,43.14,0,0,1-6.42-1.43h0a17.76,17.76,0,0,1-3.73-2.67,20.38,20.38,0,0,0-.32,4.93m1.27,7.53c-.31-.63-2.18-4.48-2.38-7.46a22,22,0,0,1,.55-6.2l.23-.93.69.67a20.37,20.37,0,0,0,4.12,3.12h0A44.35,44.35,0,0,0,466.7,528a37.24,37.24,0,0,1,3.77.78h0c.19.07.4.16.63.27s.47.24.73.39c1.38.78,3,2.08,3.19,3.45h0c0,.25,0,.56.05.92s0,.74,0,1.14a19,19,0,0,1-1,5.63,5.6,5.6,0,0,1-1.58,1.58l-.19.11-.21,0-14.18-2.8-.39-.08-.05-.4" transform="translate(-434.93 -421.83)"/><path class="h" d="M568.73,525s.65-4,0-5.71-2.9-4.2-4.94-4.2-4.62,2.7-5,4.31.32,3.88.43,5.71a48.39,48.39,0,0,1-.11,4.84l9-2.26" transform="translate(-434.93 -421.83)"/><path class="i" d="M569.25,519.13c.69,1.86,0,6,0,6v0l-.64,2.65a.56.56,0,0,1-.42.46l-9,2.26-.17,0a.56.56,0,0,1-.52-.59,47.31,47.31,0,0,0,.11-4.78,19.19,19.19,0,0,0-.26-2,9.81,9.81,0,0,1-.15-3.9v0a8.2,8.2,0,0,1,3.53-4.1,5.11,5.11,0,0,1,1-.45,3.38,3.38,0,0,1,1-.18c1.67,0,3.41,1.39,4.51,2.87a8,8,0,0,1,.56.85,7.29,7.29,0,0,1,.4.84Zm-1.06,5.8c.05-.32.59-3.89,0-5.41h0a4.48,4.48,0,0,0-.32-.68,6.09,6.09,0,0,0-.48-.74c-.92-1.25-2.33-2.42-3.61-2.42h0a2.57,2.57,0,0,0-.72.13,4.42,4.42,0,0,0-.79.36,7,7,0,0,0-3,3.41v0a9.13,9.13,0,0,0,.18,3.43c.11.71.23,1.41.27,2.08.07,1.29,0,3.13-.06,4.15l8-2" transform="translate(-434.93 -421.83)"/><path class="h" d="M559,522.88s3.65-.11,4.94,1.18,2,2,1.83,2.91-2.47,1.08-3.44,1.29a27.57,27.57,0,0,1-3.22.32s.11-2.69.11-3.88a6.37,6.37,0,0,0-.22-1.83" transform="translate(-434.93 -421.83)"/><path class="i" d="M563.5,524.46c-.81-.81-2.81-1-3.86-1a9.27,9.27,0,0,1,.09,1.27c0,.81-.05,2.41-.09,3.29a21,21,0,0,0,2.53-.27l.67-.13c.94-.17,2.26-.4,2.35-.75h0a1.07,1.07,0,0,0-.27-.84,14.23,14.23,0,0,0-1.41-1.54h0Zm-4.56-2.13s3.89-.11,5.35,1.34a15.35,15.35,0,0,1,1.54,1.7,2,2,0,0,1,.43,1.75h0c-.27,1-2,1.36-3.23,1.58l-.63.12a29.42,29.42,0,0,1-3.32.34.56.56,0,0,1-.58-.53v-.07c0-.22.11-2.67.11-3.84a5.5,5.5,0,0,0-.19-1.66.56.56,0,0,1,.35-.7" transform="translate(-434.93 -421.83)"/><path class="h" d="M567.12,537.53s2.15-4.2,2.37-7.32a21.49,21.49,0,0,0-.54-6,21.12,21.12,0,0,1-4.3,3.23c-1.72.75-8.81,1.72-10,2.15s-4,2-4.19,3.67.32,6.46.86,7.32a4.94,4.94,0,0,0,1.4,1.4l14.18-2.8" transform="translate(-434.93 -421.83)"/><path class="i" d="M570,530.24c-.2,3-2.07,6.83-2.38,7.46l-.2,1.48a.56.56,0,0,1-.45.52l-14.18,2.8a.58.58,0,0,1-.4-.07,5.6,5.6,0,0,1-1.58-1.58c-.43-.69-.85-3.5-1-5.63,0-.4,0-.79,0-1.14s0-.67.05-.92h0c.19-1.38,1.81-2.68,3.18-3.46.27-.15.52-.28.74-.39s.44-.2.63-.27h0a36.92,36.92,0,0,1,3.77-.78,44.57,44.57,0,0,0,6.16-1.35l0,0h0a20,20,0,0,0,4.1-3.1l.27-.16a.56.56,0,0,1,.68.41,21.93,21.93,0,0,1,.55,6.2m-3.4,7c.16-.32,2.09-4.19,2.29-7.09a20.38,20.38,0,0,0-.32-4.93,17.76,17.76,0,0,1-3.73,2.67h0a44.53,44.53,0,0,1-6.41,1.43c-1.67.3-3.14.56-3.59.73-.14.05-.32.13-.53.23s-.44.22-.67.35c-1.15.65-2.5,1.68-2.62,2.63h0a7.12,7.12,0,0,0,0,.78c0,.32,0,.68,0,1.08a18.59,18.59,0,0,0,.8,5.09,4.2,4.2,0,0,0,1,1.1l13.56-2.68.16-1.22" transform="translate(-434.93 -421.83)"/><path class="h" d="M457.46,536.42s15.68,1.06,25.73,9.37,22.14,16.65,30.31,16.43c6.69-.18,18.32-6.71,24.49-11.84s13-10.43,18.51-11.84a31.29,31.29,0,0,1,10.22-.88,8.23,8.23,0,0,1,1.06,5.65c-.53,3.36-1.76,6.36-2.82,7.42s-5.64.53-9.52,2.83a122.45,122.45,0,0,0-16,12c-4.4,4.06-12.59,9.35-26.39,9.45-15,.1-28.32-10.32-32.64-13.86a65.78,65.78,0,0,0-16-9.71c-3.35-1.24-4.76-.89-5.82-2.48s-2.47-8-1.76-10.25" transform="translate(-434.93 -421.83)"/><path class="i" d="M482.83,546.21c-8.93-7.39-22.4-9-25-9.2l-.57,1.87c-.47,1.55.11,5.17.85,7.66.15.49.3.93.44,1.29a4.5,4.5,0,0,0,.4.81v0c.56.85,1.33,1,2.61,1.37a27.73,27.73,0,0,1,2.93.88A59.62,59.62,0,0,1,475.64,557c.86.57,1.72,1.18,2.56,1.8s1.71,1.29,2.52,2h0A74.15,74.15,0,0,0,492.93,569c5.68,3,12.67,5.55,20.07,5.5a42.47,42.47,0,0,0,16.52-3.19,32.94,32.94,0,0,0,9.51-6.11,124,124,0,0,1,12.09-9.45c.77-.53,1.51-1,2.19-1.47s1.32-.84,1.86-1.17A18.51,18.51,0,0,1,562,551a6.65,6.65,0,0,0,2.56-.64l0,0h0a11.56,11.56,0,0,0,2.08-4.47c.11-.4.22-.84.32-1.29s.19-.92.26-1.35h0a7.93,7.93,0,0,0-.83-5,31.2,31.2,0,0,0-9.76.89,30.73,30.73,0,0,0-8.82,4.45c-3.15,2.13-6.4,4.73-9.47,7.28a67.92,67.92,0,0,1-18.07,10.45,29.79,29.79,0,0,1-3.55,1.07,16.43,16.43,0,0,1-3.19.45h0c-4.2.11-9.36-2-14.75-5.1a125.31,125.31,0,0,1-15.93-11.46M457.5,535.86s15.85,1.08,26,9.49a124.29,124.29,0,0,0,15.78,11.36c5.22,3.05,10.19,5.05,14.16,5h0a15.3,15.3,0,0,0,3-.42,29.81,29.81,0,0,0,3.42-1,66.66,66.66,0,0,0,17.74-10.26c3.09-2.57,6.37-5.18,9.56-7.34a31.6,31.6,0,0,1,9.16-4.6,32.05,32.05,0,0,1,10.41-.9.56.56,0,0,1,.41.25,8.93,8.93,0,0,1,1.14,6c-.08.51-.17,1-.27,1.42s-.21.9-.34,1.35a12.7,12.7,0,0,1-2.37,5h0l0,0c-.58.55-1.71.72-3.16.94a17.51,17.51,0,0,0-6.43,1.93c-.55.32-1.16.71-1.82,1.14s-1.4.92-2.16,1.45a122.13,122.13,0,0,0-12,9.36,34.08,34.08,0,0,1-9.83,6.31A43.59,43.59,0,0,1,513,575.57c-7.61.05-14.78-2.56-20.59-5.63A75.09,75.09,0,0,1,480,561.59h0c-.81-.67-1.64-1.31-2.47-1.92s-1.68-1.22-2.52-1.78A58.63,58.63,0,0,0,464.14,552a26.82,26.82,0,0,0-2.82-.85c-1.55-.4-2.46-.63-3.27-1.84h0a5.64,5.64,0,0,1-.51-1c-.17-.4-.32-.88-.48-1.39-.79-2.65-1.38-6.54-.84-8.3l.71-2.3a.56.56,0,0,1,.57-.39" transform="translate(-434.93 -421.83)"/><path class="c" d="M466.74,544.89l.87.35c.35.14.6.13.74-.22s-.08-.46-.42-.59l-.87-.34Zm-.79,2,1,.38c.34.14.68.16.84-.25s0-.56-.38-.72l-1-.41Zm0-4.74,2.93,1.17c1.41.56,1.39,1.47,1.17,2a1.17,1.17,0,0,1-1.07.79,1.43,1.43,0,0,1,.4,1.71,1.83,1.83,0,0,1-2.52.89l-3-1.21" transform="translate(-434.93 -421.83)"/><path class="c" d="M474.58,549.73c-.68,1.45-1.78,1.78-3.37,1s-2.05-1.8-1.38-3.25l1.5-3.21,1.6.75-1.33,2.85c-.25.54-.56,1.2.22,1.57s1.08-.31,1.32-.85l1.33-2.85,1.6.75" transform="translate(-434.93 -421.83)"/><path class="c" d="M477.15,550l.8.46c.28.16.71.34,1-.1s.11-.6-.47-.94l-.72-.41Zm-.27-3.07,2.92,1.68a1.69,1.69,0,0,1,.8,2.37,1.48,1.48,0,0,1-1.47.82,1.58,1.58,0,0,1,0,1.67,3.83,3.83,0,0,0-.45,1.17l-1.53-.88a4,4,0,0,1,.32-.84c.23-.5.47-1-.13-1.37l-.81-.47-1,1.74-1.53-.88" transform="translate(-434.93 -421.83)"/><path class="c" d="M482.44,550.2l1.41,1.14-.65,3.45h0l1.95-2.4,1.3,1.05-3.64,4.48-1.34-1.09.62-3.56h0l-2,2.45-1.3-1.06" transform="translate(-434.93 -421.83)"/><path class="c" d="M486.9,553.88l1.4,1.08-2.62,3.4,2,1.55-.9,1.17-3.41-2.65" transform="translate(-434.93 -421.83)"/><path class="c" d="M490.49,556.66l3.94,2.66-.83,1.22-2.48-1.67-.4.6L493,561l-.77,1.14L490,560.61l-.4.6,2.54,1.72-.83,1.23-4-2.72" transform="translate(-434.93 -421.83)"/><path class="c" d="M494.1,563.33v-4.17l1.71,1-.19,2.32,1.9-1.38,1.7.94-3.57,2.18-1,1.86-1.55-.86" transform="translate(-434.93 -421.83)"/><path class="c" d="M500.85,562.68l4.19,1.49-.5,1.39-2.52-.9-.24.68,2.16.77-.47,1.29-2.16-.77-.73,2.07-1.67-.59" transform="translate(-434.93 -421.83)"/><path class="c" d="M506.78,569.11c.44.09,1.18-.07,1.43-1.33s-.38-1.69-.81-1.78-1.18.07-1.43,1.33.37,1.68.81,1.78m.89-4.52a3,3,0,1,1-3.45,2.4,2.84,2.84,0,0,1,3.45-2.4" transform="translate(-434.93 -421.83)"/><path class="c" d="M513.14,569.79c.45,0,1.15-.28,1.17-1.56s-.66-1.6-1.11-1.6-1.14.27-1.17,1.56.67,1.6,1.12,1.6m.09-4.6a3,3,0,1,1-3,3,2.84,2.84,0,0,1,3-3" transform="translate(-434.93 -421.83)"/><path class="c" d="M517.67,566.56l-1.59.26-.24-1.46,4.93-.81L521,566l-1.59.26.71,4.23-1.75.29" transform="translate(-434.93 -421.83)"/><path class="c" d="M524.09,568l1-.35c.35-.12.61-.33.47-.75s-.37-.43-.76-.28l-1,.37Zm-.72-2,.88-.31c.35-.13.54-.31.41-.65s-.36-.29-.7-.17l-.88.32Zm-2.42-1.51,3-1.06c1.42-.51,2,.19,2.21.74a1.18,1.18,0,0,1-.28,1.3,1.42,1.42,0,0,1,1.43,1,1.83,1.83,0,0,1-1.3,2.33l-3.07,1.1" transform="translate(-434.93 -421.83)"/><path class="c" d="M530,564.68l-1.29-1.33h0l.34,1.83,1-.51Zm-3-2.63,1.53-.81,4.54,4.13-1.62.85-.6-.61-1.62.85.16.85-1.58.83" transform="translate(-434.93 -421.83)"/><path class="c" d="M530.2,560.33l1.48-1,2.37,3.58,2.12-1.41.81,1.23-3.6,2.38" transform="translate(-434.93 -421.83)"/><path class="c" d="M534,557.81l1.42-1.06,2.57,3.43,2-1.53.89,1.18-3.45,2.59" transform="translate(-434.93 -421.83)"/><path class="c" d="M543.57,553.07a.93.93,0,0,0-1.25-.09c-.65.52-.36,1.31.13,1.92s1.2,1.08,1.84.56c.47-.37.39-.84.13-1.33l1.37-1.09a2.48,2.48,0,0,1-.56,3.51,3,3,0,0,1-3.76-4.72,2.36,2.36,0,0,1,3.46.16" transform="translate(-434.93 -421.83)"/><path class="c" d="M543.95,550l1.41-1.08,2.6,3.41,2-1.54.89,1.18-3.43,2.62" transform="translate(-434.93 -421.83)"/><path class="c" d="M554.34,547.21c.82,1.37.47,2.48-1,3.37s-2.65.68-3.47-.69l-1.81-3,1.52-.9,1.61,2.7c.3.51.68,1.14,1.42.69s.34-1.06,0-1.56l-1.61-2.7,1.53-.91" transform="translate(-434.93 -421.83)"/><path class="c" d="M556.93,547.15l1-.35c.35-.13.61-.33.46-.75s-.36-.43-.76-.28l-1,.38Zm-.73-2,.88-.32c.35-.13.54-.3.41-.65s-.36-.29-.71-.17l-.88.32Zm-2.42-1.51,3-1.06c1.42-.52,2,.18,2.21.73a1.18,1.18,0,0,1-.28,1.3,1.42,1.42,0,0,1,1.43,1,1.83,1.83,0,0,1-1.3,2.33l-3.07,1.1" transform="translate(-434.93 -421.83)"/><path class="d" d="M477.89,492.39v30.46s2.5,11.42,4.52,13.45,10.51,11.83,13.74,13.28S513,557,513,557l17.89-8.38,9.53-8.75,5.33-7.94,1.46-5.83.16-11.5.32-23.17-69.81-.06" transform="translate(-434.93 -421.83)"/><path class="h" d="M478.08,493h69.24V472.22H478.08Z" transform="translate(-434.93 -421.83)"/><path class="g" d="M478.58,525.6h3.17v-4.41h3.43V517H490V512.2h4.75v-4.32h4.84v-4.5h5.63v-4.77h5.28l2.48-3.84,2.93,3.84h4.91l.06,5h4.75v3.88h4.48V512h4.14v5h4.58v4.33h4.84v5.21h2.82a18.33,18.33,0,0,1-.88,4,5.56,5.56,0,0,1-1.76,2.29h-4.22v-5.47h-5.9v-4.94h-4.66v-4.59h-4.75v-4.68h-4.58V508.4h-4.31v-4.67h-5.37v4.5h-4.84v4.85h-5v4.67h-4.75v4.85h-5.1v4.85h-4.49v4.76h-4.22a17.53,17.53,0,0,1-2.29-3.7,21.94,21.94,0,0,1-.79-2.91" transform="translate(-434.93 -421.83)"/><path class="h" d="M519,516.67c-.54,1.5,1.41,2.21.6,3.57A4.28,4.28,0,0,0,519,522a2.92,2.92,0,0,0-.24,2l.05.32c-.3.19-.73-.38-.89.22.17.35.11.81.3,1.17l-.68.14c0,.49.25.84-.05,1.27-.93,0-.87-1-1.47-1.42-.35,0-.49.52-.79.63a1.13,1.13,0,0,1-.76.41c-.09-.47.16-1-.41-1.23-.47.19-.84.57-1.36.63-.05.14-.19.11-.3.11-.11-.49.43-.87.3-1.39-.16-.14-.27-.3-.49-.24a1.34,1.34,0,0,1-.68.19c-.11.27-.35.11-.55.16-.05-.79.65-1.27,1.12-1.88a7.66,7.66,0,0,1,2.39-.73c.55-.19,1.14-.49,1.22-1.12a.5.5,0,0,0-.14-.43c-.3.08-.4.38-.49.63-.32.32-.76.65-1.17.43l-.6-.27v-.06c.32-.06.79-.08,1-.49s-.06-.85-.09-1.34a.52.52,0,0,0-.22-.49c-.76,0-1.3.52-2,.11-.19-.3-.05-.6-.11-1a3.43,3.43,0,0,1,1.42-.6c.51.14.87.87,1.44.6a3.33,3.33,0,0,1,1.17-.6c0-.3-.41-.47-.6-.57-.46.11-.81.36-1.28.19,0-.3.33-.38.49-.55a4.59,4.59,0,0,0,1.71.11c.38-.09.76-.14,1.2-.22.19-.14.49-.08.68-.25a1.53,1.53,0,0,1,.92.22" transform="translate(-434.93 -421.83)"/><path class="h" d="M505.76,517.18a1.44,1.44,0,0,0-.63.31c-.27.63.62.41.81.9l-.13.13a2.19,2.19,0,0,0-1.39.06c-.79.65.73.65.71,1.36-.52,0-1.14-.54-1.68-.24,0,1.2,1.57,1.61,2.2,2.45a2.79,2.79,0,0,1-.38,2,2,2,0,0,1-.54.54v.14a1.48,1.48,0,0,0,.84.3c.63.49-.3.93-.41,1.42.41.25,1.12.11,1.22.71-.14.54-.79.38-.81,1a4.66,4.66,0,0,0,3.26.49c.14.08.48,0,.35.27-.87.68-1.85,1.42-2.64,2.12-.38.27-.73.79-1.22.87-.79.51-1.79-.06-2.56-.44-.22-.11-.57.06-.79-.13-.14.19-.47,0-.57.24-.55,0-.76.55-1.14.82,0,.24-.16.52,0,.68.63.24.62-.49,1-.74.14-.05.35-.08.43.11-.05.57-.74,1-.54,1.52a1.42,1.42,0,0,0,1-.49c.16-.11.43-.05.38.19a2.31,2.31,0,0,0-.44,1c.63.27,1.06-.06,1.66-.3.47,0,.68.38,1,.6.62.33.43-.6.81-.84.68-.17.73.93,1.38.87.35-.11.14-.54.2-.81,0-.6.43-.06.73-.16,1,.81.76-.87,1.41-1,.4,0,.84-.33,1.22-.41.49-.41.46-1.17.68-1.66.17,0,.25.16.35.24a4.58,4.58,0,0,1-.54,1.77c-.3,0-.47.33-.79.3-.08.08-.3.19-.3.38a3.79,3.79,0,0,0,1.21,1.63c.39.34.82.65,1.23,1,0-.2-.11-.5.12-.62a1.7,1.7,0,0,1,.62.68c.11.32.38.57.41.93.73,1.28-.54,2.4-.49,3.62,0,1.64,1.82,2.31,2.77,3.19,1.55,1.17,1,3.33.84,5.07l-.92.82c-1.17.32-1.82-.74-3.1-.49-.43.3-1,.38-1.16,1l.19.24a3.67,3.67,0,0,0,1.44-.24c.22.27.68.06.82.44-.68.05-1.47,0-1.85.73-.16.27,0,.49.3.58.46.3.82-.28,1.22-.44.22.05.54-.11.68.17-.3.38-1,.52-.9,1.17l1.09.08c.24-.22.71-.11.87-.44.38,0,.49-.46.84-.57s.63-.11.92.08.65,0,.55-.38-.05-.73-.11-1.09c.27-.76.76.05,1.28-.19a7.57,7.57,0,0,1-.3-2.07c.32-.41.62,0,1-.19a4.42,4.42,0,0,1-.43-2.15c.43-.6.67.3,1.16,0,.19-.57-.13-1.17-.08-1.82a.61.61,0,0,0-.59-.33c-.35-.16-.9-.19-1-.68a4.17,4.17,0,0,1,.3-2c.19-1,1.53-.35,2-1a3,3,0,0,0,1.46-2,3.89,3.89,0,0,0-.31-3.14h-3l.34.09c.63.3,1.5-.22,2,.49a2.93,2.93,0,0,1,.16,2.75,1.74,1.74,0,0,1-1.14.74c-.27.27-.92.06-1.28.19-.76-.49-.9-1.55-1.5-2.21a12.3,12.3,0,0,1-1.56-2,3.13,3.13,0,0,1-.4-1.93c-.3-.65.11-1.31,0-2,.06-.65.52-1.28.27-2-.27,0-.41-.33-.73-.3-.19.3-.17.79-.38,1.14-.76-.08-1.11-1-1.58-1.41s-.81.55-1.17.73c-.09.06-.33.11-.38-.05a2.86,2.86,0,0,1-.41-1.28c0-.22-.24-.27-.38-.35a2.84,2.84,0,0,1-1.17.3c-.49-.08-.11-.57-.3-.81l-.11.08a4.57,4.57,0,0,0-1.25,0l-.3-.19c-.19-.25.08-.55.13-.85.11-.73,1-1.33.6-2.1-.65-1.19-1.28-2.75-.54-4.11-.06-.44.32-1,.05-1.42.19-.39-.16-.79-.3-1.09a2.52,2.52,0,0,0-1.95-.61Zm6.48,19.19v0h0Z" transform="translate(-434.93 -421.83)"/><path class="h" d="M519,535.36a1.92,1.92,0,0,1-1.13-.79,1.46,1.46,0,0,1,.73.14c.25-.19.55.22.84,0,.14-.05.3-.05.38-.19-.68-.79-2.09-1.06-2.23-2.32a2.27,2.27,0,0,0,1.9.6c.16-.19-.09-.33-.11-.49a5.53,5.53,0,0,1-1-1.23,2.47,2.47,0,0,1-.25-1c.27.22.63.55,1,.44.3-.6.09-1.23.35-1.83-.27-.84.55-1.47.49-2.34.57-.82.71-1.8,1.36-2.56a3.52,3.52,0,0,1,2.74-1.47c.16.11.33-.16.49,0,.93.38,1,1.31,1.17,2.09a3.3,3.3,0,0,1,.06,1.47,21.33,21.33,0,0,1-1.41,4.36c-.19.41-.27.82-.43,1.22-.41-.14-.24-.79-.35-1.28-.16-.24-.52-.14-.74-.08-.1-1.12.68-1.88,1.22-2.75.06-.09-.05-.27-.19-.3a1.47,1.47,0,0,0-1,.41l-.13-.11c.38-1,1.52-1.34,2-2.21.05-.35.3-.82.05-1.17-.08-.55-.68-.68-1.06-.9-1.66.3-2.74,1.91-3.23,3.4a11.73,11.73,0,0,0-.55,2.4,9.39,9.39,0,0,0,.3,3.27,18,18,0,0,0,1.41,2.56c.11.21.22.43.32.65" transform="translate(-434.93 -421.83)"/><path class="h" d="M510.21,524.55c0,.38-.38.68-.24,1,.35.6.79-.11,1.27.06.11-.14.41-.16.49-.06a2.56,2.56,0,0,0-.46,1.09c.76.4,1.47.08,2.25-.16.17.3-.35.79.24,1a3.67,3.67,0,0,0,1.9-.76c.52-.16.79.63,1.23.76,0,.14.21.3,0,.41-.27-.05-.76-.14-.82.3.09.16,0,.41.06.63-.44-.11-.76-.6-1.28-.6-.46.3-.19,1.12-.73,1.14-.55-.35-.3-1.22-1-1.27-.41.22-.73.71-1.17.84-.3-.49,0-1.2-.44-1.63-.43,0-.73.43-1.19.19-.14-.41.35-.93-.24-1.12a6.65,6.65,0,0,1-1.47.49l-.08-.24a3.93,3.93,0,0,1,1.53-2.1" transform="translate(-434.93 -421.83)"/><path class="h" d="M510.5,537.16a3.58,3.58,0,0,0,1.46.14c.49.52-.24,1.69.93,1.58a13.33,13.33,0,0,0-.73,2.58c-1,.14-2.12-.92-2.85.16-.09.36.11.52.16.82a4.4,4.4,0,0,1,.57,1.88c0,.11,0,.33-.19.24-.4-.16-.76-.54-1.22-.35-.33.63.43,1.28.11,2-.14.3-.41.05-.55-.06s-.35-.14-.54-.24c-.52.24-.19.82-.33,1.2-.38.22-.73-.35-1,0a2.33,2.33,0,0,1-2.39.93c-.14-.41.27-.9.62-1.17l.06-.16a.33.33,0,0,0-.35-.14c-.49.19-.84.68-1.36.55-.16-.41.24-.71.44-1s.49-.11.49-.41c-.52-.32-.93.19-1.36.3-.14-.63.68-.71,1.06-1a1.56,1.56,0,0,1,.93.19,2.38,2.38,0,0,0,2.41-1.12c.63-1.71.22-3.19.33-5.06.38-.63.57-1.5,1.33-1.86" transform="translate(-434.93 -421.83)"/><path class="h" d="M487.77,496.14,484.25,502l3.57,6.63,3.45-6.69" transform="translate(-434.93 -421.83)"/><path class="h" d="M538.91,495.78l-3.52,5.86,3.57,6.63,3.45-6.69" transform="translate(-434.93 -421.83)"/><path class="d" d="M489.08,476.29a.37.37,0,1,1,.64-.36l7.15,12.57a.36.36,0,0,1-.14.5.37.37,0,0,1-.5-.14" transform="translate(-434.93 -421.83)"/><path class="d" d="M489.31,489.13a.37.37,0,1,1-.64-.37l7.15-12.57a.37.37,0,1,1,.64.36" transform="translate(-434.93 -421.83)"/><path class="f" d="M490.23,483.06c0-3.86,1.1-7,2.46-7s2.47,3.12,2.47,7-1.1,7-2.47,7-2.46-3.12-2.46-7" transform="translate(-434.93 -421.83)"/><path class="h" d="M490.26,483.92a16.77,16.77,0,0,0,2.42.29,17.55,17.55,0,0,0,2.42-.4,2.38,2.38,0,0,1,0,.63c0,.34-.11.88-.11.88s-2,.38-2.39.38-2.26-.22-2.26-.22" transform="translate(-434.93 -421.83)"/><path class="h" d="M490.5,486.35a10.27,10.27,0,0,0,2.21.32,18.24,18.24,0,0,0,2.16-.32,10.23,10.23,0,0,1-.34,1.39c-.13.23-1.5.3-1.8.28a10.88,10.88,0,0,1-1.83-.22,13.29,13.29,0,0,1-.39-1.46" transform="translate(-434.93 -421.83)"/><path class="h" d="M491.21,488.59a7.46,7.46,0,0,0,1.66.27,5.57,5.57,0,0,0,1.35-.27l-.53.88c-.12.12-1,.07-1.17.07a1.82,1.82,0,0,1-.89-.18,3,3,0,0,1-.47-.75" transform="translate(-434.93 -421.83)"/><path class="h" d="M491.3,478.51s.32-1.09.76-1.35.82-.47,1.26,0a1.74,1.74,0,0,1,.59,1c.09.35.12.56.12.56h-2.75" transform="translate(-434.93 -421.83)"/><path class="d" d="M501.24,484.48c-.32,1.14-4.4,1-9.12-.34s-8.28-3.33-8-4.47,4.4-1,9.12.35,8.29,3.32,8,4.46" transform="translate(-434.93 -421.83)"/><path class="d" d="M501.69,479.66c-.16-1.13-4.27-.87-9.19.59s-8.78,3.55-8.62,4.68,4.27.87,9.19-.59,8.78-3.55,8.62-4.68" transform="translate(-434.93 -421.83)"/><path class="d" d="M490.41,483h0a12,12,0,0,0,1.29,6.08,2.16,2.16,0,0,0,.44.5.9.9,0,0,0,.55.21c.59,0,1.15-.73,1.57-1.92A15.22,15.22,0,0,0,495,483h0a15.24,15.24,0,0,0-.71-4.87c-.42-1.19-1-1.92-1.57-1.92s-1.15.73-1.57,1.92a15.32,15.32,0,0,0-.71,4.88m-.37,0h0a15.5,15.5,0,0,1,.73-5c.47-1.34,1.15-2.17,1.92-2.17s1.45.83,1.92,2.17a15.5,15.5,0,0,1,.73,5h0a15.52,15.52,0,0,1-.73,5c-.47,1.34-1.15,2.17-1.92,2.17a1.26,1.26,0,0,1-.77-.28,2.55,2.55,0,0,1-.53-.59A12.36,12.36,0,0,1,490,483" transform="translate(-434.93 -421.83)"/><path class="d" d="M513.52,477.21l-.09.18c-.2,1.23.18,2.41-.12,3.51-.11.26-.53.29-.79.2-.38-.68.12-1.33-.27-2,.18-1-.38-2.38.47-3.33.88,0,.61,1,.79,1.47" transform="translate(-434.93 -421.83)"/><path class="d" d="M511.73,476.53a26.06,26.06,0,0,1,.18,4.39c0,.18-.21.32-.32.38l-.44.12c-.68-1.12-.24-2.5-.35-3.82a1.84,1.84,0,0,1,.59-1.21.35.35,0,0,1,.35.15" transform="translate(-434.93 -421.83)"/><path class="d" d="M514.76,476.59c.23,1.26-.06,2.48.06,4-.21.18-.06.53-.32.62a.4.4,0,0,1-.52-.3,24.62,24.62,0,0,1,0-3.94c.14-.26.38-.68.79-.35" transform="translate(-434.93 -421.83)"/><path class="d" d="M510.41,478.27a19.73,19.73,0,0,1-.15,3.24c-.11.3-.5.09-.64.44.06.26.32.41.53.53.56.09.94-.2,1.43-.18.44-.18,1,.12,1.38-.2.64.09,1.5-.24,1.93.26-.18.68-1.11.47-1.64.8-.38.15-.82.15-1.14.47a4.54,4.54,0,0,0,.2,2.59c.15-.09.38-.32.15-.53l.12-1.41c.38-.56,1.05-.59,1.64-.85.36-.15,1.06-.09,1.33-.47.06-1-.41-1.91.35-2.65.5,0,.27,1,1,.89a1.59,1.59,0,0,1-.11,1c0,1,0,2.18.06,3.18-.32.95-1,2.09-2.17,2.15a.84.84,0,0,0-.41.44c.09.29.53.11.53.53a2.05,2.05,0,0,1-.23,1.53,5.79,5.79,0,0,0-1.62.32c-.44-.27-1-.15-1.5-.32-.27,0-.47.21-.73.06a9.1,9.1,0,0,0-.15-2,4.1,4.1,0,0,0-1-.8,22,22,0,0,1-.09-7.84,3.24,3.24,0,0,1,.41-1.91c.56-.18.24.5.47.68" transform="translate(-434.93 -421.83)"/><path class="d" d="M529.54,476.29a.37.37,0,1,1,.64-.36l7.15,12.57a.36.36,0,0,1-.14.5.37.37,0,0,1-.51-.14" transform="translate(-434.93 -421.83)"/><path class="d" d="M529.78,489.13a.37.37,0,0,1-.51.14.37.37,0,0,1-.14-.51l7.15-12.57a.37.37,0,1,1,.64.36" transform="translate(-434.93 -421.83)"/><path class="d" d="M530.69,483.06c0-3.86,1.1-7,2.46-7s2.47,3.12,2.47,7-1.1,7-2.47,7-2.46-3.12-2.46-7" transform="translate(-434.93 -421.83)"/><path class="h" d="M530.73,483.92a16.65,16.65,0,0,0,2.42.29,17.55,17.55,0,0,0,2.42-.4,2.23,2.23,0,0,1,0,.63c0,.34-.1.88-.1.88s-2,.38-2.39.38-2.26-.22-2.26-.22" transform="translate(-434.93 -421.83)"/><path class="h" d="M535.33,486.35a11,11,0,0,1-.34,1.39c-.13.23-1.5.3-1.8.28a10.89,10.89,0,0,1-1.83-.22,13.45,13.45,0,0,1-.4-1.46,10.28,10.28,0,0,0,2.21.32" transform="translate(-434.93 -421.83)"/><path class="h" d="M531.67,488.59a7.4,7.4,0,0,0,1.66.27,5.69,5.69,0,0,0,1.36-.27l-.54.88c-.13.12-1,.07-1.18.07a1.81,1.81,0,0,1-.89-.18,3,3,0,0,1-.47-.75" transform="translate(-434.93 -421.83)"/><path class="h" d="M531.77,478.51s.32-1.09.76-1.35.83-.47,1.26,0a1.74,1.74,0,0,1,.59,1c.09.35.11.56.11.56h-2.75" transform="translate(-434.93 -421.83)"/><path class="d" d="M541.7,484.48c-.32,1.14-4.4,1-9.12-.34s-8.29-3.33-8-4.47,4.4-1,9.12.35,8.29,3.32,8,4.46" transform="translate(-434.93 -421.83)"/><path class="d" d="M542.15,479.66c-.16-1.13-4.27-.87-9.19.59s-8.78,3.55-8.62,4.68,4.27.87,9.19-.59,8.78-3.55,8.62-4.68" transform="translate(-434.93 -421.83)"/><path class="f" d="M530.87,483h0a12,12,0,0,0,1.3,6.08,2.06,2.06,0,0,0,.44.5.89.89,0,0,0,.54.21c.6,0,1.15-.73,1.57-1.92a15.23,15.23,0,0,0,.71-4.87h0a15.26,15.26,0,0,0-.71-4.87c-.42-1.19-1-1.92-1.57-1.92s-1.15.73-1.57,1.92a15.31,15.31,0,0,0-.71,4.88m-.37,0h0a15.66,15.66,0,0,1,.73-5c.47-1.34,1.15-2.17,1.92-2.17s1.45.83,1.92,2.17a15.67,15.67,0,0,1,.73,5h0a15.69,15.69,0,0,1-.73,5c-.48,1.34-1.15,2.17-1.92,2.17a1.26,1.26,0,0,1-.77-.28,2.68,2.68,0,0,1-.52-.59A12.36,12.36,0,0,1,530.5,483" transform="translate(-434.93 -421.83)"/><path class="j" d="M477.22,472.19c0,1.84-.33,45.11,0,50.39.67,10.7,7,20.06,18.29,27A65.75,65.75,0,0,0,512.41,557l.27.06L513,557a65.72,65.72,0,0,0,17-7.31c11.35-7,17.64-16.34,18.2-27.09.43-8.29.59-49.81.59-50.23V471.2l-71.5-.14v1.13Zm19.44,75.47c-10.77-6.67-16.54-15.15-17.18-25.22-.11-1.73-.15-7.85-.15-15.25,0-12.8,0-29.36,0-33.79h66.8l0,49.16c-.53,10.1-6.57,18.47-17.37,25.13a64.94,64.94,0,0,1-16.12,7,65.12,65.12,0,0,1-16-7" transform="translate(-434.93 -421.83)"/></svg>