<?xml version="1.0" encoding="UTF-8"?><svg id="Layer_1" xmlns="http://www.w3.org/2000/svg" viewBox="0 0 672.26 699.99"><defs><style>.cls-1{fill:#b3191c;}.cls-2{fill:#144177;}.cls-3,.cls-4{fill-rule:evenodd;}.cls-3,.cls-5{fill:#fff;}.cls-6{fill:#861b17;}.cls-7{fill:#b31c1a;}.cls-4,.cls-8{fill:#00519b;}.cls-9{fill:#831815;}.cls-10{fill:#18539f;}.cls-11{fill:#ededed;}.cls-12{fill:#861a15;}</style></defs><path class="cls-8" d="M336.72,696.62c-10-7.82-61.68-46.14-137.83-71.08-20.48-6.71-51.84-23.81-78.47-51.7-33.5-35.09-30.65-66.75-28.57-89.84.28-3.13.54-6.08.71-8.9.08-.59.68-4.22,1.51-9.19,30.88-185.79,34.11-245.83,31.37-263.48-1.9-12.36-10.39-22.93-18.6-33.15-5.34-6.65-10.87-13.53-14.22-20.6-11.12-23.4-20.75-47-16-61,3.59-10.53,29.15-30.34,68.39-53,24.24-14,54-28.94,60-31.71l1.05.67c42.71,27.49,88.47,44.2,128.87,47h3.42c40.38-2.64,86.23-19.13,129.12-46.46l1.07-.68c6.25,2.78,37.33,18.09,61.24,32,39.69,23,64.51,42.21,68.09,52.6,4.56,13.2-5.74,35.02-15.74,56.13l-1.75,3.7c-3.31,7-8.63,13.71-14.25,20.79-8.33,10.49-17,21.33-18.81,33.71-3.83,25.41,7.46,117,32.66,264.89.8,4.69,1.38,8.11,1.45,8.66.24,3.23.66,6.71,1.1,10.39,2.74,22.9,6.5,54.26-26,88.34-26,27.27-59.18,45.8-80.51,52.08-69.27,20.4-120,55.24-139.24,69.83"/><path class="cls-5" d="M204.84,6c43,27.66,89.15,44.46,129.93,47.32h3.79c40.74-2.7,87-19.33,130.18-46.83,8.08,3.77,36.5,17.77,59.69,31.23,57.16,33.22,65.7,47.6,66.91,51.21,4.2,12.21-5.9,33.53-15.66,54.14l-1.75,3.72c-3.19,6.74-8.41,13.31-13.93,20.26-8.55,10.76-17.39,21.89-19.36,35-3.88,25.68,7.42,117.57,32.66,265.73.74,4.31,1.33,7.76,1.44,8.51.24,3.27.65,6.74,1.1,10.42,1.38,11.54,2.95,24.62.24,39.18-3.15,16.91-11.5,32.28-25.55,47-25.67,26.9-58.34,45.18-79.32,51.36-49.77,14.88-96.61,38.22-138.46,69-11.28-8.5-23.02-16.38-35.16-23.6-32.13-19.26-66.3-34.91-101.87-46.65-20.16-6.6-51.07-23.47-77.36-51-14.51-15.19-23.33-30.9-27-48-3.13-14.75-1.94-28-.88-39.75.28-3.11.54-6.05.71-8.87.12-.82.73-4.46,1.48-9,3.55-21.3,13-77.91,20.65-133.42,9.75-70.2,13.36-114.24,10.81-130.96-2-13.07-10.73-23.92-19.16-34.42-5.49-6.83-10.67-13.29-13.89-20.07-10.39-21.79-20.37-45.84-15.95-58.95,2.61-7.66,21.64-25.23,67.2-51.54,22.87-13.21,50.41-27.14,58.47-31M205.21.02c-.76,0-34.45,16.72-61.57,32.38-40.83,23.6-65.71,43.17-69.51,54.44-5.12,15,5,39.49,16.1,63,8.6,18.1,29.58,33.39,32.61,53,6.71,43.35-32.77,269.74-32.91,272-1.42,24-10.28,60.13,28.59,100.85,26.47,27.72,58.08,45.35,79.57,52.39,84.4,27.64,138.13,71.45,138.63,71.91h0c.34,0,56.6-46.06,140-70.64,21.67-6.38,55.33-25.18,81.69-52.8,38.72-40.55,27.33-77.67,25.72-100.82-.17-2.31-40.67-229.58-34.14-272.9,3-19.6,24.31-35.69,32.84-53.75,11.05-23.44,22.81-46.83,17.63-61.89-3.94-11.27-28.33-30.28-69.33-54.05C503.94,17.37,469.13.53,468.31.53s-60.74,42.9-130.11,47.47h-3.07C265.69,43.14,206.13,0,205.25,0"/><path class="cls-5" d="M336.77,666.11c-12.16-8.86-57.07-39.48-123.38-61.91-18.54-6.27-48.38-22.46-71.48-47.46-29.07-31.45-26-58.87-23.6-80.91.36-3.19.69-6.21.91-9.11.12-.75.75-4.14,1.53-8.37,25.4-137.13,36.93-222.2,33.36-246-1.92-12.85-8.41-23.7-14.68-34.19-3.31-5.32-6.33-10.81-9.05-16.45-2.48-5.39-5.38-11-8.45-17-8.11-15.75-18.21-35.34-15.35-44,3-9.08,18.47-21.29,53.41-42.14,14.82-8.81,30.18-16.67,46-23.53l.54.28c46.9,24.88,91.32,39.45,128.44,42.15h3.44c36.58-2.47,82.46-17.47,129.22-42.16l.5-.26c15.66,7.14,30.91,15.15,45.67,24,33.4,20,49,32.63,52.19,42.16,2.86,8.6-6.48,26.68-14.71,42.63-3,5.75-6,11.7-8.57,17.22-2.73,5.67-5.75,11.2-9.06,16.56-6.39,10.77-13,21.9-14.88,34.78-3.49,23.91,8.45,109.42,34.52,247.29.76,4,1.37,7.23,1.48,7.94.31,3.44.81,7,1.34,10.86,3,21.66,6.78,48.63-21.39,79.11-22.52,24.38-53.76,41.86-73.25,47.79-61,18.54-106.32,47.72-124.7,60.77"/><path class="cls-1" d="M205.78,40.39c46.94,24.71,91.47,39.19,128.86,41.9h4.12c37.34-2.55,82.11-17,129.54-41.86,14.71,6.83,29.07,14.42,43,22.73,31.89,19.11,47.34,31.3,50.08,39.52.37,1.13.87,4.75-2.64,14-2.85,7.55-7.39,16.34-11.78,24.84-3,5.8-6.1,11.81-8.67,17.43-2.65,5.52-5.6,10.89-8.82,16.1-6.63,11.18-13.49,22.73-15.5,36.56-3.62,24.78,8,108.53,34.55,248.91.67,3.57,1.27,6.7,1.43,7.65.32,3.5.82,7.09,1.35,10.9,1.45,10.41,3.1,22.21,1,34.76-2.38,14.34-9.3,27.55-21.16,40.39-21.89,23.78-52.2,40.78-71.08,46.47-43.84,13.49-85.39,33.53-123.24,59.45-6.14-4.32-16.23-11-29.33-18.61-29.41-16.97-60.4-31.01-92.55-41.93-18-6.09-47-21.83-69.47-46.16-27.56-29.81-24.66-56-22.33-77.07.35-3.16.68-6.15.91-9.06.17-1,.78-4.31,1.48-8.08,25.85-139.62,37.08-222.93,33.38-247.62-2.06-13.81-8.8-25.08-15.31-36-3.22-5.17-6.16-10.51-8.81-16-2.52-5.49-5.58-11.43-8.54-17.17-4.53-8.78-9.2-17.86-12.19-25.7-3.81-10-3.16-13.68-2.87-14.56,3.24-9.81,29.11-26.26,51.29-39.49,13.98-8.29,28.44-15.75,43.3-22.34M467.88,29.69c-.81,0-67.29,38.6-129.79,42.88h-2.75c-62.58-4.53-128.21-42.87-129-42.87s-24.38,10.08-48.8,24.65c-36.83,22-52.08,34.31-55.54,44.79-4.62,14,14,42.69,24,64.54,7.73,16.85,20.61,31.07,23.33,49.33,6.05,40.34-34.75,251-34.91,253.16-1.66,22.51-11.08,55.95,24,93.84,23.85,25.8,54.13,42.21,73.49,48.76,76,25.72,124.44,62.87,124.89,63.3h0c.32,0,51-39.25,126.17-62.12,19.52-5.93,51.65-23.43,75.4-49.13,34.89-37.76,23.27-71.14,21.31-93.84-.18-2.15-41.91-213.64-36-254,2.66-18.24,15.87-33.21,23.55-50,10-21.81,28.14-49.38,23.47-63.41-3.57-10.43-17.51-22.57-54.4-44.73-24.49-14.68-47.73-25.11-48.42-25.11"/><path class="cls-4" d="M460.28,261.15l19.24-34.09c-10.82-5.06-66.61-29.26-143.39-29.36-76.84.11-132.58,24.3-143.39,29.36l19.24,34.09-151.91,77.13-4.79-52.58L3.96,253.59l67.07-38.1-23.5-44.49,1.66-1c48.05-28.51,98.54-49.84,150.07-63.4,44.62-11.8,90.57-17.85,136.72-18h.15l.09,2,.07-2c46.16.16,92.11,6.21,136.73,18,51.53,13.57,102,34.9,150.07,63.41l1.66,1-23.5,44.51,67.07,38.1-51.34,32.08-4.8,52.58-151.9-77.13Z"/><path class="cls-5" d="M336.27,90.67h0c84.33.18,183.65,20.5,285.76,81.07l-23.51,44.54,65.82,37.4-49.29,30.83-4.62,50.6-147.3-74.8,19.27-34.14s-59.42-30.38-146.27-30.5c-86.86.12-146.23,30.5-146.23,30.5l19.23,34.14-147.31,74.8-4.61-50.6-49.29-30.83,65.82-37.4-23.51-44.54c102.11-60.57,201.43-80.89,285.75-81.07h.29M336.27,86.61h-4.35c-44.97.48-89.7,6.52-133.18,18-51.71,13.64-102.37,35.04-150.61,63.64l-3.33,2,1.81,3.42,21.7,41.03L5.92,250.15l-5.92,3.36,5.77,3.61,47.58,29.77,4.43,48.59.54,6,5.34-2.71,147.34-74.81,3.79-1.93-2.09-3.69-17.11-30.34c11.77-5.2,23.88-9.61,36.24-13.19,33.88-9.91,69-14.99,104.3-15.08,72.57.1,126.14,21.78,140.53,28.25l-17.11,30.33-2.08,3.69,3.79,1.93,147.33,74.81,5.35,2.71.54-6,4.43-48.59,47.58-29.77,5.77-3.61-5.92-3.36-62.39-35.42,21.67-41.06,1.81-3.42-3.33-2c-48.21-28.6-98.87-50-150.58-63.62-43.48-11.48-88.21-17.52-133.18-18h-4.07Z"/><polygon class="cls-3" points="80.31 228.3 32.97 254.43 70.16 276.11 74.33 316.03 178.78 263.73 105.87 271.58 80.31 228.3"/><path class="cls-3" d="M178.46,231.72s-34,14.66-62.77,28.3l74.7-7.66-11.93-20.64Z"/><polygon class="cls-3" points="591.95 228.3 639.28 254.43 602.1 276.11 597.93 316.03 493.47 263.73 566.39 271.58 591.95 228.3"/><path class="cls-3" d="M493.8,231.72s34,14.66,62.77,28.3l-74.7-7.66,11.93-20.64Z"/><path class="cls-3" d="M564.59,248.66c-177.88-92.69-291-85.24-454.92-.73-13.85-26.32-23.85-44.34-38.28-70,166-94.27,367.47-96.07,529.78-.71-16,27.82-22.83,47.11-36.58,71.46"/><path class="cls-10" d="M133.55,197.23l6.58-3.3c.14.28.28.54.42.78.15.23.27.46.38.67s.25.49.39.72.27.48.4.73c2.08,4.14,2.24,7.41.47,9.81-2.17,2.72-4.95,4.9-8.12,6.34l-4.68,2.36c-4.95,2.48-8.82,2.9-11.63,1.25-2.81-1.65-5.35-4.73-7.63-9.26-.22-.42-.44-.85-.68-1.28s-.46-.85-.67-1.28c-.11-.21-.22-.41-.34-.61s-.24-.41-.35-.62c-.32-.63-.64-1.27-1-1.91s-.67-1.28-1-1.91c-2.96-5.9-3.53-10.32-1.7-13.25,1.83-2.93,5.41-5.73,10.74-8.39l2.24-1.19c.25-.09.5-.19.74-.3l.71-.36c1.57-.71,3.22-1.23,4.92-1.55,1.71-.29,3.47.07,4.93,1,1.07.58,2,1.38,2.73,2.35.72.95,1.37,1.95,1.94,3l.3.54c.11.18.22.36.31.54s.22.41.34.61.24.41.34.62l-6.71,3.31c-.2-.2-.36-.43-.5-.68-.16-.27-.33-.53-.5-.8l-.1-.18c-.02-.07-.05-.13-.09-.19-.49-.91-1.14-1.74-1.91-2.43-.75-.67-2.06-.59-3.94.23-.53.18-1.05.4-1.55.65l-1.5.75-1.16.58c-.3.19-.63.38-1,.55-.34.18-.68.37-1,.58-.71.45-1.38.96-2,1.52-.57.47-1,1.08-1.26,1.77-.19.65-.24,1.33-.14,2,.09.66.27,1.31.53,1.92.09.26.18.52.29.77.1.26.21.51.34.75.24.58.5,1.14.75,1.69s.53,1.12.81,1.68c.56,1.12,1.14,2.25,1.73,3.38s1.18,2.25,1.78,3.36c1.8,3.49,3.47,5.36,5,5.6,1.57.24,4-.47,7.36-2.14,1.75-.84,3.37-1.92,4.82-3.21,1.24-1.15,1.27-2.92.07-5.31l-.28-.55c-.09-.19-.19-.38-.27-.56-.13-.16-.24-.33-.33-.52l-.28-.55-.04-.08Z"/><path class="cls-10" d="M156.06,194.34l.56,7.9-7.27,2.91-2.47-41.33,10.25-4.12,27,31.53-7.11,2.84-5.15-6-15.81,6.27ZM154.27,167.08l1.35,21.41,12.57-5-13.92-16.41Z"/><path class="cls-10" d="M177.71,152l18.24-5.61c4.32-1.3,7.7-1.42,10.11-.38s4.31,3.8,5.69,8.27l.43,1.4c.15.49.27.99.34,1.5.25,1.08.37,2.18.36,3.28,0,1.06-.31,2.1-.88,3-.33.51-.74.97-1.21,1.36-.47.4-.97.76-1.49,1.08-.21.11-.41.22-.6.34-.2.12-.4.24-.61.34v.17c1.85-.55,3.84-.32,5.51.65,1.56,1.16,2.66,2.82,3.11,4.71l2.51,8.16-7.26,2.24-2.1-6.81-.2-.86c-.62-1.87-1.54-3-2.78-3.34-1.46-.35-2.99-.27-4.4.24l-10.13,3.12,3.85,12.5-7,2.15-11.49-37.51ZM200.66,165.7c2.23-.64,3.64-1.54,4.26-2.69s.59-2.78-.06-4.89c-.45-1.81-1.25-3.51-2.36-5-.86-.99-2.62-1.08-5.29-.25l-10.58,3.26,3.9,12.66,10.13-3.09Z"/><path class="cls-10" d="M219.25,139.72l18.88-4.08c4.92-1.02,8.8-.69,11.64,1,2.84,1.69,4.81,5.07,5.9,10.15.11.54.23,1.08.35,1.64s.26,1.1.41,1.63.24,1.07.35,1.61.24,1.08.35,1.61c1.01,4.22,1.16,8.6.43,12.87-.74,3.81-4.03,6.35-9.87,7.61l-20.15,4.36-8.29-38.4ZM243.93,168.08c3.85-.79,5.95-2.26,6.31-4.41.33-2.69.16-5.43-.5-8.06l-.46-2.13c-.27-1.22-.55-2.47-.84-3.73-.29-1.25-.65-2.48-1.07-3.69-.76-2.2-1.87-3.51-3.35-3.92-1.71-.42-3.49-.42-5.2,0l-10.88,2.35,5.57,25.8,10.42-2.21Z"/><rect class="cls-10" x="265.5" y="130.36" width="7.54" height="39.29" transform="translate(-19.33 41.75) rotate(-8.56)"/><polygon class="cls-10" points="290.59 144.57 308.01 142.92 308.58 149.02 291.17 150.67 292.69 166.79 285.19 167.5 281.49 128.39 307.35 125.94 307.94 132.22 289.59 133.95 290.59 144.57"/><polygon class="cls-10" points="324.9 142.28 342.4 141.93 342.52 148.05 325.03 148.41 325.36 164.6 317.82 164.75 317.02 125.47 342.99 124.95 343.12 131.25 324.69 131.62 324.9 142.28"/><path class="cls-10" d="M389.13,153.13l7.34.67c0,.32-.05.61-.06.89s0,.53,0,.76v1.65c-.43,4.61-2.03,7.47-4.79,8.58-3.28,1.16-6.79,1.54-10.24,1.09l-5.22-.48c-5.52-.51-9.03-2.2-10.53-5.09s-2.02-6.85-1.57-11.88c0-.47.08-.95.1-1.44s.06-1,.11-1.44v-1.42c.06-.7.12-1.41.17-2.14s.1-1.44.17-2.14c.6-6.57,2.45-10.62,5.56-12.15,3.11-1.53,7.61-2.02,13.5-1.47l2.53.17c.26.06.52.11.78.14l.8.07c1.71.23,3.39.66,5,1.29,1.61.64,2.92,1.86,3.68,3.41.6,1.06.97,2.24,1.07,3.45.11,1.19.13,2.39.06,3.58-.01.21-.01.41,0,.62s.01.41,0,.62v1.41l-7.44-.75c-.06-.27-.08-.55-.07-.83v-1.2c0-.07,0-.14,0-.21.07-1.04-.05-2.08-.33-3.08-.29-1-1.45-1.58-3.47-1.89-.55-.12-1.1-.21-1.66-.27l-1.67-.15-1.29-.12c-.37.02-.75.02-1.12,0-.39-.04-.79-.06-1.18-.06-.85,0-1.69.07-2.53.21-.73.1-1.42.39-2,.84-.51.45-.91,1-1.19,1.62-.27.61-.46,1.26-.56,1.92-.06.26-.12.53-.16.8s-.08.54-.11.81c-.09.62-.18,1.24-.25,1.84s-.15,1.22-.2,1.85c-.12,1.25-.23,2.51-.32,3.78s-.19,2.54-.27,3.8c-.32,3.91.12,6.39,1.33,7.42s3.66,1.73,7.38,2.08c1.93.21,3.87.15,5.78-.18,1.67-.32,2.62-1.81,2.87-4.47,0-.19,0-.4.06-.61s0-.42.05-.62c-.02-.21-.02-.41,0-.62,0-.22,0-.42.06-.62l-.17-.04Z"/><rect class="cls-10" x="389.24" y="146.54" width="39.29" height="7.54" transform="translate(196.59 530.73) rotate(-81.02)"/><polygon class="cls-10" points="434.01 175.1 426.58 173.48 433.52 141.59 422.41 139.18 423.83 132.67 453.64 139.16 452.23 145.67 440.94 143.21 434.01 175.1"/><polygon class="cls-10" points="472.08 169.72 467.71 184.15 460.49 181.97 464.86 167.53 458.34 140.27 466.52 142.74 470.73 161.56 484.67 148.24 493.02 150.76 472.08 169.72"/><polygon class="cls-10" points="514.32 177.26 530.44 184.06 528.06 189.7 511.94 182.91 505.65 197.83 498.7 194.91 513.96 158.7 537.9 168.79 535.45 174.6 518.46 167.44 514.32 177.26"/><path class="cls-10" d="M556.9,206.4l6.55,3.35c-.14.28-.27.55-.37.8s-.22.49-.33.7-.24.49-.34.75-.23.5-.35.74c-2.11,4.13-4.65,6.19-7.63,6.19-3.48-.13-6.88-1.08-9.92-2.78l-4.67-2.39c-4.93-2.52-7.56-5.4-7.89-8.63s.67-7.11,3-11.62c.21-.42.42-.85.63-1.29.2-.45.41-.89.63-1.3.11-.21.21-.43.29-.65.09-.22.19-.43.3-.64.32-.63.64-1.27,1-1.93s.63-1.3.95-1.93c3.01-5.87,6.23-8.94,9.67-9.21,3.44-.27,7.8.95,13.09,3.65l2.28,1.09c.22.15.45.29.68.42l.71.36c1.5.83,2.9,1.84,4.16,3,1.25,1.2,2.02,2.81,2.15,4.54.17,1.2.07,2.43-.28,3.59-.34,1.15-.77,2.27-1.28,3.35-.1.19-.18.38-.26.57-.07.19-.16.38-.25.56-.11.21-.21.42-.3.64s-.19.44-.29.64l-6.7-3.4c.05-.28.13-.55.25-.8.12-.29.24-.59.35-.88l.09-.19c.03-.06.06-.12.09-.18.46-.94.74-1.96.84-3,.08-1-.76-2-2.52-3-.46-.32-.94-.61-1.44-.87l-1.5-.76-1.15-.59c-.33-.13-.68-.28-1-.46s-.7-.34-1.07-.49c-.79-.32-1.6-.56-2.43-.74-.71-.19-1.46-.19-2.17,0-.64.23-1.22.6-1.7,1.07-.48.47-.89.99-1.23,1.57-.16.22-.31.45-.45.69-.14.23-.28.47-.4.71-.32.54-.63,1.08-.92,1.61s-.59,1.08-.87,1.64c-.58,1.12-1.14,2.25-1.71,3.4s-1.11,2.29-1.65,3.42c-1.75,3.52-2.25,5.98-1.52,7.39.73,1.41,2.76,2.96,6.08,4.67,1.71.92,3.54,1.59,5.43,2,1.67.32,3.11-.71,4.33-3.08.08-.18.18-.36.28-.56l.28-.55c.05-.2.13-.39.23-.57l.28-.56-.03-.06Z"/><path class="cls-5" d="M336.82,544.3c-90.49,0-164.12-73.62-164.12-164.11s73.63-164.12,164.12-164.12,164.12,73.62,164.12,164.12-73.63,164.11-164.12,164.11"/><path class="cls-10" d="M336.82,219.46c88.77-.02,160.75,71.92,160.77,160.69.02,88.77-71.92,160.75-160.69,160.77-88.77.02-160.75-71.92-160.77-160.69v-.04c0-88.75,71.94-160.71,160.69-160.73M336.82,212.68c-92.23.12-166.9,74.99-166.78,167.22s74.99,166.9,167.22,166.78c92.23-.12,166.9-74.99,166.78-167.22-.09-67.04-40.26-127.53-102.02-153.62-20.63-8.73-42.8-13.2-65.2-13.16"/><path class="cls-10" d="M337.45,225.47c85.45,0,154.72,69.27,154.72,154.72s-69.27,154.72-154.72,154.72-154.72-69.27-154.72-154.72h0c0-85.45,69.27-154.72,154.72-154.72M337.45,223.79c-86.12.1-155.86,69.99-155.76,156.12.1,86.12,69.99,155.86,156.12,155.76s155.86-69.99,155.76-156.12c-.07-62.6-37.57-119.09-95.24-143.46-19.26-8.15-39.97-12.34-60.88-12.3"/><path class="cls-11" d="M360.77,277.43c-19,7-36.08,24.94-39.41,46.66-2.5,17.31,6,34.36,21.32,42.79,10.75,6,20.7,10.16,32.68,11.58,16.14,1.88,32.37,2.89,48.62,3,12,0,38.59.09,46.63-.24,1.18-.08-.83,1.05-1.39,1.15-43.53,8.14-49.91,7.22-82.65,18l.24.5c21.6,6.33,74.45,45.45,80.37,53.88-32.4-19.35-88.05-43.95-126.91-33.64-8.09,2.16-17.9,7.73-19.21,18-1.53,11.91,7.08,24.94,13.63,33.92,11.47,15.76,26.52,31.35,43.14,41.45,2.1,1.27,4.21,2.43,6.35,3.52-2.46.33-4.97.07-7.31-.75-.17,0-.3-.12-.46-.16-26.08-11.75-77.93-47.92-77.93-47.92-3.3-2.44-6.4-4.87-9.29-7.35l-.09-.07c-.1-.11-.23-.19-.32-.3h0c-1.18-1-2.29-2-3.4-3h0s-.06,0-.09-.07c-12.86-11.92-21.11-24.34-24.76-37.27h0s-.01-.09,0-.13c-1.53-5.39-2.23-10.98-2.07-16.58h-.06c-8.65-7.98-16.37-16.92-23-26.64l-.74-1.14c-.08-.1-.15-.21-.21-.33-5.33-8.63-8.26-16.89-8.78-24.78-.11-.97-.31-1.92-.58-2.86-.98-3.22-2.57-6.22-4.69-8.84l5.33.59-5.08-7.2,9.48,1.5c9.37-10,27.45,1.7,35.28,8.09.21-1.26.4-2.53.58-3.8,2.25-15.83,13.68-31.26,26.78-41.37,15.35-11.85,26.63-17.35,44.19-22.51,5.3-1.55,10.67-2.86,16.09-3.88,6.54-1.23,13.33-2.53,20-2.73,2.68-.08,6.55-.17,9.18.68,0,0,3.26.73,2.17.92-7.98,2.01-15.85,4.46-23.56,7.33"/><path class="cls-8" d="M352.02,263c-19.78,7.8-37.07,26.75-39.7,49.19-2.06,17.62,7.5,34.92,24.21,43.4,11.59,5.89,22.25,9.83,34.94,10.94,17.1,1.44,34.26,1.96,51.41,1.57,12.69-.3,40.72-1.06,49.2-1.63,1.23-.13-.84,1.09-1.43,1.22-45.59,9.68-52.36,8.92-86.46,21l.27.51c23,5.87,80.37,44.53,86.95,53-35-18.87-94.67-42.51-135.23-30.73-8.45,2.46-18.57,8.49-19.54,19.12-1.13,12.3,8.47,25.46,15.74,34.51,12.75,15.9,29.25,31.46,47.19,41.37,2.26,1.23,4.53,2.37,6.85,3.43-2.6.41-5.25.22-7.76-.56-.17,0-.31-.11-.49-.15-28-11.31-84.14-47-84.14-47-3.58-2.41-6.94-4.82-10.09-7.29l-.11-.07c-.1-.11-.24-.19-.34-.3h0c-1.28-1-2.49-2-3.7-3h0s-.08,0-.11-.07c-14.04-11.88-23.25-24.41-27.62-37.6h0s-.03-.1,0-.14c-1.83-5.45-2.79-11.15-2.86-16.9l-.09-.09c-9.06-7.55-19.36-21.31-24.07-27.34-.88-1.13-11.49-18.14-12.59-26.15-.13-1-.74-2.61-1-3.68-.82-3-4.33-5.9-6.9-8.92l7.53,1.16-7.95-8.21,10.29,2c11-7.7,31.07,1.22,39.59,7.56.18-1.31.32-2.62.46-3.93,1.73-16.36,13.17-32.59,26.58-43.38,15.72-12.65,27.4-18.66,45.71-24.49,5.54-1.76,11.15-3.27,16.83-4.48,6.85-1.46,14-3,20.94-3.4,2.83-.17,6.92-.38,9.72.42,0,0,3.48.66,2.33.88-8.33,2.3-16.53,5.05-24.56,8.23"/><path class="cls-5" d="M226.77,358.67c-5.79-7.43-6.1-10-8.95-18.89-1.09-3.3-1.82-6.71-2.18-10.17,1.16-.1,2.3-.12,3.4-.15h.2c10-.1,17.88,3.05,23.72,9.33,4.55,4.92,7.82,11.68,9.82,20.29l-26.01-.41Z"/><path class="cls-5" d="M272.75,405.92s-2.7,18.95,31.13,54c0,0-45.12-28-42-58.81,0,0,4.12,9.19,6.87,9.26l4-4.45Z"/><path class="cls-5" d="M290.91,290.23s-28,9.91-26.72,48.62c0,0,6.75,5.75,7,5.82l5.11-.76s-8.33-32.07,14.58-53.68"/><path class="cls-2" d="M249.95,386.87c-.48,3.27-.78,6.57-.88,9.88,0,0-34.54-31.4-37.77-57.26,0,0-6.66-8.84-7-8.93l7.66,1.17s-.6,27.63,38,55.14"/><path class="cls-2" d="M471.41,442.21s-40.66-32.58-121.86-40.54c-75-7.36-20.56,59.09-20.56,59.09,0,0-22.37-25.36-7-41.27h0s35.45-36.3,149.43,22.72"/><path class="cls-8" d="M235.45,341.33c.73-1.26.76-2.27.09-3.05-1.1-1.33-4.06-2-8.93-2.07,4,6.7,7,8.43,8.84,5.12"/><path class="cls-9" d="M292.87,567.39s-2.7,4.27-5.4,3.81c0,0-.28,1.63,2.11,1,0,0,5.93-2.92,6-4.74,0,0,.36-1.68-.93-1.42l-1.78,1.35Z"/><path class="cls-1" d="M285.81,567.78v-1.21c.01-1.05-.11-2.1-.36-3.12-.34-1.46-.96-2.83-1.82-4.05-.48-.68-1.08-1.26-1.78-1.71-.77-.44-1.57-.82-2.39-1.14-.86-.33-1.67-.76-2.44-1.26-.78-.51-1.31-1.32-1.47-2.24-.12-.84,0-1.7.34-2.47.32-.68.78-1.28,1.35-1.76.51-.45,1-.8,1.44-1.16.38-.29.71-.62,1-1,.18-.25.33-.51.46-.79.08-.19.12-.3.12-.3-.03.1-.07.2-.11.3-.11.29-.26.56-.43.82-.27.4-.58.76-.94,1.08-.4.37-.9.75-1.39,1.21-.54.47-.96,1.07-1.23,1.73-.3.73-.38,1.53-.24,2.31.16.83.66,1.56,1.39,2,.75.46,1.56.83,2.39,1.12.86.3,1.7.66,2.51,1.09.77.47,1.45,1.09,2,1.81.98,1.27,1.7,2.71,2.11,4.26.31,1.09.48,2.22.51,3.35v1.27l-1.02-.14Z"/><path class="cls-1" d="M285.68,566.3l.11-.22c.1-.19.2-.39.28-.6.29-.72.48-1.48.55-2.25.11-1.11-.02-2.22-.39-3.27-.21-.59-.51-1.14-.9-1.63-.42-.52-.88-1-1.37-1.45-.52-.46-1-.97-1.43-1.51-.45-.57-.65-1.28-.57-2,.11-.65.44-1.24.93-1.67.43-.37.95-.63,1.5-.76.51-.13,1-.2,1.37-.29.35-.07.68-.2,1-.36.2-.1.39-.23.56-.39l.19-.17-.18.18c-.17.16-.35.3-.55.42-.31.18-.65.32-1,.41-.4.12-.87.21-1.35.36-.52.14-.99.41-1.38.78-.43.4-.7.95-.77,1.53-.04.62.18,1.23.59,1.69.44.5.92.96,1.43,1.38.54.44,1.04.92,1.51,1.43.45.53.81,1.13,1.08,1.77.46,1.14.67,2.37.61,3.6-.02.49-.08.98-.18,1.46-.08.38-.19.75-.32,1.11-.11.32-.21.52-.27.67s-.1.22-.1.22l-.95-.44Z"/><path class="cls-9" d="M280.75,585.88c-.79-.41-1.65-.69-2.53-.82l-.69-.89c-.99-.04-1.97.08-2.92.37,0,0,6.2,4.38,6.48,7l-.34-5.66Z"/><path class="cls-1" d="M296.59,597.62h-2.17c-1.41,0-2.82-.18-4.19-.51-.49-.15-.94-.4-1.33-.72-1.23-1.08-2.05-2.55-2.31-4.17-.14-.55-.23-1.12-.27-1.69,0,0-.17-6.69-3.17-9.7l.12-.67c-.79-.51-1.71-.77-2.65-.72.83,1.53,1.39,3.2,1.66,4.92.07,1.92-1.84-1.62-2.31-2.15s-1.12-1.23-1.12-1.23l-.06-.59c-1.07-.45-2.21-.72-3.37-.77.87.91,1.63,1.92,2.27,3,2.44,3.7,3.29,9,2.18,11.63-1.23,1.24-2.62,2.3-4.13,3.17-1.71.78,3.69.26,5.24-.36s2.61.9,4.76,5.27,3.13,7.89,9.49,10c1.31.25-.89-1.38-1.33-2.75-.78-2.43,1.09-3.17,2-2.85s3.27,3.6,4.53,4.41c0,0-3.6-12.46-3.87-13.53"/><path class="cls-7" d="M278.62,597.42l-.81.89c-1.17.13-2.36-.05-3.45-.5,0,0,3.37-1,4.07-1.63l.19,1.24Z"/><path class="cls-1" d="M303.48,550.41s-10.18,2.56-12.25,8.18c0,0-.08-.13-.42,0-.04-.49-.01-.98.07-1.47.12-.37-2,1-2.4,3.58.2.48.48.93.84,1.31-1.42,1.31-2.69,2.78-3.78,4.38-.33-.4-.53-.89-.6-1.4-.18-1-1.46,1.67-1.48,2-.12.31-.02.65.24.85.19.55.42,1.08.69,1.59.58,1.16.43-.76.59-1,.8.41,1.68.67,2.58.76.68-.14,2.58-1,2.82-1.06s.4,1,.76.87,1-1.27,1-1.45c0-.47,1.05,0,2.28-.56-.8,1.45-1.95,2.68-3.34,3.59,0,0-1.18-1.64-1.32-1.13,0,0,.12,1.21.11,1.46,0,0,.06.59-1.38.59,0,0-1-.9-1-1.18s-.46.11-.25.8l.28.75c-.28.65-.07,1.41.51,1.82.06.46.14.91.25,1.36,0,0,.46-.12.74-1.34.13.49.32.96.56,1.4.17.11.64-.74.67-1.34,0-.14,1.12-.34,1.23-.36.62-.16,1.27.08,1.65.59.47.61.36,1.48-.25,1.95-.02.02-.05.03-.07.05-.44.15-.94.04-1.27-.29,0,0-1.1-.48.07.86,1.39,1.6,3.79.07,3.17-2.28-.41-1.51-1.08-1.87-1.08-1.87.33-.11.65-.26.94-.44.15-.17,1.46.39,1.57.25s-.42-.76-.62-1,1.49.57,1.61.36-.21-.82-.37-1.11,9.57.44,1.43,15.27c-4.49,8.19-4.06,17.78,3.22,24.16,9.44,8.26,22.06,4.28,29.18-4.9,2-2.62,3.14-6,5.54-8.29,1.58-1.59,3.77-2.4,6-2.23,5.41.71,8.18,6.46,11.45,10,4.46,4.92,10.02,8.72,16.22,11.08,11.91,4.27,26.1,0,29.31-13.36,1.6-6.64-.8-15.09-7.62-17.82-4-1.61-9.08-.08-13.29-1.34-1.57-.34-2.73-1.66-2.86-3.26-.1-.88.07-1.76.49-2.54,2.15-3.04,4.99-5.53,8.28-7.27,2.84-1.53,3.22-1.67,3.5-2.43-.41-.48-2.57.06-7.45,2.82-10.41,5.88-11.35,14.15-3.25,16.69,3.33,1.05,8,.25,9.92,3.86,1,1.86,1.12,4.62-.57,6.13-9.74,8.69-23.81-6.39-23.81-6.39,1.1.1,2.18.38,3.19.82,1.92.78-3.69-4.62-8-6.16,1.24.22,2.46.53,3.66.92,1.24.49-.36-1-2.54-2.4-2.32-1.5-4.84-2.65-7.49-3.43,1.07-.21,2.17-.16,3.22.15,1.88.52-.06-.85-2.05-1.42s-7.43-1.63-8.64-1.8,1.09-.63,2-.43,0-.41-1.85-.89c-2.38-.47-4.84-.43-7.2.13-4.28.84-8.17,3.04-11.08,6.29-2.26,2.53-4.63,5-7.1,7.32-1.4,1.36-2.9,2.63-4.47,3.79-.88.62-2.11,1.55-3.26,1.47-3.72-.25-3.61-3.92-2.8-6.06,0,0,5.41-12.43,5.51-14.61.64.57,1.18,1.25,1.6,2,.27.83.32-.79.29-1.68-.31-1.34-.72-2.66-1.22-3.94-.14-.57,1.31.67,1.5,1s.77-.49,0-2.15c-.79-1.14-1.68-2.21-2.66-3.2.66-.09,1.33-.12,2-.08.84.08-.49-1-.83-1.17-.87-.43-1.79-.74-2.74-.91.61-.61,1.36-1.07,2.18-1.34.89-.1-.78-.6-.78-.6-1.17-.22-2.38-.24-3.56-.07,0,0,.71-1.52,1.36-1.81s-.36-.64-1.71-.29c0,0-1.87.58-2.05.68-.12.06-.24.11-.36.15,0,0,1.06-2.2,2.4-2.77,0,0,0-.81-2.14-.28l-.58.25s1.65-3.59,4.4-4.86c1.89-1-2.94-.29-3.52-.1-2.19.58-4.28,1.46-6.23,2.62.04-.49.2-.97.46-1.39.37-.48-1-.12-1-.12l-.93.2c1.33-1.41,2.79-2.69,4.35-3.84.76-.43-.39-.3-.39-.3"/><path class="cls-5" d="M295.81,563c.1-.02.2-.07.29-.12.49-.28.95-.61,1.36-1,.2-.18.85-.86.81-1.14s-.89-.07-1.19,0c-.81.22-1.61.49-2.4.79-.13.03-.23.12-.3.23-.04.13-.02.27.07.38.25.42.83.94,1.36.83"/><path class="cls-1" d="M351.98,601.49c-.75,1.27-1.77,2.35-3,3.16-1.7,1.08-2.71,2.83-.26,5.05,3.1,2.81,6,3.65,7.38,4.74,0,0,.09,1.41-2.05,1.25l-4.72-.87s-3.4-1.44-3.72-1.46c-.53,0-2.27-.86-3.85,0-.95.51-2,.36.53.8.98.22,1.94.55,2.84,1-3.41-.23-3.36.63-4.71.35-1.02-.21-2.02.44-2.24,1.46,0,.05-.02.09-.02.14,1.58-.08,3.17-.04,4.75.14,1.02.22,2.06.34,3.11.38,0,0-4,.57-5.28,3,0,0,3.4-.34,8-1,4.45-.53,8.94-.57,13.39-.13,2,.36-.83-3.53-.83-3.53,0,0-2-4.17.11-4.5l1.3-.57s-2.48-3.86-10.67-9.44"/><path class="cls-7" d="M343.82,613.75l.42-1.45s-4.16.87-4.49,1.73h5.05l-.98-.28Z"/><path class="cls-7" d="M340.83,615.76l-.81-.74c-1.44.43-2.7,1.32-3.58,2.54,2.19-.36,4.42-.46,6.64-.29l-2.25-1.51Z"/><path class="cls-7" d="M342.71,619.07l-.84-.79s-3.2,1.26-3.95,2.84c0,0,6.46-1.16,9.3-1.26l-4.51-.79Z"/><path class="cls-7" d="M352.69,624.81l-1.24-.66c-1.4.87-2.58,2.06-3.45,3.46l7.13-1.37-2.44-1.43Z"/><path class="cls-7" d="M354.46,628.22l-.88-.72s-2.15,2.22-2.24,4c0,0,7.13-3.5,8.45-4.06l-5.33.78Z"/><path class="cls-9" d="M290.41,559.18s1.28-.55,1.76-.12c0,0,1-2,1.95-2.29s.11.32-.24,1.62c0,0-.82,2.2,2.33-.44l2.14-1.87s1.47.66,2.45,4.13c0,0,1.68-5,10.23-7.1.41-.11-.27-.32-.39-.33-.89-.07-1.79,0-2.65.23-1.02.21-2.02.5-3,.87-.49.18-1,.38-1.44.58-.45.21-.9.4-1.37.56-.18.06-.36.1-.54.14-.11,0-.53.06-.59.14.15-.2.3-.41.43-.62,0,0,.26-.42.15-.42-.72,0-1.44.09-2.13.29,0,0-4.54,1.85-6.46,1.26-1.01,1.02-1.9,2.15-2.65,3.37"/><path class="cls-9" d="M287.38,566.94s1.15-3.19,3.62-1.91c0,0,.59.37,0,.56-1.18.52-2.39.97-3.62,1.35"/><path class="cls-12" d="M296.87,570.43c1.92-.98,4.25-.57,5.72,1,1.11,1.46,1.54,3.33,1.18,5.13-.65,3.94-1.93,7.74-3.79,11.27-.9,1.78-1.66,3.78-2.7,5.47-.85,1.39-2.17,3-1.72,4.66-.44-2.08-.4-4.24.12-6.3.56-2.11,1.38-4.15,2.44-6.07,1.63-3.35,4.15-7.13,3.19-11-.5-2.15-2.26-3.78-4.44-4.12"/><path class="cls-12" d="M301.36,584.55s-5.59,15.9,3.62,25.13l3,4.21s-12.11-4.66-12.6-16.66c0,0,2.18-9.77,6-12.68"/><path class="cls-9" d="M316.62,606.47c0-.31-.63-2.24-.34-2.36,2-.81,1.76-6.86,10.6-13.33,14.74-10.79,26.53,2.11,27.45,5.7,0,0,8.32,14.45,16.37,17.9,1.58.67.62.58.48,1s1.13,1.1-1.05.47c-3.08-.89-13.34-6.24-18.63-13.78v-.07c-.44-.81-7.95-14.19-17.11-3.13-.05.06-.09.13-.12.2-.48,1.17-5,11.45-16.75,14.74-.41.12-.85-.11-.97-.53-.02-.08-.03-.16-.03-.24l.1-6.57Z"/><path class="cls-7" d="M295.32,619l-1.15-.5c-.62.6-1.04,1.38-1.2,2.23,1.82-.71,3.74-1.14,5.69-1.27l-3.34-.46Z"/><path class="cls-7" d="M294.13,622.87l-1.46-.28c-.58.81-.85,1.79-.77,2.78l3.77-2.14-1.54-.36Z"/><path class="cls-7" d="M298.99,625l-2,.81s-.63.73-.29,2.84c2.62-2.06,5.39-3.92,8.29-5.56l-6,1.91Z"/><path class="cls-7" d="M316.13,619.09l.86-.73c1.02.2,1.92.79,2.51,1.65-1.67-.23-3.36-.15-5,.23l1.63-1.15Z"/><path class="cls-1" d="M325.13,583.81c-.49.53-1.32.27-1.77.82,0,0,1.09-2.5.36-8-.24-2.14-.5,1.79-.5,1.79-.32,2.1-1.25,4.07-2.67,5.65-2.43,2.76-4.36,3.1-5.22,5.71,0,0-1-.41.65-2.63,1.34-1.86-1-.44-1.92,1-1.48,2.17-2.42,4.66-2.74,7.26-.6,3.77-8.49,7.17-6.11,10.83.93,1.91,1.62,3.92,2.06,6,0,1.07-1.31,2.23-1.92,3.1-.37.69-.81,1.34-1.31,1.94,0,0-7.45.45-9.41,2.18-.84.74-.06.7-.06.7,0,0,4.56-.85,5.46-.25.59.39-.86.58-1.06.63-.42.14-.84.31-1.24.5-1.54.55-2.99,1.34-4.28,2.35-1.6,1.42-.64,1.32-.64,1.32,0,0,4.35-2.11,7.49-1.7,0,0-2.78,3.23-2.64,4.9.94-.49,1.77-1.17,2.44-2,1.63-1.73,10.58-4.76,12.38-5.21,1.68-.33,3.37-.56,5.08-.7,2.41,0-1.57-1.09-1.57-1.09-1.04-.24-2.11-.39-3.18-.44-1.27,0,1-1.73,1.62-2.06,1.87-.65,3.88-.72,5.79-.22,1.89.57-1.17-2.52-2.4-3,.62-1.04,1.07-2.16,1.34-3.34.32-1.82.6-3.36,2.07-4.68-.98-.11-1.97.2-2.71.85-.62-1.58-.38-3.36.63-4.72.92-1.01,1.97-1.9,3.11-2.65,1.71-1.33,3.24-2.88,4.53-4.62,1.92-2.7-.32,0-1.95.21,0,0-.6-.5,2.06-3.12s.43-.65-1.61-.34.46-1,1.65-2.36c4.74-5.3,7.16-3.21,4.33-12-.08-.24-2.16,3.35-6.14,7.58"/><path class="cls-9" d="M353.22,615.55s2.83,1.56,2.19,3.68c2.26-.03,4.53.1,6.77.39,2.12,0-1.53-5.2-1.53-5.2,0,0-1-2.71,1.07-3.07l-9.69-9.51c-1.06,1.21-2.27,2.28-3.61,3.18-2.67,1.79-.8,4.62,3.42,7l4.22,2.4s.12,1.72-2.84,1.11"/><path class="cls-9" d="M380.37,610.41c2.53-6.61,21.7,2.54,18-19.07,0,0,7.81,14.79-10.34,24.25-3.03,1.16-6.26,1.69-9.5,1.55.45-2.28,1.05-4.53,1.8-6.73"/><path class="cls-1" d="M377.77,616.21l-.88-5.55c-1.5-.92-5.27,3-5.27,3-.22,1.83-1.05,3.53-2.36,4.82-2.06,1.8-7.18,2.68-8.66,2.61s-2-.17-6-.16-4.26,2.05-4.26,2.05l1.06-.09c1.64-.13,3.28.07,4.84.59,1.87.66-3.15,1-3.15,1-1.61,0-3.11.81-4,2.15,0,.88,1.47.39,1.47.39,1.14-.07,4.54-.73,4.54-.73,0,0,5.65-1.56,2.61.06s-4.29,1.62-3.93,2.55c.28.72.07,1.43,2.05.6,1-.44,3.94-2,3.94-2,12.26-5.39,16.56-4,19.29-4.94s-.51-5.38-.51-5.38l-.78-.97Z"/><path class="cls-9" d="M305.41,565.44c.7-1.08,1.77-1.88,3-2.25,0,0-.56,2.8-1.67,3.56s-2.25.72-1.29-1.31"/><path class="cls-9" d="M302.35,563.25c.74-1.14,1.85-1.98,3.14-2.39,0,0-.59,3-1.76,3.77s-2.39.76-1.38-1.38"/><path class="cls-9" d="M308.66,567.41c.34-.53.86-.93,1.46-1.13,0,0-.27,1.39-.81,1.77s-1.12.37-.65-.64"/><path class="cls-9" d="M310.78,569.24c.31-.48.77-.83,1.31-1,0,0-.24,1.25-.73,1.59s-1,.33-.58-.58"/><path class="cls-9" d="M282.7,597.36c.44-.24,7,9.56,12.68,9.31,0,0-2.76.78-1.11,3.67.54.62,1.03,1.29,1.45,2,0,0-6.63.84-13-15"/><path class="cls-7" d="M353.92,621.28l-.76-.92s-3.13,1.29-3.87,2.7c2.52-.18,5.06-.16,7.58.05l-2.95-1.83Z"/><path class="cls-1" d="M384.85,568.24v-.88c.07-.49.29-.96.62-1.33,0-.02,0-.04,0-.06,0-.05-.08-.06-.13-.05-1.34.24-2.19,2.1-2.62,3.27s2-.33,2.06-1"/><path class="cls-1" d="M386.84,567.4c0-.19,0-.37,0-.56.06-.3.19-.59.4-.82h-.08c-.85.13-1.4,1.3-1.7,2s1.29-.19,1.32-.57"/><path class="cls-1" d="M382.41,569.1c-.04-.27-.04-.54,0-.81.07-.7.34-1.36.78-1.91,0,0,.06-.06.05-.1s-.11-.08-.18-.06c-1.88.43-2.95,3-3.48,4.7s2.82-.95,2.83-1.82"/><path class="cls-1" d="M378.71,571.56c-.04-.41-.06-.83-.05-1.24.07-.99.41-1.94,1-2.74.04-.04.06-.09.06-.15,0-.09-.16-.09-.26-.07-2.61.77-3.86,4.84-4.48,7.25s3.85-1.83,3.78-3.05"/><path class="cls-1" d="M374.93,575.12c-.15-.46-.26-.93-.34-1.41-.06-1.15.1-2.3.48-3.39,0-.06.06-.12,0-.18s-.21-.09-.31,0c-4.27,2.86-2.87,6-2.82,8.89,0,.29,3.3-2.47,2.95-3.88"/><path class="cls-6" d="M292.37,573.44c.1-.02.2-.04.3-.08.22-.05.46-.05.68,0,.42.16.72.55.77,1,.15.78-.36,1.54-1.14,1.69-.22.04-.44.03-.66-.03,0,0,1,.17,1.13-1.28,0,0,.06-.85-1.08-1.32"/></svg>