<?xml version="1.0" encoding="UTF-8"?><svg id="uuid-b5855a13-ec8a-4a0b-8cc1-1c21fc7f8e8a" xmlns="http://www.w3.org/2000/svg" viewBox="0 0 209.5 209.5">
<title>Chelsea FC logo - Brandlogos.net</title><path id="uuid-7e86499b-2bc9-4e7f-b5ba-8dd442334c76" d="M209.5,104.7c0,57.9-46.9,104.8-104.8,104.8S0,162.6,0,104.7,46.9,0,104.7,0s104.8,46.9,104.8,104.7Z" style="fill:#dba111;"/><path id="uuid-9edaae5e-b447-4848-b09d-198b3e8e29db" d="M206,104.7c0,56-45.3,101.3-101.3,101.3S3.5,160.7,3.5,104.7,48.8,3.5,104.7,3.5s101.3,45.3,101.3,101.2Z" style="fill:#001489;"/><path id="uuid-bab3996b-040f-4e6b-8ccb-6f8bb927cd53" d="M176.9,104.7c0,39.9-32.3,72.2-72.2,72.2s-72.1-32.3-72.1-72.2S64.9,32.6,104.7,32.6s72.2,32.3,72.2,72.1Z" style="fill:#dba111;"/><path id="uuid-9d230fa0-a6c8-4901-ba14-59be0fdd86e4" d="M174.7,104.7c0,38.7-31.3,70-70,70s-69.9-31.3-69.9-70,31.3-69.9,69.9-69.9,70,31.3,70,69.9Z" style="fill:#fff;"/><path id="uuid-dd0a0fda-8ade-408d-b821-34c9bbb0c030" d="M44.8,165.1c.8.7,2.7,2.6,2.7,2.6l1.8-2-5.5-5.2-.7.8-7.3,7.6,2.8,2.7s2.4-2.5,3.2-3.4c.7.7,2.4,2.3,2.4,2.3l1.9-1.9s-1.7-1.6-2.5-2.3c.5-.5.7-.7,1.2-1.2h0Z" style="fill:#dba111;"/><path id="uuid-a3812365-6a40-4fa2-b367-7395e1d68e2e" d="M58,174.8c0,1.3-.4,2.6-1.2,3.7-1,1.4-2.4,2.3-4,2.6-1.5.2-3-.1-4.2-1-1.3-.9-2.1-2.2-2.3-3.7-.3-1.5.1-3.2,1.1-4.6,1-1.4,2.4-2.3,4-2.6,1.5-.2,3,.1,4.2,1s2.1,2.2,2.3,3.7c.07.27.1.57.1.9h0ZM53.6,176.2c.6-.8,1.8-2.9.5-3.8-1.3-.9-2.7.7-3.5,1.7-.7,1-1.8,2.9-.5,3.8,1.3,1,2.9-.9,3.5-1.7Z" style="fill:#dba111; fill-rule:evenodd;"/><path id="uuid-0a0c7d68-f737-4608-8764-de4da5cf89ea" d="M68.9,184.8c-.8,1.5-2.1,2.6-3.6,3.1-1.4.5-2.9.4-4.3-.3-1.4-.7-2.4-1.8-2.8-3.3-.5-1.5-.4-3.2.4-4.7,1.6-3.1,4.9-4.3,7.9-2.8,2.9,1.4,4,4.9,2.4,8ZM65.4,183c.6-1.2.8-2.4.6-3.1-.13-.33-.37-.6-.7-.8-1.4-.7-2.6,1.1-3.2,2.3-.3.6-.7,1.6-.7,2.4,0,.6.2,1.1.8,1.4.33.2.67.23,1,.1.7-.2,1.5-1.1,2.2-2.3h0Z" style="fill:#dba111; fill-rule:evenodd;"/><path id="uuid-5a37a037-c3a9-4896-9aad-35da92e1f871" d="M72.5,181l-.5,1.6s1.4.4,1.8.6c-.5,1.5-3,8.4-3,8.4l3.6,1.3s2.5-6.9,3-8.5c.4.2,1.8.7,1.8.7l.9-2.5-7.2-2.6-.4,1Z" style="fill:#dba111;"/><path id="uuid-2135b92e-8537-4e2e-95e9-844b8106d279" d="M90.6,187.8c0,.27-.03.5-.1.7-.1.8-.5,1.4-1.1,1.9.4.53.6,1.13.6,1.8v.8c-.3,1-.8,1.8-1.5,2.3-.6.4-1.7.8-3.3.4l-4.9-1,2.1-10.4.3-1,4.8,1.1c2.3.4,3.1,2.1,3.1,3.4ZM86.2,191.9c0-.3-.1-.8-.7-.9,0,0-.3-.1-.5-.1-.2.7-.3,1.2-.4,2,.2,0,.4.1.4.1.4.07.7.03.9-.1.1-.1.2-.4.3-.6,0-.07,0-.2,0-.4ZM85.5,188.3c.2,0,.3.1.3.1.8.1.9-.3,1-.6,0-.13,0-.23,0-.3,0-.13-.03-.23-.1-.3-.1-.2-.4-.4-.8-.5-.2.7-.2,1-.4,1.6Z" style="fill:#dba111; fill-rule:evenodd;"/><path id="uuid-61a3eb22-4c33-4b43-beb9-c2916123c524" d="M96.5,186l-5.3,10.9,3.1.2s.8-1.7,1.1-2.4c.67.07,1.3.13,1.9.2.3.7.9,2.5.9,2.5l4,.3-4.5-13.9-1.2,2.2Z" style="fill:#dba111;"/><path id="uuid-dc0f0b02-237d-4d28-872c-b99c1e95b212" d="M108.5,194.7c-.1-1.6-.4-8.8-.4-8.8l-3.8.2.5,11.6,7.7-.4-.2-2.7s-2.7.1-3.8.1h0Z" style="fill:#dba111;"/><path id="uuid-d34d154d-835a-4f27-a441-6f1bb8e4c5d5" d="M119,193.6c-.2-1.6-1.4-8.7-1.4-8.7l-1,.2-2.8.4,1.8,11.5,7.6-1.2-.4-2.8s-2.7.4-3.8.6Z" style="fill:#dba111;"/><path id="uuid-8cbed3ce-78e4-4b2c-85aa-daaaef8872fc" d="M141,185.9c-.1,1-.7,1.8-1.6,2.2-.47.2-.93.2-1.4,0-.8-.3-1.5-1.1-1.9-2.2-.5-1.2-.6-2.2-.3-2.9.27-.53.73-.93,1.4-1.2.7-.3,1.3,0,2.3.5l.8.5,1.4-2.2-.8-.6c-1.5-1-3.5-1.2-5.1-.5-1.5.6-2.7,1.7-3.4,3.2-.6,1.5-.6,3.2.1,4.8,1.2,3,4.6,4.5,7.6,3.3,2.2-.8,3.4-2.5,3.6-4.8l.1-1-2.8-.2v1.1h0Z" style="fill:#dba111;"/><path id="uuid-90596f20-5c33-451f-b81a-2a772f28d361" d="M149.9,182.7c-.8-1.4-4.3-7.7-4.3-7.7l-.9.5-2.5,1.4,5.7,10.1,6.7-3.7-1.3-2.5s-2.4,1.4-3.4,1.9Z" style="fill:#dba111;"/><path id="uuid-50e580e2-41e8-4834-8ce4-1858d4b99269" d="M157.3,167.1l-.8.6-1.4,1.1,4.7,6.4c.2.2.2.4.2.6-.1.3-.4.6-.7.9-.2.1-.5.2-.8.2-.27-.07-.47-.2-.6-.4l-4.7-6.4-3.1,2.3,4.6,6.3c.73.93,1.6,1.47,2.6,1.6,1.1.2,2.4-.2,3.5-1.1,2.5-1.7,2.4-4.1,1.4-5.5l-4.9-6.6Z" style="fill:#dba111;"/><path id="uuid-adfb9e94-70d3-4d90-95c5-321f7685ba4a" d="M172.5,167.3c0,.7-.3,1.8-1.4,2.9l-3.7,3.5-8.1-8.3,3.6-3.5c2-1.9,4.2-1.1,5.1-.1.6.5.9,1.2.9,1.9,1,0,1.8.3,2.5,1.1.7.7,1.1,1.6,1.1,2.5h0ZM163.9,164.6l1.2,1.2c.1-.1.1-.2.1-.2.3-.2.4-.5.4-.6,0-.2-.1-.4-.3-.5-.2-.3-.6-.6-1.4.1ZM166.9,167.7c.5.5.9.9,1.4,1.5l.3-.3c.3-.3.5-.6.5-.8h0c0-.2-.2-.5-.4-.6-.2-.2-.8-.8-1.4-.1,0,0-.2.1-.4.3h0Z" style="fill:#dba111; fill-rule:evenodd;"/><path id="uuid-5cae575a-5191-4568-9555-b72ec7b081d3" d="M44.8,164c.3.3,2.6,2.6,2.6,2.6l.8-.8-4.3-4.2-.2.2-6.8,7.1,1.7,1.6s2.9-3,3.2-3.4c.3.3,2.4,2.4,2.4,2.4l.8-.8s-2.1-2.1-2.4-2.4c.2-.3,1.9-2,2.2-2.3h0Z" style="fill:#fff;"/><path id="uuid-a51793b8-6224-45eb-8c9e-6a473c6aea88" d="M57.2,174v.8c0,1.1-.3,2.3-1,3.3-.9,1.2-2.2,2-3.5,2.2s-2.6-.1-3.7-.8c-1.1-.8-1.8-1.9-2-3.2-.2-1.4.1-2.8,1-4.1.9-1.2,2.1-2,3.5-2.2,1.3-.3,2.6.1,3.7.8,1,.8,1.8,1.9,2,3.2ZM54.5,171.7c-1.9-1.3-3.8.9-4.5,2-.7,1-2.2,3.5-.3,4.8,1.8,1.4,3.7-.8,4.5-1.9.7-1,2.2-3.5.3-4.9h0Z" style="fill:#fff; fill-rule:evenodd;"/><path id="uuid-790007dc-2ddf-4510-8ae5-5a89f244bfc8" d="M68.2,184.4c-.7,1.4-1.8,2.4-3.1,2.8-1.2.4-2.6.3-3.8-.3-1.1-.6-2-1.6-2.4-2.8-.4-1.3-.3-2.8.4-4.2,1.3-2.7,4.3-3.7,6.8-2.5,2.6,1.3,3.5,4.3,2.1,7ZM63.5,186.1c1.2-.4,2.1-1.9,2.5-2.8.5-.8,1.1-2.4.7-3.6-.2-.53-.57-.93-1.1-1.2-2-1.1-3.6,1.4-4.1,2.5-.6,1.1-1.7,3.9.4,4.9.53.27,1.07.33,1.6.2h0Z" style="fill:#fff; fill-rule:evenodd;"/><path id="uuid-be43e71d-1e81-4581-9439-9e8d6e72b98a" d="M73.3,181.3l-.3.8s1.4.5,1.8.6c-.2.5-3,8.5-3,8.5l2.2.7s2.8-8,2.9-8.4c.4.1,1.8.6,1.8.6l.4-1.1-5.8-2v.3h0Z" style="fill:#fff;"/><path id="uuid-4d7afb92-39f5-4603-8bf6-bf9ef4d35bd9" d="M89.8,187.8c0,.2,0,.4,0,.6-.2.9-.8,1.5-1.7,1.8.8.5,1.2,1.2,1.2,2.1,0,.13-.03.33-.1.6-.2.7-.6,1.4-1.2,1.7-.67.47-1.53.6-2.6.4l-4.2-.9,2-9.6v-.3l4.2.9c1.9.4,2.4,1.8,2.4,2.7ZM85.3,185.8c-.1.4-.6,2.7-.7,3.1.4.1,1,.2,1,.2.6.1,1.6.1,1.9-1.1.07-.2.1-.37.1-.5,0-.27-.07-.53-.2-.8-.27-.33-.77-.57-1.5-.7,0,0-.4-.1-.6-.2ZM84.4,190c-.1.4-.7,3.1-.7,3.5.4.1,1.1.2,1.1.2.67.13,1.17.1,1.5-.1.33-.2.53-.6.6-1.2,0,0,.1-.2.1-.4,0-.6-.2-1.5-1.4-1.8,0,0-.9-.1-1.2-.2Z" style="fill:#fff; fill-rule:evenodd;"/><path id="uuid-1c471b4c-064b-4a32-bc3c-d75160b93d93" d="M97.5,185.8l3.6,11.1-2.4-.2s-.7-2.3-.8-2.6c-.3,0-2.6-.2-2.9-.2-.2.3-1.2,2.4-1.2,2.4l-1.4-.1,4.8-9.8.3-.6ZM95.5,192.8c.5,0,1.6.1,2,.2-.1-.5-.6-2-.8-2.7-.3.7-1,2.1-1.2,2.5Z" style="fill:#fff; fill-rule:evenodd;"/><path id="uuid-be40d94d-5d1a-4c61-b1c5-1915f18a2397" d="M107.8,195.5c0-.5-.4-8.8-.4-8.8h-.2l-2.1.1.4,10.1,6.2-.3-.1-1.3c0,.1-3.4.2-3.8.2Z" style="fill:#fff;"/><path id="uuid-eb4168c8-6ade-44af-932d-d1d2d1c1fe1c" d="M118.4,194.5c-.1-.5-1.4-8.7-1.4-8.7h-.2l-2.1.3,1.6,10,6.1-1-.2-1.2s-3.4.5-3.8.6h0Z" style="fill:#fff;"/><path id="uuid-19c65520-37d1-4c37-babd-7ed30236ba59" d="M141.7,185.9c0,1.3-.8,2.4-2,2.9-.67.27-1.33.27-2,0-1-.4-1.8-1.3-2.3-2.6-.6-1.4-.6-2.6-.3-3.6.33-.67.93-1.17,1.8-1.5,1.1-.5,2.1.1,3,.6l.2.1.6-1-.2-.1c-1.4-.9-3-1.1-4.4-.5-1.4.5-2.4,1.5-3,2.8-.5,1.3-.5,2.8.1,4.2,1,2.7,4,4,6.7,2.9,1.87-.73,2.87-2.1,3-4.1l.1-.3-1.3-.1v.3h0Z" style="fill:#fff;"/><path id="uuid-efb6dbc3-8873-49e5-bae0-e7a805a77ed9" d="M149.6,183.8c-.2-.5-4.3-7.8-4.3-7.8l-.2.2-1.8,1,4.9,8.8,5.4-3-.6-1.1s-3,1.6-3.4,1.9h0Z" style="fill:#fff;"/><path id="uuid-5a7f5987-83d3-41bb-ae2d-dc53f8bcb1d3" d="M157.2,168.2l-.2.1-.9.6,4.3,5.8c.27.4.37.8.3,1.2-.1.7-.7,1.2-1,1.4s-.8.4-1.3.3c-.47-.07-.83-.3-1.1-.7l-4.2-5.7-1.9,1.4,4.2,5.6c.53.8,1.2,1.27,2,1.4,1.2.2,2.4-.5,3-1,2-1.4,2-3.3,1.2-4.5l-4.4-5.9Z" style="fill:#fff;"/><path id="uuid-562a987c-4ecf-47f3-9c58-c6328ede5dc2" d="M171.7,167.3c0,.8-.4,1.57-1.2,2.3l-3.1,3.1-7-7.3,3.1-2.9c1.7-1.7,3.4-.9,4-.2.5.5.7,1.1.7,1.7,0,.2-.03.43-.1.7,1-.4,2-.2,2.8.6.6.6.8,1.2.8,2h0ZM165.9,164c-.73-.8-1.6-.77-2.6.1,0,0-.3.3-.4.5.2.3,1.9,2,2.1,2.3.3-.3.8-.7.8-.7.2-.3.6-.7.6-1.2,0-.3-.2-.7-.5-1h0ZM169.2,169.4c.4-.47.63-.9.7-1.3h0c0-.4-.2-.8-.6-1.2-.1,0-1.3-1.3-2.6-.1l-.9.9,2.5,2.5c.2-.2.9-.8.9-.8h0Z" style="fill:#fff; fill-rule:evenodd;"/><path id="uuid-4a27d1a7-527d-40d9-b719-f73d75da363b" d="M58.2,35.7l-4.2,1.2.5,1.5c.5,1.8,0,3.8-1.4,5-.8.73-1.73,1.07-2.8,1-1.5-.1-3.2-1.1-4.6-2.7-1.6-1.9-2.4-3.6-2.3-5.2,0-1.1.6-2,1.6-2.9,1.1-1,2.6-1,4.5-.6l1.5.3.9-4.1-1.4-.3c-3.2-.8-6.4,0-8.8,2-4.5,4-4.9,10.5-.8,15.2,3.7,4.3,10.3,4.8,14.6,1.1,3.1-2.7,4.2-6.2,3.1-10l-.4-1.5Z" style="fill:#dba111;"/><path id="uuid-9506464e-1637-43f1-b6a5-7c82b68e47f6" d="M69.7,14.5l-4.3,2s2.4,5.2,3.2,6.9c-1.2.6-2.4,1.2-3.6,1.7-.9-1.7-3.3-6.8-3.3-6.8l-5.7,2.7,8.7,18.3,5.7-2.6s-2.7-5.7-3.6-7.6c1.3-.5,2.5-1.1,3.7-1.7.9,1.8,3.6,7.5,3.6,7.5l5.6-2.7-8.6-18.3-1.4.6Z" style="fill:#dba111;"/><path id="uuid-ac1a5f9b-aef3-47c7-9af5-6db255ab4efb" d="M89,25.9c-.27-1.4-.57-2.77-.9-4.1,1.8-.4,6.5-1.3,6.5-1.3l-.8-4.1s-4.7.9-6.5,1.3c-.2-1.3-.4-2.3-.7-3.6,1.8-.3,6.8-1.3,6.8-1.3l-.8-4.1-1.5.3-11.5,2.3,4,19.9,13.1-2.6-.8-4.1s-5.1,1-6.9,1.4Z" style="fill:#dba111;"/><path id="uuid-1f1a8405-d63a-4687-a7e8-e84d04efb4b5" d="M107.6,8.2l-6.3-.1-.1,1.5-.4,18.8,13.3.3.1-4.4s-5.1-.1-7-.2c.1-2.5.4-15.9.4-15.9Z" style="fill:#dba111;"/><path id="uuid-d27421aa-6ce5-46dd-a4f0-ab406458e2a7" d="M128,18.5c-1.6-1.2-2.1-1.7-1.9-2.4,0-.3.4-1.4,1.6-1.1.7.2,1.4.5,1.7,2.1l.3,1.6,4.2-1.4-.2-1.3c-.6-2.6-2.7-4.7-5.5-5.4-1.9-.5-3.9-.2-5.5.7-1.5.9-2.5,2.3-2.9,4-1.1,4.1,1.7,6.1,3.6,7.5,1.9,1.3,2.4,1.9,2.1,3-.07.33-.27.6-.6.8-.4.3-.9.3-1.3.2-1-.2-1.4-.7-1.8-2l-.5-1.5-4.2,1.7.4,1.3c.8,2.6,2.6,4.2,5.7,5,3.4.8,7.6-.8,8.6-4.9,1.1-4.3-1.8-6.5-3.8-7.9h0Z" style="fill:#dba111;"/><path id="uuid-1ea7572d-3f74-406e-929d-4d1bc24851e6" d="M143,29.3c1.6.8,5.9,3,5.9,3l1.9-3.8s-4.3-2.1-5.9-2.9c.6-1.2,1.1-2.1,1.7-3.3,1.6.9,6.2,3.2,6.2,3.2l1.9-3.7-11.9-6-.7,1.3-8.5,16.8,12,6.1,1.9-3.8s-4.7-2.3-6.4-3.1c.67-1.27,1.3-2.53,1.9-3.8h0Z" style="fill:#dba111;"/><path id="uuid-840bcc7e-2066-41ce-8e7e-d0db4cbc00df" d="M166.6,31.2l-18.9,9.8,3.6,3.2s3.1-1.7,4.2-2.3c.9.7,2.1,1.8,3,2.6-.4,1.2-1.6,4.6-1.6,4.6l5,4.3,8.1-23.9-3.4,1.7Z" style="fill:#dba111;"/><path id="uuid-2220ace3-51a2-48df-ae99-7351401fc572" d="M57.5,37l-2.2.6.1.5c.7,2.2.1,4.6-1.7,6.1-1,.87-2.13,1.27-3.4,1.2-1.9-.1-3.8-1.2-5.4-3-1.8-2.1-2.7-4.1-2.5-5.9.07-1.4.7-2.63,1.9-3.7,1.6-1.4,3.7-1.1,5.4-.8l.5.1.5-2.1-.5-.1c-2.8-.7-5.7,0-7.8,1.8-4.1,3.6-4.5,9.5-.8,13.7,3.4,3.9,9.4,4.4,13.2,1,2.8-2.5,3.8-5.5,2.8-8.9,0,0-.1-.5-.1-.5Z" style="fill:#fff;"/><path id="uuid-e68fae6e-ca40-461e-8d63-c46e1d6d89bd" d="M70.1,15.4l-3.4,1.6s2.9,6.1,3.3,6.9c-.8.3-4.8,2.3-5.5,2.6-.4-.8-3.3-6.9-3.3-6.9l-3.8,1.8,7.8,16.6,3.8-1.8s-3.1-6.7-3.5-7.6c.7-.3,4.8-2.2,5.5-2.5.4.8,3.5,7.5,3.5,7.5l3.9-1.8-7.8-16.6-.5.2Z" style="fill:#fff;"/><path id="uuid-ac642ee2-568f-4437-a969-045899a8616d" d="M88.2,27.1c-.2-.8-1.1-5.3-1.2-6.1.8-.2,6.4-1.3,6.4-1.3l-.4-2.1s-5.6,1.1-6.5,1.3c-.1-.8-.9-4.8-1.1-5.6.9-.1,6.8-1.3,6.8-1.3l-.4-2.1-11,2.2,3.6,17.9,11.1-2.2-.4-2.1s-6.1,1.2-6.9,1.4Z" style="fill:#fff;"/><path id="uuid-175ad2a2-5d0b-464a-b21d-82e7db6a926a" d="M106.5,9.2l-4.2-.1v.5l-.4,17.8,11.2.2v-2.3s-6-.2-6.9-.2c0-.9.3-15.9.3-15.9Z" style="fill:#fff;"/><path id="uuid-1b12b859-d70b-4f64-a268-fd5ab65c8da4" d="M127.9,14c1.4.3,2.2,1.2,2.5,2.8l.1.6,2.2-.7v-.5c-.5-2.2-2.4-4-4.7-4.6-1.7-.5-3.4-.2-4.8.6-1.2.7-2.1,1.9-2.4,3.3-.9,3.5,1.4,5.1,3.2,6.4,1.8,1.4,3,2.3,2.5,4.1-.2.8-.7,1.3-1.1,1.5-.6.4-1.4.5-2,.3-1.4-.3-2.1-1-2.6-2.7l-.2-.5-2.3,1,.2.4c.6,2.2,2.3,3.6,4.9,4.3,3,.7,6.6-.6,7.5-4.1.9-3.7-1.5-5.5-3.5-6.9-1.7-1.3-2.7-2.1-2.3-3.4.3-1.2,1.3-2.3,2.8-1.9Z" style="fill:#fff;"/><path id="uuid-4d4ca9e3-2642-4f0f-af7a-ea632853d72e" d="M146.1,21c.8.4,6.2,3.1,6.2,3.1l1-1.9-10-5-.3.4-8,15.9,10.1,5.1,1-1.9s-5.5-2.8-6.3-3.2c.3-.7,2.4-4.8,2.8-5.6.8.4,5.9,3,5.9,3l.9-1.9s-5.1-2.6-5.8-3c.3-.7,2.2-4.3,2.5-5h0Z" style="fill:#fff;"/><path id="uuid-3b6487b0-1047-44d3-97f0-d1ff0c6df431" d="M168.2,31.6l-6.8,20.1-3.3-3s1.4-4,1.6-4.6c-.5-.3-3.6-3-4-3.4-.5.3-4.3,2.2-4.3,2.2l-2-1.7,17.7-9.1,1.1-.5ZM160.3,42c.4-.9,1.1-3.2,1.6-4.5-1.3.6-3.4,1.7-4.2,2.2.6.6,2,1.7,2.6,2.3h0Z" style="fill:#fff; fill-rule:evenodd;"/><path id="uuid-2d49d4b9-0c47-4ff2-b557-1563addf7a31" d="M148.9,112.1c3.3-4.5-2.5-8.9-5.4-6.7-5,3.7,5.7,7.4,5.7,17.1,0,10.3-16.6,9.1-21.7,3.1,0,2.2,5.3,13.7,15.2,9.1-11.3,12.3-2.9,24.8-8.7,24.8-3,0-2.8,2.9-2.8,2.9,0,0-2.3-.7-2.2-3-1.7,0-4.1.5-4.2,3.8,0,0-2-.5-1.9-3.8-3.2-.1-5.7.6-5.7,3.3,0,0-2-1.5-1.8-3.9-1.2-1.4-1.6-7.7,8.9-7.2,2.9.2,3.6-7.3,1.6-9.5-1.3-.1-6.2-.2-10.7-8.8-2.2,0-8.5,2.4-8.5,5.9,0,3.9,7,4.9,7,4.9-14.1,2.7-5.4,12.2-14.7,13.8-3.7.7-2.8,3.9-2.8,3.9,0,0-3.3-1.1-3.3-3.9-2.1,0-4.4,1.3-4.4,4.7,0,0-2.6-.8-2.6-4.7-3.9,0-5,1.8-4.5,3.9,0,0-2.9-1.3-2.1-5-1.8-4.5.6-8.4,10.2-7.3,6.6.9,6.8-9.5,6.8-10.9-11.1-4.8,4.9-18.7,12.2-21.1l-3.5-5.9s-6,7.1-13,8.9c-1.1-2.2-4.8-2.5-7.5-1.2-.9.5-1.7,1.1-2.3,2,0,0-1,1.1-.7,2.9-.07,0-.13,0-.2,0-.13,0-.23,0-.3,0-.33-.07-.63-.17-.9-.3v13.6h1.3v4.3h-2.2c1.2.5,2,1.5,2.1,2.7.2,1.9-1.3,3.4-3.2,3.6-1.9.1-3.6-1.2-3.7-3-.1-1.5.7-2.8,2.1-3.3h-2.4v-4.3h1.3v-15.4s-1.1-1.1-1.1-3.9c0,0,.3-2.3-1.3-.7,0,0-2.3.1-.5-2.2,0,0,.6-2.3-.8-1.2-.1-5.3,1.1-2.6,1.1-2.6.4-.9,1.2-1.9,2.6-2.7v-20.2c-.4-.1-.8-.2-1.3-.4-1.5-.4-1.7-2.1-1.5-3.1-2.3-2.7-.6-3.1.1-4.4-.8-1-1.3-1.6-.8-3.1.5-1.6,1.6-2.1,3.4-2.4h.1v-1.2h-.5c0-.07-.03-.1-.1-.1-.13,0-.27-.03-.4-.1h-.1c-.27-.07-.5-.17-.7-.3h-.1c-.13,0-.23-.03-.3-.1h-.1l-.2-.2h-.1c-.07,0-.1-.03-.1-.1h-.1c-.07-.07-.13-.1-.2-.1.3,0,1.4-.4,2.7-1.2-3.7-1-6.6-4.1-7-8.1-.4-5,3.5-9.4,8.8-9.9,2.2-.1,4.3.4,6.1,1.5h0c.2.13.37.23.5.3l.1.1c.2.13.37.27.5.4l.1.1c.27.2.53.43.8.7.07.07.13.13.2.2.07.13.13.27.2.4.07.07.17.17.3.3.07.07.13.17.2.3.07.13.13.27.2.4.07.07.13.17.2.3.13.2.23.43.3.7.07.07.1.13.1.2.13.2.2.4.2.6.07.07.1.13.1.2.07.2.13.4.2.6v.3c.07.27.1.53.1.8.3,2.4-.5,4.7-2,6.4-1.8,2.4-3.6,3.8-5.2,4.6v2c1.1.4,2.4,1.3,4,2.8,3.8,3.6,10.4,4.3,14.5,4.5,2.8-2.8,3.9-7.3,3.9-7.3-2.9-1-4-5.1-2.1-7,0,2.8,8.1,2.9,8.1-3.2,0-.9,1.5-4.2-1.4-3.7,2.3-4.7,3.5-3,5-3.2-2-2.7,1.3-3.4,2.6-3.4-.4,6.7,16.4,4.8,17.4,5.1,1.3,3.3,3.1,2,4.4,4.7l-1.2,2-1.3-.5.1,1.6c-1.1,1-1.7,1.8-2.1,2.5-.5.7-.3-.2-.8.5.1-.8-.3.1-.8-.3-.3-.2-.9-.3-1.8-.3-1.6,0-2.5,1.3-3.1,2.4-.5.9-.1,3.4,4.2,2-.6,1.8-.4,3.8,0,6.8-.4-1.8-8.3-6.3-8.3,2.2,0,6.3,6.9,6.5,6.9,3.2,5.3,6.7-2.8,11.1-5.9,9.3l-.3,3.8c5.3,5.7-.1,24.5,15.2,24.5,2.4,0,4.1-2,4.3-3.6,1-9.1-9-10-9-20,0-9,12.5-12.6,12.5-17.9s-7.1-4.5-7.1,0c-2.9-10,16.7-13.8,16.7,0,0,8.2-12.6,10.1-15.7,19,1.1-1.5,2.7-2.7,4.6-3.4,4.7-1.8,9.7-.1,11.2,3.7,1.4,3.8-1.2,8.4-5.9,10.1h0ZM98.9,97.9c-.6-1.3-1.4-2.8-2.2-2.7-1.6,3.4-9.1,5.4-11.3,1.3,3.4-.7,3.4-3.8.7-5.3-2.7-1.1-5.1-1.5-6-1.6v19.1c.4.1.8,0,1.3-.2,3.4-1.2,5.9-4,9.7-6.2,4.6-2.7,6.8-3.8,7.8-4.4ZM137,71.8c2.1-.2,3.8-1.4,4.1-2.8v.3c.3,2.7-1.7,5.1-4.4,5.3-2,.2-3.8-.8-4.7-2.3.3-.5.7-1.1,1.1-1.6.9.8,2.3,1.2,3.9,1.1h0Z" style="fill:#d1d3d4; fill-rule:evenodd;"/><path id="uuid-080ad067-7c57-47c7-9048-b22a2e333322" d="M71.1,136.5c1,0,3.5-.6,3.5-1.1v-18.2c-1.2,0-2.2,1.9-2.2,1.9,0-1.7.7-3.1,1.1-3.5-.6-.6-2.3-.4-2.3-.4,0,0-.6,0-2.2,1.6,0-1.7,1.9-3.8,2.3-4.2,0,0-.7-.4-1.8-.4,0,0-1.1,0-2.5,1.1,0-1.4,2.1-3.8,3.5-3.8,0-1.8,5.2-1.8,7.5-1.8,5.5,0,24.5-12.1,24.5-12.1-4.7,0-6.6-.7-6.6-.7-.7-1.4-1.4-2.8-2.2-2.7-1.6,3.4-9.2,5.4-11.3,1.2,1.8.6,3.6-.1,4-1.5.5-1.4-.7-3-2.5-3.5-.27-.13-.53-.2-.8-.2t0,0v-.1c-2.8-1.1-5.1-1.4-6-1.5v19.1c-.8-.1-1.7-.2-2.5-.2v-17.4c0-1.8-1.3-2.6-2.2-2.6-.4,0-.8-.1-1.3-.3-1.5-.5-1.7-2.1-1.5-3.1-2.4-2.7-.6-3.2.1-4.4-.8-1.1-1.3-1.6-.8-3.2.5-1.5,1.6-2,3.3-2.3.07,0,.13-.03.2-.1.4.5,2,1,2.2,1v-2.3s-1.2.3-2.2.2h0c-.2,0-.37-.03-.5-.1h-.1c-.13-.07-.27-.1-.4-.1h-.1c-.27-.07-.53-.17-.8-.3h-.1c-.07-.07-.13-.1-.2-.1l-.1-.1c-.07,0-.17-.03-.3-.1h0c-.07-.07-.13-.1-.2-.1h0c-.07-.07-.13-.1-.2-.1.3,0,1.4-.5,2.7-1.2h-.1c-2.8-1.4-4.8-4.8-4.8-8.8,0-4.2,2.2-7.8,5.3-9,.47-.07.93-.13,1.4-.2,2.2-.2,4.3.4,6,1.4,0,0,0,.03,0,.1.2.07.4.17.6.3,0,.07.03.1.1.1.13.13.3.27.5.4h0c.33.27.6.53.8.8.07.07.13.13.2.2.13.13.23.23.3.3.07.13.13.23.2.3.07.13.17.27.3.4.07.13.13.27.2.4.07.07.13.13.2.2.13.27.23.5.3.7.07.13.1.23.1.3.07.13.13.3.2.5.07.13.1.23.1.3.07.2.1.4.1.6.07.07.1.13.1.2.07.33.1.63.1.9.2,2.4-.6,4.6-2,6.4-1.8,2.3-3.6,3.7-5.2,4.5v3.9s2.6.9,5.8,2.3c.87.53,1.77,1,2.7,1.4t0,0c5.2,2.7,10.6,6.9,8.8,11.9,5.1,0,4.7-6.6,3.6-7.7,1.7-1.7,5-9.2,5-10.6,0,0-6.7-1.4-5.6-6.1.1,1.1,1.4,1.8,3,1.8,10.7,0,6.9-13.8,1.1-8,2.4-4.8,6-3.7,7.6-3.9h2.9c-2.3-2.3,1.1-6.6,2.4-6.6-.5,6.7,13.6,8,14.7,8.3,1.3,3.3,3.1,2,4.3,4.7l-1.2,1.9-1.2-.4v1.5c-2.1,2.1-2.4,3.2-3.3,4.5.1-1.2.3-2.1-2.1-2.1-1.7,0-2.5,1.3-3.1,2.4-.6,1-.2,3.4,4.1,2.1-.5,1.7-.3,3.7,0,6.8-.4-1.9-8.3-6.3-8.3,2.2,0,6.3,6.9,6.4,6.9,3.1,5.4,6.8-2.8,11.2-5.9,9.3l-.2,3.9c3.5,3.7,2.3,13.1,5.4,19.1,1.7,4.5,4.6,7.9,10.7,7.9,6.4,0,6.9-4.7,6.9-5.8,0-9.1-9.5-11.3-9.5-19.9s12.9-12,12.9-18.2c0-7.4-10.1-6.2-10.6-.6v.5c-2.8-10,16.8-13.9,16.8-.1,0,8.3-12.7,10.2-15.8,19.1,1.1-1.5,2.7-2.7,4.7-3.5,4.7-1.7,9.7-.1,11.1,3.7,1.5,3.9-1.2,8.4-5.9,10.2h0c1.8-.7,3.1-2.5,3.1-4.6,0-2.7-2.2-4.8-4.9-4.8-2.5,0-4.6,1.9-4.9,4.4-.6,3.3,7.1,7.2,7.1,15.4,0,10.2-16.6,9-21.8,3.1,0,2.2,5.3,13.7,15.3,9.1-11.3,12.3-2.9,24.8-8.7,24.8-3.1,0-2.8,2.9-2.8,2.9-.8-.8-1.3-2.5-.8-3h-1.4c-1.7-.1-4.1.5-4.2,3.7-.9-.8-1-2.9-.2-3.7h-1.7c-3.2-.2-5.8.6-5.8,3.2-.6-.6-1.1-3-.2-3.9h-1.6c0-4.8,3.3-5.9,11.6-5.9,0,0,6.8-8.7,1.4-14.1-1.4,0-7.8.3-8.4-5.3-1.4-.3-3-.3-4.7-.1-2.2,0-8.6,2.4-8.6,5.9,0,3.8,7,4.9,7,4.9-14.1,2.6-5.3,12.2-14.6,13.8-3.7.6-2.9,3.8-2.9,3.8-1.1-1.1-1.9-3.3-1.4-3.8h-1.8c-2.1,0-4.4,1.2-4.5,4.6-.7-.7-1.6-3.1,0-4.7h-2.5c-4,0-5,1.8-4.6,4,0,0-1.9-3,.2-5.1h-2.2c0-6.7,4.8-5.5,10.9-5.5,3.9,0,9.6-4.9,9.6-13.1,0,0-3.8-1.5-3.8-5.3,0-9,21.7-10.1,21.7-17.5,0-3.1-2.6-4.4-4.5-4.4.5.5,3.4,6.6-4.7,6.6l-3.5-5.9s-6,7-13,8.9c-1.1-2.2-4.8-2.6-7.6-1.2-.9.4-1.7,1.1-2.2,1.9,0,0-1.1,1.2-.7,3,0,0-1.9-1.7-1.1-3.4-.5-.3-1.3-.5-2.1-.5-.2,1.4.5,2.9,1.7,3.5v13.7h1.3l.1,4.2-2.2.1c1.1.4,1.9,1.4,2.1,2.7.1,1.8-1.3,3.4-3.2,3.6-1.9.1-3.6-1.2-3.8-3.1v-.1c.3.8,1.1,1.4,2.1,1.4,1.1,0,2.1-.9,2.1-2.1s-1-2.1-2.1-2.1c-.27,0-.53.03-.8.1.27-.2.53-.33.8-.4h-2.3M145.8,109.1h0ZM83.1,88.2h.1-.1ZM83.1,88.2h0ZM79.4,60.1c0-1.9-1.6-3.5-3.6-3.5-1.6,0-2.9,1.1-3.4,2.5v.1c-.07.27-.1.57-.1.9,0,2,1.6,3.6,3.5,3.6.07,0,.1,0,.1,0,.2.8.3,1.8,0,2.4,1.9-1.6,3.5-3.7,3.5-6ZM72.4,59.2s0,0,0,0t0,0s0,0,0,0t0,0ZM72.4,59.2s0,0,0,0t0,0ZM72.4,59.2s0,0,0,0t0,0ZM75.1,82.8c0-.2-2.2-.7-3.3-.7-.5,0-.7.7-.7.9s.3.8.7.8c1.1,0,3.3-.7,3.3-1ZM75.8,80c0-.3-3-1.4-4.5-1.5-.7-.1-1,.8-1,1.1s.2,1.1.8,1.2c1.5.1,4.7-.5,4.7-.8ZM76,77c.1-.3-2.9-2.1-4.5-2.5-.7-.2-1.2.7-1.3,1-.1.3,0,1.3.7,1.4,1.6.5,5,.4,5.1.1ZM72.5,59.1s0,0,0,0c-.07.07-.1.1-.1.1.07-.07.1-.1.1-.1ZM72.6,58.9h0ZM72.5,59.1c0-.07.03-.13.1-.2-.07.07-.1.13-.1.2ZM72.4,59.2h0ZM72.6,139.2h0Z" style="fill:#001489; fill-rule:evenodd;"/><path id="uuid-2c2f888c-e17e-4de7-b777-f77a60c11869" d="M128.9,69.2c1,1.6,2.8,2.6,4.7,2.4,2.7-.3,4.7-2.7,4.5-5.4,0-.07-.03-.17-.1-.3-.2,1.4-1.9,2.6-4,2.8-1.6.2-3.1-.3-3.9-1.1-.4.6-.8,1.1-1.2,1.6Z" style="fill:red;"/><path id="uuid-2b2193b4-fd32-4534-8d01-96706f8ded9f" d="M122.3,60l1.7.1-.8,1.2s-1.2.4-.9-1.3ZM118.2,60h2.5s-.1,2,1.7,2.2l-.4.6s-4.8-1.2-3.8-2.8Z" style="fill:#fff;"/><path id="uuid-2a7b0921-8441-4849-8128-9be3148dd6e1" d="M70.9,76.9c-.7-.1-.8-1.1-.7-1.4.1-.3.6-1.2,1.3-1,1.6.4,4.6,2.2,4.5,2.5s-3.5.4-5.1-.1ZM71.1,80.8c-.6-.1-.8-.9-.8-1.2s.3-1.2,1-1.1c1.5.1,4.5,1.2,4.5,1.5-.1.3-3.2.9-4.7.8ZM74.6,70.8v2.3c-.2,0-1.8-.5-2.2-1v-1.1c1,.1,2.2-.2,2.2-.2ZM75.1,82.8c0,.3-2.2,1-3.3,1-.4,0-.7-.6-.7-.8s.2-.9.7-.9c1.1,0,3.3.5,3.3.7ZM71.3,112.6c-.4.4-2.3,2.5-2.3,4.2,0,0-1.3-2.2.5-4.6,1.1,0,1.8.4,1.8.4ZM96.8,135.1c0,8.2-5.7,13.1-9.6,13.1-6.1,0-10.9-1.2-10.9,5.5-1.8-4.4.6-8.4,10.1-7.2,6.7.8,6.9-9.5,6.9-10.9-11.1-4.8,4.8-18.7,12.2-21.1,8.1,0,5.2-6.1,4.7-6.6,1.9,0,4.5,1.3,4.5,4.4,0,7.4-21.7,8.5-21.7,17.5,0,3.8,3.8,5.3,3.8,5.3h0ZM65.1,60.7c-.4-4.6,2.8-8.7,7.4-9.7-3.1,1.2-5.3,4.8-5.3,9s2,7.4,4.8,8.8c-3.7-1.1-6.6-4.2-6.9-8.1ZM100.4,67c2.3,0,5.1-1.4,5.1-5,0-.9-1-3.6-4-3,5.8-5.8,9.6,8-1.1,8ZM85.6,77.7c3.4,1.3,7.2,1.6,10,1.7,2.8-2.8,3.9-7.2,3.9-7.2-2.9-1-4-5.1-2.2-7h.1c-1.1,4.7,5.6,6.1,5.6,6.1,0,1.4-3.3,8.9-5,10.6,1.1,1.1,1.5,7.7-3.6,7.7,1.8-5-3.6-9.2-8.8-11.9ZM72.4,59.2c.5-1.5,1.8-2.6,3.4-2.6,2,0,3.6,1.6,3.6,3.5,0,2.3-1.6,4.4-3.5,6,.3-.6.2-1.6,0-2.4,0,0-.03,0-.1,0-1.9,0-3.5-1.6-3.5-3.6.1,1.3,1.3,2.2,2.6,2.1,1.3-.1,2.3-1.2,2.2-2.4-.1-1.3-1.3-2.2-2.6-2.1-1,0-1.8.7-2.1,1.5ZM109.1,55.1c-2-2.7,3.9-6.6,5.3-6.6-1.3,0-4.7,4.3-2.4,6.6h-2.9ZM70.5,109.5c-1.4,0-3.5,2.4-3.5,3.8,0-5.2,2.8-4.9,2.8-4.9.4-.9,1.1-1.9,2.6-2.6v-20.3c.9,0,2.2.8,2.2,2.6v17.4c.8,0,1.7.1,2.5.2.3,0,.7,0,1.2-.2,3.5-1.2,6-4,9.7-6.2,4.7-2.8,6.8-3.9,7.9-4.4,0,0,1.9.7,6.6.7,0,0-19,12.1-24.5,12.1-2.3,0-7.5,0-7.5,1.8ZM77.1,72.1c1.1.5,2.4,1.3,4,2.9.53.47,1.13.9,1.8,1.3-3.2-1.4-5.8-2.3-5.8-2.3v-1.9ZM83.1,88.2c.27,0,.53.03.8.1,1.8.6,3,2.2,2.5,3.6-.4,1.4-2.2,2.1-4,1.5,3.4-.7,3.4-3.7.7-5.2ZM123.9,149.7c-8.3,0-11.6,1.2-11.6,6-1.2-1.3-1.5-7.7,9-7.1,2.9.1,3.5-7.4,1.5-9.6-1.2-.1-6.1-.1-10.6-8.7,1.7-.3,3.3-.2,4.7.1.6,5.5,7,5.3,8.4,5.3,5.4,5.4-1.4,14-1.4,14ZM128.2,159.4s-2.3-.7-2.2-3h1.4c-.5.5,0,2.2.8,3ZM112.3,155.7h1.6c-.9.9-.4,3.3.2,3.9,0,0-1.9-1.4-1.8-3.9ZM132.6,97.9c0,8.7,9.5,10.9,9.5,20,0,1.1-.5,5.8-6.9,5.8s-9-3.5-10.7-7.9c1.7,3.1,4.5,5.4,9.7,5.4,2.5,0,4.1-2.1,4.3-3.7,1-9.1-8.9-10-8.9-20,0-9,12.5-12.5,12.5-17.9,0-5.1-6.7-4.5-7.2-.4.5-5.6,10.6-6.8,10.6.6,0,6.2-12.9,9.7-12.9,18.1h0ZM73.5,115.6c-.4.4-1.1,1.8-1.1,3.5,0,0-1.2-1.1-1.2-3.9,0,0,1.7-.2,2.3.4ZM148.9,104.5c0,2.1-1.3,3.8-3.1,4.6,3.3-4.6-2.4-8.9-5.4-6.8-.7.6-1.1,1.2-1.3,1.8.3-2.5,2.4-4.5,4.9-4.5,2.7,0,4.9,2.2,4.9,4.9h0ZM121.8,160.1s-2.1-.5-1.9-3.7h1.7c-.8.8-.7,2.8.2,3.7ZM75.5,141.2c0,1.2-.9,2.1-2.1,2.1-1,0-1.8-.6-2.1-1.5,0-1,.5-2,1.3-2.6.27-.07.53-.1.8-.1,1.2,0,2.1.9,2.1,2.1ZM85.4,159.5s-2.5-.7-2.5-4.7h2.5c-1.6,1.6-.7,4,0,4.7ZM77.4,117.8c-.8,1.6,1.1,3.4,1.1,3.4h-.2c-.13,0-.27-.03-.4-.1-.27-.07-.57-.17-.9-.3-1.2-.6-1.9-2.1-1.7-3.5.8,0,1.6.2,2.1.5ZM71.1,136.4l-.1-1.9h1.4v-15.4s1-1.9,2.2-1.9v18.2c0,.5-2.5,1-3.5,1ZM76.3,153.7h2.2c-2.1,2.1-.2,5.1-.2,5.1,0,0-2.9-1.3-2-5.1ZM93.1,158.7s-3.2-1-3.2-3.8h1.8c-.5.5.3,2.7,1.4,3.8Z" style="fill:#6a7ab5; fill-rule:evenodd;"/><path id="uuid-151a54d1-5ceb-46c4-be6a-e9a3faef23a2" d="M31.4,124.7l-.1-.3v-.4c-.2-1.3-.5-3.8-2.4-4.2-.53-.13-1.07-.07-1.6.2.13-.6.13-1.13,0-1.6-.7-1.8-3.2-1.8-4.5-1.8h-.8c-1.3-.3-3.7-.7-4.7.9-.27.47-.37,1-.3,1.6-.47-.33-.97-.5-1.5-.5-1.9.1-2.7,2.5-3.1,3.7l-.1.4-.2.3c-.6,1.2-1.8,3.3-.5,4.8.33.4.8.67,1.4.8-.47.4-.77.83-.9,1.3-.5,1.9,1.5,3.3,2.5,4l.4.3.2.3c.9.9,2.6,2.7,4.4,1.9.47-.2.87-.53,1.2-1,.2.53.5.93.9,1.2,1.7,1.1,3.6-.4,4.7-1.2l.3-.2.4-.2c1.1-.5,3.4-1.6,3.2-3.5-.07-.53-.3-1-.7-1.4.6-.07,1.1-.27,1.5-.6,1.5-1.2.8-3.5.3-4.8Z" style="fill:#fff;"/><path id="uuid-da859172-d434-46ff-96d8-805975031ca1" d="M23,126.3c10.8,6.4,7.4-.7,7.2-1.7-.2-1-.3-8.8-7.2,1.7Z" style="fill:red;"/><path id="uuid-94e0490f-23ac-4ef6-bc15-84076654719d" d="M22.3,127.9c-2.7,12.2,2.9,6.9,3.8,6.3.9-.5,8.3-3-3.8-6.3Z" style="fill:red;"/><path id="uuid-73c5ca29-29a5-4ba1-943c-c2b58de97661" d="M20.6,127.7c-12.5,1.2-5.7,4.9-4.9,5.6.8.7,5.4,6.9,4.9-5.6Z" style="fill:red;"/><path id="uuid-9594dbad-d76f-4bec-b8a9-7dcf312d2d54" d="M20.2,126c-5-11.5-6.4-3.8-6.8-2.9-.5,1-5,7.3,6.8,2.9Z" style="fill:red;"/><path id="uuid-ad804439-204f-4a80-9acf-83af1795769e" d="M198.4,123l-.2-.3-.1-.4c-.4-1.2-1.1-3.6-3.1-3.7-.47,0-.97.17-1.5.5.07-.6-.03-1.13-.3-1.6-1-1.6-3.4-1.2-4.7-.9h-.8c-1.3,0-3.8,0-4.4,1.8-.2.47-.23,1-.1,1.6-.53-.27-1.07-.33-1.6-.2-1.8.4-2.2,2.9-2.3,4.2l-.1.4-.1.3c-.4,1.3-1.2,3.6.3,4.8.4.33.9.53,1.5.6-.4.4-.63.87-.7,1.4-.1,1.9,2.1,3,3.3,3.5l.3.2.3.2c1.1.8,3.1,2.3,4.7,1.2.4-.27.7-.67.9-1.2.33.47.73.8,1.2,1,1.8.8,3.5-1,4.4-1.9l.3-.3.3-.3c1-.7,3-2.1,2.5-4-.13-.47-.4-.9-.8-1.3.53-.13.97-.4,1.3-.8,1.3-1.5.1-3.6-.5-4.8h0Z" style="fill:#fff;"/><path id="uuid-17d66af6-e16c-4afa-9ab0-7e9f1a8c3892" d="M188.8,125.1c-9.3-8.2-1.7-7.3-.6-7.4,1.1,0,8.5-2.4.6,7.4Z" style="fill:red;"/><path id="uuid-fae74f8f-ec11-45f4-9515-5abbab3cf1a6" d="M187.5,126.3c-10.7,6.4-7.4-.7-7.2-1.7s.3-8.8,7.2,1.7Z" style="fill:red;"/><path id="uuid-549e777f-dee1-4d30-996d-2a3d0877f8ef" d="M188.2,127.9c2.7,12.2-2.9,6.9-3.8,6.3-.9-.5-8.3-3,3.8-6.3Z" style="fill:red;"/><path id="uuid-fa7deef5-405a-4be9-ab30-39538d23751e" d="M189.9,127.7c12.5,1.2,5.7,4.9,4.9,5.6-.8.7-5.4,6.9-4.9-5.6Z" style="fill:red;"/><path id="uuid-4ee155c9-06ba-45f9-bd16-b698caf1465b" d="M190.3,126c5-11.5,6.5-3.8,6.9-2.9.4,1,4.9,7.3-6.9,2.9Z" style="fill:red;"/><path id="uuid-f4564bc9-e5a9-45ec-b8d5-5efdb04292c6" d="M192.8,126.4c-.07-.13-.1-.23-.1-.3,1-.7,2.1-1.5,2.1-1.5l-.1-.3s-1.3.3-2.5.5c-.6-1-1.6-1.7-2.8-1.8-.4-1.1-.8-2.3-.8-2.3h-.2s-.2,1.2-.4,2.4c-.7.2-1.4.6-1.9,1.2-.2.33-.4.7-.6,1.1h-2.5v.2s1.2.6,2.3,1.1v.3c.1,1,.5,1.9,1.3,2.5-.4,1.3-.9,2.6-.9,2.6l.3.2s1-1.1,1.9-2c.47.13.93.2,1.4.2.53-.07,1.03-.23,1.5-.5,1,.8,2.2,1.6,2.2,1.6l.2-.1s-.7-1.3-1.3-2.4c.7-.8.9-1.7.9-2.7h0Z" style="fill:#fff;"/><path id="uuid-b50fe85c-602f-4d77-b517-13253e303cf1" d="M188.8,124.5c-.6.1-1.1.3-1.5.8-.4.4-.5,1-.5,1.6.1,1.2,1.2,2.1,2.4,2,.6,0,1.1-.3,1.5-.8.4-.4.6-1,.5-1.6-.1-1.2-1.2-2.1-2.4-2Z" style="fill:red;"/><path id="uuid-bca9e728-d423-4bfd-96b3-23fe0ad2f3d7" d="M21.7,125.1c9.4-8.2,1.7-7.3.6-7.4-1,0-8.4-2.4-.6,7.4Z" style="fill:red;"/><path id="uuid-eb19b780-80c0-4f00-9daa-93c875df6812" d="M25.2,126.7c1.1-.5,2.3-1.1,2.3-1.1v-.2h-2.5c-.13-.4-.33-.77-.6-1.1-.5-.6-1.2-1-1.9-1.2-.2-1.2-.3-2.4-.3-2.4h-.3s-.4,1.2-.8,2.3c-1.1.1-2.2.8-2.8,1.8-1.2-.2-2.5-.5-2.5-.5l-.1.3s1.1.8,2.1,1.5v.3c-.1,1,.2,1.9.8,2.7-.6,1.1-1.3,2.4-1.3,2.4l.2.1s1.2-.8,2.2-1.6c.47.27.97.43,1.5.5.47,0,.97-.07,1.5-.2.9.9,1.9,2,1.9,2l.2-.2s-.5-1.3-.8-2.6c.7-.6,1.1-1.5,1.2-2.5v-.3h0Z" style="fill:#fff;"/><path id="uuid-368d63c4-e4ac-4827-af2a-fc1c088533cc" d="M23.2,125.3c-.4-.5-.9-.7-1.5-.8-1.2-.1-2.3.8-2.4,2-.1.6.1,1.2.5,1.6.4.5.9.8,1.5.8,1.2.1,2.3-.8,2.4-2,.1-.6-.1-1.1-.5-1.6Z" style="fill:red;"/><path id="uuid-265cd0b3-c23c-47ca-91a6-407be36d8cdf" d="M23,73c-5.2-.9-10.2,2.6-11.2,7.9-.9,5.2,2.6,10.2,7.9,11.2,5.2.9,10.3-2.6,11.2-7.9.9-5.2-2.6-10.3-7.9-11.2Z" style="fill:#fff;"/><path id="uuid-8d629de3-07b3-4266-b18e-12b51448b921" d="M25.2,80.3c-.07-.07-.2-.13-.4-.2-.8-.6-2.3-1.6-2.4-1.6-.2-.2-.4-.37-.6-.5-.67-.47-1.3-.87-1.9-1.2-.2-.13-.43-.23-.7-.3-.9-.5-1.8-.8-2.8-.9-.8.6-1.5,1.33-2.1,2.2,2.4.9,4.8,2.2,9.7,5.3.2-.7,1.2-2.7,1.2-2.8Z" style="fill:red;"/><path id="uuid-ee55b4f7-0799-46b1-85f4-c4b2e804567d" d="M23,85.5c.1-.2.5-1.3.7-1.7-5-3.2-7.4-4.5-9.8-5.4-.33.67-.6,1.4-.8,2.2,1.4,1.9,5.1,3.7,9.9,4.9Z" style="fill:red;"/><path id="uuid-f78baf74-025c-4444-b9c5-857e86d05d8f" d="M22.4,77.6c1.9-1.1,4-.8,5.7-.2-.6-.87-1.33-1.57-2.2-2.1-1.6-.3-3.7-.3-5.4,1,.6.4,1.23.83,1.9,1.3Z" style="fill:red;"/><path id="uuid-2e3be3f6-24e5-425b-932e-0412825b8833" d="M14.9,86.6c.27.13.53.3.8.5.6.27,1.2.53,1.8.8l.8.2c.9.3,3.1.9,3.3.9,0,0,.8-2,1.1-2.8-3.7-.9-7.8-2.6-9.8-4.7-.07,1,0,1.97.2,2.9.4.9,1,1.6,1.8,2.2Z" style="fill:red;"/><path id="uuid-d366a256-d29a-4619-9001-e6cf0b7785c4" d="M21.7,89.8l-.8-.2c-.73-.2-1.5-.4-2.3-.6.4.8,1,1.5,1.7,2,.87.07,1.7.03,2.5-.1-.6-.5-1.1-1.1-1.1-1.1Z" style="fill:red;"/><path id="uuid-f060a0e0-08ed-4692-938c-720c08d3cc6d" d="M29.5,80.1c-.2-.6-.43-1.17-.7-1.7-1.5-.7-3.7-1.3-5.7-.3l2.7,1.7h2.3c.53.07,1,.17,1.4.3Z" style="fill:red;"/><path id="uuid-0d9801d2-ba27-41b6-bde2-043716f613af" d="M28.1,80.6c-.1,4.4-2.2,7.8-4,10,2.9-1,5.1-3.4,5.6-6.6.2-1.1.2-2.1,0-3.1-.47-.13-1-.23-1.6-.3Z" style="fill:red;"/><path id="uuid-18b4baf7-7324-41b3-b391-17a4340d6b24" d="M19.8,76c1.3-1.2,2.7-1.5,4.1-1.6-.33-.07-.7-.13-1.1-.2-1.9-.4-3.8,0-5.5.9.9.1,1.7.4,2.5.9Z" style="fill:red;"/><path id="uuid-cd80c696-9256-46a4-9a23-a86922e4c045" d="M25.9,80.6c-.6,1.3-1,2.1-1.3,2.9-.13.2-.23.4-.3.6-.1.4-.6,1.6-.6,1.6l-.3.7-1.2,2.9c.4.5.8.8,1.1,1.1,1.8-2,4-5.4,4.1-9.9-.47,0-.97.03-1.5.1Z" style="fill:red;"/><path id="uuid-0ce7ab05-f731-4c1f-acae-e6ed44b764bd" d="M17.7,88.7c-.6-.2-1.17-.43-1.7-.7.2.6.5,1.2.8,1.7.6.4,1.3.73,2.1,1-.5-.6-1-1.2-1.2-2Z" style="fill:red;"/><path id="uuid-a2820a3c-b0ba-4d11-9208-fe62a0869f65" d="M15.1,87.5c-.4-.27-.8-.53-1.2-.8.4.73.9,1.37,1.5,1.9-.13-.33-.23-.7-.3-1.1Z" style="fill:red;"/><path id="uuid-67fba624-4110-4421-bf48-e7f3298a8484" d="M178.6,84.2c.9,5.3,5.9,8.8,11.2,7.9,5.2-1,8.8-6,7.8-11.2-.9-5.3-5.9-8.8-11.2-7.9-5.2.9-8.8,6-7.8,11.2Z" style="fill:#fff;"/><path id="uuid-c319ccb9-56e0-4100-a1b3-05f13dfcd0d7" d="M184.2,80.3c.13-.07.3-.13.5-.2.7-.6,2.3-1.6,2.3-1.6.27-.2.5-.37.7-.5.67-.47,1.3-.87,1.9-1.2.2-.13.4-.23.6-.3.9-.5,1.8-.8,2.9-.9.8.6,1.5,1.33,2.1,2.2-2.5.9-4.8,2.2-9.7,5.3-.3-.7-1.2-2.7-1.3-2.8Z" style="fill:red;"/><path id="uuid-a40ecadc-8379-4289-911e-d65b7082a6aa" d="M186.5,85.5c-.1-.2-.5-1.3-.7-1.7,5-3.2,7.3-4.5,9.7-5.4.4.67.7,1.4.9,2.2-1.4,1.9-5.1,3.7-9.9,4.9Z" style="fill:red;"/><path id="uuid-02b70d7e-dc72-4c7b-b452-31bca14d84a7" d="M187,77.6c-1.8-1.1-4-.8-5.6-.2.6-.87,1.33-1.57,2.2-2.1,1.6-.3,3.7-.3,5.4,1-.6.4-1.27.83-2,1.3h0Z" style="fill:red;"/><path id="uuid-0982e363-1fef-4132-a8bb-b3b846ac095f" d="M194.5,86.6c-.2.13-.47.3-.8.5-.53.27-1.1.53-1.7.8-.27.07-.53.13-.8.2-1,.3-3.1.9-3.3.9,0,0-.8-2-1.1-2.8,3.7-.9,7.8-2.6,9.7-4.7.13,1,.1,1.97-.1,2.9-.4.9-1.1,1.6-1.9,2.2h0Z" style="fill:red;"/><path id="uuid-d33011d8-c8d7-419b-b337-ea6833885067" d="M187.8,89.8l.8-.2c.73-.2,1.5-.4,2.3-.6-.4.8-1,1.5-1.7,2-.87.07-1.7.03-2.5-.1.6-.5,1.1-1.1,1.1-1.1h0Z" style="fill:red;"/><path id="uuid-a9dd1a45-cddf-4802-9b9d-2ddcd6f747e4" d="M180,80.1c.13-.6.37-1.17.7-1.7,1.5-.7,3.7-1.3,5.7-.3l-2.7,1.7h-2.3c-.53.07-1,.17-1.4.3Z" style="fill:red;"/><path id="uuid-502bac66-8375-47d4-a0cb-ac1bd0c51bfb" d="M181.4,80.6c0,4.4,2.1,7.8,3.9,10-2.8-1-5-3.4-5.6-6.6-.13-1.07-.1-2.1.1-3.1.4-.13.93-.23,1.6-.3Z" style="fill:red;"/><path id="uuid-3fd4b35c-dc75-4272-88b6-334b75b593a6" d="M189.7,76c-1.3-1.2-2.8-1.5-4.1-1.6.33-.07.67-.13,1-.2,2-.4,3.9,0,5.5.9-.8.1-1.6.4-2.4.9Z" style="fill:red;"/><path id="uuid-f6561b58-644d-4482-a8df-43a54d018907" d="M183.5,80.6c.7,1.3,1.1,2.1,1.4,2.9.07.2.17.4.3.6.1.4.6,1.6.6,1.6l.3.7,1.2,2.9c-.4.5-.8.8-1.2,1.1-1.7-2-4-5.4-4-9.9.47,0,.93.03,1.4.1Z" style="fill:red;"/><path id="uuid-938ac13d-d688-46eb-9b26-ab6dd9b9c77b" d="M191.8,88.7c.6-.2,1.17-.43,1.7-.7-.2.6-.5,1.2-.8,1.7-.67.4-1.37.73-2.1,1,.5-.6.9-1.2,1.2-2h0Z" style="fill:red;"/><path id="uuid-1cf60e2b-4ad1-4c50-8c61-85dccfe3edda" d="M194.4,87.5c.4-.27.77-.53,1.1-.8-.4.73-.87,1.37-1.4,1.9.13-.33.23-.7.3-1.1h0Z" style="fill:red;"/></svg>