<svg id="Layer_1" data-name="Layer 1" xmlns="http://www.w3.org/2000/svg" viewBox="0 0 133.13 165.48"><title>Crystal Palace FC logo - Brandlogos.net</title><path d="M283.64,361.9s-18.52-9.29-27.54-23.54c0,12.24-.56,27.51-.56,27.51l28.35,5.57Z" transform="translate(-241.38 -230.86)" style="fill:#fff"/><path d="M332.58,362.16s18.52-8.56,27.54-22.8c0,12.24.56,26.53.56,26.53l-28.35,5.57Z" transform="translate(-241.38 -230.86)" style="fill:#fff"/><rect x="42.13" y="126.68" width="49.27" height="22.48" style="fill:#fff"/><path d="M322.8,359.2a14.62,14.62,0,1,1-14.62-14.43A14.53,14.53,0,0,1,322.8,359.2" transform="translate(-241.38 -230.86)" style="fill:#fff"/><path d="M249.29,366.74V345.65l-1.26-.47v-2.85l1.26-.56v-2l-1.26-.47v-3.4l4.14-3.92v-.93a1.1,1.1,0,0,1,1.2-.82h1.22s1,.14,1,.82v.87l4.24,4,0,3.4-1.26.45v2l1.29.55v22.41Z" transform="translate(-241.38 -230.86)" style="fill:#fff"/><path d="M367.42,366.74V345.65l1.26-.47v-2.85l-1.26-.56v-2l1.26-.47v-3.4L364.54,332v-.93a1.1,1.1,0,0,0-1.2-.82h-1.22s-1,.14-1,.82v.87l-4.24,4,0,3.4,1.26.45v2l-1.29.55v22.41Z" transform="translate(-241.38 -230.86)" style="fill:#fff"/><path d="M306.91,396.35c-10.24,0-16.79-3.51-23.69-7.21a75.6,75.6,0,0,0-11.87-5.48c-12.55-4.22-20.82,1-21.17,1.17l-1.67-2.58c.39-.26,9.79-6.22,23.82-1.51a77.92,77.92,0,0,1,12.34,5.68c7.12,3.82,13.84,7.43,24.9,6.76,10.35-.62,17.46-4.14,24.33-7.54,2.93-1.45,5.7-2.82,8.64-3.92l.67-.26c3.68-1.45,14.88-5.87,24.55,1.49l-1.86,2.45c-8.29-6.32-17.93-2.51-21.56-1.08l-.72.28c-2.79,1-5.5,2.39-8.36,3.8-6.82,3.37-14.54,7.19-25.51,7.85q-1.47.09-2.85.09" transform="translate(-241.38 -230.86)" style="fill:#fff"/><path d="M361.77,390.79l-2.18-1.4a5.24,5.24,0,0,0-3.07-.3l-.71.14c-1.09.24-2.45.54-3.5-.31a2.73,2.73,0,0,1-1-2.26,2.91,2.91,0,0,1,1.14-2.35c2.4-1.87,8.3-.56,10-.12a4.48,4.48,0,0,0,2.7.08,29.29,29.29,0,0,1,4.81-13.67c-10.9-6.59-27.59-3-33.84,1-9.32,6-17.09,9.65-27,9.69-8.46,0-15.64-3.47-23.21-7.18a110.09,110.09,0,0,0-13.45-5.84c-10.13-3.4-21.66.43-26,2.18a23.69,23.69,0,0,1,4.38,12.93c.24.29,1.52.37,2.66.11,1.8-.37,7.75-1.39,10.06.59a2.91,2.91,0,0,1,1,2.4,2.74,2.74,0,0,1-1.06,2.21c-1.09.79-2.44.43-3.52.14-.24-.07-.48-.13-.7-.18a5.22,5.22,0,0,0-3.08.15L254,390.08l-.09-3.56c-.88.17-3.38.52-4.93-.66a3,3,0,0,1-1.21-2.36,19.72,19.72,0,0,0-4.87-12.56l-1.56-1.52,2-1c.65-.32,16.24-7.79,30.17-3.11a112.64,112.64,0,0,1,13.82,6c7.21,3.53,14,6.87,21.75,6.87h.1c9.19,0,16.52-3.55,25.38-9.21,7.33-4.67,26.48-8.68,38.58,0l1.37,1-1.1,1.27a25.64,25.64,0,0,0-5.12,13.28,3,3,0,0,1-1.32,2.3c-1.58,1.09-4,.65-5,.43Z" transform="translate(-241.38 -230.86)" style="fill:#fff"/><path d="M263.42,384.07a16.72,16.72,0,0,1-2.17-2.66c-1.26-2.23-11.11,2.17-11.11,2.17l2.69.58" transform="translate(-241.38 -230.86)" style="fill:#fff"/><path d="M352.13,384.66a16.61,16.61,0,0,0,2.23-2.61c1.32-2.2,11.05,2.44,11.05,2.44l-2.7.51" transform="translate(-241.38 -230.86)" style="fill:#fff"/><path d="M249,384.16s-.21-6.06-1.57-8.74a23.89,23.89,0,0,1-1.9-5.39s8.26-4.16,13.64-4.26,18.77,2.23,22.94,4.53,15.42,8.47,21.25,9.73,15.47-.24,21.49-2.72,10.06-6.75,12.5-7.84,10.32-3.93,15.62-4.41,11.68,1.69,15.27,2.37,3.07,2,3.07,2L367,383.23s-6.91-2.35-11.55-2.49-12.52,3.35-15,4.26-13.18,5.39-16.64,6.75-15.14,4.48-21.8,3-19.59-8.06-23-9.73-15.61-5.71-17.24-4.94-12.83,4.1-12.83,4.1" transform="translate(-241.38 -230.86)" style="fill:#fff"/><path d="M364.32,252.86c-.24-.75-1.52-1.33-6.68-1.33-2,0-3.88.08-3.9.08a.91.91,0,0,0-.24,0,27.62,27.62,0,0,0-9,2.17c3.65-4.4,9.34-7.16,12.78-8.52a2.45,2.45,0,0,0,.79-.47c.17-.26.45-.5.21-.93-.4-.73-2-.92-3-.92a34.13,34.13,0,0,0-4.71.45,27,27,0,0,0-2.78.46l-.12,0a27.22,27.22,0,0,0-10.84,5.13c-.44.35-.86.71-1.27,1.08l2.52-4.29a48.37,48.37,0,0,1,4.4-6.12.94.94,0,0,0,.21-.43c.06-.31.42-.8.21-1a1.16,1.16,0,0,0-.93-.41c-.46,0-2,.15-7.74,4.54a48.56,48.56,0,0,0-13.49,14.26c-1.37,2.45-3.75,7-4.55,10.18,0-.32-.09-.64-.13-1-.14-1.28-.22-2.61-.24-4.19,0-1.89.06-3.58.14-4.66,0-.45-.05-1.53-.5-1.64s-1.12.78-1.3,1.19a43.2,43.2,0,0,0-3.72,15.06l-1,9.44c-.12.65-.61,3.8-.61,3.8a28.81,28.81,0,0,1-1.93-3.85,1,1,0,0,0-.07-.14l-.89-1.42-.08-.11a15.42,15.42,0,0,0-4.29-3.38,33.32,33.32,0,0,1-9.06-7.74,32.39,32.39,0,0,1-5.72-11.53,52.15,52.15,0,0,1,.4-23.53,2.7,2.7,0,0,0,.07-1.78,1,1,0,0,0-.81-.41c-.6,0-1.15.53-4.92,6.53l0,0a37.23,37.23,0,0,0-5.06,13.06q-.27,1.51-.41,3a49.88,49.88,0,0,1-2.17-6.73,43.42,43.42,0,0,1-1.15-14.46c0-.28.09-1-.11-1.24a1.06,1.06,0,0,0-.74-.29c-.83,0-2.11,1.07-4.77,8.18a40.68,40.68,0,0,0-2.55,19.74c-2.87-3.74-4.17-9-5.33-13.74-.29-1.18-.57-2.33-.87-3.43-.15-.55-.55-1.89-1.05-1.64l-.1.06h0l-.05,0-.07.06c-.1.1-.47,1.27-.53,1.39a3.9,3.9,0,0,0-.33,1.39.71.71,0,0,0,0,.09c0,.22,0,.44,0,.66s0,.49,0,.73a42.85,42.85,0,0,0,4.11,22.36l.11.25.19.44c.51,1.08,1.09,2.08,1.65,3l.54.94a13.71,13.71,0,0,0,1.81,2.51c-2.66-.54-6.6-1.33-8.5-1.61a1,1,0,0,0-1,.6.94.94,0,0,0,.36,1.12,77.64,77.64,0,0,1,7.51,6.47h0l5.39,5,.49.46c1.76,1.65,3.58,3.36,5.33,4.95l-3.69-.37a.94.94,0,0,0-.68,1.66l8.6,7h0l3.76,3,.08.08,6.45,5.19a1,1,0,0,0,.56.21l1.65,0a13.93,13.93,0,0,1-10.46.25,26.09,26.09,0,0,1-8-4.36c-.33-.27-1.19-.77-1.53-.51s-.09,1.2.07,1.6a16,16,0,0,0,3.44,4.79,44.49,44.49,0,0,1-13.12-3.93c-.38-.17-1.08-.62-1.35-.31s-.05,1.32.17,1.67a47,47,0,0,0,5.43,7.2,31.5,31.5,0,0,0,5.19,4.36c.22.13.8.48,3.57.48,1,0,2.21-.05,3.18-.15l.36,0a16.57,16.57,0,0,1-7.5,1.07c-.47-.07-1.56,0-1.67.44s.78,1.21,1.23,1.37a47.05,47.05,0,0,0,9.6,2.39,40.64,40.64,0,0,0,7,1.31,5.31,5.31,0,0,0,.6,0l.76.07c1.2.11,2.33.22,3.53.22a19.24,19.24,0,0,0,3-.23.93.93,0,0,0,.1.35l.54,1.06a.94.94,0,0,0-.67,1.37l1.17,2.18a.9.9,0,0,0,.1.14l.09.1-.15.08a.94.94,0,0,0-.37,1,6,6,0,0,0,2.64,3.91,2.32,2.32,0,0,1,1.13,1.35c.12.44.33.94.54,1.46.45,1.11,1.12,2.79.7,3.46a4.37,4.37,0,0,1-1.59,1.58,12.22,12.22,0,0,0-1.51,1.15c-1.46,1.31-1.56,3.06-.3,5.19l.07.13a1,1,0,0,0,1,.46.94.94,0,0,0,.77-.74c.29-1.5,2.76-2.69,3.24-2.72a3.26,3.26,0,0,0,2.21-.66c.9-.9,5.77-1,5.77-1a9.8,9.8,0,0,1,1.47.2,5.55,5.55,0,0,1,.51.27.83.83,0,0,0,.51.14,10.52,10.52,0,0,1,1.88.81,36.82,36.82,0,0,0,3.33,2,30,30,0,0,0,2,2.24c.37.55.52.4.52-.16a5.78,5.78,0,0,0,2.35-3.47,5,5,0,0,0-.62-4,.94.94,0,0,0-.15-.18c-.16-.15-.59-.48-1.09-.88-.68-.53-1.82-1.43-2-1.69a7.3,7.3,0,0,1-1.36-2.62.94.94,0,0,0,.86-1.14l-.12-.54c-.19-.82-.41-1.76-.59-2.78v-.05h.13a.94.94,0,0,0,.94-.94.93.93,0,0,0-.13-.48l-1-2.8.2.22c.25.27.88.73,1.23.6s.36-.8.39-1.17A7.35,7.35,0,0,1,322,324a3.67,3.67,0,0,0,.2.47c.16.31.18,1,.53,1h0c.36,0,.63-.5,1.13-1a4.8,4.8,0,0,1,1.87-1.45l3.23,1.3a4.65,4.65,0,0,0,1.3,2.09,23.68,23.68,0,0,0,2.26,1.54l.36.23-.33.14c-.37.13-1.43.48-1.43.88s1.05.74,1.42.88a6.58,6.58,0,0,0,2.28.41,5,5,0,0,0,3.83-1.56,3.57,3.57,0,0,0,.77-3c-.14-.85-.48-3-.59-3.63l.87-2.86a.9.9,0,0,0,0-.28,11,11,0,0,0-1.15-4.51l0-.11a.94.94,0,0,0-.16-.3l-.12-.23a10.5,10.5,0,0,0-.77-1.38,38.11,38.11,0,0,0-5.76-7.07c-.28-.26-.83-.72-1.18-.56s-.42.92-.4,1.3v.2a13,13,0,0,0-1.28-1.72,6.12,6.12,0,0,1-.84-1.72,47.72,47.72,0,0,1,11.39-21.54.94.94,0,0,0,.27-.57c1.85-18.43,22.89-26.54,23.11-26.62s.63-.2.69-.25c.73-.54.85-1,.79-1.15M316.5,333.15l.08,0-.41.07Z" transform="translate(-241.38 -230.86)" style="fill:#fff"/><path d="M305.55,385h-.3l-.07,2.19h.27c.8,0,1.25-.31,1.28-1.08s-.38-1.08-1.18-1.1" transform="translate(-241.38 -230.86)" style="fill:#004289"/><polygon points="70.8 157.02 72.28 156.82 71.21 154.36 70.8 157.02" style="fill:#004289"/><polygon points="48.84 153.13 49.35 150.5 47.5 152.46 48.84 153.13" style="fill:#004289"/><path d="M263.5,370.73l-.48,0-.13,2.18.5,0a1.05,1.05,0,0,0,1.27-1.05c0-.68-.37-1.09-1.15-1.13" transform="translate(-241.38 -230.86)" style="fill:#004289"/><polygon points="85.25 152.91 86.61 152.3 84.89 150.25 85.25 152.91" style="fill:#004289"/><path d="M335.39,370.3c-9.24,5.9-16.75,9.41-26.2,9.45-12.78.05-22.68-8.42-36.17-12.95s-29,3-29,3a21.21,21.21,0,0,1,5.33,13.59s9-5.87,22.49-1.34,20.47,13.57,37.83,12.52c15.11-.91,23.71-7.91,33.42-11.56,3-1.13,14.12-6.3,23.72,1a26.86,26.86,0,0,1,5.45-13.82c-11.49-8.22-30.08-4.25-36.86.08M257,377.53c-2.45.47-4.21-.82-4.7-3.38a3.9,3.9,0,0,1,3.24-4.91,4.47,4.47,0,0,1,2.13.06l.07,2.14a2.52,2.52,0,0,0-1.67-.3c-1.1.21-1.67,1.17-1.4,2.54s1.2,2,2.31,1.83a3.28,3.28,0,0,0,1.53-.83l.67,1.87a4.89,4.89,0,0,1-2.18,1m7.53-.25-1.34-2.7-.37,0-.15,2.53-2.4-.14.49-8.14,3.12.19c2.1.13,3.25,1.13,3.14,2.88a2.47,2.47,0,0,1-1.56,2.26l1.64,2.92Zm6.59,1.26-2.34-.63.75-2.76-1.37-5.61,2.57.37.66,3.43,2.25-2.55,2.43.66-4.19,4.3Zm7.36-2.71c1.46,1.3,1.91,2.19,1.39,3.42-.76,1.77-2.34,1.89-3.86,1.24a7.55,7.55,0,0,1-2.59-1.82l1.1-1.67a6.73,6.73,0,0,0,2.24,1.81c.43.18.78.15.92-.17s0-.55-.85-1.34c-1.3-1.2-1.78-2-1.22-3.31.66-1.54,2.2-1.8,3.67-1.16a5.73,5.73,0,0,1,2.26,1.6l-1.1,1.66a5.19,5.19,0,0,0-1.84-1.55c-.44-.19-.73-.13-.84.13s0,.52.71,1.17m2.5,6.93,2.85-5.45-1.94-1,.93-1.78,5.81,3-.64,1.93-2-1.06-2.85,5.44Zm11,5.4-2.36-.76.23-1.51-2.29-1.15-1,1-2.09-1.05,6.19-6.05,2.42,1.22Zm6.09,2.33-4.81-1.55,2.51-7.76,2.31.74-1.87,5.8,2.19.71Zm7.43-1.55h-.38l-.08,2.45-2.41-.08.27-8.15,2.82.1c2.1.07,3.36,1,3.3,2.9s-1.47,2.87-3.52,2.8m9.59,1.86-.67-1.38-2.54.35-.21,1.41-2.32.32,1.68-8.5,2.68-.37,3.75,7.46Zm4.06-.94-2.41-7.79,2.31-.72,1.8,5.83,2.2-.68.92,1.87Zm11.1-4.12-1-1.13-2.34,1.05.2,1.42L325,388l-.81-8.62,2.47-1.11,5.71,6.08Zm6.18-3c-2.24,1.09-4.28.31-5.42-2a3.9,3.9,0,0,1,1.84-5.59,4.47,4.47,0,0,1,2.07-.5l.63,2a2.51,2.51,0,0,0-1.69.15c-1,.49-1.3,1.57-.69,2.82a2,2,0,0,0,2.71,1.17,3.27,3.27,0,0,0,1.26-1.2l1.14,1.63a4.89,4.89,0,0,1-1.85,1.5m2.9-1.56-3.08-7.55,5-2,.72,1.76-2.79,1.14.44,1.08,2.11-.86,1,1.63-2.39,1,.49,1.2,2.89-1.18.72,1.76Zm10.48-3.67-2.35.49-1.67-8,5-1.06.41,1.94-2.7.57.27,1.28,1.94-.41.73,1.86-2.27.47Zm3.39-.52a1.15,1.15,0,1,1,1.05-1.24,1.15,1.15,0,0,1-1.05,1.24m7.6-5.35a2.52,2.52,0,0,0-1.51-.77c-1.12-.12-1.93.63-2.08,2a2,2,0,0,0,1.68,2.43,3.26,3.26,0,0,0,1.7-.35l.1,2a4.91,4.91,0,0,1-2.36.29c-2.48-.27-3.79-2-3.51-4.6a3.9,3.9,0,0,1,4.53-3.76,4.47,4.47,0,0,1,2,.68Zm1.8,6.49a1.15,1.15,0,1,1,1.05-1.24,1.15,1.15,0,0,1-1.05,1.24" transform="translate(-241.38 -230.86)" style="fill:#004289"/><path d="M361,389.22l-.9-.58a6,6,0,0,0-3.7-.44l-.76.15c-1,.22-2,.45-2.75-.13a1.89,1.89,0,0,1-.62-1.56A2,2,0,0,1,353,385c2.18-1.7,8.56-.14,9.28,0s2.58.53,3.42-.05a.9.9,0,0,0,.39-.72,27.92,27.92,0,0,1,5.2-13.95c-11.07-7.38-28.69-3.73-35.61.48-7.88,4.8-16.43,9.5-26.53,9.54h-.11c-8.22,0-15.25-3.45-22.7-7.09a110.91,110.91,0,0,0-13.55-5.89c-11.4-3.83-24.47,1.23-27.75,2.65A22.36,22.36,0,0,1,250,383.4a.91.91,0,0,0,.35.73c.82.62,2.78.36,3.4.21s7.18-1.4,9.28.4a2,2,0,0,1,.72,1.67,1.89,1.89,0,0,1-.69,1.52c-.75.54-1.77.27-2.76,0-.26-.07-.51-.14-.75-.19a6,6,0,0,0-3.72.26l-.93.54-.07-3.11-.81.15c-.29.07-3,.65-4.44-.45a2.17,2.17,0,0,1-.85-1.69,20.69,20.69,0,0,0-5.14-13.16l-.64-.63.81-.39c.64-.31,15.91-7.62,29.49-3.06a111.65,111.65,0,0,1,13.71,6c7.31,3.58,14.22,7,22.14,7h.11c8.82,0,16.44-3.61,25.87-9.35,7.29-4.44,26.08-8.26,37.57-.05l.57.41-.46.53a26.5,26.5,0,0,0-5.33,13.78,2.18,2.18,0,0,1-.93,1.65c-1.48,1-4.17.32-4.47.23l-.79-.18Zm-4.65-3.7a4.42,4.42,0,0,0-2.5.52.74.74,0,0,0-.3.63.8.8,0,0,0,.14.57c.24.2,1.07,0,1.68-.12.28-.06.57-.12.84-.17a8.38,8.38,0,0,1,3.67.2l.09-1.27a22.38,22.38,0,0,0-3.62-.35m-98.42.8a9.42,9.42,0,0,1,1.89.19c.26.06.54.13.82.21.6.16,1.42.39,1.68.2a.79.79,0,0,0,.17-.55.74.74,0,0,0-.27-.65c-.93-.8-3.72-.75-6.11-.46l0,1.28a6.91,6.91,0,0,1,1.79-.22" transform="translate(-241.38 -230.86)" style="fill:#d71f16"/><path d="M306.93,395.44c-10,0-16.49-3.46-23.28-7.1a76.44,76.44,0,0,0-12-5.53c-13-4.37-21.86,1.21-21.94,1.27L249,383c.38-.25,9.42-6,23-1.41a77.26,77.26,0,0,1,12.2,5.62c7.24,3.88,14.07,7.55,25.38,6.87,10.52-.63,17.72-4.19,24.67-7.63a93.91,93.91,0,0,1,8.55-3.89l.69-.27c3.94-1.56,14.41-5.69,23.67,1.37l-.77,1c-8.7-6.62-18.68-2.68-22.44-1.2l-.7.27c-2.83,1.07-5.56,2.41-8.44,3.84-6.74,3.33-14.38,7.11-25.16,7.76q-1.43.09-2.78.08" transform="translate(-241.38 -230.86)" style="fill:#d71f16"/><path d="M262.41,385.91a16.45,16.45,0,0,1-4.28-5l1.15-.55a15.54,15.54,0,0,0,3.94,4.59Z" transform="translate(-241.38 -230.86)" style="fill:#d71f16"/><path d="M353.66,386.18l-.75-1c3.28-2.39,3.67-4.93,3.68-5l1.26.18c0,.13-.47,3.11-4.19,5.81" transform="translate(-241.38 -230.86)" style="fill:#d71f16"/><path d="M315.69,269.38c-.2-.94-.4-2.11-.56-3.42a34.12,34.12,0,0,0,.56,3.42" transform="translate(-241.38 -230.86)" style="fill:#004289"/><path d="M324.88,303.91h0" transform="translate(-241.38 -230.86)" style="fill:#004289"/><path d="M337.72,314.93l-.05-.16,0,.11-.26-.54a9.77,9.77,0,0,0-.72-1.28,37.57,37.57,0,0,0-5.6-6.87l.05.91h0l.1,1.43s-10.7-6.21-15.26-11.94c-3.54-4.44-7.61-9.29-10-15.23l-.89-1.42c-3.08-3.67-6.3-3-13.33-11.12a33.54,33.54,0,0,1-5.92-11.93,53,53,0,0,1,.43-24s.89-2.6-4,5.14h0a36.25,36.25,0,0,0-5,12.78,32.76,32.76,0,0,0-.53,6.9,50.63,50.63,0,0,1-3.88-10.58,44.09,44.09,0,0,1-1.18-14.78s-.86-.84-3.81,7.07a39.67,39.67,0,0,0-2.07,22.21c-5.44-4.61-6.66-13-8.47-19.72h0a.35.35,0,0,0-.07.1,3.09,3.09,0,0,0-.22,1c0,.48-.06,1-.06,1.44a42,42,0,0,0,4,21.93c.1.22.19.45.29.67.66,1.4,1.45,2.66,2.16,3.91,1.18,2.08,2.1,2.59,3.42,4.42-.14,0-8.14-1.7-11.07-2.14a90.13,90.13,0,0,1,8.7,7.56s11,.89,19.7,7.3a49.92,49.92,0,0,0-16.51-4.3l1.59,1.5c2.57,2.42,5.15,4.82,7.44,6.85h0l-6.51-.65,9.36,7.57,1.68.06a27.86,27.86,0,0,1,6.26.59,18.34,18.34,0,0,1,5.08,1.83,21,21,0,0,0-6.8-.6,30.39,30.39,0,0,0-3.16.59l.55.44,5.91,4.75,5.26.14c-4.44,2.76-8.8,3.85-14.39,2a27.08,27.08,0,0,1-8.29-4.52c1,2.43,3.28,4.51,5.07,6.35a44.59,44.59,0,0,1-16-4.28,46.14,46.14,0,0,0,5.32,7.07,30.77,30.77,0,0,0,5,4.21c.71.43,4,.41,6.18.2.41,0,.78-.08,1.09-.14.5-.08,1.12-.22,1.79-.37,2.24-.51,4.93-1.27,4.78-1.17a35.51,35.51,0,0,1-3.15,1.82c-.66.34-1.34.66-2,1a19.16,19.16,0,0,1-9.65,1.78,44.8,44.8,0,0,0,10.8,2.5,4.32,4.32,0,0,0,2.83-.41c1.64-.76,3-1.39,4.31-2,.66-.32,1.32-.64,2-1,.92-.47,1.86-1,2.92-1.55-.61.57-1.22,1.11-1.85,1.64l-1.08.89c-1.27,1-2.63,2.12-4.18,3.48,4.16.29,6.56,1,12.09-.75a31.16,31.16,0,0,1-2.71,1.77l1.64,3.21-1.78-.8,1.17,2.18a11.66,11.66,0,0,0,2,1.89l.4,1.29a11.9,11.9,0,0,1-2.67-1.64c.92,3.71,3.13,3,3.76,5.23.43,1.52,2,4.24,1.13,5.68-1.07,1.7-1.77,1.58-3.27,2.93-1.74,1.56-.4,3.52,0,4.15a4.41,4.41,0,0,1,2.5-3.25c1.22-.36,2.67-.08,3.21-.62,1.92-1.92,6.05-2.4,8.91-.61-1.33-2.14-2-2.07-4.64-2.83,4.65.31,5,1.32,7.23,4,.19-1.51-1.07-3.43-2.14-4.35-.33-.29-4-.81-7.62-1.12-1.26-.11-1.77-1.73-2-2.6a5,5,0,0,0,2.23.65c-.25-1.26-.6-2.7-.81-3.57a3.24,3.24,0,0,0,1.51.41l-.52-2.13c-.25-1.7-.8-2.92.83-5.52a9,9,0,0,1,1.71,1.36,17.11,17.11,0,0,0,.71,2.49c.07.16,1.67,1.53,1.73,1.7l-2.76-.8a8.64,8.64,0,0,0,2.74,3.3,5.88,5.88,0,0,1,2.35,1.23,3.05,3.05,0,0,1,.61,2.24c-.21.51-1.67-1.67-4.76.93,2.11,0,4.63.61,5.18,1.25a10.25,10.25,0,0,0,1.72,1.9c2.24,1.34,2.39,2,2.21,4.68,1.39-1.07,1-3.86.79-4.53a6.44,6.44,0,0,1,.87,6.36c1.38-.76,3-3.81,1.47-6.21-.43-.39-2.76-2.13-3.21-2.65-1.17-1.33-1.46-2.84-2-4.36.41,0,.91.18,1.32.18-.21-.9-.5-2.08-.72-3.38l-.06-.35s0-.1,0-.15-.06-.39-.09-.58c0,0,0-.1,0-.14,0-.2,0-.4-.07-.6a8.43,8.43,0,0,0,1.28.69L316,329h0q0-.4.1-.8v0c0-.24.09-.48.15-.72l0-.12c.05-.22.12-.43.19-.65l0-.16c.09-.26.19-.52.31-.77-.59,1.26,1.13,3.07,1.13,3.07.22-2.78,2.7-5.38,4.79-6.32A2.92,2.92,0,0,0,323,324a3.89,3.89,0,0,1,2.78-2l1.69.68,1.79.72.47.19a4.33,4.33,0,0,0,1.11,2.06c.76.62,1.55,1.07,3.46,2.29a2,2,0,0,1-1.43,1.23c2.7,1,6.11-.2,5.63-3.11-.17-1-.62-3.85-.62-3.85h0l.64-2.09.19-.62,0-.07.09-.29a10.19,10.19,0,0,0-1.09-4.17m-9.61,4.29-1.44-2.59L323,314.78l3,3.48a23.94,23.94,0,0,0-7.19-2.87s2.48,2.32,3.66,3.47c.23.15.27.26.27.26l-.27-.26a6.4,6.4,0,0,0-3-.63,14.14,14.14,0,0,1-5.48-1.63,6.77,6.77,0,0,0,1.1,1.17l0,0h0a9.07,9.07,0,0,0,3.09,1.71c.11,0,1.48.6,1.59.64a10.39,10.39,0,0,0-2.51,1.4,8.18,8.18,0,0,0-2.67,3.54c-.86,2.19-1.64,6.14-1,8.4-1.9-2.55-3.58-5.84-2.64-9.56-2.89,1.63-4.76,1.1-6.76.8a15,15,0,0,0-2.31,6.81,8.47,8.47,0,0,1-.47-.87,14.09,14.09,0,0,1-1.23-5.17,13.64,13.64,0,0,1,0-2h0l6.61-4.69-9.61-.81h0l.49-.35a21.23,21.23,0,0,1,12.85-4.2c.35,0,.71,0,1.06.08-3-1.65-8.13-1.57-11.21-.61-4.17,1.3-5.82,1.38-10.29.59,4.68-.95,4.51-1.08,7.29-2.39,2.29-1.28,6.62-3.64,12.09-2.63a22.37,22.37,0,0,0-4.11-1.53,16.35,16.35,0,0,0-7-.12,9.64,9.64,0,0,1,5.42-2.52c-4.82-4.34-19-11.15-19-11.15,20.19,4.77,28.77,14.25,30.05,15.78l.25.2a44.82,44.82,0,0,0-17.51-19.82c-1.7-1.06-3.58-1.81-5.31-2.81a54.59,54.59,0,0,1-7.66-5.35v0c-22.83-18.13-14.34-43.09-14.34-43.09a37.5,37.5,0,0,0,1.92,16.51,56.4,56.4,0,0,0,3.78,8.72,65.89,65.89,0,0,0,4.32,7,34.79,34.79,0,0,0,10.13,8.58s-17.23-11.74-7.44-36.76c-.38,1.07-7.16,21.12,18.3,38.59.49.33.85.32,1,.68,3.39,8.16,16.43,21.14,18.86,27.39q-.16-1.92-.33-3.83a14.1,14.1,0,0,1,3.2,5.57c.11-1.26.22-3.18.33-4.44a34.9,34.9,0,0,1,7.82,6.36l-.07-.07-.26-.28.11.12.06.07.08.09.07.07-.11-1.85-.05-.87s3.9,4.79,5.23,8.5c.07.21.14.42.2.62a6.82,6.82,0,0,1-.35,2.2,4.18,4.18,0,0,1-.87,1.14.72.72,0,0,1-.15.09,1.06,1.06,0,0,0,.22-.79,4.25,4.25,0,0,0-.23-1.27c-.14-.44-.3-.86-.44-1.18s-.26-.59-.26-.59a6.36,6.36,0,0,1-.06,1.95.21.21,0,0,1,0,0c-.2.86-.59,1.09-.7,1.13h0c0-.14-.06-.27-.09-.39-.11-.31-.23-.62-.35-.92-.44-1.1-2.05-4.15-2.58-5.21-.46.65.15,2.16.15,2.16.2.4.69,1.42.69,1.42a2.06,2.06,0,0,0,1.11,2.57,2.58,2.58,0,0,1-1.68-.35,7.85,7.85,0,0,0,1.4,1.8c-1.13-.28-3.73-2.34-5.15-3.51m5.85,7.67-1.12-.91-.81-.65-.2-.62-.05-.16-.28-.85v0a6.67,6.67,0,0,1,2.09,2.27c.1.16.6,1.14.6,1.14Zm3.48.66a3.9,3.9,0,0,1-1.47,1.07,3.07,3.07,0,0,1-1.85.28l0,0,.15-.08.11-.06c1.31-.81.6-2.33-.76-3.89h0l-3.1-2.7-.17-.14,0,0h0l.1,0h0l.11,0,.47.26,1.58.89.12.07.7.39.76.43h0l1.63-.4a2.89,2.89,0,0,0,1-.42c0,.11,1.36,3.45.57,4.45" transform="translate(-241.38 -230.86)" style="fill:#004289"/><path d="M353.78,252.55l.16,0a25.84,25.84,0,0,0-12.24,3.8c3-5.76,9.48-9.65,15.25-11.93,0,0,.71-1.11-6.26-.07a25.82,25.82,0,0,0-2.69.45h0a26.25,26.25,0,0,0-10.55,5,24,24,0,0,0-4.6,4.77,50.74,50.74,0,0,0-7.86,14.65s-.85-10.09,12-23.4a49.48,49.48,0,0,1,4.77-6.7s.3-1.51-7,4a47.77,47.77,0,0,0-13.21,13.95c-1.2,2.14-3.75,6.94-4.49,10.11,0,.09,0,.19,0,.28s.08,1.9.43,4.43a61.14,61.14,0,0,0,1.68,7.28,61.85,61.85,0,0,1-2.89-7.36c-.25-.87-.44-1.68-.61-2.47-.11-.49-.19-1-.27-1.42q-.06-.37-.12-.77c-.06-.42-.12-.83-.17-1.23-.16-1.48-.23-2.88-.25-4.28,0-1.86.05-3.53.14-4.74a40.56,40.56,0,0,0-3.68,16c-.17,1.51-.26,2.64-.32,3.58a45.82,45.82,0,0,0,5.17,9.93s-2.48-1.38-5.41-6.5a36.59,36.59,0,0,1-.77,4.41,80.08,80.08,0,0,0,9.64,13.27v-6.7a30.12,30.12,0,0,1,2.33,2.56,73,73,0,0,1,2.09-7.59c5.84-17.39,12.77-22.68,12.77-22.68-6.37,10-12.22,30.1-12,39.5,1.23,1.05,2.34,1.9,3.26,2.54a6.35,6.35,0,0,1-1-2.25,48.22,48.22,0,0,1,11.68-22.2c1.93-19.25,23.71-27.41,23.71-27.41,1.77-1.3-8.73-.83-8.73-.83" transform="translate(-241.38 -230.86)" style="fill:#004289"/><path d="M262.86,351.81V348.7l-3.23-3.26v3.65a21.76,21.76,0,0,0,3.23,3.76Z" transform="translate(-241.38 -230.86)" style="fill:#c5c7c8"/><path d="M357,363.43V352.54c-1.14.88-2.21,1.66-3.23,2.37v3.21h-1.65V356c-7.08,4.68-10.58,5.17-10.58,5.17a55.13,55.13,0,0,0,10.58-6.86v-4.15a82.34,82.34,0,0,1-19.39,12.6c0,.21,0,.84,0,1.73h14.91a45.5,45.5,0,0,1,9.36-.6" transform="translate(-241.38 -230.86)" style="fill:#c5c7c8"/><path d="M343.58,365.39a38.16,38.16,0,0,0-6.23,2.16v-2.16Z" transform="translate(-241.38 -230.86)" style="fill:#96989a"/><path d="M324.85,374.52l-2.05.9v-6.75h2v5.85Z" transform="translate(-241.38 -230.86)" style="fill:#96989a"/><rect x="81.43" y="131.85" width="2.05" height="5.14" style="fill:#96989a"/><path d="M332,370.28v-1.61h-1.83v3.09l1.83-1.09Z" transform="translate(-241.38 -230.86)" style="fill:#96989a"/><rect x="88.75" y="131.85" width="1.83" height="5.14" style="fill:#96989a"/><path d="M327.07,372.09v-3.42h-1.41v5.48l1.41-.71Z" transform="translate(-241.38 -230.86)" style="fill:#96989a"/><rect x="84.29" y="131.85" width="1.41" height="5.14" style="fill:#96989a"/><rect x="86.5" y="131.85" width="1.41" height="5.14" style="fill:#96989a"/><path d="M329.29,371.73v-3.06h-1.41V373l1.41-.77Z" transform="translate(-241.38 -230.86)" style="fill:#96989a"/><rect x="81.43" y="127.49" width="9.16" height="3.55" style="fill:#96989a"/><path d="M286.34,370.83l-2-1v-1.19h2v2.17Z" transform="translate(-241.38 -230.86)" style="fill:#96989a"/><rect x="42.95" y="131.85" width="2.05" height="5.14" style="fill:#96989a"/><path d="M291.6,373.38l1.86.85,0-4v-1.58H291.6v4.71Z" transform="translate(-241.38 -230.86)" style="fill:#96989a"/><rect x="50.27" y="131.85" width="1.83" height="5.14" style="fill:#96989a"/><rect x="45.78" y="131.85" width="1.41" height="5.14" style="fill:#96989a"/><rect x="48.03" y="131.85" width="1.39" height="5.14" style="fill:#96989a"/><rect x="42.95" y="127.49" width="9.16" height="3.55" style="fill:#96989a"/><path d="M289.39,372.32l1.41.71v-4.36h-1.41v3.65Z" transform="translate(-241.38 -230.86)" style="fill:#96989a"/><path d="M282.11,368.81l1.41.66v-4.08H282.1v3.42Z" transform="translate(-241.38 -230.86)" style="fill:#96989a"/><path d="M287.16,371.23l.23.12,1.17.57v-3.25h-1.4v2.56Z" transform="translate(-241.38 -230.86)" style="fill:#96989a"/><path d="M259.64,359.58v-7c1.14.88,2.21,1.66,3.22,2.37v3.21h1.65V356c7.08,4.68,10.58,5.17,10.58,5.17a55.09,55.09,0,0,1-10.58-6.86v-4.15a83.1,83.1,0,0,0,19,12.43v1.91s-12.68.06-13,0a35.48,35.48,0,0,0-10.88-.5" transform="translate(-241.38 -230.86)" style="fill:#c5c7c8"/><path d="M279.06,367.49c-1.78-.73-4.16-1.7-5.49-2.14h5.49Z" transform="translate(-241.38 -230.86)" style="fill:#96989a"/><path d="M279.88,367.37v-2h1.41v3l-1.41-.6Z" transform="translate(-241.38 -230.86)" style="fill:#96989a"/><path d="M334.32,368.67v-3.28h-1.54v4.79l1.54-1Z" transform="translate(-241.38 -230.86)" style="fill:#96989a"/><path d="M336.55,367.55v-2.16h-1.41v2.16l0,1.14q.65-.38,1.39-.75Z" transform="translate(-241.38 -230.86)" style="fill:#96989a"/><path d="M322,361.9v-2.51a13.86,13.86,0,0,0-27.71,0v2.51h2.36a11.64,11.64,0,1,1,22.83,0Z" transform="translate(-241.38 -230.86)" style="fill:#96989a"/><path d="M357,349.1a21.89,21.89,0,0,1-3.23,3.76V348.7l3.23-3.26v3.65Z" transform="translate(-241.38 -230.86)" style="fill:#c5c7c8"/><path d="M305.82,372.91a.6.6,0,0,0-.63.67.56.56,0,0,0,.63.63,1.14,1.14,0,0,0,.71-.25v0c0-.66-.29-1-.71-1" transform="translate(-241.38 -230.86)" style="fill:#96989a"/><path d="M309.32,372.93c-.48,0-.75.47-.75,1.31s.27,1.31.75,1.31.74-.47.74-1.31-.26-1.31-.74-1.31" transform="translate(-241.38 -230.86)" style="fill:#96989a"/><path d="M319.28,362.74a11.65,11.65,0,0,1-22.43,0h-2.56V374.6c4.81,2.09,9.62,3.62,14.86,3.62h.1A34.94,34.94,0,0,0,322,375.75l0-13Z" transform="translate(-241.38 -230.86)" style="fill:#96989a"/><path d="M256.48,343.93a12.19,12.19,0,0,1,1.39.34v6.22a12.45,12.45,0,0,0-1.39-.34Z" transform="translate(-241.38 -230.86)" style="fill:#96989a"/><path d="M255.68,350c-.45-.06-.92-.09-1.39-.1v-6.22l.68,0,.71.07Z" transform="translate(-241.38 -230.86)" style="fill:#96989a"/><path d="M252.09,350c.45-.06.91-.09,1.39-.1v-6.22q-.71,0-1.39.11Z" transform="translate(-241.38 -230.86)" style="fill:#96989a"/><path d="M249.9,350.49a12.19,12.19,0,0,1,1.38-.34v-6.22a12,12,0,0,0-1.38.34Z" transform="translate(-241.38 -230.86)" style="fill:#96989a"/><path d="M248.65,338.87a10,10,0,0,1,.94-.38v.75Z" transform="translate(-241.38 -230.86)" style="fill:#96989a"/><path d="M253.48,341.05a13.6,13.6,0,0,0-1.39.11v-3.24c.45-.06.92-.09,1.39-.11Z" transform="translate(-241.38 -230.86)" style="fill:#96989a"/><path d="M255.68,337.92c-.45-.06-.92-.09-1.39-.1v3.24a13.59,13.59,0,0,1,1.39.11Z" transform="translate(-241.38 -230.86)" style="fill:#96989a"/><path d="M256.48,338a12,12,0,0,1,1.39.34v3.24a12.4,12.4,0,0,0-1.39-.34Z" transform="translate(-241.38 -230.86)" style="fill:#96989a"/><path d="M251.29,341.28a12.42,12.42,0,0,0-1.39.34v-3.24a12.31,12.31,0,0,1,1.39-.34Z" transform="translate(-241.38 -230.86)" style="fill:#96989a"/><path d="M258.18,338.49a10,10,0,0,1,1,.38l-1,.37Z" transform="translate(-241.38 -230.86)" style="fill:#96989a"/><path d="M248.65,344.75a10,10,0,0,1,.94-.38v.75Z" transform="translate(-241.38 -230.86)" style="fill:#96989a"/><path d="M258.18,344.37a10.26,10.26,0,0,1,1,.38l-1,.37Z" transform="translate(-241.38 -230.86)" style="fill:#96989a"/><path d="M259.14,336.77a13.48,13.48,0,0,0-10.49,0v1.35a13.47,13.47,0,0,1,10.49,0Z" transform="translate(-241.38 -230.86)" style="fill:#96989a"/><path d="M259.14,342.7a13.48,13.48,0,0,0-10.49,0V344a13.49,13.49,0,0,1,10.49,0Z" transform="translate(-241.38 -230.86)" style="fill:#96989a"/><path d="M259.14,336.18a13.49,13.49,0,0,0-10.49,0l4.16-4q.53,0,1.08,0c.37,0,.73,0,1.08,0Z" transform="translate(-241.38 -230.86)" style="fill:#96989a"/><path d="M252.81,331.1v.65q.53,0,1.08,0t1.08,0v-.65c0-.25-.54-.26-.68-.26h-.81c-.14,0-.67,0-.67.26" transform="translate(-241.38 -230.86)" style="fill:#96989a"/><path d="M257.87,357.24a12,12,0,0,0-1.39-.34v-6.05a12.45,12.45,0,0,1,1.39.34Z" transform="translate(-241.38 -230.86)" style="fill:#96989a"/><path d="M255.68,356.77c-.45-.06-.92-.09-1.39-.1v-6.05c.47,0,.94,0,1.39.1Z" transform="translate(-241.38 -230.86)" style="fill:#96989a"/><path d="M253.48,356.66a13.88,13.88,0,0,0-1.39.11v-6.05q.68-.09,1.39-.11Z" transform="translate(-241.38 -230.86)" style="fill:#96989a"/><path d="M251.29,356.89a12.14,12.14,0,0,0-1.39.34v-6.05a12.57,12.57,0,0,1,1.39-.34Z" transform="translate(-241.38 -230.86)" style="fill:#96989a"/><path d="M365.4,343.93a12.25,12.25,0,0,1,1.39.34v6.22a12.45,12.45,0,0,0-1.39-.34Z" transform="translate(-241.38 -230.86)" style="fill:#96989a"/><path d="M364.6,350c-.45-.06-.91-.09-1.39-.1v-6.22l.68,0,.71.07Z" transform="translate(-241.38 -230.86)" style="fill:#96989a"/><path d="M361,350c.45-.06.91-.09,1.39-.1v-6.22q-.71,0-1.39.11Z" transform="translate(-241.38 -230.86)" style="fill:#96989a"/><path d="M358.82,350.49a12.24,12.24,0,0,1,1.38-.34v-6.22a12,12,0,0,0-1.38.34Z" transform="translate(-241.38 -230.86)" style="fill:#96989a"/><path d="M357.57,338.87a9.85,9.85,0,0,1,.94-.38v.75Z" transform="translate(-241.38 -230.86)" style="fill:#96989a"/><path d="M362.4,341.05a13.6,13.6,0,0,0-1.39.11v-3.24c.45-.06.92-.09,1.39-.11Z" transform="translate(-241.38 -230.86)" style="fill:#96989a"/><path d="M364.6,337.92c-.45-.06-.91-.09-1.39-.1v3.24a13.57,13.57,0,0,1,1.39.11Z" transform="translate(-241.38 -230.86)" style="fill:#96989a"/><path d="M365.4,338a12,12,0,0,1,1.39.34v3.24a12.46,12.46,0,0,0-1.39-.34Z" transform="translate(-241.38 -230.86)" style="fill:#96989a"/><path d="M360.21,341.28a12.35,12.35,0,0,0-1.39.34v-3.24a12.36,12.36,0,0,1,1.39-.34Z" transform="translate(-241.38 -230.86)" style="fill:#96989a"/><path d="M367.1,338.49a10.2,10.2,0,0,1,1,.38l-1,.37Z" transform="translate(-241.38 -230.86)" style="fill:#96989a"/><path d="M357.57,344.75a9.85,9.85,0,0,1,.94-.38v.75Z" transform="translate(-241.38 -230.86)" style="fill:#96989a"/><path d="M367.1,344.37c.33.12.65.24,1,.38l-1,.37Z" transform="translate(-241.38 -230.86)" style="fill:#96989a"/><path d="M368.06,336.77a13.48,13.48,0,0,0-10.49,0v1.35a13.47,13.47,0,0,1,10.49,0Z" transform="translate(-241.38 -230.86)" style="fill:#96989a"/><path d="M368.06,342.7a13.48,13.48,0,0,0-10.49,0V344a13.49,13.49,0,0,1,10.49,0Z" transform="translate(-241.38 -230.86)" style="fill:#96989a"/><path d="M368.06,336.18a13.49,13.49,0,0,0-10.49,0l4.16-4q.53,0,1.08,0c.37,0,.73,0,1.08,0Z" transform="translate(-241.38 -230.86)" style="fill:#96989a"/><path d="M361.73,331.1v.65c.35,0,.71,0,1.08,0s.73,0,1.08,0v-.65c0-.25-.54-.26-.68-.26h-.81c-.14,0-.67,0-.67.26" transform="translate(-241.38 -230.86)" style="fill:#96989a"/><path d="M366.79,357.24a12,12,0,0,0-1.39-.34v-6.05a12.45,12.45,0,0,1,1.39.34Z" transform="translate(-241.38 -230.86)" style="fill:#96989a"/><path d="M364.6,356.77c-.45-.06-.91-.09-1.39-.1v-6.05q.71,0,1.39.1Z" transform="translate(-241.38 -230.86)" style="fill:#96989a"/><path d="M362.4,356.66a13.88,13.88,0,0,0-1.39.11v-6.05q.68-.09,1.39-.11Z" transform="translate(-241.38 -230.86)" style="fill:#96989a"/><path d="M360.21,356.89a12.19,12.19,0,0,0-1.39.34v-6.05a12.62,12.62,0,0,1,1.39-.34Z" transform="translate(-241.38 -230.86)" style="fill:#96989a"/><path d="M366.79,365.74q-.69-.25-1.4-.46c0-.37,0-3,0-3v-4.66s.95.21,1.39.34v7.76Zm-2.19-.68c-.46-.12-.93-.24-1.4-.34,0-.36,0-2.19,0-2.19V357.4s.94,0,1.39.1v7.55Zm-2.18-2.53V357.4c-.48,0-1.39.1-1.39.1v5s0,1.32,0,1.79q.72.11,1.43.24m-2.21-1.76v-5.17c-.48.09-1.39.34-1.39.34v5.37s0,.11,0,.72l1.38.15M257.87,362v-4c-.44-.14-1.39-.34-1.39-.34v6.74l1.39-.22Zm-2.19-4.47c-.45-.06-1.39-.1-1.39-.1v4.77s0,2.23,0,2.62l1.39-.28ZM253.49,365l-1.41.35c0-.33,0-3.15,0-3.15v-4.67s.91-.09,1.39-.1l0,4.77Zm-2.22.57-1.37.41c0-.81,0-3,0-3V358s.9-.25,1.39-.34v7.91Z" transform="translate(-241.38 -230.86)" style="fill:#96989a"/><path d="M303.59,363.57a16.61,16.61,0,0,0,4.85,1.72h.07a.37.37,0,0,0,.37-.35,14.64,14.64,0,0,0-.56-4.44.37.37,0,0,0-.2-.23,22.81,22.81,0,0,1-5.74-3.77,9.57,9.57,0,0,1-2.24-3,.37.37,0,0,0-.64-.06,10.79,10.79,0,0,0-1.67,3.8.36.36,0,0,0,0,.23,12.94,12.94,0,0,0,5.73,6.08" transform="translate(-241.38 -230.86)" style="fill:#d71f16"/><path d="M302.88,355.92a.37.37,0,0,0,.26.1h0a.37.37,0,0,0,.27-.15,14.1,14.1,0,0,1,7.9-5.66.37.37,0,0,0,.28-.35.37.37,0,0,0-.26-.36,10.52,10.52,0,0,0-10.7,2.57.37.37,0,0,0-.1.35,7.52,7.52,0,0,0,2.31,3.5" transform="translate(-241.38 -230.86)" style="fill:#d71f16"/><path d="M304,356.41a.37.37,0,0,0,.07.51,24.34,24.34,0,0,0,4.17,2.56.37.37,0,0,0,.44-.09,13.91,13.91,0,0,1,8.34-4.52.37.37,0,0,0,.27-.55,10.58,10.58,0,0,0-3.34-3.58.37.37,0,0,0-.2-.06,9.69,9.69,0,0,0-4,.89,14.42,14.42,0,0,0-5.79,4.85" transform="translate(-241.38 -230.86)" style="fill:#d71f16"/><path d="M317.94,355.78a.37.37,0,0,0-.39-.24,13.43,13.43,0,0,0-2.39.51.37.37,0,0,0-.24.47,17.58,17.58,0,0,1,.83,4.54,13.19,13.19,0,0,1-.33,3.61,10.71,10.71,0,0,1-.75,2.13.37.37,0,0,0,.33.53.37.37,0,0,0,.25-.1,10.35,10.35,0,0,0,2.61-3.78,10.49,10.49,0,0,0,.08-7.67" transform="translate(-241.38 -230.86)" style="fill:#d71f16"/><path d="M308.64,366.2a.38.38,0,0,0-.24-.15,17.6,17.6,0,0,1-4.8-1.63,14,14,0,0,1-5.33-4.66.37.37,0,0,0-.68.22,10.34,10.34,0,0,0,.82,3.65,10.5,10.5,0,0,0,8.39,6.32h0a.37.37,0,0,0,.28-.13,7.08,7.08,0,0,0,1.57-3.35.37.37,0,0,0-.06-.28" transform="translate(-241.38 -230.86)" style="fill:#d71f16"/><path d="M314.23,356.82a.37.37,0,0,0-.5-.22,13.31,13.31,0,0,0-4.6,3.4.37.37,0,0,0-.07.34,15,15,0,0,1,.6,3.8,11,11,0,0,1-.31,3,8,8,0,0,1-1,2.35.38.38,0,0,0,0,.39.37.37,0,0,0,.32.18h0a10.6,10.6,0,0,0,3.14-.68.32.32,0,0,0,.12-.08,9.41,9.41,0,0,0,2.41-3.64,11.37,11.37,0,0,0,.66-3.85,16.24,16.24,0,0,0-.78-5" transform="translate(-241.38 -230.86)" style="fill:#d71f16"/><polygon points="62.54 145.34 62.54 142.21 61.76 142.51 61.68 141.94 62.63 141.5 63.27 141.5 63.27 145.34 62.54 145.34" style="fill:#fff"/><path d="M305.47,373.31c0-.61.53-1,1.3-1s1.27.41,1.27,1a1.09,1.09,0,0,1-.62.92,1.06,1.06,0,0,1,.75,1c0,.62-.54,1.08-1.41,1.08s-1.41-.49-1.41-1.07a1.2,1.2,0,0,1,.74-1,1,1,0,0,1-.61-.89m.56,1.85c0,.36.31.58.73.58s.7-.21.7-.55-.22-.49-.88-.76a.89.89,0,0,0-.56.74m1.33-1.86c0-.29-.23-.48-.61-.48s-.6.21-.6.48.2.44.75.66a.81.81,0,0,0,.46-.66" transform="translate(-241.38 -230.86)" style="fill:#fff"/><path d="M310.3,373.81a1.07,1.07,0,0,1,1.13,1.17,1.29,1.29,0,0,1-1.37,1.3c-.83,0-1.42-.56-1.42-1.62a2.38,2.38,0,0,1,2.14-2.36l.09.61a1.81,1.81,0,0,0-1.53,1.21,1.68,1.68,0,0,1,1-.3m-.23,1.9a.64.64,0,0,0,.67-.69.58.58,0,0,0-.67-.65,1.27,1.27,0,0,0-.77.28c0,.68.32,1.06.77,1.06" transform="translate(-241.38 -230.86)" style="fill:#fff"/><polygon points="71.12 145.34 71.12 142.21 70.34 142.51 70.26 141.94 71.21 141.5 71.85 141.5 71.85 145.34 71.12 145.34" style="fill:#fff"/></svg>