<?xml version="1.0" encoding="UTF-8"?><svg id="Layer_1" xmlns="http://www.w3.org/2000/svg" xmlns:xlink="http://www.w3.org/1999/xlink" viewBox="0 0 571.83 601.02"><defs><style>.cls-1{fill:url(#radial-gradient);}.cls-2{fill:#fff;}.cls-3{fill:#ffe600;}.cls-4{fill:#24559b;}</style><radialGradient id="radial-gradient" cx="-3637.86" cy="4154.06" fx="-3637.86" fy="4154.06" r="141.82" gradientTransform="translate(4560.17 5062.29) scale(1.17 -1.17)" gradientUnits="userSpaceOnUse"><stop offset=".55" stop-color="#00aee8"/><stop offset="1" stop-color="#24559b"/></radialGradient></defs><path class="cls-3" d="M569.38,334.24c-8.57-12.75-12.97-45.55-12.97-56.75,0-7.4-3.99-24.62-40.93-24.62-18.83,0-36.56,11.22-45.45,17.91-5.43,4.09-23.18,18.39-23.18,30.62,0,10,5.76,16.34,10.39,21.43,1.38,1.52,2.66,2.93,3.76,4.37-38,29.17-82.51,48.37-129.66,55.89,3.64-4.04,5.56-9.18,5.56-15.13,0-3.79-1.57-9.26-9.02-13.74-1.23-.76-4.68-2.54-11.85-4.05,4.88-1.37,10.1-2.7,15.26-4,24.55-6.23,55.11-13.99,79.81-31.21,29.47-20.54,44.41-50.8,44.41-89.92,0-36.58-10.6-65.29-19.12-88.37-5.34-14.46-9.95-26.95-9.95-36.6,0-17.96,18.94-39.13,25.48-44.4l7.59-6.14-7.34-6.44L407.6,3.97l-4.52-3.97-5.15,3.12-.5.3c-21.23,12.85-35.25,21.33-61.81,21.33-19.91,0-40.76-11.24-43.73-13.65l-5.18-4.2-5.18,4.2c-2.97,2.41-23.82,13.65-43.73,13.65-26.55,0-40.58-8.48-61.8-21.33l-.5-.31-5.16-3.12-4.52,3.98-44.56,39.12-7.33,6.44,7.59,6.13c6.53,5.28,25.47,26.45,25.47,44.41,0,9.65-4.61,22.14-9.94,36.6-8.52,23.08-19.12,51.79-19.12,88.37,0,39.12,14.94,69.37,44.41,89.92,24.69,17.22,55.26,24.98,79.81,31.21,5,1.27,10.04,2.55,14.78,3.87-8,1.62-11.72,3.57-12.87,4.29-6.05,3.65-9.12,8.24-9.12,13.64,0,5.95,1.92,11.09,5.57,15.13-47.15-7.52-91.67-26.71-129.67-55.89,1.1-1.43,2.38-2.85,3.75-4.37,4.64-5.1,10.4-11.44,10.4-21.43,0-12.23-17.75-26.53-23.18-30.62-8.89-6.69-26.62-17.9-45.45-17.9-36.94,0-40.93,17.22-40.93,24.62,0,11.2-4.42,44-12.97,56.75-1.44,1.91-2.45,4.42-2.45,7.45,0,2.85.87,6.13,3.07,9.71l.08.13.08.13c.15.22,15.56,22.71,30.56,22.72,1.12,1.01,2.25,2.02,2.25,2.02,65.3,58.81,149.59,92.82,237.36,95.77l8.81.29s-.67-28.6-.87-37.28c1.69-.32,3.24-.49,4.58-.49s2.89.17,4.58.49c-.2,8.68-.87,37.28-.87,37.28l8.81-.29c87.76-2.96,172.06-36.97,237.36-95.77,0,0,1.12-1.01,2.24-2.02,15,0,30.41-22.49,30.56-22.72l.09-.13.08-.13c2.19-3.57,3.07-6.85,3.07-9.71,0-3.03-1.01-5.54-2.45-7.46Z"/><path class="cls-4" d="M562.48,338.9c-10.05-14.95-14.4-49.71-14.4-61.41s-14.67-16.29-32.6-16.29c-27.43,0-60.31,29.88-60.31,40.21,0,11.96,12.49,16.57,16.54,28.01-41.7,33.64-92.71,56.21-148.54,63.26l-.33-13.06c3.33-2.41,5.73-5.99,5.73-11.65,0-2.44-1.75-4.66-5.02-6.63,0,0-8.08-5.39-37.44-5.39s-37.71,5.48-37.71,5.48c-3.3,1.98-5.15,4.09-5.15,6.54,0,5.66,2.41,9.24,5.74,11.65l-.33,13.06c-55.84-7.05-106.83-29.62-148.54-63.26,4.04-11.43,16.54-16.05,16.54-28.01,0-10.32-32.87-40.21-60.31-40.21-17.93,0-32.61,4.61-32.61,16.29s-4.35,46.46-14.39,61.41c-1.62,1.62-1.35,4.61.81,8.14,2.72,4.08,14.94,19.02,23.64,19.02,4.07,0,6.24-1.91,6.79-5.7.19-2.01,1.26-6.49,2.91-12.16,1.81,1.58,3.75,3.25,5.83,4.99l-7.72,17.02c61.9,55.74,142.94,90.64,232.08,93.64l-.83-35.04c2.45-.81,7.89-2.44,13.06-2.44s10.6,1.64,13.06,2.44l-.82,35.04c89.13-3,170.18-37.9,232.07-93.64l-9.16-20.2c2.06-1.8,4.12-3.62,6.17-5.47,2.27,7.36,3.77,13.38,4.01,15.82.54,3.79,2.71,5.7,6.79,5.7,8.7,0,20.92-14.94,23.64-19.02,2.17-3.53,2.44-6.52.81-8.14Z"/><path class="cls-2" d="M94.24,323.03c-4.48-3.84-9.39-8.08-13.65-12.19,1.84-2.11,2.93-2.37,4.01-2.37,2.45.26,14.67,4.07,17.12,3.53-2.72,2.17-7.08,9.56-7.48,11.03Z"/><path class="cls-2" d="M258.26,383.78c5.06,1.61,9.44,2.61,9.44,5.38,0,1.08-1.08,5.71-9.78,4.62l.34-10Z"/><path class="cls-2" d="M313.56,383.78c-5.06,1.61-9.44,2.61-9.44,5.38,0,1.08,1.08,5.71,9.78,4.62l-.34-10Z"/><path class="cls-2" d="M285.91,363.62c22.83,0,31.25,2.99,31.25,6.79,0,6.26-22.82,5.17-22.82,19.02,0,7.05,3.26,9.23,5.36,10.88l-.36,15.74c-6.36-1.35-9.08-2.17-13.43-2.17s-7.07.82-13.42,2.17l-.37-15.74c2.11-1.65,5.37-3.83,5.37-10.88,0-13.85-22.83-12.77-22.83-19.02,0-3.8,8.43-6.79,31.25-6.79Z"/><path class="cls-2" d="M477.59,323.03c4.48-3.84,9.4-8.08,13.65-12.19-1.83-2.11-2.92-2.37-4.01-2.37-2.44.27-14.67,4.07-17.11,3.53,2.72,2.17,7.07,9.56,7.47,11.03Z"/><path class="cls-2" d="M45.76,340.82c5.48-16.98,14.26-38.65,21.17-41.32-9.23-1.1-31.24-8.42-31.24-23.64,0-4.07,9.23-6.79,18.75-6.79,23.63,0,51.34,22.95,51.34,31.79,0,3.79-3.79,3.79-5.98,3.79-4.35,0-8.69-2.99-15.74-2.99-3.27,0-11.63.09-16.82,12l-14.9,32.86c-2.39-2.03-4.59-3.94-6.58-5.71Z"/><path class="cls-2" d="M518.02,343.3l-13.43-29.63c-5.19-11.92-13.56-12-16.82-12-7.06,0-11.41,2.99-15.76,2.99-2.17,0-5.97,0-5.97-3.79,0-8.84,27.71-31.79,51.34-31.79,9.51,0,18.75,2.72,18.75,6.79,0,15.22-22.01,22.55-31.25,23.64,6.43,2.47,14.47,21.38,19.97,37.67-2.28,2.07-4.55,4.12-6.84,6.13Z"/><path class="cls-2" d="M515.59,303.64c22.01-6.93,25.67-17.93,25.95-20.91-.69,21.32,10.04,51.21,13.44,56.64,1.63,2.72,1.22,5.16.68,5.98-.96,1.36-12.22,13.72-15.9,14.95-4.89,1.08-4.61-1.91-4.89-3.27-4.34-23.63-17.11-49.85-19.28-53.39"/><path class="cls-2" d="M54.82,303.64c-2.18,3.54-14.94,29.76-19.29,53.39-.26,1.36,0,4.35-4.88,3.27-3.67-1.23-14.94-13.59-15.9-14.95-.54-.82-.95-3.26.69-5.98,3.39-5.43,14.13-35.32,13.44-56.64.27,2.98,3.94,13.98,25.94,20.91"/><path class="cls-2" d="M73.96,314.53c49.75,48.88,116.36,80.64,190.32,85.78l1.62,57.66c-82.95-4.46-158.42-37.06-217.05-88.4l25.11-55.04"/><path class="cls-2" d="M306.13,400.31c73.95-5.14,140.57-36.9,190.32-85.78l25.11,55.04c-58.63,51.35-134.1,83.94-217.05,88.4l1.63-57.66"/><path class="cls-4" d="M46.95,306.24c-2.98-.82-13.04-7.07-14.13-8.7-.13,14.27-10.86,40.75-12.77,42.93-.81.81-.95,2.71,0,4.07.82,1.09,8.02,7.88,9.65,8.96,1.76,1.23,1.91-.68,1.91-.68,2.72-15.48,13.71-43.05,15.34-46.58"/><path class="cls-4" d="M76.62,324.64l-19.79,43.19c55.01,46.52,125.28,77.61,201.49,83.4l-1.1-46.12c-68.83-6.27-132.45-36.34-180.61-80.47"/><path class="cls-4" d="M313.19,405.11l-1.09,46.12c76.21-5.8,146.47-36.89,201.49-83.4l-19.79-43.19c-48.16,44.13-111.78,74.2-180.6,80.47"/><path class="cls-4" d="M523.47,306.24c1.63,3.53,12.63,31.11,15.35,46.58,0,0,.13,1.91,1.9.67,1.63-1.08,8.83-7.88,9.65-8.96.95-1.36.82-3.26,0-4.07-1.9-2.18-12.63-28.66-12.77-42.93-1.08,1.63-11.15,7.88-14.13,8.7"/><path class="cls-4" d="M42.56,112.18h-12.36l5.8,5.8v35.75l-5.8,5.8h24.72l-5.8-5.8v-35.75l5.8-5.8s-6.47,0-12.36,0Z"/><polygon class="cls-4" points="457.22 128.75 457.22 112.36 499.01 112.36 476.53 174.24 476.53 180.33 464.63 180.33 489.75 121.61 463.83 121.61 457.22 128.75"/><path class="cls-4" d="M102.39,123.44c.56-.35,9.5-6.03,9.5-14.42,0-12.89-8.66-19.05-21.07-19.06h-.06c-12.41.01-21.07,6.17-21.07,19.06,0,8.39,8.94,14.07,9.5,14.42-.56.35-12.66,4.06-12.66,18.21s11.82,19.05,24.23,19.06h.06c12.41,0,24.23-4.91,24.23-19.06,0-14.15-12.1-17.86-12.66-18.21ZM90.79,92.51c5.49,0,9.93,6.67,9.93,14.9s-4.45,14.9-9.93,14.9-9.93-6.67-9.93-14.9c0-8.23,4.45-14.9,9.93-14.9ZM90.79,158.58c-6.69,0-12.11-7.67-12.11-17.13s5.43-17.13,12.11-17.13,12.13,7.67,12.13,17.13-5.43,17.13-12.13,17.13Z"/><path class="cls-4" d="M543.65,123.44c.57-.35,9.5-6.03,9.5-14.42,0-12.89-8.66-19.05-21.07-19.06h-.06c-12.41.01-21.07,6.17-21.07,19.06,0,8.39,8.94,14.07,9.5,14.42-.56.35-12.66,4.06-12.66,18.21s11.82,19.05,24.23,19.06h.06c12.41,0,24.23-4.91,24.23-19.06,0-14.15-12.1-17.86-12.67-18.21ZM532.04,92.51c5.48,0,9.94,6.67,9.94,14.9s-4.45,14.9-9.94,14.9-9.93-6.67-9.93-14.9,4.45-14.9,9.93-14.9ZM532.04,158.58c-6.69,0-12.11-7.67-12.11-17.13s5.43-17.13,12.11-17.13,12.13,7.67,12.13,17.13c0,9.46-5.43,17.13-12.13,17.13Z"/><path class="cls-4" d="M40.75,545.02v-41.55l-11.58-10.9h72.88v22.48l-12.94-13.62h-28.61v36.78h21.11l8.17-9.54v26.59l-8.17-9.54h-21.11v42.89h28.61l12.94-13.62v22.48H29.17l11.58-10.9v-41.55Z"/><polygon class="cls-4" points="146.33 524.59 105.46 524.59 116.36 534.81 141.56 597.48 153.82 597.48 178.34 533.45 189.24 524.59 160.63 524.59 170.85 532.77 153.82 575.68 136.79 533.45 146.33 524.59"/><path class="cls-4" d="M309.27,520.18c-4.41,0-16.71,12.16-20.58,16.1v-15.94c-8.92,2.97-29.97,10.22-29.97,10.22l10.9,10.9v45.64l-9.54,10.22h38.14l-9.53-10.22v-39.18l12.94-14.63s1.67-2.1,3.31-2.1,3.04,2.11,3.04,2.11l14.75,15.1v-28.21h-13.46Z"/><path class="cls-4" d="M497.47,548.08v39.18l9.54,10.22h-38.14l9.54-10.22v-45.64l-10.9-10.9s21.06-7.25,29.97-10.22v15.94s12.99-17.65,31.58-17.65c10.73,0,17.16,8.58,17.16,15.73v52.91l10.73,10.01h-30.03v-58.05c0-7.87-2.86-9.87-9.3-9.87-6.43,0-20.14,18.56-20.14,18.56Z"/><path class="cls-4" d="M377.47,529.52v-7.15h-21.45v-20.02l-25.74,26.45v6.44h6.43v48.62c0,9.29,11.44,17.16,21.45,17.16s18.59-12.87,18.59-12.87l-2.86-4.29c-10.01,11.44-17.87,11.44-17.87,5.72v-60.06h21.45Z"/><path class="cls-4" d="M421.09,520.57c-21.45,0-38.84,18.01-38.84,40.23s17.39,40.23,38.84,40.23,38.84-18.01,38.84-40.23-17.39-40.23-38.84-40.23ZM421.09,594.09c-9.96,0-18.03-14.9-18.03-33.29s8.07-33.29,18.03-33.29,18.03,14.91,18.03,33.29-8.07,33.29-18.03,33.29Z"/><path class="cls-4" d="M227.38,592.85c-6.28,0-10.69-1.86-13.8-4.7-6.11-5.05-7.9-16.53-7.9-29.9l51.61-.18c-1.12-21.26-16.85-38.1-36.09-38.1s-36.15,18.15-36.15,40.53,16.18,40.53,36.15,40.53c12.48,0,27.13-4.9,33.63-15.68l-4.29-3.39s-7.49,10.9-23.16,10.9ZM221.92,526.1c16.33.02,14.97,25.2,14.97,25.2h-29.94s-1.36-25.18,14.97-25.2Z"/><path class="cls-2" d="M105.28,359.14l3.29,2.19-16.44,24.71-3.52-2.33,4.84-22.2-.04-.03-11.72,17.62-3.28-2.19,16.44-24.71,3.71,2.47-4.75,21.65.04.04,11.45-17.21Z"/><path class="cls-2" d="M103.44,392.88l-3.63-2.16,15.23-25.48,3.63,2.17-15.23,25.48Z"/><path class="cls-2" d="M117.66,394.79l8.85,4.79-2.55,4.73-12.57-6.8,14.12-26.12,3.71,2.02-11.56,21.38Z"/><path class="cls-2" d="M148.83,406.09c-.63,1.52-1.37,4.63,2.02,6.1,1.85.8,4.16,1.04,5.41-1.84.92-2.13-.23-3.31-1.9-4.83l-1.69-1.55c-2.56-2.33-5.02-4.57-2.43-10.56,1.31-3.04,4.75-7.9,10.77-5.3,5.69,2.47,4.85,8.6,3.43,11.95l-3.73-1.62c.43-1.25,1.37-4.27-2.02-5.74-1.48-.64-3.57-.6-4.65,1.85-.92,2.13.08,3.1.73,3.7l3.82,3.6c2.14,2.01,3.81,4.53,1.69,9.42-3.55,8.2-9.55,6.45-11.18,5.74-6.78-2.94-5.46-9.17-4-12.55l3.73,1.62Z"/><path class="cls-2" d="M179.78,403.63l.04.02-1.62,11.89-4.85-1.75,6.43-10.16ZM170.55,418.23l7.02,2.53-.86,6.2,4.33,1.56,3.38-30.33-4.59-1.66-16.87,25.47,4.19,1.52,3.4-5.28Z"/><path class="cls-2" d="M194.57,432.62l-4.06-1.21,6.97-23.41-5.86-1.75,1.5-5.03,15.78,4.69-1.51,5.04-5.86-1.74-6.96,23.42Z"/><path class="cls-2" d="M211.69,437.15l-4.11-1.01,7.06-28.83,4.11,1.01-7.06,28.83Z"/><path class="cls-2" d="M225.33,430.83c-.28,1.64-.32,4.82,3.32,5.51,1.96.38,4.28.11,4.87-2.99.43-2.27-.94-3.16-2.91-4.29l-2-1.14c-3-1.7-5.91-3.35-4.69-9.76.62-3.25,2.89-8.76,9.35-7.54,6.09,1.16,6.62,7.31,5.97,10.89l-3.99-.75c.14-1.32.39-4.47-3.24-5.15-1.58-.31-3.62.19-4.12,2.83-.44,2.28.75,3.01,1.52,3.45l4.51,2.66c2.54,1.48,4.72,3.59,3.73,8.82-1.66,8.78-7.9,8.39-9.65,8.06-7.25-1.37-7.33-7.74-6.65-11.35l3.99.75Z"/><path class="cls-2" d="M332.96,411.83l3.91-.53,4.04,29.41-4.19.57-11.06-19.84h-.05s2.88,20.97,2.88,20.97l-3.91.54-4.04-29.4,4.41-.62,10.78,19.39h.05s-2.82-20.49-2.82-20.49Z"/><path class="cls-2" d="M349.65,439.03l-4.15.78-5.48-29.17,4.16-.78,5.47,29.17Z"/><path class="cls-2" d="M355.25,428.56c.41,1.6,1.68,4.53,5.27,3.69,1.95-.46,3.95-1.65,3.24-4.71-.53-2.26-2.16-2.52-4.4-2.74l-2.29-.23c-3.44-.34-6.75-.66-8.25-7.02-.76-3.21-.91-9.17,5.48-10.67,6.04-1.42,9.02,3.99,9.88,7.53l-3.95.94c-.41-1.26-1.46-4.25-5.06-3.41-1.56.37-3.23,1.65-2.62,4.27.53,2.26,1.9,2.44,2.79,2.54l5.21.6c2.91.34,5.77,1.36,6.99,6.57,2.04,8.68-3.82,10.87-5.55,11.27-7.18,1.68-9.85-4.1-10.7-7.68l3.95-.93Z"/><path class="cls-2" d="M377.25,432.35l-4.06,1.16-8.09-28.57,4.07-1.16,8.08,28.57Z"/><path class="cls-2" d="M387.55,413.55c-2.84-7.81-.53-10.85,1.61-11.62,2.14-.8,5.87.06,8.72,7.86,2.84,7.81.53,10.85-1.61,11.64-2.14.78-5.87-.06-8.72-7.88ZM383.58,415.01c4.77,13.1,11.96,12.27,14.49,11.35,2.51-.92,8.55-4.91,3.78-18.02-4.77-13.08-11.97-12.26-14.49-11.35-2.52.92-8.55,4.92-3.78,18.01Z"/><path class="cls-2" d="M408.72,404.28l-3.51-7.98,3.07-1.35c2.4-1.06,3.89-.4,5.05,2.25.53,1.21,1.86,4.24-1.03,5.5l-3.58,1.58ZM410.78,408.98l4.44-1.96c4.98-2.18,3.18-8.79,2.1-11.25-2.34-5.34-5.99-7.76-9.58-6.19l-8.47,3.73,11.94,27.17,3.87-1.7-4.31-9.8Z"/><path class="cls-2" d="M437.02,408.45l-3.77,1.91-11.04-21.8-5.45,2.76-2.37-4.69,14.69-7.43,2.37,4.69-5.46,2.76,11.03,21.81Z"/><path class="cls-2" d="M448.68,402.19l-3.7,2.05-14.36-25.99,3.7-2.05,14.35,25.99Z"/><path class="cls-2" d="M469.49,389.78l-3.37,2.06-12.93-21.17-.05.04,9.71,23.13-3.54,2.17-16.08-19.24-.05.02,12.93,21.17-3.37,2.07-15.47-25.34,5.27-3.22,15.32,18.06.05-.03-9.11-21.84,5.21-3.19,15.47,25.34Z"/><path class="cls-2" d="M481.25,369.14c4.44,6.42,3.71,11.01-.49,13.9-1.53,1.06-4.17,2.09-7.33.71-1.94-.87-3.65-2.6-5.39-5.02l-11.2-16.18,3.54-2.46,10.96,15.83c2.35,3.41,4.73,3.98,6.35,2.85,2.39-1.65,2.19-4.02.14-6.98l-11.13-16.08,3.55-2.45,10.99,15.88Z"/><path class="cls-2" d="M506.73,362.74l-3.12,2.41-15.18-19.62-.04.03,12.19,21.93-3.27,2.54-18.1-17.36-.04.04,15.18,19.61-3.13,2.41-18.16-23.48,4.89-3.77,17.22,16.26.05-.02-11.47-20.72,4.84-3.74,18.15,23.48Z"/><path class="cls-1" d="M126.7,49.28l44.55-39.12c22.01,13.31,37.49,22.82,66.57,22.82,21.73,0,44.55-11.95,48.9-15.48,4.35,3.53,27.18,15.48,48.91,15.48,29.07,0,44.55-9.5,66.56-22.82l44.56,39.12c-7.07,5.71-28.53,29.07-28.53,50.8,0,27.44,29.07,65.93,29.07,124.97,0,117.63-139.36,104.32-160.57,129.85-21.19-25.54-160.56-12.23-160.56-129.85,0-59.04,29.07-97.53,29.07-124.97,0-21.73-21.46-45.09-28.52-50.8Z"/><path class="cls-2" d="M240.8,83.52c0,3.26,1.09,4.89,3.26,4.89,6.52,0,5.7-10.87,5.16-15.49-.82,4.89-8.42,6.52-8.42,10.6Z"/><path class="cls-2" d="M190.81,54.45c7.33,0,5.98-11.95,11.41-12.77-4.08.27-15.21,2.72-15.21,8.97,0,2.17,1.9,3.8,3.81,3.8Z"/><path class="cls-2" d="M179.67,64.51c1.62,0,4.07-2.45,4.07-4.62s-2.45-7.34.28-10.05c-2.18.81-7.62,3.26-7.62,11.41,0,1.63,1.37,3.26,3.27,3.26Z"/><path class="cls-2" d="M188.91,63.96c2.99,0,9.78-5.97,9.23-10.86-1.9,4.35-13.03,1.63-13.03,7.88,0,1.36,1.35,2.99,3.8,2.99Z"/><path class="cls-2" d="M174.24,76.19c1.9,0,3.25-1.9,3.25-5.43,0-2.71-4.88-8.42-5.42-11.14-1.37,2.72-4.35,16.57,2.17,16.57Z"/><path class="cls-2" d="M179.13,71.57c0,.82,1.09,2.45,3.26,2.45,1.63,0,9.78-3.8,10.59-9.78-2.98,3.53-13.85.27-13.85,7.33Z"/><path class="cls-2" d="M171.8,88.41c2.16,0,3.25-1.63,3.25-4.89,0-4.07-7.61-5.71-8.41-10.6-.55,4.62-1.37,15.49,5.16,15.49Z"/><path class="cls-2" d="M174.78,102.27c1.9,0,3.8-1.09,3.8-3.8,0-6.25-9.78-3.8-11.95-9.78-.28,3.26,2.44,13.59,8.14,13.59Z"/><path class="cls-2" d="M187.73,74.46c.22-.06.43-.12.63-.18-.22.02-.43.08-.63.18Z"/><path class="cls-2" d="M187.73,74.46c-3.75.99-10.77,1.83-10.77,8.25,0,2.17,1.9,2.99,3.79,2.99,3.82,0,4.06-9.78,6.98-11.24Z"/><path class="cls-2" d="M182.12,97.38c4.88,0,2.99-10.32,4.61-12.5-2.45,1.63-8.15,3.81-8.15,8.97,0,1.09.54,3.53,3.53,3.53Z"/><path class="cls-2" d="M184.29,111.23c0-6.79-12.49-4.08-14.12-8.43.81,4.35,6.52,11.41,9.51,11.41,1.35,0,4.62.27,4.62-2.99Z"/><path class="cls-2" d="M189.18,109.06c1.63,0,2.71-1.9,2.71-3.8,0-2.17-6.24-6.79-4.35-10.59-2.17,2.98-6.25,14.39,1.64,14.39Z"/><path class="cls-2" d="M193.79,115.58c-3.8,0-8.14,4.62-13.3,2.17,3.26,2.72,8.96,5.7,12.77,5.7,2.17,0,5.16-1.35,5.16-4.34,0-1.9-1.9-3.53-4.63-3.53Z"/><path class="cls-2" d="M225.04,54.45c1.9,0,3.81-1.63,3.81-3.8,0-6.25-11.14-8.69-15.21-8.97,5.43.81,4.08,12.77,11.4,12.77Z"/><path class="cls-2" d="M232.1,59.89c0,2.17,2.44,4.62,4.07,4.62,1.9,0,3.27-1.64,3.27-3.26,0-8.15-5.43-10.59-7.62-11.41,2.72,2.71.27,7.87.27,10.05Z"/><path class="cls-2" d="M217.71,53.1c-.55,4.89,6.25,10.86,9.23,10.86,2.44,0,3.81-1.63,3.81-2.99,0-6.25-11.14-3.53-13.04-7.88Z"/><path class="cls-2" d="M241.61,76.19c6.53,0,3.54-13.85,2.17-16.57-.54,2.72-5.43,8.42-5.43,11.14,0,3.53,1.35,5.43,3.26,5.43Z"/><path class="cls-2" d="M236.72,71.57c0-7.06-10.87-3.8-13.86-7.33.82,5.98,8.96,9.78,10.6,9.78,2.18,0,3.26-1.63,3.26-2.44Z"/><path class="cls-2" d="M237.26,98.47c0,2.72,1.91,3.8,3.81,3.8,5.7,0,8.42-10.33,8.15-13.59-2.17,5.98-11.95,3.53-11.95,9.78Z"/><path class="cls-2" d="M228.1,74.46c-.2-.1-.4-.16-.63-.18.2.06.41.12.63.18Z"/><path class="cls-2" d="M238.89,82.71c0-6.42-7.03-7.26-10.79-8.25,2.92,1.46,3.16,11.24,6.99,11.24,1.9,0,3.8-.82,3.8-2.99Z"/><path class="cls-2" d="M233.73,97.38c2.99,0,3.54-2.45,3.54-3.53,0-5.16-5.7-7.34-8.15-8.97,1.64,2.18-.26,12.5,4.62,12.5Z"/><path class="cls-2" d="M231.56,111.23c0,3.26,3.26,2.99,4.61,2.99,3,0,8.69-7.07,9.51-11.41-1.63,4.35-14.12,1.63-14.12,8.43Z"/><path class="cls-2" d="M226.67,109.06c7.87,0,3.8-11.41,1.63-14.4,1.9,3.8-4.34,8.42-4.34,10.59,0,1.9,1.08,3.81,2.71,3.81Z"/><path class="cls-2" d="M222.05,115.58c-2.71,0-4.62,1.63-4.62,3.53,0,2.99,3,4.34,5.16,4.34,3.8,0,9.51-2.98,12.77-5.7-5.16,2.45-9.51-2.17-13.31-2.17Z"/><path class="cls-2" d="M212.82,113.95c0-.32-.01-.62-.03-.92.68.99,1.9,2,3.01,2,5.98,0,6.79-9.24,6.79-12.5-.5,3.53-8.97,4.03-10.17,8.22-.87-3.14-3.01-4.14-4.5-4.14s-3.62,1-4.49,4.16c-1.18-4.21-9.68-4.69-10.18-8.23,0,3.26.82,12.5,6.79,12.5,1.12,0,2.35-1.03,3.03-2.02-.02.3-.03.61-.03.93,0,1.9.26,13.31-3.54,14.67,4.61,1.09,5.43-2.45,8.42-2.45s3.81,3.53,8.43,2.45c-3.81-1.36-3.53-12.77-3.53-14.67Z"/><path class="cls-2" d="M329.37,88.41c2.17,0,3.26-1.63,3.26-4.89,0-4.07-7.61-5.71-8.42-10.6-.54,4.62-1.36,15.49,5.16,15.49Z"/><path class="cls-2" d="M382.62,54.45c1.9,0,3.8-1.63,3.8-3.8,0-6.25-11.14-8.69-15.21-8.97,5.43.81,4.08,12.77,11.41,12.77Z"/><path class="cls-2" d="M389.68,59.89c0,2.17,2.45,4.62,4.08,4.62,1.9,0,3.26-1.64,3.26-3.26,0-8.15-5.43-10.59-7.61-11.41,2.71,2.71.27,7.87.27,10.05Z"/><path class="cls-2" d="M375.29,53.1c-.55,4.89,6.25,10.86,9.23,10.86,2.45,0,3.81-1.63,3.81-2.99,0-6.25-11.14-3.53-13.04-7.88Z"/><path class="cls-2" d="M399.19,76.19c6.52,0,3.54-13.85,2.18-16.57-.55,2.72-5.43,8.42-5.43,11.14,0,3.53,1.35,5.43,3.26,5.43Z"/><path class="cls-2" d="M394.3,71.57c0-7.06-10.87-3.8-13.85-7.33.82,5.98,8.96,9.78,10.59,9.78,2.17,0,3.26-1.63,3.26-2.45Z"/><path class="cls-2" d="M398.37,83.52c0,3.26,1.09,4.89,3.27,4.89,6.52,0,5.71-10.87,5.16-15.49-.82,4.89-8.43,6.52-8.43,10.6Z"/><path class="cls-2" d="M394.85,98.47c0,2.72,1.9,3.8,3.8,3.8,5.7,0,8.42-10.33,8.15-13.59-2.18,5.98-11.95,3.53-11.95,9.78Z"/><path class="cls-2" d="M385.69,74.46c-.2-.1-.4-.16-.62-.18.2.06.41.12.62.18Z"/><path class="cls-2" d="M396.48,82.71c0-6.42-7.04-7.26-10.79-8.25,2.92,1.46,3.16,11.24,6.98,11.24,1.9,0,3.8-.82,3.8-2.99Z"/><path class="cls-2" d="M391.32,97.38c2.98,0,3.53-2.45,3.53-3.53,0-5.16-5.71-7.34-8.15-8.97,1.63,2.18-.27,12.5,4.62,12.5Z"/><path class="cls-2" d="M389.14,111.23c0,3.26,3.26,2.99,4.61,2.99,2.99,0,8.7-7.07,9.51-11.41-1.63,4.35-14.13,1.63-14.13,8.43Z"/><path class="cls-2" d="M384.25,109.06c7.88,0,3.8-11.41,1.64-14.4,1.9,3.8-4.35,8.42-4.35,10.59,0,1.9,1.09,3.81,2.71,3.81Z"/><path class="cls-2" d="M379.63,115.58c-2.72,0-4.62,1.63-4.62,3.53,0,2.99,2.99,4.34,5.16,4.34,3.81,0,9.51-2.98,12.77-5.7-5.16,2.45-9.52-2.17-13.31-2.17Z"/><path class="cls-2" d="M348.39,54.45c7.33,0,5.98-11.95,11.42-12.77-4.08.27-15.21,2.72-15.21,8.97,0,2.17,1.9,3.8,3.8,3.8Z"/><path class="cls-2" d="M337.25,64.51c1.63,0,4.08-2.45,4.08-4.62s-2.45-7.34.27-10.05c-2.17.81-7.6,3.26-7.6,11.41,0,1.63,1.36,3.26,3.25,3.26Z"/><path class="cls-2" d="M346.49,63.96c2.99,0,9.78-5.97,9.23-10.86-1.9,4.35-13.04,1.63-13.04,7.88,0,1.36,1.36,2.99,3.81,2.99Z"/><path class="cls-2" d="M331.81,76.19c1.91,0,3.26-1.9,3.26-5.43,0-2.71-4.89-8.42-5.43-11.14-1.36,2.72-4.35,16.57,2.17,16.57Z"/><path class="cls-2" d="M336.71,71.57c0,.82,1.08,2.45,3.26,2.45,1.63,0,9.78-3.8,10.6-9.78-2.99,3.53-13.86.27-13.86,7.33Z"/><path class="cls-2" d="M332.36,102.27c1.9,0,3.8-1.09,3.8-3.8,0-6.25-9.77-3.8-11.95-9.78-.28,3.26,2.44,13.59,8.15,13.59Z"/><path class="cls-2" d="M345.32,74.46c-3.75.99-10.78,1.83-10.78,8.25,0,2.17,1.9,2.99,3.8,2.99,3.83,0,4.07-9.78,6.98-11.24Z"/><path class="cls-2" d="M345.32,74.46c.22-.06.43-.12.63-.18-.22.02-.43.08-.63.18Z"/><path class="cls-2" d="M339.7,97.38c4.89,0,2.99-10.32,4.62-12.5-2.45,1.63-8.16,3.81-8.16,8.97,0,1.09.55,3.53,3.54,3.53Z"/><path class="cls-2" d="M341.87,111.23c0-6.79-12.49-4.08-14.12-8.43.81,4.35,6.51,11.41,9.5,11.41,1.35,0,4.62.27,4.62-2.99Z"/><path class="cls-2" d="M346.75,109.06c1.63,0,2.73-1.9,2.73-3.8,0-2.17-6.26-6.79-4.35-10.59-2.17,2.98-6.25,14.39,1.62,14.39Z"/><path class="cls-2" d="M351.38,115.58c-3.8,0-8.16,4.62-13.31,2.17,3.26,2.72,8.96,5.7,12.76,5.7,2.17,0,5.16-1.35,5.16-4.34,0-1.9-1.9-3.53-4.61-3.53Z"/><path class="cls-2" d="M370.39,113.95c0-.32-.01-.62-.03-.92.67.99,1.9,2.01,3.02,2.01,5.98,0,6.79-9.24,6.79-12.5-.5,3.54-8.98,4.03-10.17,8.22-.87-3.14-3.01-4.14-4.49-4.14s-3.62,1-4.49,4.14c-1.2-4.19-9.67-4.69-10.18-8.22,0,3.26.82,12.5,6.79,12.5,1.11,0,2.34-1.02,3.02-2.01-.02.29-.03.6-.03.92,0,1.9.27,13.31-3.53,14.67,4.63,1.09,5.43-2.45,8.43-2.45s3.8,3.53,8.42,2.45c-3.8-1.36-3.53-12.77-3.53-14.67Z"/><path class="cls-2" d="M341.33,166.66c4.22-.6,6.4-2.43,6.4-7.07,0-3.2-2.6-6.8-9.32-9.91l-44.76-87.46,4.01-7.9c2.96-5.8-3.97-9.27-6.97-3.4l-1.39,2.86-1.4-2.86c-3-5.86-9.93-2.4-6.97,3.4l4.01,7.84-44.75,87.52c-6.73,3.11-9.33,6.71-9.33,9.91,0,4.63,2.19,6.46,6.41,7.07v25.03c-3.46,2.22-11.57,9.57-11.57,26.86,0,13.29,1.58,24.4,11.57,30.11v57.54l7.79-2.44v-51.12l82.97,42.26c6.35,3.53,5.56,11.14,5.56,14.39,8.72-2.44,14.01-15.21,14.01-27.17,0-11.03-2.87-19.24-6.28-24.92v-90.53ZM239.72,242.43l-.07-.03c-4.14-2.15-5.85-7.82-6.56-13.14.85,1.46,3.79,3.52,6.63,5.28v7.89ZM239.72,226.82c-3.14-2.01-6.31-4.2-7.13-5.4,0-.45,0-.87,0-1.24,0-1.95.21-4.26.58-6.64.41,1.3,3.38,3.54,6.56,5.65v7.64h0ZM239.72,211.66c-2.95-2.02-5.34-4.05-5.03-5.32.79-2.84,1.72-5.25,2.65-6.53,0,1.24.97,2.54,2.39,3.83v8.02ZM289.31,70.68l5.6,10.95c-2.19-.02-4.43-.02-6.77.02-1.91-.03-2.18,3.35.27,3.7,2.75-.01,5.58.03,8.44.09l1.83,3.58c-1.23-.03-2.48-.05-3.76-.07-3.79.13-4.07,3.39.27,3.77,1.81.03,3.64.09,5.46.15l2.27,4.44c-3.89-.17-8.04-.25-12.48-.22-3.26.13-3.81,3.52.13,3.73,4.7.01,9.55.13,14.34.39l2.29,4.47c-3.64-.22-7.54-.38-11.73-.43-2.18,0-2.99,3.63.41,3.78,4.44.09,8.95.28,13.34.6l3.18,6.22c-4.32-.38-9.1-.65-14.34-.77-2.58-.05-4.49,3.49-.14,3.76,5.55.15,11.22.49,16.54,1.04l3.65,7.14c-6.41-.75-14.19-1.31-23.18-1.39-3.39,0-7.74,3.91-1.89,3.91,9.19.09,18.85.54,27.25,1.73l3.64,7.12c-5.29-.79-11.85-1.51-19.6-1.89-3.54,0-9.37,2.88.27,3.81,7.72.4,15.25,1.18,21.61,2.52l1.69,3.31c-9.03-2.19-21.65-3.68-38.63-3.68s-29.53,1.48-38.56,3.68l38.61-75.47ZM252.93,249.22l-7.65-3.94v-7.48s.09.06.13.07l7.53,3.91v7.43h0ZM252.93,234.36l-6.56-3.44c-.25-.16-.64-.39-1.1-.67v-7.56c.85.52,1.58.96,2.07,1.27l5.58,2.96v7.45ZM252.93,219.45l-4.59-2.46c-.78-.48-1.86-1.12-3.06-1.83v-7.57c1.42.87,2.83,1.7,4.03,2.44l3.62,1.96v7.46h0ZM268.54,257.24l-9.26-4.76v-7.39l9.26,4.81v7.35ZM268.54,242.54l-9.26-4.85v-7.42l9.26,4.9v7.37ZM268.54,227.79l-9.26-4.95v-7.42l9.26,5.01v7.36ZM284.4,265.4l-9.52-4.89v-7.32l9.52,4.94v7.27ZM284.4,250.85l-9.52-4.99v-7.34l9.52,5.04v7.28ZM284.4,236.26l-9.52-5.09v-7.32l9.52,5.15v7.25ZM299.74,273.29l-8.99-4.62v-7.24l8.99,4.67v7.19ZM299.74,258.89l-8.99-4.71v-7.25l8.99,4.76v7.21ZM299.74,244.47l-8.99-4.81v-7.21l8.99,4.87v7.15ZM314.81,281.04l-8.73-4.48v-7.16l8.73,4.53v7.12ZM314.81,266.8l-8.73-4.57v-7.18l8.73,4.62v7.13ZM314.81,252.52l-8.73-4.66v-7.1l8.73,4.72v7.05ZM328.3,287.97l-7.14-3.67v-7.08l7.14,3.71v7.05ZM328.3,273.86l-7.14-3.74v-7.1l7.14,3.78v7.06ZM328.3,259.73l-7.14-3.82v-7l7.14,3.87v6.96ZM333.53,171.11c-7.84-1.91-23.6-4.72-45.66-4.69-4.63.23-6.53,3.37.55,3.7,15.86.22,34.17,1.57,45.11,5.71v4.68c-6.02-1.27-12.46-2.43-19.35-3.38-6.78-.86-7.71,1.71-.98,2.83,2.41.3,10.37,1.78,20.34,4.16v6.28c-6.19-1.51-17.32-3.58-32.64-4.37v-13.67h-22.8v13.55c-5.97.23-12.32.68-19.03,1.39-6.79.82-7.07,3.53-.28,2.99,2.31-.28,9.73-.74,19.3-.87v4.67h22.8v-4.27c12.29.67,24.49,2.21,32.64,5.29v5.99c-5.94-1.25-12.28-2.39-19.08-3.33-6.79-.86-7.71,1.71-.99,2.84,2.39.29,10.23,1.74,20.07,4.09v5.8c-9.69-2.36-31.5-6.1-62.27-4.14-8.39.23-9.07,3.52.71,3.25,17.38-.51,46.54-.07,61.56,5.6v6.97c-6.08-1.48-16.93-3.51-31.81-4.32-3.52.4-9.52,3.18.54,3.83,11.8.71,23.43,2.24,31.27,5.21v6.43c-2.53-.62-5.88-1.33-10.02-2.01-3.58-.28-6.32,2.04.75,4.14,3.44.71,6.58,1.56,9.27,2.58v10.44c-.35-.24-.69-.44-1-.6l-82.24-44.82c-1.61-.99-3.45-2.07-5.23-3.19v-33.62c6.12-1.43,17.23-5.03,44.2-5.03s38.14,3.6,44.27,5.03v4.87h0ZM296.77,183.9c0,2.63-2.14,4.77-4.77,4.77s-4.77-2.13-4.77-4.77,2.13-4.77,4.77-4.77c2.63,0,4.77,2.14,4.77,4.77ZM289.26,154.7c-25.63,0-42.12,5.47-44.85,5.47s-3.81-.71-3.81-2.48c0-2.04,2.78-2.99,4.86-3.84,9.12-2.99,23.38-5.11,43.8-5.13,20.59,0,34.7,2.12,43.87,5.13,2.07.85,4.86,1.8,4.86,3.84,0,1.77-1.06,2.48-3.8,2.48-2.74,0-19.31-5.47-44.92-5.47ZM338.29,266c-.95-.85-2.78-2.15-4.44-3.2v-5.38c1.85,2.42,3.33,5.4,4.44,8.58ZM338.55,297.33c0-2.08-2.23-4.2-4.7-5.96v-7.14c3.01,1.9,5.64,3.85,6.34,6.03,0,0,0,0,0-.01-.35,2.27-.87,4.63-1.66,7.08ZM340.79,284.05c-.02-.25-.04-.45-.07-.59-.37-2.13-3.56-4.39-6.87-6.42v-7.19c3.08,1.74,5.38,3.07,6.42,4.19.39,2.43.59,4.81.59,6.97,0,.99-.02,2-.07,3.03Z"/><path class="cls-2" d="M263.93,277.1c-2.42.14-4.2.28-5.14.39-6.79.55-6.51-2.18.28-2.99,1.64-.18,3.27-.34,4.88-.47,1.24-.07,3.77,2.68-.01,3.07Z"/><path class="cls-2" d="M279.44,273.07c-1.7.06-3.41.13-5.17.22-2.44.27-5.29,3.99-.54,3.42,1.8-.05,3.71-.08,5.71-.11,1.9-.33,3.78-3.75,0-3.53Z"/><path class="cls-2" d="M299.27,283.75c-6.16-.27-12.96-.34-20.36-.07-2.45.19-4.23,3.3.81,3.52,6.01-.06,12.76.02,19.55.34,2.46,0,5.01-3.5,0-3.78Z"/><path class="cls-2" d="M265.06,299.86c-3.01.15-5.18.32-6.27.45-6.79.54-6.51-2.17.28-2.98,2.03-.22,4.02-.41,5.98-.58,1.9.03,4.5,2.93.01,3.11Z"/><path class="cls-2" d="M282.7,295.8c-1.77.03-3.58.09-5.43.17-1.77.13-3.94,3.44,0,3.49,1.83-.03,3.74-.04,5.71-.05,1.91-.04,3.66-3.64-.28-3.6Z"/><path class="cls-2" d="M306.36,296.4c-2.74-.21-5.65-.37-8.7-.49-2.73.05-5.02,3.14-.27,3.77,2.98.13,5.98.3,8.95.53,2.46.1,4.78-3.5.02-3.81Z"/><path class="cls-2" d="M327.77,299.18c-2.56-.49-5.54-.99-8.9-1.46-2.33-.26-4.56,2.99-.05,3.88,2.88.44,5.61.95,8.15,1.57,1.93.55,5.52-2.13.81-3.99Z"/><path class="cls-2" d="M286.78,136.29c-1.39.04-2.79.07-4.22.13-1.75-.05-2.71,3.02,1.23,3.59.99-.02,1.99-.03,3-.04,1.91.06,3.26-3.35,0-3.68Z"/><path class="cls-2" d="M267.06,126.88c-.73.07-1.44.14-2.17.22-1.76.45-2.51,3.05.22,3.05.52-.03,1.41-.04,1.97-.08,1.35-.08,2.52-3.29-.02-3.18Z"/><path class="cls-2" d="M280.94,125.89c-1.42.06-2.88.14-4.34.23-2.31.32-2.18,3.33.4,3.46,1.28-.04,2.6-.08,3.94-.11,1.5-.17,2.85-3.86,0-3.57Z"/><path class="cls-2" d="M282.98,115.21c-1.91.08-3.86.17-5.86.28-1.34-.05-3.11,3.2.42,3.47,1.66-.06,3.39-.1,5.17-.14,1.9.01,2.71-3.44.27-3.62Z"/><path class="cls-2" d="M288.28,105.29c-1.91.03-3.86.09-5.85.17-1.49.07-2.3,3.15,1.35,3.58,1.48-.02,2.97-.04,4.5-.05.95-.07,2.85-3.53,0-3.7Z"/><path class="cls-2" d="M283.78,97.26c-1.02.03-2.06.07-3.12.12-1.21.13-3.67,3.18.55,3.56.85-.02,1.7-.04,2.57-.05,1.64.02,2.58-3.62,0-3.63Z"/><path class="cls-2" d="M284.47,92.72c.86-.02,1.72-.02,2.58-.03,2.32-.06,1.36-3.46-.82-3.67-.5.02-.99.03-1.5.04-1.35.16-3.12,3.21-.27,3.65Z"/><path class="cls-2" d="M260.17,170.86c-.57.05-1.03.1-1.38.14-6.79.54-6.51-2.18.28-2.99,3.53,0,5.46,2.72,1.1,2.85Z"/></svg>