<?xml version="1.0" encoding="UTF-8"?><svg id="Layer_1" xmlns="http://www.w3.org/2000/svg" viewBox="0 0 144.37 169.07"><defs><style>.cls-1{fill:#030202;}.cls-2{fill:#de9229;}.cls-3{fill:#f29f2e;}.cls-4{fill:#020202;}.cls-5{fill:#fff;}.cls-6{fill:#2a1f10;opacity:.95;}.cls-6,.cls-7{isolation:isolate;}.cls-8{fill:#e19327;}.cls-9{fill:#f4a02d;}.cls-7{fill:#1e160d;opacity:.24;}</style></defs><g id="_1b12043c"><path class="cls-7" d="M0,.69c.02-.23.06-.46.09-.69v.19c.06.73.06,1.46.05,2.19,0,32.68,0,65.36,0,98.04-.07-.46-.13-.92-.14-1.38C0,66.25,0,33.47,0,.69Z"/></g><g id="_291c07f1"><path class="cls-6" d="M.1,0c47.14.06,94.28,0,141.43.03.95.02,1.91-.08,2.85.09h-.2c-.93.17-1.88.08-2.82.09-47.08-.02-94.17,0-141.25-.03v-.19Z"/></g><g id="_000000ff"><path d="M.11.19c47.08.02,94.16,0,141.25.03.94-.01,1.88.08,2.82-.08.04.69.05,1.38.04,2.07,0,32.61,0,65.23,0,97.84-.04,10.5-2.54,21.28-8.71,29.92-4.57,6.52-10.9,11.59-17.73,15.57-8.57,5.85-18.37,9.42-27.83,13.53-6.24,2.71-12.49,5.65-17.78,9.99-4.18-3.46-9.01-6-13.91-8.27-9.25-4.25-18.94-7.6-27.75-12.76-1.97-1.14-3.83-2.47-5.81-3.62-8.13-4.98-15.33-11.86-19.48-20.55C1.68,116.6.19,108.46.14,100.41c.01-32.68,0-65.36,0-98.04,0-.73.01-1.46-.04-2.19M8.55,8.09c0,28.86,0,57.71,0,86.57.01,3.64-.09,7.29.3,10.91.71,7.42,3.15,14.79,7.73,20.73,3.72,4.89,8.65,8.73,13.92,11.82,8.77,5.14,18.42,8.48,27.64,12.71,4.94,2.28,9.81,4.84,14.02,8.32,6.37-5.21,14.05-8.4,21.56-11.6,9.21-3.91,18.69-7.65,26.65-13.85,4.16-3.25,7.78-7.25,10.31-11.89,2.81-5.08,4.3-10.81,4.83-16.57.35-3.4.25-6.82.27-10.24,0-28.97,0-57.94,0-86.91-42.41,0-84.82,0-127.23,0Z"/><path d="M62.32,21.59c1.38-1.46,3.55-1.45,5.4-1.42,4.71.34,9.37,1.31,14.11,1.1.34.39.67.79.96,1.22-1.55.53-3.19.51-4.81.45-.52.02-1.12-.11-1.56.23-.23.55-.35,1.14-.63,1.67.7.38,1.52.37,2.25.68,1.19.71,1.98,2,2.04,3.39.49.67.31,1.63.97,2.18.49.41.38,1.09.34,1.65.33.38.61.79.84,1.23-.45.15-.93.2-1.37-.02-1.36-.63-3.05-.13-4.25-1.18.2-.37.45-.71.72-1.02-.96-.59-1.99-1.06-2.89-1.74.34-.42.77-.74,1.25-1-1.36-.86-2.77-1.64-4.01-2.68.42-1.26,1.97-.93,3-1-.72-.56-1.4-1.17-2.08-1.78-1.88-.4-3.68-1.07-5.55-1.52-1.55-.41-3.19-.01-4.74-.44Z"/><path d="M59.22,21.79c.55-.19,1.13-.12,1.67.05-.41.95-.65,2.11-1.58,2.7-1.49.8-3.24.6-4.86.87-.74.02-1.1.86-1.85.84-2.4.16-3.89,2.83-6.39,2.55-.12-.23-.24-.45-.35-.68,4-2.93,8.56-5.11,13.37-6.35Z"/><path d="M83.53,21.88c3.35.43,6.55,1.56,9.7,2.74,1.04.36,1.93,1,2.9,1.5.77.43,1.7.28,2.49.66,1.53.7,3.06,1.39,4.57,2.13-.39.36-.82.92-1.43.79-1.28-.27-2.5-.75-3.76-1.09.96,1.42,2.42,3.15,4.35,2.67,4.23-.95,8.27-2.64,12.54-3.43,1.36-.26,2.89-.23,4.03.65,1.46,1.12,1.98,3.05,2.03,4.81-.03,1.91-.13,3.81-.16,5.72-.04.33.18.6.37.84,1.67,1.97,3.65,3.71,5,5.94.32.69.75,2.18-.41,2.2.71.61,1.4,1.25,2.01,1.97-.18.19-.36.39-.53.58.96.75,1.82,1.63,2.57,2.59-.24.2-.49.4-.74.6.72.78,1.58,1.39,2.43,2-.77.44-1.67.1-2.38-.29-1.19-.68-2.18-1.62-3.28-2.42-.07.07-.21.2-.28.27.37.54.69,1.12.92,1.73-1.39.28-2.09-1.13-2.83-2.02-.46-.65-1.03-1.27-1.11-2.09.61-.3,1.18-.66,1.71-1.09-.95-.88-2.7-1.4-2.76-2.86.36-.1.72-.2,1.09-.3-1.18-.58-2.43-.99-3.7-1.34-.45.59-.93,1.15-1.41,1.71.95.48,1.93.88,2.85,1.41-.05.94.46,1.69,1.11,2.32-.55.35-1.18.17-1.76.02.33.45.66.9.97,1.37-.88.32-1.75-.12-2.61-.28.85.94,1.95,1.6,2.98,2.34-.17.28-.35.55-.53.83.25.4.48.81.7,1.22-.37.03-.74.05-1.1.08.31.28.62.55.93.83-.36.32-.74.61-1.13.89.84.86,1.61,1.79,2.22,2.84-.83.2-1.74.1-2.46.62-.7.42-1.15-.56-1.56-.97-.2.07-.41.15-.6.23.51.7,1.01,1.47,1.81,1.86.13-.17.27-.35.41-.52,1.08.48,1.65,1.6,2.03,2.65-.74.13-1.4-.15-1.86-.74-.17.2-.33.4-.5.6.9,1.21.04,2.71.39,4.04.36,1.44.69,2.9.9,4.37-.62-.22-1.31-.51-1.56-1.18-.39-1.05-.23-2.24-.78-3.25-.52.3-1.06.58-1.67.56.04,1.94-.54,4.1.43,5.89.44-.32.92-.59,1.48-.6-.02.77.13,1.57-.12,2.32-.35.61-1.18,1.32-1.9.84-.58-.33-1.19-.75-1.46-1.39-.29-.86.08-1.76-.04-2.64-.11-.74-.37-1.44-.59-2.15-.16.1-.31.19-.46.29-.72-1.28-.1-2.69.36-3.93-.1-.08-.29-.25-.39-.33-1.28.27-1.1,1.6-.87,2.58-.08.07-.25.2-.34.26-.81-1.96-.55-4.59-2.63-5.8.03-1.3.18-2.62.62-3.85.42-.82,1.63-1.68,2.37-.73-.12-1.25-.78-2.35-1.14-3.54.37-.07.73-.14,1.1-.21.45.82.51,1.79,1.01,2.59.84-2.24.22-4.65.27-6.96.05-.79-.26-1.53-.62-2.22-.48.42-1,.79-1.41,1.28-.4.47-.09,1.1-.04,1.63-.93.07-1.46-.79-2.11-1.29-1.33-.91-.15-3.09,1.18-3.24,2.8.29,4.96-2.06,6.29-4.24,1.25-1.98,1.31-4.39,1.65-6.64.33-2.1.26-4.38-.82-6.27-.95-1.86-3.59-2.38-5.25-1.17.27.24.54.48.82.72-.73,1.3-2.23,1.67-3.51,2.2-1.24.44-1.67,1.98-3.05,2.18-.25.54-.37,1.26-.99,1.5-.8.33-1.68.36-2.51.52.5.7.46,2.13,1.58,2.12,1.74,0,2.98-1.38,4.37-2.22,1.22-.79,2.88-1,4.17-.25-.67.8-1.86.32-2.61.97-.69.54-1.12,1.39-1.95,1.75-.79.3-.75,1.27-1.18,1.87-.4.21-.86.06-1.27-.03-1.05-.4-2.14-.03-3.22-.08-1.14-.07-1.85-1.28-3.02-1.24-1-.01-1.59-.95-2.41-1.38-1.09-.25-2.39-.2-3.12.77-.8-.02-1.6-.06-2.4-.02.54.29,1.22.47,1.49,1.08.83,1.59,1.76,3.14,2.38,4.83-.16.19-.32.37-.48.55.22.34.44.68.66,1.02-.35.29-.71.57-1.07.85-.84-1.1-1.58-2.27-2.32-3.43-.45.25-.93.46-1.41.65.05.2.1.39.15.59.47-.45,1.05-.74,1.67-.42-.09.74-.62,1.59-.1,2.27.59.78,1.42,1.32,2.17,1.92-.43.22-.87.42-1.3.63.79.31,1.86.31,2.3,1.17.71,1.24,1.41,2.5,2.22,3.68.25.32.21.75.25,1.13-1.59.25-2.22-1.64-3.15-2.57-.06.88.21,1.84,1.03,2.29,1.12.66,2.41,1.29,2.89,2.6-1.25.35-2.33-.65-3.46-1.03-1.32-.87-2.6.63-3.18,1.7.1.92,1.03,1.66.83,2.67-.23,1.59-.17,3.21.49,4.7.15-1,.25-2.01.27-3.02,0-.94-.54-1.8-.5-2.74.38-.67.87-1.28,1.31-1.92.83-.25,1.54.44,2.3.64.74.18,1.05.94,1.39,1.53-.64.26-1.3.11-1.89-.18-.7.92-.56,2.1-.6,3.18-.03,1.14-.62,2.16-.85,3.26-.04.94.51,1.79.51,2.73-.05.59-.61.94-1.16.92-.15-.21-.3-.42-.46-.62-.06.63.1,1.24.29,1.84.24.85-.29,1.76-1.1,2.07.03.27.05.54.08.81.07.07.22.22.29.29.48,0,.95-.01,1.43-.02.37-1.23.29-3.36,2.06-3.36,1.05-1.56.5-3.48.28-5.19.27-.83,1.35-.22,1.97-.21.06,1.36-.64,2.95.32,4.12.2-.26.48-.53.41-.9-.11-1.36-.39-2.69-.52-4.05-.06-.71.47-1.31.51-2-.13-.96-.82-1.81-.7-2.81.1-1.03.74-1.89,1.36-2.69.58.54,1.34.58,2.09.4.39,1.1.55,2.28,1.13,3.31.47-1.09-.23-2.57.82-3.39.48,1.04,1.1,2.03,1.38,3.14.04,1.27-1.88,1.27-1.94,2.52-.24,2.29.08,4.59.08,6.89-.05.75.17,1.48.67,2.04.41,0,.82-.01,1.23-.02.18-1.32.17-2.73.93-3.9.36.32,1.17.77.7,1.31-.62.74-.33,1.74-.35,2.62.34-.08.89.01.99-.44.22-1.03,0-2.08-.04-3.12.09-.56.76-1.14.25-1.68-.56-.62-.15-1.47-.08-2.19.4.16.84.36.93.83,1.42,3.99,2.58,8.18,2.48,12.44-.42,2.69.11,5.44-.36,8.12-.35,1.65.05,3.31.33,4.93-1.3-.69-1.26-2.27-1.49-3.53-.18-.19-.49-.33-.46-.63-.05-1.37,0-2.74-.02-4.11-1.54-.54-.78-2.38-1.49-3.47-.42.48-.89.93-1.4,1.31-.88-.89-.09-2.15,0-3.19.14-1.33.35-2.77-.11-4.05-.87.76-1,1.9-.91,2.99-.7-.52-1.19-1.24-1.57-2.02-.47,1.25-.97,2.49-1.28,3.79-.14.47.27.87.3,1.32-.15.79-.5,1.71-1.4,1.86-.18-.49-.34-.99-.52-1.47.34,1.84-.87,3.86-2.56,4.58.24,1.09-.61,1.92-.9,2.91-.13.58-.73.73-1.21.93-.2.68-.4,1.36-.64,2.03-1.48.41-.72,2.31-1.59,3.27-.31,0-.61,0-.91.02.03-.74,0-1.47-.03-2.21-.23,1.17-.41,2.37-.29,3.57.16,1.95,0,3.95.62,5.83.32,1.03.92,1.92,1.45,2.85,1.15-2.34,2.04-4.89,3.87-6.81.2-.34.91-.49.98.01-.01,1.08-.54,2.08-.95,3.06-1.28,2.97-3.16,5.66-4.54,8.56-1.2.36-1.13,1.62-1.36,2.62-.4-.36-1.04-.69-1.03-1.3.41-1.27.98-2.68.43-3.99-.39-.75.9-1.4.24-2.08-.36-.36-.62-1.03-1.12-1.12-.97,1.54,1.06,3.17.17,4.72-.51,1.1-.59,2.33-.66,3.53-.21.13-.41.26-.61.4-.21-.06-.42-.13-.62-.19.03-1.27.18-2.52.3-3.78.1-.78-.41-1.44-.5-2.19-.04-1.29.38-2.55.3-3.83-.33-.6-.99-1.02-1.08-1.74-.11-1,.14-2,.05-3.01-.8.14-1.46.61-2.17.97-.14.49-.28.97-.44,1.45-.3,0-.6,0-.9,0-.1-.89-.06-1.79.03-2.68-2.1.09-1.77-2.52-2.45-3.84-.45,1.02-.61,2.23-1.45,3.03-.55.48-1.27.02-1.86-.14.12,1.14.73,2.15.95,3.27.27-.25.52-.5.82-.72,1.12.88.53,2.49.46,3.69.08.08.23.24.3.32.47-.89.83-1.85,1.42-2.67.88.11.76,1.26.96,1.91.08.68.77.93,1.34,1.05-.04,1.52-.14,3.04,0,4.56,1.08-1.21.38-2.9.22-4.3.09-1.43.51-2.84,1.06-4.16.32,0,.63-.02.95-.02,1.07,2.49.66,5.25.98,7.87.12,1.44.54,2.95.04,4.36-.57.37-1.17.69-1.69,1.12-.36-.04-.72-.08-1.08-.12-.15.36-.29.72-.42,1.09-1.02.41-2.1.68-3.19.77.04-.6.1-1.29.64-1.67,1.05-.8.98-3.09-.58-3.24-.1-1.23-.4-2.45-.92-3.57-.2,1.51.66,2.95.46,4.45-.43,1.04-1.62.19-2.25-.2-.09.46.06,1.04-.26,1.42-.85.29-1.43-.74-1.25-1.47.11-.58.6-.96,1.04-1.29-.16-1.78-.15-3.56-.27-5.34,0-.36-.19-.66-.36-.96-.17.19-.46.34-.43.63-.06,1.46.13,2.92,0,4.38-.37.07-.84-.05-1.15.2-.08.52-.11,1.04-.19,1.56-1.05-.99-1.21-2.48-1.75-3.75-.5.44-1.67,1.02-1.92.05-.51-.89.37-1.62.56-2.43-.08-.7-.57-1.26-.96-1.82-.53,1.46-1.22,2.95-1.11,4.55-.33,0-.65,0-.97,0,.03-1.84.2-3.81-.74-5.47-.25.44-.49.9-.73,1.35-1.53-.99-.45-3.07-.76-4.55-.39-.07-.86-.2-1.16.16-.8.83-1.07,1.99-1.5,3.02-.25,0-.49,0-.74,0-.34-.83.21-1.61.54-2.34.89-1.65,1.65-3.45,2.99-4.78.88-.05,1.15.97,1.22,1.66,1.64-.36,1.95-2.52,1.47-3.91-.5-.35-1.09-.63-1.42-1.16.21-1.06.9-1.94,1.23-2.96.25-.51-.63-.76-.45-1.27.35-.69,1.04-1.18,1.27-1.95.36-1.02.05-2.1-.28-3.07-.25.24-.49.48-.73.71-.28,0-.56-.01-.83-.02-.19-1.67.03-3.35-.06-5.02-.37-.96-.66-1.96-.51-3.01-.28-.02-.55-.04-.83-.05-.16.6-.28,1.21-.37,1.83-.07.04-.21.11-.28.15-1.42.51-2.34,1.75-3.13,2.97-.16.77-.06,1.61-.51,2.31-.99,1.79-1.75,3.9-3.6,4.98.19.77.17,1.68-.44,2.27-1.03,1.03-2.56,1.19-3.94,1.33,0,.56.04,1.12.07,1.68-1.5.87-3.03-.48-4.13-1.41-.62,1.49.54,3.02,1.06,4.39-.77.29-1.37-.32-1.86-.82-1.38-.06-2.77.09-4.14-.06-.75-.58-1.34-1.43-2.39-1.47-.04-2.44-3.52-1.71-4.18-3.71.49-.38,1.11-.78,1.11-1.48.45-2.07-.08-4.15-.55-6.17-.2-.92-1.14-1.32-1.8-1.87.15-.48.29-.95.4-1.44-.26.33-.48.69-.79.98-.51.21-1.09.04-1.61.22-.34.4-.22,1.02-.09,1.48.38,1.16.88,2.28,1.18,3.47-2.83.5-6.02-1.73-6.17-4.7-.62-.48-1.24-.97-1.76-1.56.94-.37,2.43-.39,2.74-1.55-.19-1.36-1.42-2.24-2.24-3.24.51-.67,1.63-.92,1.37-1.96-.87-.03-1.26.69-1.63,1.34-.58.17-1.05-.33-1.33-.76-.69-1.07-.6-2.39-.98-3.57-.22-.8-1.27-1.25-1.01-2.19.28-1.53,0-3.35,1.2-4.55-.88,0-1.32-.74-1.73-1.39-.24.64.01,1.35-.16,1.98-1.32,1.38-1.03,3.46-.67,5.17.1.82.81,1.33,1.15,2.03.02.49-.41.94-.3,1.43.28.35.69.59.99.93.21,1.06-.4,2.27.32,3.21.33.6,1.05.67,1.61.93.22.35.16.79.02,1.16-.63.57-1.37,1.04-1.83,1.77-.97,1.48-1.22,3.28-1.92,4.88-.31,0-.61,0-.91.01-.18-.56-.23-1.16,0-1.71.61-1.71,1.56-3.27,2.56-4.78-.15-.22-.3-.44-.44-.66-1.06.92-2.06,1.92-3.06,2.91-.24,0-.48,0-.72,0,.01-1.48,1.54-2.25,2.34-3.33.31-.43,1.09-.93.64-1.5-.57-.6-1.47-.11-2.01.29-2.26,1.8-3.68,4.37-5.42,6.61.48-1.46.97-2.98,1.95-4.2,1.2-1.38,2.79-2.38,3.85-3.89.37-.52.59-1.17.47-1.82-.31-2.18-.67-4.35-1.06-6.52-.02-.53-.58-.69-.96-.91-1.7-.8-3.47-1.46-5.28-1.94-1.59-.49-3.21.18-4.82.06.36-.19.73-.36,1.1-.55-1.27-.12-2.55,0-3.83.01,1.46-1.38,3.59-.71,5.35-.55,1.32.31,2.62-.6,3.92-.13-.15.25-.32.49-.49.72,1.62.62,3.24,1.24,4.84,1.89.44-.75.55-2.06-.46-2.37-1.15-.14-2.31,0-3.46-.07.49-.82,1.48-.66,2.29-.72-3.98-1.63-8.38-1.51-12.6-1.18,1.42-.39,2.86-.66,4.31-.91,2.53-.27,5.07.8,7.59.28-.12-.36-.27-.72-.43-1.06.06-.11.16-.33.22-.43,1.2.89,2.18,2.11,3.52,2.78.64-.14,1.22-.66,1.39-1.29-.08-.47-.43-.82-.76-1.13-1.34-1.19-2.99-1.96-4.39-3.07,2.19-.02,3.75,1.83,5.47,2.94,1.89-1.43,2.06-4.15,1.7-6.31-.43-2.46.05-5.07,1.3-7.23.65-.75,1.47-1.4,1.68-2.43.23,0,.46,0,.69,0-.08.27-.16.54-.24.81-.36,1.56-1.43,3.17-.75,4.79.48,1.31,1.27,2.7,2.71,3.13,0,.97-.75,1.65-1.13,2.48.85-.85,1.44-1.94,2.47-2.6.05-.26.1-.53.15-.79.97-.4,2.23-.62,2.23-1.94,1.26-.69,1.86-2.06,2.15-3.4-.58.71-.83,1.7-1.66,2.18-.85.48-1.11,1.68-2.12,1.91-2.38.49-3.68-3.71-1.43-4.61.72.23,1.11.97,1.61,1.49.35-.23.7-.47,1.04-.71-.56-.87-1.51-1.47-2.52-1.65-.58.15-.93.75-1.51.94-.65-.02-1.03-.75-.7-1.3.55-.52,1.35-.6,2.04-.84.67-.18,1.45-.48,2.09-.07.45.4.46,1.08.83,1.54.38.36.94.23,1.4.11-.2-.77-.85-1.56-.42-2.36.84-1.85,1.84-3.7,3.29-5.15.25-.36.65-.07.98-.02.06.7-.17,1.35-.74,1.78-.73.49-.21,1.44-.59,2.1-.34.63-.8,1.18-1.16,1.8.39-.04.77-.13,1.12-.32.13.05.26.1.39.15-.08.55-.14,1.11-.18,1.66.65-.62,1.29-1.31,1.63-2.15.19-.49-.75-.74-.43-1.24.37-.49.96-.76,1.34-1.24.42-.61.32-1.45.83-2,.68-.73,1.65-1.09,2.6-1.35.41,1.01-.36,1.91-.61,2.85.37-.29.69-.63.99-.99.41.02,1.02.05,1.03.59-.06.74-.42,1.45-.88,2.02-.62.42-1.46.45-1.99,1.03-1.02,1.11-.95,2.8-1.97,3.92-.89.89-1.58,2.04-1.42,3.35,1.38-1.1,1.38-3.03,2.44-4.35.74-.98,1.52-1.94,2.42-2.78.29.79-.17,1.53-.42,2.25-.23.55.1,1.16-.14,1.71-.32.77-.84,1.44-1.33,2.11.31.09.62.19.93.29-.23.41-.47.81-.7,1.23,1.47-1.24,3.41-.82,5.16-.88.17-.21.34-.42.51-.63-.37-.06-.75-.08-1.1-.2-.28-.95,1-1.3,1.16-2.15.13-.7.62-1.22,1.29-1.47.28.9.76,1.77.8,2.72-.31.87-.9,1.66-1.6,2.27-.85.28-1.72.52-2.43,1.1-.66.52-1.33-.22-2-.32-1.05.27-1.79,1.24-2.86,1.46-.77,0-.86-.93-1.13-1.47-.87,1.11-1.98,2.16-2.34,3.56.77,0,1.54-.04,2.31-.06.12.47.29,1.06-.13,1.44-.84.76-2.1.5-3.08.98-.55.49-.41,1.39-.97,1.88-.41.35-1,.29-1.5.37.21.38.51.91.13,1.29-.62.49-1.68-.07-2.11.74-.65,1.09-1.22,2.31-2.45,2.87-.13-.45-.25-.91-.38-1.36-.75.98-.15,2.29-.74,3.33-.35.62-.43,1.32-.38,2.02,1.13.22,2.14-.47,2.61-1.46.38-.72,1.07-1.23,1.35-2-1.16.04-1.35,1.48-1.99,2.22-.42.01-.86-.03-1.1-.43.82-1.44,1.77-2.8,2.83-4.07.62-.33,1.36-.39,2-.67.34.43.59.92.81,1.43.68-.53,1.48-.95,1.96-1.69-.49-.08-1.31-.01-1.13-.76.44-1.17,1.37-2.07,2.14-3.04.09.4.18.8.28,1.2.78-.16,1.34-.77,1.53-1.53,1-.33,2.09-.52,3.1-.1,1.3.47,2.7.21,4.05.27.15-.22.3-.44.46-.65-1.99-1.19-4.42-1.15-6.47-2.18.85-.64,1.94-1.03,3.01-.98,1.5.38,2.99,1.58,4.58.79.82-.21.61-1.13.71-1.76,2.65-.76,2.71-4.27,5.06-5.38.71-.42,1.32.5,2.02.13,1.23-.33,2.71-1.63,3.82-.35-.31-.06-.62-.1-.92-.15-.51.62-1.22,1.25-1.12,2.13-.07.7.54,1.13,1.04,1.48.85-.41.83-1.37.85-2.18.51-.09,1.05-.11,1.53.11,1.56.47,3.18,2.05,4.83,1.09,1.05-.59,2.15-1.57,2.2-2.86-.21-.58-.69-1.03-1-1.56.61-.66,1.56-.9,2.43-.88,1,.26,1.53,1.24,2.16,1.97.13-.96.17-1.98.66-2.84.5-.9,1.1-1.79,1.21-2.85.92-.58,2.53-1.52,3.3-.28.51.84,1.47,1.11,2.35,1.4-.27-.82-.61-1.62-1.05-2.36-.73-.57-1.64-.85-2.38-1.4.67-.33,1.38-.54,2.08-.76-.07-.64-.15-1.28-.18-1.92,1.25.29,2.29,1.04,3.35,1.71.85.33,1.7.67,2.52,1.07.93-.25,1.66-.92,2.44-1.45-.68-.86-1.85-.79-2.84-.77.43-2.06-1.51-3.38-2.05-5.19.17-.14.34-.28.51-.42-1.31-.65-2.73-1.03-4.06-1.63-.12-.56-.26-1.12-.39-1.68M90.25,25.13c.46,2.83,4.02,3.44,4.81,6.12-.24.13-.49.26-.73.39.45.25.94.46,1.33.8.19.45.1,1.02.5,1.37.43.42-.04,1.04-.49,1.21-.91.37-1.9.02-2.81-.18.05.36.11.73.17,1.1,1.26.21,2.51.51,3.79.59.29-.43.58-.87.86-1.3.39.09.78.19,1.16.31,0-.4,0-.98.52-1.04,1.19.06,2.27,1.08,3.48.63,1.34-.45,2.5-1.28,3.72-1.97-1.53.27-3.08.81-4.64.43-2.8-.62-4.97-2.76-6.55-5.05-.34-.57-.98-.82-1.51-1.17-.53-.33-.59-1.1-1.18-1.33-.79-.35-1.61-.62-2.43-.89M88.4,35.81c-.55.83-1.32,1.65-1.32,2.71-.06.56-.56.92-.87,1.36.32.44.83.89.7,1.49-.22.53-.69.9-1.06,1.32.89.17,1.92.47,2.61-.31,0-.78,0-1.55,0-2.33-.25-.23-.53-.44-.73-.71,0-.67.65-1.09,1.04-1.56-.84-.8.49-1.83,1.26-1.25.49.34.99.07,1.38-.27-.94-.34-2.04-1.05-3.03-.45M78.55,41.78c-.06.58-.09,1.16-.05,1.75.5.09,1,.04,1.23-.47-.33-.48-.72-.91-1.18-1.28M90.22,42.25c.57.38,1.2.34,1.64-.19-.56-.04-1.12,0-1.64.19M80.67,43.86c.92.24,1.89.25,2.83.38.15-.37.29-.75.43-1.13-1.07.33-2.24.25-3.26.75M87.35,45.59c.61.4.99,1.03,1,1.77.73-.42,1.54-.85,1.94-1.63-.02-.77-.75-1.36-1.39-1.68-.91-.17-1.18.93-1.54,1.53M78.55,44.47c-1.41.34-2.83.69-4.15,1.3,1.16.11,2.61-.74,3.54.27-.12.22-.25.45-.37.68.5.29.96.64,1.36,1.05-.79.9-2.03,1.06-3.03,1.63.32.37.64.74.95,1.12-.19.19-.38.38-.57.57.14.12.29.24.43.37.02,1.06-1.19.92-1.91,1.07.37.66.9,1.2,1.29,1.83-.51.89-1.68.3-2.45.16.17.39.29.8.35,1.22.71.37,1.46,1.2,1.06,2.05-1.2.55-2.19-.71-3.31-.93-.53.1-.94.58-1.51.53-2.04,0-4.07,0-6.11,0-.8-.93-1.63-1.88-2.71-2.49-.94-.69-2.16-.33-3.24-.42-.87,1.06-1.97,2.63-3.53,2.29-.5-.88.77-1.65.37-2.65-.68.21-1.41.51-2.11.2-1.21-.51-2.45.23-3.69.23-1.14-.11-1.66,1.37-2.83,1.2-.02-.32-.04-.65-.07-.97-.79.38-1.09,1.22-1.36,1.99-.19.75-1.16.73-1.51,1.35-.6.82-.97,1.97-2,2.36-.85.22-1.03,1.35-1.95,1.46.22,1.46-1.17,2.52-2.41,2.91-1.13.2-2.28.04-3.42.11.4.87,1.28,1.52,2.28,1.25,1.88-.4,3.94-.79,5.39-2.14.8-.85-.39-1.6-.86-2.22.65-.28,1.33.03,1.98.16.11-1.33,1.04-2.42,2.16-3.07,1.5-.88,3.15-1.51,4.79-2.08.91.13,1.74-.34,2.61-.31.14.6.13,1.31.76,1.63-1.63.34-3.31.39-4.92.81-1.86.69-2.78,2.81-2.73,4.69-.87.4-1.66-.44-2.39-.79-.35,1.31.2,2.67-.27,3.96-.79,2.5-2.73,4.58-5.1,5.67,0,.22,0,.44,0,.66,4.6,1.16,9.25,2.16,13.94,2.89,2.13.32,4.45.51,6.46-.45.66-.28,1.31-1.29.69-1.87-.66-.02-1.32.08-1.98.06,0-.22,0-.45,0-.67.92-.7,1.98-1.17,2.97-1.73,1.05-.58,1.81-1.54,2.72-2.3,0-.21,0-.42,0-.63-1.46-.09-1.43-1.7-1.78-2.74.06-.06.19-.17.26-.23,1,.5,2.01,1.1,2.58,2.11.54-.83.63-2.26,1.79-2.46,1.12.07,2.12.72,3.24.85-.82-.76-1.72-1.52-2.87-1.68-.64-.12-1.61-.42-1.37-1.27.35-.65,1.06-.1,1.41.25.56.61,1.42.64,2.19.72.94.8,1.91,1.6,2.62,2.63-.13.11-.26.22-.39.33-1.35-.39-2.78,1.04-2.24,2.36,1.06,1.33,3.12.62,4.32,1.75,1.51,1.23,1.55,3.34,2.44,4.94.55,1.06,2.17,1.1,2.93.25.8-.76.93-2.05,1.9-2.63.83-.41,1.38.7,1.04,1.37-.48,1.22-.63,2.66-1.62,3.6-.87.9-.85,2.22-.83,3.39.04,1.28-.12,2.75.81,3.78,1.3,1.53,1.56,3.59,2.04,5.47.12-1.85.13-3.7.13-5.54.05-1.15.15-2.47,1.07-3.29-.05-1.54-.32-3.06-.31-4.59.24-.82,1.03-.4,1.52-.07-.24-1.31.58-2.84-.38-3.97-1.27-1.53-3.05-2.5-4.72-3.53-.78-.49-1-1.45-1.53-2.15-1.58-2.21-4.03-3.65-6.55-4.55-1.03-.41-2.35-.99-2.37-2.29,1.65.14,3.3-.02,4.95-.15,1.04-.13,1.92.51,2.88.76,1.11-.03,2.63-.54,3.4.55.63.78-.98,1.53-.15,2.19.98.38,2.24-.2,3.12.55.98.94,1.95,1.96,2.57,3.18-.28.27-.83.53-.52,1,.68,1.16.35,2.58.87,3.8.27-.66.73-1.23,1.41-1.48.04-.54-.05-1.17.34-1.61.66-.57,1.69-.16,2.36-.71.38-.64-.4-1.29-.19-1.96.22-.9.58-1.75.83-2.64.4.44.74.94,1.04,1.46.81-1.08-.77-2.44.43-3.31.51.71,1.14,1.9,2.19,1.29.05-.22.11-.43.17-.65-.55-.9-.52-1.99-.52-3.01-1.06-.56-2.46-.77-3.1-1.89-.55-1.23-.91-2.55-1.08-3.88-.16-.81.84-.92,1.36-1.22-.11-.68.16-1.31.44-1.91.4-.81.03-1.7-.21-2.49-1.61-.6-3.73-.5-5,.76.15.24.31.47.46.71-.39.45-.87.81-1.37,1.15.79.54.91,1.52.02,2.03,0,.26,0,.52,0,.79.52.26,1.01.58,1.45.96-.31.52-.5,1.15-.96,1.57-.53.29-1.16.3-1.73.46.19.24.37.49.56.73-.57.68.08,1.29.68,1.6,0,.11.01.33.02.44-1.39.49-2.77,1.07-4.22,1.39-1.11.1-2.93-.28-2.74-1.76.49-.04.99-.04,1.48-.05-.77-.63-2.25-.91-2.18-2.13,1.31.24,2.45-.25,3.46-1.03-.24-.29-.48-.58-.72-.88.36-.18.72-.37,1.09-.56-.28-.3-.75-.65-.44-1.1.54-.81-.26-1.86.48-2.57.36-.38-.11-.79-.27-1.15.43-.62.99-1.13,1.42-1.75-.17-.18-.34-.36-.51-.54.8-.72.62-1.81.3-2.71-.76-.66-1.77-1.36-2.83-1.07M59.83,44.59c-.46.8-1.38,1.8-.74,2.74.78.99,2.07,1.34,3.06,2.08-1.44.6-2.9-.02-4.34-.25-1.18.29-2.36.82-3.27,1.64.84.12,1.51-.44,2.27-.68,2.04.31,4.06.73,6.1,1.08.97.14,1.96.52,2.94.2,2.25-.42,4.72-1.51,5.56-3.82-.53-.46-1.15-1.21-1.94-.94-1.6.71-2.82,2.44-4.74,2.32-.08-.1-.24-.29-.32-.39.84-.44,1.67-.92,2.37-1.57-1.21.22-2.44.73-3.67.33-1.35-.28-2.32-1.44-2.62-2.75-.22,0-.45,0-.66,0M41.83,47.79c-.06.24-.11.81.29.62.63-.67,1.06-1.51,1.33-2.39-.62.51-1.28,1.03-1.62,1.77M38.37,54.32c.82-.98,1.36-2.16,2.12-3.18-.63-.55-.12-1.25.2-1.81-1.97.86-2,3.18-2.33,4.99M31.23,54.91c1.33.06,1.6-1.46,1.54-2.48-.58.78-1.16,1.58-1.54,2.48M36.1,55.29c1.02-.36,1.18-1.56,1.06-2.5-.63.69-.94,1.59-1.06,2.5M31.12,59.25c.42,0,.85,0,1.27.01-.52-1.29.38-2.43.96-3.51-1.54.44-1.64,2.27-2.23,3.5M34.27,57.44c.53-.37.94-.9.95-1.57-.54.36-.78.97-.95,1.57M36.99,70.09c.44.59,1.26.29,1.88.35-.55-.66-1.15-1.29-1.6-2.03-.25.49-.71,1.15-.28,1.68M110.28,76.03c.31.59.58,1.2.88,1.8.26-1.93.29-3.9-.01-5.83-.25,1.36.35,3-.87,4.03M102.79,78.28c.25-.21.49-.42.73-.63-.01-1.61.1-3.25-.26-4.84-.53,1.76-.48,3.64-.47,5.47M92.17,73.53c-.24.9-.24,1.83-.38,2.75-.11.03-.32.09-.42.13-.02.71-.18,1.43-.71,1.95-.28-.64-.54-1.29-.83-1.91-.86.63-.47,1.78-.9,2.64-.46-.07-.92-.15-1.38-.23-1.14,2.05.82,4.68-.92,6.5-.45-.75-.58-1.62-.82-2.45-.18,1.52-.63,3.59-2.49,3.76,0,.23,0,.46,0,.69,1.77-.14,3.52-.46,5.29-.57.13-.61.12-1.31.5-1.82,1.28-.92,3.08-1.69,3.4-3.41-.34-.92-.51-1.92.18-2.75.54.49,1.14.9,1.79,1.24-.16-1.35-.45-2.82.39-4.02-.42-.56-1.01-1.05-1.73-.68-.34-.6-.63-1.21-.97-1.81M95.46,76.34c.13,2.75.41,5.5.58,8.25.09.9.26,1.94-.36,2.7-.79.84-.56,2.08-.55,3.13.32-1.17,1.23-2.12,1.42-3.32-.17-3.58-.37-7.16-.45-10.74-.21,0-.42-.02-.64-.02M46.14,76.55c.41,1.16,1.89.53,2.52,1.37.44,1.83,1.06,3.94,2.84,4.89-.12-1.72.3-3.43,1.13-4.94-2.22-.12-4.35-.8-6.49-1.32M35.92,77.07c-.39,1.96,1.72,2.9,3.11,3.7-.4-1.04-.65-2.12-.97-3.18-.4-.8-1.43-.45-2.14-.52M83.36,79.94c.05.86.32,1.69.27,2.56-.03.71-.63,1.16-1.08,1.63,0,.35,0,.7.01,1.05.57-.3,1.35-.48,1.62-1.12.17-1.4-.11-2.88-.82-4.11M98.42,82.49c-.24.94-.26,1.93,0,2.87.16-.92,1.07-2.21,0-2.87M77.39,89.75c-.12-.88-.16-2.21-1.26-2.42-.54.99.75,1.71,1.26,2.42M75.25,89.9c-.05.66-.04,1.33.16,1.97.29.95-.26,1.95.12,2.89,1.04,3.2,2.08,6.42,3.48,9.48.17-1.51.14-3.04.3-4.56.35-.09.7-.18,1.05-.27-.31-1.4-.55-2.83-1-4.2-.69.66.04,1.51.18,2.25.27.72-.72,1.67-1.33,1-.9-.94-1.31-2.25-1.61-3.48-.28-.75.73-1.3.41-2.03-.42-1.11-1.04-2.14-1.76-3.07M72.53,95.91c-.12.65-.12,1.32-.03,1.98.57-.55.3-1.36.03-1.98M74.73,96.18c-.2,1.16.02,2.42.8,3.33-.21-1.12-.41-2.26-.8-3.33M93.6,101.04c.03-.56-.05-1.13-.23-1.66-.55.51-.28,1.25.23,1.66Z"/><path d="M64.07,23.29c.62.07.84,1.16,1.56.85.76-.31,1.61-.4,2.3.14-1.09,1.61-3.31,1.08-4.74,2.15-.9.73-2.13-.25-3.02.51-1.04.85-2.46.57-3.64,1.06-1.65.81-3.19,1.9-4.97,2.44-.87.29-1.28-1-.67-1.5.6-.52,1.12-1.14,1.1-1.98,1.36-.32,2.75-.08,4.13-.19.91-1,2.19-1.61,3.54-1.72.88-.08,1.29-1,2.03-1.34.39-.06.72.3,1.11.32.46-.18.8-.56,1.27-.72Z"/><path d="M79.66,23.68c.97,0,1.94,0,2.92,0,.09.37.17.75.26,1.12.83.42,1.85.6,2.4,1.43.96,1.29,1.58,3.03,3.25,3.59-.16.63-.67,1.36-1.42,1.15-1.05-.39-1.97-1.37-3.18-.99-1.18-1.41-1.86-3.28-3.46-4.31-.44-.26-.74-.68-.99-1.11.07-.29.15-.59.22-.88Z"/><path d="M64.69,28.59c1.16-.35,2.33-.77,3.56-.71-.12.4-.25.81-.38,1.21.92-.02,1.86-.22,2.78-.04.84.32.59,1.39.61,2.09.78.45.99,1.37.72,2.19.68.28,1.69.49,1.45,1.46-.62.38-1.36.85-2.1.46-1.65-.78-2.57-2.64-4.36-3.2-1.35-.41-2.66.39-3.93.76-.17-.09-.33-.18-.5-.27.34-.49.74-.93,1.14-1.37-.91-.3-2.24.35-2.64-.88,1.07-.86,2.38-1.31,3.66-1.72Z"/><path d="M46.55,31.9c.52-1.48,1.98-2.33,3.4-2.77.15.15.3.3.45.45-.19.79.02,1.94-.94,2.27-.46.26-.76-.28-1.08-.51-.62.15-1.22.37-1.83.56Z"/><path d="M40.65,30.94c.33-.43.92-.25,1.39-.3.37.91-.48,1.64-.78,2.43-.55.96-.25,2.07-.24,3.11-1.43,1.01-2.69-.48-3.81-1.22,1.19-1.3,2.21-2.75,3.44-4.02Z"/><path d="M50.97,33.12c.31-1.33,1.45-2.73,2.98-2.29-.22,1.23-1.27,1.99-2.15,2.77-.32-.05-.92,0-.84-.48Z"/><path d="M57.14,33.63c.99-.04,1.36-1.05,2.03-1.61.39.32.83.79.53,1.33-.96,2.03-2.19,3.93-3.45,5.79-.34.58-1.13.49-1.55.97-.45.45-.93.87-1.46,1.23-.95-.64.07-1.74.32-2.51-.8-.16-1.97.31-2.43-.57.69-.84,1.55-1.54,2.15-2.45.27-.39-.22-.65-.45-.89,0-.26-.01-.52-.01-.78,1.13-.58,2.02.54,3,.94.39-.51.55-1.39,1.32-1.44Z"/><path d="M62.79,33.58c1.09-.71,2.57-.7,3.77-.28,1.28.42,1.31,2.71-.11,2.92-1.21.4-2.88.37-3.5,1.7-.49.97-1.08,2.33-2.41,2.09-.01-.69-.07-1.41.24-2.05.62-1.48,1.22-2.98,2.02-4.38Z"/><path d="M73.55,34.05c.93-.54,2.22-1.56,3.21-.61-.15.29-.3.58-.45.87-.92-.09-1.84-.17-2.76-.27Z"/><path d="M67.32,38.43c1.19-.77,2.63-.31,3.93-.22,1.19.3,1.29,1.83,1.19,2.83.01.73-.73,1.4-1.45,1.09-1.67-.63-3.21-1.55-4.79-2.35-.15-.76.57-1.06,1.12-1.35Z"/><path d="M95.8,41.38c.46-.71.9-1.44,1.36-2.15.85.5,1.57,1.19,2.14,1.99-.45.1-.9.2-1.35.29.09.25.1.57.34.73.68.67,1.76-.2,2.39.6.01-.53.1-1.06.49-1.46.35.2.7.41,1.05.63-.08,1.04.2,2.16-.29,3.13-.44.93-1,1.8-1.54,2.69.48,0,.96-.02,1.43-.05-.1.78-.14,1.57-.17,2.36-.45.06-.9.11-1.34.15.15.9-.05,2.14,1.1,2.4.11-.26.22-.52.33-.79,1.24-.05,1.82,1.23,2.5,2.05.9,1,.48,2.4.3,3.58-.75.27-1.77.01-2.05-.81-.34-.92-.88-1.9-1.94-2.09.55.61,1.33,1.14,1.15,2.08-.92.53-1.85-.32-1.98-1.23-.22-1.88-.33-3.81-1.01-5.59-.32-.82-1.31-1.65-.64-2.55-.07-.5-.19-1.19.43-1.39.61-.25,1.36-.71,1.11-1.49-.35-.71-1.31-.46-1.95-.51-.58-.89-1.16-1.78-1.87-2.57Z"/><path d="M109.6,40.73c.6.01,1.31-.13,1.68.47-.45.77-1.28.96-2.11.82.09-.45.24-.87.42-1.29Z"/><path d="M50.43,42.97c-.24-1.01.39-1.83,1.25-2.27.23,1-.12,2.1-1.25,2.27Z"/><path d="M36.26,46.83c-1.49-.54-1.1-2.23-.79-3.42.49,1.07.65,2.25.79,3.42Z"/><path d="M106.79,45.36c.86-.8,1.97-.08,2.95.03-.22.87-.86,1.73-1.83,1.76-.82-.14-1.17-1.05-1.11-1.79Z"/><path d="M104.59,48.57c1.45.28,2.41,1.93,1.88,3.32-.3.01-.59.02-.88.03-.65-.96-1.89-2.16-1-3.35Z"/><path d="M110.01,53.01c.65.71,1.27,1.46,1.86,2.22.17.3.17.93-.29.93-.83-.02-1.33-.79-1.84-1.34.09-.6.17-1.21.27-1.81Z"/><path d="M121.7,54.15c.22,0,.44,0,.66,0,1.21,1.54,3.08,2.23,4.71,3.21-1.51,1.45-3.57.03-4.68-1.22-.65-.47-.78-1.24-.69-1.99Z"/><path d="M88.32,56.2c.69.22.12,1.16-.11,1.6-.35-.09-.71-.17-1.07-.27.36-.48.71-.97,1.18-1.34Z"/><path d="M108.87,57.19c1.27.4,1.48,1.87,1.59,3.01-1.08-.62-1.96-1.68-1.59-3.01Z"/><path d="M65.47,58.81c.67-1.33,2.38-.99,3.61-.95,2.42.29,5.2.14,7.12,1.91-.61.26-1.28.3-1.91.09-1.67-.53-3.48.11-5.14-.41-1.01-.59-2.16-.62-3.24-.18-.15-.16-.29-.31-.44-.46Z"/><path d="M123.14,58.33c1.54-.14,2.63,1.16,3.73,2.03-1.4.47-3.75-.31-3.73-2.03Z"/><path d="M53.98,59.08c.16.07.32.14.48.2.18,1.09-.74,1.84-1.39,2.57-.56.71-1.65.6-2.17,1.36-.42.52-.73,1.33-1.49,1.39-.53.07-.78-.45-1.04-.81.34-.53.7-1.04,1.09-1.53.34-.4.15-1.06.64-1.36,1.14-.89,2.56-1.29,3.89-1.81Z"/><path d="M58.19,59.08c.2,0,.4,0,.61,0,0,.58.4,1.1,1.03.92,1.08-.03,2.71-1.04,3.33.32-1.13,1.43-3.4-.21-4.51,1.38,1.03.8,2.25-.51,3.35.13,0,.23,0,.47,0,.71-.45.57-1.07,1.05-1.84.82-.16.51-.31,1.02-.38,1.54.16.13.31.26.47.39-.85.55-1.8-.12-2.69-.19-.56-.94.63-1.61,1.26-2.09-.75-.32-1.56-.27-2.25.16-.28-.21-.6-.52-.39-.9.56-1.13,1.41-2.08,2.02-3.19Z"/><path d="M12.56,61.82c.52-.54,1.09-1.19,1.92-1.08-.32.78-1.1,1.15-1.92,1.08Z"/><path d="M86.24,63.31c.84.26,1.72.67,2.21,1.43-.12.27-.2.73-.54.76-.87-.41-1.29-1.36-1.67-2.19Z"/><path d="M16.17,66.61c2.35-1.15,4.86-2.09,7.48-2.33-.22.26-.42.57-.78.63-3.17.89-6.04,2.54-9.02,3.9.27-1.13,1.37-1.71,2.32-2.2Z"/><path d="M47.76,64.36c.91.35.72,1.39.07,1.91-.24-.02-.49-.04-.73-.09-.52-.67.22-1.36.66-1.83Z"/><path d="M54.96,66.56c.38-.78,1.23-1.63,2.13-1.04.16,1.14-1.33,1.97-2.13,1.04Z"/><path d="M45.84,67.97c-.45-.67-.07-1.68.69-1.9.93.66.08,1.62-.69,1.9Z"/><path d="M52.05,67.05c.56-.17,1.18-.06,1.76-.07.16.52.22,1.19-.28,1.54-.59.53-1.4.23-2.01-.08-.03-.52,0-1.14.54-1.39Z"/><path d="M70.61,67.36c.34-.12.75-.33,1.05,0,1.06.88,1.97,1.93,2.91,2.94-.16.32-.5.78-.86.4-1.18-.95-2.14-2.15-3.1-3.33Z"/><path d="M73.78,67.14c1.47-.24,2.04,1.37,2.57,2.42-1.12.12-2.06-.66-2.64-1.54-.22-.28.01-.6.07-.88Z"/><path d="M57.4,69.91c-.29-1.25.96-1.95,2.05-1.63.08.41.35.92,0,1.27-.49.62-1.37.27-2.05.36Z"/><path d="M48.18,69.88c.33-.78,1.25-1.97,2.14-1.18.54,1.17-1.34,1.73-2.14,1.18Z"/><path d="M54.27,69.94c.57-.42,1.3-.14,1.92,0-.31,1.23-1.49,1.71-2.66,1.44.15-.51.25-1.13.74-1.44Z"/><path d="M50.43,71.36c.47,0,.95,0,1.42.01.15.16.3.32.46.48-.49.47-1.08,1.27-1.85.91-.65-.21-.43-1.05-.03-1.41Z"/><path d="M46.7,71.96c.63-.68,1.86-.42,2.07.5-.44,1.02-2.16.65-2.07-.5Z"/><path d="M17.15,76.54c-.06-1.34,1.39-2.52,2.64-2.61-.82.89-1.27,2.57-2.64,2.61Z"/><path d="M53.56,74.33c.3-.21.59-.42.89-.63.63.11.61.66.58,1.18-.49.09-.98.15-1.47.19,0-.25,0-.5,0-.74Z"/><path d="M69.74,76c.54.36,1.2.57,1.67,1.03.35.54-.13,1.12-.21,1.67.11.74.82,1.26.89,2-.18.92-.61,1.78-.87,2.68-.12.56-.75.69-1.17.97.32.04.65.07.97.1.04.58-.2,1.08-.6,1.48-.49.46-.19,1.19-.43,1.74-.46.59-1.09,1.01-1.63,1.52.32.3.66.58,1.01.85-.49,1-1.3,1.82-1.72,2.86-.31.7.15,1.41.22,2.1.05.7-.29,1.35-.62,1.94-.44-.29-.83-.63-1.17-1.03-.21.87-.48,1.74-.84,2.56.5-.22,1.04-.37,1.56-.13-.05,1.91-1.88,3.57-3.8,3.47-1.56.29-2.54-1.29-4-1.47-.73-.02-.62-1.12-1.36-1.06-.79-.29-1.31.69-2.08.49-1.2-.24-2.44-.59-3.35-1.45-.9.48-.6,1.56-.77,2.38-.19.62-.95.35-1.39.22,0-.73-.11-1.56.51-2.09-.89-.25-1.87-.63-2.1-1.64-.79-.2-1.59-.32-2.4-.34-.27-.4-.56-.78-.88-1.13-.25.21-.49.42-.72.64-.79.19-1.11-.64-.57-1.17.6-.57-.06-1.25-.38-1.77-.12.83-.46,1.71-1.38,1.89-.53-1.25.69-2.3.74-3.51-.43-1.3-1.58-2.21-2.09-3.49-.48-1.07-.8-2.57.12-3.49.79-.64,1.63.19,2.17.74,0,.23-.01.46-.02.69-.33.02-.65.04-.98.06-.12-.01-.35-.04-.46-.05-.19,1.77,1,3.27,2.34,4.26,3,2.17,6.58,3.48,10.25,3.89-.31.33-.64.64-.97.94,2.01,1.17,4.51.43,6.29-.82,2.37-1.71,3.81-4.37,4.94-7,.73-1.61.85-3.4,1.55-5.02.97-2.31,2.25-4.49,3.72-6.52M63.5,98.73c-.09.25-.18.51-.26.76.74.15,1.31-.34,1.74-.87-.49.04-.99.08-1.48.11Z"/><path d="M106.48,77.44c.4.22,1.01.38,1.06.92.05,1.22-.01,2.44.02,3.65.56-.05,1.12-.05,1.68,0,.08,1.51-.06,3.02-.02,4.53.34-.04.68-.09,1.02-.13.16.16.32.33.48.49-.64.91-1.62,1.58-2.02,2.65-.74,1.95-1.78,4.06-.93,6.15-1.22.46-1.93-.77-2.53-1.59-.68.44-1.34.91-2.04,1.3.68-1.81-.08-3.63-.41-5.42-.26-.05-.53-.09-.79-.13-.2-1.03.32-2.08-.12-3.08-.39.53-.84,1.03-1.44,1.33-.01-.65-.08-1.32.03-1.96.6-.82,1.55-1.29,2.28-1.98,1.14.76.2,2.16.43,3.25.41.16.81.33,1.21.52.17.72.32,1.44.52,2.15.33-.32.66-.65.98-.97-.49-.43-1.16-.83-1.25-1.53.12-.64.7-1.04,1.11-1.5,0-.87,0-1.74,0-2.6-.6,0-1.21,0-1.81-.02-.23-1.2,1.08-1.74,1.61-2.62.56-1.06.61-2.29.96-3.42Z"/><path d="M19.02,84.2c.31-.84.7-1.7,1.46-2.24.13.93-.39,1.71-.84,2.46-.21-.08-.41-.15-.62-.23Z"/><path d="M100.82,88.4c.71.59.87,1.52,1.07,2.37.23-.03.45-.06.68-.09.49,1.97-.41,3.95-.78,5.88-1.3-1.37-2.07-3.38-1.62-5.26.17-.98.37-1.95.66-2.91Z"/><path d="M58.49,92.99c.72-.67,1.24-1.52,1.97-2.18.14.87.54,1.91-.15,2.65-1.13,1.2-2.98,1.73-4.56,1.25,0-.44,0-.89.02-1.33.9-.18,1.9.07,2.72-.39Z"/><path d="M97.46,92.98c.14-.89.84-1.56,1.58-2,.31,1.17.69,2.32.84,3.52-.19.17-.37.35-.55.53.02,1.02.06,2.04-.09,3.04-.28.08-.55.16-.82.24-.25,1.28-.5,2.57-1.05,3.76-.52-.54-.99-1.23-.83-2.02.28-1.84.86-3.62,1.22-5.45.14-.57-.24-1.07-.3-1.62Z"/><path d="M43.23,98.22c.37-1.36,1.78-.81,2.79-.79-.01.3-.02.6-.02.89-.46.47-.92.93-1.39,1.39-.51-.45-.95-.97-1.37-1.49Z"/><path d="M45.91,99.65c0-1,1.56-1.94,1.99-.64-.34.74-1.32,1.45-1.99.64Z"/><path d="M48.25,99.84c.35.15.96.17.9.7-.1,1.1-.59,2.16-1.22,3.07-.39.66-1.37-.03-1.16-.67.29-1.11.89-2.12,1.48-3.1Z"/><path d="M41.59,101.13c.24-.52.84-.73,1.35-.48.38.72,0,1.53-.34,2.18,1.2-.04.8,1.13.63,1.87-.36-.02-.72-.04-1.08-.06.05-.34.1-.67.16-1-.38.31-.95.93-1.37.33-.62-.92.17-2.04.66-2.85Z"/><path d="M45.72,100.52c.35.15.83.17,1.02.54.09.78-.42,1.45-.76,2.1-.38-.22-.9-.36-1.05-.83-.04-.69.46-1.25.79-1.82Z"/><path d="M53.58,100.79c.85.12,1.71.11,2.56-.02.63,1.54-.68,2.97-.27,4.51.13.65-.49,1.04-.93,1.39-.66-1.03-1.84-2.08-1.47-3.41.16-.82.12-1.65.11-2.47Z"/><path d="M57.48,103.25c-.59-.84-.22-2.19.95-2.16.14.16.29.31.43.47,0,.58,0,1.17.01,1.75-.45.12-1.05.39-1.4-.06Z"/><path d="M50.28,101.49c.34,0,.69.02,1.04.03.03,1.62-.59,3.17-.88,4.75-.1,1.25-2.43.72-1.95-.44.51-1.48,1.23-2.88,1.8-4.34Z"/><path d="M52.12,103.91c.22,0,.42.11.62.17.29.77.27,1.58.03,2.36-.52,0-1.03-.01-1.55-.03-.24-.93.25-1.85.89-2.5Z"/><path d="M42.52,107.77c-.38-.73.02-1.46.44-2.07.4.08.81.16,1.21.24-.28.85-.37,2.34-1.65,1.83Z"/><path d="M44.53,106.6c.63-.56,1.56-.34,2.23.03.06.98-.18,2.48-1.39,2.58-1.3,0-1.51-1.79-.84-2.61Z"/><path d="M61.08,107.01c.3,0,.6,0,.89-.01.03,1.03.03,2.07.02,3.1-.68.13-1.22.55-1.6,1.12-.39.58-1.14.31-1.69.18,0-.86,0-1.72,0-2.59.35-.19.7-.38,1.05-.57.27.25.54.51.82.76.12-.68.27-1.35.51-1.99Z"/><path d="M46.77,109.91c-.04-.92.57-1.7,1.12-2.38.17.08.34.16.51.25-.05.97.22,2.04-.34,2.91-.55.02-1.16-.18-1.29-.78Z"/><path d="M56.85,109.17c.3-.54,1.07-.37,1.42.01-.02.83-.32,1.63-.36,2.46-.44.12-1.1.27-1.32-.27-.2-.72-.11-1.54.26-2.2Z"/><path d="M52.68,111.71c-.09-.88.55-1.93,1.44-2.16.69.33.9,1.19,1.29,1.8-.68.71-2.05,1.52-2.72.36Z"/><path d="M56.74,120.8c.26-.21.78-.18.72.26.04,4.62-.23,9.24.09,13.86-1.22-.11-2.44-.11-3.66,0,.21-3.77.24-7.55.14-11.32-.83.36-1.64.77-2.43,1.22-.3-.46-.59-.91-.89-1.37,2.08-.71,4.08-1.62,6.03-2.65Z"/><path d="M64.1,121.64c1.7-.76,3.78-.74,5.44.12,1.67.91,2.36,2.89,2.43,4.69.15,2.6-.52,5.45-2.55,7.22-1.88,1.65-4.67,1.95-6.98,1.11.12-.69.22-1.39.3-2.08.79.98,2.16,1.62,3.37,1.02,1.82-.89,2.23-3.15,2.29-4.98-1.77,1.47-5.01,1.37-6.19-.79-1.05-2.14-.4-5.26,1.89-6.3M66.26,122.27c-.8.36-.96,1.35-1.04,2.13-.05,1.05-.13,2.2.37,3.16.49.94,2.09.84,2.43-.18.45-1.23.37-2.61.1-3.88-.15-.83-.99-1.62-1.86-1.24Z"/><path d="M89.98,121.12c1.07.11,2.15.11,3.22,0-.2,2.72-.19,5.45-.17,8.17.57-.04,1.15-.09,1.72-.17-.1.86-.1,1.73,0,2.59-.58-.06-1.16-.11-1.73-.14-.03,1.12.02,2.23.17,3.34-1.1-.1-2.21-.11-3.31,0,.1-1.1.17-2.21.16-3.32-1.8-.07-3.59.02-5.38.14.08-.89-.13-1.83.11-2.69,1.78-2.61,3.55-5.23,5.22-7.91M86.19,129.27h3.83c0-1.9,0-3.81,0-5.72-1.28,1.9-2.56,3.81-3.83,5.72Z"/><path d="M76.7,121.31c1.72-.35,3.77-.31,5.15.93,1.27,1.26,1.45,3.18,1.55,4.88.06,2.12.04,4.43-1.13,6.28-1.45,2.13-4.6,2.25-6.75,1.23-2.3-1.4-2.29-4.47-2.3-6.84-.02-2.5.67-5.79,3.5-6.47M77.7,122.44c-.77.45-.85,1.45-.97,2.25-.17,2.03-.13,4.08-.07,6.12.08.96.09,2.02.68,2.82.6.74,1.92.45,2.19-.46.64-1.84.42-3.83.47-5.74-.06-1.46.05-2.99-.52-4.36-.27-.69-1.14-.97-1.78-.64Z"/></g><g id="_f5a12dff"><path class="cls-9" d="M8.55,8.09c42.41,0,84.82,0,127.23,0,0,28.97,0,57.94,0,86.91-.01,3.41.08,6.84-.27,10.24-.54,5.76-2.02,11.49-4.83,16.57-2.54,4.64-6.15,8.65-10.31,11.89-7.96,6.2-17.44,9.94-26.65,13.85-7.5,3.2-15.18,6.39-21.56,11.6-4.21-3.49-9.08-6.04-14.02-8.32-9.21-4.23-18.86-7.57-27.64-12.71-5.27-3.09-10.2-6.92-13.92-11.82-4.59-5.94-7.03-13.31-7.73-20.73-.4-3.62-.29-7.27-.3-10.91,0-28.86,0-57.71,0-86.57M62.32,21.59c1.55.43,3.18.03,4.74.44,1.86.45,3.67,1.12,5.55,1.52.68.61,1.36,1.22,2.08,1.78-1.03.07-2.58-.26-3,1,1.24,1.04,2.65,1.82,4.01,2.68-.48.25-.91.58-1.25,1,.9.68,1.93,1.15,2.89,1.74-.27.32-.52.66-.72,1.02,1.21,1.04,2.89.55,4.25,1.18.44.22.92.17,1.37.02-.23-.44-.51-.86-.84-1.23.04-.56.15-1.24-.34-1.65-.67-.55-.48-1.51-.97-2.18-.06-1.39-.85-2.68-2.04-3.39-.72-.31-1.55-.29-2.25-.68.28-.53.4-1.12.63-1.67.45-.33,1.04-.21,1.56-.23,1.61.06,3.26.08,4.81-.45-.29-.43-.62-.83-.96-1.22-4.74.21-9.4-.76-14.11-1.1-1.86-.03-4.03-.04-5.4,1.42M59.22,21.79c-4.8,1.24-9.37,3.41-13.37,6.35.12.23.24.45.35.68,2.5.27,3.99-2.39,6.39-2.55.75.01,1.11-.83,1.85-.84,1.62-.28,3.37-.07,4.86-.87.93-.59,1.17-1.75,1.58-2.7-.55-.17-1.12-.25-1.67-.05M83.53,21.88c.13.56.28,1.12.39,1.68,1.33.59,2.75.97,4.06,1.63-.17.14-.35.28-.51.42.54,1.81,2.48,3.13,2.05,5.19.98-.02,2.16-.09,2.84.77-.78.53-1.51,1.2-2.44,1.45-.82-.4-1.67-.74-2.52-1.07-1.06-.67-2.1-1.42-3.35-1.71.03.64.11,1.28.18,1.92-.71.22-1.42.43-2.08.76.75.55,1.66.83,2.38,1.4.44.74.78,1.55,1.05,2.36-.87-.28-1.84-.56-2.35-1.4-.77-1.25-2.38-.3-3.3.28-.11,1.06-.71,1.95-1.21,2.85-.5.86-.53,1.88-.66,2.84-.63-.73-1.17-1.72-2.16-1.97-.87-.01-1.82.22-2.43.88.31.53.79.97,1,1.56-.05,1.29-1.14,2.26-2.2,2.86-1.65.96-3.27-.62-4.83-1.09-.35-.56-.81-1.05-1.38-1.4-1.11-1.28-2.59.02-3.82.35-.7.37-1.31-.55-2.02-.13-2.35,1.11-2.41,4.62-5.06,5.38-.1.63.11,1.56-.71,1.76-1.59.79-3.08-.41-4.58-.79-1.07-.06-2.15.34-3.01.98,2.05,1.04,4.48.99,6.47,2.18-.15.22-.3.44-.46.65-1.35-.06-2.75.2-4.05-.27-1-.42-2.1-.23-3.1.1-.19.76-.75,1.37-1.53,1.53-.1-.4-.18-.8-.28-1.2-.77.97-1.7,1.87-2.14,3.04-.18.75.64.68,1.13.76-.48.75-1.28,1.16-1.96,1.69-.21-.51-.47-.99-.81-1.43-.65.28-1.38.33-2,.67-1.06,1.27-2.01,2.63-2.83,4.07.24.4.68.44,1.1.43.64-.73.83-2.17,1.99-2.22-.29.77-.97,1.28-1.35,2-.47,1-1.47,1.68-2.61,1.46-.04-.7.04-1.4.38-2.02.59-1.03,0-2.35.74-3.33.13.45.25.91.38,1.36,1.22-.56,1.8-1.78,2.45-2.87.43-.81,1.49-.25,2.11-.74.38-.38.09-.91-.13-1.29.5-.08,1.08-.02,1.5-.37.56-.49.43-1.39.97-1.88.97-.47,2.23-.21,3.08-.98.41-.38.24-.97.13-1.44-.77.02-1.54.06-2.31.06.37-1.4,1.48-2.45,2.34-3.56.26.54.36,1.46,1.13,1.47,1.07-.22,1.8-1.19,2.86-1.46.67.11,1.34.84,2,.32.71-.58,1.58-.82,2.43-1.1.7-.6,1.29-1.39,1.6-2.27-.04-.95-.53-1.82-.8-2.72-.66.25-1.15.77-1.29,1.47-.15.85-1.44,1.2-1.16,2.15.35.12.73.14,1.1.2-.17.21-.34.42-.51.63-1.76.06-3.7-.36-5.16.88.23-.41.47-.82.7-1.23-.31-.1-.62-.2-.93-.29.49-.67,1.01-1.34,1.33-2.11.24-.55-.09-1.16.14-1.71.25-.72.71-1.46.42-2.25-.89.84-1.68,1.8-2.42,2.78-1.06,1.32-1.06,3.25-2.44,4.35-.16-1.31.53-2.46,1.42-3.35,1.02-1.12.95-2.81,1.97-3.92.52-.58,1.37-.61,1.99-1.03.47-.57.82-1.28.88-2.02-.01-.55-.63-.57-1.03-.59-.3.36-.62.7-.99.99.25-.94,1.02-1.84.61-2.85-.94.26-1.91.62-2.6,1.35-.51.56-.41,1.4-.83,2-.38.48-.97.75-1.34,1.24-.32.49.62.75.43,1.24-.34.84-.98,1.53-1.63,2.15.04-.55.1-1.11.18-1.66-.13-.05-.26-.1-.39-.15-.35.19-.73.29-1.12.32.35-.62.81-1.17,1.16-1.8.38-.66-.14-1.61.59-2.1.57-.43.8-1.08.74-1.78-.33-.06-.73-.34-.98.02-1.45,1.46-2.45,3.3-3.29,5.15-.43.8.22,1.59.42,2.36-.45.12-1.01.26-1.4-.11-.37-.46-.38-1.14-.83-1.54-.64-.42-1.42-.11-2.09.07-.69.24-1.49.32-2.04.84l.07-.2c-.2.1-.41.19-.61.29.08-.27.16-.54.24-.81-.23,0-.46,0-.69,0-.21,1.03-1.03,1.68-1.68,2.43-1.25,2.16-1.74,4.76-1.3,7.23.37,2.16.19,4.87-1.7,6.31-1.71-1.12-3.28-2.96-5.47-2.94,1.4,1.11,3.05,1.88,4.39,3.07.33.31.69.66.76,1.13-.17.63-.75,1.15-1.39,1.29-1.35-.67-2.32-1.89-3.52-2.78-.06.11-.17.33-.22.43.16.34.31.7.43,1.06-2.52.52-5.05-.55-7.59-.28-1.45.25-2.89.53-4.31.91,4.21-.34,8.61-.46,12.6,1.18-.81.06-1.79-.09-2.29.72,1.15.08,2.31-.06,3.46.07,1.02.31.9,1.62.46,2.37-1.61-.65-3.22-1.27-4.84-1.89.17-.24.33-.48.49-.72-1.3-.47-2.6.44-3.92.13-1.77-.16-3.89-.83-5.35.55,1.28-.02,2.55-.13,3.83-.01-.36.19-.73.36-1.1.55,1.61.12,3.23-.55,4.82-.06,1.81.48,3.58,1.14,5.28,1.94.38.22.94.38.96.91.39,2.16.74,4.34,1.06,6.52.12.65-.1,1.3-.47,1.82-1.05,1.51-2.65,2.51-3.85,3.89-.98,1.22-1.47,2.74-1.95,4.2,1.75-2.25,3.17-4.82,5.42-6.61.54-.41,1.44-.89,2.01-.29.45.57-.33,1.08-.64,1.5-.8,1.08-2.33,1.85-2.34,3.33.24,0,.48,0,.72,0,1-.99,2-1.99,3.06-2.91.15.22.3.44.44.66-1,1.51-1.95,3.07-2.56,4.78-.23.55-.18,1.15,0,1.71.3,0,.61,0,.91-.01.71-1.6.95-3.4,1.92-4.88.46-.73,1.2-1.2,1.83-1.77l-.07.2c.21.29.44.57.65.86l.08-.03c.53.59,1.14,1.08,1.76,1.56.15,2.97,3.34,5.2,6.17,4.7-.3-1.18-.8-2.31-1.18-3.47-.13-.47-.25-1.08.09-1.48.52-.17,1.11,0,1.61-.22.3-.29.52-.66.79-.98-.11.48-.25.96-.4,1.44.65.55,1.59.96,1.8,1.87.47,2.02,1,4.09.55,6.17,0,.7-.61,1.1-1.11,1.48-.03-.18-.08-.34-.16-.5-.27-.02-.54-.05-.81-.09.32-.02.65-.04.98-.06,0-.23.01-.46.02-.69-.54-.55-1.39-1.38-2.17-.74-.93.92-.6,2.42-.12,3.49.51,1.27,1.66,2.18,2.09,3.49-.05,1.21-1.27,2.25-.74,3.51.93-.18,1.26-1.05,1.38-1.89.32.52.98,1.2.38,1.77-.54.53-.22,1.36.57,1.17.24-.22.48-.43.72-.64.32.36.61.74.88,1.13.81.02,1.62.14,2.4.34.22,1.01,1.21,1.4,2.1,1.64-.62.53-.51,1.36-.51,2.09.44.13,1.2.4,1.39-.22.17-.82-.14-1.9.77-2.38.91.86,2.15,1.21,3.35,1.45.77.2,1.28-.77,2.08-.49.74-.06.63,1.04,1.36,1.06,1.46.18,2.43,1.76,4,1.47,1.92.1,3.74-1.57,3.8-3.47-.52-.24-1.06-.1-1.56.13.36-.83.62-1.69.84-2.56.34.4.74.74,1.17,1.03.32-.6.67-1.24.62-1.94-.08-.7-.54-1.4-.22-2.1.42-1.04,1.23-1.85,1.72-2.86-.35-.27-.69-.55-1.01-.85.54-.51,1.18-.93,1.63-1.52.24-.56-.06-1.29.43-1.74.4-.4.64-.9.6-1.48-.33-.03-.65-.07-.97-.1.41-.28,1.05-.4,1.17-.97.27-.9.7-1.75.87-2.68-.07-.75-.78-1.26-.89-2,.08-.55.57-1.13.21-1.67-.48-.46-1.13-.67-1.67-1.03.31-.51.48-1.09.68-1.66l-.18.09c.07-.04.21-.11.28-.15.1-.62.21-1.23.37-1.83.28.01.55.03.83.05-.15,1.05.14,2.04.51,3.01.1,1.67-.13,3.35.06,5.02.28,0,.55.01.83.02.24-.24.48-.48.73-.71.34.98.64,2.06.28,3.07-.23.76-.91,1.25-1.27,1.95-.18.5.7.75.45,1.27-.33,1.02-1.02,1.9-1.23,2.96.33.53.92.81,1.42,1.16.49,1.39.17,3.55-1.47,3.91-.07-.69-.34-1.71-1.22-1.66-1.34,1.34-2.11,3.13-2.99,4.78-.33.73-.88,1.51-.54,2.34.25,0,.49,0,.74,0,.42-1.04.7-2.2,1.5-3.02.3-.36.77-.23,1.16-.16.31,1.48-.77,3.56.76,4.55.25-.45.48-.91.73-1.35.93,1.66.77,3.64.74,5.47.32,0,.65,0,.97,0-.11-1.6.58-3.09,1.11-4.55.39.56.88,1.12.96,1.82-.19.82-1.07,1.54-.56,2.43.24.97,1.42.39,1.92-.05.53,1.27.7,2.76,1.75,3.75.08-.52.11-1.04.19-1.56.31-.25.78-.13,1.15-.2.13-1.46-.07-2.92,0-4.38-.03-.3.26-.44.43-.63.17.3.36.6.36.96.12,1.78.11,3.56.27,5.34-.44.34-.93.71-1.04,1.29-.17.72.4,1.75,1.25,1.47.32-.37.17-.96.26-1.42.62.39,1.81,1.24,2.25.2.2-1.5-.66-2.93-.46-4.45.53,1.12.82,2.34.92,3.57,1.56.15,1.63,2.44.58,3.24-.55.38-.6,1.06-.64,1.67,1.1-.09,2.17-.36,3.19-.77.13-.37.27-.73.42-1.09.36.04.72.08,1.08.12.52-.44,1.12-.76,1.69-1.12.5-1.41.08-2.92-.04-4.36-.33-2.62.09-5.38-.98-7.87-.32,0-.63.01-.95.02-.54,1.32-.97,2.73-1.06,4.16.17,1.4.86,3.09-.22,4.3-.15-1.52-.04-3.04,0-4.56-.58-.12-1.26-.38-1.34-1.05-.2-.65-.08-1.8-.96-1.91-.59.82-.95,1.78-1.42,2.67-.08-.08-.23-.24-.3-.32.07-1.2.66-2.8-.46-3.69-.29.22-.55.48-.82.72-.23-1.12-.84-2.12-.95-3.27.58.16,1.31.62,1.86.14.84-.8,1-2.01,1.45-3.03.68,1.32.35,3.93,2.45,3.84-.08.89-.13,1.79-.03,2.68.3,0,.6,0,.9,0,.15-.48.3-.96.44-1.45.71-.35,1.37-.83,2.17-.97.09,1.01-.16,2.01-.05,3.01.09.72.75,1.14,1.08,1.74.09,1.28-.33,2.54-.3,3.83.09.75.6,1.41.5,2.19-.12,1.26-.27,2.52-.3,3.78.21.06.41.12.62.19.2-.13.41-.27.61-.4.08-1.2.16-2.42.66-3.53.89-1.55-1.14-3.18-.17-4.72.51.09.76.76,1.12,1.12.66.69-.63,1.34-.24,2.08.54,1.3-.03,2.72-.43,3.99-.01.61.63.95,1.03,1.3.23-1.01.16-2.27,1.36-2.62,1.37-2.9,3.25-5.59,4.54-8.56.4-.98.93-1.97.95-3.06-.07-.5-.78-.35-.98-.01-1.83,1.92-2.72,4.47-3.87,6.81-.52-.93-1.12-1.83-1.45-2.85-.62-1.88-.46-3.88-.62-5.83-.12-1.2.06-2.4.29-3.57.03.74.06,1.47.03,2.21.3,0,.61-.02.91-.02.87-.96.11-2.86,1.59-3.27.24-.67.44-1.35.64-2.03.47-.21,1.08-.35,1.21-.93.28-.99,1.13-1.82.9-2.91,1.69-.72,2.91-2.74,2.56-4.58.18.49.34.98.52,1.47.9-.15,1.25-1.07,1.4-1.86-.04-.45-.44-.85-.3-1.32.31-1.3.81-2.54,1.28-3.79.38.77.87,1.5,1.57,2.02-.1-1.09.03-2.23.91-2.99.46,1.28.25,2.72.11,4.05-.1,1.04-.88,2.3,0,3.19.51-.38.98-.83,1.4-1.31.71,1.09-.05,2.93,1.49,3.47.02,1.37-.03,2.74.02,4.11-.03.3.28.44.46.63.23,1.25.19,2.84,1.49,3.53-.28-1.62-.69-3.28-.33-4.93.46-2.68-.06-5.43.36-8.12.1-4.26-1.06-8.45-2.48-12.44-.09-.48-.53-.67-.93-.83-.07.72-.49,1.57.08,2.19.51.53-.16,1.12-.25,1.68.04,1.04.26,2.09.04,3.12-.1.45-.65.36-.99.44.02-.88-.26-1.88.35-2.62.46-.54-.34-.99-.7-1.31-.76,1.17-.75,2.58-.93,3.9-.41,0-.82,0-1.23.02-.5-.56-.72-1.29-.67-2.04,0-2.29-.32-4.6-.08-6.89.06-1.25,1.97-1.25,1.94-2.52-.28-1.11-.91-2.11-1.38-3.14-1.05.81-.35,2.3-.82,3.39-.57-1.03-.74-2.21-1.13-3.31-.74.17-1.5.14-2.09-.4-.62.79-1.26,1.65-1.36,2.69-.12,1,.57,1.85.7,2.81-.04.7-.58,1.29-.51,2,.12,1.35.41,2.69.52,4.05.08.37-.2.63-.41.9-.96-1.18-.26-2.77-.32-4.12-.63-.01-1.71-.62-1.97.21.22,1.71.77,3.64-.28,5.19-1.77,0-1.69,2.13-2.06,3.36-.48,0-.95.01-1.43.02-.07-.07-.22-.22-.29-.29-.03-.27-.05-.54-.08-.81.81-.31,1.35-1.22,1.1-2.07-.19-.6-.35-1.21-.29-1.84.16.21.31.41.46.62.55.01,1.12-.34,1.16-.92,0-.94-.55-1.79-.51-2.73.23-1.1.82-2.12.85-3.26.04-1.08-.09-2.26.6-3.18.59.29,1.25.44,1.89.18-.35-.59-.66-1.35-1.39-1.53-.76-.2-1.48-.88-2.3-.64-.43.64-.93,1.25-1.31,1.92-.03.94.51,1.8.5,2.74-.03,1.01-.12,2.02-.27,3.02-.66-1.49-.72-3.11-.49-4.7.2-1.01-.73-1.75-.83-2.67.58-1.06,1.86-2.57,3.18-1.7,1.13.38,2.21,1.38,3.46,1.03-.48-1.31-1.77-1.94-2.89-2.6-.81-.45-1.09-1.42-1.03-2.29.93.93,1.56,2.82,3.15,2.57-.04-.39,0-.81-.25-1.13-.81-1.18-1.51-2.44-2.22-3.68-.44-.86-1.51-.86-2.3-1.17.43-.21.87-.41,1.3-.63-.76-.6-1.58-1.14-2.17-1.92-.52-.68.01-1.53.1-2.27-.63-.32-1.21-.03-1.67.42-.05-.2-.1-.4-.15-.59.48-.19.96-.4,1.41-.65.75,1.16,1.48,2.33,2.32,3.43.36-.28.72-.56,1.07-.85-.22-.34-.44-.68-.66-1.02.16-.18.32-.37.48-.55-.62-1.69-1.55-3.24-2.38-4.83-.27-.61-.95-.79-1.49-1.08.8-.05,1.6,0,2.4.02.73-.97,2.04-1.02,3.12-.77.82.43,1.41,1.36,2.41,1.38,1.17-.03,1.88,1.17,3.02,1.24,1.07.05,2.17-.31,3.22.08.49.63.62,1.69,1.53,1.87.94.24,1.96.46,2.62,1.24-.54.1-1.08.18-1.61.27,1.08.63,2.19,1.22,3.3,1.79-.85.25-1.28,1.05-1.57,1.82-1.32.15-2.5,2.33-1.18,3.24.66.5,1.19,1.35,2.11,1.29-.05-.54-.36-1.16.04-1.63.41-.49.93-.86,1.41-1.28.35.69.67,1.43.62,2.22-.06,2.32.57,4.72-.27,6.96-.5-.79-.56-1.77-1.01-2.59-.37.07-.74.14-1.1.21.36,1.19,1.02,2.28,1.14,3.54-.74-.95-1.95-.09-2.37.73-.44,1.23-.6,2.55-.62,3.85,2.08,1.21,1.82,3.85,2.63,5.8.08-.07.25-.2.34-.26-.23-.97-.41-2.3.87-2.58.09.08.29.25.39.33-.46,1.25-1.08,2.65-.36,3.93.15-.1.31-.2.46-.29.22.71.47,1.41.59,2.15.13.88-.24,1.78.04,2.64.28.63.88,1.06,1.46,1.39.72.47,1.55-.23,1.9-.84.25-.74.1-1.55.12-2.32-.56,0-1.04.28-1.48.6-.97-1.79-.39-3.94-.43-5.89.61.02,1.16-.26,1.67-.56.55,1.01.39,2.2.78,3.25.25.67.94.96,1.56,1.18-.21-1.48-.54-2.93-.9-4.37-.35-1.33.51-2.83-.39-4.04.17-.2.33-.4.5-.6.46.58,1.11.87,1.86.74-.38-1.05-.96-2.17-2.03-2.65-.14.17-.27.35-.41.52-.8-.39-1.31-1.16-1.81-1.86.2-.08.4-.15.6-.23.41.41.86,1.4,1.56.97.72-.52,1.63-.42,2.46-.62-.6-1.05-1.37-1.98-2.22-2.84.39-.28.77-.57,1.13-.89-.31-.28-.62-.56-.93-.83.37-.03.73-.05,1.1-.08-.23-.41-.45-.82-.7-1.22.18-.27.36-.55.53-.83-1.02-.74-2.12-1.4-2.98-2.34.86.16,1.73.6,2.61.28-.31-.46-.64-.91-.97-1.37.58.15,1.21.33,1.76-.02-.65-.62-1.16-1.38-1.11-2.32-.92-.54-1.9-.94-2.85-1.41.48-.56.96-1.12,1.41-1.71,1.27.34,2.52.76,3.7,1.34-.36.1-.72.2-1.09.3.07,1.46,1.82,1.98,2.76,2.86-.52.43-1.1.8-1.71,1.09.08.82.65,1.44,1.11,2.09.74.9,1.44,2.3,2.83,2.02-.23-.61-.55-1.19-.92-1.73.07-.07.21-.2.28-.27,1.1.8,2.09,1.74,3.28,2.42.71.39,1.61.73,2.38.29-.85-.62-1.72-1.23-2.43-2,.25-.2.49-.4.74-.6-.75-.96-1.61-1.84-2.57-2.59.18-.19.35-.39.53-.58-.61-.72-1.3-1.36-2.01-1.97,1.16-.02.72-1.51.41-2.2-1.34-2.23-3.33-3.97-5-5.94-.19-.24-.42-.51-.37-.84.03-1.91.14-3.81.16-5.72-.04-1.76-.57-3.7-2.03-4.81-1.13-.88-2.67-.91-4.03-.65-4.27.8-8.31,2.48-12.54,3.43-1.93.48-3.39-1.25-4.35-2.67,1.26.33,2.49.82,3.76,1.09.61.13,1.03-.43,1.43-.79-1.51-.74-3.05-1.42-4.57-2.13-.79-.38-1.72-.23-2.49-.66-.96-.5-1.86-1.14-2.9-1.5-3.15-1.17-6.36-2.3-9.7-2.74M64.07,23.29c-.46.16-.81.54-1.27.72-.4-.02-.72-.38-1.11-.32-.74.35-1.15,1.27-2.03,1.34-1.35.1-2.63.72-3.54,1.72-1.37.11-2.77-.14-4.13.19.02.84-.5,1.47-1.1,1.98-.61.5-.19,1.79.67,1.5,1.77-.54,3.31-1.63,4.97-2.44,1.18-.49,2.6-.21,3.64-1.06.88-.76,2.12.22,3.02-.51,1.44-1.07,3.65-.54,4.74-2.15-.69-.54-1.54-.44-2.3-.14-.72.31-.94-.78-1.56-.85M79.66,23.68c-.08.29-.15.59-.22.88.25.43.55.85.99,1.11,1.6,1.03,2.28,2.89,3.46,4.31,1.21-.38,2.14.6,3.18.99.75.22,1.25-.52,1.42-1.15-1.67-.56-2.29-2.3-3.25-3.59-.55-.83-1.57-1.02-2.4-1.43-.08-.38-.17-.75-.26-1.12-.97,0-1.94,0-2.92,0M64.69,28.59c-1.29.42-2.59.87-3.66,1.72.39,1.22,1.73.57,2.64.88-.39.44-.79.89-1.14,1.37.16.09.33.18.5.27,1.27-.37,2.58-1.17,3.93-.76,1.79.56,2.71,2.42,4.36,3.2.74.38,1.48-.09,2.1-.46.25-.98-.76-1.18-1.45-1.46.27-.82.06-1.74-.72-2.19-.02-.7.23-1.77-.61-2.09-.92-.18-1.85.01-2.78.04.12-.4.25-.8.38-1.21-1.23-.06-2.4.36-3.56.71M46.55,31.9c.61-.19,1.21-.41,1.83-.56.32.23.62.78,1.08.51.96-.33.75-1.49.94-2.27-.15-.15-.3-.3-.45-.45-1.42.44-2.88,1.29-3.4,2.77M40.65,30.94c-1.23,1.26-2.25,2.72-3.44,4.02,1.12.74,2.38,2.23,3.81,1.22,0-1.04-.31-2.15.24-3.11.3-.79,1.15-1.53.78-2.43-.47.05-1.06-.13-1.39.3M50.97,33.12c-.09.49.52.44.84.48.88-.78,1.92-1.54,2.15-2.77-1.53-.44-2.67.96-2.98,2.29M57.14,33.63c-.77.05-.93.92-1.32,1.44-.98-.4-1.87-1.51-3-.94,0,.26,0,.52.01.78.22.24.71.51.45.89-.6.91-1.47,1.61-2.15,2.45.46.89,1.63.42,2.43.57-.25.77-1.27,1.86-.32,2.51.53-.36,1.01-.78,1.46-1.23.42-.48,1.21-.39,1.55-.97,1.26-1.85,2.5-3.76,3.45-5.79.3-.54-.14-1.01-.53-1.33-.67.56-1.04,1.57-2.03,1.61M62.79,33.58c-.79,1.39-1.39,2.9-2.02,4.38-.31.64-.25,1.36-.24,2.05,1.33.25,1.92-1.12,2.41-2.09.62-1.33,2.29-1.3,3.5-1.7,1.42-.21,1.4-2.5.11-2.92-1.2-.42-2.69-.43-3.77.28M73.55,34.05c.92.1,1.84.17,2.76.27.16-.29.3-.58.45-.87-.99-.96-2.29.06-3.21.61M67.32,38.43c-.55.29-1.27.59-1.12,1.35,1.58.81,3.12,1.73,4.79,2.35.73.31,1.46-.35,1.45-1.09.1-1.01,0-2.54-1.19-2.83-1.3-.09-2.74-.55-3.93.22M95.8,41.38c.71.79,1.29,1.68,1.87,2.57.64.05,1.6-.2,1.95.51.25.78-.5,1.25-1.11,1.49-.62.2-.5.89-.43,1.39-.68.9.32,1.73.64,2.55.68,1.78.8,3.71,1.01,5.59.13.91,1.06,1.76,1.98,1.23.18-.94-.59-1.48-1.15-2.08,1.05.2,1.6,1.17,1.94,2.09.28.82,1.3,1.07,2.05.81.18-1.18.6-2.58-.3-3.58-.68-.82-1.26-2.1-2.5-2.05-.11.26-.22.52-.33.79-1.15-.26-.95-1.5-1.1-2.4.45-.04.9-.09,1.34-.15.03-.79.07-1.58.17-2.36-.48.04-.96.06-1.43.05.53-.88,1.1-1.75,1.54-2.69.5-.97.22-2.09.29-3.13-.35-.22-.7-.43-1.05-.63-.39.39-.48.92-.49,1.46-.63-.8-1.71.07-2.39-.6-.24-.16-.25-.48-.34-.73.45-.09.9-.19,1.35-.29-.58-.8-1.29-1.49-2.14-1.99-.46.71-.9,1.44-1.36,2.15M50.43,42.97c1.13-.17,1.48-1.27,1.25-2.27-.86.44-1.49,1.26-1.25,2.27M106.79,45.36c-.06.75.29,1.66,1.11,1.79.97-.04,1.61-.89,1.83-1.76-.98-.11-2.09-.84-2.95-.03M104.59,48.57c-.89,1.19.35,2.39,1,3.35.29,0,.59-.02.88-.03.53-1.39-.44-3.04-1.88-3.32M12.35,50.69c.77.72,1.86.79,2.86.82-.58-1.06-1.84-.89-2.86-.82M16.57,51.6c.66.81,1.69,1.08,2.59,1.52,1.42.67,2.77,1.45,4.22,2.05-1.73-1.96-4.24-3.2-6.81-3.57M110.01,53.01c-.1.6-.18,1.2-.27,1.81.5.55,1.01,1.32,1.84,1.34.47,0,.46-.63.29-.93-.59-.76-1.21-1.51-1.86-2.22M121.7,54.15c-.1.76.04,1.52.69,1.99,1.11,1.24,3.17,2.67,4.68,1.22-1.62-.98-3.5-1.67-4.71-3.21-.22,0-.44,0-.66,0M108.87,57.19c-.37,1.33.51,2.39,1.59,3.01-.11-1.13-.32-2.61-1.59-3.01M123.14,58.33c-.02,1.72,2.33,2.5,3.73,2.03-1.1-.87-2.19-2.17-3.73-2.03M12.56,61.82c.82.07,1.6-.31,1.92-1.08-.83-.11-1.4.55-1.92,1.08M16.17,66.61c-.95.49-2.05,1.07-2.32,2.2,2.97-1.36,5.84-3.01,9.02-3.9.36-.06.56-.37.78-.63-2.62.24-5.13,1.18-7.48,2.33M20.78,72.51c.79.19,1.33-.41,1.39-1.14-.57.23-1.06.62-1.39,1.14M17.15,76.54c1.37-.04,1.82-1.72,2.64-2.61-1.25.09-2.69,1.27-2.64,2.61M106.48,77.44c-.35,1.13-.4,2.36-.96,3.42-.52.88-1.83,1.42-1.61,2.62.6.02,1.21.02,1.81.02,0,.87,0,1.73,0,2.6-.41.46-1,.86-1.11,1.5.09.7.77,1.1,1.25,1.53-.33.33-.65.65-.98.97-.2-.71-.35-1.43-.52-2.15-.4-.19-.8-.36-1.21-.52-.23-1.09.71-2.49-.43-3.25-.73.69-1.68,1.16-2.28,1.98-.11.65-.04,1.31-.03,1.96.59-.31,1.04-.8,1.44-1.33.44,1-.08,2.05.12,3.08.26.04.53.08.79.13.33,1.79,1.09,3.6.41,5.42.71-.39,1.37-.86,2.04-1.3.6.82,1.31,2.05,2.53,1.59-.85-2.09.19-4.2.93-6.15.41-1.07,1.38-1.73,2.02-2.65-.16-.17-.32-.33-.48-.49-.34.04-.68.09-1.02.13-.04-1.51.11-3.02.02-4.53-.56-.06-1.12-.06-1.68,0-.03-1.22.03-2.44-.02-3.65-.05-.54-.66-.7-1.06-.92M19.02,84.2c.21.08.41.15.62.23.45-.75.97-1.54.84-2.46-.76.53-1.15,1.39-1.46,2.24M100.82,88.4c-.29.95-.48,1.93-.66,2.91-.45,1.88.32,3.89,1.62,5.26.37-1.93,1.28-3.91.78-5.88-.23.03-.45.06-.68.09-.19-.85-.36-1.78-1.07-2.37M97.46,92.98c.06.55.44,1.05.3,1.62-.36,1.83-.94,3.61-1.22,5.45-.16.79.31,1.48.83,2.02.55-1.19.8-2.48,1.05-3.76.27-.08.55-.16.82-.24.15-1.01.11-2.03.09-3.04.18-.18.37-.35.55-.53-.15-1.2-.54-2.35-.84-3.52-.74.44-1.44,1.11-1.58,2M43.23,98.22c.43.52.86,1.04,1.37,1.49.47-.46.93-.92,1.39-1.39,0-.3.01-.6.02-.89-1.01-.01-2.41-.57-2.79.79M45.91,99.65c.67.81,1.65.1,1.99-.64-.43-1.3-2-.36-1.99.64M48.25,99.84c-.59.98-1.19,1.99-1.48,3.1-.21.64.77,1.33,1.16.67.63-.91,1.12-1.97,1.22-3.07.07-.53-.55-.54-.9-.7M41.59,101.13c-.49.81-1.28,1.93-.66,2.85.42.6,1-.02,1.37-.33-.06.33-.11.67-.16,1,.36.02.72.03,1.08.06.17-.74.57-1.91-.63-1.87.34-.65.72-1.47.34-2.18-.51-.25-1.11-.04-1.35.48M45.72,100.52c-.33.56-.83,1.12-.79,1.82.15.46.67.6,1.05.83.35-.65.86-1.32.76-2.1-.2-.38-.67-.4-1.02-.54M65.15,104.47c1-1.08,2.19-2.45,2.09-3.99-1.36.81-2.45,2.34-2.09,3.99M53.58,100.79c0,.82.05,1.66-.11,2.47-.37,1.33.8,2.39,1.47,3.41.43-.35,1.05-.74.93-1.39-.41-1.54.9-2.97.27-4.51-.85.13-1.71.14-2.56.02M57.48,103.25c.35.46.95.19,1.4.06-.01-.59-.01-1.17-.01-1.75-.15-.16-.29-.31-.43-.47-1.17-.04-1.54,1.32-.95,2.16M50.28,101.49c-.56,1.46-1.28,2.86-1.8,4.34-.48,1.16,1.85,1.69,1.95.44.29-1.58.92-3.13.88-4.75-.35-.02-.69-.03-1.04-.03M52.12,103.91c-.64.65-1.13,1.57-.89,2.5.52.02,1.03.03,1.55.03.24-.78.26-1.59-.03-2.36-.21-.06-.41-.16-.62-.17M62.55,107.7c.6-.02,1.32.2,1.8-.27.68-.68.94-1.65.98-2.59-.07-.06-.22-.18-.29-.24-.93.91-2.58,1.59-2.49,3.1M42.52,107.77c1.29.51,1.37-.98,1.65-1.83-.4-.08-.81-.16-1.21-.24-.42.6-.82,1.34-.44,2.07M44.53,106.6c-.66.82-.46,2.62.84,2.61,1.21-.1,1.45-1.6,1.39-2.58-.67-.37-1.6-.59-2.23-.03M61.08,107.01c-.24.64-.39,1.31-.51,1.99-.27-.25-.54-.51-.82-.76-.35.19-.7.38-1.05.57,0,.86,0,1.72,0,2.59.55.13,1.3.4,1.69-.18.38-.57.92-.99,1.6-1.12,0-1.03,0-2.07-.02-3.1-.3,0-.6,0-.89.01M46.77,109.91c.13.61.74.8,1.29.78.57-.87.29-1.94.34-2.91-.17-.08-.34-.17-.51-.25-.55.68-1.16,1.46-1.12,2.38M56.85,109.17c-.37.66-.46,1.48-.26,2.2.22.54.88.39,1.32.27.04-.83.34-1.63.36-2.46-.36-.38-1.13-.55-1.42-.01M50.63,109.48c-.42.23-.92.75-.68,1.27.41.58,1.39.94,1.95.37.61-.77-.37-2.08-1.28-1.63M52.68,111.71c.67,1.15,2.05.35,2.72-.36-.39-.61-.6-1.46-1.29-1.8-.88.23-1.52,1.29-1.44,2.16M56.74,120.8c-1.94,1.03-3.95,1.93-6.03,2.65.29.46.59.91.89,1.37.79-.45,1.6-.86,2.43-1.22.1,3.77.07,7.55-.14,11.32,1.22-.11,2.44-.11,3.66,0-.32-4.62-.05-9.24-.09-13.86.06-.44-.46-.47-.72-.26M64.1,121.64c-2.29,1.04-2.94,4.16-1.89,6.3,1.18,2.16,4.42,2.26,6.19.79-.07,1.84-.47,4.09-2.29,4.98-1.22.6-2.58-.04-3.37-1.02-.07.7-.17,1.39-.3,2.08,2.31.84,5.1.54,6.98-1.11,2.03-1.77,2.71-4.62,2.55-7.22-.07-1.8-.76-3.78-2.43-4.69-1.66-.86-3.74-.87-5.44-.12M89.98,121.12c-1.67,2.68-3.45,5.3-5.22,7.91-.24.86-.03,1.8-.11,2.69,1.79-.12,3.58-.21,5.38-.14,0,1.11-.07,2.22-.16,3.32,1.1-.11,2.21-.1,3.31,0-.15-1.11-.2-2.23-.17-3.34.58.03,1.16.08,1.73.14-.09-.86-.09-1.73,0-2.59-.57.07-1.15.13-1.72.17-.02-2.72-.02-5.45.17-8.17-1.07.11-2.15.11-3.22,0M76.7,121.31c-2.82.68-3.51,3.98-3.5,6.47.02,2.38,0,5.45,2.3,6.84,2.15,1.02,5.3.91,6.75-1.23,1.18-1.85,1.19-4.16,1.13-6.28-.1-1.7-.27-3.61-1.55-4.88-1.37-1.24-3.43-1.28-5.15-.93Z"/><path class="cls-9" d="M90.25,25.13c.82.27,1.64.53,2.43.89.6.24.66,1.01,1.18,1.33.53.35,1.17.6,1.51,1.17,1.58,2.29,3.75,4.43,6.55,5.05,1.56.38,3.12-.16,4.64-.43-1.22.69-2.38,1.52-3.72,1.97-1.21.45-2.3-.57-3.48-.63-.53.06-.53.63-.52,1.04-.38-.11-.77-.21-1.16-.31-.28.44-.57.87-.86,1.3-1.28-.07-2.53-.38-3.79-.59-.06-.37-.12-.73-.17-1.1.91.19,1.9.55,2.81.18.45-.17.92-.79.49-1.21-.4-.35-.31-.92-.5-1.37-.39-.34-.88-.55-1.33-.8.24-.13.49-.26.73-.39-.78-2.68-4.34-3.29-4.81-6.12Z"/><path class="cls-9" d="M88.4,35.81c.98-.6,2.08.11,3.03.45-.39.34-.9.61-1.38.27-.77-.58-2.1.45-1.26,1.25-.4.47-1.04.89-1.04,1.56.2.28.48.49.73.71.01.78,0,1.56,0,2.33-.69.78-1.73.47-2.61.31.37-.43.84-.79,1.06-1.32.13-.61-.38-1.05-.7-1.49.31-.43.81-.8.87-1.36,0-1.06.77-1.88,1.32-2.71Z"/><path class="cls-9" d="M78.55,41.78c.46.36.84.8,1.18,1.28-.24.51-.73.56-1.23.47-.03-.58-.01-1.17.05-1.75Z"/><path class="cls-9" d="M80.67,43.86c1.01-.5,2.19-.42,3.26-.75-.14.38-.28.75-.43,1.13-.94-.13-1.91-.14-2.83-.38Z"/><path class="cls-9" d="M87.35,45.59c.36-.6.64-1.7,1.54-1.53.64.32,1.37.91,1.39,1.68-.39.78-1.21,1.21-1.94,1.63,0-.74-.39-1.37-1-1.77Z"/><path class="cls-9" d="M78.55,44.47c1.06-.29,2.07.41,2.83,1.07.32.91.5,1.99-.3,2.71.17.18.34.36.51.54-.44.61-1,1.12-1.42,1.75.16.35.63.77.27,1.15-.75.71.06,1.76-.48,2.57-.31.45.16.8.44,1.1-.36.19-.72.38-1.09.56.24.29.48.59.72.88-1.02.77-2.16,1.26-3.46,1.03-.07,1.22,1.41,1.5,2.18,2.13-.49.01-.99.01-1.48.05-.19,1.47,1.62,1.85,2.74,1.76,1.45-.32,2.83-.89,4.22-1.39,0-.11-.01-.33-.02-.44-.6-.31-1.25-.92-.68-1.6-.19-.25-.37-.49-.56-.73.57-.15,1.2-.17,1.73-.46.46-.42.65-1.05.96-1.57-.44-.38-.93-.7-1.45-.96,0-.26,0-.53,0-.79.89-.51.77-1.49-.02-2.03.49-.33.97-.7,1.37-1.15-.15-.24-.3-.48-.46-.71,1.27-1.25,3.38-1.35,5-.76.24.8.61,1.69.21,2.49-.28.6-.55,1.23-.44,1.91-.52.3-1.51.41-1.36,1.22.17,1.33.53,2.66,1.08,3.88.64,1.12,2.04,1.34,3.1,1.89,0,1.02-.03,2.1.52,3.01-.06.22-.12.43-.17.65-1.05.61-1.68-.58-2.19-1.29-1.2.88.38,2.23-.43,3.31-.3-.52-.64-1.02-1.04-1.46-.24.89-.61,1.74-.83,2.64-.21.67.57,1.32.19,1.96-.66.55-1.7.13-2.36.71-.39.44-.29,1.07-.34,1.61-.69.26-1.15.82-1.41,1.48-.52-1.22-.19-2.64-.87-3.8-.31-.46.23-.72.52-1-.62-1.23-1.59-2.24-2.57-3.18-.88-.75-2.14-.17-3.12-.55-.83-.66.79-1.41.15-2.19-.77-1.09-2.29-.58-3.4-.55-.96-.26-1.84-.89-2.88-.76-1.65.13-3.29.29-4.95.15.01,1.3,1.34,1.88,2.37,2.29,2.53.9,4.97,2.34,6.55,4.55.53.7.75,1.66,1.53,2.15,1.67,1.03,3.44,2,4.72,3.53.97,1.12.14,2.66.38,3.97-.49-.34-1.28-.75-1.52.07,0,1.53.26,3.06.31,4.59-.92.82-1.03,2.14-1.07,3.29,0,1.85,0,3.7-.13,5.54-.48-1.88-.74-3.94-2.04-5.47-.93-1.03-.77-2.49-.81-3.78-.02-1.16-.04-2.49.83-3.39.99-.94,1.14-2.38,1.62-3.6.35-.67-.2-1.77-1.04-1.37-.97.58-1.11,1.87-1.9,2.63-.76.84-2.38.8-2.93-.25-.89-1.61-.93-3.71-2.44-4.94-1.2-1.14-3.26-.42-4.32-1.75-.53-1.32.89-2.75,2.24-2.36.13-.11.26-.22.39-.33-.71-1.03-1.67-1.83-2.62-2.63-1.8-1.85-2.38-4.42-3.48-6.67,2.04-.01,4.07,0,6.11,0,.57.04.98-.44,1.51-.53,1.12.22,2.11,1.48,3.31.93.39-.85-.35-1.67-1.06-2.05-.06-.42-.18-.83-.35-1.22.76.13,1.93.73,2.45-.16-.4-.64-.93-1.17-1.29-1.83.72-.14,1.92-.01,1.91-1.07-.14-.12-.29-.25-.43-.37.19-.19.38-.38.57-.57-.31-.38-.63-.75-.95-1.12,1-.57,2.24-.73,3.03-1.63-.4-.42-.86-.76-1.36-1.05.12-.23.24-.45.37-.68-.93-1.01-2.38-.15-3.54-.27,1.32-.61,2.74-.96,4.15-1.3M88.32,56.2c-.47.37-.83.86-1.18,1.34.35.09.71.17,1.07.27.24-.44.8-1.38.11-1.6M65.47,58.81c.14.15.29.31.44.46,1.08-.44,2.23-.41,3.24.18,1.66.52,3.47-.12,5.14.41.63.21,1.3.17,1.91-.09-1.92-1.77-4.7-1.62-7.12-1.91-1.22-.04-2.93-.38-3.61.95M84.93,59.83c.39.71,1.62,2.23,2.14.85-.62-.47-1.34-.83-2.14-.85M87.31,61.67c.27.62.73,1.25,1.51,1.11-.06-.32-.13-.63-.2-.95-.44-.06-.87-.12-1.31-.16M86.24,63.31c.38.83.8,1.78,1.67,2.19.34-.03.42-.49.54-.76-.49-.76-1.37-1.17-2.21-1.43M70.61,67.36c.96,1.18,1.92,2.38,3.1,3.33.37.38.71-.08.86-.4-.94-1.01-1.85-2.06-2.91-2.94-.3-.32-.71-.11-1.05,0M73.78,67.14c-.06.29-.29.61-.07.88.58.87,1.52,1.66,2.64,1.54-.53-1.05-1.1-2.66-2.57-2.42Z"/><path class="cls-9" d="M38.37,54.32c.32-1.81.35-4.13,2.33-4.99-.32.56-.83,1.26-.2,1.81-.77,1.02-1.3,2.2-2.12,3.18Z"/><path class="cls-9" d="M31.23,54.91c.38-.9.96-1.7,1.54-2.48.06,1.03-.21,2.54-1.54,2.48Z"/><path class="cls-9" d="M36.1,55.29c.13-.91.44-1.81,1.06-2.5.12.94-.04,2.14-1.06,2.5Z"/><path class="cls-9" d="M110.28,76.03c1.21-1.04.61-2.67.87-4.03.3,1.93.27,3.9.01,5.83-.3-.6-.57-1.21-.88-1.8Z"/><path class="cls-9" d="M92.17,73.53c.34.6.64,1.21.97,1.81.72-.37,1.31.12,1.73.68-.84,1.2-.55,2.67-.39,4.02-.64-.34-1.25-.75-1.79-1.24-.69.82-.52,1.82-.18,2.75-.31,1.72-2.12,2.49-3.4,3.41-.38.52-.38,1.21-.5,1.82-1.77.12-3.52.43-5.29.57,0-.23,0-.46,0-.69,1.87-.17,2.31-2.24,2.49-3.76.25.82.37,1.7.82,2.45,1.74-1.82-.22-4.45.92-6.5.46.08.92.15,1.38.23.43-.86.04-2.01.9-2.64.29.63.55,1.27.83,1.91.53-.52.69-1.23.71-1.95.11-.03.32-.09.42-.13.14-.92.14-1.85.38-2.75Z"/><path class="cls-9" d="M83.36,79.94c.71,1.23.99,2.71.82,4.11-.27.64-1.05.82-1.62,1.12,0-.35,0-.7-.01-1.05.45-.47,1.06-.92,1.08-1.63.05-.86-.22-1.7-.27-2.56Z"/><path class="cls-9" d="M98.42,82.49c1.06.66.15,1.95,0,2.87-.25-.94-.23-1.93,0-2.87Z"/><path class="cls-9" d="M77.39,89.75c-.51-.7-1.8-1.43-1.26-2.42,1.1.2,1.14,1.54,1.26,2.42Z"/><path class="cls-9" d="M75.25,89.9c.72.93,1.34,1.96,1.76,3.07.32.73-.69,1.28-.41,2.03.3,1.24.71,2.54,1.61,3.48.61.66,1.6-.29,1.33-1-.14-.74-.87-1.59-.18-2.25.45,1.37.68,2.79,1,4.2-.35.09-.7.18-1.05.27-.16,1.52-.13,3.04-.3,4.56-1.41-3.06-2.44-6.28-3.48-9.48-.38-.94.17-1.94-.12-2.89-.2-.64-.2-1.31-.16-1.97Z"/><path class="cls-9" d="M66.26,122.27c.88-.38,1.72.41,1.86,1.24.26,1.26.35,2.64-.1,3.88-.35,1.02-1.94,1.12-2.43.18-.5-.97-.42-2.11-.37-3.16.08-.78.24-1.77,1.04-2.13Z"/><path class="cls-9" d="M77.7,122.44c.64-.33,1.51-.05,1.78.64.58,1.37.47,2.9.52,4.36-.05,1.91.16,3.9-.47,5.74-.27.91-1.59,1.2-2.19.46-.59-.81-.6-1.87-.68-2.82-.07-2.04-.1-4.08.07-6.12.12-.8.2-1.8.97-2.25Z"/><path class="cls-9" d="M86.19,129.27c1.27-1.91,2.54-3.81,3.83-5.72,0,1.91,0,3.81,0,5.72h-3.83Z"/></g><g id="_ffffffff"><path class="cls-5" d="M113.21,29.65c1.66-1.21,4.3-.69,5.25,1.17,1.08,1.89,1.15,4.17.82,6.27-.34,2.25-.39,4.66-1.65,6.64-1.33,2.19-3.48,4.53-6.29,4.24.28-.78.71-1.58,1.57-1.82-1.12-.56-2.23-1.15-3.3-1.79.54-.09,1.08-.17,1.61-.27-.66-.78-1.67-1-2.62-1.24-.91-.19-1.04-1.24-1.53-1.87.41.09.86.25,1.27.03.43-.6.39-1.56,1.18-1.87.84-.36,1.26-1.21,1.95-1.75.75-.64,1.94-.16,2.61-.97-1.29-.75-2.95-.54-4.17.25-1.39.84-2.63,2.22-4.37,2.22-1.12.02-1.08-1.42-1.58-2.12.84-.16,1.72-.19,2.51-.52.62-.24.74-.96.99-1.5,1.38-.2,1.81-1.74,3.05-2.18,1.27-.53,2.78-.9,3.51-2.2-.27-.24-.55-.48-.82-.72M109.6,40.73c-.18.42-.33.84-.42,1.29.83.14,1.66-.05,2.11-.82-.37-.6-1.08-.46-1.68-.47Z"/><path class="cls-5" d="M34.38,40.1c.2-.1.41-.19.61-.29l-.07.2c-.33.55.05,1.29.7,1.3.58-.18.93-.78,1.51-.94,1.01.19,1.96.78,2.52,1.65-.34.25-.69.48-1.04.71-.5-.52-.89-1.26-1.61-1.49-2.25.89-.95,5.09,1.43,4.61,1.01-.23,1.27-1.43,2.12-1.91.83-.48,1.08-1.47,1.66-2.18-.29,1.34-.89,2.71-2.15,3.4,0,1.32-1.26,1.54-2.23,1.94-.05.26-.1.53-.15.79-1.03.66-1.62,1.75-2.47,2.6.38-.83,1.13-1.51,1.13-2.48-1.43-.43-2.22-1.82-2.71-3.13-.68-1.62.39-3.22.75-4.79M36.26,46.83c-.14-1.16-.3-2.34-.79-3.42-.31,1.19-.7,2.87.79,3.42Z"/><path class="cls-5" d="M64.02,44.07c-.1-.89.61-1.52,1.12-2.13.31.05.61.09.92.15.57.34,1.03.84,1.38,1.4-.48-.22-1.02-.2-1.53-.11-.03.81,0,1.77-.85,2.18-.5-.35-1.11-.79-1.04-1.48Z"/><path class="cls-5" d="M59.83,44.59c.22,0,.44,0,.66,0,.3,1.31,1.27,2.47,2.62,2.75,1.23.4,2.46-.11,3.67-.33-.7.65-1.53,1.13-2.37,1.57.08.1.24.29.32.39,1.91.12,3.13-1.61,4.74-2.32.79-.27,1.41.47,1.94.94-.83,2.32-3.3,3.4-5.56,3.82-.98.32-1.96-.06-2.94-.2-2.03-.35-4.06-.78-6.1-1.08-.75.24-1.43.8-2.27.68.91-.82,2.09-1.36,3.27-1.64,1.44.22,2.89.85,4.34.25-.99-.74-2.28-1.09-3.06-2.08-.64-.94.28-1.94.74-2.74Z"/><path class="cls-5" d="M49.23,54.56c1.24,0,2.47-.75,3.69-.23.7.31,1.43,0,2.11-.2.4,1-.87,1.76-.37,2.65,1.55.34,2.66-1.23,3.53-2.29,1.08.08,2.3-.28,3.24.42,1.09.61,1.91,1.56,2.71,2.49,1.11,2.24,1.69,4.82,3.48,6.67-.77-.09-1.62-.11-2.19-.72-.35-.35-1.06-.9-1.41-.25-.24.85.73,1.15,1.37,1.27,1.14.16,2.05.92,2.87,1.68-1.12-.14-2.12-.79-3.24-.85-1.16.2-1.25,1.63-1.79,2.46-.57-1-1.58-1.61-2.58-2.11-.07.06-.2.17-.26.23.35,1.04.32,2.65,1.78,2.74,0,.21,0,.42,0,.63-.91.76-1.67,1.72-2.72,2.3-1,.57-2.06,1.03-2.97,1.73,0,.22,0,.45,0,.67.66.02,1.32-.08,1.98-.06.62.58-.03,1.59-.69,1.87-2.01.95-4.33.77-6.46.45-4.69-.73-9.34-1.73-13.94-2.89,0-.22,0-.44,0-.66,2.37-1.09,4.31-3.17,5.1-5.67.47-1.29-.08-2.65.27-3.96.73.35,1.52,1.18,2.39.79-.05-1.89.87-4,2.73-4.69,1.61-.43,3.29-.47,4.92-.81-.62-.33-.62-1.03-.76-1.63-.87-.03-1.71.44-2.61.31-1.64.57-3.29,1.2-4.79,2.08-1.12.65-2.05,1.73-2.16,3.07-.65-.13-1.33-.44-1.98-.16.47.63,1.66,1.38.86,2.22-1.44,1.35-3.51,1.74-5.39,2.14-.99.28-1.88-.38-2.28-1.25,1.14-.07,2.3.1,3.42-.11,1.24-.39,2.63-1.45,2.41-2.91.92-.11,1.1-1.24,1.95-1.46,1.03-.39,1.4-1.54,2-2.36.35-.62,1.32-.6,1.51-1.35.27-.77.57-1.61,1.36-1.99.02.32.04.64.07.97,1.16.17,1.68-1.31,2.83-1.2M53.98,59.08c-1.33.52-2.75.92-3.89,1.81-.49.3-.3.96-.64,1.36-.39.49-.75,1-1.09,1.53.26.36.51.88,1.04.81.76-.06,1.07-.87,1.49-1.39.52-.75,1.61-.65,2.17-1.36.64-.73,1.56-1.48,1.39-2.57-.16-.07-.32-.14-.48-.2M58.19,59.08c-.6,1.1-1.46,2.06-2.02,3.19-.2.38.11.69.39.9.69-.42,1.51-.48,2.25-.16-.63.48-1.82,1.15-1.26,2.09.89.07,1.84.74,2.69.19-.15-.13-.31-.26-.47-.39.06-.53.22-1.04.38-1.54.77.23,1.39-.25,1.84-.82,0-.24,0-.47,0-.71-1.1-.64-2.31.67-3.35-.13,1.12-1.59,3.39.05,4.51-1.38-.63-1.35-2.25-.35-3.33-.32-.64.18-1.03-.34-1.03-.92-.2,0-.4,0-.61,0M47.76,64.36c-.44.46-1.18,1.16-.66,1.83.24.05.49.06.73.09.64-.52.84-1.56-.07-1.91M54.96,66.56c.8.93,2.29.11,2.13-1.04-.9-.6-1.75.26-2.13,1.04M45.84,67.97c.78-.28,1.62-1.24.69-1.9-.76.22-1.14,1.23-.69,1.9M52.05,67.05c-.54.25-.56.87-.54,1.39.61.31,1.42.61,2.01.08.51-.36.44-1.02.28-1.54-.58.01-1.2-.1-1.76.07M57.4,69.91c.67-.08,1.56.27,2.05-.36.35-.36.09-.87,0-1.27-1.08-.32-2.33.38-2.05,1.63M48.18,69.88c.8.55,2.68,0,2.14-1.18-.89-.79-1.81.4-2.14,1.18M45.86,69.54c-.08.25-.15.49-.22.74.6.73,2.08.04,1.12-.75-.3,0-.6,0-.9.01M54.27,69.94c-.49.31-.59.92-.74,1.44,1.17.27,2.35-.21,2.66-1.44-.62-.13-1.35-.42-1.92,0M50.43,71.36c-.4.35-.62,1.2.03,1.41.77.36,1.36-.44,1.85-.91-.15-.16-.31-.32-.46-.48-.48,0-.95,0-1.42-.01M46.7,71.96c-.09,1.15,1.62,1.51,2.07.5-.21-.92-1.44-1.17-2.07-.5M53.56,74.33c0,.25,0,.49,0,.74.49-.04.98-.11,1.47-.19.03-.52.05-1.08-.58-1.18-.3.21-.59.42-.89.63Z"/><path class="cls-5" d="M29.18,59.95c.17-.62-.08-1.33.16-1.98.42.65.86,1.39,1.73,1.39-1.19,1.2-.91,3.02-1.2,4.55-.26.93.79,1.39,1.01,2.19.38,1.17.29,2.5.98,3.57.28.44.76.93,1.33.76.37-.65.77-1.37,1.63-1.34.26,1.04-.87,1.3-1.37,1.96.82,1,2.05,1.88,2.24,3.24-.31,1.16-1.8,1.18-2.74,1.55l-.08.03c-.22-.29-.44-.57-.65-.86l.07-.2c.15-.37.2-.81-.02-1.16-.56-.26-1.28-.33-1.61-.93-.72-.95-.11-2.15-.32-3.21-.3-.34-.7-.58-.99-.93-.11-.49.32-.94.3-1.43-.34-.7-1.05-1.21-1.15-2.03-.36-1.7-.65-3.79.67-5.17Z"/><path class="cls-5" d="M36.99,70.09c-.43-.52.03-1.19.28-1.68.45.74,1.05,1.37,1.6,2.03-.62-.06-1.44.24-1.88-.35Z"/><path class="cls-5" d="M67.1,77.41c.79-1.22,1.71-2.46,3.13-2.97l.18-.09c-.2.56-.37,1.14-.68,1.66-1.47,2.03-2.75,4.21-3.72,6.52-.7,1.62-.82,3.42-1.55,5.02-1.13,2.63-2.58,5.28-4.94,7-1.78,1.26-4.28,1.99-6.29.82.34-.3.67-.61.97-.94-3.67-.41-7.25-1.72-10.25-3.89-1.34-.99-2.53-2.49-2.34-4.26.12.01.35.04.46.05.27.04.54.06.81.09.08.16.13.33.16.5.66,2,4.13,1.26,4.18,3.71,1.05.04,1.64.89,2.39,1.47,1.37.15,2.76,0,4.14.06.49.5,1.09,1.11,1.86.82-.52-1.37-1.68-2.9-1.06-4.39,1.1.93,2.63,2.28,4.13,1.41-.03-.56-.07-1.12-.07-1.68,1.37-.13,2.91-.3,3.94-1.33.61-.59.63-1.5.44-2.27,1.85-1.08,2.61-3.19,3.6-4.98.46-.69.35-1.54.51-2.31M58.49,92.99c-.82.46-1.82.2-2.72.39-.02.44-.02.88-.02,1.33,1.58.48,3.43-.04,4.56-1.25.68-.74.29-1.78.15-2.65-.73.66-1.25,1.51-1.97,2.18Z"/><path class="cls-5" d="M46.14,76.55c2.15.52,4.27,1.2,6.49,1.32-.83,1.51-1.25,3.21-1.13,4.94-1.78-.95-2.41-3.06-2.84-4.89-.62-.84-2.11-.21-2.52-1.37Z"/><path class="cls-5" d="M35.92,77.07c.71.07,1.74-.28,2.14.52.32,1.06.57,2.15.97,3.18-1.39-.8-3.5-1.75-3.11-3.7Z"/></g><g id="_e19429ff"><path class="cls-8" d="M90.22,42.25c.53-.2,1.09-.24,1.64-.19-.44.54-1.08.58-1.64.19Z"/></g><g id="_f4a12dff"><path class="cls-9" d="M41.83,47.79c.34-.74,1.01-1.26,1.62-1.77-.28.87-.7,1.71-1.33,2.39-.4.2-.35-.38-.29-.62Z"/><path class="cls-9" d="M31.12,59.25c.59-1.23.69-3.06,2.23-3.5-.57,1.08-1.48,2.22-.96,3.51-.43,0-.85,0-1.27-.01Z"/><path class="cls-9" d="M95.46,76.34c.21,0,.42.01.64.02.08,3.58.29,7.16.45,10.74-.19,1.21-1.1,2.15-1.42,3.32-.01-1.05-.24-2.29.55-3.13.63-.76.46-1.8.36-2.7-.17-2.75-.45-5.49-.58-8.25Z"/></g><g id="_010000ff"><path class="cls-4" d="M12.35,50.69c1.02-.07,2.27-.24,2.86.82-1-.03-2.09-.1-2.86-.82Z"/><path class="cls-4" d="M84.93,59.83c.8.02,1.52.38,2.14.85-.52,1.38-1.75-.14-2.14-.85Z"/><path class="cls-4" d="M87.31,61.67c.44.04.88.09,1.31.16.07.31.13.63.2.95-.78.14-1.24-.48-1.51-1.11Z"/><path class="cls-4" d="M45.86,69.54c.3,0,.6,0,.9-.01.96.8-.51,1.49-1.12.75.07-.25.14-.5.22-.74Z"/><path class="cls-4" d="M50.63,109.48c.9-.45,1.88.86,1.28,1.63-.56.57-1.54.21-1.95-.37-.25-.51.25-1.04.68-1.27Z"/></g><g id="_010100ff"><path class="cls-4" d="M16.57,51.6c2.57.37,5.08,1.6,6.81,3.57-1.45-.6-2.81-1.38-4.22-2.05-.9-.44-1.93-.71-2.59-1.52Z"/><path class="cls-4" d="M20.78,72.51c.32-.53.82-.92,1.39-1.14-.06.74-.6,1.34-1.39,1.14Z"/><path class="cls-4" d="M62.55,107.7c-.08-1.51,1.56-2.19,2.49-3.1.07.06.22.18.29.24-.04.93-.31,1.91-.98,2.59-.48.47-1.21.26-1.8.27Z"/></g><g id="_de9229ff"><path class="cls-2" d="M34.27,57.44c.16-.6.41-1.21.95-1.57,0,.67-.42,1.2-.95,1.57Z"/></g><g id="_f3a02dff"><path class="cls-3" d="M102.79,78.28c0-1.82-.06-3.71.47-5.47.36,1.59.25,3.22.26,4.84-.24.21-.49.43-.73.63Z"/><path class="cls-3" d="M72.53,95.91c.27.63.55,1.43-.03,1.98-.09-.66-.09-1.33.03-1.98Z"/><path class="cls-3" d="M74.73,96.18c.4,1.07.59,2.21.8,3.33-.79-.9-1-2.17-.8-3.33Z"/><path class="cls-3" d="M93.6,101.04c-.51-.42-.78-1.15-.23-1.66.18.53.26,1.1.23,1.66Z"/></g><g id="_f4a02dff"><path class="cls-9" d="M63.5,98.73c.49-.03.99-.07,1.48-.11-.44.53-1,1.03-1.74.87.08-.26.17-.51.26-.76Z"/></g><g id="_020100ff"><path class="cls-1" d="M65.15,104.47c-.35-1.66.73-3.18,2.09-3.99.1,1.54-1.1,2.92-2.09,3.99Z"/></g></svg>