<svg xmlns="http://www.w3.org/2000/svg" viewBox="0 0 276.81 347.46"><title>Ipswich Town FC logo - Brandlogos.net</title><path d="M373.64,338.42c14.14-.06,28.28-.11,42.36,0,.17,4.35,0,8.71.11,13,5.09.06,10.18,0,15.27.06.11-4.35.06-8.71,0-13,14.42-.11,28.84-.28,43.27.06-.06,4.3-.11,8.6,0,13,5.09-.06,10.18,0,15.27-.06-.06-4.35-.06-8.65.06-13,14.42-.11,28.9-.06,43.32,0-.11,4.3,0,8.65-.06,13,5.37,0,10.69.06,16.06-.06-.06-4.24-.06-8.54,0-12.78,14.25-.45,28.67-.23,43-.11,0,4.35-.06,8.65.06,13,5.43,0,10.86.06,16.35,0-.17-4.35-.11-8.65-.06-13,13.91-.06,27.77-.06,41.68,0q.08,36.31-.06,72.62c-4.81.11-9.84-.11-14.31,2a13.75,13.75,0,0,0-8,12.56q.08,104.86,0,209.77a33.09,33.09,0,0,1-6.73,2.77c-.28.17-.79.45-1,.57a6.05,6.05,0,0,1-2.94,1.13,5.89,5.89,0,0,1-1,.57,6.13,6.13,0,0,1-2.94,1.19c-.23.11-.74.4-1,.51a43.27,43.27,0,0,1-8,3.39c-.28.17-.79.45-1,.57a6.05,6.05,0,0,1-2.94,1.13,5.89,5.89,0,0,1-1,.57,6.13,6.13,0,0,1-2.94,1.19c-.23.11-.74.4-1,.51a41.72,41.72,0,0,1-8,3.39c-.28.17-.79.45-1,.57a6.05,6.05,0,0,1-2.94,1.13c-.23.17-.74.4-1,.57-9.56,4.3-19.17,8.71-29,12.44-.28.17-.79.45-1,.57a6.05,6.05,0,0,1-2.94,1.13,5.89,5.89,0,0,1-1,.57,6.13,6.13,0,0,1-2.94,1.19c-.23.11-.74.4-1,.51a11.75,11.75,0,0,1-4.07,1.7c-.28.17-.79.45-1,.57a7.24,7.24,0,0,1-2.94,1.13c-.28.17-.79.45-1,.57a33.58,33.58,0,0,1-6.9,2.88c-.23.11-.74.4-1,.51a11.75,11.75,0,0,1-4.07,1.7,9.15,9.15,0,0,1-1,.57,7.24,7.24,0,0,1-2.94,1.13c-.28.17-.79.45-1,.57a33.77,33.77,0,0,1-6.79,2.83,49.08,49.08,0,0,1-7.92-3.39c-.28-.11-.79-.4-1-.51a6.13,6.13,0,0,1-2.94-1.19,5.89,5.89,0,0,1-1-.57,105.84,105.84,0,0,1-12-5.09c-.23-.11-.74-.4-1-.57a47.47,47.47,0,0,1-8-3.39,5.89,5.89,0,0,1-1-.57,6.27,6.27,0,0,1-2.94-1.13c-.23-.11-.74-.4-1-.57-7.13-2.71-14.08-5.94-21-9a5.89,5.89,0,0,0-1-.57,13,13,0,0,1-4.07-1.7,5.89,5.89,0,0,1-1-.57,6.94,6.94,0,0,1-2.94-1.13,9.15,9.15,0,0,1-1-.57,52.57,52.57,0,0,1-8-3.39c-.28-.11-.79-.4-1-.51a7.51,7.51,0,0,1-2.94-1.19c-.23-.11-.74-.4-1-.57-7.13-2.66-14.08-6-21-9a9.15,9.15,0,0,1-1-.57,52.57,52.57,0,0,1-8-3.39c-.23-.11-.74-.4-1-.57s-1.19-.4-1.58-.57c.34-26,.06-52,.11-77.94-.06-5.54.23-11.09-.11-16.57-.17-38-.11-76.07-.06-114.08.68-6.11-3.34-11.71-8.65-14.31a8.54,8.54,0,0,1-1-.51c-4.13-1-8.31-.85-12.44-.9q0-36.31-.06-72.62m5.2,4.81c.11,20.81.11,41.68,0,62.5,4.81.51,9.84,1.19,13.8,4.24,4.64,3.39,8.54,8.6,8.71,14.54q.08,103.75.11,207.45c36.71,15.95,73.35,32,110.12,47.62,37.16-15.61,74-32.07,111.19-47.73v-209c1.19-10.58,12.16-17.25,22.17-17-.06-20.87,0-41.74,0-62.61q-15.69.08-31.39,0c0,4.47.06,8.94-.06,13.4-8.88,0-17.76.11-26.64-.06,0-4.47.17-8.94-.06-13.4-10.8.11-21.55.11-32.29,0-.28,4.47-.17,8.94-.11,13.4-8.77.17-17.59.11-26.41,0-.11-4.47.06-8.94-.11-13.35-10.8.06-21.66,0-32.52,0q.08,6.7,0,13.4c-8.71.06-17.42.11-26.13-.06-.06-4.47.11-8.94-.17-13.35-10.75,0-21.49.06-32.24-.06-.23,4.47-.11,8.94-.06,13.35-8.82.28-17.65.11-26.47.11-.11-4.47,0-8.94-.06-13.4C399.77,343.28,389.31,343.23,378.85,343.23Z" transform="translate(-373.6 -338.27)" style="fill:#de2c37;stroke:#de2c37;stroke-width:0.09375px"/><path d="M533.3,338.42c.23,4.3.06,8.6.11,13,5.2.06,10.46.11,15.67-.06.17-4.24-.28-8.54.23-12.73-.06,4.24-.06,8.54,0,12.78-5.37.11-10.69.06-16.06.06C533.3,347.07,533.19,342.72,533.3,338.42Z" transform="translate(-373.6 -338.27)" style="fill:#fefefe;stroke:#fefefe;stroke-width:0.09375px"/><path d="M378.85,343.23c10.46,0,20.93.06,31.39,0,.06,4.47-.06,8.94.06,13.4,8.82,0,17.65.17,26.47-.11-.06-4.41-.17-8.88.06-13.35,10.75.11,21.49.06,32.24.06.28,4.41.11,8.88.17,13.35,8.71.17,17.42.11,26.13.06q.08-6.7,0-13.4c10.86,0,21.72.06,32.52,0,.17,4.41,0,8.88.11,13.35,8.82.11,17.65.17,26.41,0-.06-4.47-.17-8.94.11-13.4,10.75.11,21.49.11,32.29,0,.23,4.47.06,8.94.06,13.4,8.88.17,17.76.06,26.64.06.11-4.47.06-8.94.06-13.4q15.69.08,31.39,0c0,20.87-.06,41.74,0,62.61-10-.28-21,6.39-22.17,17v209c-37.16,15.67-74,32.12-111.19,47.73C474.82,664,438.17,647.9,401.47,632q0-103.67-.11-207.45c-.17-5.94-4.07-11.14-8.71-14.54-4-3.05-9-3.73-13.8-4.24.11-20.81.11-41.68,0-62.5m3.34,3.34c-.11,18.78-.06,37.55-.06,56.27,10.41.68,21.21,8.14,23,18.83q.08,103.5.06,207c-.11.85.17,1.7,1.07,1.87,35.18,15.27,70.19,30.77,105.37,46,35.86-15.44,71.6-31.16,107.4-46.72.23-68.43,0-136.87.11-205.36.4-11.71,11.09-21,22.51-21.66.17-18.72.11-37.44,0-56.22-8.26.11-16.46.06-24.72,0,0,4.47.23,8.88-.11,13.29-11.09-.11-22.17-.06-33.26,0-.06-4.41.11-8.82-.11-13.29-8.48.06-17,.06-25.51,0-.23,4.41-.11,8.88-.11,13.29-11-.06-22.06-.11-33.09,0-.17-4.41.06-8.82-.17-13.29-8.6.06-17.25.06-25.85,0-.11,4.47.17,8.88-.17,13.29-10.92-.06-21.77-.11-32.69,0-.34-4.41-.06-8.82-.17-13.29q-12.9.08-25.79,0c-.11,4.47.17,8.88-.17,13.29-10.86-.11-21.77-.11-32.69,0-.28-4.41-.06-8.82-.17-13.29C398.64,346.62,390.38,346.62,382.18,346.56Z" transform="translate(-373.6 -338.27)" style="fill:#fefefe;stroke:#fefefe;stroke-width:0.09375px"/><path d="M382.18,346.56c8.2.06,16.46.06,24.66,0,.11,4.47-.11,8.88.17,13.29,10.92-.11,21.83-.11,32.69,0,.34-4.41.06-8.82.17-13.29q12.9.08,25.79,0c.11,4.47-.17,8.88.17,13.29,10.92-.11,21.77-.06,32.69,0,.34-4.41.06-8.82.17-13.29,8.6.06,17.25.06,25.85,0,.23,4.47,0,8.88.17,13.29,11-.11,22.06-.06,33.09,0,0-4.41-.11-8.88.11-13.29,8.48.06,17,.06,25.51,0,.23,4.47.06,8.88.11,13.29,11.09-.06,22.17-.11,33.26,0,.34-4.41.11-8.82.11-13.29,8.26.06,16.46.11,24.72,0,.11,18.78.17,37.5,0,56.22-11.42.62-22.11,10-22.51,21.66-.11,68.49.11,136.93-.11,205.36-35.8,15.55-71.55,31.28-107.4,46.72-35.18-15.21-70.19-30.71-105.37-46-.9-.17-1.19-1-1.07-1.87q-.08-103.5-.06-207c-1.75-10.69-12.56-18.15-23-18.83,0-18.72-.06-37.5.06-56.27m19.17,20.81c.06,11.09,0,22.17.06,33.2q110.71-.08,221.42,0c-.11-11-.11-22.06,0-33.14-1.64-.06-3.28-.11-4.92-.11-72.17.06-144.39-.06-216.56.06M415,407.65q.08,75.25,0,150.39c64.48.23,129,.11,193.48.06q.08-75.25-.06-150.44-96.71.08-193.43,0m-.34,154.74c0,10.24-.17,20.59.11,30.82v-.45c64.65.23,129.29,0,193.94.11,0-2.94-.06-5.94.11-8.94-.11-7.18.23-14.42-.23-21.6v.4q-97-.17-193.82.06l-.11-.4m.34,37.44c.06,9.56.06,19.17,0,28.73,64.48.11,129,0,193.43.06.17-9.61.11-19.23,0-28.84q-96.71-.08-193.43.06m21.32,35.86c24.43,10.75,49.2,20.81,73.75,31.33,1.58,1,3.22-.11,4.69-.68,24.38-10.29,49-20.13,73.24-30.65Q512.15,635.52,436.31,635.68Z" transform="translate(-373.6 -338.27)" style="fill:#de2c37;stroke:#de2c37;stroke-width:0.09375px"/><path d="M401.36,367.38c72.17-.11,144.39,0,216.56-.06,1.64,0,3.28.06,4.92.11-.11,11.09-.11,22.11,0,33.14q-110.71,0-221.42,0c-.06-11,0-22.11-.06-33.2m3.51,3.45c.06,8.82.06,17.65-.06,26.47,71.49.17,142.92.06,214.35.06q.17-13.32,0-26.64c-70-.11-140,0-209.94-.06C407.75,370.66,406.28,370.71,404.86,370.83Z" transform="translate(-373.6 -338.27)" style="fill:#fefefe;stroke:#fefefe;stroke-width:0.09375px"/><path d="M404.86,370.83c1.41-.11,2.88-.17,4.35-.17,70,.06,140-.06,209.94.06q.17,13.32,0,26.64c-71.43,0-142.86.11-214.35-.06.11-8.82.11-17.65.06-26.47m33.65,7.75c-1.92,1.41-1.7,4.41-.06,5.94,1.81,1.7,4.52,1.7,6.5,3.11.74.57.06,1.7-.74,1.81-2.38.68-4.69-.62-6.73-1.64-.06,1.13-.06,2.26-.11,3.39,3.11,1.24,6.9,2.09,10,.17a4,4,0,0,0,.74-6.28c-2.09-2-5.37-1.87-7.35-4,2.43-1.81,5.43-.57,7.86.4v-3.17c-3.17-1.13-7.18-2-10.07.28m49.37,1.3a6.85,6.85,0,0,0-.28,9.78c3.51,3.62,9.33,3.45,13.63,1.36v-3.28c-2.83,1.13-6.22,2.43-9.11.79-2.38-1.19-3.05-4.75-1-6.5,2.66-2.43,6.84-1.75,9.73-.06a27.42,27.42,0,0,0-.06-3.73c-4.24-1.58-9.56-1.7-13,1.64m64.65-2.6c-4.52.57-8.6,5.15-6.9,9.84,2.71,7.47,15.61,7.07,17.7-.74,1.3-5.94-5.49-10.29-10.8-9.11M415,377.5c.06,5,.06,9.9,0,14.87,1.47.06,2.88.06,4.3,0V377.5c-1.41-.06-2.83-.06-4.3,0m7.75,0c-.06,4.92-.11,9.84,0,14.76h4.07c.11-2,.11-4,.11-6.05,2.38.06,5.26.57,7-1.47,2.32-2.15,1-6.5-2.15-7.07s-6.05-.17-9-.17m27.26.06c2.32,4.69,4.35,9.5,6.67,14.2a1.32,1.32,0,0,0,2.38.06c1.58-2.83,2.77-5.77,4.47-8.48,1.92,2.94,3.22,6.22,5,9.22l1.81-.23c2.09-5,4.52-9.84,6.73-14.76-1.41,0-2.94-.45-4.3.17-1.36,2.38-2.26,5-3.56,7.41-1.53-2.43-2.66-5.09-4-7.69-1.13,0-2.26,0-3.39.06-1.24,2.55-2.43,5.2-3.9,7.64-1.36-2.43-2.26-5-3.62-7.47-1.36-.51-2.88-.17-4.3-.11m28.79-.11v15a37,37,0,0,0,4.35-.11q-.08-7.38,0-14.76c-1.41-.11-2.88-.11-4.35-.11m25.39,0c-.06,5-.11,9.9,0,14.82,1.36.06,2.66.06,4,.06l.17-6.11q3.82.08,7.64,0c-.06,2,0,4.07.06,6.05,1.3,0,2.66,0,4-.06,0-4.92-.06-9.78,0-14.7-1.3-.06-2.66-.06-4-.06q-.08,2.88,0,5.77a59.11,59.11,0,0,1-7.75.06c0-1.92,0-3.9-.06-5.83h-4m24.49.11c0,.9.06,1.81.06,2.71,1.87,0,3.73,0,5.6.06.11,4,.06,7.92,0,11.88,1.41.06,2.83,0,4.24,0q-.17-5.94,0-11.88c1.87-.06,3.79-.06,5.66-.11v-2.6c-5.15-.34-10.35-.23-15.55-.06M564,377.5c2.09,5.09,4.52,10,6.84,15,.45-.06,1.36-.11,1.81-.11,1.53-3.11,3.05-6.22,4.69-9.22,1.81,3,3.17,6.22,4.81,9.28.45,0,1.36-.06,1.81-.06,2.38-4.92,4.69-9.84,6.9-14.82-1.47,0-3.05-.51-4.35.23-1.24,2.43-2.09,5-3.56,7.35-1.41-2.38-2.38-5-3.73-7.35-1.19-.57-3.39-.85-4,.74-1.19,2.21-2,4.58-3.56,6.62-1.19-2.55-2.32-5.15-3.56-7.69-1.36,0-2.71,0-4.13.06m28.56.06c.11,4.86.06,9.73.06,14.65,1.3,0,2.6.06,3.9.11.11-3.05.11-6.05.06-9,2.71,2.66,5.26,5.49,7.92,8.2,1,1.24,2.83.68,4.19.74-.11-4.92-.11-9.78,0-14.65-1.3-.06-2.6-.11-4-.11-.06,2.83-.06,5.71,0,8.54-2.55-2.49-5-5-7.41-7.58C596.2,376.88,594.16,377.56,592.58,377.56Z" transform="translate(-373.6 -338.27)" style="fill:#3a64a3;stroke:#3a64a3;stroke-width:0.09375px"/><path d="M438.51,378.58c2.88-2.32,6.9-1.41,10.07-.28v3.17c-2.43-1-5.43-2.21-7.86-.4,2,2.15,5.26,2,7.35,4a4,4,0,0,1-.74,6.28c-3.05,1.92-6.84,1.07-10-.17.06-1.13.06-2.26.11-3.39,2,1,4.35,2.32,6.73,1.64.79-.11,1.47-1.24.74-1.81-2-1.41-4.69-1.41-6.5-3.11C436.82,383,436.59,380,438.51,378.58Z" transform="translate(-373.6 -338.27)" style="fill:#fefefe;stroke:#fefefe;stroke-width:0.09375px"/><path d="M487.89,379.88c3.39-3.34,8.71-3.22,13-1.64a27.42,27.42,0,0,1,.06,3.73c-2.88-1.7-7.07-2.38-9.73.06-2.09,1.75-1.41,5.32,1,6.5,2.88,1.64,6.28.34,9.11-.79V391c-4.3,2.09-10.12,2.26-13.63-1.36A6.85,6.85,0,0,1,487.89,379.88Z" transform="translate(-373.6 -338.27)" style="fill:#fefefe;stroke:#fefefe;stroke-width:0.09375px"/><path d="M552.53,377.27c5.32-1.19,12.1,3.17,10.8,9.11-2.09,7.8-15,8.2-17.7.74-1.7-4.69,2.38-9.28,6.9-9.84m.51,3.34c-3.05.28-4.47,4.07-3,6.56s4.81,2.77,7.07,1.47a4.45,4.45,0,0,0,1-6.73A5.73,5.73,0,0,0,553,380.61Z" transform="translate(-373.6 -338.27)" style="fill:#fefefe;stroke:#fefefe;stroke-width:0.09375px"/><path d="M415,377.5c1.47-.06,2.88-.06,4.3,0v14.87c-1.41.06-2.83.06-4.3,0C415,387.4,415,382.48,415,377.5Z" transform="translate(-373.6 -338.27)" style="fill:#fefefe;stroke:#fefefe;stroke-width:0.09375px"/><path d="M422.73,377.5c3,0,6.05-.34,9,.17s4.47,4.92,2.15,7.07c-1.75,2-4.64,1.53-7,1.47,0,2,0,4-.11,6.05h-4.07c-.11-4.92-.06-9.84,0-14.76m4.13,2.77c0,1.13.06,2.26.06,3.45,1.92,0,4.52-.23,4.07-2.83A8.68,8.68,0,0,0,426.86,380.27Z" transform="translate(-373.6 -338.27)" style="fill:#fefefe;stroke:#fefefe;stroke-width:0.09375px"/><path d="M450,377.56c1.41-.06,2.94-.4,4.3.11,1.36,2.43,2.26,5,3.62,7.47,1.47-2.43,2.66-5.09,3.9-7.64,1.13-.06,2.26-.06,3.39-.06,1.3,2.6,2.43,5.26,4,7.69,1.3-2.38,2.21-5,3.56-7.41,1.36-.62,2.88-.17,4.3-.17-2.21,4.92-4.64,9.78-6.73,14.76l-1.81.23c-1.75-3-3.05-6.28-5-9.22-1.7,2.71-2.88,5.66-4.47,8.48a1.32,1.32,0,0,1-2.38-.06C454.35,387.06,452.31,382.25,450,377.56Z" transform="translate(-373.6 -338.27)" style="fill:#fefefe;stroke:#fefefe;stroke-width:0.09375px"/><path d="M478.78,377.44c1.47,0,2.94,0,4.35.11q-.08,7.38,0,14.76a37,37,0,0,1-4.35.11Z" transform="translate(-373.6 -338.27)" style="fill:#fefefe;stroke:#fefefe;stroke-width:0.09375px"/><path d="M504.18,377.44h4c.06,1.92.06,3.9.06,5.83a59.11,59.11,0,0,0,7.75-.06q-.08-2.88,0-5.77c1.3,0,2.66,0,4,.06-.06,4.92,0,9.78,0,14.7-1.3.06-2.66.06-4,.06-.06-2-.11-4-.06-6.05q-3.82.08-7.64,0l-.17,6.11c-1.3,0-2.6,0-4-.06C504.06,387.34,504.12,382.42,504.18,377.44Z" transform="translate(-373.6 -338.27)" style="fill:#fefefe;stroke:#fefefe;stroke-width:0.09375px"/><path d="M528.67,377.56c5.2-.17,10.41-.28,15.55.06v2.6c-1.87.06-3.79.06-5.66.11q-.17,5.94,0,11.88c-1.41,0-2.83.06-4.24,0,.06-4,.11-7.92,0-11.88-1.87-.06-3.73-.06-5.6-.06C528.72,379.37,528.67,378.46,528.67,377.56Z" transform="translate(-373.6 -338.27)" style="fill:#fefefe;stroke:#fefefe;stroke-width:0.09375px"/><path d="M564,377.5c1.41-.06,2.77-.06,4.13-.06,1.24,2.55,2.38,5.15,3.56,7.69,1.53-2,2.38-4.41,3.56-6.62.57-1.58,2.77-1.3,4-.74,1.36,2.38,2.32,5,3.73,7.35,1.47-2.32,2.32-4.92,3.56-7.35,1.3-.74,2.88-.23,4.35-.23-2.21,5-4.52,9.9-6.9,14.82-.45,0-1.36.06-1.81.06-1.64-3.05-3-6.28-4.81-9.28-1.64,3-3.17,6.11-4.69,9.22-.45,0-1.36.06-1.81.11C568.54,387.51,566.11,382.59,564,377.5Z" transform="translate(-373.6 -338.27)" style="fill:#fefefe;stroke:#fefefe;stroke-width:0.09375px"/><path d="M592.58,377.56c1.58,0,3.62-.68,4.75.85,2.43,2.55,4.86,5.09,7.41,7.58-.06-2.83-.06-5.71,0-8.54,1.36,0,2.66.06,4,.11-.11,4.86-.11,9.73,0,14.65-1.36-.06-3.17.51-4.19-.74-2.66-2.71-5.2-5.54-7.92-8.2.06,3,.06,6-.06,9-1.3-.06-2.6-.11-3.9-.11C592.63,387.29,592.69,382.42,592.58,377.56Z" transform="translate(-373.6 -338.27)" style="fill:#fefefe;stroke:#fefefe;stroke-width:0.09375px"/><path d="M426.86,380.27a8.68,8.68,0,0,1,4.13.62c.45,2.6-2.15,2.83-4.07,2.83C426.92,382.53,426.86,381.4,426.86,380.27Z" transform="translate(-373.6 -338.27)" style="fill:#3a64a3;stroke:#3a64a3;stroke-width:0.09375px"/><path d="M553,380.61a5.73,5.73,0,0,1,5.09,1.3,4.45,4.45,0,0,1-1,6.73c-2.26,1.3-5.66.9-7.07-1.47S550,380.89,553,380.61Z" transform="translate(-373.6 -338.27)" style="fill:#3a64a3;stroke:#3a64a3;stroke-width:0.09375px"/><path d="M415,407.65q96.71,0,193.43,0,.25,75.16.06,150.44c-64.53.06-129,.17-193.48-.06q.08-75.16,0-150.39m4.35,3.85c-.11,45.81,0,91.62-.06,137.43a44.45,44.45,0,0,0,.17,5.49q92.47-.08,184.89,0c.11-1.24.23-2.55.23-3.79-.11-46.38.06-92.75-.11-139.13Z" transform="translate(-373.6 -338.27)" style="fill:#fefefe;stroke:#fefefe;stroke-width:0.09375px"/><path d="M419.34,411.49H604.45c.17,46.38,0,92.75.11,139.13,0,1.24-.11,2.55-.23,3.79q-92.39-.08-184.89,0a44.45,44.45,0,0,1-.17-5.49c.06-45.81-.06-91.62.06-137.43m27.54,2.83c-.17,2,.06,4.41,2,5.49,2.32-1.3,1.58-4,1.07-6.05-1,.23-2.32-.23-3.11.57m10-.62c-.34,2.26-.68,4.86,1.41,6.39,2.15-1.47,2.09-4,1.81-6.28-1.07,0-2.15-.06-3.22-.11m-20,2.26c-.17,3.11,2.49,4.75,3.51,7.3-2.09,1.13-4.3,2.55-6.67,2.83-2.32-3.17-6.16-4.24-9.84-4.92a70.82,70.82,0,0,0,3.22,8.09c.85,2-1.13,3.62-1.36,5.49-1.19,7.07.79,14,1.41,21,.51,6.11.85,12.33,2.71,18.21,2.49,2.71,6.45,3.9,10.07,3.79.62-2-.68-4.86,1.13-6.22,2.66-.11,2,3.51,2.6,5.26a4.84,4.84,0,0,0,3.79-2.77c.45-1.87-2.38-3.28-1.19-5.15,4.86-3.28,4.52-10.63,9.84-13.52a61,61,0,0,0,4.3,11.2c2.77,6.22-1.47,12.61-.62,19,.79,7.58,7.47,13.06,14.14,15.61,1.53,5.32,5.54,9.28,8,14.14,1.47,2.71,1.3,6.05,3.28,8.48,2.21,2.94,5.15,5.49,6.11,9.22,2.49,6.33.11,13.23-3.51,18.61a61,61,0,0,0,9.11.28c2.09-.11,4.35-1.13,4.81-3.34s2.6-3.45,3.45-5.43c.51-5.54-4.19-9.45-6.67-13.91-2.38-2.55-.57-6.28-2.26-9-4-5.66.23-12.67-1.53-18.89,7.24,2.6,15.27,4.35,22.91,2.09,8.88-2.15,16.85-6.73,25.51-9.56-.4-2.55-5.2-1.53-5.15-4.41a13.86,13.86,0,0,1,7.47,3.62,57,57,0,0,0,12.78,9.22c2.83,1.53,6.22,2.15,8.65,4.41a35.45,35.45,0,0,0,8.6,5.54c3.79,1.87,3.62,6.84,2.49,10.35-1.7,4.86-2.32,10.07-4.3,14.87-1.58,3.73-6.22,5.26-7.3,9.22,4.3,1.92,9.5,1.53,13.86.17.34-3.28,2.88-5.49,5.94-6.5.4-3.9-1.53-7.69-.74-11.54,1.64-8,5-15.5,7-23.41-6.22-3.17-14.37-7.13-14.2-15.27-5.09-.23-10.75-.74-14.65-4.41-3.73-3.11-4.07-9.73-.34-13,6.33-6.45,15.38-8.77,23-13.29-1.36-2.55-4.24-4.07-5-7,2.71-1.07,6.39-1.75,8.54.85,2.09,2,.51,5.15-1.47,6.56-7.52,5.2-17.25,6.84-23.75,13.57-2.77,2.71-3.56,7.92-.57,10.75,4.19,4.19,10.63,4.58,16.23,4.35-1.7-3.34-2.21-7.47.06-10.69,5.32-7.58,15.16-10.46,19.85-18.61a6.8,6.8,0,0,0-1.47-9.16c-4.75-3.73-11.37-3.51-16.85-1.7-1.81.68-4,1.92-5.83.62-5.2-3.34-11.09-6-17.36-6.05-15-.51-28.5,8.37-43.55,8-6.28.06-13.86-1.58-17.08-7.64-2.15-3.56-6.67-5.15-8.43-8.94-2.66.11-4.52-2.26-6.56-3.62,1.87-2.15,4.52-3.56,5-6.67-1-.4-1.87-.79-2.83-1.13-1.53,2-2.88,4.3-1.58,6.84-3.05,1-5.54-1.87-8.09-3.11,1-2.77,4.24-4,4.47-7.18-.9-.4-1.87-.79-2.77-1.13-1.36,1.81-2.49,3.85-1.47,6.11a10.57,10.57,0,0,1-1,1.75,31.29,31.29,0,0,1-7.69-2.77c.74-2.66,3.73-4.3,2.94-7.52-3.51-1.47-5.2,3.56-3.11,5.83-.17.51-.4,1.07-.62,1.58-2.71-.62-6.45,0-8.09-2.71-.23.28-.68.9-.9,1.24-2.55-.23-5.94,1-7.8-1.24-1.07,2.43-4.41,1.81-6.56,2.49a1.62,1.62,0,0,1-2.09-2.21c1-1.75-.11-3.62-.62-5.37-1.07.17-2.15.28-3.28.45m-15.95,9.16a8.83,8.83,0,0,0,4.58,6.79,5.34,5.34,0,0,0-4.58-6.79m71.49,2.26c-1.58,1.64-3.39,3.68-2.43,6.16,2.49-.4,4-2.32,5.09-4.41-.85-.57-1.75-1.19-2.66-1.75m88.17,58.48c3.56-3.68,6.56-8.31,7.41-13.46-4.64,2.55-10,7.69-7.41,13.46M428,489.65c-1,1.07-.57,2.66-.17,3.9,1.92,6.5,5.88,12.22,7.64,18.83,1.13,4.3-2.55,8.65-.28,12.78a45.13,45.13,0,0,0,9.73-5c.57-2.32,1-4.64,2.83-6.39a22.51,22.51,0,0,1-5.83-16.4c4.13.23,7.64,2.71,11.42,4,6.05,2.38,12.9,3.39,19.23,1.47-5.94-3.62-12.22-8-14.14-15a152.88,152.88,0,0,0-20.93-1.3c-3.34.11-7.13.45-9.5,3.11m112.49,7.3c1.3,5.88,4.64,11,7.47,16.18,1.07,1.92,1.36,4.64-.06,6.5-3.17,4.35-7,8.2-9.9,12.78-2.43,3.85-7.35,5.37-9.5,9.56,3.68.4,7.35.34,11,.51,2.66.23,2.88-3.34,4.92-4.3,1.3-.51,2.71-.68,4.07-1.07.62-8.65,6.79-15.38,12.9-21,.85-.85,2.55-1.87,1.7-3.28a30.53,30.53,0,0,1-3.28-7.64,92.48,92.48,0,0,1-14.87-9.78,19.38,19.38,0,0,0-4.41,1.53m-94.73,26.86c-1.87,1.36-4.35,2.26-5,4.75,2.26,1.3,3.56-1.24,5.09-2.38,2.77-2.32,6.28-3.28,9.39-4.92-3.45-1.41-6.73.74-9.5,2.55m-5.43,1.92a20,20,0,0,0,4.47-3.34c-1.64.79-3.85,1.41-4.47,3.34m17.19-3.17c-5,1-10,3.11-13.23,7.07a3.42,3.42,0,0,0,4.3.4c4.13-2.26,9-4,12.9-5.88-1.24-.62-2.43-1.92-4-1.58m3.56,3.56c-4.81,1.64-9.78,3.28-13.8,6.39,1.3,1.92,3.73,2.09,5.88,2,2.15-.79,3.17-4,5.83-3.51,2.38.28,4.13-1.64,6.33-2-.51-1.87-2.15-3.9-4.24-2.94m-23.41,5c3.28,6.11,9.78,9.84,16.23,11.71,1.87-2.26-.4-4.75-1.13-6.9-2.21-.57-5.66.17-6.56-2.49-.85-2.43-3.56-3.22-5.88-3.34-.4-1-.85-2-1.24-2.94-1,1-2.38,2.49-1.41,4m23.92.74a57.64,57.64,0,0,1-.45,13.23l2.77-.34c1.24-4.47.51-9.11.11-13.63-.79.28-1.58.51-2.43.74m4.3-.62c-.28,3.85.28,7.64.17,11.48,1.75-3.39,2.32-8.26-.17-11.48M436,532.41a7.16,7.16,0,0,0,2.09,7.75,9.49,9.49,0,0,0,1.47-3.68,11.77,11.77,0,0,0-3.56-4.07m18.32,3.51c.68,2,1.47,3.79,2.15,5.71a10.27,10.27,0,0,0-3.39,7.75c-1.36.74-3.51,1-3.45,3,2,0,4.52.62,6.22-.9,4.24-5.32,5.09-12.5,4.24-19.12-2.66-.62-4.13,1.92-5.77,3.56m-14.37,6c3.34,3,7.92,4.13,12.33,4.19.11-.74.28-1.47.4-2.15a47.44,47.44,0,0,1-11.88-6.16c-.4,1.36-1.24,2.71-.85,4.13m-3.68-1.53c.17,2.32,1.07,4.92,3.39,5.71s5,1.58,7.07,3.11c1.81,1.47,4.3.17,5.37-1.53-5.94-.51-11.82-2.66-15.84-7.3m24,5.88a38.21,38.21,0,0,0-1.87,4.41,8.08,8.08,0,0,0,5.2-4.41c-1.13,0-2.26-.06-3.34,0M442,548.42c.79,2.71,4.13,3,6.39,3.73C446.77,550.23,444.17,549.49,442,548.42Z" transform="translate(-373.6 -338.27)" style="fill:#3a64a3;stroke:#3a64a3;stroke-width:0.09375px"/><path d="M386.14,411.94a8.54,8.54,0,0,0,1,.51A8.54,8.54,0,0,1,386.14,411.94Z" transform="translate(-373.6 -338.27)" style="fill:#3a64a3;stroke:#3a64a3;stroke-width:0.09375px"/><path d="M446.88,414.32c.79-.79,2.09-.34,3.11-.57.51,2.09,1.24,4.75-1.07,6.05C446.94,418.73,446.71,416.36,446.88,414.32Z" transform="translate(-373.6 -338.27)" style="fill:#fefefe;stroke:#fefefe;stroke-width:0.09375px"/><path d="M456.84,413.7c1.07.06,2.15.11,3.22.11.28,2.32.34,4.81-1.81,6.28C456.16,418.56,456.5,416,456.84,413.7Z" transform="translate(-373.6 -338.27)" style="fill:#fefefe;stroke:#fefefe;stroke-width:0.09375px"/><path d="M436.87,416c1.13-.17,2.21-.28,3.28-.45.51,1.75,1.58,3.62.62,5.37a1.62,1.62,0,0,0,2.09,2.21c2.15-.68,5.49-.06,6.56-2.49,1.87,2.26,5.26,1,7.8,1.24.23-.34.68-1,.9-1.24,1.64,2.71,5.37,2.09,8.09,2.71.23-.51.45-1.07.62-1.58-2.09-2.26-.4-7.3,3.11-5.83.79,3.22-2.21,4.86-2.94,7.52a31.29,31.29,0,0,0,7.69,2.77,10.57,10.57,0,0,0,1-1.75c-1-2.26.11-4.3,1.47-6.11.9.34,1.87.74,2.77,1.13-.23,3.22-3.51,4.41-4.47,7.18,2.55,1.24,5,4.13,8.09,3.11-1.3-2.55.06-4.86,1.58-6.84,1,.34,1.87.74,2.83,1.13-.51,3.11-3.17,4.52-5,6.67,2,1.36,3.9,3.73,6.56,3.62,1.75,3.79,6.28,5.37,8.43,8.94,3.22,6.05,10.8,7.69,17.08,7.64,15,.4,28.5-8.48,43.55-8,6.28.06,12.16,2.71,17.36,6.05,1.87,1.3,4,.06,5.83-.62,5.49-1.81,12.1-2,16.85,1.7a6.8,6.8,0,0,1,1.47,9.16c-4.69,8.14-14.54,11-19.85,18.61-2.26,3.22-1.75,7.35-.06,10.69-5.6.23-12-.17-16.23-4.35-3-2.83-2.21-8,.57-10.75,6.5-6.73,16.23-8.37,23.75-13.57,2-1.41,3.56-4.58,1.47-6.56-2.15-2.6-5.83-1.92-8.54-.85.79,2.88,3.68,4.41,5,7-7.64,4.52-16.68,6.84-23,13.29-3.73,3.28-3.39,9.9.34,13,3.9,3.68,9.56,4.19,14.65,4.41-.17,8.14,8,12.1,14.2,15.27-2,7.92-5.32,15.44-7,23.41-.79,3.85,1.13,7.64.74,11.54-3.05,1-5.6,3.22-5.94,6.5-4.35,1.36-9.56,1.75-13.86-.17,1.07-4,5.71-5.49,7.3-9.22,2-4.81,2.6-10,4.3-14.87,1.13-3.51,1.3-8.48-2.49-10.35a35.45,35.45,0,0,1-8.6-5.54c-2.43-2.26-5.83-2.88-8.65-4.41A57,57,0,0,1,545.41,493a13.86,13.86,0,0,0-7.47-3.62c-.06,2.88,4.75,1.87,5.15,4.41-8.65,2.83-16.63,7.41-25.51,9.56-7.64,2.26-15.67.51-22.91-2.09,1.75,6.22-2.43,13.23,1.53,18.89,1.7,2.77-.11,6.5,2.26,9,2.49,4.47,7.18,8.37,6.67,13.91-.85,2-3.05,3.17-3.45,5.43s-2.71,3.22-4.81,3.34a61,61,0,0,1-9.11-.28c3.62-5.37,6-12.27,3.51-18.61-1-3.73-3.9-6.28-6.11-9.22-2-2.43-1.81-5.77-3.28-8.48-2.43-4.86-6.45-8.82-8-14.14-6.67-2.55-13.35-8-14.14-15.61-.85-6.39,3.39-12.78.62-19a61,61,0,0,1-4.3-11.2c-5.32,2.88-5,10.24-9.84,13.52-1.19,1.87,1.64,3.28,1.19,5.15a4.84,4.84,0,0,1-3.79,2.77c-.62-1.75.06-5.37-2.6-5.26-1.81,1.36-.51,4.19-1.13,6.22-3.62.11-7.58-1.07-10.07-3.79-1.87-5.88-2.21-12.1-2.71-18.21-.62-7-2.6-14-1.41-21,.23-1.87,2.21-3.51,1.36-5.49a70.82,70.82,0,0,1-3.22-8.09c3.68.68,7.52,1.75,9.84,4.92,2.38-.28,4.58-1.7,6.67-2.83-1-2.55-3.68-4.19-3.51-7.3M429,443.28c-.62,1.75.34,3.51,1.13,5.09,1.13-1.47,3.05-3.05,2.38-5.15-.4-1.58-3.05-1.53-3.51.06m1.75,28c.11.68.23,1.36.4,2a12.4,12.4,0,0,0,3.56,2C434.61,473.25,432.63,471.78,430.71,471.27Z" transform="translate(-373.6 -338.27)" style="fill:#fefefe;stroke:#fefefe;stroke-width:0.09375px"/><path d="M420.92,425.12a5.34,5.34,0,0,1,4.58,6.79A8.83,8.83,0,0,1,420.92,425.12Z" transform="translate(-373.6 -338.27)" style="fill:#fefefe;stroke:#fefefe;stroke-width:0.09375px"/><path d="M492.41,427.38c.9.57,1.81,1.19,2.66,1.75-1.07,2.09-2.6,4-5.09,4.41C489,431.06,490.83,429,492.41,427.38Z" transform="translate(-373.6 -338.27)" style="fill:#fefefe;stroke:#fefefe;stroke-width:0.09375px"/><path d="M429,443.28c.45-1.58,3.11-1.64,3.51-.06.68,2.09-1.24,3.68-2.38,5.15C429.29,446.78,428.33,445,429,443.28Z" transform="translate(-373.6 -338.27)" style="fill:#3a64a3;stroke:#3a64a3;stroke-width:0.09375px"/><path d="M430.71,471.27c1.92.51,3.9,2,4,4.07a12.4,12.4,0,0,1-3.56-2C430.93,472.63,430.82,472,430.71,471.27Z" transform="translate(-373.6 -338.27)" style="fill:#3a64a3;stroke:#3a64a3;stroke-width:0.09375px"/><path d="M580.59,485.86c-2.6-5.77,2.77-10.92,7.41-13.46C587.15,477.55,584.15,482.19,580.59,485.86Z" transform="translate(-373.6 -338.27)" style="fill:#fefefe;stroke:#fefefe;stroke-width:0.09375px"/><path d="M428,489.65c2.38-2.66,6.16-3,9.5-3.11a152.88,152.88,0,0,1,20.93,1.3c1.92,7.07,8.2,11.42,14.14,15-6.33,1.92-13.18.9-19.23-1.47-3.79-1.3-7.3-3.79-11.42-4a22.51,22.51,0,0,0,5.83,16.4c-1.81,1.75-2.26,4.07-2.83,6.39a45.13,45.13,0,0,1-9.73,5c-2.26-4.13,1.41-8.48.28-12.78-1.75-6.62-5.71-12.33-7.64-18.83C427.43,492.31,427,490.73,428,489.65Z" transform="translate(-373.6 -338.27)" style="fill:#fefefe;stroke:#fefefe;stroke-width:0.09375px"/><path d="M540.49,496.95a19.38,19.38,0,0,1,4.41-1.53,92.48,92.48,0,0,0,14.87,9.78,30.53,30.53,0,0,0,3.28,7.64c.85,1.41-.85,2.43-1.7,3.28-6.11,5.6-12.27,12.33-12.9,21-1.36.4-2.77.57-4.07,1.07-2,1-2.26,4.52-4.92,4.3-3.62-.17-7.3-.11-11-.51,2.15-4.19,7.07-5.71,9.5-9.56,2.94-4.58,6.73-8.43,9.9-12.78,1.41-1.87,1.13-4.58.06-6.5C545.12,507.92,541.79,502.83,540.49,496.95Z" transform="translate(-373.6 -338.27)" style="fill:#fefefe;stroke:#fefefe;stroke-width:0.09375px"/><path d="M445.75,523.81c2.77-1.81,6.05-4,9.5-2.55-3.11,1.64-6.62,2.6-9.39,4.92-1.53,1.13-2.83,3.68-5.09,2.38C441.4,526.08,443.89,525.17,445.75,523.81Z" transform="translate(-373.6 -338.27)" style="fill:#fefefe;stroke:#fefefe;stroke-width:0.09375px"/><path d="M440.32,525.74c.62-1.92,2.83-2.55,4.47-3.34A20,20,0,0,1,440.32,525.74Z" transform="translate(-373.6 -338.27)" style="fill:#fefefe;stroke:#fefefe;stroke-width:0.09375px"/><path d="M457.52,522.57c1.53-.34,2.71,1,4,1.58-3.9,1.87-8.77,3.62-12.9,5.88a3.42,3.42,0,0,1-4.3-.4C447.56,525.68,452.54,523.53,457.52,522.57Z" transform="translate(-373.6 -338.27)" style="fill:#fefefe;stroke:#fefefe;stroke-width:0.09375px"/><path d="M461.08,526.13c2.09-1,3.73,1.07,4.24,2.94-2.21.34-4,2.26-6.33,2-2.66-.45-3.68,2.71-5.83,3.51-2.15.06-4.58-.11-5.88-2C451.3,529.41,456.27,527.77,461.08,526.13Z" transform="translate(-373.6 -338.27)" style="fill:#fefefe;stroke:#fefefe;stroke-width:0.09375px"/><path d="M437.67,531.17c-1-1.47.4-3,1.41-4,.4,1,.85,2,1.24,2.94,2.32.11,5,.9,5.88,3.34.9,2.66,4.35,1.92,6.56,2.49.74,2.15,3,4.64,1.13,6.9C447.45,541,440.95,537.28,437.67,531.17Z" transform="translate(-373.6 -338.27)" style="fill:#fefefe;stroke:#fefefe;stroke-width:0.09375px"/><path d="M461.59,531.9c.85-.23,1.64-.45,2.43-.74.4,4.52,1.13,9.16-.11,13.63l-2.77.34A57.64,57.64,0,0,0,461.59,531.9Z" transform="translate(-373.6 -338.27)" style="fill:#fefefe;stroke:#fefefe;stroke-width:0.09375px"/><path d="M465.89,531.28c2.49,3.22,1.92,8.09.17,11.48C466.17,538.92,465.6,535.13,465.89,531.28Z" transform="translate(-373.6 -338.27)" style="fill:#fefefe;stroke:#fefefe;stroke-width:0.09375px"/><path d="M436,532.41a11.77,11.77,0,0,1,3.56,4.07,9.49,9.49,0,0,1-1.47,3.68A7.16,7.16,0,0,1,436,532.41Z" transform="translate(-373.6 -338.27)" style="fill:#fefefe;stroke:#fefefe;stroke-width:0.09375px"/><path d="M454.35,535.92c1.64-1.64,3.11-4.19,5.77-3.56.85,6.62,0,13.8-4.24,19.12-1.7,1.53-4.19.9-6.22.9-.06-2,2.09-2.26,3.45-3a10.27,10.27,0,0,1,3.39-7.75C455.82,539.71,455,537.9,454.35,535.92Z" transform="translate(-373.6 -338.27)" style="fill:#fefefe;stroke:#fefefe;stroke-width:0.09375px"/><path d="M440,541.91c-.4-1.41.45-2.77.85-4.13a47.44,47.44,0,0,0,11.88,6.16c-.11.68-.28,1.41-.4,2.15C447.9,546,443.32,544.91,440,541.91Z" transform="translate(-373.6 -338.27)" style="fill:#fefefe;stroke:#fefefe;stroke-width:0.09375px"/><path d="M436.31,540.39c4,4.64,9.9,6.79,15.84,7.3-1.07,1.7-3.56,3-5.37,1.53-2.09-1.53-4.64-2.21-7.07-3.11S436.48,542.7,436.31,540.39Z" transform="translate(-373.6 -338.27)" style="fill:#fefefe;stroke:#fefefe;stroke-width:0.09375px"/><path d="M395.87,540.84c.34,5.49.06,11,.11,16.57-.06,26,.23,52-.11,77.94l.06.4C395.64,604.13,395.76,572.45,395.87,540.84Z" transform="translate(-373.6 -338.27)" style="fill:#3a64a3;stroke:#3a64a3;stroke-width:0.09375px"/><path d="M460.29,546.27c1.07-.06,2.21,0,3.34,0a8.08,8.08,0,0,1-5.2,4.41A38.21,38.21,0,0,1,460.29,546.27Z" transform="translate(-373.6 -338.27)" style="fill:#fefefe;stroke:#fefefe;stroke-width:0.09375px"/><path d="M442,548.42c2.21,1.07,4.81,1.81,6.39,3.73C446.09,551.41,442.76,551.13,442,548.42Z" transform="translate(-373.6 -338.27)" style="fill:#fefefe;stroke:#fefefe;stroke-width:0.09375px"/><path d="M414.65,562.39l.11.4c.11.85.17,1.75.34,2.6,5.71,0,11.65.11,17,2.55,2.83,1.3,5.49,3.56,8.82,3.22,5.83-.45,10.8-4.13,16.51-5,7.24-1.24,14.59.28,21.49,2.49,2.71.85,5.37,2.26,8.37,2.21,5.2.34,10-2.09,14.93-3.51a28.66,28.66,0,0,1,15.72-1c6.39,1.41,12.44,4.75,19.12,4.47,3.62.06,6.73-1.87,10.12-2.71a52.37,52.37,0,0,1,14.76-2.43c6.45.11,12.27,3.28,18.38,5,3.62,1.13,7.41-.17,10.63-1.87,5.37-2.77,11.48-3.45,17.48-3.39l.17-2.71v-.4c.45,7.18.11,14.42.23,21.6a33.9,33.9,0,0,0-13.69,1.58c-3.56,1.19-6.62,4-10.58,3.85-8.43.51-15.33-6.11-23.75-5.6-7.52.23-14.37,3.62-21.6,5.2-10.8,1.75-20.42-7.07-31.28-4.69-8.6,2-17.48,7.07-26.47,3.85-8.88-3.62-19.34-6.5-28.5-2.26-5.2,2.66-11.25,4-17,2.6-3-.68-5.43-2.77-8.37-3.62a37.53,37.53,0,0,0-12.56-1c-.06,2.94.28,5.94-.23,8.88v.45c-.28-10.24-.11-20.59-.11-30.82m.34,9.16v6.05c3.51-.06,7.07.11,10.52.4,5.49.45,9.78,5.09,15.38,4.92,5.94-.23,11-3.85,16.74-4.81,7.13-1.36,14.31.45,21.1,2.6,2.83.79,5.54,2.15,8.48,2.21,8.71.28,16.29-5.43,24.94-5.09,7,0,13.35,3.11,20,4.81,5.88,1.41,11.54-1.13,17-3a35.47,35.47,0,0,1,15-1.64c5.88.74,11.31,3.34,17,4.92,3.22,1,6.62-.4,9.5-1.92,5.43-3,11.76-3.34,17.82-3.34.11-1.92.11-3.79.06-5.71-4.75-.11-9.9-.45-14.14,2-3.22,1.75-6.67,3.28-10.35,3.39-4.86,0-9.39-2-13.8-3.85-7-2.66-14.65-1.53-21.6.57-3.85,1-7.41,3.22-11.48,3.05-9.11.45-17-5.77-26-5.2-6.62.34-12.5,3.79-18.95,5-8.71,1.24-16.57-3.56-24.89-5-7.8-1-15.16,2.38-22.34,4.92a19.18,19.18,0,0,1-13.29-2.15C426.58,571.83,420.64,571.21,415,571.55Z" transform="translate(-373.6 -338.27)" style="fill:#fefefe;stroke:#fefefe;stroke-width:0.09375px"/><path d="M414.76,562.78q96.88-.34,193.82-.06l-.17,2.71c-6-.06-12.1.62-17.48,3.39-3.22,1.7-7,3-10.63,1.87-6.11-1.75-11.93-4.92-18.38-5a52.37,52.37,0,0,0-14.76,2.43c-3.39.85-6.5,2.77-10.12,2.71-6.67.28-12.73-3.05-19.12-4.47a28.66,28.66,0,0,0-15.72,1c-4.92,1.41-9.73,3.85-14.93,3.51-3,.06-5.66-1.36-8.37-2.21-6.9-2.21-14.25-3.73-21.49-2.49-5.71.9-10.69,4.58-16.51,5-3.34.34-6-1.92-8.82-3.22-5.32-2.43-11.25-2.55-17-2.55C414.93,564.54,414.87,563.63,414.76,562.78Z" transform="translate(-373.6 -338.27)" style="fill:#3a64a3;stroke:#3a64a3;stroke-width:0.09375px"/><path d="M415,571.55c5.66-.34,11.59.28,16.63,3.05a19.18,19.18,0,0,0,13.29,2.15c7.18-2.55,14.54-5.94,22.34-4.92,8.31,1.47,16.18,6.28,24.89,5,6.45-1.19,12.33-4.64,18.95-5,9-.57,16.91,5.66,26,5.2,4.07.17,7.64-2,11.48-3.05,7-2.09,14.65-3.22,21.6-.57,4.41,1.81,8.94,3.85,13.8,3.85,3.68-.11,7.13-1.64,10.35-3.39,4.24-2.43,9.39-2.09,14.14-2,.06,1.92.06,3.79-.06,5.71-6.05,0-12.39.34-17.82,3.34-2.88,1.53-6.28,2.88-9.5,1.92-5.71-1.58-11.14-4.19-17-4.92a35.47,35.47,0,0,0-15,1.64c-5.43,1.87-11.09,4.41-17,3-6.62-1.7-13-4.81-20-4.81-8.65-.34-16.23,5.37-24.94,5.09-2.94-.06-5.66-1.41-8.48-2.21-6.79-2.15-14-4-21.1-2.6-5.77,1-10.8,4.58-16.74,4.81-5.6.17-9.9-4.47-15.38-4.92-3.45-.28-7-.45-10.52-.4Z" transform="translate(-373.6 -338.27)" style="fill:#3a64a3;stroke:#3a64a3;stroke-width:0.09375px"/><path d="M415,583.88a37.53,37.53,0,0,1,12.56,1c2.94.85,5.37,2.94,8.37,3.62,5.77,1.36,11.82.06,17-2.6,9.16-4.24,19.63-1.36,28.5,2.26,9,3.22,17.87-1.87,26.47-3.85,10.86-2.38,20.47,6.45,31.28,4.69,7.24-1.58,14.08-5,21.6-5.2,8.43-.51,15.33,6.11,23.75,5.6,4,.17,7-2.66,10.58-3.85a33.9,33.9,0,0,1,13.69-1.58c-.17,3-.11,6-.11,8.94-64.65-.11-129.29.11-193.94-.11C415.27,589.82,414.93,586.82,415,583.88Z" transform="translate(-373.6 -338.27)" style="fill:#3a64a3;stroke:#3a64a3;stroke-width:0.09375px"/><path d="M415,599.83q96.71-.25,193.43-.06c.11,9.61.17,19.23,0,28.84-64.48-.06-129,.06-193.43-.06.06-9.56.06-19.17,0-28.73m4.35,3.28c-.06,7.47-.11,14.87,0,22.28q92.56.17,185.11,0c.11-7.41.11-14.87,0-22.28Q511.9,602.94,419.34,603.11Z" transform="translate(-373.6 -338.27)" style="fill:#fefefe;stroke:#fefefe;stroke-width:0.09375px"/><path d="M419.34,603.11q92.56-.17,185.11,0c.11,7.41.11,14.87,0,22.28q-92.56.17-185.11,0c-.11-7.41-.06-14.82,0-22.28m8.48,5.26q-.17,5.68,0,11.37c1.07,0,2.21,0,3.34-.06-.06-1.53,0-3,0-4.52,1.87.06,3.79,0,5.66-.11v-2.09c-1.92-.06-3.79-.06-5.66-.11,0-.74.06-1.47.06-2.15,1.87,0,3.73,0,5.6-.11v-2.15c-3-.11-6-.06-9-.06m15.55.23c-3.11.74-5.6,4.07-4.35,7.3,2.15,4.64,9,5.15,12.73,2.15a4.86,4.86,0,0,0,1-6.9c-2.09-2.88-6.16-3.51-9.39-2.55m16.91-.06c-2.88.62-5.49,3.45-4.81,6.56,1.75,6.67,13.8,6.39,14.93-.57.28-5.09-6-7.35-10.12-6m10.63-.17v2.15c1.53,0,3.05,0,4.58.06.11,3,.11,6.05.06,9l3.39.17c.11-3.05.11-6.11,0-9.11,1.58-.11,3.17-.23,4.75-.23,0-.68.06-1.36.06-2-4.3-.11-8.6-.06-12.84-.06m14.65,0q-.08,5.68,0,11.37c3.17-.11,6.62.62,9.61-.68,2.26-1.3,1.53-4.58-.57-5.66a2.77,2.77,0,0,0-.57-4.52c-2.66-1-5.66-.34-8.48-.51m17.08.06c-1.7,3.73-3.51,7.47-5.2,11.25,1.19.06,2.32.06,3.51.11.34-.79.68-1.53,1.07-2.26h5.54a21.08,21.08,0,0,0,1.3,2.09,13.63,13.63,0,0,0,3.39.06c-1.75-3.9-3.85-7.52-5.71-11.31-1.3,0-2.6,0-3.9.06m11.14-.11c-.11,3.85-.06,7.64,0,11.42a85.44,85.44,0,0,0,10.07-.17v-2c-2.26.06-4.47.06-6.67-.06-.11-3-.11-6.05-.06-9.11-1.13,0-2.21,0-3.34-.06m11.76.06q-.17,5.68,0,11.37c3.34.06,6.62.11,10-.06a14.49,14.49,0,0,1-.17-2.21,51.68,51.68,0,0,1-6.62-.06c.06-3.05.06-6.05,0-9h-3.17m17.76,2.26a5.15,5.15,0,0,0,.74,7.69c3.05,2.21,7.18,1.7,10.58.68-.06-1,.06-1.87.06-2.77-2.49.9-5.43,2-7.8.4a2.88,2.88,0,0,1-.51-4.64c2.21-2.15,5.66-1.24,8.14-.23,0-1-.06-1.87-.06-2.83-3.68-1.07-8.31-1.36-11.14,1.7m13.91-2.32c-.11,3.79-.11,7.58,0,11.42,3.34.06,6.67.11,10-.06a14.32,14.32,0,0,1-.17-2.15c-2.15.06-4.3.06-6.45-.06-.06-3-.06-6.05,0-9-1.13-.06-2.26-.06-3.39-.11m11.54.06c.11,2.94-.57,6.16.57,9,2.66,3.51,9.11,3.45,11.93.11,1.19-2.83.51-6.11.57-9.16-1.13.06-2.26.06-3.39.11a43.53,43.53,0,0,1-.11,7.18c-.79,2.66-5.32,2.55-6-.11-.34-2.38-.11-4.75-.23-7.13h-3.34m15.84,0c-.06,3.79,0,7.58,0,11.37,3.17-.11,6.56.62,9.56-.68,2.26-1.3,1.58-4.58-.57-5.6,1-1.19,1.64-3.11.11-4.13C591,607.52,587.6,608.65,584.6,608.37Z" transform="translate(-373.6 -338.27)" style="fill:#3a64a3;stroke:#3a64a3;stroke-width:0.09375px"/><path d="M427.82,608.37c3,0,6-.06,9,.06v2.15c-1.87.11-3.73.11-5.6.11,0,.68-.06,1.41-.06,2.15,1.87.06,3.73.06,5.66.11V615c-1.87.11-3.79.17-5.66.11,0,1.53-.06,3,0,4.52-1.13.06-2.26.06-3.34.06Q427.65,614.05,427.82,608.37Z" transform="translate(-373.6 -338.27)" style="fill:#fefefe;stroke:#fefefe;stroke-width:0.09375px"/><path d="M443.38,608.59c3.22-1,7.3-.34,9.39,2.55a4.86,4.86,0,0,1-1,6.9c-3.73,3-10.58,2.49-12.73-2.15-1.24-3.22,1.24-6.56,4.35-7.3m1.7,2.21a3.43,3.43,0,0,0-2.71,4.47c1.47,3.34,7.41,2.83,7.92-.9C450.56,611.65,447.39,610.18,445.07,610.8Z" transform="translate(-373.6 -338.27)" style="fill:#fefefe;stroke:#fefefe;stroke-width:0.09375px"/><path d="M460.29,608.54c4.13-1.36,10.41.9,10.12,6-1.13,7-13.18,7.24-14.93.57-.68-3.11,1.92-5.94,4.81-6.56m1.19,2.32a3.38,3.38,0,0,0-2.32,4.64c1.53,3.28,7.92,2.38,7.75-1.53C466.91,611.31,463.68,610.18,461.48,610.86Z" transform="translate(-373.6 -338.27)" style="fill:#fefefe;stroke:#fefefe;stroke-width:0.09375px"/><path d="M470.92,608.37c4.24,0,8.54-.06,12.84.06,0,.68-.06,1.36-.06,2-1.58,0-3.17.11-4.75.23.11,3,.11,6.05,0,9.11l-3.39-.17c.06-3,.06-6.05-.06-9-1.53-.06-3.05-.06-4.58-.06Z" transform="translate(-373.6 -338.27)" style="fill:#fefefe;stroke:#fefefe;stroke-width:0.09375px"/><path d="M485.57,608.37c2.83.17,5.83-.51,8.48.51a2.77,2.77,0,0,1,.57,4.52c2.09,1.07,2.83,4.35.57,5.66-3,1.3-6.45.57-9.61.68q-.08-5.68,0-11.37m3.39,2c0,.79,0,1.64.06,2.43,1.07-.17,3.51.28,3.22-1.53-.74-1.13-2.21-.74-3.28-.9m0,4.52v2.6a31.86,31.86,0,0,0,4-.23,12.92,12.92,0,0,1,0-2.09C491.62,615.1,490.26,615,489,614.93Z" transform="translate(-373.6 -338.27)" style="fill:#fefefe;stroke:#fefefe;stroke-width:0.09375px"/><path d="M502.65,608.42c1.3-.06,2.6-.06,3.9-.06,1.87,3.79,4,7.41,5.71,11.31a13.63,13.63,0,0,1-3.39-.06,21.08,21.08,0,0,1-1.3-2.09H502c-.4.74-.74,1.47-1.07,2.26-1.19-.06-2.32-.06-3.51-.11,1.7-3.79,3.51-7.52,5.2-11.25m.45,7h3.39a18.41,18.41,0,0,0-1.81-3.85A12,12,0,0,0,503.1,615.44Z" transform="translate(-373.6 -338.27)" style="fill:#fefefe;stroke:#fefefe;stroke-width:0.09375px"/><path d="M513.79,608.31c1.13.06,2.21.06,3.34.06-.06,3.05-.06,6.11.06,9.11,2.21.11,4.41.11,6.67.06v2a85.44,85.44,0,0,1-10.07.17C513.73,615.95,513.68,612.16,513.79,608.31Z" transform="translate(-373.6 -338.27)" style="fill:#fefefe;stroke:#fefefe;stroke-width:0.09375px"/><path d="M525.56,608.37h3.17c.06,3,.06,6,0,9a51.68,51.68,0,0,0,6.62.06,14.49,14.49,0,0,0,.17,2.21c-3.34.17-6.62.11-10,.06Q525.39,614.05,525.56,608.37Z" transform="translate(-373.6 -338.27)" style="fill:#fefefe;stroke:#fefefe;stroke-width:0.09375px"/><path d="M543.31,610.63c2.83-3.05,7.47-2.77,11.14-1.7,0,1,.06,1.87.06,2.83-2.49-1-5.94-1.92-8.14.23a2.88,2.88,0,0,0,.51,4.64c2.38,1.58,5.32.51,7.8-.4,0,.9-.11,1.81-.06,2.77-3.39,1-7.52,1.53-10.58-.68A5.15,5.15,0,0,1,543.31,610.63Z" transform="translate(-373.6 -338.27)" style="fill:#fefefe;stroke:#fefefe;stroke-width:0.09375px"/><path d="M557.23,608.31c1.13.06,2.26.06,3.39.11-.06,3-.06,6.05,0,9,2.15.11,4.3.11,6.45.06a14.32,14.32,0,0,0,.17,2.15c-3.34.17-6.67.11-10,.06C557.11,615.89,557.11,612.1,557.23,608.31Z" transform="translate(-373.6 -338.27)" style="fill:#fefefe;stroke:#fefefe;stroke-width:0.09375px"/><path d="M568.76,608.37h3.34c.11,2.38-.11,4.75.23,7.13.68,2.66,5.2,2.77,6,.11a43.53,43.53,0,0,0,.11-7.18c1.13-.06,2.26-.06,3.39-.11-.06,3.05.62,6.33-.57,9.16-2.83,3.34-9.28,3.39-11.93-.11C568.2,614.53,568.88,611.31,568.76,608.37Z" transform="translate(-373.6 -338.27)" style="fill:#fefefe;stroke:#fefefe;stroke-width:0.09375px"/><path d="M584.6,608.37c3,.28,6.45-.85,9.11,1,1.53,1,.85,2.94-.11,4.13,2.15,1,2.83,4.3.57,5.6-3,1.3-6.39.57-9.56.68,0-3.79-.06-7.58,0-11.37m3.34,2c.06.79.06,1.64.06,2.43,1.13-.17,3.45.28,3.22-1.53-.68-1.13-2.15-.74-3.28-.9m0,4.52c0,.9,0,1.75.06,2.6a31,31,0,0,0,4-.23,12.92,12.92,0,0,1,0-2.09C590.6,615.1,589.3,615,587.94,614.93Z" transform="translate(-373.6 -338.27)" style="fill:#fefefe;stroke:#fefefe;stroke-width:0.09375px"/><path d="M445.07,610.8c2.32-.62,5.49.85,5.2,3.56-.51,3.73-6.45,4.24-7.92.9A3.43,3.43,0,0,1,445.07,610.8Z" transform="translate(-373.6 -338.27)" style="fill:#3a64a3;stroke:#3a64a3;stroke-width:0.09375px"/><path d="M461.48,610.86c2.21-.68,5.43.45,5.43,3.11.17,3.9-6.22,4.81-7.75,1.53A3.38,3.38,0,0,1,461.48,610.86Z" transform="translate(-373.6 -338.27)" style="fill:#3a64a3;stroke:#3a64a3;stroke-width:0.09375px"/><path d="M489,610.4c1.07.17,2.55-.23,3.28.9.28,1.81-2.15,1.36-3.22,1.53C489,612,489,611.2,489,610.4Z" transform="translate(-373.6 -338.27)" style="fill:#3a64a3;stroke:#3a64a3;stroke-width:0.09375px"/><path d="M587.94,610.4c1.13.17,2.6-.23,3.28.9.23,1.81-2.09,1.36-3.22,1.53C588,612,588,611.2,587.94,610.4Z" transform="translate(-373.6 -338.27)" style="fill:#3a64a3;stroke:#3a64a3;stroke-width:0.09375px"/><path d="M503.1,615.44a12,12,0,0,1,1.58-3.85,18.41,18.41,0,0,1,1.81,3.85Z" transform="translate(-373.6 -338.27)" style="fill:#3a64a3;stroke:#3a64a3;stroke-width:0.09375px"/><path d="M489,614.93c1.3.06,2.66.17,4,.28a12.92,12.92,0,0,0,0,2.09,31.86,31.86,0,0,1-4,.23Z" transform="translate(-373.6 -338.27)" style="fill:#3a64a3;stroke:#3a64a3;stroke-width:0.09375px"/><path d="M587.94,614.93c1.36.06,2.66.17,4,.28a12.92,12.92,0,0,0,0,2.09,31,31,0,0,1-4,.23C587.94,616.68,587.94,615.83,587.94,614.93Z" transform="translate(-373.6 -338.27)" style="fill:#3a64a3;stroke:#3a64a3;stroke-width:0.09375px"/><path d="M436.31,635.68q75.84-.17,151.69,0c-24.26,10.52-48.87,20.36-73.24,30.65-1.47.57-3.11,1.7-4.69.68C485.51,656.5,460.74,646.43,436.31,635.68Z" transform="translate(-373.6 -338.27)" style="fill:#3a64a3;stroke:#3a64a3;stroke-width:0.09375px"/><path d="M397.45,635.91c.28.17.79.45,1,.57C398.24,636.36,397.74,636.08,397.45,635.91Z" transform="translate(-373.6 -338.27)" style="fill:#3a64a3;stroke:#3a64a3;stroke-width:0.09375px"/><path d="M620.18,638.74c.23-.11.74-.4,1-.57C620.91,638.34,620.4,638.63,620.18,638.74Z" transform="translate(-373.6 -338.27)" style="fill:#3a64a3;stroke:#3a64a3;stroke-width:0.09375px"/><path d="M406.5,639.87a9.15,9.15,0,0,0,1,.57A9.15,9.15,0,0,1,406.5,639.87Z" transform="translate(-373.6 -338.27)" style="fill:#3a64a3;stroke:#3a64a3;stroke-width:0.09375px"/><path d="M616.22,640.44a5.89,5.89,0,0,0,1-.57A5.89,5.89,0,0,1,616.22,640.44Z" transform="translate(-373.6 -338.27)" style="fill:#3a64a3;stroke:#3a64a3;stroke-width:0.09375px"/><path d="M612.26,642.13c.28-.11.79-.4,1-.51C613,641.74,612.54,642,612.26,642.13Z" transform="translate(-373.6 -338.27)" style="fill:#3a64a3;stroke:#3a64a3;stroke-width:0.09375px"/><path d="M603.21,646.09c.23-.11.74-.4,1-.57C603.94,645.7,603.43,646,603.21,646.09Z" transform="translate(-373.6 -338.27)" style="fill:#3a64a3;stroke:#3a64a3;stroke-width:0.09375px"/><path d="M599.25,647.79a5.89,5.89,0,0,0,1-.57A5.89,5.89,0,0,1,599.25,647.79Z" transform="translate(-373.6 -338.27)" style="fill:#3a64a3;stroke:#3a64a3;stroke-width:0.09375px"/><path d="M595.29,649.48c.28-.11.79-.4,1-.51C596.08,649.09,595.57,649.37,595.29,649.48Z" transform="translate(-373.6 -338.27)" style="fill:#3a64a3;stroke:#3a64a3;stroke-width:0.09375px"/><path d="M428.56,649.48c.28.17.79.45,1,.57C429.35,649.94,428.84,649.65,428.56,649.48Z" transform="translate(-373.6 -338.27)" style="fill:#3a64a3;stroke:#3a64a3;stroke-width:0.09375px"/><path d="M432.52,651.24c.23.11.74.4,1,.51C433.25,651.63,432.74,651.35,432.52,651.24Z" transform="translate(-373.6 -338.27)" style="fill:#3a64a3;stroke:#3a64a3;stroke-width:0.09375px"/><path d="M586.24,653.44c.23-.11.74-.4,1-.57C587,653,586.47,653.33,586.24,653.44Z" transform="translate(-373.6 -338.27)" style="fill:#3a64a3;stroke:#3a64a3;stroke-width:0.09375px"/><path d="M582.28,655.14c.28-.17.79-.4,1-.57C583.07,654.74,582.56,655,582.28,655.14Z" transform="translate(-373.6 -338.27)" style="fill:#3a64a3;stroke:#3a64a3;stroke-width:0.09375px"/><path d="M441.57,655.14a9.15,9.15,0,0,0,1,.57A9.15,9.15,0,0,1,441.57,655.14Z" transform="translate(-373.6 -338.27)" style="fill:#3a64a3;stroke:#3a64a3;stroke-width:0.09375px"/><path d="M445.53,656.84a5.89,5.89,0,0,0,1,.57A5.89,5.89,0,0,1,445.53,656.84Z" transform="translate(-373.6 -338.27)" style="fill:#3a64a3;stroke:#3a64a3;stroke-width:0.09375px"/><path d="M450.62,659.1a5.89,5.89,0,0,1,1,.57A5.89,5.89,0,0,0,450.62,659.1Z" transform="translate(-373.6 -338.27)" style="fill:#3a64a3;stroke:#3a64a3;stroke-width:0.09375px"/><path d="M552.31,668.15c.23-.11.74-.4,1-.57C553,667.75,552.53,668,552.31,668.15Z" transform="translate(-373.6 -338.27)" style="fill:#3a64a3;stroke:#3a64a3;stroke-width:0.09375px"/><path d="M472.67,668.71c.28.17.79.45,1,.57C473.47,669.17,473,668.88,472.67,668.71Z" transform="translate(-373.6 -338.27)" style="fill:#3a64a3;stroke:#3a64a3;stroke-width:0.09375px"/><path d="M548.35,669.85a5.89,5.89,0,0,0,1-.57A5.89,5.89,0,0,1,548.35,669.85Z" transform="translate(-373.6 -338.27)" style="fill:#3a64a3;stroke:#3a64a3;stroke-width:0.09375px"/><path d="M476.63,670.41a5.89,5.89,0,0,0,1,.57A5.89,5.89,0,0,1,476.63,670.41Z" transform="translate(-373.6 -338.27)" style="fill:#3a64a3;stroke:#3a64a3;stroke-width:0.09375px"/><path d="M544.39,671.54c.28-.11.79-.4,1-.51C545.18,671.15,544.67,671.43,544.39,671.54Z" transform="translate(-373.6 -338.27)" style="fill:#3a64a3;stroke:#3a64a3;stroke-width:0.09375px"/><path d="M539.3,673.8c.23-.11.74-.4,1-.57C540,673.41,539.52,673.69,539.3,673.8Z" transform="translate(-373.6 -338.27)" style="fill:#3a64a3;stroke:#3a64a3;stroke-width:0.09375px"/><path d="M485.68,674.37c.28.17.79.45,1,.57C486.47,674.82,486,674.54,485.68,674.37Z" transform="translate(-373.6 -338.27)" style="fill:#3a64a3;stroke:#3a64a3;stroke-width:0.09375px"/><path d="M535.34,675.5c.23-.11.74-.4,1-.57C536.07,675.11,535.57,675.39,535.34,675.5Z" transform="translate(-373.6 -338.27)" style="fill:#3a64a3;stroke:#3a64a3;stroke-width:0.09375px"/><path d="M527.42,678.89c.28-.11.79-.4,1-.51C528.21,678.5,527.7,678.78,527.42,678.89Z" transform="translate(-373.6 -338.27)" style="fill:#3a64a3;stroke:#3a64a3;stroke-width:0.09375px"/><path d="M498.69,680a5.89,5.89,0,0,0,1,.57A5.89,5.89,0,0,1,498.69,680Z" transform="translate(-373.6 -338.27)" style="fill:#3a64a3;stroke:#3a64a3;stroke-width:0.09375px"/><path d="M522.33,681.16a9.15,9.15,0,0,0,1-.57A9.15,9.15,0,0,1,522.33,681.16Z" transform="translate(-373.6 -338.27)" style="fill:#3a64a3;stroke:#3a64a3;stroke-width:0.09375px"/><path d="M502.65,681.78c.23.11.74.4,1,.51C503.38,682.17,502.88,681.89,502.65,681.78Z" transform="translate(-373.6 -338.27)" style="fill:#3a64a3;stroke:#3a64a3;stroke-width:0.09375px"/><path d="M518.37,682.85c.23-.11.74-.4,1-.57C519.11,682.46,518.6,682.74,518.37,682.85Z" transform="translate(-373.6 -338.27)" style="fill:#3a64a3;stroke:#3a64a3;stroke-width:0.09375px"/></svg>