<?xml version="1.0" encoding="UTF-8"?><svg id="Layer_1" xmlns="http://www.w3.org/2000/svg" xmlns:xlink="http://www.w3.org/1999/xlink" viewBox="0 0 237 237"><defs><style>.cls-1,.cls-2{fill:none;}.cls-2{stroke:#0053a0;stroke-width:5.95px;}.cls-3{fill:#fdbe11;}.cls-3,.cls-4{fill-rule:evenodd;}.cls-5{fill:#fff;}.cls-6{clip-path:url(#clippath);}.cls-4{fill:#0053a0;}</style><clipPath id="clippath"><rect class="cls-1" width="237" height="237"/></clipPath></defs><g class="cls-6"><path class="cls-5" d="M233.73,118.5c0,63.64-51.59,115.23-115.23,115.23S3.27,182.14,3.27,118.5,54.86,3.27,118.5,3.27c63.64,0,115.23,51.59,115.23,115.23h0Z"/><path class="cls-2" d="M233.73,118.5c0,63.64-51.59,115.23-115.23,115.23S3.27,182.14,3.27,118.5,54.86,3.27,118.5,3.27c63.64,0,115.23,51.59,115.23,115.23h0Z"/><path class="cls-4" d="M117.13,10.63C57.56,11.39,9.86,60.31,10.61,119.88c.75,59.57,49.68,107.27,109.25,106.51,59.57-.75,107.27-49.68,106.51-109.25-.75-59.57-49.68-107.27-109.25-106.51h0ZM11.94,119.86C11.2,61.03,58.31,12.71,117.15,11.96c58.84-.74,107.15,46.37,107.9,105.2.74,58.84-46.37,107.15-105.2,107.9-58.84.75-107.15-46.36-107.9-105.2h0,0Z"/><path class="cls-4" d="M119.47,172.76c.06,0,.12.01.2.02.75.09,1.17.47,1.63.98.22.29.3.63.26.99-.12,3.19-.67,6.41-1.74,9.2-.02.13-.12.16-.17,0-1.24-3.93-3.37-7.9-.69-11,.17-.15.32-.2.5-.19ZM123.77,171.21s-.09,0-.13.04c-2.57,1.22-6.6,1.81-8.87.54-.27-.14-.43-.03-.54.12-4.08,6.9-13.76,6.74-20.64,4.99-5.11-1.15-10.11-2.61-14.24,1.48,21.5,15.51,54.65,15.99,79.52-1.07-4.69-2.22-8.95-.62-14.11.57-5.84,1.36-14.04,2.58-20.66-6.52-.11-.03-.21-.14-.33-.15h0ZM67.13,133.16c.23,0,.46,0,.69.02.19.02.39.02.52.15.79.95.64,2.27-.85,3.29-3.13,2.01-6.77,2.12-10.11,2.26-.13,0-.36-.14-.13-.35,3.05-2.79,6.42-5.33,9.89-5.37ZM169.28,131.47c.21,0,.43.03.65.09,2.86.52,7.19,2.2,9.76,5.39.17.21.09.38-.17.35-4.13-.12-8.77-.58-11.98-3.11-.46-.36-.88-.72-.55-1.58.24-.54.99-.96,1.63-1.07.23-.04.45-.08.67-.07h0ZM49.82,98.84c-.07.02-.12.1-.19.24-8.26,22.57-.14,57.67,25.2,76.2,0-.48.28-1.48.57-2.15.11-.26.09-.59,0-.91-.93-4.08-3.36-8.2-5.68-12.2-7.99-13.27-3.56-22.37,9.35-28.27.17-.05.2-.15.11-.32-.2-.44-.4-.87-.59-1.32-.06-.12,0-.35-.3-.31-2.89.36-6.15.62-9.1.48-4.43-.99-8.66-2.75-11.85-7.45-5.7-7.96,2.11-18.68-7.31-23.96-.08-.05-.15-.08-.22-.06h0ZM186.18,97.46c-8.36,8.38,5.21,22.43-13.2,30.27-1.62.48-3.18,1.05-4.65,1.05-4.09.02-9.92-3.1-9.88,3.11,0,.11.1.19.24.24,5.69,2.44,13.37,7.71,13.5,15.85.28,9.7-9.93,16.23-8.31,25.44,21.81-18.86,30.79-46.72,22.31-75.97ZM168.65,68.44c.45,3.68.11,7.17-.87,10.57-.04.16-.04.28.15.41,5.89,3.15,9.09,12.36,15.9,12.72.08.04.21.04.17-.07-2.36-8.22-9.17-17.94-15.35-23.63ZM70.24,66.17c-8.15,7.23-15.15,16.69-18.79,27.31-.04.1.02.15.17.17,7.98.72,10.58-9.68,16.7-13.55.08-.05.15-.09.15-.19-.43-4.74-.64-8.74,1.78-13.73h0ZM122.38,47.71c-.13,0-.17.05-.17.26-.79,1.97,1.52,4.02,2.87,5.35.13.12.34.26.5.33,8.36,3.4,17.61,5.92,19.64,15.53.04.15.07.24.23.11,4.46-2.96,8.88-5.95,13.39-8.8.23-.1.15-.2,0-.3-10.19-7.25-22.92-11.96-36.46-12.5h0ZM114.59,47.69c-13.08-.03-28.28,5.15-38.5,13.61-.03.02-.03.11.04.15,5.84,2.32,9.85,5.39,16.09,8.89.23.12.3.07.35-.13,3.02-15.34,21.75-11.09,23.5-22.27-.08-.08-.06-.21-.23-.22-.41-.01-.84-.02-1.26-.02h0Z"/><path class="cls-4" d="M36.77,89.79c.64,1.03.78,2.78.82,4.02.17,2.33-1.2,6.75-1.56,9.02-4.29-.84-8.61-1.88-12.89-2.82-1.18-.23-1.66-1.17-2.35-2.19-.45,1.93-1.22,5.59-1.63,7.54.86-.64,1.51-1.13,2.52-.91,4.58.96,9.13,1.96,13.68,3,1.05.23,2.1,1.02,2.65,2.02.98-4.43,2.8-12.51,3.76-16.96-.47.04-.96.12-1.37-.14-1.33-.73-2.28-1.88-3.63-2.58h0ZM33.9,64.26c-2.23,4.59-6.86,13.12-9.05,17.72,1.22-.48,2.13-.4,3.24.17,3.97,1.99,7.97,3.92,11.94,5.89.98.49,1.83,1.47,2.22,2.48,2.22-4.67,6.3-12.93,8.85-17.55-.53,0-1.05-.44-1.43-.81-1.05-1-1.58-2.13-2.65-3.11.3,1.85.03,4.07-.78,5.87-.94,2-3.43,6.86-4.37,8.87-1.56-.53-2.76-1.42-4.26-2.1.75-1.8,2.97-5.87,3.74-7.64,0-1.04-1.23-2.8-2.11-4.06-.04.68-.33,1.36-.65,1.98-.96,1.95-3.12,6.27-4.09,8.2-1.37-.69-3.15-1.36-4.52-2.04.96-1.95,3.37-6.82,4.37-8.76.77-1.52,2.02-2.79,3.55-3.56-1.59-.64-2.65-.44-4.02-1.55h0ZM42.27,53.63c-1.23,1.58-3.4,4.33-4.7,5.86,1.21-.18,2.3-.08,3.22.64,3.53,2.74,7.05,5.52,10.55,8.28.9.68,1.31,1.7,1.43,2.87,1.3-1.55,3.39-4.25,4.65-5.76-1.09.14-2.16.2-3-.48-3.58-2.76-7.1-5.57-10.66-8.35-.97-.74-1.52-1.74-1.48-3.06ZM58.62,37.84c-.47.68-1.08,1.29-1.81,1.69-2.44,1.14-6.82,5.08-7.87,7.57-1.46,2.85-1.45,5.47.28,8.79,1.97,3.92,4.75,5.74,9.02,5.74,4.24-.26,8.05-3.97,9.79-6.26.96-1.11,1.89-2.33,3.3-2.94-1.18-1.31-2.43-2.56-3.63-3.85-.43,1.57-1.19,2.93-2.22,4.24-1.52,1.73-3.89,4.45-6.57,4.32-2.69-.13-3.54-1.41-4.74-2.72-1.2-1.31-2.02-2.84-1.81-5.19.21-2.35,4.86-6.68,8.22-6.81-.77-1.46-1.17-3.09-1.94-4.57h0ZM156.61,29.12c1.69.85,4.18,1.95,5.72,2.8,4.08,2.12,1.18,6.56-1.78,4.89-1.69-.56-4.64-2.23-6.29-2.91.71-1.65,1.62-3.13,2.34-4.78h0ZM80,25.53c-4.44,2.49-12.98,6.76-17.36,9.33,1.14.3,1.94.73,2.48,1.72,2.19,3.94,4.38,7.87,6.55,11.81.56.98.39,2.15-.05,3.24,4.56-2.53,13.09-6.97,17.66-9.48-1.43-.81-.52-3.52-1.1-5.3-.45,1.55-2.06,2.97-3.36,3.92-2.12,1.42-7.11,3.96-9.32,5.22-.81-1.43-1.62-2.89-2.39-4.35,1.72-1.07,5.72-2.84,7.41-3.96.99-1.24.41-3.03.63-4.48-.43.52-1,1-1.61,1.31-1.85,1.03-5.92,3.28-7.79,4.3-.71-1.35-1.57-2.63-2.18-4.04,3.43-1.56,9.59-5.72,13.5-5.5-.98-1.42-2.55-2.07-3.06-3.76h0ZM152.59,23.49c.42,1.03.66,2.01.17,2.98-1.84,3.96-3.92,7.88-5.86,11.87-.55,1.16-1.24,1.9-2.54,2.39,1.72.88,4.68,2.36,6.42,3.24-.73-2.66,1.08-5.05,2.11-7.2.99.54,3.66,1.79,4.31,2.87.88,1.48,1.09,3,1.28,4.54.08,1.39.2,2.44-1.24,2.93,2.01.82,5.18,2.51,7.05,3.41-1.49-3.06-.57-7.23-2.55-10.24,1.29.06,3.46.27,4.83-.57,2.48-1.46,3.09-3.76,2.24-6.8-.47-1.6-2.04-2.51-3.37-3.15-3.19-1.58-9.66-4.7-12.85-6.26ZM102.76,19.32c-3.09.67-9.99,1.16-12.65,3.18-3.19,2.21-3.92,7.12.21,9.27,2.6,1.06,7.54-.09,10.11.11,1.77.07,2.51,2.52,1.35,3.72-2.51,2.23-9.33,2.23-12.31,1.33.73,1.71,1.55,3.18,2.32,4.87,1.01-.64,2.81-.79,3.96-1,2.44-.35,8.22-1.92,9.85-3.89,1.95-2.29,2.04-5.6.15-7.7-1.71-1.87-6.99-1.54-9.24-1.39-1.28,0-2.34.45-3.56-.15-1.04-.71-.98-2.49.18-3.09,2.23-1.18,7.28-1.36,9.61-.41-.14-1.63.07-3.24.02-4.87h0ZM123.94,18.06c-4.84.02-14.12.53-18.96.59,1.04,1.7-.5,3.2-.54,4.91,1.64-1.49,5.74-1.93,7.87-1.87,0,4.67.48,9.36.54,14.02.03.88-.66,1.44-1.22,1.8,2.11-.02,5.43-.28,7.41-.32-.97-.89-1.46-.97-1.48-2.22-.34-4.3-.52-9.31-.63-13.59,2.18-.16,6.18.23,7.96,1.31,0-1.88-1.83-3.75-.94-4.63h0ZM126.36,17.99c.64.84,1.28,1.78,1.05,2.8-.82,4.63-1.71,9.25-2.65,13.87-.17,1.03-.91,1.47-1.67,2.16,5.07.92,14.55,2.71,19.63,3.67-.14-2.01,1.4-3.18,2.02-5-1.69,1.18-3.85,1.62-5.85,1.19-2.09-.39-7.25-1.42-9.33-1.85.34-1.61.55-3.26.93-4.87,2.03.36,5.29,1.13,7.31,1.37,1.72.41,3.03-1.98,3.96-3.11-.66.15-1.9.23-2.57.07-2.12-.41-5.94-1.22-8.06-1.65.19-1.54.52-3.05.84-4.56,3.64.96,11.24,1.31,13.94,4.37.09-1.69-.86-3.78.1-4.91-5.02-.98-14.62-2.62-19.65-3.56h0Z"/><path class="cls-4" d="M84.11,204.05c1.88.73,5.01,1.79,6.68,2.44,3.67,1.28,2.7,6.2-1.74,4.67-2-.63-4.66-1.46-6.55-2.18.46-1.61,1.15-3.3,1.61-4.92ZM110.4,202.29l3.28,8.94c-2.05-.12-5.97-.36-8.02-.59l4.74-8.35h0ZM128.38,199.12c-2.06.34-5.55.74-7.52.99.93.66,1.63,1.06,1.76,2.17.48,4.25,1.34,8.33,1.89,12.59.11,1.33.14,3.04-.8,4.13,4.5-.43,12.79-1.77,17.28-2.29-.17-.4-.46-.77-.35-1.2.2-1.52.77-2.83.96-4.37-1.49,1.7-3.64,2.61-5.98,3.02-1.34.23-5.26.86-6.48.83-.51-4.32-1.26-8.87-1.78-13.18-.15-1.13.27-1.8,1.02-2.67h0ZM107.1,199.02c.14.28.05.98-.18,1.29l-8.05,13.63c-.72,1.17-1.39,1.7-2.39,2.47,1.84.28,5.01,1.2,6.85,1.55-.59-1.29-.54-2.89.42-4.12,2.84.25,8.16.64,10.98.98.57,1.34,1.31,2.96,0,4.18,1.87-.01,5.14-.08,6.96.04-.82-.98-1.62-1.96-1.96-3.22-.86-2.52-4.04-11.89-5.04-14.79-.17-.53.06-1.18.08-1.24l-7.67-.76h0ZM86.13,196.79c1.58.56,6.09,1.59,7.63,2.23,2.14.89.75,4.73-1.48,4.23-1.57-.25-5.97-1.49-7.44-2.04.41-1.48.84-2.96,1.3-4.43h0ZM144.38,195.44c-1.91.49-5.1,1.83-6.98,2.47,1.05.45,1.77.76,2.13,1.81,1.34,4.07,2.96,7.87,4.35,11.93.38,1.28.85,2.72.15,3.98,4.32-1.33,11.83-4.04,16.11-5.46-.24-.36-.62-.65-.59-1.1-.11-1.53.28-2.77.15-4.31-.99,2.06-3.17,3.12-5.39,3.98-1.25.4-4.76,1.97-6,2.09-1.37-4.12-3-8.45-4.38-12.57-.38-1.07-.1-1.81.46-2.82ZM82.05,192.03c.58,1.06.43,2.26.09,3.37-1.29,4.34-2.94,8.23-4.24,12.56-.29,1.05-.95,1.67-2.27,1.98,4.11,1.3,8.89,3.04,13.24,4.37,4.5,1.46,8.55.37,9.04-4.35.28-2.71-2.61-3.97-3.74-4.57,2.98.37,4.98-1.22,5.14-4.02.25-1.99-1.56-4.17-5.66-5.5-2.94-.96-8.62-3-11.59-3.83h0ZM65.3,180.83c-.03,1.8-1.88,1.27-3.34,3.54,2.19-.22,5.86,1.73,7.58,3.01-2.55,3.87-5.2,7.65-7.78,11.48-.48.81-1.32.9-2.2.97,1.61,1.11,4.54,3.07,6.15,4.18-.32-1.29-.2-2.35.5-3.41,2.28-3.37,4.59-6.74,6.87-10.13.13-.14.24-.46.49-.37,1.87,1.01,4.78,3.55,5.44,5.59.78-1.51.63-3.91,2.07-4.5-3.96-2.73-11.79-7.7-15.77-10.37h0ZM51.22,172.67c1.58,0,3.02.64,4.09,1.76,1.98,1.83,2.91,4.08,2,6.46-1.26,2.8-3.6,4.61-6.5,5-3.15.44-7.22-3.73-6.8-7.17.51-3.15,2.57-4.44,4.26-5.33,1-.49,1.99-.72,2.94-.72h0ZM49.43,168.24c-.78.02-1.54.18-2.3.46-3.62,1.33-6.27,3.67-7.33,7.67-1.49,5.47,4.5,12.65,10.15,13.66,3.63.61,6.84-.7,9.03-3.04,2.07-2.03,3.35-5.06,2.65-8.66-.87-4.05-4.14-7.51-7.87-9.22-1.64-.61-3.03-.92-4.33-.87h0ZM36.89,152.86c2-.01,4.03.5,5.41,2.55,1.71,2.13,2.23,5.12,1.02,6.91-1.72,2.26-4.5,3.61-7.42,3.5-3.18-.11-6.4-4.18-5.46-8.09.89-3.18,4.5-4.71,6.46-4.87h0ZM37.04,148.25c-.53-.02-1.07.03-1.61.09-3.62.78-6.99,2.56-8.54,6.35-2.03,5.28,1.98,13.4,7.37,15.39,3.46,1.24,6.89.31,9.46-1.61,2.39-1.64,4.01-4.37,3.94-8.03-.15-4.14-2.46-8.24-5.83-10.57-1.6-1.13-3.19-1.57-4.8-1.61h0ZM36.82,127.71c-.64.92-1.57,1.68-2.67,1.89-4.19,1.19-8.65,2.09-13.42,3.24-.96.34-1.54-.06-2.44-.76.42,1.94,1.08,5.1,1.54,7.03,1.7-2.38,4.87-2.29,7.37-3.13.59,2.01,1.29,6.22,1.96,8.18,1.05,1.09,2.79,1.24,4.17,1.73-.36-.53-1.03-1.67-1.13-2.32-.49-2.12-1.4-6.17-1.89-8.28,1.6-.36,3.17-.83,4.8-1.06.86,3.36,2.87,9.61,1.31,12.81,1.63-.52,2.98-2.32,4.44-1.94-.96-4.51-3.15-12.86-4.04-17.41h0,0Z"/><path class="cls-4" d="M214.03,85.79c-.4,1.84-2.07,2.9-3.11,4.28-2.07,2.42-4.57,5.15-7,7.61-.58.54-2.02.72-2.89.91-1.81.26-2.65.47-4.03-.69.43,1.95,1.14,5.42,1.53,7.37.77-1.17,1.59-1.86,3.11-2.24,1.35-.24,2.55-.76,3.52-.34,4.43,2.41,12.75,5.85,13.79,6.93l-1.52-7.28c-.49.71-1.07,1.06-1.66.83-2.66-1.03-5.82-2.5-8.08-3.36,1.65-1.92,3.58-3.78,5.33-5.59.76-.93,1.8-1.29,2.73-.39l-1.72-8.03h0ZM204.83,66.8c-.99,1.49-3.18.59-4.74,1.19,1.89,1.07,3.99,4.49,4.77,6.5-4.24,1.98-7.74,3.77-11.98,5.78-.81.41-2.08.15-2.9-.17.88,1.78,2.34,4.9,3.22,6.67.47-1.37,1.84-2.53,3.11-3.09,3.79-1.72,6.91-3.39,10.74-5.02.97,1.91,2.6,5.51,2.06,7.67,1.46-.88,2.18-2.81,3.85-2.63-2.03-4.39-6.08-12.5-8.13-16.89h0ZM198.49,57.87c-.06,1.9-1.06,2.48-2.42,3.5-3.31,2.26-6.44,4.57-9.74,6.76-.94.6-2.15,1.36-3.49.72,1.07,1.67,3.19,4.48,4.28,6.13.11-1.7,1.02-2.47,2.06-3.15,3.57-2.38,6.92-4.95,10.5-7.31,1.03-.7,1.62-1,3-.54-1.06-1.63-3.11-4.48-4.18-6.11h0ZM182.52,44.04c-2.9-.12-4.82.68-6.85,2.39-2.27,2.06-3.81,4.46-3.8,8.05.08,2.83,3.17,7.28,6.89,9.63,1.05.77,2.71,1.74,2.87,3.03,1.23-1.26,2.52-2.51,3.78-3.68-3.02-.91-8.14-3.84-8.87-7.22-.47-2.69.19-3.57,1.33-5.04,2.13-2.58,4.3-3.51,7.54-2.61,2.9,1.15,5.49,4.78,5.72,7.43,1.51-.79,2.93-1.42,4.46-2.18-1.21-.75-1.75-1.65-2.57-2.74-1.78-2.59-5.13-6.29-9.19-6.94-.46-.05-.9-.09-1.31-.11h0Z"/><path class="cls-4" d="M173.63,178.94c-.93,1.22-2.79,1.93-4.13,2.52-2.9,1.38-6.96,4.69-7.81,8.56-.68,3.34.06,6.03,1.9,8.46,1.82,2.47,4.12,3.9,7.3,3.98,3.55-.03,7.34-2.32,10.14-5.17.92-.92,2.06-2.19,3.41-2.3-1.13-1.34-2.07-2.85-3.29-4.13-.79,2.45-4.62,6.46-7.2,7.17-2.28.52-3.81-.1-5.48-1.54-1.86-1.92-3.01-4.28-2.24-7.05,1.14-3.57,5.88-6.18,8.85-5.66-.54-1.59-.95-3.3-1.45-4.83h0ZM196.57,173.48c-.06,2.09-1.23,4.55-2.72,6.26-.75,1.01-3.17,3.75-4.15,4.8-3.31-2.81-6.32-5.36-9.64-8.15-.88-.72-1.57-1.73-1.61-2.87-1.37,1.42-3.23,3.52-4.5,5.04,1.14-.16,2.2.39,3.06,1.11,3.26,2.78,6.42,5.63,9.72,8.36.99.9,1.5,1.77,1.55,3.21,3-3.38,8.56-9.78,11.48-13.22-.4-.17-.93-.23-1.15-.71-.86-1.58-1.12-2.58-2.04-3.83ZM195.05,147.89c-1.24,2.24-2.38,4.37-3.68,6.63.99-.47,1.96-.53,2.78-.09,2.89,1.53,5.35,2.96,8.22,4.55,1.11.64,2.31,1.83,2.43,3.41-.05,2.11-1.51,4.66-3.45,5.52-1.4.66-3-.02-4.07-.63-2.62-1.58-4.69-2.7-7.32-4.3-.91-.52-1.71-.91-1.8-2.59-1.26,2.13-2.39,4.46-3.7,6.65,1.75-.78,2.95-.26,4.21.52,2.33,1.34,4.28,2.47,6.59,3.81,1.77,1,3.53,1.66,5.94,1.13,2.08-.48,3.85-2.49,5.12-4.57,1.34-2.17,2.52-4.7,2.39-7.11-.12-2.48-1.63-4.18-3.31-5.3-2.75-1.66-4.93-2.81-7.7-4.43-1.07-.64-2.6-1.61-2.63-3.21h0ZM211.64,134.1c1.35.05,2.59,1.4,2.29,3.06-.42,1.99-1.19,5.65-1.55,7.61-1.64-.33-3.34-.73-5-1.06.42-1.99,1.06-4.86,1.59-6.85.49-2.04,1.61-2.8,2.67-2.76h0ZM203.53,133.82c1.3,0,2.5,1.2,2.15,2.71-.34,1.57-.97,4.86-1.35,6.41-1.51-.3-3.07-.64-4.56-.99.43-1.62.83-3.91,1.26-5.55.43-1.86,1.49-2.58,2.5-2.58h0ZM203.51,128.73c-.84.02-1.8.32-2.82,1-1.45,1.28-1.98,3.27-2.46,5.06-.65,3.01-2.27,9.21-2.87,12.23,1-.81,1.87-.9,3-.65,4.43.95,8.83,1.96,13.24,2.91,1.07.21,1.86,1.04,2.46,1.98.65-4.19,3.26-12.72,3.19-17-.08-3.51-3.34-5.75-6.45-5.02-1.77.5-2.76,2.53-3.15,3.96,0-2.13-1.62-4.55-4.15-4.48h0Z"/><path class="cls-4" d="M119.25,66.85c-1.08,3.25-1.36,4.88-2.13,7.47,1.41.01,2.18.02,3.2.04-.82-2.94-.86-4.11-1.07-7.5ZM116.57,62.39c-.24.08-.5.26-.59.57-.11.19-.1.33,0,.44.13.19.29.42.52.52.19.09.44.09.52-.32.09-.34.1-.81-.05-.94-.2-.14-.15-.34-.39-.28h0ZM121.64,62.33s-.04.01-.07.04c-.05.04-.1.11-.1.18,0,.37-.17.91.17,1.1.17.08.37.1.5-.04.06-.11.19-.14.18-.33,0-.09-.12-.12-.16-.22-.05-.15-.03-.41-.08-.52-.05-.08-.1-.15-.18-.17-.09-.02-.17-.06-.26-.04h0ZM118.88,59.78c-.09,0-.17.03-.24.07-.09.04-.17.13-.22.23-.05.08-.03.35,0,.53.03.12.14.18.2.26.14.17.25.26.43.39.22.14.48-.03.53-.21.06-.3.06-.63,0-.89-.02-.1-.09-.15-.15-.24-.08-.09-.17-.14-.31-.14-.06,0-.15-.01-.24,0h0ZM119.03,48.32c-.38,1.09-.63,2.52-.89,3.78-.05.28-.19.46-.36.66-8.43,8.48-18.84,6.01-22.72,18.44-.44,1.05.12,2.16,2,3.2.19.11.35.06.35-.13-.47-13.5,17.77-12.59,21.76-21.96.04-.1.18-.07.22,0,3.35,6.26,8.89,7.07,13.96,10,3.79,2.19,6.53,4.17,7.3,10.38.03.29.11.24.26.09.57-.63,1.97-.96,1.93-1.91-1.23-9.17-11.32-11.14-19.42-14.92-.34-.26-.68-.52-1.02-.78-1.69-2-2.99-4.26-3.37-6.87h0Z"/><path class="cls-4" d="M69.26,102.46c-.4,3.28-1.59,7.02-2.76,9.48,1.36-.18,2.45.64,2.54,1.7.34-1.2,1.26-2.12,2.35-1.8-.72-2.97-1.6-6.17-2.13-9.39h0ZM66.3,98.05c-.24.08-.5.28-.59.59-.11.18-.1.31,0,.43.12.19.31.42.53.52.19.09.44.11.52-.3.09-.34.08-.83-.08-.96-.19-.14-.14-.34-.39-.28ZM71.41,97.66s-.06.02-.09.04c-.05.04-.1.11-.1.18-.02.36-.21.9.13,1.09.16.09.37.11.5-.04.07-.11.2-.13.2-.31,0-.1-.11-.12-.14-.23-.05-.15-.03-.42-.08-.52-.04-.08-.09-.17-.18-.18-.09-.02-.15-.06-.24-.04h0ZM68.52,95.03c-.09,0-.19.03-.26.07-.09.04-.17.13-.23.23-.04.08-.02.35,0,.53.04.12.16.18.23.26.14.17.26.26.43.39.22.14.47-.03.52-.21.06-.3.06-.63,0-.89-.02-.1-.09-.15-.15-.24-.08-.09-.17-.14-.31-.14-.06,0-.14-.01-.22,0ZM69.48,82.89s-.11.03-.17.07c-7.51,5.3-9.55,14.68-19.2,13.13,6.85,3.2,6.69,11.08,7.39,18.39.59,6.15,5.3,14.44,17.98,12.72.14-.01.24-.12.15-.26-.81-1.16-3.53-.78-4.21-.89-10.04-1.88-11.74-11.12-13.83-21.57-.49-3.02-2.45-4.93-3.65-7.2-.09-.23-.17-.3.13-.36,6.4-1.22,11.22-6.78,16.35-12.68.11-.06.13-.21,0-.32-.29-.29-.55-.61-.82-.96-.05-.05-.08-.08-.13-.07h0Z"/><path class="cls-4" d="M90.87,154.24c-.4,3.28-1.6,7.02-2.76,9.48,1.36-.18,2.45.63,2.54,1.69.34-1.2,1.26-2.1,2.35-1.78-.72-2.97-1.6-6.17-2.13-9.39ZM88.2,150.02c-.24.08-.5.28-.59.59-.11.18-.1.32,0,.43.12.19.29.41.52.52.19.1.44.11.52-.3.1-.34.11-.83-.05-.96-.19-.14-.14-.34-.39-.28h0ZM93.42,149.71s-.06.01-.1.04c-.05.04-.1.11-.09.18-.02.37-.21.9.13,1.1.17.08.35.1.48-.04.06-.11.22-.12.22-.32,0-.09-.12-.11-.17-.22-.05-.15,0-.41-.05-.52-.05-.08-.09-.17-.19-.18-.08-.03-.15-.05-.24-.04ZM90.5,147.23c-.09.01-.18.03-.26.07-.09.05-.17.14-.22.23-.04.09-.03.35,0,.54.03.12.15.18.22.26.14.17.26.26.43.39.22.14.49-.04.54-.21.06-.3.07-.63,0-.89-.02-.09-.11-.15-.16-.24-.09-.1-.16-.14-.3-.15-.06,0-.15-.01-.24,0h0ZM79.98,134.38c-.05.01-.11.03-.18.06-11.63,4.49-13.95,14.93-7.45,24.12,4.88,8.21,7.05,11.59,4.72,18.18,9.09-10.82,25.19,6.68,34.42-6.81.12-.17-.07-.28-.26-.46-.45-.31-.92-.52-1.39-.7-.34-.13-.53-.05-.74.24-3.78,3.98-16.04,3.1-25.31,3.13-.28,0-1.13.15-1.41.3-.89.46-1.79.86-2.74.77-.25,0-.64-.14-.57-.66.46-6.74-3.55-11.03-6.09-16.59-.79-1.9-6.68-12.54,7.48-19,.06-.12.2-.2.18-.39-.04-.66-.18-1.31-.37-1.98-.03-.17-.13-.23-.3-.2h0Z"/><path class="cls-4" d="M148.54,154.15c-.39,3.28-1.59,7.02-2.76,9.48,1.37-.18,2.46.65,2.54,1.7.34-1.2,1.26-2.11,2.35-1.79-.72-2.98-1.6-6.17-2.13-9.39h0ZM145.71,149.93c-.24.08-.49.28-.57.59-.11.18-.1.31,0,.43.13.19.29.41.52.52.19.1.44.11.52-.3.1-.34.08-.83-.08-.96-.19-.14-.14-.34-.38-.28h0ZM150.88,149.54s-.06.01-.1.04c-.05.04-.09.11-.09.18-.01.36-.2.9.13,1.09.17.09.37.11.5-.03.06-.11.2-.12.2-.32,0-.09-.1-.12-.15-.23-.05-.15-.03-.41-.07-.52-.05-.08-.08-.17-.17-.18-.08-.02-.17-.05-.25-.04h0ZM148.08,146.98c-.09.01-.17.03-.24.08-.09.04-.17.13-.22.22-.04.09-.03.37,0,.56.03.12.14.17.2.24.14.16.25.26.43.39.22.15.49-.03.53-.2.06-.3.06-.63,0-.89-.02-.1-.09-.15-.14-.24-.09-.09-.18-.14-.32-.15-.06,0-.15-.01-.24,0ZM156.91,134.36c-.06,0-.13.06-.15.13-.26.55-.52,1.07-.78,1.61-.23.62-.24,1.14.69,1.44,16.66,6.81,8.46,19.69,4.11,27.26-.45.78-1.53,3.07-1.61,4.08-.17,1.07,0,2.01-.03,3.13,0,.26-.37.33-.57.3-10.66-2.05-19.89,7.37-28.63-2.8-.81-.87-1.77-.95-2.13-.68-.39.29-.67.61-.94,1.04-.18.26-.18.4.04.66,9.09,12.74,22.52-2.31,34.05,4.03-2.7-6.48,2.62-12.77,5.63-18.42,6.69-11.36-1.14-18.35-9.63-21.77-.03-.01-.04,0-.06,0h0Z"/><path class="cls-4" d="M169.56,101.49c-.39,3.28-1.59,7.02-2.76,9.48,1.36-.18,2.46.64,2.54,1.71.34-1.2,1.26-2.12,2.35-1.8-.72-2.97-1.6-6.17-2.13-9.39ZM166.71,97.31c-.24.08-.49.28-.57.59-.11.18-.1.31,0,.43.12.19.29.42.52.52.19.1.44.11.52-.3.09-.34.08-.81-.08-.94-.2-.14-.14-.36-.39-.3ZM172,97.28s-.06.01-.09.03c-.05.04-.08.11-.08.19-.02.37-.2.89.13,1.1.16.08.35.1.48-.04.07-.11.21-.12.21-.31,0-.09-.11-.11-.15-.22-.05-.15-.02-.42-.08-.52-.04-.08-.08-.17-.17-.19-.09-.02-.17-.05-.26-.03h0ZM169.43,94.42c-.09.02-.18.05-.26.1-.09.04-.17.13-.22.23-.04.08-.03.35,0,.53.03.12.14.19.2.26.14.17.25.24.43.37.22.15.49-.01.53-.18.06-.3.06-.63,0-.89-.02-.09-.09-.17-.14-.26-.09-.09-.18-.14-.32-.15-.06,0-.14-.01-.22,0h0ZM167.02,82.72s-.06.04-.09.08c-.13.15-.23.96-.26,1.5,0,.11,0,.2.11.28,2.39,1.45,9.54,9.56,15.77,10.98.27.06.31.29.17.43-7.41,8.71,1.43,22.31-13.18,27.5-2.71.75-5.44.39-5.95,2.2-.01.06.08.15.13.15,8.79.56,14.27-2.4,15.91-8.68,2.11-6.99-1.87-16.93,5.63-22.35.19-.14.09-.39-.08-.37-7.58.77-12.42-7.27-18.05-11.68-.03-.02-.08-.03-.11-.02h0Z"/><path class="cls-4" d="M119.05,165.69c.89-.02,1.84.01,2.77.13.14.03.15.15.11.24-.13.35-.52.79-.72.97-.12.1-.32.13-.48.18-.7.19-1.79.27-1.98.24-.17-.04-.34-.1-.5-.2-.61-.34-1.18-.74-1.78-1.11-.13-.1-.14-.26.02-.28.81-.08,1.66-.15,2.56-.17h0ZM110.66,151.93c.1-.03.19.02.3.15.08.08.18.35.43.35.41.52.99.97,1.53,1.37-.17.16-.27.35-.33.55-.17.49-.14,1.33,0,2.09.06.45.21.85.44,1.24,1.11,1.73,1.9,2.5,3.15,3.35.52.32,1.1.59,1.76.52.18-.03.29.1.26.25-.2,2.54-1.36,2.71-4.28,2.35-6.47-1.29-7.04-5.51-3.54-11.87.08-.23.19-.34.28-.37ZM127.73,151.54c.19.01.35.17.43.37.92,2.07,2.06,5.72,1.69,6.9-1.35,5.18-5,6.04-8.39,5.59-2.54-.33-2.55-.93-2.6-2.63,0-.19.26-.26.47-.32,3.07-.97,4.92-2.64,5-5.83.02-.43.07-.89-.15-1.28.86-.55,1.65-1.12,2.43-1.83.02-.02.05-.05.07-.08.24-.37.5-.68.87-.87.06-.02.12-.04.18-.03h0ZM87.55,132.73s.08.02.11.04c2.22,1.11,5.25,1.81,6.8,2.46.81.38,1.68.94,2.31,1.04.26.02.26-.12.13-.28-.17-.26-.33-.51-.5-.74,3.82,1.77,7.35,3.83,11.09,6.3-.01.03-.03.06-.03.09-.11.32-.21.61-.32.87-.06.15-.12.32-.18.44-.05.11-.1.23-.15.33-.09.19-.18.4-.26.56-.11.21-.23.45-.32.63-.03.07-.06.14-.09.21-.06.13-.12.26-.16.39-.03.09-.05.17-.08.26-.01.04-.03.08-.03.13-.03.12-.03.24-.04.37,0,.12,0,.24,0,.37.01.14.02.27.04.43.05.37.15.52.28.57.04.02.09.02.13.03.09.02.26.05.31-.09.04-.13.11-.26.17-.39.06-.13.11-.25.19-.37.14-.25.3-.5.46-.74.03-.05.07-.11.11-.17.3-.43.63-.83.94-1.26.03-.04.05-.08.08-.11.12-.18.24-.37.35-.56.04-.06.09-.14.13-.2.11-.19.21-.37.3-.56l2.39,1.78c-.4.97-.91,2.29-1.06,3.22-.28,2.1-1.57,1.63-2.54.83.06,2.17.23,3.1-.98,5-.16.27-.31.18-.41,0-2.92-5.63-5.74-4.29-9.44-10.29-.33-.87-.96-1.7-2.17-2.15-4.55-1.79-7.81-3.03-7.7-8.26,0-.09.05-.18.15-.18h0ZM150.47,131.73c.47,0,.61.44.56.89-.5,6.28-3.43,4.55-10.11,10.5-1.75,1.4-1.17,2.75-3.53,4.74-1.98,1.85-3.82,3.78-5.5,6.17-.27.41-.47-.03-.5-.21-.08-.5-.38-1.06-.79-1.52-1.11-1.24.66-1.09-1.33-4.07-.82-1.21-1.78.35-2.35-1.61-.35-1.26-.02-.64-.46-3.58l1.17-.97c.55,1.57,1.32,2.87,2.16,3.96.12.15-.11,1.47.41,2.63.11-1.84,1.75-2.89-.59-6.18-.3-.43-.46-.85-.57-1.35-.01-.05-.03-.1-.04-.15,4.43-2.88,9.39-5.23,14.07-7.17-.24.27-.47.53-.71.82-.11.13.1.18.17.15.28-.08.42-.04.64,0,.15.09.13.24.13.38.03.55-.4.58-.27,1.19.77-.99,1.51-1.95,2.29-2.85.19-.23.43-.5.79-.46l.86.11c.29.01.57-.04.89-.13.75-.3,1.32-.66,2.04-1.15.24-.11.43-.15.59-.15h0ZM102.83,118.86c.32-.03.6.18.63.5.04.32-.2.59-.52.63-.32.04-.6-.18-.63-.5-.04-.32.2-.6.52-.63h0ZM132.4,118.81c.32-.03.59.18.63.5.03.32-.2.62-.52.65-.32.03-.6-.2-.63-.52-.03-.31.21-.59.52-.63h0ZM78.61,73.41c4.33,2.42,7.09,6.49,9.22,6.55.33.52.81,1.05,1.2,1.46,3.19,3.63.66,4.98,3.46,9.63.3.65.44,1.28,0,1.68-1.87,1.63-3.54,3.28-5.09,5.07-2.06,2.49-3.06,1.58-3.67,0-.38-1.17-.78-2.49-.26-3.83.33-.74.13-1.35-.43-2.05-.75-1.05-1.35-2.16-1.94-3.26-.21-.41-.34-.77-.43-1.29-.74-4.59-.61-11.44-2.07-13.96h0ZM157.99,72.39c-.54,5.31-2.48,8.83-1.87,13.29-2.26,2.77-1.5,7.94-3.58,11.04-.14.18-.32.28-.54.26-2.76-.46-4.69-3.93-7.03-5.89-.24-.19-.36-.37-.28-.55.95-2.12,3.14-4.25,1.44-6.41.08-6.18,7.47-7.17,11.85-11.74h0ZM161.99,62.42s-.06,0-.09.02c-6.73,1.9-15.82,9.67-23.31,16.48-.22.25-.52.3-.77.22-4.98-1.64-10.76-1.85-15.59-1.98-6.88-.63-15.15.21-22.55,2.61-.32.11-.56-.18-.79-.46-5.86-6.52-14.11-11.85-23.02-15.57-.25-.12-.46-.23-.74.04-4.57,4.22-3.57,16.71.36,23.48.46.98.56,2.71.57,3.29.28,3.64.99,6.79,1.94,10.18.24,2.11,1.04,4.25,2.26,6.07.24.29.14.55-.04.74-1.55,1.55-2.97,3.02-4.52,4.57-.11.11-.33.18-.53.22-1.29.15-1.69.57-2.3,2.06-.09.21-.08.36.03.54.22.41,1.71,2.99,2.94,4.37,1.19,1.18.75,2.3-.26,3.37,1.9,1.42,5.3,4.14,5.5,4.55.21,1.1,2.15,1.46.99,3.03.3.07.49.18.72.37.17.19.21.36.23.56.15,1.71.48,3.25,1.42,4.89,3.85,6.53,8.17,5.52,13.3,11.09,3.07,3.34,6.1,3.47,8.18,9.35-.19,2.23-.31,3.6.61,5.53,1.09,2.36,3.77,2.45,7.22,4.02.46.18.72.32,1.06.67.9.88,1.94,1.44,3.11,2,.95.4,2.07.4,2.94-.04,1.66-.95,2.01-.26,5.07-2.47,2.89-.85,7.61-4.41,7.11-10.47.02-.18.06-.3.11-.45.09-.28.35-.56.59-.83,1.17-1.39,2.5-2.63,3.32-4.32.17-.41.31-.81.68-1.11,11.54-9.42,7.46-5.28,11.63-8.48,8.56-6.51,2.94-14.1,12.96-18.35-1.36-2.87-.9-3.14,3.52-9.26-2.33-1.23-3.96-2.65-5.58-3.78-5.08-3.98-.47-7.36-.05-9.31.29-1.11.73-2.51.83-3.92.54-3.26.24-7.11,1.9-8.81,1.23-1.19,1.58-7.67,1.78-8.2,1.35-4.24.85-4.81,1.1-7.47.04-.35.17-.64,0-1.03-.94-2.58-2.09-5.08-3.41-7.56-.12-.21-.21-.42-.37-.46-.03,0-.06,0-.09,0h0Z"/><path class="cls-3" d="M95.53,119.01c.06,0,.14.01.2.02.01,0,.03,0,.04,0,.12.01.24.05.37.11.14.06.29.13.44.23.16.1.32.2.5.33l.05.04c.15.12.31.24.48.37.18.14.35.27.56.43.37.29.78.61,1.22.92.22.16.44.31.69.46.19.12.37.26.58.37.08.05.17.09.25.14.23.13.48.26.72.37.24.12.5.23.76.33.08.03.16.08.24.11.26.1.53.18.81.26.33.1.67.19,1.02.26.35.06.72.11,1.1.14.38.04.78.06,1.19.06.08,0,.14.02.19.05.05.03.08.07.09.15.01.64-.57.86-1.21.91-.37,0-.75,0-1.13-.02-1.11-.03-2.22-.12-3.34-.3-.12-.01-.22-.04-.33-.09-.11-.05-.2-.11-.31-.19-.34-.23-.71-.5-1.07-.79-.37-.3-.72-.61-1.06-.91-.35-.31-.67-.59-.95-.86-.27-.25-.49-.47-.64-.63-.16-.14-.28-.26-.39-.37-.1-.11-.19-.21-.26-.3-.14-.17-.19-.28-.27-.39-.04-.05-.08-.1-.13-.15-.15-.15-.39-.32-.92-.61-.06-.03-.11-.05-.11-.09,0-.03,0-.04.02-.07.02-.03.04-.06.07-.09.06-.05.13-.08.19-.11.05-.03.11-.06.17-.07.06-.02.12-.03.18-.04h0ZM103.94,117.72c.34-.01.67.05,1.02.18.16.06.33.14.48.24.15.1.27.21.39.33.13.13.24.24.34.39.19.28.33.6.41.93.11.49.07,1.02-.13,1.53-.07.17-.15.31-.24.46,0,0,0,.01,0,.02-.38.58-.99.97-1.65,1.11-.33.07-.68.08-1.02.02-.17-.03-.35-.08-.52-.15-.17-.07-.34-.15-.48-.24-.29-.19-.53-.44-.72-.72-.48-.7-.61-1.61-.27-2.46.06-.17.16-.32.26-.46.09-.14.17-.26.28-.37.03-.02.05-.03.08-.05.11-.11.22-.23.35-.31.11-.08.22-.13.33-.19,0,0,.01-.01.02-.02.11-.05.23-.07.34-.11.11-.03.22-.08.33-.09h.04c.12-.03.26-.04.39-.04h0ZM133.49,117.67c.34,0,.7.07,1.04.21.68.27,1.18.79,1.45,1.4.14.31.21.64.23.98,0,.34-.05.7-.19,1.04-.14.34-.33.63-.57.87-.72.73-1.86.99-2.87.59-.17-.07-.33-.14-.48-.24-.15-.1-.27-.21-.39-.33-.73-.72-1-1.84-.59-2.85.05-.14.11-.26.19-.37.01-.01.03-.02.04-.04.03-.05.05-.1.09-.15.07-.1.15-.18.23-.26l.07-.07c.11-.11.23-.23.36-.32.1-.08.22-.13.33-.19.02,0,.04,0,.05-.02.04-.01.06-.04.1-.05.14-.06.29-.1.44-.13.16-.04.33-.07.5-.08h0ZM134.08,117.47c-1.29.08-2.71.57-4.31,1.96-2.43,2.39-4.47,5.36-6.04,8.17-.18.34-.24.66-.17,1.02,1.78,8.19,2.54,12.26,2.87,14.42l1.17-.97c-.7-1.97-1.06-4.35-.82-7.22.84-2.19,1.28-4.78,1.67-7.26,1.28-2.71,1.41-3.87,2.65-3.79,1.11.06,2.26.11,3.3-.11.4-.08.73-.24,1.1-.46,1.75-1.05,3.24-2.48,4.52-4.09.15-.17.25-.52.17-.68-.05-.12-.12-.19-.28-.19-1.84.11-3.65-.92-5.81-.79h0ZM101.81,114.99c.31,0,.63.02.95.03.32.03.66.06.99.11.26.04.5.1.77.15.08.02.17.04.25.06.15.04.31.08.46.13.2.05.4.11.59.19.29.1.57.21.85.33.25.11.5.23.74.35.24.13.49.28.72.43.2.12.4.26.59.39.09.06.18.1.26.17.14.11.28.22.43.33.03.02.06.05.09.08.02.02.05.04.08.05.04.04.09.08.13.11.18.16.37.34.55.52.24.23.46.46.69.71.02.02.03.03.06.05.2.23.39.47.59.72.11.15.23.31.35.46.1.14.18.25.28.39.21.31.4.63.59.97.08.13.14.3.13.44,0,.05-.02.08-.04.13-.18.39-.3.79-.39,1.24-.01.06-.07.12-.13.13-.02,0-.06,0-.08-.02-.32-.2-.62-.39-.91-.59-.28-.2-.54-.42-.79-.63,0,0-.02,0-.02,0-.26-.21-.5-.44-.74-.66-2.17-2.01-3.7-4.19-6.63-4.77,0,0-.01,0-.02,0-1.31-.26-2.88-.2-4.92.33-.68.07-1.44.07-2.2.02-.77-.05-1.55-.16-2.3-.3-.36-.06-.73-.14-1.07-.23,0,0-.01,0-.02,0-.34-.08-.65-.17-.94-.26-.01,0-.02,0-.02,0-.6-.18-1.08-.37-1.42-.54,1.53.03,3.21.01,4.66-.05s2.66-.16,3.24-.28c.2-.1.43-.18.69-.26.24-.08.51-.16.79-.22.02,0,.05,0,.08,0,.25-.05.52-.1.81-.13.05,0,.08-.02.13-.02.35-.04.71-.05,1.09-.06h0ZM99.35,102.1s.08.01.11,0c.12.04.21.09.3.13.08.05.14.1.2.15.22.19.31.4.87.67.14.06.31.15.52.22.21.07.45.14.74.23.7.23,1.2.35,1.66.53.01,0,.01.02.03.02.46.19.91.41,1.46.8.19.13.39.29.62.46.22.18.47.38.74.61.11.09.21.15.24.32,0,.05,0,.11-.02.17v.02c-.02.06-.04.11-.07.17-.07.12-.17.23-.26.32-.03.02-.06.04-.09.05-.03,0-.07,0-.13,0-.18-.04-.32-.06-.46-.11-.13-.05-.24-.11-.35-.17-.11-.06-.21-.11-.3-.18-.09-.07-.16-.15-.24-.23-.17-.15-.34-.32-.56-.48-.1-.08-.21-.16-.35-.24-.14-.08-.29-.16-.46-.24-.18-.08-.32-.1-.46-.06-.05.02-.1.03-.15.06-.19.08-.37-.01-.56-.06-.14-.03-.3-.08-.46-.14,0,0-.01,0-.02,0-1.15-.46-2.59-1.58-2.6-2.93,0-.02.01-.05.02-.06.01,0,.02-.02.04-.02h0ZM135.47,101.72c.48-.02.99.04,1.5.15.5.11,1,.28,1.42.52.13.08.17.24.02.3-.71.19-1.44.43-2.16.72-.37.14-.72.3-1.1.46-1.84.81-3.71,1.82-5.57,2.76-.2.08-.33.05-.41-.06-.03-.04-.05-.08-.07-.15-.04-.2-.03-.4-.02-.59.01-.19.05-.39.05-.59.02-.28.19-.3.3-.44.35-.14.64-.25.89-.37.73-.34,1.02-.57,1.27-.79.17-.15.33-.28.54-.45.22-.16.51-.34.98-.57.28-.13.57-.25.85-.37.28-.12.56-.24.84-.33.21-.11.46-.18.67-.18h0ZM111.64,84.39c1.8,1.22,3.82,2.85,5.79,4.5.04.05.07.1.11.15.11.17.2.37.15.63-.12.75-.48,1.46-.76,2.22-.01.04-.03.05-.06.08-.02.02-.04.04-.07.05-.06.02-.13.02-.17-.02-.35-.45-.74-.91-1.06-1.37-.11-.14-.22-.3-.22-.48.01-.15.02-.3.02-.42s0-.24-.02-.35c-.03-.21-.09-.39-.18-.53,0,0,0-.02,0-.02-.19-.3-.52-.48-1.04-.62-.43-.12-.8-.31-1.11-.53,0,0-.01,0-.02,0-.46-.33-.79-.78-1.02-1.31,0,0-.02-.01-.02-.02-.23-.55-.33-1.19-.33-1.94h0ZM125.34,83.96c-1.9,3.53-2.87,3.2-4.02,4.57-.08.1-.17.21-.26.33-.08.12-.17.24-.25.39-.09.14-.15.27-.19.39,0,0,0,.01,0,.02-.03.12-.05.25-.05.35.05,1.15-.14,1.62.17,2,.02.03.03.06.04.09.02.04.02.07.02.11,0,.08-.01.15-.04.21-.21-.14-.55-.39-.83-.64-.22-.2-.4-.38-.49-.54,0,0,0-.01,0-.02-.02-.05-.03-.11-.03-.15,0-.12-.01-.19-.02-.26-.03-.26-.1-.23-.17-.52-.03-.15-.06-.38-.08-.78,0-.2,0-.44,0-.74-.02-.19,0-.28.04-.37.02-.04.04-.08.07-.11.03-.04.06-.07.1-.11,1.72-1.77,4-2.93,6-4.22h0ZM76.96,69.58c.52,0,1.12.28,1.55.7,4.24,1.85,3.86,3.55,7.16,5.21.7.37,1.91,1.02,2.84,1.24.43,1.48,1.13,1.44,2.68,4.1.37.65,1.74,1.72,1.87,2.61.1.56.08,1.04.04,1.58-.04,1.51-.66,2.95.17,3.63.68.35.23.69,1.46,1.31.62.3.94.61.61,1.26-.99,1.73-2.19,3.15-3.29,4.72-.29.37-.71.66-1.13.91-2.39,1.43-4.37,3.45-6.52,5.35-.14.1-.2,0-.3-.03-2.06-1.17-2.6-3.21-2.87-5.98-.71-7.42-2.2-1-4.7-23.09-.34-1-.7-2.77-.39-3.18.21-.22.5-.32.82-.32h0ZM159.17,69.26c.06-.01.12,0,.18,0,.39.03.7.32.74.68.07.71.23,1.36.37,2.02-2.53,6.04-1.06,14.34-4.37,19.42-.17,4.45-.72,7.29-3.37,9.07-.11.08-.23.07-.35,0-4.22-2.06-8-6.36-11.68-9.74,5.73-3.73.54-7.65,4.63-11.94,4.76-5.02,8.95-5.52,13.3-9.26.18-.15.37-.24.56-.25ZM161.26,67.13s-.07,0-.11.02c-7.35,2.67-16.47,7.99-21.22,15.06-1.91,1.54-3.88,3.05-5.91,4.37,4.23-5.62-4.21-5.99-14.37-7.09-6.98-.6-15.32,1.59-18.03,3.08-.24.14-.4.42-.2.67.76,1.08.99,2.35,1.44,3.54.06.13-.06.14-.16.05-8.84-7.92-22.05-18.59-26.46-19.65-.21-.04-.4.03-.5.23-.31.66-.39.85-.63,1.5-.17.57-.49.93-.64,1.09-2.52,2.47,1.89,7.11,2.55,15.58.44,3.58,1.3,5.18,2.13,7.64.13.33.21.62.26.95,1.14,3.95,1.89,7.97,3.41,11.63,1.81,5.87-5.28,4.91-5.57,9.78-.17,3.3,3.71,5.12,3.05,7.54-.04.15-.33.32-.17.52,2.99,3.1,4.14,2.38,5.35,4.95,2.8,4.91,5.85-.46,10.93,6.7,3.82,1.77,7.35,3.83,11.09,6.3.27-.84.52-1.87.74-3.22.44-2.67.36-5.37-1.33-9.1-.31-.54-.12-1.46.43-1.9.28-.21.4-.29.43.14.47,4.95,4.53,8.3,2.03,12.98-.09.17-.2.31-.17.59.05.63-.08,1.2-.32,1.74l2.39,1.78c.16-.39.3-.71.39-.94,1.06-5.51,1.9-14.39,2.7-15.5.07-.11.16-.27,0-.39-.93-.96-1.97-2.55-1.5-3.03.51-.39,3.48.81,3.46,2.96-.12,1.93-2,19.75-4.35,22.27-.11.13-.07.22,0,.32,1.02,1.44.81,1.8.44,1.98-.33.12-1.01.07-1.31.18-.05.02-.11.02-.15.02.41.52.99.97,1.53,1.37.33-.32.88-.56,1.73-.68,3.31-.57,6.47-.48,8.89.66.32.17.53.36.64.57.86-.55,1.65-1.12,2.43-1.83-.23.17-.7,0-.78-.37-1.33-7.23-2.74-8.34-3.58-13.79-.34-1.85-.5-3.79-.15-5.56.11-.57.15-1.1,0-1.72-.48-1.78-.45-3.64-.05-5.41.27-.59.97-1.39,1.46-2.06.41-.54.7-1.17.93-1.85.23-.71,2.52-4.13,4.48-4.67.17-.04.19-.14.21-.3.02-.17-.3-.18-.28-.44.07-1.36,8.64-.63,13.15-.21,1.72-.15,3.43-.42,5.05-.72.28-.05.3.05.13.23-1.35,1.48-3.28,2.29-5.04,2.52-.33.05-.42.23-.49.48-1,5.03-8.28,7.46-11.44,6.87-.2-.04-.21.11-.2.21.23,2.58-.88,2.84-1.84,10.37-.06.42-.04.79.02,1.22.15,1.22.5,2.38.78,3.67,4.43-2.88,9.39-5.23,14.07-7.17.95-1.07,1.88-2.04,2.87-3.13.27-.36.8-.58,1.3-.76,3.73-1.57,7.5-4,10.33-7.07.08-.1.25-.27.2-.46-.86-4.04,1.8-5.24,3.48-8.24.25-.39-.02-.49-.3-.63-1.84-1.16-3.52-2.77-4.81-4.27-.3-.45-.43-1.02-.54-1.52-1.33-6.28,1.43-6.74,1.93-10.37-.04-1.81.45-3.93,1.02-5.81.67-2.19.97-3.96,1.74-5.19.38-10.94,3.78-8.47,2.85-14.3-.24-1.17-.86-3.28-1.59-4.74-.06-.14-.15-.2-.25-.2h0Z"/></g></svg>