<svg id="Layer_1" data-name="Layer 1" xmlns="http://www.w3.org/2000/svg" viewBox="0 0 170.41 170.81"><title>Manchester United F.C. logo - Brandlogos.net</title><polygon points="9.86 159.79 6.23 167.76 3.12 159.79 0 159.79 0 170.55 2.02 170.55 2.02 162.65 5.37 170.5 6.91 170.5 10.23 163.34 10.23 170.55 12.7 170.55 12.7 159.79 9.86 159.79" style="fill:#231f20"/><polygon points="34.02 159.79 34.02 167.09 28.06 159.82 28.05 159.79 28.04 159.79 28.03 159.78 28.03 159.79 25.84 159.79 25.84 170.55 28.3 170.55 28.3 163.38 34.02 170.55 36.48 170.55 36.48 159.79 34.02 159.79" style="fill:#231f20"/><polygon points="132.66 159.79 132.66 167.09 126.7 159.82 126.69 159.79 126.68 159.79 126.67 159.78 126.67 159.79 124.48 159.79 124.48 170.55 126.94 170.55 126.94 163.38 132.66 170.55 135.12 170.55 135.12 159.79 132.66 159.79" style="fill:#231f20"/><polygon points="57.01 159.79 57.01 164.34 52.12 164.34 52.12 159.79 49.65 159.79 49.65 170.55 52.12 170.55 52.12 165.57 57.01 165.57 57.01 170.55 59.48 170.55 59.48 159.79 57.01 159.79" style="fill:#231f20"/><polygon points="88.07 159.79 79.1 159.79 79.1 161.24 82.35 161.24 82.35 170.55 84.82 170.55 84.82 161.24 88.07 161.24 88.07 159.79" style="fill:#231f20"/><polygon points="150.27 159.79 141.31 159.79 141.31 161.24 144.56 161.24 144.56 170.55 147.02 170.55 147.02 161.24 150.27 161.24 150.27 159.79" style="fill:#231f20"/><polygon points="64.47 169.1 64.47 165.65 68.1 165.65 68.1 164.2 64.47 164.2 64.47 161.24 68.1 161.24 68.1 159.79 62.01 159.79 62.01 170.55 68.95 170.55 68.95 169.1 64.47 169.1" style="fill:#231f20"/><polygon points="91.85 169.1 91.85 165.65 95.47 165.65 95.47 164.2 91.85 164.2 91.85 161.24 95.47 161.24 95.47 159.79 89.38 159.79 89.38 170.55 96.33 170.55 96.33 169.1 91.85 169.1" style="fill:#231f20"/><polygon points="153.87 169.1 153.87 165.65 157.49 165.65 157.49 164.2 153.87 164.2 153.87 161.24 157.49 161.24 157.49 159.79 151.4 159.79 151.4 170.55 158.35 170.55 158.35 169.1 153.87 169.1" style="fill:#231f20"/><path d="M311.15,409.57a4,4,0,0,1-2.27.69,4.23,4.23,0,0,1,0-8.45,4,4,0,0,1,2.26.69l.91-1.27a6.49,6.49,0,0,0-3.77-1.2,6,6,0,1,0,0,12,6.49,6.49,0,0,0,4-1.34Z" transform="translate(-263.74 -241.24)" style="fill:#231f20"/><path d="M340.63,402.75l1.09-1.09a4.13,4.13,0,0,0-3.33-1.5c-2.28,0-4.52,1.41-4.52,3.28s2.19,3,2.92,3.29a9.38,9.38,0,0,1,1.64,1,1.44,1.44,0,0,1,.37,1.92c-.58.93-3.17.82-4.15-.59a9.43,9.43,0,0,0-.91,1.41s.87,1.28,3.81,1.28,4.28-2,4.28-3.26a3.19,3.19,0,0,0-1.58-2.87c-.78-.52-2.67-1.64-2.67-1.64s-1.2-.79-.65-1.71c.41-.68,2-.72,2.71-.31A4.15,4.15,0,0,1,340.63,402.75Z" transform="translate(-263.74 -241.24)" style="fill:#231f20"/><path d="M284.35,401H281.8l-4.3,10.76h2.13l1-2.94h3.74l1.09,2.94h3ZM281,407.67l1.39-4.07,1.51,4.07Z" transform="translate(-263.74 -241.24)" style="fill:#231f20"/><path d="M368.26,407.38a3,3,0,0,0,2.23-3.17c0-3.15-3.83-3.18-3.83-3.18h-4.81v10.76h2.46v-4.11H366l1.71,4.11h3.39S369.28,408.77,368.26,407.38Zm-2.72-1.07h-1.23v-3.92h1a2.2,2.2,0,0,1,2.14,2.18C367.5,406.37,365.54,406.31,365.54,406.31Z" transform="translate(-263.74 -241.24)" style="fill:#231f20"/><path d="M383.61,401v7.22h0a2.45,2.45,0,0,1-4.9,0h0V401h-2.46v7.77h0c0,1.67,2.22,3,4.92,3s4.93-1.37,4.93-3.06V401Z" transform="translate(-263.74 -241.24)" style="fill:#231f20"/><rect x="137.53" y="159.82" width="2.46" height="10.67" style="fill:#231f20"/><path d="M429.46,401.06h-5.61v10.67h5a5.17,5.17,0,0,0,5.34-5.41A4.94,4.94,0,0,0,429.46,401.06Zm-1.23,9h-1.92V402.7h2c2,0,3,1.58,3,4C431.31,410.26,428.23,410.09,428.23,410.09Z" transform="translate(-263.74 -241.24)" style="fill:#231f20"/><path d="M370.57,246.15a1.74,1.74,0,0,0-1.79-.21s0,0,0-.07a4.59,4.59,0,0,0-1-2.57c-4.62-4.4-12.09,3-12.4,3.28l-.12.12-.06.16a2.53,2.53,0,0,0,0,2.21c.82,1.54,3.5,2.37,9.21,3.67,4.14.94,5.82-.47,6.5-1.8C371.83,249.24,371.35,246.83,370.57,246.15Zm-5.89.87a.37.37,0,0,0,.09-.1l.22.16A1.42,1.42,0,0,1,364.68,247Zm-33.25-5.1h-.1c-1.57.23-2.25,1.8-2.37,3.19,0,.12,0,.28,0,.45a3.06,3.06,0,0,0-2.8,1.14c-.76,1.07-.68,2.72.26,4.88a3.7,3.7,0,0,0,3.15,2.17c4,.55,10.74-2.69,12.57-4.94l.39-.48-.37-.49C341.93,247.6,337.48,241.82,331.43,241.92Zm21.13,1.19c-.73-.66-2.91-2-4.66-1.86a2.24,2.24,0,0,0-1.62.89,1.64,1.64,0,0,0-.37,1,1,1,0,0,0,.09.43,1.41,1.41,0,0,0,1.25.71,2.29,2.29,0,0,1-1.47.45l-1-1.25-.44,1.44L344,246c-.34,1.13-.6,2,.33,2.95.68.68,4,.93,9.74.72l1,0-.24-.94C354.67,248,353.67,244.11,352.56,243.11Z" transform="translate(-263.74 -241.24)" style="fill:#231f20"/><path d="M331.44,242.71c-2,.29-2,3.84-1.38,4s3.15-2,3.45-1-4.24,3.74-4.63.59c-1.38-.1-3.64.59-1.77,4.93s12.31-.4,14.38-3C341.49,248.32,337.16,242.61,331.44,242.71Zm15.47-.1c-1.08,1.48,2.33.4,1.61,1.58s-3.08,1.78-3.38.88c-.49,2-1,2.56-.19,3.35s9.16.49,9.16.49-1.08-4.34-2.07-5.22S348,241.13,346.91,242.61Zm23.15,4.14c-.79-.69-2.37.79-3.84,1.08s-3-.1-2.07-1.38.79.4,2.66.49,1.18-2.17.39-3.15c-4-3.84-11.23,3.35-11.23,3.35-.88,2.27,1.28,3.16,8.67,4.83S370.84,247.44,370.06,246.75Z" transform="translate(-263.74 -241.24)" style="fill:#fff100"/><path d="M362.42,372.27c-3.88,0-7.05,2.57-7.46,5.85a6.7,6.7,0,0,0-12.1.72s0,0,0,0c0-3.61-3.38-6.55-7.53-6.55s-7.54,2.94-7.54,6.55,3.38,6.55,7.54,6.55a7.48,7.48,0,0,0,7.15-4.59s0,.07,0,.11a6.61,6.61,0,0,0,13.12.67,7.67,7.67,0,0,0,6.82,3.81c4.15,0,7.53-2.94,7.53-6.55S366.58,372.27,362.42,372.27Z" transform="translate(-263.74 -241.24)" style="fill:#231f20"/><path d="M335.34,373.45c-3.51,0-6.35,2.41-6.35,5.37s2.84,5.37,6.35,5.37,6.35-2.41,6.35-5.37S338.85,373.45,335.34,373.45Zm5.43,5s-1.44,3.94-4.33,3.67c.66-1.18,3.42-2.49,3.55-4.33S340.77,378.44,340.77,378.44Zm8.31-2.63a5.08,5.08,0,1,0,5.41,5.07A5.25,5.25,0,0,0,349.08,375.81Zm.62,7.35c.39-1.32,3-1.84,2.5-4.73s.66.13.66.13S354.3,383.3,349.7,383.17Zm12.72-9.72c-3.51,0-6.36,2.41-6.36,5.37s2.84,5.37,6.36,5.37,6.35-2.41,6.35-5.37S365.93,373.45,362.42,373.45Zm-5.5,5.65c3.94,3.55,4.33.13,7.62-1.18C360.6,385.14,356.92,379.09,356.92,379.09Z" transform="translate(-263.74 -241.24)" style="fill:#fff100"/><path d="M407.69,336.43l-.06-.1a10.61,10.61,0,0,0-8.86-4.68c-3.07-.08-5.91.94-7.07,2.54-10.74,14.28-26.63,22.48-43.59,22.48-16.17,0-31.58-7.59-42.28-20.82a11.11,11.11,0,0,0-10.47-3.9,9.89,9.89,0,0,0-6.85,5.66c-1.15,2.43-2.49,7.58,1.45,14.83,13.17,18.49,35,29.45,58.35,29.45,23,0,44.56-10.64,57.66-28.46l.42-.63S412.65,345,407.69,336.43Z" transform="translate(-263.74 -241.24)" style="fill:#231f20"/><path d="M406.67,337l0-.05a9.46,9.46,0,0,0-7.9-4.15c-2.66-.06-5.16.78-6.08,2.06-11,14.59-27.21,23-44.55,23-16.53,0-32.28-7.75-43.2-21.26a9.88,9.88,0,0,0-9.33-3.47,8.7,8.7,0,0,0-6,5c-1.05,2.22-2.27,7,1.42,13.76,12.9,18.09,34.3,28.83,57.32,28.83,22.63,0,43.84-10.46,56.71-28l.38-.58C405.58,351.93,411.16,344.74,406.67,337Z" transform="translate(-263.74 -241.24)" style="fill:#fff100"/><path d="M405.66,337.63c-3.35-5.12-10.76-3.82-12-2.05h0C382.86,349.89,366.48,359,348.12,359c-17.6,0-33.37-8.4-44.11-21.7h0a8.68,8.68,0,0,0-8.18-3.07c-4.36.84-9.07,7.28-3.78,17,12.14,17,32.81,28.21,56.28,28.21,23.14,0,43.55-10.89,55.75-27.5l.35-.53S409.8,344.72,405.66,337.63Z" transform="translate(-263.74 -241.24)" style="fill:#ed3024"/><polygon points="56.48 38.02 56.48 100.88 84.64 120.62 113.02 100.88 113.02 38.02 56.48 38.02" style="fill:#231f20"/><polygon points="57.66 39.2 57.66 100.26 84.65 119.18 111.83 100.26 111.83 39.2 57.66 39.2" style="fill:#fff100"/><path d="M415.37,290.1,415.3,288l-1.91-.17q-1-.47-5.78-5.61l-2-2.08s-1.16-1.56-1.16-1.56c-14.83-20.55-32.94-31-53.82-31-36.71,0-51.9,22.85-56.9,30.36l-.23.34c-3.93,5.89-10.65,9.75-10.72,9.79l-1.24.69,0,1.42c.22,8.15,3.14,14.67,7.63,17s13.56.84,20.29-9.61c12.42-15.24,21.92-25.31,39.25-25.31,21.09,0,33.25,17.38,38.45,24.8,7.29,10.41,13.8,11.2,16.26,11.06,3.31-.19,11.9-3.64,11.9-17Z" transform="translate(-263.74 -241.24)" style="fill:#231f20"/><path d="M414.38,290.14l0-1-1.06-.1c-1-.26-4.62-4.12-6.35-6L405,281l-1.25-1.65c-14.6-20.24-32.4-30.51-52.87-30.51-36.08,0-51,22.45-55.92,29.84l-.23.34c-4.12,6.18-11,10.13-11.12,10.17l-.62.35,0,.71c.21,7.71,2.89,13.86,7,16s12.42.61,18.75-9.21c12.68-15.58,22.38-25.86,40.24-25.86,21.7,0,34.12,17.73,39.42,25.31,6.94,9.92,13,10.68,15.22,10.55,3.06-.18,10.78-3.4,10.78-15.84C414.4,290.85,414.39,290.5,414.38,290.14Z" transform="translate(-263.74 -241.24)" style="fill:#fff100"/><path d="M284,290.19s7.19-4,11.53-10.54S314.6,250,350.65,250c34.28,0,51.12,29.65,53.29,31.82s7.48,8.37,9.06,8.37c.39,11.79-6.3,15.47-9.65,15.66s-8.67-2.17-14.18-10.05S370.84,270,348.78,270c-19.11,0-29.48,11.95-41.24,26.39-5.71,8.87-13.46,10.77-17.2,8.81S284.17,297.38,284,290.19Z" transform="translate(-263.74 -241.24)" style="fill:#ed3024"/><path d="M322.91,302h51.22v-3.54H322.91Zm19.24-7v-2.36h-3.48v-6s-2.1,4.6-3.81,8.4Zm-19.24-11.95v14.38h7.22v-4.66a2.59,2.59,0,0,0,1.23,1.13l7.31-7.31h3.48v-2h.65v2h3v6h-3V295h7.82v-2.36H348v-6h2.63v-2h.65v2h3.81v6h-3.81V295h8.14v-2.36h-3.28v-6h3.28v-2h.66v2h3.15v6h-3.15V295h4.37a10.45,10.45,0,0,1-1,2.43h10.72V283.06Zm8.46,10.85a13.33,13.33,0,0,0,3.5,1.1C334.21,293.11,331.37,293.91,331.36,293.91Z" transform="translate(-263.74 -241.24)" style="fill:#ed3024"/><path d="M379.66,354.13,374,357.38l6.19,10.72,5.74-3.31a5.91,5.91,0,0,0,1.47-8.09A5.73,5.73,0,0,0,379.66,354.13Zm4,9.79L381.74,365l-4.28-7.42,2-1.15c2-1.15,3.94-.17,5.33,2.24C386.85,362.3,383.66,363.91,383.66,363.91Z" transform="translate(-263.74 -241.24)" style="fill:#fff100"/><polygon points="74.14 120.33 72.2 128.56 67.41 118.78 67.41 118.74 67.39 118.74 67.38 118.72 67.38 118.74 64.9 118.16 62.06 130.3 64.83 130.95 66.74 122.86 71.29 132.47 74.07 133.13 76.92 120.98 74.14 120.33" style="fill:#fff100"/><polygon points="97.35 121.28 87.05 122.73 87.29 124.39 91.02 123.87 92.53 134.56 95.36 134.15 93.85 123.47 97.58 122.94 97.35 121.28" style="fill:#fff100"/><polygon points="106.32 129.48 104.76 125.81 108.63 124.17 107.98 122.62 104.1 124.26 102.76 121.09 106.64 119.45 105.98 117.9 99.47 120.66 104.34 132.14 111.76 129 111.11 127.46 106.32 129.48" style="fill:#fff100"/><path d="M323,357.59l-4,7.35h0a2.85,2.85,0,0,1-5-2.72h0l4-7.35-2.51-1.37-4.31,7.91h0c-.9,1.72.59,4.31,3.34,5.81s5.78,1.34,6.71-.38l4.29-7.87Z" transform="translate(-263.74 -241.24)" style="fill:#fff100"/><rect x="81.07" y="122.44" width="2.85" height="12.38" style="fill:#fff100"/><path d="M293.68,267.66a2.92,2.92,0,0,0-3.15.79l0-.14-1.65,1.55s-4.67,4.41-8,8.08l-.17.19-.08.25c-.62,2-.5,3.62.36,4.73a3.85,3.85,0,0,0,3,1.39l.5,0,.77-.85.31,4.06,1.83-1.92c.87-.91,8.51-9,9.74-12.29l.07-.17v-.19A5.75,5.75,0,0,0,293.68,267.66Z" transform="translate(-263.74 -241.24)" style="fill:#231f20"/><path d="M416.5,278.38l-.08-.25-.17-.19c-3.28-3.67-7.9-8-8-8.08l-1.64-1.55,0,.14a2.92,2.92,0,0,0-3.15-.79,5.75,5.75,0,0,0-3.62,5.47v.19l.07.17c1.23,3.28,8.87,11.38,9.74,12.29l1.83,1.92.31-4.06.77.85.5,0a3.85,3.85,0,0,0,3-1.39C417,282,417.11,280.41,416.5,278.38Z" transform="translate(-263.74 -241.24)" style="fill:#231f20"/><path d="M291.92,274.66,284,283.33s-3.68.13-2.23-4.6c3.28-3.68,7.88-8,7.88-8S290.14,273.87,291.92,274.66Z" transform="translate(-263.74 -241.24)" style="fill:#fff100"/><path d="M286.63,285l-.2-2.56,7.09-8.08s-4-2.42-2.39-4.79,5.12.52,5,3.54C294.94,276.23,286.63,285,286.63,285Z" transform="translate(-263.74 -241.24)" style="fill:#fff100"/><path d="M405.25,274.66l7.88,8.67s3.68.13,2.23-4.6c-3.29-3.68-7.88-8-7.88-8S407,273.87,405.25,274.66Z" transform="translate(-263.74 -241.24)" style="fill:#fff100"/><path d="M410.53,285l.2-2.56-7.09-8.08s4-2.42,2.4-4.79-5.12.52-5,3.54C402.23,276.23,410.53,285,410.53,285Z" transform="translate(-263.74 -241.24)" style="fill:#fff100"/><circle cx="25.55" cy="79.48" r="13.1" style="fill:#231f20"/><circle cx="25.55" cy="79.48" r="12.02" style="fill:#fff100"/><circle cx="25.55" cy="79.48" r="10.64" style="fill:#ed3024"/><path d="M289.59,322.61a8.59,8.59,0,0,0,8-5.94,9.23,9.23,0,0,0-2.41-3.05,9.22,9.22,0,0,1-3.68,1.37A17.58,17.58,0,0,0,289.59,322.61Zm8.39-5.06a9.24,9.24,0,0,1-8.43,5.72h0a18.66,18.66,0,0,0,1.16,6.58A9.22,9.22,0,0,0,298,317.55Zm-3.35-4.36a9.12,9.12,0,0,0-9.72-.6,8.54,8.54,0,0,0,9.72.6Zm-4,1.86-.44,0a9.2,9.2,0,0,1-4.87-1.41,17,17,0,0,0-2.75,9.61,19.58,19.58,0,0,0,.47,4.28,9.21,9.21,0,0,0,6.22,2.42c.24,0,.46,0,.7,0a20.29,20.29,0,0,1-1.09-6.66A19.46,19.46,0,0,1,290.65,315Zm-6.35-2.11a9.33,9.33,0,0,0-3.14,3.35,8.66,8.66,0,0,0,1.23,2.6,16.62,16.62,0,0,1,2.31-5.68C284.57,313.12,284.42,313,284.3,312.94Zm-3.56,4.24a9.26,9.26,0,0,0,1.48,9.51,21.45,21.45,0,0,1-.28-3.41,21,21,0,0,1,.3-3.49A9.27,9.27,0,0,1,280.74,317.18Z" transform="translate(-263.74 -241.24)" style="fill:#fff100"/><circle cx="144.86" cy="79.48" r="13.1" style="fill:#231f20"/><circle cx="144.86" cy="79.48" r="12.02" style="fill:#fff100"/><circle cx="144.86" cy="79.48" r="10.64" style="fill:#ed3024"/><path d="M406.38,315a9.23,9.23,0,0,1-3.69-1.37,9.24,9.24,0,0,0-2.41,3.05,8.58,8.58,0,0,0,8,5.94A17.59,17.59,0,0,0,406.38,315Zm-7,5.74a9.25,9.25,0,0,0,7.84,9.14,18.73,18.73,0,0,0,1.16-6.58h0a9.25,9.25,0,0,1-8.43-5.72A9.26,9.26,0,0,0,399.34,320.72Zm8.34-6.3a8.54,8.54,0,0,0,5.3-1.84,9.12,9.12,0,0,0-9.72.6A8.57,8.57,0,0,0,407.68,314.42Zm1.31,8.86a20.39,20.39,0,0,1-1.08,6.66c.23,0,.46,0,.69,0a9.2,9.2,0,0,0,6.22-2.42,19.41,19.41,0,0,0,.47-4.28,16.93,16.93,0,0,0-2.75-9.61,9.19,9.19,0,0,1-4.87,1.41l-.44,0A19.46,19.46,0,0,1,409,323.28Zm4.2-10.06a16.69,16.69,0,0,1,2.31,5.68,8.63,8.63,0,0,0,1.23-2.6,9.33,9.33,0,0,0-3.14-3.35C413.47,313,413.32,313.12,413.2,313.22Zm2.46,6.57a20.63,20.63,0,0,1,0,6.9,9.26,9.26,0,0,0,1.48-9.51A9.25,9.25,0,0,1,415.66,319.79Z" transform="translate(-263.74 -241.24)" style="fill:#fff100"/><polygon points="36.34 40.13 39.73 49.71 30.72 45.55 28.11 48.06 36.77 57.05 38.45 55.42 32.1 48.83 41.22 52.68 42.5 51.45 39.51 42.79 45.31 48.81 47.36 46.83 38.71 37.84 36.34 40.13" style="fill:#fff100"/><polygon points="59.36 18.56 63.88 25.72 53.55 22.29 53.52 22.26 53.5 22.27 53.48 22.27 53.49 22.28 51.35 23.63 58.01 34.18 60.43 32.65 55.98 25.62 66.03 29.11 68.44 27.58 61.78 17.04 59.36 18.56" style="fill:#fff100"/><polygon points="89.61 12.54 89.61 17.82 83.93 17.82 83.93 12.54 81.08 12.54 81.08 25.02 83.93 25.02 83.93 19.25 89.61 19.25 89.61 25.02 92.47 25.02 92.47 12.54 89.61 12.54" style="fill:#fff100"/><polygon points="126.91 31.18 119.31 24.07 118.17 25.3 120.92 27.88 113.54 35.75 115.63 37.71 123.01 29.83 125.75 32.41 126.91 31.18" style="fill:#fff100"/><polygon points="98.58 24.21 99.98 20.48 103.92 21.95 104.5 20.37 100.56 18.9 101.77 15.68 105.71 17.16 106.3 15.58 99.68 13.11 95.31 24.79 102.86 27.61 103.44 26.04 98.58 24.21" style="fill:#fff100"/><polygon points="123.27 42.44 126.23 39.76 129.05 42.88 130.3 41.76 127.48 38.64 130.03 36.33 132.85 39.45 134.1 38.32 129.36 33.08 120.11 41.45 125.51 47.43 126.75 46.3 123.27 42.44" style="fill:#fff100"/><path d="M341.66,263.92a4.72,4.72,0,0,1-2.26,1.57,4.9,4.9,0,0,1-3-9.35,4.72,4.72,0,0,1,2.74,0l.55-1.73a7.53,7.53,0,0,0-4.59,0,7,7,0,1,0,4.23,13.27,7.5,7.5,0,0,0,3.92-2.89Z" transform="translate(-263.74 -241.24)" style="fill:#fff100"/><path d="M379.45,265.71l1.75-.41a4.79,4.79,0,0,0-2.35-3.53c-2.25-1.39-5.31-1.38-6.46.46s.34,4.26.86,5a10.76,10.76,0,0,1,1,2,1.66,1.66,0,0,1-.81,2.11c-1.14.57-3.62-1.14-3.72-3.13a10.34,10.34,0,0,0-1.77.83s.07,1.79,3,3.59,5.45.63,6.21-.59a3.69,3.69,0,0,0,.22-3.79c-.46-1-1.62-3.26-1.62-3.26s-.69-1.5.42-2.08c.82-.42,2.4.51,2.85,1.36A4.71,4.71,0,0,1,379.45,265.71Z" transform="translate(-263.74 -241.24)" style="fill:#fff100"/><path d="M308,271.37l-2,2.15,5.61,12.21,1.7-1.79-1.67-3.2,3-3.14,3.35,1.43,2.38-2.51Zm2.94,8.1-2.31-4.42,4.63,2Z" transform="translate(-263.74 -241.24)" style="fill:#fff100"/><path d="M399.29,293.34a3.52,3.52,0,0,0,4.45-.67c2.64-2.53-.41-5.76-.41-5.76l-3.86-4-9,8.63,2,2.06,3.44-3.29,1.32,1.37-2.07,4.73,2.72,2.84S398.95,295.31,399.29,293.34ZM398,290.21l-1-1,3.29-3.15.84.88a2.54,2.54,0,0,1-.11,3.54C399.53,291.9,398,290.21,398,290.21Z" transform="translate(-263.74 -241.24)" style="fill:#fff100"/><path d="M391.59,375.65a4.2,4.2,0,1,0,4.2,4.2A4.21,4.21,0,0,0,391.59,375.65Zm1.65,1.23a2.92,2.92,0,0,0-1-.16h-2a3.29,3.29,0,0,1,3,.16Zm.13,1.54c0,.89-.63,1-1.22,1h-1.89v-2h2C392.7,377.42,393.38,377.49,393.38,378.42Zm-5.2,1.43a3.4,3.4,0,0,1,1.27-2.64v5.27A3.42,3.42,0,0,1,388.18,379.85Zm1.62,2.89h.46v-2.58h2c1,0,1.08.58,1.08,1.07a7.57,7.57,0,0,0,.14,1.48,3.37,3.37,0,0,1-3.64,0Zm4.35-.67s0,0,0-.07l0-1.09c0-.84-.38-1-.72-1.13a1.48,1.48,0,0,0,.84-1.44,1.56,1.56,0,0,0-.3-1,3.37,3.37,0,0,1,.24,4.72Z" transform="translate(-263.74 -241.24)" style="fill:#231f20"/><path d="M365.16,305.3l-1.75,4h.65v4h-2.33v-4h1l-2-4-1.75,4h.72v4h-2.33v-4h.95l-2-4-1.75,4h.76v7.12h4.38v2.1a6,6,0,0,0-4,.92c-.73.82-4.57,1.64-2.65,0s2.92-1.64,1.28-2.46a4,4,0,0,1-2-1.73l.18-5.57,2.37-3.92H352l-1.74-3.47-1.8,3.47H346l-1.74-3.47-1.8,3.47h-3l4.84,9.31-2.83,2.74s-.64,2.46.82,4,1.82,2.47.73,4a6.35,6.35,0,0,0-1.19,2.19s-1.55,2.37-1.74-.64-.73-7.85-.73-7.85l2.56-4.66s-3.56-.91-4.29-8.31c-1.74,2.37-3.47,1.09-4.48.28-1.1,3.38-2.83,5.66-3.74,4.84a6.43,6.43,0,0,0-2.28-1.19s2.56,4.29,1.46,6.76c3-3,5.48-4.11,6.48-3.47s1.19,1.47-1.55,3.93c2.06.9,2.49.9,2.56.81v13.8s-.55,4.93,3.1,4.93h2.47l-.73,8a11.18,11.18,0,0,0,.64,2.19,17.37,17.37,0,0,0,1.92,2.37,2.28,2.28,0,0,1,.27,1.55c-.18.82-.82,3.56.82,4s4.65-1.46,5.29-1.82,1.55-1.28,0-3.11-2.92-4.47-1.46-5.2,2.65-1.18,1.37-3.47-3.65-7.94-1.74-5.75l8.4,9.31s1.28,1.37,1.46.37c-.09-1.19-.86-8.71-.18-9.5s-.27-1.74-2.28-1.56a9.14,9.14,0,0,1,.46-3.47c.09-.73-1.37-.91-3.47.46-1.09.45.18-2.19.82-2.92a7.69,7.69,0,0,0,1-1.46l5.3,2.65h.16v15.88h0a1,1,0,0,0,2,0h0V329.66c1.47-.45,2.85-1.57,1.16-4.36.91-.73,2-1.37.27-4.65a3.66,3.66,0,0,0-1.44-1.49v-2.71h4.38v-7.12h1Zm-20,5.39-.18-2.92,1.55,2.38Zm2.65,6.57-1.37-3h2.83Zm2.28-6.57-1.37-.55,1.55-2.38Z" transform="translate(-263.74 -241.24)" style="fill:#ed3024"/></svg>