<?xml version="1.0" encoding="UTF-8"?><svg id="Layer_1" xmlns="http://www.w3.org/2000/svg" xmlns:xlink="http://www.w3.org/1999/xlink" viewBox="0 0 271.41 282.41"><defs><style>.cls-1,.cls-2,.cls-3,.cls-4,.cls-5,.cls-6,.cls-7,.cls-8,.cls-9,.cls-10{fill:none;}.cls-11,.cls-12{fill:#fff;}.cls-11,.cls-13,.cls-14{fill-rule:evenodd;}.cls-15{fill:url(#linear-gradient-8);}.cls-16{fill:url(#linear-gradient-7);}.cls-17{fill:url(#linear-gradient-5);}.cls-18{fill:url(#linear-gradient-6);}.cls-19{fill:url(#linear-gradient-9);}.cls-20{fill:url(#linear-gradient-4);}.cls-21{fill:url(#linear-gradient-3);}.cls-22{fill:url(#linear-gradient-2);}.cls-2{stroke-width:.44px;}.cls-2,.cls-3,.cls-4,.cls-8{stroke:#000;}.cls-2,.cls-3,.cls-5,.cls-7,.cls-8,.cls-10{stroke-miterlimit:3.86;}.cls-3,.cls-4,.cls-9{stroke-width:.26px;}.cls-23{fill:url(#radial-gradient);}.cls-24{fill:url(#linear-gradient);}.cls-25{clip-path:url(#clippath-17);}.cls-26{clip-path:url(#clippath-19);}.cls-27{clip-path:url(#clippath-11);}.cls-28{clip-path:url(#clippath-16);}.cls-29{clip-path:url(#clippath-18);}.cls-30{clip-path:url(#clippath-10);}.cls-31{clip-path:url(#clippath-15);}.cls-32{clip-path:url(#clippath-13);}.cls-33{clip-path:url(#clippath-14);}.cls-34{clip-path:url(#clippath-12);}.cls-35{clip-path:url(#clippath-20);}.cls-5{stroke:#bcbec0;stroke-width:.52px;}.cls-36{clip-path:url(#clippath-1);}.cls-37{clip-path:url(#clippath-3);}.cls-38{clip-path:url(#clippath-4);}.cls-39{clip-path:url(#clippath-2);}.cls-40{clip-path:url(#clippath-7);}.cls-41{clip-path:url(#clippath-6);}.cls-42{clip-path:url(#clippath-9);}.cls-43{clip-path:url(#clippath-8);}.cls-44{clip-path:url(#clippath-5);}.cls-6,.cls-7{stroke-width:2.6px;}.cls-6,.cls-7,.cls-9{stroke:#fff;}.cls-45{fill:#942923;}.cls-46{fill:url(#linear-gradient-10);}.cls-47{fill:url(#linear-gradient-11);}.cls-48{fill:url(#linear-gradient-12);}.cls-49{fill:url(#linear-gradient-13);}.cls-13{fill:#e11b22;}.cls-14{fill:#bcbec0;}.cls-10{stroke:#942923;stroke-width:.13px;}.cls-50{clip-path:url(#clippath);}</style><clipPath id="clippath"><path class="cls-1" d="M3.79,230.28c-3.38,4.3-2.58,6.64-1.85,8.29l.56,1.1c1.13,2.14,2.86,5.19,9.29,5.73,1.4-.05,3.01-.14,5.13-.49l-7.39-9.09s2.46-.8,5.12-2.88c3.26-2.52,5.63-5.63,4.51-7.98-.45-.78-1.47-1.16-2.83-1.16-3.29,0-8.56,2.24-12.54,6.49"/></clipPath><linearGradient id="linear-gradient" x1="-167.68" y1="616.73" x2="-165.26" y2="616.73" gradientTransform="translate(1562.34 -6709.21) scale(9.31 11.26)" gradientUnits="userSpaceOnUse"><stop offset="0" stop-color="#942923"/><stop offset=".11" stop-color="#9e2722"/><stop offset=".3" stop-color="#ba2122"/><stop offset=".51" stop-color="#e11b22"/><stop offset=".66" stop-color="#c32022"/><stop offset=".88" stop-color="#a12622"/><stop offset="1" stop-color="#942923"/></linearGradient><clipPath id="clippath-1"><path class="cls-1" d="M3.79,230.28c-3.38,4.3-2.58,6.64-1.85,8.29l.56,1.1c1.13,2.14,2.86,5.19,9.29,5.73,1.4-.05,3.01-.14,5.13-.49l-7.39-9.09s2.46-.8,5.12-2.88c3.26-2.52,5.63-5.63,4.51-7.98-.45-.78-1.47-1.16-2.83-1.16-3.29,0-8.56,2.24-12.54,6.49"/></clipPath><clipPath id="clippath-2"><path class="cls-1" d="M117.96,243.91c-12.43-7.18-27.93-17.45-40.96-30.06-14.25-15.63-23-40.29-26.33-78.15l-4.79-74.09c4.46-2,10.96-4.66,19.22-7.32,17.01-5.49,41.37-11,70.6-11s53.59,5.51,70.6,11c8.26,2.67,14.76,5.32,19.22,7.32l-4.79,74.09c-3.33,37.86-12.07,62.53-26.33,78.15-13.03,12.61-28.53,22.88-40.96,30.06-7.65,4.42-14.03,7.61-17.74,9.38-3.72-1.77-10.09-4.96-17.74-9.38M43.82,29.47c4.39-2.06,11.65-5.16,21.29-8.27,17.01-5.49,41.37-11,70.6-11s53.59,5.51,70.6,11c9.65,3.12,16.9,6.22,21.3,8.27l-1.92,29.7c-4.46-2.01-11.02-4.7-19.38-7.39-17.01-5.5-41.36-11-70.6-11s-53.59,5.51-70.6,11c-8.35,2.7-14.91,5.38-19.38,7.39l-1.92-29.7ZM34.56,24.17l7.25,112.2c3.41,38.82,12.49,65.91,28.82,83.68,27.6,26.78,65.08,43.03,65.08,43.03,0,0,37.49-16.24,65.08-43.03,16.33-17.76,25.41-44.86,28.81-83.68l7.25-112.2S196.39,1.3,135.71,1.3,34.56,24.17,34.56,24.17"/></clipPath><clipPath id="clippath-3"><path class="cls-1" d="M65.11,51.78c-8.35,2.7-14.91,5.38-19.38,7.39l-.03-.5c-2.94,3.43-5.68,7.04-8.21,10.8l4.32,66.9c3.41,38.82,12.49,65.91,28.82,83.68,13.15,12.77,28.55,23.14,41.07,30.5,7.5,1.52,15.25,2.32,23.19,2.35-3.8-1.83-9.8-4.87-16.92-8.98-12.43-7.18-27.93-17.45-40.96-30.06-14.25-15.63-23-40.29-26.33-78.15l-4.79-74.09c4.46-2,10.96-4.66,19.22-7.32,17.01-5.49,41.37-11,70.6-11s53.59,5.51,70.6,11c8.26,2.67,14.76,5.32,19.22,7.32l-4.79,74.09c-3.33,37.86-12.07,62.53-26.33,78.15-13.03,12.61-28.53,22.88-40.96,30.06-7.11,4.11-13.11,7.15-16.91,8.98,8.14-.09,16.08-1.01,23.74-2.67,12.41-7.34,27.55-17.59,40.5-30.16,16.33-17.76,25.41-44.86,28.81-83.68l4.23-65.49c-2.77-4.24-5.8-8.28-9.07-12.12-4.43-1.95-10.66-4.47-18.46-6.98-17.01-5.5-41.36-11-70.6-11s-53.59,5.51-70.6,11"/></clipPath><radialGradient id="radial-gradient" cx="-123.18" cy="598.81" fx="-123.18" fy="598.81" r="2.41" gradientTransform="translate(6144.34 29347.38) scale(48.78 -48.78)" gradientUnits="userSpaceOnUse"><stop offset="0" stop-color="#e11b22"/><stop offset=".73" stop-color="#e11b22"/><stop offset=".82" stop-color="#c32022"/><stop offset=".94" stop-color="#a12622"/><stop offset="1" stop-color="#942923"/></radialGradient><clipPath id="clippath-4"><path class="cls-1" d="M174.68,200.68c.62,2.17,2.53,2.26,3.13,2.26,1.73,0,3.34-1.68,3.34-1.68,1.25-1.71-.35-1.29-.74-1.13-1.54.55-1.47.44-1.98.44-.46,0-1.46-1.25-1.46-1.25-1.78.37-2.49.76-2.3,1.36M161.22,199.16c-.9,1.8-.85,2.65-.85,3.55,0,1.66,1.39,2.19,1.39,2.19.37.14,1.38.18,1.66-.25.19-.46-.39-.67-.57-1.2-.23-1.03.6-1.74.6-1.74.71-.67.74-1.27.74-1.27-.53-.99-.83-1.27-1.2-1.57-.35-.25-.64-.34-.88-.34-.51,0-.76.44-.87.64M116.66,195.05s-.58.19-1.3.67c-.41.34-.53,1.11.14,1.59,0,0,2.03,1.33,3.29,1.83,1.09.39,1.49.08,1.12-.76,0,0-.73-1.18-.99-2.44-.09-.5-.27-.69-.59-.89,0,0-.29-.17-.78-.17-.25,0-.54.04-.88.17M100.92,196.81c.03.42.5,1.01.84,1.75.34.73,1.34,1.01,1.71.67.19-.23.73-1.8.56-3.37,0,0-.81-.31-1.23-.72-.39-.36-.68-.43-1.24-.57,0,0-.7.29-.64,2.24M187.6,188.97c-.94.76-1.87.95-2.44.95-.42-.07-.78-.35-.78-.35-1.04.62-1.29,2.33-.81,2.81.78.58,1.84.32,3.09-.25,2.26-1.13,2.63-3.27,2.63-3.27.07-.46-.08-.63-.32-.63-.39,0-1.01.42-1.37.74M160.23,187.51c-1.3.34-1.82,1.18-2.38,2.05-.92,1.65-.39,2.15-.01,2.54.97.77,1.6.53,1.6.53,0,0-.39-1.11.3-1.75,1.2-1.01,1.48-1.59,1.48-1.59.14-.2.51-.22.51-.22.4-.05.9-.44.33-1.2-.27-.31-.67-.42-1.11-.42-.23,0-.47.03-.71.08M93.06,185.44s-1.39,1.12-1.89,2.87c-.39,1.39.97,2.6.97,2.6,0,0,.13-.75,1.07-1.27.89-.52.98-1.33.98-1.33,0,0-.16-.14-.19-.42-.09-.69.27-1.51-.04-2.16-.15-.26-.43-.32-.64-.32-.15,0-.26.03-.26.03M97.78,174.14c-1.33.52-2.74,1.34-2.74,1.69,0,.4.36.61.36.61,0,0,.51-.37,1.94.02,1.41.4,1.92.18,1.92.18,0,0,.17-.51,1.07-.95.92-.43.45-1.6.45-1.6,0,0-.56-.22-1.39-.22-.46,0-1.01.07-1.6.28M78.08,150.9c1.96,2.9,4.3,1.77,4.3,1.77,0,0-1.15-1.75-.86-3.36.1-.56.63-.48.63-1.04,0,0-2.65-.06-4.75-.6,0,0-.71.67.69,3.23M89.77,146.63c2.04,3.3,5.53,1.42,5.53,1.42.02.02.27-.67-.21-.75-1.27-.25-1.61-.38-1.71-.61-.58-1.5-1.12-2.1-1.12-2.1-1.34.16-2.48,2.04-2.48,2.04M134.83,144.81c-4.38-1.07-6.82-1.49-11.09-1.49-2.72,0-5.04,1.77-6.41,3.38-2.07,2.79-2.54,7.88-2.54,7.88,0,0-.06,2.02-2.68,2.02-2.07-.12-3.13.12-4.15.36-2.18.71-3.25,2.35-3.55,3.26-1.1,3.5.12,5.04.12,5.04,1.01-.96,1.47-2.21,2.72-3.43,1.28-1.13,2.79-.87,3.45-.06,1.1,1.47,2.23,2.19,3.2,2.38.57.07,1.16.01,1.73-.05.93-.09,1.83-.19,2.54.27.29,2.88,1.19,5.34,1.19,5.34,0,0-.02,4.2-3.67,7.78-2.26,2.05-3.62,2.72-5.4,2.72s-2.34-2.05-2.74-3.26c-.48-1.38-1.32-2.61-2.6-2.44-1.69.37-2.94,1.57-3.14,3.15-2.51.7-3.59,1.31-4.04,2.24-.57,1.26.12,1.96.12,1.96,0,0-3.08,2.14-3.08,3.61,0,2.52,1.29,4.74,3.02,4.74,1.9,0,3.08-2.17,4.8-1.95-1.26,1.11-1.89,2.36-1.89,3.32,0,.81.81,1.71,3.02,3.02,1.81.89,4.29,1.09,5.34.12.9-1.02,1.05-2.3,1.67-2.42.38.82,1.61,1.82,2.07,1.82,2.15,0,2.15-.4,4.62-.71,2.01-.25,3.93-1.09,3.93-2.18s-2.2-2.01-2.2-3.26c0-.41.87-1.61,1.49-2.38.69-.97,1.41-.3,1.41-.3,0,0,.95,4.52,2.91,6.17,2.4,1.88,4.4,1.57,6.33-.65-4.67-.46-2.84-3.26-2.84-3.26,0,0,2.22,1.62,7.15,1.62,2.17,0,3.82-2.21,3.82-2.21l.06-.77s-2.37.4-3.55-1.54c-1.35-2.09-1.55-3.02-1.55-3.02-.24-.46.17-.6.42-.6.43-.03.73.04,1,.1.65.14,1.14.29,2.73-.75,2.06-1.46,2.42-3.43,2.42-3.43.12-.77-.26-1.05-.46-.77-1.26,1.67-2.31,1.31-3.39.65-1.59-1.21-1.95-2.73-1.95-2.73,0,0-.33-1.18.88-1.59,3.21-1.29,5.73-5,6.01-8.74,0-.1-.44-.28-.44-.28-.62.73-2.65,1.95-4.14,2.05-1.58.01-2.39-.82-2.72-1.68-.59-2.02-.05-2.82.64-3.73,2.58-3.12,5.24-3.81,8.31-4.1.18-.12,3.25-2.84,2.72-8.06-.99-5.57-3.32-6.82-3.32-6.82,0,0-4.86,4.39-8.29,3.69M67.47,136.22c-1.17,1.44-.65,4.25-.56,4.72.13.5.46,1.27.94.23,0,0,1.44-2.61,3.46-3.36,0,0-.4-.98-.54-2.96,0,0-.22-.08-.58-.08-.62,0-1.65.22-2.72,1.45M75.54,123.81c-3.73,1.19-2.73,2.67-2.73,2.67,0,0,2.54-.52,3.65.46,0,0,3.46-.79,4.53-2.67,0,0-.79-.86-2.81-.86-.71,0-1.59.11-2.63.4M97.88,123.58c-1.81,1.55-3.5,3.92-8.37,6.24,0,0-4.17,1.89-4.17.37,0-1.02-.04-2.37-.29-4.15-.22-1.44-.43-2.24-1.82-2.24-2.11,0-1.05,1.57-4.29,2.87-4.45,1.32-3.03,3.94-3.03,3.94,0,0-1.24-.35-2.77.51-1.46.85-2.75,4.65-.07,7.85.3.34.07.57,1.46.66.29,0,.38.24.14.64,0,0-2.13,2.55-.87,4.72.57.82,1.9,2.05,8.21,2.47,2,.11,2.01-1.63,2.56-1.63,1.01,0,.74,1.03,2.77,1.03,1.45,0,2.06-2.48,3.38-3.32,1.45-.81,3.1-.55,4.06-1.89.96-1.6-.81-2.93-.81-2.93,0,0,.74-.59,2.09-.09,0,0,3.84,4.54,6.72,4.54,4.01,0,6.58-1.81,6.58-1.81,0,0,1.9-1.19.15-1.39,0,0-3.28-.31-4.42-1.88,0,0-.92-1.26-.21-2.02.94-.85,1.5-.18,1.89.21,1.32,1.92,2.41,2.56,3.26,2.91.86.3,1.51.42,3.16.42,1.3,0,1.85-.68,1.85-.85-1.29-1.15-2.61-4.66-.9-7.4,1.36-1.95,3.71-.62,4.16.03.5.62,1.06,1.65,2.63,1.41,1.32-.23.58-4.83-.8-6.74,0,0-2.15-.62-5.8.86-2.41,1.02-5.33,4.11-6.3,3.85-1.09-.35-2.06-3.39-1.09-5.63.86-1.66,3.03-4.03.5-5.07-.59-.23-1.19-.33-1.8-.33-3.14,0-6.43,2.66-7.71,3.85M70.1,88.6c-.21.35-.11.6-.13,1-.05.62-.3.87-.24,1.88.05.49.49.81.94.24.51-.69.52-1.69.7-1.94.13-.14.51-.13.82-.13.45-.02.59-.32.38-.76-.09-.24-.54-.73-1.35-.84-.03,0-.07,0-.1,0-.79,0-1.03.56-1.03.56M68.71,74.89c-2.08.74-3.88,4.02-3.88,4.02,0,0-.51.9.33.8,1.58-.29,2.11-1.08,2.66-1.04,1.08.06,1.25-.56,1.3-.78.07-.37.08-.92.47-2.1.05-.23.35-.96-.42-.96-.12,0-.27.02-.45.06M77.6,67.41c-1.31.77.32,4.01-.76,4.18-1.23.15-2.33.11-3.27.15-.86.09-2.69,1.72-3.34,4.41-.4,1.12-.46,1.67-.44,2.36.06.41.52,1.03.82,1.46.34.49.62,1.01,1.22,1.27,1.05.4,5.01.09,4.56,1.45-.08.14-.43.11-.88.09-.59-.03-1.33-.06-1.78.29-.36.29-.7.92-1.02,1.35-.32.43-.62.66-.73,1.23-.13.6.21,1.11.59,1.82.16.29.17.68.39,1.04.74,1.11,2.87,1.32,2.87,1.32,1.51.05,2.58-1,3.51-1.14.67-.14,1.53,1.78.98,1.97-2,.53-5.26,2.68-6,5.16-.67,2.64.83.83.83.83,1.72-.78,3.01-.87,4.71-.3,2.33.93,3.76,1.59,4.79,1.67.29,0,.6-.02.89-.05.9-.08,1.69-.16,1.69.51,0,.56-4.79,2.57-6.39,2.23-2.09-.48-.81,1.78-.81,1.78,0,0,1.12,2.22,5.91,2.22,1.35,0,2.36-.07,2.36-.07,1.06,0,1.29.53,1.06,1.29-.53,2.08-.15,2.23.23,2.43,1.05.41,1.92-.79,2.23-1,.55-.34,2.72.5,9.46-2.72,6.65-3.86,6.93-6.27,6.61-6.61-.59-.49-5.23-.85-6.53-2.36-1.6-2.13-2.64-3.68-5.92-5.47-2.95-1.57-6.5-2.73-8.38-3.83-1.56-.9-1.47-7.49-1.09-8.37.44-.71,1-1,1.43-1.02,2.29.01,3.95-2.05,3.95-2.05,0,0,1.02-1.25-.38-2.2-.96-.85-1.67-2.13-1.67-2.13-.61-1.14-1.75-.55-2.05.07-.36.56-1.37,2.1-1.82,1.9-.5-.4-.15-3.19-.15-3.19.15-1.02-.9-1.38-1.75-1.37-1.32-.02-2.04-.11-2.5-.23-.45-.12-1.18-.78-2.15-.78-.39,0-.81.11-1.27.4M90.78,66.21c-.2.11-.2,1.14-.2,1.14,0,0,.09.7-.05,1.32-.13.35-.6.91-.6.91-.15.18-.04.44.23.94.3.48,1.31,1.16,1.31,1.16.56-.12,1.23-.7,1.13-1.56-.16-1.64-.42-2.41-.56-2.75-.18-.41-.67-1.17-1.13-1.17-.04,0-.09,0-.13.02M78.47,63.07c-.21.38-.03.84.49,1.23,1.4.79,1,2.17,1,2.17.74.26.71.38,1.27.62.77.21,1.05.21,1.12-.02.22-.79.6-2.54.03-3.2-.73-.74-2-1.09-2.9-1.09-.49,0-.88.1-1,.3M178.91,61.27c-3.52,1.28-6.22,2.53-8.68,3.93-2.36,1.22-2.78,1.41-3.71,2.24-1.98,2.17-2.06,3.84-1.91,7.37.31,3.15,1.48,7.65,1.48,7.65l-.28.55s-2.41-1.89-4.75-2.24c-3.55-.37-3.49.71-3.49.71,0,0,5.3,5.34,6.12,9.17.59,3.72.49,6.15.49,11.47,0,8.61,1.14,12.39,4.27,15.99,2.74,2.69,6.55,6.6,7.03,9.08.11.52-.05.64-.44.71-1.06.25-1.58.37-2.64.76-1.31.44-1.86.79-3.47.11-2.46-1.14-3.83-3.59-4.15-4.86-.2-.83-.27-1.26-.27-1.26-.2-1.11-1.31-1.11-1.31-.11-.12,2.09-.11,2.85.48,5.08,1.31,3.94,6.63,6.21,9.25,7.04,3.2.9,7.86,1.22,9.61,2.19,2.51,1.77,3.38,4.41,2.51,7.16-1.25,2.51-3.17,3.22-5.68,3.66-3.68.45-4.98-.32-8.14-2.18-5.35-3.31-10.13-7.86-12.73-11.88-2.97-5.02-6.82-9.25-6.82-9.25l-3.77-4.75-.6.16s.78,3.7-1.81,9.17c-2.29,4.4-6,6.77-6,6.77,0,0,.52,2.39,2.51,3.17,3.06,1.09,6.05,6.85,6.05,9.07-.18,4.74-.59,5.81-2.01,9.72-1.5,3.7-2.35,8.04-2.35,9.67,0,2.84,2.73,6.05,2.73,8.35,0,3.66-1.16,5.12-2.56,9.34-2.3,6.02-.44,9.23-.44,9.23.47.87.73.61.98,0,2.41-6.26,5.9-8.46,5.9-8.46,1.11-.78,1.11.2.87,1.15-1.25,4.11-1.69,7.54-1.69,7.54l.71-.17c4.46-5.01,5.37-6.89,5.9-8.57.83-3.18.87-6.23.87-6.23,0,0,.48-1.88,2.73-1.58,2.41.35,3.9-.23,5.84-1.2,2.33-1.62,4.04-3.44,4.04-3.44,0,0,1.08-1.04,2.45-.06,2.38,2.26,2.45,5.44,1.09,7.92-1.89,3.35-3.31,3.93-4.15,3.93-1.17,0-2.27-1.64-3.93-1.64-2.29,0-3.17,1.38-3.17,2.02,0,1.31.94,1.31,1.1,2.24.36,2.17,1.53,4.04,1.53,4.04-.26.53-2.27,1.51-2.73,2.24-.44.56-.55,1.64-.55,1.64,0,0-.42.74,1.47,1.75,1.55.74,1.61,2.29,3.33,3.49,1.33.87,2.41-.44,2.41-.44,1.19-1.67,1.53-2.95,1.53-2.95.31-.73,1.08-.47,1.14-.06.2,1.14.91,1.47,1.37,1.47,1.69.18,2.73-.82,2.73-.82,0,0,1.35.09,2.35-.49,1.79-1.1,2.57-2.41,2.57-2.41,0,0,.46-.9-.27-2.18-.37-.6-1.09-.93-1.09-.93,0,0,.4-1.42,1.47-1.42,1.32,0,2.55-1.23,3.11-2.46.61-1.56.71-2.9.71-2.9.15-.48-.43-1.9.93-2.29,1.69-.39,2.4-.84,3.11-1.91.84-1.52.64-2.57.64-2.57-.21-.33-.65-.35-.65-.35-.48-.21-.34-.47-.15-.63,1.44-1.2,3.59-3.33,3.98-4.75.19-.82.04-1.39-.64-2.09-2.83,1.55-4.53,1.21-4.61.79-.06-.44,1.76-1.27,1.76-1.27,2.22-1.42,3.22-3.49,3.61-5.24.77-3.21.22-4.92.22-4.92l-.49.06c-2.46,4.46-6.45,5.95-6.45,5.95-.75.22-.9-.53-.54-.93,1.83-2.2,2.5-3.67,2.86-5.81.25-2.19.1-3.3-.62-5.17-.11-.38-.47-.28-.59.01-1.11,2.46-1.63,2.85-2.74,4.63-1.47,2.17-3.42,3-4.04,2.51-1.12-1.04-.93-3.26-1.8-4.21-1.41-1.23-3.47-1-5.13-.11-1.26.76-3.61,2.95-3.61,2.95l-.27-.27c.53-3.8-.77-6.83-.77-6.83l.38-.55c1.68-.07,2.73.44,2.73.44,2.75,1.08,4.46,1.2,8.14,1.2,4.71,0,10.94-3.22,13.98-7.92,4.37-7.27,2.55-13.84,1.47-16.33-1.24-2.94-2.12-3.98-2.51-4.31-.5-.38-.88-.16-.71.44.53,1.97.84,4.89.16,9.61-.2,1.01-.73.9-1.15.22-.83-1.6-2.43-3.95-3.49-4.97-1.86-1.87-3.44-3-3.44-3-.77-.65-.62-1.71-.38-2.84.9-3.62.48-5.63-.22-8.47-.86-3.01-4.09-6.51-5.52-7.37-.62-.46-.92.07-.6.49.78.98,1.58,2.76,1.69,6.17,0,2.17-.49,4.26-.49,4.26-1.67-1.13-3.99-5.01-5.63-8.69-1.25-2.63-1.82-6.35-1.04-9.06.81-2.37,2.64-4.01,4.15-5.08,2.66-1.85,5.24-5.27,5.84-8.14.96-5.33-1.26-6.06-1.26-6.06-1.81,5.48-5.99,7.99-6.5,8.25-.55.27-.71.07-.55-.44.71-2.79,2.76-6.25,2.84-9.67,0-2.35-1.63-4.25-3.17-6.12-1.69-2.58-1.62-5.31,1.15-8.69,2.13-2.21,4.07-3.16,5.3-3.5.97-.31,1.62-.53,1.37-1.15-.19-.38-.38-.53-.72-.53-.24,0-.55.07-.97.21M123.86,84.8c-1.71-.65-1.82-2.09-1.82-2.09,0,0,.46-.57,2.36-.68,1.56.04,2.09.95,2.09.95,0,0-1.13,1.87-2.31,1.87-.1,0-.21-.01-.31-.04M122.83,76.6c.91-.27,1.33.35,1.33.35,0,0-1.37.26-3.27,1.14,0,0,.46-.95,1.94-1.48M129.74,66.84c-.15-.23.42-1.06,2.32-1.75,1.97-.57,3.48,0,3.48,0,0,0-1.16,1.71-3.18,1.98-.48.05-1,.09-1.45.09-.61,0-1.09-.08-1.18-.32M140.45,51.5c-3.19,3.42-4.29,5.85-4.29,5.85,0,0-3.04.3-6.23,1.37-4.86,1.86-6.34,3.15-6.87,3.65,0,0-1.79,1.71-2.81,2.05-1.63.49-2.96.38-4.82.46-1.37,0-3.3.15-4.03.57-.57.34-1.45.69-2.32,2.43-.34.69-.3,1.14-.08,1.29.57.38,1.45.88,1.79,1.4.38.76.62,1.95,1.6,3.65.81,1.29,2.04,3.12,3.32,3.77,1.04.45,2.18.4,2.7,1.04,0,0-2.2,1.58-4.52,1.18-1.33-.34-3.11-1.44-4.27-4.8-.64-1.8-1.81-3.07-3.27-3.46-1.17-.19-2.97-.09-4.95,1.27-1.44,1.12-1.93,1.71-2.54,2.36-.63.72-1.44,2.05-1.06,2.94.29.58,1.03,1.23,2.2,1.23.87,0,1.81-.45,3.09-1.35.76-.51,1.8-.94,2.45-.95,1.16.07,1.77,4.58,5.3,6.57,2.44,1.2,5.62.95,5.62.95,0,0,.8.45.8,1.63,0,.67.32,1.63.59,2.03-.09.94-.86,1.87-2.07,2.72-.56.41-.84,1-.84,1,0,0,1,1.22,4.14.53,1.88-.47,3.89-1.92,3.89-1.92,0,0,.48.28.21.91-.14.32-.12.46.1.68.37.26.89.4,1.69.4,1.03,0,3.07-1.12,4.14-2.15.38-.3.72.08.19.67,0,0-1.94,1.99-4.97,2.71-2.77.61-6.34,1.33-9.15,2.35-2.62,1.1-4.56,2.16-7.1,4.94-1.94,1.86-4.06,4.48-8.2,6.19-2.96,1.18-4.82,3-4.82,3.46,0,0-.42.95.23.53,0,0,1.1-.87,3.23-1.1,2.17-.19,3.91-.15,3.91-.15l.46.46s-2.58,1.71-4.06,4.03c-1.25,1.94-2.05,3.95-2.09,6.42,0,.57.53,1.48,1.18.69,0,0,2.85-3.76,4.14-3.76,1.21,0,2.96.91,5.2.91,3.84,0,5.09-.3,5.09-.3l.08.49s-1.44,1.37-2.77,3.72c-.83,1.56-1.6,3.3-1.79,5.62-.04.95.42,1.4,1.22.69,0,0,2.12-2.46,3.11-3.11,1.06-.53,3.08-.84,5.21-1.72,2.66-.84,4.18-1.9,4.18-1.9l.53.49s-.61,2.7-.27,4.52c.38,1.52,1.33,2.62,1.33,4.6,0,2.47-2.32,6.3-2.32,6.3l.04.87s2.73-1.25,6.08-2.39c2.24-.87,4.56-2.81,5.62-4.67,1.6-2.77,2.24-2.77,2.24-2.77,0,0,.61.95.12,2.85-.8,2.51-1.63,4.44-1.63,5.77,0,0,.3.15.68.38,2.7-3.57,5.39-3.69,8.69-7.79,4.18-5.96,3.38-12.53,3.38-12.53l.3-.3s1.1.38,1.97.53c1.1.11,2.2,0,3.49.34,1.29.46,1.67,1.29,1.82,2.05.19.87.34,2.66.8,4.79.19.83.68.91,1.21.38.49-.53,3.04-3.46,4.41-9.49.49-2.73.19-4.63-1.52-6.87-1.03-1.33-3.3-3.3-5.2-5.58-1.25-1.59-1.98-3.34-1.56-5.5.19-.99.8-.87,1.52-.49.46.23.87.3.87.3,0,0,2.21.42,4.33-.8,3.31-2.2,3.87-5.16,3.87-5.16,0,0-.57-.42-1.82.34-.42.23-.95.69-1.9.46-.65-.19-2.89-1.22-3-3.38,0,0-.11-2.09-.64-5.13-.49-3.15-1.03-4.56-1.03-4.56,0,0-.27-1.03.46-.91.91.19,2.66.12,3.61-.27,0,0,2.89-1.18,4.29-4.25.38-.83,1.1-2.35.53-3.15-.34-.42-1.78.72-3.38,1.03-1.06.15-2.24,0-2.88-1.03-.31-.49-1.06-1.37-1.63-2.62-.61-1.48-.19-2.54-.19-2.54,0,0,2.66-.27,4.64-2.13.98-.99,5.28-7.56,5.35-9.83,0-.35-.46-.8-1.4-.38,0,0-4.79,4.63-8.24,6.19-2.92.95-4.94-1.1-4.94-1.1,0,0,2.2-1.22,4.78-3.04,1.67-1.25,2.96-2.81,2.96-4.82,0-.76-.19-1.25-1.14-.49,0,0-3.49,2.05-5.96,2.89-4.48,1.4-7.56,1.25-7.56,1.25,0,0,.07-1.33,3-2.73,1.79-.8,2.77-.72,2.62-1.63-.07-.38-.61-.91-1.29-1.33,0,0-.6-.23-1.58-.23-1.34,0-3.39.43-5.56,2.47"/></clipPath><linearGradient id="linear-gradient-2" x1="-123.39" y1="599.51" x2="-120.98" y2="599.51" gradientTransform="translate(6782.11 32764.36) scale(54.44 -54.44)" xlink:href="#linear-gradient"/><clipPath id="clippath-5"><path class="cls-1" d="M91.7,229.15s1.29.82,1.29,2.05c0,.28-.07.59-.25.91l-5.94,7.92s-.96,1.16-.96,2.44c0,.6.21,1.24.83,1.78,0,0,4.21,3.91,11.71,8.11l17.18-25.27s-.62-1.01-5.64-1.01c-6.17,0-12.33,1.18-18.22,3.06"/></clipPath><linearGradient id="linear-gradient-3" x1="-151.52" y1="594.98" x2="-149.11" y2="594.98" gradientTransform="translate(2026.22 -8360.73) scale(12.8 14.45)" xlink:href="#linear-gradient"/><clipPath id="clippath-6"><path class="cls-1" d="M91.7,229.15s1.3.82,1.29,2.05c0,.28-.07.59-.25.91l-5.94,7.92s-.96,1.16-.96,2.44c0,.6.21,1.24.83,1.78,0,0,4.21,3.91,11.71,8.11l17.18-25.27s-.62-1.01-5.64-1.01c-6.17,0-12.33,1.18-18.22,3.06"/></clipPath><clipPath id="clippath-7"><path class="cls-1" d="M3.79,230.28c-3.38,4.3-2.58,6.64-1.85,8.29l.56,1.1c1.13,2.14,2.86,5.19,9.29,5.73,1.4-.05,3.01-.14,5.13-.49l-7.39-9.09s2.46-.8,5.12-2.88c3.26-2.52,5.63-5.63,4.51-7.98-.45-.78-1.47-1.16-2.83-1.16-3.29,0-8.56,2.24-12.54,6.49"/></clipPath><clipPath id="clippath-8"><path class="cls-1" d="M3.79,230.28c-3.38,4.3-2.58,6.64-1.85,8.29l.56,1.1c1.13,2.14,2.86,5.19,9.29,5.73,1.4-.05,3.01-.14,5.13-.49l-7.39-9.09s2.46-.8,5.12-2.88c3.26-2.52,5.63-5.63,4.51-7.98-.45-.78-1.47-1.16-2.83-1.16-3.29,0-8.56,2.24-12.54,6.49"/></clipPath><clipPath id="clippath-9"><path class="cls-1" d="M256.86,235.99c.52.67.19,1.32.19,1.32,0,0-2.47,4.8-3.19,5.64.02-.02,5.29-6.17,5.29-6.17,0,0,.35-.46-.26-.84-3.37-2.26-6.45-5.36-6.45-5.36.62.67,3.51,4.18,4.43,5.4"/></clipPath><linearGradient id="linear-gradient-4" x1="-183.59" y1="483.57" x2="-181.18" y2="483.57" gradientTransform="translate(777.9 1621.01) scale(2.86 -2.86)" gradientUnits="userSpaceOnUse"><stop offset="0" stop-color="#fff"/><stop offset=".63" stop-color="#a0a2a3"/><stop offset="1" stop-color="#6d6f71"/></linearGradient><clipPath id="clippath-10"><path class="cls-1" d="M12.65,235.95c-.61.38-.27.84-.27.84,0,0,5.27,6.15,5.29,6.17-.72-.84-3.19-5.64-3.19-5.64,0,0-.33-.66.19-1.32.92-1.22,3.8-4.73,4.43-5.4,0,0-3.09,3.1-6.45,5.36"/></clipPath><linearGradient id="linear-gradient-5" x1="-4.54" x2="-2.13" gradientTransform="translate(6.18 1621.01) rotate(-180) scale(2.86)" xlink:href="#linear-gradient-4"/><clipPath id="clippath-11"><path class="cls-1" d="M260.48,246.95c-1.83.13-2.72.27-4.87-.26.58.45,3.55,1.92,4.16,2.14.65.24.48,1.3.28,1.93-.43,1.32-.91,2.62-1.37,3.92-.8,2.3-1.53,4.41-1.55,4.65h.03s.07-.11.12-.23c1.81-3.9,4.34-7.94,5.89-11.97.2-.53.03-.69-.33-.69-.59,0-1.7.47-2.36.52"/></clipPath><linearGradient id="linear-gradient-6" x1="-175.81" y1="493.91" x2="-173.4" y2="493.91" gradientTransform="translate(820.78 1840.77) scale(3.21 -3.21)" xlink:href="#linear-gradient-4"/><clipPath id="clippath-12"><path class="cls-1" d="M252.26,224.96c-.17.36-.26.73-.28,1.12v.31c.1,2.09,2.15,4.51,4.79,6.55,2.66,2.07,5.12,2.88,5.12,2.88l-7.39,9.09c2.12.36,3.73.45,5.13.49,6.42-.53,8.16-3.58,9.29-5.73l.56-1.1c.73-1.65,1.53-3.99-1.85-8.29-3.98-4.25-9.25-6.49-12.54-6.49-1.36,0-2.37.38-2.83,1.16"/></clipPath><linearGradient id="linear-gradient-7" x1="-117.36" y1="570.09" x2="-114.94" y2="570.09" gradientTransform="translate(-6157.19 1314.76) rotate(90) scale(9.31 -11.26)" xlink:href="#linear-gradient"/><clipPath id="clippath-13"><path class="cls-1" d="M252.26,224.96c-1.13,2.35,1.24,5.46,4.51,7.98,2.66,2.07,5.12,2.88,5.12,2.88l-7.39,9.09c2.12.36,3.73.45,5.13.49,6.42-.53,8.16-3.58,9.29-5.73l.56-1.1c.73-1.65,1.53-3.99-1.85-8.29-3.98-4.25-9.25-6.49-12.54-6.49-1.36,0-2.37.38-2.83,1.16"/></clipPath><clipPath id="clippath-14"><path class="cls-1" d="M155.86,227.1l17.18,25.27c7.5-4.2,11.72-8.11,11.72-8.11.52-.46.76-.98.81-1.5v-.56c-.12-1.17-.95-2.17-.95-2.17l-5.94-7.92c-.17-.32-.24-.63-.25-.91,0-1.23,1.28-2.05,1.28-2.05-5.89-1.88-12.05-3.06-18.22-3.06-5.02,0-5.63,1.01-5.63,1.01"/></clipPath><linearGradient id="linear-gradient-8" x1="-99.42" y1="581.08" x2="-97.01" y2="581.08" gradientTransform="translate(-8228.49 1495.22) rotate(90) scale(12.8 -14.45)" xlink:href="#linear-gradient"/><clipPath id="clippath-15"><path class="cls-1" d="M155.86,227.1l17.18,25.27c7.5-4.2,11.72-8.11,11.72-8.11.62-.55.83-1.18.83-1.78,0-1.28-.96-2.44-.96-2.44l-5.94-7.92c-.17-.32-.24-.63-.25-.91,0-1.23,1.28-2.05,1.28-2.05-5.89-1.88-12.05-3.06-18.22-3.06-5.02,0-5.63,1.01-5.63,1.01"/></clipPath><clipPath id="clippath-16"><path class="cls-1" d="M167.62,210.53c-1.34.05-2.68.36-3.69,1.31-1.19,1.13-1.81,2.64-2.54,4.12-.83,1.7-4.17,7.5-4.84,8.78.71-1.37,4.72-6.66,5.66-8.12.67-1.04,1.27-2.18,2.04-3.13.73-.9,1.51-1.6,2.57-1.88.51-.14,2.95-1,3.31-.96-.5-.05-1.04-.09-1.58-.11h-.94Z"/></clipPath><linearGradient id="linear-gradient-9" x1="-163.05" y1="635.99" x2="-160.63" y2="635.99" gradientTransform="translate(5060.54 -992.09) rotate(-90.19) scale(7.57 -7.71) skewX(.38)" xlink:href="#linear-gradient-4"/><clipPath id="clippath-17"><path class="cls-1" d="M103,210.53c-.55.02-1.08.07-1.58.11.36-.03,2.79.82,3.3.96,1.06.29,1.84.98,2.57,1.88.78.96,1.37,2.09,2.04,3.13.94,1.45,4.95,6.75,5.67,8.12-.67-1.27-4-7.07-4.84-8.78-.73-1.48-1.34-2.99-2.54-4.12-1.01-.95-2.35-1.26-3.69-1.31h-.93Z"/></clipPath><linearGradient id="linear-gradient-10" x1="-162.83" y1="569.48" x2="-160.42" y2="569.48" gradientTransform="translate(-4276.45 -992.09) rotate(-89.81) scale(7.57 7.71) skewX(.38)" xlink:href="#linear-gradient-4"/><clipPath id="clippath-18"><path class="cls-1" d="M184.47,248.51l-7.27,3.66,3.93-.45c2.18-.07,1.98,2.36,1.98,2.36l-.81,12.44,3.71-16.92c.34-1.23.05-1.57-.36-1.57-.49,0-1.17.47-1.17.47"/></clipPath><linearGradient id="linear-gradient-11" x1="-178.96" y1="510.36" x2="-176.54" y2="510.36" gradientTransform="translate(857.53 2197.92) scale(3.8 -3.8)" xlink:href="#linear-gradient-4"/><clipPath id="clippath-19"><path class="cls-1" d="M85.52,249.61l3.71,16.92-.81-12.44s-.21-2.43,1.98-2.36l3.93.45-7.27-3.66s-.68-.47-1.17-.47c-.42,0-.71.33-.36,1.57"/></clipPath><linearGradient id="linear-gradient-12" x1="-44.16" y1="510.36" x2="-41.75" y2="510.36" gradientTransform="translate(-73.46 2197.92) rotate(-180) scale(3.8)" xlink:href="#linear-gradient-4"/><clipPath id="clippath-20"><path class="cls-1" d="M8.2,247.12c1.55,4.03,4.08,8.07,5.89,11.97.06.12.1.2.12.23h.02c-.02-.24-.74-2.34-1.54-4.65-.46-1.31-.94-2.6-1.37-3.92-.21-.63-.38-1.69.28-1.93.61-.22,3.58-1.68,4.16-2.14-2.15.54-3.04.39-4.87.26-.66-.05-1.76-.52-2.36-.52-.35,0-.53.17-.33.69"/></clipPath><linearGradient id="linear-gradient-13" x1="-16.36" y1="493.91" x2="-13.95" y2="493.91" gradientTransform="translate(-36.78 1840.85) rotate(-180) scale(3.22)" xlink:href="#linear-gradient-4"/></defs><path class="cls-11" d="M248.38,243.44c2.34.72,4.33,1.17,6.05,1.46l7.45-9.08s-2.46-.8-5.12-2.88c-2.97-2.3-5.19-5.08-4.71-7.34-.71,1.79-.94,3.53-.85,5.62-.52,7.18-2.82,12.22-2.82,12.22"/><path class="cls-9" d="M248.38,243.44c2.34.72,4.33,1.17,6.05,1.46l7.45-9.08s-2.46-.8-5.12-2.88c-2.97-2.3-5.19-5.08-4.71-7.34-.71,1.79-.94,3.53-.85,5.62-.52,7.18-2.82,12.22-2.82,12.22Z"/><path class="cls-7" d="M171.83,252.96l-18.35-26.87,8.28-14.73s1.49-2.64,6.51-2.64c16.7,0,32.99,8.6,45.59,16.59,27.77,18.55,39.64,19.89,45.79,20.09,6.42-.53,8.04-3.53,9.17-5.68M173.07,252.4l-17.22-25.3s.62-1.01,5.63-1.01c16.7,0,32.99,8.6,45.59,16.59,27.77,18.55,37.28,21.25,43.43,21.46,2.86-.31,6.12-.31,8.94-6.12,1.23-2.36,10.01-19.43,10.01-19.43.73-1.65,1.53-3.99-1.85-8.29-5.62-6-13.83-8-15.37-5.33-1.13,2.35,1.24,5.46,4.51,7.98,2.66,2.07,5.12,2.88,5.12,2.88l-7.45,9.09M248.38,243.44c2.34.72,4.33,1.17,6.05,1.46l7.45-9.08s-2.46-.8-5.12-2.88c-2.97-2.3-5.19-5.08-4.71-7.34-.71,1.79-.94,3.53-.85,5.62-.52,7.18-2.82,12.22-2.82,12.22Z"/><path class="cls-11" d="M16.92,244.89l-7.39-9.07s2.46-.81,5.12-2.88c3.26-2.52,5.5-5.79,4.35-8.17.99,2.09,1.32,4.03,1.21,6.45.52,7.19,2.82,12.21,2.82,12.21-2.32.71-4.4,1.18-6.12,1.47"/><path class="cls-6" d="M16.92,244.89l-7.39-9.07s2.46-.81,5.12-2.88c3.26-2.52,5.5-5.79,4.35-8.17.99,2.09,1.32,4.03,1.21,6.45.52,7.19,2.82,12.21,2.82,12.21-2.32.71-4.4,1.18-6.12,1.47Z"/><path class="cls-11" d="M16.92,244.89l-7.39-9.07s2.46-.81,5.12-2.88c3.26-2.52,5.5-5.79,4.35-8.17.99,2.09,1.32,4.03,1.21,6.45.52,7.19,2.82,12.21,2.82,12.21-2.32.71-4.4,1.18-6.12,1.47"/><path class="cls-7" d="M181.81,229.88s-1.58.94-1,1.68l6.85,8.6s1.62,1.81,1.19,4.61l-4.78,21.76s-.77,2.9-3.87,4.05c-7.29,3.3-25.4,10.53-44.5,10.53s-37.61-7.39-44.73-10.64c-3.05-1.62-3.62-4.13-3.62-4.13l-4.79-21.56c-.43-2.8,1.19-4.61,1.19-4.61l6.85-8.6c.58-.74-1.05-1.66-1.05-1.66l2.15-.76s1.96,1.24,1.04,2.97l-5.94,7.92s-2.07,2.52-.13,4.23c0,0,19.81,18.23,49.04,18.23s49.04-18.23,49.04-18.23c1.94-1.71-.13-4.23-.13-4.23l-5.94-7.92c-.92-1.73,1.04-2.97,1.04-2.97l2.1.74ZM16.92,244.89l-7.39-9.07s2.46-.81,5.12-2.88c3.26-2.52,5.5-5.79,4.35-8.17.99,2.09,1.32,4.03,1.21,6.45.52,7.19,2.82,12.21,2.82,12.21-2.32.71-4.4,1.18-6.12,1.47Z"/><path class="cls-11" d="M16.92,244.89l-7.39-9.07s2.46-.81,5.12-2.88c3.26-2.52,5.5-5.79,4.35-8.17.99,2.09,1.32,4.03,1.21,6.45.52,7.19,2.82,12.21,2.82,12.21-2.32.71-4.4,1.18-6.12,1.47"/><path class="cls-6" d="M16.92,244.89l-7.39-9.07s2.46-.81,5.12-2.88c3.26-2.52,5.5-5.79,4.35-8.17.99,2.09,1.32,4.03,1.21,6.45.52,7.19,2.82,12.21,2.82,12.21-2.32.71-4.4,1.18-6.12,1.47Z"/><path class="cls-11" d="M16.92,244.89l-7.39-9.07s2.46-.81,5.12-2.88c3.26-2.52,5.5-5.79,4.35-8.17.99,2.09,1.32,4.03,1.21,6.45.52,7.19,2.82,12.21,2.82,12.21-2.32.71-4.4,1.18-6.12,1.47"/><path class="cls-7" d="M98.34,252.4l17.22-25.3s-.62-1.02-5.64-1.02c-16.7,0-32.99,8.6-45.59,16.59-27.77,18.55-37.28,21.25-43.43,21.46-2.86-.31-6.12-.31-8.94-6.12-1.23-2.36-10.02-19.43-10.02-19.43-.73-1.66-1.53-3.99,1.85-8.29,5.63-6,13.83-8,15.37-5.33,1.13,2.35-1.24,5.46-4.51,7.99-2.66,2.07-5.12,2.88-5.12,2.88l7.5,9.14M99.61,252.96l18.35-26.87-8.28-14.73s-1.49-2.64-6.51-2.64c-16.7,0-32.99,8.6-45.59,16.59-27.77,18.55-39.64,19.88-45.79,20.09-6.42-.53-8.04-3.54-9.17-5.68M16.92,244.89l-7.39-9.07s2.46-.81,5.12-2.88c3.26-2.52,5.5-5.79,4.35-8.17.99,2.09,1.32,4.03,1.21,6.45.52,7.19,2.82,12.21,2.82,12.21-2.32.71-4.4,1.18-6.12,1.47Z"/><g class="cls-50"><rect class="cls-24" x="-3.63" y="220.29" width="27.97" height="28.62" transform="translate(-115.05 36.06) rotate(-29.75)"/></g><g class="cls-36"><rect class="cls-6" x="1.34" y="225.41" width="22.48" height="20.5" transform="translate(-115.27 37.3) rotate(-29.75)"/></g><path class="cls-6" d="M2.51,239.67l-.56-1.1c-.73-1.65-1.53-3.99,1.85-8.29,5.62-6,13.83-8,15.37-5.33,1.13,2.35-1.24,5.46-4.51,7.98-2.66,2.07-5.12,2.88-5.12,2.88l7.39,9.09c-2.12.35-3.73.44-5.13.49-6.43-.53-8.16-3.58-9.29-5.73Z"/><path class="cls-7" d="M135.71,1.3c60.69,0,101.15,22.87,101.15,22.87l-7.25,112.21c-3.4,38.81-12.49,65.91-28.81,83.68-27.6,26.79-65.08,43.03-65.08,43.03,0,0-37.49-16.24-65.08-43.03-16.33-17.76-25.41-44.86-28.82-83.68l-7.25-112.21S75.02,1.3,135.71,1.3Z"/><path class="cls-12" d="M45.45,55.19l-1.64-25.72c4.4-2.06,11.65-5.16,21.29-8.27,17.01-5.49,41.37-11,70.6-11s53.59,5.51,70.6,11c9.64,3.12,16.9,6.22,21.29,8.27l-1.92,29.7-4.94,76.53c-3.33,37.86-12.07,62.53-26.33,78.15-13.03,12.6-28.53,22.88-40.96,30.06-7.65,4.42-14.03,7.61-17.74,9.38-3.72-1.77-10.09-4.95-17.74-9.38-12.43-7.18-27.93-17.45-40.96-30.06-14.25-15.62-23-40.29-26.33-78.15l-5.22-80.5Z"/><path class="cls-5" d="M45.45,55.19l-1.64-25.72c4.4-2.06,11.65-5.16,21.29-8.27,17.01-5.49,41.37-11,70.6-11s53.59,5.51,70.6,11c9.64,3.12,16.9,6.22,21.29,8.27l-1.92,29.7-4.94,76.53c-3.33,37.86-12.07,62.53-26.33,78.15-13.03,12.6-28.53,22.88-40.96,30.06-7.65,4.42-14.03,7.61-17.74,9.38-3.72-1.77-10.09-4.95-17.74-9.38-12.43-7.18-27.93-17.45-40.96-30.06-14.25-15.62-23-40.29-26.33-78.15l-5.22-80.5Z"/><g class="cls-39"><rect class="cls-45" x="14.14" y="-16.7" width="242.26" height="295.71"/></g><g class="cls-37"><rect class="cls-23" x="37.49" y="40.78" width="196.35" height="212.12"/></g><g class="cls-38"><rect class="cls-22" x="64.32" y="49.03" width="133.32" height="156.05"/></g><path class="cls-2" d="M135.71,1.3c60.69,0,101.15,22.87,101.15,22.87l-7.25,112.21c-3.4,38.81-12.49,65.91-28.81,83.68-27.6,26.79-65.08,43.03-65.08,43.03,0,0-37.49-16.24-65.08-43.03-16.33-17.76-25.41-44.86-28.82-83.68l-7.25-112.21S75.02,1.3,135.71,1.3Z"/><path class="cls-11" d="M16.92,244.89l-7.39-9.07s2.46-.81,5.12-2.88c3.26-2.52,5.5-5.79,4.35-8.17.99,2.09,1.32,4.03,1.21,6.45.52,7.19,2.82,12.21,2.82,12.21-2.32.71-4.4,1.18-6.12,1.47"/><path class="cls-4" d="M16.92,244.89l-7.39-9.07s2.46-.81,5.12-2.88c3.26-2.52,5.5-5.79,4.35-8.17.99,2.09,1.32,4.03,1.21,6.45.52,7.19,2.82,12.21,2.82,12.21-2.32.71-4.4,1.18-6.12,1.47Z"/><path class="cls-11" d="M16.92,244.89l-7.39-9.07s2.46-.81,5.12-2.88c3.26-2.52,5.5-5.79,4.35-8.17.99,2.09,1.32,4.03,1.21,6.45.52,7.19,2.82,12.21,2.82,12.21-2.32.71-4.4,1.18-6.12,1.47"/><path class="cls-3" d="M16.92,244.89l-7.39-9.07s2.46-.81,5.12-2.88c3.26-2.52,5.5-5.79,4.35-8.17.99,2.09,1.32,4.03,1.21,6.45.52,7.19,2.82,12.21,2.82,12.21-2.32.71-4.4,1.18-6.12,1.47Z"/><path class="cls-8" d="M252.41,224.77c-.99,2.09-1.32,4.03-1.21,6.45-.52,7.18-2.82,12.21-2.82,12.21"/><path class="cls-11" d="M248.38,243.44c2.34.72,4.33,1.17,6.05,1.46l7.45-9.08s-2.46-.8-5.12-2.88c-2.97-2.3-5.19-5.08-4.71-7.34-.71,1.79-.94,3.53-.85,5.62-.52,7.18-2.82,12.22-2.82,12.22"/><path class="cls-3" d="M248.38,243.44c2.34.72,4.33,1.17,6.05,1.46l7.45-9.08s-2.46-.8-5.12-2.88c-2.97-2.3-5.19-5.08-4.71-7.34-.71,1.79-.94,3.53-.85,5.62-.52,7.18-2.82,12.22-2.82,12.22Z"/><path class="cls-11" d="M98.34,252.4l17.22-25.3s-.62-1.01-5.64-1.01c-16.7,0-32.99,8.6-45.59,16.58-27.77,18.55-37.28,21.25-43.43,21.46-2.86-.31-6.12-.31-8.94-6.12-1.04-1.99-7.44-14.42-9.43-18.29h.09c1.13,2.14,2.74,5.14,9.17,5.68,6.15-.21,18.02-1.54,45.79-20.09,12.59-7.99,28.88-16.59,45.59-16.59,5.02,0,6.51,2.64,6.51,2.64l8.28,14.73-18.35,26.87-1.27-.56Z"/><path class="cls-3" d="M99.61,252.96l18.35-26.87-8.28-14.73s-1.49-2.64-6.51-2.64c-16.7,0-32.99,8.6-45.59,16.59-27.77,18.55-39.64,19.88-45.79,20.09-6.43-.53-8.04-3.54-9.17-5.68"/><path class="cls-11" d="M181.81,229.88s-1.58.94-1,1.68l6.85,8.6s1.62,1.81,1.19,4.61l-4.78,21.76s-.77,2.9-3.87,4.05c-7.28,3.3-25.4,10.53-44.49,10.53s-37.61-7.39-44.73-10.64c-3.05-1.62-3.62-4.13-3.62-4.13l-4.79-21.56c-.43-2.8,1.19-4.61,1.19-4.61l6.86-8.6c.57-.74-1.05-1.66-1.05-1.66l2.14-.76s1.96,1.24,1.04,2.97l-5.94,7.92s-2.07,2.52-.13,4.23c0,0,19.81,18.23,49.04,18.23s49.04-18.23,49.04-18.23c1.94-1.71-.13-4.23-.13-4.23l-5.94-7.92c-.92-1.73,1.04-2.97,1.04-2.97l2.09.74Z"/><path class="cls-4" d="M181.81,229.88s-1.58.94-1,1.68l6.85,8.6s1.62,1.81,1.19,4.61l-4.78,21.76s-.77,2.9-3.87,4.05c-7.28,3.3-25.4,10.53-44.49,10.53s-37.61-7.39-44.73-10.64c-3.05-1.62-3.62-4.13-3.62-4.13l-4.79-21.56c-.43-2.8,1.19-4.61,1.19-4.61l6.86-8.6c.57-.74-1.05-1.66-1.05-1.66l2.14-.76s1.96,1.24,1.04,2.97l-5.94,7.92s-2.07,2.52-.13,4.23c0,0,19.81,18.23,49.04,18.23s49.04-18.23,49.04-18.23c1.94-1.71-.13-4.23-.13-4.23l-5.94-7.92c-.92-1.73,1.04-2.97,1.04-2.97l2.09.74Z"/><path class="cls-8" d="M181.81,229.88s-1.58.94-1,1.68l6.85,8.6s1.62,1.81,1.19,4.61l-4.78,21.76s-.77,2.9-3.87,4.05c-7.28,3.3-25.4,10.53-44.49,10.53s-37.61-7.39-44.73-10.64c-3.05-1.62-3.62-4.13-3.62-4.13l-4.79-21.56c-.43-2.8,1.19-4.61,1.19-4.61l6.86-8.6c.57-.74-1.05-1.66-1.05-1.66l2.14-.76s1.96,1.24,1.04,2.97l-5.94,7.92s-2.07,2.52-.13,4.23c0,0,19.81,18.23,49.04,18.23s49.04-18.23,49.04-18.23c1.94-1.71-.13-4.23-.13-4.23l-5.94-7.92c-.92-1.73,1.04-2.97,1.04-2.97l2.09.74Z"/><g class="cls-44"><rect class="cls-21" x="83.26" y="220.77" width="34.86" height="36.92" transform="translate(-158.54 252.1) rotate(-70.02)"/></g><g class="cls-41"><rect class="cls-4" x="84.12" y="225.6" width="30.89" height="23.57" transform="translate(-157.55 249.83) rotate(-70.02)"/></g><path class="cls-4" d="M91.7,229.14s1.96,1.24,1.04,2.97l-5.94,7.92s-2.07,2.52-.13,4.23c0,0,4.21,3.91,11.72,8.11l17.18-25.27s-.62-1.01-5.64-1.01c-6.17,0-12.33,1.18-18.22,3.06ZM91.7,229.14s1.96,1.24,1.04,2.97l-5.94,7.92s-2.07,2.52-.13,4.23c0,0,4.21,3.91,11.72,8.11l17.18-25.27s-.62-1.01-5.64-1.01c-6.17,0-12.33,1.18-18.22,3.06Z"/><path class="cls-11" d="M171.8,252.96l-18.36-26.87,8.28-14.73s1.49-2.64,6.51-2.64c16.7,0,32.99,8.6,45.59,16.59,27.77,18.55,39.64,19.88,45.79,20.09,6.43-.53,8.04-3.54,9.17-5.68-1.97,3.83-8.29,16.29-9.33,18.29-2.82,5.8-6.08,5.81-8.94,6.12-6.15-.21-15.66-2.91-43.43-21.46-12.59-7.99-28.89-16.59-45.59-16.59-5.02,0-5.63,1.02-5.63,1.02l17.22,25.3-1.27.56Z"/><path class="cls-3" d="M173.07,252.4l-17.22-25.3s.62-1.02,5.63-1.02c16.7,0,32.99,8.6,45.59,16.59,27.77,18.55,37.28,21.25,43.43,21.46,2.86-.31,6.12-.31,8.94-6.12,1.23-2.36,10.02-19.43,10.02-19.43.73-1.66,1.53-3.99-1.85-8.29-5.62-6-13.83-8-15.37-5.33-1.13,2.35,1.24,5.46,4.5,7.99,2.66,2.07,5.12,2.88,5.12,2.88l-7.45,9.09M98.34,252.4l17.22-25.3s-.62-1.02-5.63-1.02c-16.7,0-32.99,8.6-45.59,16.59-27.77,18.55-37.28,21.25-43.43,21.46-2.86-.31-6.12-.31-8.94-6.12-1.23-2.36-10.02-19.43-10.02-19.43-.73-1.66-1.53-3.99,1.85-8.29,5.62-6,13.83-8,15.37-5.33,1.13,2.35-1.24,5.46-4.51,7.99-2.66,2.07-5.12,2.88-5.12,2.88l7.5,9.14M171.83,252.96l-18.35-26.87,8.28-14.73s1.49-2.64,6.51-2.64c16.7,0,32.99,8.6,45.59,16.59,27.77,18.55,39.64,19.88,45.79,20.09,6.43-.53,8.04-3.54,9.17-5.68"/><g class="cls-40"><rect class="cls-24" x="-3.63" y="220.29" width="27.97" height="28.62" transform="translate(-115.05 36.06) rotate(-29.75)"/></g><g class="cls-43"><rect class="cls-4" x="1.34" y="225.41" width="22.48" height="20.5" transform="translate(-115.27 37.3) rotate(-29.75)"/></g><path class="cls-4" d="M2.51,239.67l-.56-1.1c-.73-1.65-1.53-3.99,1.85-8.29,5.62-6,13.83-8,15.37-5.33,1.13,2.35-1.24,5.46-4.51,7.98-2.66,2.07-5.12,2.88-5.12,2.88l7.39,9.09c-2.12.35-3.73.44-5.13.49-6.43-.53-8.16-3.58-9.29-5.73Z"/><path class="cls-14" d="M135.66,278.44c-17.53-.01-34.36-6.33-42.13-9.75,0,0-.33-.16-.33.58,0,.24.33.39.33.39,7.96,3.48,24.68,9.66,42.13,9.67,17.45-.01,34.27-6.19,42.23-9.67,0,0,.33-.14.33-.39,0-.74-.33-.58-.33-.58-7.77,3.43-24.7,9.74-42.23,9.75"/><path class="cls-14" d="M110.23,224.31h-.32c-17.25,0-33.93,8.87-46.56,16.87-27.58,18.43-36.8,20.95-42.4,21.16l-.61-.06s-1.17-.08-.43-.94c.32.04.72.08,1.07.11,5.33-.22,14.41-2.66,41.89-21.02,12.58-7.98,29.37-16.94,46.81-17.02,1.09,0,1.13.89.55.89"/><path class="cls-14" d="M161.18,224.31h.31c17.25,0,33.93,8.87,46.56,16.87,27.58,18.43,36.8,20.95,42.4,21.16l.61-.06s1.17-.08.43-.94c-.32.04-.72.08-1.07.11-5.33-.22-14.41-2.66-41.89-21.02-12.58-7.98-29.37-16.94-46.81-17.02-1.09,0-1.13.89-.55.89"/><path class="cls-13" d="M52.42,33.98c.3.35.82.9,1.55,1.64.73.73,1.46,1.48,2.19,2.25.73.76,1.53,1.55,2.41,2.38.69.65,1.09,1.04,1.19,1.15.27-4.21.41-7.58.42-10.09,1.46-.5,2.8-1.01,4.02-1.52.11-.05.2-.08.25-.1.25-.09.41-.02.49.19.06.18,0,.31-.2.38-.7.24-1.07.65-1.11,1.24-.04.58.28,1.85.96,3.82l1.65,4.83c.34.99.69,1.63,1.07,1.95.38.31.84.38,1.39.21.27-.08.43-.03.49.15.03.1,0,.2-.08.3l-2.58.87c-.79.27-1.86.67-3.2,1.2-.14-.05-.23-.12-.27-.21-.05-.15.07-.31.37-.47.3-.17.5-.34.61-.49.11-.16.14-.41.12-.74-.03-.33-.15-.78-.35-1.37l-1.48-4.42c-.78-2.25-1.22-3.55-1.33-3.89-.23,4.72-.35,7.72-.35,9.01v2.99c-.01.32-.07.49-.17.53-.11.04-.3-.09-.57-.39-.79-.86-3.53-3.65-8.22-8.37.53,1.64,1.27,3.84,2.22,6.6.5,1.46.9,2.35,1.18,2.69.28.33.79.41,1.51.23.24-.06.39,0,.44.15.06.17,0,.29-.2.35-.07.02-.14.04-.22.07-.75.2-1.29.35-1.6.46-.87.3-1.51.56-1.94.78-.08.04-.14.07-.18.09-.21.07-.35.01-.42-.18-.03-.09-.03-.16,0-.21.04-.06.16-.15.37-.28.55-.32.85-.68.91-1.07.07-.4-.03-.98-.29-1.74l-1.89-5.64c-.44-1.28-.76-2.12-.97-2.51-.2-.39-.46-.66-.78-.8-.32-.14-.76-.17-1.34-.1-.22.02-.35-.05-.41-.22-.06-.19.01-.31.23-.39.05-.02.12-.04.21-.06.64-.16,1.94-.58,3.88-1.25"/><path class="cls-10" d="M52.42,33.98c.3.35.82.9,1.55,1.64.73.73,1.46,1.48,2.19,2.25.73.76,1.53,1.55,2.41,2.38.69.65,1.09,1.04,1.19,1.15.27-4.21.41-7.58.42-10.09,1.46-.5,2.8-1.01,4.02-1.52.11-.05.2-.08.25-.1.25-.09.41-.02.49.19.06.18,0,.31-.2.38-.7.24-1.07.65-1.11,1.24-.04.58.28,1.85.96,3.82l1.65,4.83c.34.99.69,1.63,1.07,1.95.38.31.84.38,1.39.21.27-.08.43-.03.49.15.03.1,0,.2-.08.3l-2.58.87c-.79.27-1.86.67-3.2,1.2-.14-.05-.23-.12-.27-.21-.05-.15.07-.31.37-.47.3-.17.5-.34.61-.49.11-.16.14-.41.12-.74-.03-.33-.15-.78-.35-1.37l-1.48-4.42c-.78-2.25-1.22-3.55-1.33-3.89-.23,4.72-.35,7.72-.35,9.01v2.99c-.01.32-.07.49-.17.53-.11.04-.3-.09-.57-.39-.79-.86-3.53-3.65-8.22-8.37.53,1.64,1.27,3.84,2.22,6.6.5,1.46.9,2.35,1.18,2.69.28.33.79.41,1.51.23.24-.06.39,0,.44.15.06.17,0,.29-.2.35-.07.02-.14.04-.22.07-.75.2-1.29.35-1.6.46-.87.3-1.51.56-1.94.78-.08.04-.14.07-.18.09-.21.07-.35.01-.42-.18-.03-.09-.03-.16,0-.21.04-.06.16-.15.37-.28.55-.32.85-.68.91-1.07.07-.4-.03-.98-.29-1.74l-1.89-5.64c-.44-1.28-.76-2.12-.97-2.51-.2-.39-.46-.66-.78-.8-.32-.14-.76-.17-1.34-.1-.22.02-.35-.05-.41-.22-.06-.19.01-.31.23-.39.05-.02.12-.04.21-.06.64-.16,1.94-.58,3.88-1.25Z"/><path class="cls-13" d="M66.95,29.13c.22-.06.67-.17,1.36-.34.52-.12.94-.22,1.24-.31l2.84-.9c.24-.07.39-.01.44.17.05.16-.04.28-.25.37-.48.19-.78.39-.9.58-.12.19-.15.55-.1,1.1.06.55.36,1.74.88,3.57.6,2.11,1.1,3.73,1.5,4.87.39,1.13.72,1.81.98,2.02.27.21.63.26,1.06.13.3-.09.48-.05.53.13.07.23-.06.4-.39.49-.09.03-.23.06-.41.11-1.19.25-2,.43-2.43.55-.94.27-1.62.5-2.05.69-.23.09-.39.15-.49.18-.23.07-.37,0-.43-.19-.05-.15.03-.27.21-.35.51-.22.82-.48.93-.78.12-.3.06-.92-.17-1.86-.23-.94-.63-2.38-1.18-4.34-.59-2.06-1.02-3.43-1.29-4.11-.27-.68-.51-1.08-.71-1.19-.2-.12-.53-.13-.99-.04-.24.05-.39-.02-.44-.21-.05-.17.04-.29.27-.36"/><path class="cls-10" d="M66.95,29.13c.22-.06.67-.17,1.36-.34.52-.12.94-.22,1.24-.31l2.84-.9c.24-.07.39-.01.44.17.05.16-.04.28-.25.37-.48.19-.78.39-.9.58-.12.19-.15.55-.1,1.1.06.55.36,1.74.88,3.57.6,2.11,1.1,3.73,1.5,4.87.39,1.13.72,1.81.98,2.02.27.21.63.26,1.06.13.3-.09.48-.05.53.13.07.23-.06.4-.39.49-.09.03-.23.06-.41.11-1.19.25-2,.43-2.43.55-.94.27-1.62.5-2.05.69-.23.09-.39.15-.49.18-.23.07-.37,0-.43-.19-.05-.15.03-.27.21-.35.51-.22.82-.48.93-.78.12-.3.06-.92-.17-1.86-.23-.94-.63-2.38-1.18-4.34-.59-2.06-1.02-3.43-1.29-4.11-.27-.68-.51-1.08-.71-1.19-.2-.12-.53-.13-.99-.04-.24.05-.39-.02-.44-.21-.05-.17.04-.29.27-.36Z"/><path class="cls-13" d="M84.58,39.02c-.28.06-1.42.3-3.42.72l-2.07.49-1.22.26c-.29.07-.48.09-.56.07-.08-.02-.13-.09-.16-.22-.05-.2.07-.32.34-.39.52-.12.87-.3,1.07-.55.2-.24.27-.63.21-1.15-.05-.52-.23-1.55-.53-3.07-.29-1.53-.59-2.93-.88-4.2-.41-1.79-.75-2.87-1.01-3.24-.25-.38-.7-.51-1.34-.4-.23.03-.37-.04-.41-.23-.04-.18.04-.3.24-.34.12-.03.54-.08,1.24-.17.79-.1,1.33-.19,1.63-.26l3.56-.91c1.19-.28,2.4-.29,3.62-.06,1.22.23,2.28.83,3.19,1.8.91.96,1.53,2.14,1.85,3.55.24,1.04.28,2.06.1,3.06-.17.99-.55,1.87-1.12,2.65-.58.78-1.21,1.35-1.87,1.72-.67.35-1.48.64-2.44.86M83.76,38.43c1.32-.3,2.25-1.04,2.79-2.22.54-1.17.59-2.68.17-4.53-.43-1.88-1.2-3.32-2.31-4.34-1.11-1.03-2.42-1.37-3.94-1.01-.52.12-.83.23-.92.32-.09.08-.14.16-.14.24,0,.07.13.84.41,2.3l.68,3.47c.18.85.41,1.9.7,3.15.21.94.4,1.58.56,1.92.16.34.39.57.69.71.3.13.74.13,1.32,0"/><path class="cls-10" d="M84.58,39.02c-.28.06-1.42.3-3.42.72l-2.07.49-1.22.26c-.29.07-.48.09-.56.07-.08-.02-.13-.09-.16-.22-.05-.2.07-.32.34-.39.52-.12.87-.3,1.07-.55.2-.24.27-.63.21-1.15-.05-.52-.23-1.55-.53-3.07-.29-1.53-.59-2.93-.88-4.2-.41-1.79-.75-2.87-1.01-3.24-.25-.38-.7-.51-1.34-.4-.23.03-.37-.04-.41-.23-.04-.18.04-.3.24-.34.12-.03.54-.08,1.24-.17.79-.1,1.33-.19,1.63-.26l3.56-.91c1.19-.28,2.4-.29,3.62-.06,1.22.23,2.28.83,3.19,1.8.91.96,1.53,2.14,1.85,3.55.24,1.04.28,2.06.1,3.06-.17.99-.55,1.87-1.12,2.65-.58.78-1.21,1.35-1.87,1.72-.67.35-1.48.64-2.44.86ZM83.76,38.43c1.32-.3,2.25-1.04,2.79-2.22.54-1.17.59-2.68.17-4.53-.43-1.88-1.2-3.32-2.31-4.34-1.11-1.03-2.42-1.37-3.94-1.01-.52.12-.83.23-.92.32-.09.08-.14.16-.14.24,0,.07.13.84.41,2.3l.68,3.47c.18.85.41,1.9.7,3.15.21.94.4,1.58.56,1.92.16.34.39.57.69.71.3.13.74.13,1.32,0Z"/><path class="cls-13" d="M98.42,36.36c-.28.05-1.44.21-3.46.49l-2.1.34-1.24.18c-.29.05-.48.05-.56.02-.07-.02-.12-.1-.14-.23-.03-.2.09-.32.36-.36.52-.08.89-.24,1.1-.47.21-.23.31-.61.29-1.13-.02-.52-.12-1.56-.32-3.1-.19-1.54-.38-2.96-.58-4.25-.29-1.82-.55-2.92-.78-3.3-.22-.39-.66-.56-1.31-.49-.23.01-.36-.07-.39-.26-.03-.18.06-.29.26-.33.12-.02.54-.05,1.25-.08.79-.05,1.34-.1,1.64-.14l3.61-.66c1.21-.19,2.42-.13,3.62.2,1.2.32,2.22.99,3.06,2.01.84,1.02,1.38,2.24,1.6,3.67.17,1.06.13,2.08-.11,3.06-.24.97-.67,1.83-1.31,2.57-.63.74-1.3,1.27-1.98,1.58-.69.31-1.53.54-2.5.69M97.65,35.72c1.34-.21,2.32-.88,2.94-2.01.62-1.13.78-2.63.48-4.51-.3-1.9-.97-3.4-2.01-4.49-1.03-1.1-2.32-1.53-3.86-1.29-.53.08-.84.17-.94.26-.09.08-.15.15-.16.22-.01.07.07.85.25,2.32l.44,3.51c.12.86.28,1.92.48,3.19.15.95.29,1.61.43,1.96.13.35.35.6.64.75.29.15.73.18,1.32.09"/><path class="cls-10" d="M98.42,36.36c-.28.05-1.44.21-3.46.49l-2.1.34-1.24.18c-.29.05-.48.05-.56.02-.07-.02-.12-.1-.14-.23-.03-.2.09-.32.36-.36.52-.08.89-.24,1.1-.47.21-.23.31-.61.29-1.13-.02-.52-.12-1.56-.32-3.1-.19-1.54-.38-2.96-.58-4.25-.29-1.82-.55-2.92-.78-3.3-.22-.39-.66-.56-1.31-.49-.23.01-.36-.07-.39-.26-.03-.18.06-.29.26-.33.12-.02.54-.05,1.25-.08.79-.05,1.34-.1,1.64-.14l3.61-.66c1.21-.19,2.42-.13,3.62.2,1.2.32,2.22.99,3.06,2.01.84,1.02,1.38,2.24,1.6,3.67.17,1.06.13,2.08-.11,3.06-.24.97-.67,1.83-1.31,2.57-.63.74-1.3,1.27-1.98,1.58-.69.31-1.53.54-2.5.69ZM97.65,35.72c1.34-.21,2.32-.88,2.94-2.01.62-1.13.78-2.63.48-4.51-.3-1.9-.97-3.4-2.01-4.49-1.03-1.1-2.32-1.53-3.86-1.29-.53.08-.84.17-.94.26-.09.08-.15.15-.16.22-.01.07.07.85.25,2.32l.44,3.51c.12.86.28,1.92.48,3.19.15.95.29,1.61.43,1.96.13.35.35.6.64.75.29.15.73.18,1.32.09Z"/><path class="cls-13" d="M116.2,34.04c-1.61.08-4.12.3-7.51.65-1.18.12-2.14.26-2.87.42-.18.03-.31.05-.39.06-.25.03-.38-.07-.4-.27,0-.1.02-.16.08-.21.06-.05.21-.11.46-.18.39-.1.68-.26.88-.47.19-.21.31-.51.35-.9.05-.39,0-1.36-.15-2.9-.15-1.55-.34-3.39-.56-5.51-.09-.85-.21-1.46-.37-1.83-.16-.37-.35-.63-.59-.78-.23-.16-.54-.23-.94-.21-.28.01-.42-.08-.45-.29-.02-.21.13-.33.44-.36l3.21-.24c.49-.05,1.18-.15,2.06-.29.32-.05.54-.08.65-.09.27-.03.42.06.43.26.01.11-.02.19-.11.25-.08.05-.29.12-.63.21-.42.11-.72.26-.88.45-.15.19-.24.5-.26.94-.01.43.06,1.4.22,2.89l.66,6.29c.11.97.25,1.53.42,1.71.17.16.47.22.9.18,1.05-.11,1.83-.28,2.32-.51.49-.23.95-.61,1.36-1.12.42-.51.84-1.34,1.26-2.49.08-.23.19-.35.3-.37.17-.02.27.07.29.27.05.45-.02,1.92-.21,4.42"/><path class="cls-10" d="M116.2,34.04c-1.61.08-4.12.3-7.51.65-1.18.12-2.14.26-2.87.42-.18.03-.31.05-.39.06-.25.03-.38-.07-.4-.27,0-.1.02-.16.08-.21.06-.05.21-.11.46-.18.39-.1.68-.26.88-.47.19-.21.31-.51.35-.9.05-.39,0-1.36-.15-2.9-.15-1.55-.34-3.39-.56-5.51-.09-.85-.21-1.46-.37-1.83-.16-.37-.35-.63-.59-.78-.23-.16-.54-.23-.94-.21-.28.01-.42-.08-.45-.29-.02-.21.13-.33.44-.36l3.21-.24c.49-.05,1.18-.15,2.06-.29.32-.05.54-.08.65-.09.27-.03.42.06.43.26.01.11-.02.19-.11.25-.08.05-.29.12-.63.21-.42.11-.72.26-.88.45-.15.19-.24.5-.26.94-.01.43.06,1.4.22,2.89l.66,6.29c.11.97.25,1.53.42,1.71.17.16.47.22.9.18,1.05-.11,1.83-.28,2.32-.51.49-.23.95-.61,1.36-1.12.42-.51.84-1.34,1.26-2.49.08-.23.19-.35.3-.37.17-.02.27.07.29.27.05.45-.02,1.92-.21,4.42Z"/><path class="cls-13" d="M127.16,19.59c.26,1.07.52,2.14.78,3.21,0,.2-.08.31-.27.32-.1,0-.22-.09-.36-.27-.72-1.01-1.37-1.66-1.94-1.96-.56-.3-1.37-.43-2.41-.37-.58.03-1.14.11-1.67.24-.05,1.23-.04,2.58.04,4.04.01.25.04.67.08,1.26l.74-.03c.46-.02.85-.11,1.17-.26.33-.16.6-.46.81-.91.21-.46.33-.75.35-.87.05-.22.14-.34.28-.35.18,0,.28.07.28.24,0,.05,0,.1,0,.17-.06.43-.03,1.72.09,3.87.01.3.05.57.11.81.02.07.03.13.03.18,0,.19-.09.29-.29.31-.14,0-.26-.17-.36-.53-.16-.64-.48-1.11-.96-1.42-.48-.32-1.21-.45-2.19-.42.03,1.17.05,1.94.07,2.3.08,1.58.15,2.52.21,2.82.06.29.24.53.53.7.29.16.78.23,1.46.19,2.46-.13,4.03-1.05,4.72-2.77.1-.24.21-.36.34-.37.19,0,.28.07.29.23,0,.11,0,.25-.03.43l-.47,3.02-3.5.17c-.99.04-1.91.07-2.77.07-.85,0-1.52.02-2.01.04-.54.03-1.36.11-2.44.23-.14.02-.23.03-.3.04-.3.02-.46-.08-.47-.3,0-.2.11-.3.35-.31.63-.03,1.04-.23,1.23-.61.2-.38.27-1.13.21-2.25l-.22-5.36c-.1-1.83-.18-2.95-.24-3.37-.06-.42-.19-.7-.37-.83-.19-.14-.53-.24-1.03-.29-.21-.02-.32-.11-.33-.27-.01-.21.1-.32.34-.33l2.34-.04,7.81-.38Z"/><path class="cls-10" d="M127.16,19.59c.26,1.07.52,2.14.78,3.21,0,.2-.08.31-.27.32-.1,0-.22-.09-.36-.27-.72-1.01-1.37-1.66-1.94-1.96-.56-.3-1.37-.43-2.41-.37-.58.03-1.14.11-1.67.24-.05,1.23-.04,2.58.04,4.04.01.25.04.67.08,1.26l.74-.03c.46-.02.85-.11,1.17-.26.33-.16.6-.46.81-.91.21-.46.33-.75.35-.87.05-.22.14-.34.28-.35.18,0,.28.07.28.24,0,.05,0,.1,0,.17-.06.43-.03,1.72.09,3.87.01.3.05.57.11.81.02.07.03.13.03.18,0,.19-.09.29-.29.31-.14,0-.26-.17-.36-.53-.16-.64-.48-1.11-.96-1.42-.48-.32-1.21-.45-2.19-.42.03,1.17.05,1.94.07,2.3.08,1.58.15,2.52.21,2.82.06.29.24.53.53.7.29.16.78.23,1.46.19,2.46-.13,4.03-1.05,4.72-2.77.1-.24.21-.36.34-.37.19,0,.28.07.29.23,0,.11,0,.25-.03.43l-.47,3.02-3.5.17c-.99.04-1.91.07-2.77.07-.85,0-1.52.02-2.01.04-.54.03-1.36.11-2.44.23-.14.02-.23.03-.3.04-.3.02-.46-.08-.47-.3,0-.2.11-.3.35-.31.63-.03,1.04-.23,1.23-.61.2-.38.27-1.13.21-2.25l-.22-5.36c-.1-1.83-.18-2.95-.24-3.37-.06-.42-.19-.7-.37-.83-.19-.14-.53-.24-1.03-.29-.21-.02-.32-.11-.33-.27-.01-.21.1-.32.34-.33l2.34-.04,7.81-.38Z"/><path class="cls-13" d="M137.31,19.87c.08-.09.17-.23.25-.42.1-.22.21-.33.33-.33.17,0,.28.15.32.46l.34,2.85.04.34c0,.19-.09.28-.26.28-.13,0-.22-.03-.28-.09-.06-.07-.17-.28-.33-.65-.28-.62-.74-1.17-1.38-1.67-.64-.49-1.28-.74-1.93-.74s-1.15.2-1.57.58c-.42.38-.62.86-.62,1.45,0,.47.19.89.58,1.26.39.38,1.13.73,2.24,1.06,1.73.53,2.9,1.18,3.52,1.96.61.78.91,1.64.91,2.59s-.22,1.79-.67,2.45c-.44.66-.98,1.18-1.6,1.56-.62.37-1.41.56-2.38.56-.55,0-1.12-.08-1.7-.25-.59-.17-1.19-.43-1.82-.77-.13.16-.24.37-.33.62-.1.28-.23.42-.39.43-.16,0-.26-.19-.29-.56l-.28-3.78c-.01-.17-.02-.27-.02-.31,0-.2.1-.3.29-.3.14,0,.28.17.41.52.39,1.04.93,1.91,1.61,2.6.67.7,1.46,1.04,2.35,1.04.76,0,1.38-.24,1.84-.73.47-.49.71-1.04.71-1.66s-.22-1.14-.65-1.56c-.43-.42-1.21-.83-2.33-1.22-1.09-.38-1.91-.75-2.44-1.1-.53-.35-.96-.82-1.28-1.43-.32-.61-.48-1.23-.48-1.85,0-1.09.39-2.02,1.17-2.78.79-.76,1.86-1.14,3.21-1.15.73,0,1.7.24,2.92.71"/><path class="cls-10" d="M137.31,19.87c.08-.09.17-.23.25-.42.1-.22.21-.33.33-.33.17,0,.28.15.32.46l.34,2.85.04.34c0,.19-.09.28-.26.28-.13,0-.22-.03-.28-.09-.06-.07-.17-.28-.33-.65-.28-.62-.74-1.17-1.38-1.67-.64-.49-1.28-.74-1.93-.74s-1.15.2-1.57.58c-.42.38-.62.86-.62,1.45,0,.47.19.89.58,1.26.39.38,1.13.73,2.24,1.06,1.73.53,2.9,1.18,3.52,1.96.61.78.91,1.64.91,2.59s-.22,1.79-.67,2.45c-.44.66-.98,1.18-1.6,1.56-.62.37-1.41.56-2.38.56-.55,0-1.12-.08-1.7-.25-.59-.17-1.19-.43-1.82-.77-.13.16-.24.37-.33.62-.1.28-.23.42-.39.43-.16,0-.26-.19-.29-.56l-.28-3.78c-.01-.17-.02-.27-.02-.31,0-.2.1-.3.29-.3.14,0,.28.17.41.52.39,1.04.93,1.91,1.61,2.6.67.7,1.46,1.04,2.35,1.04.76,0,1.38-.24,1.84-.73.47-.49.71-1.04.71-1.66s-.22-1.14-.65-1.56c-.43-.42-1.21-.83-2.33-1.22-1.09-.38-1.91-.75-2.44-1.1-.53-.35-.96-.82-1.28-1.43-.32-.61-.48-1.23-.48-1.85,0-1.09.39-2.02,1.17-2.78.79-.76,1.86-1.14,3.21-1.15.73,0,1.7.24,2.92.71Z"/><path class="cls-13" d="M147.63,25.93c1.32.35,2.31.86,2.95,1.51.64.65.95,1.45.91,2.41-.03.8-.3,1.51-.81,2.13-.51.62-1.12,1.03-1.84,1.23-.71.19-1.74.26-3.09.21-.33,0-.84-.05-1.54-.12-.58-.06-1.04-.09-1.36-.1-.44-.02-1.03,0-1.78.03-.3.02-.52.02-.64.02-.25,0-.37-.11-.37-.32,0-.15.11-.24.31-.26.41-.04.7-.1.89-.19.19-.09.35-.25.46-.46.12-.22.19-.58.21-1.08l.25-4.86c.05-1.51.08-2.72.08-3.62,0-.91-.04-1.5-.12-1.76-.07-.27-.17-.45-.32-.56-.14-.11-.35-.18-.64-.21-.26-.02-.42-.06-.5-.11-.07-.05-.1-.13-.1-.24,0-.14.08-.23.23-.26.16-.03.59-.03,1.29,0,1.29.04,2.5.04,3.62-.02.67-.03,1.2-.04,1.6-.03,1.19.04,2.13.36,2.82.95.69.59,1.02,1.36.99,2.31-.06,1.64-1.23,2.78-3.51,3.41M144.97,25.68c2.22.08,3.37-.91,3.44-2.98.03-.91-.14-1.59-.52-2.05-.38-.46-.83-.7-1.35-.72-.37-.01-.83.07-1.38.24-.07.7-.13,1.43-.15,2.19-.02.65-.04,1.75-.04,3.31M144.95,26.48c-.1,1.46-.17,2.68-.21,3.66-.05,1.29-.02,2.03.07,2.22.09.19.39.3.91.31.93.03,1.63-.21,2.11-.73.49-.52.74-1.25.77-2.18.03-.94-.18-1.71-.64-2.33-.46-.62-1.17-.95-2.15-.98-.21,0-.5,0-.87.02"/><path class="cls-10" d="M147.63,25.93c1.32.35,2.31.86,2.95,1.51.64.65.95,1.45.91,2.41-.03.8-.3,1.51-.81,2.13-.51.62-1.12,1.03-1.84,1.23-.71.19-1.74.26-3.09.21-.33,0-.84-.05-1.54-.12-.58-.06-1.04-.09-1.36-.1-.44-.02-1.03,0-1.78.03-.3.02-.52.02-.64.02-.25,0-.37-.11-.37-.32,0-.15.11-.24.31-.26.41-.04.7-.1.89-.19.19-.09.35-.25.46-.46.12-.22.19-.58.21-1.08l.25-4.86c.05-1.51.08-2.72.08-3.62,0-.91-.04-1.5-.12-1.76-.07-.27-.17-.45-.32-.56-.14-.11-.35-.18-.64-.21-.26-.02-.42-.06-.5-.11-.07-.05-.1-.13-.1-.24,0-.14.08-.23.23-.26.16-.03.59-.03,1.29,0,1.29.04,2.5.04,3.62-.02.67-.03,1.2-.04,1.6-.03,1.19.04,2.13.36,2.82.95.69.59,1.02,1.36.99,2.31-.06,1.64-1.23,2.78-3.51,3.41ZM144.97,25.68c2.22.08,3.37-.91,3.44-2.98.03-.91-.14-1.59-.52-2.05-.38-.46-.83-.7-1.35-.72-.37-.01-.83.07-1.38.24-.07.7-.13,1.43-.15,2.19-.02.65-.04,1.75-.04,3.31ZM144.95,26.48c-.1,1.46-.17,2.68-.21,3.66-.05,1.29-.02,2.03.07,2.22.09.19.39.3.91.31.93.03,1.63-.21,2.11-.73.49-.52.74-1.25.77-2.18.03-.94-.18-1.71-.64-2.33-.46-.62-1.17-.95-2.15-.98-.21,0-.5,0-.87.02Z"/><path class="cls-13" d="M160.18,27.44c.85.22,1.54.58,2.05,1.08.52.49.85,1.39,1,2.7.14,1.23.34,2.05.6,2.47.26.41.66.66,1.21.76.3.05.44.17.42.36-.02.2-.28.28-.76.22l-3.7-.48c-.34-.46-.53-1.22-.56-2.3-.04-1.38-.12-2.36-.26-2.94-.14-.58-.38-1.01-.74-1.29-.36-.28-.79-.45-1.3-.5-.15-.02-.35-.03-.61-.03-.26,2.43-.41,3.93-.45,4.5-.04.56.02.98.19,1.25.17.26.52.43,1.05.52.29.05.42.17.4.36-.02.19-.15.27-.41.24l-2.95-.39c-.4-.04-.91-.08-1.54-.11-.58-.03-.94-.05-1.1-.06-.26-.03-.38-.14-.36-.34.02-.19.15-.28.38-.25.36.04.7-.02,1.02-.19.33-.16.57-.96.72-2.41l.19-1.93.4-3.72c.2-1.92.24-3.1.13-3.54-.11-.44-.51-.71-1.19-.8-.27-.04-.39-.15-.37-.34.02-.2.21-.28.57-.24,1.81.19,3.35.31,4.62.36.56.02,1.07.05,1.52.1,1.46.15,2.57.59,3.33,1.3.76.71,1.09,1.57.98,2.57-.07.68-.33,1.26-.78,1.76-.45.5-.98.85-1.6,1.05-.61.2-1.32.29-2.11.28M157.6,26.73c.17.02.29.04.38.05.56.06,1.13,0,1.72-.15.59-.17,1.03-.49,1.32-.95.29-.47.46-.99.52-1.55.09-.86-.07-1.56-.5-2.09-.42-.53-1.01-.84-1.76-.92-.32-.03-.68,0-1.09.07l-.58,5.54Z"/><path class="cls-10" d="M160.18,27.44c.85.22,1.54.58,2.05,1.08.52.49.85,1.39,1,2.7.14,1.23.34,2.05.6,2.47.26.41.66.66,1.21.76.3.05.44.17.42.36-.02.2-.28.28-.76.22l-3.7-.48c-.34-.46-.53-1.22-.56-2.3-.04-1.38-.12-2.36-.26-2.94-.14-.58-.38-1.01-.74-1.29-.36-.28-.79-.45-1.3-.5-.15-.02-.35-.03-.61-.03-.26,2.43-.41,3.93-.45,4.5-.04.56.02.98.19,1.25.17.26.52.43,1.05.52.29.05.42.17.4.36-.02.19-.15.27-.41.24l-2.95-.39c-.4-.04-.91-.08-1.54-.11-.58-.03-.94-.05-1.1-.06-.26-.03-.38-.14-.36-.34.02-.19.15-.28.38-.25.36.04.7-.02,1.02-.19.33-.16.57-.96.72-2.41l.19-1.93.4-3.72c.2-1.92.24-3.1.13-3.54-.11-.44-.51-.71-1.19-.8-.27-.04-.39-.15-.37-.34.02-.2.21-.28.57-.24,1.81.19,3.35.31,4.62.36.56.02,1.07.05,1.52.1,1.46.15,2.57.59,3.33,1.3.76.71,1.09,1.57.98,2.57-.07.68-.33,1.26-.78,1.76-.45.5-.98.85-1.6,1.05-.61.2-1.32.29-2.11.28ZM157.6,26.73c.17.02.29.04.38.05.56.06,1.13,0,1.72-.15.59-.17,1.03-.49,1.32-.95.29-.47.46-.99.52-1.55.09-.86-.07-1.56-.5-2.09-.42-.53-1.01-.84-1.76-.92-.32-.03-.68,0-1.09.07l-.58,5.54Z"/><path class="cls-13" d="M173.98,22.17c1.29.2,2.37.66,3.25,1.37.88.71,1.53,1.64,1.94,2.78.42,1.14.53,2.34.34,3.58-.3,1.92-1.24,3.52-2.81,4.8-1.57,1.27-3.34,1.75-5.31,1.44-1.79-.28-3.23-1.14-4.31-2.57-1.07-1.43-1.45-3.19-1.11-5.28.31-1.97,1.24-3.56,2.78-4.77,1.54-1.2,3.29-1.65,5.24-1.34M176.21,29.7c.33-2.08.25-3.69-.24-4.85-.49-1.15-1.24-1.81-2.25-1.97-1-.16-1.91.24-2.74,1.19-.82.95-1.4,2.45-1.73,4.52-.32,1.99-.25,3.58.2,4.78.46,1.2,1.22,1.88,2.28,2.05.94.15,1.83-.22,2.67-1.1.85-.88,1.45-2.43,1.8-4.63"/><path class="cls-10" d="M173.98,22.17c1.29.2,2.37.66,3.25,1.37.88.71,1.53,1.64,1.94,2.78.42,1.14.53,2.34.34,3.58-.3,1.92-1.24,3.52-2.81,4.8-1.57,1.27-3.34,1.75-5.31,1.44-1.79-.28-3.23-1.14-4.31-2.57-1.07-1.43-1.45-3.19-1.11-5.28.31-1.97,1.24-3.56,2.78-4.77,1.54-1.2,3.29-1.65,5.24-1.34ZM176.21,29.7c.33-2.08.25-3.69-.24-4.85-.49-1.15-1.24-1.81-2.25-1.97-1-.16-1.91.24-2.74,1.19-.82.95-1.4,2.45-1.73,4.52-.32,1.99-.25,3.58.2,4.78.46,1.2,1.22,1.88,2.28,2.05.94.15,1.83-.22,2.67-1.1.85-.88,1.45-2.43,1.8-4.63Z"/><path class="cls-13" d="M181.32,23.41l3.03.76c.29.06.63.12,1.01.16.6.08,1.08.15,1.42.23.32.07.46.2.42.39-.04.18-.19.25-.44.21-.46-.07-.84.03-1.14.31-.29.27-.57.9-.85,1.9-.28.98-.54,2.08-.8,3.28-.41,1.93-.6,3.25-.57,3.95.03.69.28,1.3.77,1.81.48.51,1.18.87,2.11,1.07.94.2,1.7.14,2.27-.19.57-.33,1.05-.94,1.42-1.83.38-.89.84-2.58,1.37-5.09.32-1.48.42-2.53.33-3.13-.1-.61-.4-1-.9-1.16-.36-.12-.53-.28-.48-.48.04-.2.21-.26.52-.2.14.03.38.1.72.22.35.11.71.21,1.1.29.35.07.75.14,1.2.19.34.04.56.08.69.1.32.07.45.2.41.4-.03.16-.17.22-.4.2-.32-.03-.64.07-.96.3-.31.22-.57.65-.79,1.29-.21.63-.6,2.29-1.17,4.97-.38,1.77-.81,3.01-1.31,3.74-.49.72-1.2,1.21-2.12,1.48-.91.26-1.97.26-3.19,0-.94-.2-1.74-.46-2.4-.79-.66-.33-1.15-.73-1.48-1.19-.32-.46-.53-.95-.61-1.48-.07-.53,0-1.26.2-2.22l1.19-5.42c.16-.76.25-1.39.27-1.9.03-.5-.03-.85-.16-1.05-.14-.2-.37-.35-.71-.47-.22-.07-.35-.14-.4-.19-.04-.06-.05-.14-.03-.24.04-.21.2-.28.47-.22"/><path class="cls-10" d="M181.32,23.41l3.03.76c.29.06.63.12,1.01.16.6.08,1.08.15,1.42.23.32.07.46.2.42.39-.04.18-.19.25-.44.21-.46-.07-.84.03-1.14.31-.29.27-.57.9-.85,1.9-.28.98-.54,2.08-.8,3.28-.41,1.93-.6,3.25-.57,3.95.03.69.28,1.3.77,1.81.48.51,1.18.87,2.11,1.07.94.2,1.7.14,2.27-.19.57-.33,1.05-.94,1.42-1.83.38-.89.84-2.58,1.37-5.09.32-1.48.42-2.53.33-3.13-.1-.61-.4-1-.9-1.16-.36-.12-.53-.28-.48-.48.04-.2.21-.26.52-.2.14.03.38.1.72.22.35.11.71.21,1.1.29.35.07.75.14,1.2.19.34.04.56.08.69.1.32.07.45.2.41.4-.03.16-.17.22-.4.2-.32-.03-.64.07-.96.3-.31.22-.57.65-.79,1.29-.21.63-.6,2.29-1.17,4.97-.38,1.77-.81,3.01-1.31,3.74-.49.72-1.2,1.21-2.12,1.48-.91.26-1.97.26-3.19,0-.94-.2-1.74-.46-2.4-.79-.66-.33-1.15-.73-1.48-1.19-.32-.46-.53-.95-.61-1.48-.07-.53,0-1.26.2-2.22l1.19-5.42c.16-.76.25-1.39.27-1.9.03-.5-.03-.85-.16-1.05-.14-.2-.37-.35-.71-.47-.22-.07-.35-.14-.4-.19-.04-.06-.05-.14-.03-.24.04-.21.2-.28.47-.22Z"/><path class="cls-13" d="M207.59,31.2l-.56,2.98c-.03.14-.05.25-.07.33-.06.21-.17.29-.34.24-.15-.04-.25-.2-.29-.46-.18-1.21-.56-2.27-1.17-3.17-.6-.9-1.41-1.5-2.44-1.79-1.33-.38-2.54-.08-3.63.9-1.09.98-1.87,2.29-2.33,3.91-.52,1.82-.54,3.42-.04,4.82.5,1.39,1.31,2.25,2.44,2.57.48.14.99.16,1.55.07.57-.1.96-.26,1.17-.49.22-.23.41-.6.55-1.11.32-1.12.48-1.83.47-2.13,0-.3-.08-.54-.24-.7-.16-.16-.53-.36-1.1-.61-.22-.09-.31-.22-.26-.39.06-.19.19-.26.41-.2l1.4.4,4.32,1.12c.19.05.26.17.21.34-.03.1-.09.16-.17.18-.08.01-.36,0-.84-.02-.36-.02-.61.04-.75.18-.14.13-.5,1.12-1.08,2.96-.13.41-.21.64-.24.69-.03.04-.46.16-1.3.36-.83.19-1.67.28-2.49.26-.82-.03-1.61-.15-2.36-.36-1.28-.37-2.35-.97-3.2-1.79-.85-.83-1.44-1.82-1.78-2.98-.33-1.17-.3-2.43.09-3.79.55-1.92,1.64-3.41,3.27-4.45,1.64-1.05,3.53-1.26,5.67-.65.76.22,1.41.51,1.96.89.56.37,1.18.85,1.85,1.44.13.12.26.19.37.22.12.04.25-.03.37-.21.16-.23.31-.32.46-.28.17.05.21.29.13.72"/><path class="cls-10" d="M207.59,31.2l-.56,2.98c-.03.14-.05.25-.07.33-.06.21-.17.29-.34.24-.15-.04-.25-.2-.29-.46-.18-1.21-.56-2.27-1.17-3.17-.6-.9-1.41-1.5-2.44-1.79-1.33-.38-2.54-.08-3.63.9-1.09.98-1.87,2.29-2.33,3.91-.52,1.82-.54,3.42-.04,4.82.5,1.39,1.31,2.25,2.44,2.57.48.14.99.16,1.55.07.57-.1.96-.26,1.17-.49.22-.23.41-.6.55-1.11.32-1.12.48-1.83.47-2.13,0-.3-.08-.54-.24-.7-.16-.16-.53-.36-1.1-.61-.22-.09-.31-.22-.26-.39.06-.19.19-.26.41-.2l1.4.4,4.32,1.12c.19.05.26.17.21.34-.03.1-.09.16-.17.18-.08.01-.36,0-.84-.02-.36-.02-.61.04-.75.18-.14.13-.5,1.12-1.08,2.96-.13.41-.21.64-.24.69-.03.04-.46.16-1.3.36-.83.19-1.67.28-2.49.26-.82-.03-1.61-.15-2.36-.36-1.28-.37-2.35-.97-3.2-1.79-.85-.83-1.44-1.82-1.78-2.98-.33-1.17-.3-2.43.09-3.79.55-1.92,1.64-3.41,3.27-4.45,1.64-1.05,3.53-1.26,5.67-.65.76.22,1.41.51,1.96.89.56.37,1.18.85,1.85,1.44.13.12.26.19.37.22.12.04.25-.03.37-.21.16-.23.31-.32.46-.28.17.05.21.29.13.72Z"/><path class="cls-13" d="M217.47,40.15l1.17-2.95c.3-.83.44-1.46.41-1.87-.03-.41-.29-.72-.79-.92-.41-.17-.57-.35-.5-.54.07-.2.23-.26.48-.17.28.1.7.27,1.25.51.72.31,1.12.48,1.21.51,1.03.37,1.95.68,2.74.91.15.04.26.07.32.09.23.08.31.22.25.4-.07.2-.24.26-.51.17-.43-.15-.75-.2-.98-.14-.22.05-.41.19-.57.41-.15.22-.52,1.06-1.11,2.52-.58,1.46-.97,2.47-1.17,3.02-.84,2.3-1.34,3.71-1.5,4.23-.16.53-.18.92-.07,1.19.12.28.41.49.87.66.28.1.39.25.32.45-.06.17-.2.21-.42.14-.07-.03-.23-.09-.46-.2l-2.49-1.01c-.15-.06-.45-.15-.89-.28-.85-.24-1.39-.41-1.63-.5-.22-.08-.29-.21-.22-.4.06-.17.18-.22.36-.15.44.16.79.19,1.05.1.26-.09.54-.41.84-.97.31-.55.78-1.71,1.42-3.46.07-.18.16-.46.28-.83-1.05-.42-1.98-.78-2.8-1.07-.94-.34-1.7-.58-2.27-.71-.55,1.28-1.02,2.46-1.4,3.52-.28.76-.39,1.31-.35,1.66.05.35.32.63.8.83.23.1.32.24.25.41-.07.18-.22.23-.47.14-.09-.03-.22-.09-.39-.18-.69-.33-1.44-.64-2.23-.93-.37-.14-.87-.29-1.5-.48-.45-.13-.74-.21-.87-.26-.31-.12-.44-.27-.37-.47.06-.16.22-.21.48-.15.49.12.84.13,1.06.02.23-.1.47-.36.71-.78.25-.43.77-1.7,1.56-3.83.79-2.13,1.23-3.29,1.3-3.48.35-.97.57-1.67.66-2.13.1-.46.1-.79,0-1-.1-.21-.29-.38-.6-.54-.23-.13-.37-.22-.42-.27-.05-.06-.05-.15,0-.27.07-.2.21-.26.42-.18.26.09.69.28,1.29.56.34.15.72.31,1.16.47l2.6.85c.3.11.41.26.34.47-.07.2-.23.25-.47.16-.4-.14-.69-.2-.88-.14-.19.05-.38.21-.56.49-.18.28-.44.86-.76,1.74l-.99,2.79c.74.36,1.56.71,2.45,1.04.89.32,1.75.59,2.6.8"/><path class="cls-10" d="M217.47,40.15l1.17-2.95c.3-.83.44-1.46.41-1.87-.03-.41-.29-.72-.79-.92-.41-.17-.57-.35-.5-.54.07-.2.23-.26.48-.17.28.1.7.27,1.25.51.72.31,1.12.48,1.21.51,1.03.37,1.95.68,2.74.91.15.04.26.07.32.09.23.08.31.22.25.4-.07.2-.24.26-.51.17-.43-.15-.75-.2-.98-.14-.22.05-.41.19-.57.41-.15.22-.52,1.06-1.11,2.52-.58,1.46-.97,2.47-1.17,3.02-.84,2.3-1.34,3.71-1.5,4.23-.16.53-.18.92-.07,1.19.12.28.41.49.87.66.28.1.39.25.32.45-.06.17-.2.21-.42.14-.07-.03-.23-.09-.46-.2l-2.49-1.01c-.15-.06-.45-.15-.89-.28-.85-.24-1.39-.41-1.63-.5-.22-.08-.29-.21-.22-.4.06-.17.18-.22.36-.15.44.16.79.19,1.05.1.26-.09.54-.41.84-.97.31-.55.78-1.71,1.42-3.46.07-.18.16-.46.28-.83-1.05-.42-1.98-.78-2.8-1.07-.94-.34-1.7-.58-2.27-.71-.55,1.28-1.02,2.46-1.4,3.52-.28.76-.39,1.31-.35,1.66.05.35.32.63.8.83.23.1.32.24.25.41-.07.18-.22.23-.47.14-.09-.03-.22-.09-.39-.18-.69-.33-1.44-.64-2.23-.93-.37-.14-.87-.29-1.5-.48-.45-.13-.74-.21-.87-.26-.31-.12-.44-.27-.37-.47.06-.16.22-.21.48-.15.49.12.84.13,1.06.02.23-.1.47-.36.71-.78.25-.43.77-1.7,1.56-3.83.79-2.13,1.23-3.29,1.3-3.48.35-.97.57-1.67.66-2.13.1-.46.1-.79,0-1-.1-.21-.29-.38-.6-.54-.23-.13-.37-.22-.42-.27-.05-.06-.05-.15,0-.27.07-.2.21-.26.42-.18.26.09.69.28,1.29.56.34.15.72.31,1.16.47l2.6.85c.3.11.41.26.34.47-.07.2-.23.25-.47.16-.4-.14-.69-.2-.88-.14-.19.05-.38.21-.56.49-.18.28-.44.86-.76,1.74l-.99,2.79c.74.36,1.56.71,2.45,1.04.89.32,1.75.59,2.6.8Z"/><path class="cls-13" d="M118.39,263.07v8.66c0,1.2.1,1.99.3,2.36.21.37.58.61,1.11.73.39.08.63.16.73.23.1.07.15.16.15.29,0,.21-.14.28-.41.23-.06-.01-.13-.03-.21-.05-1.29-.33-2.23-.56-2.84-.68-.63-.13-1.56-.27-2.76-.45-.43-.07-.72-.12-.87-.15-.32-.06-.48-.2-.48-.4,0-.13.05-.21.15-.22.11-.02.36-.01.77.04.5.06.86.02,1.08-.11.22-.14.36-.31.41-.5.05-.2.09-.67.13-1.43v-5.15c0-.88-.06-1.5-.16-1.86-.11-.36-.28-.64-.52-.82-.24-.19-.62-.37-1.15-.52-.42-.13-.68-.22-.77-.28-.09-.06-.14-.14-.14-.27,0-.14.05-.21.15-.23.11-.02.33,0,.67.04,1.51.19,2.85.13,4-.19.14-.03.26-.04.35-.02.21.04.32.29.32.75"/><path class="cls-10" d="M118.39,263.07v8.66c0,1.2.1,1.99.3,2.36.21.37.58.61,1.11.73.39.08.63.16.73.23.1.07.15.16.15.29,0,.21-.14.28-.41.23-.06-.01-.13-.03-.21-.05-1.29-.33-2.23-.56-2.84-.68-.63-.13-1.56-.27-2.76-.45-.43-.07-.72-.12-.87-.15-.32-.06-.48-.2-.48-.4,0-.13.05-.21.15-.22.11-.02.36-.01.77.04.5.06.86.02,1.08-.11.22-.14.36-.31.41-.5.05-.2.09-.67.13-1.43v-5.15c0-.88-.06-1.5-.16-1.86-.11-.36-.28-.64-.52-.82-.24-.19-.62-.37-1.15-.52-.42-.13-.68-.22-.77-.28-.09-.06-.14-.14-.14-.27,0-.14.05-.21.15-.23.11-.02.33,0,.67.04,1.51.19,2.85.13,4-.19.14-.03.26-.04.35-.02.21.04.32.29.32.75Z"/><path class="cls-13" d="M131.96,270.06c.9.42,1.58.92,2.03,1.49.45.57.68,1.22.68,1.94,0,1.05-.51,1.91-1.52,2.59-1,.67-2.24.94-3.71.82-1.38-.11-2.52-.5-3.41-1.16-.89-.67-1.33-1.38-1.33-2.13,0-.52.23-1.04.68-1.54.46-.51,1.17-.91,2.13-1.22-.8-.41-1.4-.88-1.81-1.4-.4-.52-.59-1.09-.59-1.72,0-1.07.46-1.89,1.38-2.47.93-.58,2.08-.81,3.44-.7,1.3.11,2.34.44,3.12,1,.77.56,1.16,1.23,1.16,2,0,.49-.17.91-.51,1.29-.33.37-.92.77-1.76,1.22M131.05,269.6c.4-.21.74-.51,1.01-.88.27-.37.4-.77.4-1.21,0-.48-.22-.97-.67-1.46-.43-.49-1.08-.77-1.93-.84-.78-.06-1.41.09-1.88.46-.46.36-.69.78-.69,1.24,0,.3.14.64.44,1.02.29.36,1.06.79,2.3,1.27.53.2.87.34,1.02.4M128.37,271.27c-.53.34-.93.71-1.2,1.12-.27.41-.4.86-.4,1.35,0,.65.26,1.21.79,1.66.52.46,1.19.72,2.01.78.91.07,1.61-.09,2.09-.49.48-.41.71-.9.72-1.48,0-.41-.19-.82-.57-1.21-.37-.39-1.51-.97-3.43-1.74"/><path class="cls-10" d="M131.96,270.06c.9.42,1.58.92,2.03,1.49.45.57.68,1.22.68,1.94,0,1.05-.51,1.91-1.52,2.59-1,.67-2.24.94-3.71.82-1.38-.11-2.52-.5-3.41-1.16-.89-.67-1.33-1.38-1.33-2.13,0-.52.23-1.04.68-1.54.46-.51,1.17-.91,2.13-1.22-.8-.41-1.4-.88-1.81-1.4-.4-.52-.59-1.09-.59-1.72,0-1.07.46-1.89,1.38-2.47.93-.58,2.08-.81,3.44-.7,1.3.11,2.34.44,3.12,1,.77.56,1.16,1.23,1.16,2,0,.49-.17.91-.51,1.29-.33.37-.92.77-1.76,1.22ZM131.05,269.6c.4-.21.74-.51,1.01-.88.27-.37.4-.77.4-1.21,0-.48-.22-.97-.67-1.46-.43-.49-1.08-.77-1.93-.84-.78-.06-1.41.09-1.88.46-.46.36-.69.78-.69,1.24,0,.3.14.64.44,1.02.29.36,1.06.79,2.3,1.27.53.2.87.34,1.02.4ZM128.37,271.27c-.53.34-.93.71-1.2,1.12-.27.41-.4.86-.4,1.35,0,.65.26,1.21.79,1.66.52.46,1.19.72,2.01.78.91.07,1.61-.09,2.09-.49.48-.41.71-.9.72-1.48,0-.41-.19-.82-.57-1.21-.37-.39-1.51-.97-3.43-1.74Z"/><path class="cls-13" d="M146.52,266.12l-4.3.62c-1.13.16-1.86.32-2.18.49-.32.16-.67.51-1.05,1.05-.3.42-.51.63-.63.65-.23.03-.35-.06-.35-.28s.14-.93.42-2.11c.28-1.18.5-1.89.65-2.14.15-.25.3-.38.44-.4.16-.02.29.06.42.26.08.13.22.21.42.26.2.05.8,0,1.79-.12.99-.14,1.54-.21,1.65-.23l4.87-.7c-.11.34-.28.74-.54,1.21-1.06,1.95-1.77,3.53-2.12,4.76-.35,1.23-.57,2.63-.65,4.21-.05,1.04-.21,1.77-.47,2.19-.25.43-.7.69-1.35.78-.47.07-.86,0-1.18-.22-.31-.22-.47-.53-.47-.94,0-.39.13-.93.38-1.62.26-.69.81-1.79,1.67-3.28l2.57-4.43Z"/><path class="cls-10" d="M146.52,266.12l-4.3.62c-1.13.16-1.86.32-2.18.49-.32.16-.67.51-1.05,1.05-.3.42-.51.63-.63.65-.23.03-.35-.06-.35-.28s.14-.93.42-2.11c.28-1.18.5-1.89.65-2.14.15-.25.3-.38.44-.4.16-.02.29.06.42.26.08.13.22.21.42.26.2.05.8,0,1.79-.12.99-.14,1.54-.21,1.65-.23l4.87-.7c-.11.34-.28.74-.54,1.21-1.06,1.95-1.77,3.53-2.12,4.76-.35,1.23-.57,2.63-.65,4.21-.05,1.04-.21,1.77-.47,2.19-.25.43-.7.69-1.35.78-.47.07-.86,0-1.18-.22-.31-.22-.47-.53-.47-.94,0-.39.13-.93.38-1.62.26-.69.81-1.79,1.67-3.28l2.57-4.43Z"/><path class="cls-13" d="M154.42,267.4c.46-.35.95-.64,1.46-.88.5-.23,1.03-.41,1.57-.52,1.27-.26,2.36-.14,3.29.38.93.51,1.39,1.37,1.39,2.57,0,1.25-.51,2.37-1.54,3.38-1.03,1.01-2.33,1.67-3.91,2-1.82.38-3.23.16-4.22-.65-.98-.81-1.48-2.04-1.48-3.68,0-2.02.68-3.87,2.03-5.55,1.37-1.69,3.19-2.77,5.47-3.25,1.25-.26,2.21-.25,2.87.03.66.28.99.73.99,1.34,0,.39-.17.77-.51,1.14-.33.35-.71.58-1.15.67-.46.1-.84.04-1.14-.17-.29-.22-.43-.57-.43-1.04v-.65c.01-.47-.3-.64-.93-.51-.89.19-1.69.74-2.4,1.66-.7.91-1.16,2.15-1.37,3.72M158.79,269.86c0-1.1-.18-1.88-.55-2.35-.36-.47-.91-.62-1.64-.47-.77.16-1.37.56-1.8,1.21-.42.65-.63,1.45-.63,2.4,0,1.06.22,1.87.66,2.4.45.53,1.02.72,1.73.57.69-.14,1.23-.55,1.63-1.23.41-.69.61-1.53.61-2.53"/><path class="cls-10" d="M154.42,267.4c.46-.35.95-.64,1.46-.88.5-.23,1.03-.41,1.57-.52,1.27-.26,2.36-.14,3.29.38.93.51,1.39,1.37,1.39,2.57,0,1.25-.51,2.37-1.54,3.38-1.03,1.01-2.33,1.67-3.91,2-1.82.38-3.23.16-4.22-.65-.98-.81-1.48-2.04-1.48-3.68,0-2.02.68-3.87,2.03-5.55,1.37-1.69,3.19-2.77,5.47-3.25,1.25-.26,2.21-.25,2.87.03.66.28.99.73.99,1.34,0,.39-.17.77-.51,1.14-.33.35-.71.58-1.15.67-.46.1-.84.04-1.14-.17-.29-.22-.43-.57-.43-1.04v-.65c.01-.47-.3-.64-.93-.51-.89.19-1.69.74-2.4,1.66-.7.91-1.16,2.15-1.37,3.72ZM158.79,269.86c0-1.1-.18-1.88-.55-2.35-.36-.47-.91-.62-1.64-.47-.77.16-1.37.56-1.8,1.21-.42.65-.63,1.45-.63,2.4,0,1.06.22,1.87.66,2.4.45.53,1.02.72,1.73.57.69-.14,1.23-.55,1.63-1.23.41-.69.61-1.53.61-2.53Z"/><path class="cls-13" d="M29.79,245.56l1.28,2.08.06.1c.06.14.03.23-.07.28-.07.03-.16,0-.27-.08-.62-.44-1.23-.72-1.84-.86-.61-.14-1.45.01-2.51.44-.73.3-1.11.54-1.14.74-.03.19.42,1.42,1.33,3.69.55-.22.95-.43,1.21-.62.26-.2.43-.42.51-.68.09-.26.09-.67.01-1.24-.02-.15,0-.24.09-.27.15-.06.26,0,.34.19l.9,2.38c.31.82.47,1.27.47,1.35,0,.07-.05.12-.13.15-.12.05-.24-.02-.34-.21-.24-.43-.54-.73-.91-.89-.36-.16-1.02-.06-1.95.33l1.1,2.74c.22.54.41.9.57,1.1.17.2.35.3.54.33.18.02.44-.03.77-.16.24-.09.4-.13.47-.13.07,0,.13.05.17.14.06.16-.02.28-.24.37-.2.08-.59.22-1.18.42-.49.16-.85.29-1.1.39l-2.3,1.02c-.24.1-.38.07-.44-.07-.05-.13.06-.26.35-.39.49-.22.7-.57.63-1.04-.07-.47-.65-2.04-1.74-4.73-.7-1.74-1.19-2.76-1.45-3.04-.26-.28-.63-.33-1.12-.13l-.2.09c-.18.07-.3.03-.35-.11-.06-.14.06-.27.35-.38l8.13-3.28Z"/><path class="cls-10" d="M29.79,245.56l1.28,2.08.06.1c.06.14.03.23-.07.28-.07.03-.16,0-.27-.08-.62-.44-1.23-.72-1.84-.86-.61-.14-1.45.01-2.51.44-.73.3-1.11.54-1.14.74-.03.19.42,1.42,1.33,3.69.55-.22.95-.43,1.21-.62.26-.2.43-.42.51-.68.09-.26.09-.67.01-1.24-.02-.15,0-.24.09-.27.15-.06.26,0,.34.19l.9,2.38c.31.82.47,1.27.47,1.35,0,.07-.05.12-.13.15-.12.05-.24-.02-.34-.21-.24-.43-.54-.73-.91-.89-.36-.16-1.02-.06-1.95.33l1.1,2.74c.22.54.41.9.57,1.1.17.2.35.3.54.33.18.02.44-.03.77-.16.24-.09.4-.13.47-.13.07,0,.13.05.17.14.06.16-.02.28-.24.37-.2.08-.59.22-1.18.42-.49.16-.85.29-1.1.39l-2.3,1.02c-.24.1-.38.07-.44-.07-.05-.13.06-.26.35-.39.49-.22.7-.57.63-1.04-.07-.47-.65-2.04-1.74-4.73-.7-1.74-1.19-2.76-1.45-3.04-.26-.28-.63-.33-1.12-.13l-.2.09c-.18.07-.3.03-.35-.11-.06-.14.06-.27.35-.38l8.13-3.28Z"/><path class="cls-13" d="M34.81,242.46c.94-.52,1.86-.79,2.77-.8.91-.01,1.78.22,2.6.7.82.47,1.46,1.13,1.93,1.97.72,1.3.87,2.72.46,4.27-.42,1.54-1.34,2.71-2.78,3.51-1.31.72-2.65.93-4.04.61-1.39-.32-2.47-1.19-3.26-2.6-.74-1.34-.9-2.75-.47-4.24.43-1.49,1.36-2.63,2.78-3.42M39.86,245.85c-.78-1.41-1.61-2.33-2.48-2.78-.87-.44-1.67-.46-2.41-.06-.73.4-1.14,1.1-1.22,2.08-.08.97.26,2.16,1.04,3.57.75,1.35,1.55,2.27,2.42,2.76.87.49,1.69.52,2.46.09.68-.38,1.09-1.04,1.22-1.99.13-.96-.21-2.18-1.04-3.67"/><path class="cls-10" d="M34.81,242.46c.94-.52,1.86-.79,2.77-.8.91-.01,1.78.22,2.6.7.82.47,1.46,1.13,1.93,1.97.72,1.3.87,2.72.46,4.27-.42,1.54-1.34,2.71-2.78,3.51-1.31.72-2.65.93-4.04.61-1.39-.32-2.47-1.19-3.26-2.6-.74-1.34-.9-2.75-.47-4.24.43-1.49,1.36-2.63,2.78-3.42ZM39.86,245.85c-.78-1.41-1.61-2.33-2.48-2.78-.87-.44-1.67-.46-2.41-.06-.73.4-1.14,1.1-1.22,2.08-.08.97.26,2.16,1.04,3.57.75,1.35,1.55,2.27,2.42,2.76.87.49,1.69.52,2.46.09.68-.38,1.09-1.04,1.22-1.99.13-.96-.21-2.18-1.04-3.67Z"/><path class="cls-13" d="M44.89,236.54c.91-.57,1.82-.88,2.72-.94.91-.06,1.79.13,2.64.56.84.43,1.52,1.05,2.03,1.87.79,1.26,1.02,2.67.69,4.24-.33,1.56-1.2,2.78-2.59,3.65-1.27.79-2.6,1.06-4.01.82-1.4-.25-2.53-1.06-3.39-2.43-.81-1.3-1.04-2.7-.69-4.21.35-1.51,1.22-2.7,2.6-3.56M50.12,239.66c-.85-1.36-1.73-2.25-2.62-2.64-.9-.4-1.7-.38-2.41.07-.71.44-1.08,1.15-1.11,2.14-.03.98.38,2.15,1.23,3.51.82,1.31,1.67,2.18,2.56,2.63.9.44,1.72.43,2.47-.04.66-.41,1.03-1.1,1.11-2.05.08-.96-.33-2.16-1.23-3.61"/><path class="cls-10" d="M44.89,236.54c.91-.57,1.82-.88,2.72-.94.91-.06,1.79.13,2.64.56.84.43,1.52,1.05,2.03,1.87.79,1.26,1.02,2.67.69,4.24-.33,1.56-1.2,2.78-2.59,3.65-1.27.79-2.6,1.06-4.01.82-1.4-.25-2.53-1.06-3.39-2.43-.81-1.3-1.04-2.7-.69-4.21.35-1.51,1.22-2.7,2.6-3.56ZM50.12,239.66c-.85-1.36-1.73-2.25-2.62-2.64-.9-.4-1.7-.38-2.41.07-.71.44-1.08,1.15-1.11,2.14-.03.98.38,2.15,1.23,3.51.82,1.31,1.67,2.18,2.56,2.63.9.44,1.72.43,2.47-.04.66-.41,1.03-1.1,1.11-2.05.08-.96-.33-2.16-1.23-3.61Z"/><path class="cls-13" d="M50.12,233.19c2.36-1.42,4.1-2.48,5.21-3.19.85-.54,1.76-1.16,2.75-1.85.35-.25.64-.45.88-.6.09-.06.24-.15.45-.28.15.16.43.52.84,1.06l.78,1c.11.17.09.31-.06.4-.11.07-.29.03-.53-.12-.4-.25-.82-.42-1.25-.51-.43-.09-.85-.07-1.26.07-.4.14-1.01.47-1.82.98.36.73.88,1.61,1.53,2.64.67,1.05,1.34,2.05,2,3.01.66.95,1.09,1.51,1.27,1.67.19.16.38.25.58.25.2,0,.56-.14,1.1-.43.18-.1.31-.09.38.02.08.13.04.24-.11.33l-.19.11-1.41.85c-1.08.69-1.74,1.11-1.96,1.27l-.83.57c-.07.04-.21.13-.42.25-.12.04-.2.02-.26-.07-.08-.13-.04-.25.13-.36.4-.25.65-.53.74-.82.1-.29.05-.63-.13-1.02-.18-.39-.66-1.19-1.42-2.4-1.21-1.9-2.26-3.41-3.13-4.53-.74.47-1.25.84-1.54,1.12-.29.27-.5.63-.63,1.1-.13.46-.16.97-.08,1.52.03.22,0,.36-.1.42-.15.1-.27.08-.35-.06-.03-.04-.19-.35-.48-.93-.29-.59-.52-1.09-.68-1.49"/><path class="cls-10" d="M50.12,233.19c2.36-1.42,4.1-2.48,5.21-3.19.85-.54,1.76-1.16,2.75-1.85.35-.25.64-.45.88-.6.09-.06.24-.15.45-.28.15.16.43.52.84,1.06l.78,1c.11.17.09.31-.06.4-.11.07-.29.03-.53-.12-.4-.25-.82-.42-1.25-.51-.43-.09-.85-.07-1.26.07-.4.14-1.01.47-1.82.98.36.73.88,1.61,1.53,2.64.67,1.05,1.34,2.05,2,3.01.66.95,1.09,1.51,1.27,1.67.19.16.38.25.58.25.2,0,.56-.14,1.1-.43.18-.1.31-.09.38.02.08.13.04.24-.11.33l-.19.11-1.41.85c-1.08.69-1.74,1.11-1.96,1.27l-.83.57c-.07.04-.21.13-.42.25-.12.04-.2.02-.26-.07-.08-.13-.04-.25.13-.36.4-.25.65-.53.74-.82.1-.29.05-.63-.13-1.02-.18-.39-.66-1.19-1.42-2.4-1.21-1.9-2.26-3.41-3.13-4.53-.74.47-1.25.84-1.54,1.12-.29.27-.5.63-.63,1.1-.13.46-.16.97-.08,1.52.03.22,0,.36-.1.42-.15.1-.27.08-.35-.06-.03-.04-.19-.35-.48-.93-.29-.59-.52-1.09-.68-1.49Z"/><path class="cls-13" d="M68.22,227.91c1.07-.33,1.97-.42,2.68-.26.71.15,1.24.55,1.6,1.19.3.53.39,1.11.27,1.74-.11.62-.38,1.15-.81,1.58-.43.42-1.12.91-2.09,1.45-.24.13-.62.32-1.14.58-.43.21-.77.38-1,.51-.32.17-.73.43-1.24.77-.21.14-.35.23-.44.28-.18.1-.31.08-.38-.05-.06-.1-.02-.2.12-.3.27-.2.46-.36.55-.5.1-.14.15-.3.14-.5,0-.2-.09-.46-.28-.79l-1.75-3.28c-.56-1.01-1.02-1.81-1.38-2.41-.36-.6-.62-.96-.78-1.11-.15-.14-.3-.22-.45-.23-.14-.01-.32.03-.54.13-.19.09-.32.14-.4.14-.07,0-.12-.04-.16-.12-.06-.1-.04-.19.06-.27.1-.08.4-.27.91-.55.93-.51,1.78-1.03,2.55-1.54.46-.3.83-.53,1.12-.69.85-.47,1.64-.66,2.36-.56.72.09,1.25.46,1.61,1.1.61,1.1.23,2.33-1.13,3.71M66.25,228.86c1.6-.89,2.01-2.02,1.25-3.4-.34-.61-.73-.98-1.18-1.12-.45-.14-.86-.11-1.24.1-.27.15-.56.4-.87.74.22.49.48.99.76,1.5.24.43.67,1.16,1.28,2.18M66.55,229.4c.51,1,.94,1.83,1.3,2.48.48.86.79,1.34.93,1.43.14.09.4.03.77-.18.67-.37,1.07-.83,1.2-1.37.14-.54.03-1.13-.32-1.75-.35-.63-.8-1.05-1.37-1.25-.57-.21-1.2-.13-1.9.26-.15.08-.36.21-.61.38"/><path class="cls-10" d="M68.22,227.91c1.07-.33,1.97-.42,2.68-.26.71.15,1.24.55,1.6,1.19.3.53.39,1.11.27,1.74-.11.62-.38,1.15-.81,1.58-.43.42-1.12.91-2.09,1.45-.24.13-.62.32-1.14.58-.43.21-.77.38-1,.51-.32.17-.73.43-1.24.77-.21.14-.35.23-.44.28-.18.1-.31.08-.38-.05-.06-.1-.02-.2.12-.3.27-.2.46-.36.55-.5.1-.14.15-.3.14-.5,0-.2-.09-.46-.28-.79l-1.75-3.28c-.56-1.01-1.02-1.81-1.38-2.41-.36-.6-.62-.96-.78-1.11-.15-.14-.3-.22-.45-.23-.14-.01-.32.03-.54.13-.19.09-.32.14-.4.14-.07,0-.12-.04-.16-.12-.06-.1-.04-.19.06-.27.1-.08.4-.27.91-.55.93-.51,1.78-1.03,2.55-1.54.46-.3.83-.53,1.12-.69.85-.47,1.64-.66,2.36-.56.72.09,1.25.46,1.61,1.1.61,1.1.23,2.33-1.13,3.71ZM66.25,228.86c1.6-.89,2.01-2.02,1.25-3.4-.34-.61-.73-.98-1.18-1.12-.45-.14-.86-.11-1.24.1-.27.15-.56.4-.87.74.22.49.48.99.76,1.5.24.43.67,1.16,1.28,2.18ZM66.55,229.4c.51,1,.94,1.83,1.3,2.48.48.86.79,1.34.93,1.43.14.09.4.03.77-.18.67-.37,1.07-.83,1.2-1.37.14-.54.03-1.13-.32-1.75-.35-.63-.8-1.05-1.37-1.25-.57-.21-1.2-.13-1.9.26-.15.08-.36.21-.61.38Z"/><path class="cls-13" d="M73.94,219.18l.5-.23c1.28,1.08,3.19,2.83,5.72,5.24,1.17,1.11,1.92,1.76,2.25,1.95.34.19.74.21,1.2.07.15-.05.25-.02.3.09.07.15,0,.27-.18.35-.1.05-.37.15-.81.32-.52.19-.95.36-1.29.52-.33.15-.76.38-1.27.66-.39.21-.64.35-.77.41-.22.1-.36.08-.43-.06-.05-.11,0-.2.15-.29.57-.33.76-.7.56-1.11-.09-.19-.34-.5-.76-.94-.42-.44-.82-.83-1.22-1.16-.31.14-.56.25-.73.33-.97.45-1.72.8-2.26,1.06.11,1.34.26,2.19.43,2.56.12.27.32.42.6.48.28.05.54.03.79-.06.19-.07.32-.03.38.1.06.13,0,.24-.21.33-.08.04-.28.12-.62.25-.44.16-.76.29-.95.38-.38.18-.73.37-1.05.58-.08.06-.15.09-.21.12-.18.08-.3.05-.37-.09-.05-.11-.02-.2.08-.29.25-.21.43-.42.54-.62.11-.2.18-.51.21-.94.03-.43,0-1.08-.08-1.96-.19-1.96-.36-4.65-.52-8.07M74.61,221.94l.26,3.8,2.52-1.22c-.31-.31-.76-.73-1.34-1.25-.63-.57-1.12-1.01-1.44-1.32"/><path class="cls-10" d="M73.94,219.18l.5-.23c1.28,1.08,3.19,2.83,5.72,5.24,1.17,1.11,1.92,1.76,2.25,1.95.34.19.74.21,1.2.07.15-.05.25-.02.3.09.07.15,0,.27-.18.35-.1.05-.37.15-.81.32-.52.19-.95.36-1.29.52-.33.15-.76.38-1.27.66-.39.21-.64.35-.77.41-.22.1-.36.08-.43-.06-.05-.11,0-.2.15-.29.57-.33.76-.7.56-1.11-.09-.19-.34-.5-.76-.94-.42-.44-.82-.83-1.22-1.16-.31.14-.56.25-.73.33-.97.45-1.72.8-2.26,1.06.11,1.34.26,2.19.43,2.56.12.27.32.42.6.48.28.05.54.03.79-.06.19-.07.32-.03.38.1.06.13,0,.24-.21.33-.08.04-.28.12-.62.25-.44.16-.76.29-.95.38-.38.18-.73.37-1.05.58-.08.06-.15.09-.21.12-.18.08-.3.05-.37-.09-.05-.11-.02-.2.08-.29.25-.21.43-.42.54-.62.11-.2.18-.51.21-.94.03-.43,0-1.08-.08-1.96-.19-1.96-.36-4.65-.52-8.07ZM74.61,221.94l.26,3.8,2.52-1.22c-.31-.31-.76-.73-1.34-1.25-.63-.57-1.12-1.01-1.44-1.32Z"/><path class="cls-13" d="M93.18,223.4c-1.28.35-3.26.95-5.92,1.82-.93.3-1.68.57-2.24.82-.14.06-.24.1-.3.12-.19.06-.31.02-.36-.13-.02-.07-.01-.13.03-.17.04-.05.15-.12.34-.21.3-.15.51-.32.63-.5.12-.2.17-.44.15-.74-.02-.3-.21-1.02-.56-2.15-.36-1.13-.79-2.48-1.29-4.03-.2-.62-.39-1.05-.57-1.3-.18-.25-.38-.42-.59-.49-.21-.07-.47-.07-.78.01-.22.06-.35.02-.41-.14-.05-.15.05-.27.3-.35l2.54-.75c.39-.13.93-.32,1.61-.58.25-.09.42-.15.51-.18.21-.07.34-.03.39.12.03.08,0,.15-.05.21-.06.05-.21.14-.47.27-.32.16-.54.32-.63.49-.1.17-.12.42-.07.75.06.33.26,1.04.62,2.13l1.49,4.6c.23.7.43,1.11.6,1.2.16.09.41.08.75-.03.83-.27,1.42-.53,1.79-.79.36-.26.67-.62.92-1.08.26-.46.47-1.15.63-2.09.03-.19.09-.3.19-.33.14-.05.23,0,.28.15.11.33.28,1.45.51,3.35"/><path class="cls-10" d="M93.18,223.4c-1.28.35-3.26.95-5.92,1.82-.93.3-1.68.57-2.24.82-.14.06-.24.1-.3.12-.19.06-.31.02-.36-.13-.02-.07-.01-.13.03-.17.04-.05.15-.12.34-.21.3-.15.51-.32.63-.5.12-.2.17-.44.15-.74-.02-.3-.21-1.02-.56-2.15-.36-1.13-.79-2.48-1.29-4.03-.2-.62-.39-1.05-.57-1.3-.18-.25-.38-.42-.59-.49-.21-.07-.47-.07-.78.01-.22.06-.35.02-.41-.14-.05-.15.05-.27.3-.35l2.54-.75c.39-.13.93-.32,1.61-.58.25-.09.42-.15.51-.18.21-.07.34-.03.39.12.03.08,0,.15-.05.21-.06.05-.21.14-.47.27-.32.16-.54.32-.63.49-.1.17-.12.42-.07.75.06.33.26,1.04.62,2.13l1.49,4.6c.23.7.43,1.11.6,1.2.16.09.41.08.75-.03.83-.27,1.42-.53,1.79-.79.36-.26.67-.62.92-1.08.26-.46.47-1.15.63-2.09.03-.19.09-.3.19-.33.14-.05.23,0,.28.15.11.33.28,1.45.51,3.35Z"/><path class="cls-13" d="M103.01,221.41c-1.32.19-3.35.55-6.1,1.08-.96.19-1.73.37-2.32.54-.14.04-.25.07-.32.08-.2.04-.31-.02-.34-.18-.01-.07,0-.13.05-.16.05-.04.17-.1.36-.17.31-.11.54-.25.69-.43.14-.18.22-.42.24-.71.02-.3-.08-1.03-.3-2.2-.21-1.17-.48-2.56-.79-4.16-.13-.64-.26-1.1-.41-1.37-.15-.27-.33-.46-.53-.56-.2-.1-.46-.13-.78-.08-.23.03-.35-.03-.38-.19-.03-.16.08-.26.34-.31l2.61-.43c.4-.08.96-.21,1.67-.38.26-.06.43-.1.53-.12.22-.04.34,0,.37.16.02.08,0,.15-.07.2-.06.04-.23.11-.5.21-.34.11-.57.25-.69.41-.12.16-.17.4-.16.74.01.33.13,1.06.35,2.19l.92,4.74c.15.73.3,1.15.45,1.27.15.11.4.13.75.07.85-.17,1.48-.35,1.87-.57.39-.22.74-.54,1.05-.96.31-.42.61-1.09.88-2,.06-.19.13-.28.22-.3.14-.03.23.04.26.19.07.34.1,1.47.1,3.39"/><path class="cls-10" d="M103.01,221.41c-1.32.19-3.35.55-6.1,1.08-.96.19-1.73.37-2.32.54-.14.04-.25.07-.32.08-.2.04-.31-.02-.34-.18-.01-.07,0-.13.05-.16.05-.04.17-.1.36-.17.31-.11.54-.25.69-.43.14-.18.22-.42.24-.71.02-.3-.08-1.03-.3-2.2-.21-1.17-.48-2.56-.79-4.16-.13-.64-.26-1.1-.41-1.37-.15-.27-.33-.46-.53-.56-.2-.1-.46-.13-.78-.08-.23.03-.35-.03-.38-.19-.03-.16.08-.26.34-.31l2.61-.43c.4-.08.96-.21,1.67-.38.26-.06.43-.1.53-.12.22-.04.34,0,.37.16.02.08,0,.15-.07.2-.06.04-.23.11-.5.21-.34.11-.57.25-.69.41-.12.16-.17.4-.16.74.01.33.13,1.06.35,2.19l.92,4.74c.15.73.3,1.15.45,1.27.15.11.4.13.75.07.85-.17,1.48-.35,1.87-.57.39-.22.74-.54,1.05-.96.31-.42.61-1.09.88-2,.06-.19.13-.28.22-.3.14-.03.23.04.26.19.07.34.1,1.47.1,3.39Z"/><path class="cls-13" d="M202.17,222.91c.16-.07.33-.16.52-.26.22-.12.37-.16.46-.12.1.05.15.1.15.16,0,.06-.04.22-.14.48l-.95,2.3-.13.29c-.09.19-.22.25-.37.17-.1-.05-.14-.17-.13-.35.05-.6-.03-1.33-.24-2.2-.2-.87-.69-1.49-1.46-1.87-.57-.28-1.14-.35-1.69-.2-.55.14-1.07.45-1.57.92-.5.47-.94,1.11-1.33,1.92-.67,1.38-.9,2.63-.7,3.74.21,1.11.76,1.88,1.67,2.32.98.48,2.16.32,3.56-.46.17-.09.3-.12.39-.07.15.07.19.19.12.34-.15.32-.77.63-1.86.95-1.09.32-2.19.21-3.33-.35-1.5-.73-2.46-1.77-2.87-3.12-.42-1.35-.3-2.7.36-4.05.66-1.35,1.66-2.3,3.02-2.86,1.36-.56,2.71-.52,4.05.13.94.46,1.77,1.19,2.48,2.19"/><path class="cls-10" d="M202.17,222.91c.16-.07.33-.16.52-.26.22-.12.37-.16.46-.12.1.05.15.1.15.16,0,.06-.04.22-.14.48l-.95,2.3-.13.29c-.09.19-.22.25-.37.17-.1-.05-.14-.17-.13-.35.05-.6-.03-1.33-.24-2.2-.2-.87-.69-1.49-1.46-1.87-.57-.28-1.14-.35-1.69-.2-.55.14-1.07.45-1.57.92-.5.47-.94,1.11-1.33,1.92-.67,1.38-.9,2.63-.7,3.74.21,1.11.76,1.88,1.67,2.32.98.48,2.16.32,3.56-.46.17-.09.3-.12.39-.07.15.07.19.19.12.34-.15.32-.77.63-1.86.95-1.09.32-2.19.21-3.33-.35-1.5-.73-2.46-1.77-2.87-3.12-.42-1.35-.3-2.7.36-4.05.66-1.35,1.66-2.3,3.02-2.86,1.36-.56,2.71-.52,4.05.13.94.46,1.77,1.19,2.48,2.19Z"/><path class="cls-13" d="M207.31,237.2c-1.11-.72-2.89-1.79-5.31-3.19-.85-.49-1.55-.86-2.11-1.11-.14-.07-.23-.12-.29-.15-.17-.1-.22-.22-.14-.36.04-.07.08-.1.14-.09.06,0,.19.04.39.11.31.12.57.17.8.13.23-.04.44-.17.64-.38.21-.22.62-.83,1.22-1.86.6-1.02,1.32-2.24,2.13-3.66.33-.56.52-1,.58-1.3.07-.31.05-.56-.04-.77-.08-.21-.26-.4-.53-.57-.19-.12-.25-.25-.17-.39.08-.14.23-.14.46-.01l2.25,1.39c.35.2.86.47,1.51.81.23.12.4.21.48.26.19.11.25.23.17.37-.04.07-.11.11-.19.1-.07,0-.25-.07-.52-.17-.33-.14-.6-.18-.79-.14-.19.04-.39.19-.6.45-.21.26-.6.89-1.17,1.88l-2.42,4.19c-.37.65-.53,1.06-.49,1.25.04.18.21.36.53.54.75.43,1.35.7,1.78.8.44.09.91.08,1.42-.03.51-.12,1.17-.43,1.97-.93.16-.1.29-.13.37-.08.13.07.15.17.07.31-.17.3-.89,1.17-2.15,2.62"/><path class="cls-10" d="M207.31,237.2c-1.11-.72-2.89-1.79-5.31-3.19-.85-.49-1.55-.86-2.11-1.11-.14-.07-.23-.12-.29-.15-.17-.1-.22-.22-.14-.36.04-.07.08-.1.14-.09.06,0,.19.04.39.11.31.12.57.17.8.13.23-.04.44-.17.64-.38.21-.22.62-.83,1.22-1.86.6-1.02,1.32-2.24,2.13-3.66.33-.56.52-1,.58-1.3.07-.31.05-.56-.04-.77-.08-.21-.26-.4-.53-.57-.19-.12-.25-.25-.17-.39.08-.14.23-.14.46-.01l2.25,1.39c.35.2.86.47,1.51.81.23.12.4.21.48.26.19.11.25.23.17.37-.04.07-.11.11-.19.1-.07,0-.25-.07-.52-.17-.33-.14-.6-.18-.79-.14-.19.04-.39.19-.6.45-.21.26-.6.89-1.17,1.88l-2.42,4.19c-.37.65-.53,1.06-.49,1.25.04.18.21.36.53.54.75.43,1.35.7,1.78.8.44.09.91.08,1.42-.03.51-.12,1.17-.43,1.97-.93.16-.1.29-.13.37-.08.13.07.15.17.07.31-.17.3-.89,1.17-2.15,2.62Z"/><path class="cls-13" d="M213.31,228.58l2.13,1.43c.21.13.45.27.73.41.44.23.78.42,1.03.58.23.14.31.28.23.41-.08.12-.21.13-.39.03-.34-.19-.65-.22-.95-.11-.29.12-.66.49-1.13,1.13-.46.63-.93,1.35-1.43,2.14-.8,1.28-1.27,2.18-1.43,2.69-.15.51-.11,1.02.13,1.53.24.51.69.97,1.35,1.39.67.42,1.27.59,1.79.52.52-.07,1.04-.38,1.54-.91.51-.53,1.29-1.62,2.33-3.28.61-.98.96-1.71,1.04-2.18.08-.47-.05-.84-.4-1.1-.25-.19-.33-.35-.25-.49s.23-.13.45,0c.1.07.27.19.49.37.24.18.49.35.77.53.25.16.54.32.87.49.24.13.41.22.5.28.22.14.3.28.21.41-.07.1-.18.11-.36.03-.24-.12-.51-.14-.81-.07-.29.07-.6.31-.93.71-.32.4-1.03,1.48-2.14,3.26-.73,1.17-1.38,1.94-1.94,2.33-.56.38-1.23.53-1.99.45-.76-.07-1.58-.38-2.44-.93-.67-.42-1.22-.84-1.64-1.27-.42-.43-.7-.86-.83-1.29-.14-.43-.16-.84-.09-1.25.08-.4.31-.92.7-1.55l2.28-3.58c.32-.5.55-.94.69-1.3.15-.36.19-.62.14-.8-.06-.19-.2-.37-.43-.55-.15-.12-.23-.2-.26-.25-.02-.05,0-.11.04-.18.08-.14.22-.14.42-.02"/><path class="cls-10" d="M213.31,228.58l2.13,1.43c.21.13.45.27.73.41.44.23.78.42,1.03.58.23.14.31.28.23.41-.08.12-.21.13-.39.03-.34-.19-.65-.22-.95-.11-.29.12-.66.49-1.13,1.13-.46.63-.93,1.35-1.43,2.14-.8,1.28-1.27,2.18-1.43,2.69-.15.51-.11,1.02.13,1.53.24.51.69.97,1.35,1.39.67.42,1.27.59,1.79.52.52-.07,1.04-.38,1.54-.91.51-.53,1.29-1.62,2.33-3.28.61-.98.96-1.71,1.04-2.18.08-.47-.05-.84-.4-1.1-.25-.19-.33-.35-.25-.49s.23-.13.45,0c.1.07.27.19.49.37.24.18.49.35.77.53.25.16.54.32.87.49.24.13.41.22.5.28.22.14.3.28.21.41-.07.1-.18.11-.36.03-.24-.12-.51-.14-.81-.07-.29.07-.6.31-.93.71-.32.4-1.03,1.48-2.14,3.26-.73,1.17-1.38,1.94-1.94,2.33-.56.38-1.23.53-1.99.45-.76-.07-1.58-.38-2.44-.93-.67-.42-1.22-.84-1.64-1.27-.42-.43-.7-.86-.83-1.29-.14-.43-.16-.84-.09-1.25.08-.4.31-.92.7-1.55l2.28-3.58c.32-.5.55-.94.69-1.3.15-.36.19-.62.14-.8-.06-.19-.2-.37-.43-.55-.15-.12-.23-.2-.26-.25-.02-.05,0-.11.04-.18.08-.14.22-.14.42-.02Z"/><path class="cls-13" d="M226.47,242.71c.81.78,1.32,1.52,1.53,2.22.21.7.12,1.36-.27,1.98-.32.52-.79.88-1.39,1.08-.6.2-1.19.22-1.77.06-.58-.17-1.34-.55-2.28-1.13-.23-.14-.58-.38-1.05-.71-.39-.27-.7-.49-.93-.63-.31-.19-.73-.43-1.27-.71-.22-.11-.38-.2-.46-.25-.18-.11-.22-.23-.14-.36.06-.1.17-.11.32-.04.31.14.54.22.7.24.17.02.34-.02.5-.12.17-.09.36-.3.56-.63l2.02-3.12c.61-.98,1.09-1.77,1.44-2.37.35-.6.54-1.01.59-1.22.05-.21.05-.37-.01-.51-.06-.13-.18-.26-.38-.4-.18-.12-.28-.22-.31-.28-.03-.06-.02-.13.02-.2.06-.09.14-.12.26-.08.12.05.43.22.92.53.9.56,1.76,1.06,2.59,1.48.49.25.87.47,1.15.64.83.52,1.38,1.12,1.64,1.8.27.67.21,1.32-.18,1.94-.67,1.06-1.93,1.33-3.8.81M224.67,241.45c1.55.97,2.74.78,3.58-.55.37-.59.51-1.11.41-1.58-.09-.46-.32-.81-.68-1.04-.26-.16-.62-.3-1.07-.41-.32.43-.63.9-.94,1.39-.26.42-.69,1.15-1.29,2.18M224.35,241.97c-.63.93-1.14,1.71-1.54,2.34-.52.84-.79,1.34-.8,1.5,0,.16.17.36.53.58.65.41,1.24.54,1.78.39.54-.14,1-.52,1.38-1.13.38-.61.52-1.21.43-1.81-.09-.6-.47-1.11-1.15-1.54-.15-.09-.36-.21-.63-.35"/><path class="cls-10" d="M226.47,242.71c.81.78,1.32,1.52,1.53,2.22.21.7.12,1.36-.27,1.98-.32.52-.79.88-1.39,1.08-.6.2-1.19.22-1.77.06-.58-.17-1.34-.55-2.28-1.13-.23-.14-.58-.38-1.05-.71-.39-.27-.7-.49-.93-.63-.31-.19-.73-.43-1.27-.71-.22-.11-.38-.2-.46-.25-.18-.11-.22-.23-.14-.36.06-.1.17-.11.32-.04.31.14.54.22.7.24.17.02.34-.02.5-.12.17-.09.36-.3.56-.63l2.02-3.12c.61-.98,1.09-1.77,1.44-2.37.35-.6.54-1.01.59-1.22.05-.21.05-.37-.01-.51-.06-.13-.18-.26-.38-.4-.18-.12-.28-.22-.31-.28-.03-.06-.02-.13.02-.2.06-.09.14-.12.26-.08.12.05.43.22.92.53.9.56,1.76,1.06,2.59,1.48.49.25.87.47,1.15.64.83.52,1.38,1.12,1.64,1.8.27.67.21,1.32-.18,1.94-.67,1.06-1.93,1.33-3.8.81ZM224.67,241.45c1.55.97,2.74.78,3.58-.55.37-.59.51-1.11.41-1.58-.09-.46-.32-.81-.68-1.04-.26-.16-.62-.3-1.07-.41-.32.43-.63.9-.94,1.39-.26.42-.69,1.15-1.29,2.18ZM224.35,241.97c-.63.93-1.14,1.71-1.54,2.34-.52.84-.79,1.34-.8,1.5,0,.16.17.36.53.58.65.41,1.24.54,1.78.39.54-.14,1-.52,1.38-1.13.38-.61.52-1.21.43-1.81-.09-.6-.47-1.11-1.15-1.54-.15-.09-.36-.21-.63-.35Z"/><g class="cls-42"><rect class="cls-20" x="252.43" y="230.59" width="7.06" height="12.37"/></g><g class="cls-30"><rect class="cls-17" x="12.04" y="230.59" width="7.06" height="12.37"/></g><g class="cls-27"><rect class="cls-18" x="255.61" y="246.43" width="7.76" height="12.9"/></g><g class="cls-34"><rect class="cls-16" x="247.39" y="220.98" width="28.2" height="27.24" transform="translate(-71.94 345.21) rotate(-60.25)"/></g><g class="cls-32"><rect class="cls-4" x="248.59" y="224.42" width="20.5" height="22.48" transform="translate(-74.2 343.44) rotate(-60.25)"/></g><path class="cls-4" d="M268.91,239.67l.56-1.1c.73-1.65,1.53-3.99-1.85-8.29-5.63-6-13.83-8-15.37-5.33-1.13,2.35,1.24,5.46,4.51,7.98,2.66,2.07,5.12,2.88,5.12,2.88l-7.39,9.09c2.12.35,3.73.44,5.13.49,6.42-.53,8.16-3.58,9.29-5.73Z"/><g class="cls-33"><rect class="cls-15" x="152.26" y="221.8" width="36.9" height="34.85" transform="translate(-71.48 72.75) rotate(-19.98)"/></g><g class="cls-31"><rect class="cls-4" x="160.11" y="221.94" width="23.57" height="30.89" transform="translate(-70.78 73.04) rotate(-19.98)"/></g><path class="cls-4" d="M179.72,229.14s-1.96,1.24-1.04,2.97l5.94,7.92s2.07,2.52.13,4.23c0,0-4.21,3.91-11.72,8.11l-17.18-25.27s.62-1.01,5.63-1.01c6.17,0,12.33,1.18,18.22,3.06ZM179.72,229.14s-1.96,1.24-1.04,2.97l5.94,7.92s2.07,2.52.13,4.23c0,0-4.21,3.91-11.72,8.11l-17.18-25.27s.62-1.01,5.63-1.01c6.17,0,12.33,1.18,18.22,3.06Z"/><g class="cls-28"><polygon class="cls-19" points="156.56 224.74 156.51 210.49 170.14 210.53 170.19 224.78 156.56 224.74"/></g><g class="cls-25"><polygon class="cls-46" points="115 224.74 115.04 210.49 101.41 210.53 101.37 224.78 115 224.74"/></g><g class="cls-29"><rect class="cls-47" x="177.19" y="248.04" width="9.15" height="18.48"/></g><g class="cls-26"><rect class="cls-48" x="85.18" y="248.04" width="9.15" height="18.48"/></g><g class="cls-35"><rect class="cls-49" x="8" y="246.43" width="7.76" height="12.9"/></g></svg>