<?xml version="1.0" encoding="UTF-8"?><svg id="Layer_1" xmlns="http://www.w3.org/2000/svg" viewBox="0 0 293.67 292.67"><defs><style>.cls-1,.cls-2{fill:#f0b83d;}.cls-3,.cls-4,.cls-2{fill-rule:evenodd;}.cls-3,.cls-5,.cls-6{fill:#fff;}.cls-7,.cls-4{fill:#231f20;}.cls-8,.cls-9{fill:#00b6f1;stroke-width:.14px;}.cls-8,.cls-9,.cls-6{stroke-miterlimit:32.03;}.cls-8,.cls-6{stroke:#fff;}.cls-10{fill:#ef3e2e;}.cls-11{fill:#bbbdbf;}.cls-9{stroke:#00b6f1;}.cls-6{stroke-width:4.59px;}</style></defs><g id="layer1"><g id="g2737"><g id="g3315"><path id="path2981" class="cls-6" d="M233.2,195.65v.21-.21Z"/><path id="path2985" class="cls-6" d="M233.2,195.86h0s0,0,0,0Z"/><path id="path3001" class="cls-7" d="M233.2,195.87c0,.14,0,.24,0,0"/><path id="path3005" class="cls-4" d="M288.56,211.4c-2.8-5.11-2.3-13.16-9.42-14.67-7.41-.22-15.38,2.66-22.01,6.69-2.59,2.59.94,4.82,1.08,7.34.8,3.59,2.59,6.75,2.95,10.49-1.65.57-3.31,1.37-5.03,1.8-1.44.51-2.66-.22-3.6-1.08-4.24-1.94-8.49.29-12.01,2.08-1.51,2.45-4.38.36-6.54,1.23-6.18.36-13.87.22-19.05,4.96-3.52,3.45.22,7.48-.15,11.35-9.7,2.59-19.27,5.54-29.47,6.9-2.8.51-5.75.86-8.63,1.29-8.98,1.37-18.19,2.37-26.81,2.59l-.29-.28c.07-.36.43-.65.29-1.08,6.17-7.7,14.95-13.59,23.51-17.84,1.23-.65,2.37-1.65,3.74-2.08,1.08-1.44,2.74-1.3,3.89-2.66,7.34-4.53,15.38-9.85,19.12-17.98,1.15-1.72,1.43-3.74,2.16-5.69.57-1.72.57-3.23,1.14-4.96,1.8,4.38,2.09,9.85,6.76,12.44,5.82,4.38,13.38,5.53,20.49,3.02,9.2-3.6,14.24-13.52,15.1-22.93.43-1.23,1.86-1.44,2.23-2.66-1.29-1.15-1.95-2.95-1.29-4.53.5-1.65,2.88-1.36,3.09-3.09-.44-.43-1.01-.57-1.52-.93-1.72-1.23-2.66-3.17-2.23-5.25.15-1.65,2.3-2.3,2.59-3.88-1.29-.43-2.8-.65-3.59-1.8,0-.58.72-.86,1.15-1,4.38-.8,11.65-2.3,14.81,2.65,4.67,5.76-1.15,12.23-.72,18.41.51,1.37.07,3.46,1.51,4.17,0-5.03,5.04-6.39,7.77-9.99l.72,1.08c1.72-2.59-.36-6.47,1.8-8.99.65-.43,1.29.43,1.94,0v-.79c-1.8-1.65-1.72-4.03-2.09-6.26.22-1.08,1.51-.36,1.95-1.22-1.29-.86-2.3-2.3-2.95-3.74-.43-2.66-3.02-4.32-4.96-5.68l1.37-1.66c.51-1.44,1.52-2.74,2.09-4.17-1.58-.43-3.52-.86-4.96-1.95,2.52-3.88,2.23-9.2,2.38-13.15l-.72.43c-.36-2.66-.43-5.6-1.66-7.77-.57.15-.14,1.08-.86.86-1.37-2.88-2.44-6.03-4.96-8.34-1.22-.29-.14,1.08-.85,1.29-2.23-1.58-3.32-3.88-3.6-6.4-.65,0-.8.65-.94,1.08-1,7.55,2.52,15.1.43,22.44-1.01,2.01-1.01,4.46-2.66,6.26-1.66,4.6-5.89,7.62-9.85,10.2-.29-.07-.65.07-.8-.14-.51-2.15,1.44-3.89,1.37-5.89-1.58-.29-3.02-1.58-3.89-2.8-.36-1.95.29-3.75,2.09-4.96.57-1.37-1.37-.72-1.94-1.37-1.66-1.29-2.74-3.45-2.74-5.83-.14-1.72,1.8-2.8,1.8-4.31-1.86,0-3.31-1.8-4.17-3.31-.94-2.66-1.01-6.33.43-8.98,1.72-7.48,12.15-7.41,12.29-15.53.43-1.58,2.88.07,3.89-1.51.65-.72-.51-.51-.72-.72-2.16-1.15-1.73-3.74-1.94-5.54,1-.36,1.57.71,2.51.14.44-.36,1.44-.51,1.09-1.23-1.37.15-1.72-1.36-2.59-2.08.57-.43,1.15.22,1.81,0,.42-.14,1.21-.28.93-1.08-1.29-.86-2.08-2.37-2.08-3.74h1c1.94-.65-.43-1.72-.29-2.8.14-.29.44-.36.72-.29.28-.22.51-.57.36-.79-2.8-.72-1.72-4.1-4.38-5.04,2.01-1.58-1.15-2.09-1-3.6-.29-.79-1.08-.86-1.66-1.08-.07-.43.07-.79.43-1.08.86-1.37-.79-1.51-1.65-1.8,0-.86.22-2.88-1.66-2.23.94-2.45-2.08-1.57-3.16-1.8.07-1,.57-1.94.22-2.94-1.15-.29-1.8.51-2.74.43l-.14-1.94c-1.01-.29-1.52.5-2.38.43-2.51,2.51-2.16-2.16-4.24-2.66-.5-.29-1.36-.8-1.94-.15.29,1.3,1.44,2.52.8,4.03-.43.58-1.15,1.58-1.95,1.15-.94-1.23-1.94-2.45-3.17-3.6-.56-.65-.64-1.94-1.79-2.08-.72,1.72-.51,3.8-.72,5.68-1.08-.22-2.16-1.37-3.17-.72-.79,2.59.36,5.03,2.23,6.9-1.37,1.23-2.37,2.59-3.6,3.88-1.8,3.52-5.53,5.61-8.19,8.7-2.95,2.3-3.17,6.04-3.6,9.27,1.08,1.8,2.94,1.23,4.6,2.09.22.57-.51.79-.72,1.15-.79.28-.94-.94-1.65-.72-.94.14-1.08,1.15-1.37,1.8.36.64.22,1.51,1.08,1.94,1.66.94,3.52,0,4.96-1.23,1.22.29,2.73-.5,4.02.15v-.29c2.59-.79,3.67-3.95,6.26-5.11,1.01.36,1.94-.65,2.59.51-2.08,2.95-5.97,3.81-8.55,6.11-4.67,2.74-8.98,7.34-11.21,12.15-.86,1.23-.65,3.09-1.94,4.03-2.52-4.03-3.46-8.77-6.47-12.44-1.8-1.51-4.53-1.58-6.69-.71-4.32,3.09-9.63,3.59-13.81,6.83l-.28-.29c-.07-1.29-.65-2.37-1.52-3.45-1.36-.65-2.73-1.08-4.31-1.15-2.37-.22-4.67,1.65-6.9.14-.5-1-.79-2.01-.86-3.16-.42-1.01.29-3.39-1.22-3.75-1.15-1.86-.94-4.31-1.08-6.61-.15-.5-.8,0-1.01-.43-1-3.52-.43-7.77-.72-11.07.44-1.51-1.08-3.38.72-4.31.29-.43.51-1.29-.14-1.51-.22-.22-.22-.72.14-.86,2.95-.29,2.37-4.67,5.54-4.24.43-.36.36-1.01.57-1.44-.14-1.65.51-3.23-.14-4.96l-4.6.14-.36-.29c-.58-2.37-.29-5.25,1.51-6.9,1.51-.44,2.74-1.37,4.24-.58,1.08.65,1.65,1.8,1.8,2.95-.36.72-1.09,1.15-1.8.94-1.44-.58-1.15-2.59-2.45-2.59-.36,2.16.36,4.32,2.24,5.54.93.51,2.45.51,3.31,0,1.37-.86,2.16-2.08,2.45-3.74-1.08-2.66,2.45-.86,3.37-2.08,2.59-1.01,1.8-3.53,1.94-5.69,0-1.36,2.01-2.3,2.01-3.45-.86-.36-1.79-.51-2.73-.43-2.16,0-2.09,2.45-3.31,3.6l-.14-2.52c-.51-.94-1.44-1.94-2.38-2.45-.72.07-1.51-.65-2.08,0-.15.94.86.86,1.14,1.51-.28,2.52-3.16,2.01-4.88,2.74-2.3.36-2.52,3.16-4.67,3.6-3.31,2.01-3.38,6.25-2.95,9.71-1.8.43-.29,2.3-1.37,3.31-1.37-.36-1.66-2.01-2.08-3.17-.8-2.3-.44-5.25-.29-7.77.5-3.52,4.38-5.6,6.4-8.41-1.23-2.45,2.08-3.02,2.23-5.11-.65-.51-1.37.51-1.94-.29,0-.28,0-.65.14-.85,4.03-.72,1.15-4.39,2.88-6.76-.14-1.15-.79-1.51-1.51-2.37-.79.28-1.51-.36-1.66-1.23-.86-1.37-2.51-1.86-4.03-1.65-.65-.29-1.36-.86-2.08-.43-1.51,1.86-3.81,2.51-5.11,4.82l-.57-.51c-.87,1.15-1.94,2.45-1.94,4.1.71,1.86-1.8,1.8-2.59,2.94-1.29,1.37-1,3.46-2.51,4.53-1.73-2.81-4.61-4.24-5.97-7.19.07-3.8-4.96-5.89-2.88-10.2,9.63-5.9,20.63-.8,31.13-.29,15.17,2.15,34.36,2.37,44.28-11.36.07-.93,1.23-1.86.72-2.66-4.82,2.95-11.07,2.95-16.75,3.38-3.89-.14-8.34-.07-11.5-1.15-7.91-1-15.1-3.88-22.01-7.19-6.11-2.81-13.15-3.89-20.2-2.74-.72.07-1.58.57-2.09.14.36-1.43-.43-2.88-1.22-4.17-1-.57-2.01-1.8-3.09-1.8-2.16-.36-4.24.51-5.68,2.09-1.3,1.58-1.44,4.31-.51,6.03.79,1.37,2.08,2.3,3.16,3.1.36,8.84,0,16.39.29,24.44-.29,1.29-1.29,2.88-.29,4.17.22,5.54.22,12.66,0,18.55l-.43.58c-.36.57-.07,1.22.29,1.65l.14,45.66c-.93.94-2.08,1.43-2.65,2.66-.22,1.08,0,2.37.57,3.31,2.88,3.88,7.05,2.66,11.21,2.23l.29.28c-.72,1.66-.57,4.1.51,5.54.42,1.43-1.01,2.51-2.01,3.3-5.32,2.88-11.72,3.75-17.47,2.38-3.09-.43.14-2.95-.44-4.75-.56-2.51-1.94-5.32-4.82-5.82-2.51-.65-5.46.14-7.05,2.22-.07-2.08.22-4.67,2.45-5.68,2.09.36,4.1.94,5.83,2.38,1.29,1.57,2.23,2.8,4.31,2.87,1.01,1.8.65,3.95.29,5.97l.51.43c2.52.51,5.32.29,7.91.72,1.51-2.37,4.1.58,5.54-2.23.51-.51,1.8.22,1.8-.86-2.45-3.88-6.9-5.68-10.21-8.41-3.81-5.11-10.64-5.11-15.53-8.63-9.06-2.23-8.62,8.84-12.58,13.44l-.57-.79c-2.52-8.63-10.93-15.24-18.55-18.98-.94-.65-2.3-1.29-2.59-2.52,4.1-2.08,5.69,4.6,9.78,4.75,3.03-1.08,4.32,2.3,7.62,1.51.65-.22,1.09-.65,1.3-1.37.36-.86.14-2.08-.72-2.52-.94-.71-1.29.8-2.23.44-.29-.29-.79-.65-.57-1.01,1.58-.65,3.95-.36,4.74-2.45.36-5.46-3.95-9.49-7.91-12.8-3.59-2.15-4.38-6.4-7.77-8.84,1.15-1.08,2.01-2.23,2.52-3.6-.22-1.36.5-2.59-.58-3.6-1,.29-1.8.72-2.73,1.15-.58-.93-.14-2.37-.29-3.52-.22-.79-.07-2.59-1.23-2.15-.71,2.59-3.23,3.52-4.45,5.89h-.43c-2.81-1.08-.86-4.02-.8-5.68-2.37-.14-3.37,2.3-4.45,3.88-1.16-.71-2.38-1.14-3.75-1.36-1.08.5.15,1.36-.42,2.08-.87-.07-1.58-.57-2.45-.57-1.16.86.36,2.23-.3,3.45-.71-.36-1.86-.36-2.65-.22,0,1.23-.51,2.23-1.8,2.01-.51.65.22,1.37,0,1.94-.65.22-1.52,0-1.95.72.07.8.36,1.43.58,2.09-2.3-.15-1,2.73-3.17,3.02-.5.65.29,1.08.51,1.66-2.73.93-1.58,4.31-4.38,5.03-.36,1,.71.79,1.08,1.22-.07.94-1.15,1.29-1.08,2.23.14,1.23,1.51.14,1.94.94-.72,1.08-.86,2.66-2.23,3.23-.15,2.01,1.95.65,2.74,1.23-.65,1.08-1.52,2.01-2.74,2.23.72,1.51,2.52,1,3.89,1.08.36,1.22-.65,1.8-.29,3.02-.58,1.15-1.01,2.74-2.66,2.66.57,1.66,2.59,1.01,4.02,1.37-.07,2.74,1.01,5.54,3.6,7.34,4.96,2.3,9.56,7.19,10.14,12.72-.43,2.66-.07,5.61-2.52,7.48-.79.58-1.66.94-2.59,1.15.36,1.23,1.57,1.95,1.8,3.17.43,2.45-.36,4.89-2.24,6.61-.71.43-1.72.36-2.37,1,1.29,1.44,2.45,3.17,2.37,5.25-.57.94-1.36,2.01-2.22,2.38-5.03,1.08,1.65,4.31-.72,6.9-4.67-2.23-9.21-6.61-11.21-11.36-3.03-5.82-2.88-12-2.16-18.55,1.01-2.3.58-4.74.8-7.05.14-1.08-.22-2.52-1.08-3.17-.58,2.45-1.58,4.96-3.74,6.47-.29-.14-.07-.43-.15-.65-.07-.22,0-.86-.43-.72-3.09,1.94-3.81,5.61-5.4,8.55-.28-.36-.36-.93-.93-1.08-.51,1.37-.65,2.88-1,4.32-.44,1.08.21,2.73-.58,3.45-.22-.22-.51-.28-.79-.28v.43c.22,4.6.57,9.06,2.59,12.86-.79.65-1.8.58-2.59,1.23-.65.65-2.37-.07-2.24,1.22,1.58,1.66,1.66,3.88,3.46,5.54-4.82,1.37-4.03,6.61-7.91,9.13.07,1.08,1.43.29,1.94,1.15-.22,2.51-.65,4.82-2.16,6.75.07,1.29,1.15.14,1.8.43.86.72.79,1.8,1.22,2.74.65,2.08-.72,4.46.57,6.25.8.58.43-.64.94-.93,2.22,2.8,6.25,4.46,7.62,7.98.36.57-.14,1.57.43,1.94.79-.51,1.08-1.37.94-2.09,2.3-5.83-3.67-11.5-1.8-17.69.93-2.88,3.59-5.75,6.83-6.25,3.81-.22,7.48-.43,10.64,1.29-.58,1.36-2.09,1.8-3.46,1.94-.42.65.22,1.15.65,1.51,1.44.79,2.01,2.45,1.94,4.03-.36,2.08-2.08,3.88-3.88,4.82.07,1.29,1.44,1.22,2.23,1.8.86,1.01,1.44,2.01,1.23,3.46-.22.79-.86,1.43-1.52,2.08.07,1.15,1.23,1.8,1.94,2.51.94,7.27,3.38,13.95,8.85,19.34,6.32,5.97,16.39,6.47,24.08,2.95,6.7-2.15,8.13-8.99,10-14.6.5.79.28,2.15.71,3.09,1.8,13.66,16.18,22.29,26.82,28.47,9.71,4.82,19.27,10.64,26.61,19.7v.51c-8.99.72-17.9-1.08-26.9-2.01-11.07-1.37-21.35-3.46-31.92-6.26-2.59-1.08-5.46-1.43-8.06-2.52.43-3.88,3.17-9.05-.86-12.15-6.4-4.82-15.24-3.88-22.93-4.17-3.89-2.73-8.78-4.74-13.59-3.45-1.14.28-1.8,1.86-3.31,1.37-2.01-.72-4.17-.94-5.97-2.09,1.44-4.96,2.95-10,5.11-14.67.57-1.72-.72-3.09-1.8-4.09h-.65c-4.96-3.02-10.71-4.31-16.32-5.83-3.31-.57-7.4.22-9.42,3.6-1.73,3.89-3.17,7.83-4.47,11.86-1.72,6.55-5.89,12.52-5.1,19.7,3.38,8.84,12.72,14.31,20.63,18.41,1.52.86,3.03,1.51,4.68,1.94,1.36,1.3,3.23,1.23,4.6,2.3-1.37,3.81-2.74,8.92.65,12.23,4.24,3.37,9.27,4.89,13.87,7.34,12,5.6,25.16,8.33,37.89,12.14,2.59.58,5.54,1.29,7.92,1.66,20.06,4.45,41.34,5.68,61.76,5.17,21.14-.14,41.48-2.51,61.04-7.11,7.63-2.74,15.75-4.18,23.37-6.9,1.51-.65,3.16-1.08,4.67-1.8,7.55-2.59,14.95-5.97,21.63-10.35,3.6-3.17,2.1-8.34.8-12.08l.57-.64c2.67-.58,4.9-2.3,7.48-3.1,8.26-4.53,18.55-9.99,22-19.48.07-7.12-3.45-13.16-5.11-19.7h0ZM222.13,180.98s7.63,7.55,8.58,9.22c.94,1.67,2.48,4.62,2.49,5.45,0,0-1.14,4.78-7.3,5.1-6.16.31-11.48-4.59-11.27-10.34s4.24-7.48,7.5-9.43h0ZM197.4,158.33c.07-1.96.35-4.11,2.16-4.95,1.81-.83,1.88-.62,1.88-.62,0,0,3.33,5.64,4.38,7.09,1.04,1.47,6.12,8.01,8.91,12.47,0,0-10.93,9.47-11.42,20.88,0,0-.14-2.99-.56-4.53-.42-1.53-.56-3.97,1.6-5.15l.14-.84s-2.09-.49-2.09-1.74,1.74-1.47,1.74-2.44-1.25-1.25-1.6-1.32c-.35-.07-2.23-.14-3.07-3.21-.83-3.07-3.41-12.66-3.41-12.66,0,0,1.25-1.04,1.33-2.99h0ZM160.55,115.87s1.04.52,2.61.21c1.57-.31,3.45-1.14,3.45-1.14l1.46.84-4.91,4.8s-1.14,1.67.11,1.67,1.57.42,1.77.94c.21.52,1.77.73,2.61.52.83-.21,2.5.41,2.71,1.04l7.93-1.04.52-.73s-.83-3.66-.31-5.01c.52-1.36,1.77-.31,3.03-1.88,1.25-1.57,4.49-4.18,6.68-4.07,2.2.1,2.82,2.2,3.23,5.43,0,0-1.77-2.82-5.01-2.4-3.24.42-5.95.84-7,6.9,0,0,.11,2.09,1.04,3.34,0,0-3.13,1.25-6.89,1.25s-9.61-1.15-11.28-2.2c-1.67-1.04-2.5-2.82-2.4-3.34.11-.52,1.26-2.5.63-5.11h0ZM80.89,191.46c-.11,1.36-.21,8.56-10.97,9.71,0,0-7.05.02-7.7-4.79-.34-2.51,4.99-9.09,6.34-10.24,1.36-1.14,5.01-4.72,5.01-4.72,0,0,5.46,3.49,6.9,5.83,0,0,.51,2.86.41,4.22h0ZM95.29,176.16c-.26.37-3.34,1.72-3.55,1.88-.21.17-.63.47.16,1.47.78.99,1.72,1.87,1.14,2.35-.57.47-.78.63-.78.63,0,0-1.46.1-1.09.83.36.74,1.14,1.88,1.57,2.35.41.46.46,1.2.31,1.77s-.41.89-.46,1.62c-.06.73-.31,3.18-.31,3.18,0,0-.94-6.73-6.58-14.36-2.38-3.22-5.01-5.11-5.01-5.11,0,0,.16-.89,1.3-2.2,1.15-1.3,8.77-12.32,9.76-13.93s1.93-3.45,2.82-3.45c.63,0,2.72,1.31,3.24,2.09,0,0,.21,4.49,1.57,6.68,0,0-3.81,13.84-4.08,14.2ZM129.8,48.4c.22,0,.29.22.51.36-.22.29-.43.65-.36,1.01.65.57,1.3,1,2.16,1.08.57.94-.72,2.3.57,2.95.8-.22,1.87-.72,2.66-.15-.07.58-.86.72-1.29,1.08-.86,1.3-2.09,2.16-3.59,1.94-1.01-.36-.65-1.08-.94-1.79l.28-6.47h0ZM138,91.89l-1.21.89-.99,6.51s-1.1-.12-1.21,1.21c-.12,1.33-.56,4.75-1.11,4.96-.55.22-1.43.22-1.98.45-.56.22-1.21.55-1.88.11,0,0-.88-32.78,0-42.39,0,0,5.19.11,6.4-.33v.77s-.65.33-1.54.22c-.88-.11-2.64-.22-3.41.33v6.4s1.99.12,2.75,1.22c.78,1.1,2.2,2.75,3.54,2.64v1.33s.22.99.65.99.78.22.78,1.1-.78,13.58-.78,13.58"/><path id="path3007" class="cls-9" d="M151.52,9.21l.14,3.02c-2.08-.22-4.53-.5-6.69-1.08-.43-1.29-.57-2.8.15-3.88,2.23.43,4.75.57,6.4,1.94Z"/><path id="path3009" class="cls-9" d="M137.28,7.85c0,1.08.87,3.31-.71,3.46-2.38.07-4.32,1.14-6.62,1.36-.71-.93.07-2.15-.14-3.16.72-.72,1.87-.43,2.59-1.15,1.51-.29,3.23-1.22,4.88-.51h0Z"/><path id="path3011" class="cls-9" d="M151.52,19.71l.14,4.96c-2.3-.36-4.45-.51-6.9-1.08-.71-1.58.15-3.38-.14-5.54.94-.22,2.09-.22,3.03,0,1.43.22,2.66.86,3.88,1.66h0Z"/><path id="path3013" class="cls-9" d="M137.14,18.06c.72,1.94-.07,3.46.14,5.54-2.51.65-5.11,1.08-7.62,1.94v-5.11c2.16-1.79,4.6-2.08,7.48-2.37Z"/><path id="path3015" class="cls-10" d="M142.96,7.85c.58,1.72-.71,4.75,1.66,5.11,2.45.65,5.04.51,7.05,2.09l-.14,2.3c-2.59-.57-5.11-1.43-7.91-1.51-1.08,1.29-.43,3.6-.65,5.03l-.28,2.59c-1.51-.58-4.6,1.37-3.88-1.66-.15-1.72,1.37-4.53-.87-5.82-2.73.43-5.6.79-8.12,1.79v-2.73c2.74-1.15,5.54-2.01,8.7-2.09l.43-.43v-4.96c1-.8,2.51-.29,3.74-.43l.28.71"/><path id="path3017" class="cls-10" d="M199.55,17.34l3.02-.5v.28c-5.46,6.9-13.44,8.34-21.28,9.78-9.85,1.58-18.69-.86-27.96-1.94-.57-1.08-.22-2.01-.29-3.31,0-3.74-.14-6.9.14-11.36l.43-.65c13.96,6.47,29.91,11.01,45.95,7.69"/><path id="path3019" class="cls-11" d="M79.83,79.1c3.89,4.89,10.86,8.2,11.07,14.81-.94.65-2.08,1.86-3.6,1.23-1.37-.94-2.66-3.38-4.74-2.45-1.08.65-1.72,1.94-1.23,3.16.43.44.43,1.01.58,1.51-1.15-.22-1.58-1.43-1.72-2.37.28-.79-.44-2.01-1.23-2.59-.94-.15-1.86-.29-2.59-.86-.94-1.08,1.43-3.31-.86-3.02-1.51,1.57-1.73,5.03-4.67,4.17-.86-1.44-2.59.57-3.24-1.44-1,.29-2.08.07-2.88-.5-1.37-1.44-1.58-3.32-2.51-4.9h-.29c.07,3.38,1.58,6.84,4.89,8.78l.14.51c-.65.79-2.23-.36-2.37.71,1.29.72,2.8,1.15,4.32.72-.29,1-2.74.57-1.3,1.66,1.3.14,2.45-.72,3.75-.44v.44c-.29,0-.44.36-.65.5,0,.22.28.36.5.57,1.01.15,1.87-1.51,2.81-.28,9.42,3.95,18.19,13.09,20.06,23.15,2.8,3.03,3.16,7.19,3.74,10.93.15,2.8-.15,5.4-.86,7.77-.36-2.52.57-5.75,0-8.2-.22-1.01-.15-2.45-1.23-2.88-1.14.94-.22,1.72-.28,2.88-.22,2.15.57,4.96-1.37,6.11-1.23,0-1.08-1.29-1.51-2.08.07-2.74.86-7.34-1.8-9.13-.51.72.28,1.66.43,2.37.07,2.59-.07,5.04-.43,7.34.07,1.23.93,2.01,1.65,2.88,4.03,3.95,9.13,8.48,12.29,13.3,2.67,5.25-1.43,10.5.58,16.04.07,2.37-.58,4.88-1.22,7.19,0,3.74,1.72,10.14-2.37,12.58,1.36-3.24,2.16-7.12,1.79-10.64-.28-.07-.51-.57-.72-.14-.71,1.29-1,2.8-1.51,4.17-.14-1.8,1.8-3.23.44-4.96-.65,0-1.23,0-1.66.51.07.07-.07-.65-.44-.79-1.08.22-1.64,1.65-2.65,1.94-.65,0-1.08.65-1.66.65,1.58-1.72,3.81-3.02,4.89-5.11.72.07,1.66-.07,1.52-.94-.36-1-.51-2.15-1.01-3.09,1.29-3.95,3.31-8.77.57-12.72.72-5.18-4.67-6.98-8.05-8.85-1.8-.21-3.6-1.14-5.11-2.37l-.64.72c-.72-.36-1.15-1.43-2.09-1.51-.72-2.01-1.86-4.46-4.03-5.25-2.51.57-4.67-.72-6.69-1.8-.5.29-.36.93-.22,1.23,1.09,3.16,5.04,1,6.18,4.17,1.73,2.94,3.89,5.17,7.19,6.03,1.29.79,2.95.86,4.32,1.58-2.88,2.15-6.9,2.51-10.36,1.8-3.23,0-6.61-.94-9.71-1.94-.79-.58-1.94-.58-2.66-1.3-1.8-1.29-4.38-2.59-4.53-5.11-.36-1.79.51-3.02,1.08-4.67,3.09,3.6,7.77,4.89,12.58,5.25.07-.14.36-.22.29-.43-1.95-1.29-4.53-1.08-6.61-1.94-2.3-.94-5.11-2.59-5.97-5.25-.07-2.09.65-3.89.57-5.97,3.74.79,7.77-.29,9.78-3.6.86-2.23.43-5.4-1.37-7.34-1.22-.79-2.45-1.51-3.88-1.66,1.22-.43,2.66-.14,3.88.58,1.65.29,1.72,4.31,3.16,1.51.22-1.58-.28-3.17-1.22-4.46,1.58-.51.07-1.94.15-2.88-.94-1.15-2.59-1.86-2.09-3.45-1.29-2.52-4.09-4.53-6.76-4.32.57-.28,1.36.07,1.79-.57-1.36-3.31-5.68-.29-7.33-3.6-6.33-5.89-6.18-13.73-4.18-21.57,1.01-2.52,3.17-4.75,5.54-6.55,1.65-.5,4.09,0,5.25-2.15,2.94-1.29,5.4,1.43,7.77,2.88.64,1.29,2.3,2.23,2.51,3.74"/><path id="path3021" class="cls-11" d="M117.87,110.38c3.03,1.72,4.03,4.82,7.19,5.96,1.94,1.15,4.03,2.67,5.54,4.32-.72.22-1.08.94-1.8.94-1.29-2.09-3.31-3.74-5.25-4.96-.29,1.52,1.86,2.3,2.37,3.6l.94,1.51c-.51.15-1.72,1.3-1.8-.14-.94-1.94-1.8-3.95-3.6-5.54-.36,0-.86,0-.94.43l1.8,5.83-.29.36c-1.08-2.01-.43-5.39-2.66-6.76-.79,1.09.07,2.3.44,3.32.21,1.08.42,2.23.71,3.23-.36.65-1.08.07-1.66,0,.22-2.59-.28-5.25-2.22-7.12-2.16.44-2.38-2.45-4.32-3.31-2.3-1.37-5.32-3.17-7.91-1.37-1,1.37-4.03.8-2.88,3.31l.72,1.94c-1.08,5.18-.8,10.36-2.52,15.25-.51-1.73-.79-3.74-1.51-5.54-.22-2.16-2.16-4.17-1.01-6.4,1.15-3.32,1.8-6.9,2.81-10.36.28-1.86,2.16-3.31,3.88-3.74,5.25.36,9.06,4.1,13.95,5.25"/><path id="path3023" class="cls-11" d="M193.52,106.25c0,.14-.07.36.15.42.07-.07.15-.14.14-.29,2.14,2.92,2.06,7.01,3.78,10.22.17,1.8,1.57,3.57.66,5.24-1.46,2.83-1.77,6.08-2.35,9.18-1.67-4.93-1.99-10.68-2.93-15.77.56-1.01,1.25-2.32.51-3.46-.3-.36-.73-.49-1.23-.41-1.67-1.12-3.63-2.09-5.85-1.4-2.85,1.05-5.05,3.03-6.8,5.51-.22-.29-.72-.13-1.01-.13-1.83,1.83-2.36,4.43-1.96,6.87-.5.44-1.08.59-1.65.53-.19-2.45,1.22-4.19,1.39-6.5l-.51-.42c-1.91,1.69-1.57,4.48-2.4,6.73-.14,0-.22.15-.28.22.03-2.09,1.29-4.12,1.54-6.36-.22-.36-.58-.28-.94-.27-1.7,1.76-2.88,4-3.78,6.17-.36.22-1.01-.12-1.37-.41.41-.72.9-1.52,1.33-2.25.27-.94,2.41-1.7,1.6-2.9-1.84,1.53-3.97,3.08-5.16,5.19-.51-.27-.95-.7-1.53-.84.63-1.3,1.98-2.05,2.98-3.07.93-.09,1.14-.96,1.91-1.4,2.07-.9,3.84-2.45,5.17-4.41.85-.59,1.99-1.4,2.77-2.13,5.52-.82,9.93-7.58,15.67-4.3l.15.43"/><path id="path3025" class="cls-1" d="M145.84,116.2c.29,1.15.86,2.16.93,3.46.15,1.58-.28,2.87-.79,4.17-1.65,4.96-7.12,8.26-11.65,10.06-7.84,2.52-16.97,2.95-24.38-.79-2.95-2.08-6.32-4.74-5.89-8.84-.43-1.73.79-2.8,1.08-4.32.57-1.14,1.94-2.23,3.31-2.37,1.51-.43,2.51.72,3.59,1.15,1.01.86,1.15,2.09,1.52,3.17.57,1.94-3.74,4.45,0,5.54.71.14,1.43.28,2.22.43,1.81.71,3.96.51,5.98.79,5.89-.43,12.51-1.37,16.03-6.76,1.01-1.66-1.29-2.81-.93-4.32-.22-1.15.28-1.94.79-3.02,1-1.51,2.8-1.66,4.46-1.37,1.37.72,3.02,1.51,3.74,3.02"/><path id="path3027" class="cls-1" d="M158.42,115.63c0,1.51.14,3.45-1.08,4.6-.44,2.23,1.72,3.6,3.16,4.96,6.26,3.51,15.89,4.74,22.58,1.37.36-1.44-.5-1.95-1.01-3.03-.07-1.87-.5-3.17.87-4.67,1.37-1.29,3.38-1.86,5.25-1.15,2.8,1.95,3.45,5.61,2.8,8.85-1.22,3.95-5.1,6.54-8.92,7.77-.64,0-1.5.43-2.3.71-11.21,2.01-23.58-.36-30.05-9.71-1.72-2.95-1.29-7.63.79-10.35,1.44-1.44,3.53-2.15,5.54-1.66.8.65,1.95,1.23,2.38,2.3"/><path id="path3029" class="cls-1" d="M149.29,112.61v.57c-3.74.94-6.61-2.23-8.55-4.89,1.08-.94,2.52-.14,3.74-.14,2.01.71,3.88,2.51,4.82,4.46"/><path id="path3031" class="cls-1" d="M155.4,110.66c-1.22.15-2.51.94-3.88,1.08l-2.38-2.88c1.01-.57,2.59-1.29,3.89-.57,1.08.43,1.8,1.44,2.37,2.37"/><path id="path3033" class="cls-1" d="M139.73,110.81c-1.51,0-2.08,1.14-3.45,1.36l-3.45-3.59.14-.43c2.8-.51,5.25.5,6.76,2.66"/><path id="path3035" class="cls-1" d="M171.3,109.95c.43.64.43,1.86,0,2.51-.8.58-1.58,1.51-2.59.86-1.94-1-2.51-2.8-3.74-4.46,1.44-.71,2.74-.57,4.24-.57.65.51,1.65.72,2.09,1.66"/><path id="path3037" class="cls-1" d="M163.82,110.95c0,.79,1.28,1.08,1,1.94-1.37.94-3.17.8-4.6.15-1.66-.8-2.66-2.74-3.46-4.32,1.52-.94,2.3-.07,4.03-.14,1.15.5,2.23,1.29,3.03,2.37"/><path id="path3039" class="cls-1" d="M133.4,112.17v.44c-2.73.65-6.18,1-7.91-1.51-.29-.72-.07-1.58.28-2.24,3.1-1.51,5.75.8,7.63,3.31"/><path id="path3041" class="cls-11" d="M138.65,66.52c.43.79-.28,2.01.58,2.59,1.79-.22,4.82,1.23,5.53-1.22v-1.23c1.3-.43,2.88-.28,4.24-.14.58.79-.14,2.52,1.15,2.59,1.51-.65,4.24.8,4.82-1.22v-1.37c1.73-.72,3.74.14,5.54-.14.36.57.65,1.29.29,1.94-.79.28-1.94,0-2.23,1.08,0,1.22-.86,2.3-1.8,2.8-.79.72-2.59-.22-2.51,1.37-.15.58.22,1.29-.36,1.66-4.38.5-9.27.22-13.44-.15-.57-.71.07-2.3-1.37-2.73-1.22-.36-2.88-.15-3.59-1.44-.22-.72-.07-1.51-.86-2.01-.44-.36-1.23.22-1.52-.43-.79-3.52,3.81-1.94,5.54-1.94"/><path id="path3043" class="cls-11" d="M153.75,78.16c-.29.94.86,3.17-1,2.74l-11.51-.14c-.71-.87-.07-1.95,0-2.88,3.74-.22,8.2-.22,12.23,0l.29.28"/><path id="path3045" class="cls-11" d="M153.89,82.99l.36,10.49c-3.75.14-8.84,0-13.67-.14.15-3.46-.36-7.77.43-10.93l.51-.29,11.94.15.43.72"/><path id="path3047" class="cls-11" d="M155.26,94.99c.72,1.15.22,2.88.57,4.17l-.57.29-16.32-.15c-.29-1.36,0-2.87.29-4.16,5.68-.65,10.57-.07,16.03-.15"/><path id="path3049" class="cls-11" d="M157.49,101.82c.43.8.43,2.16,0,2.88-6.54-.36-13.81.15-20.49-.43-.36-.72,0-1.79.28-2.59,6.9-.22,13.81-.22,20.21.14"/><path id="path3051" class="cls-1" d="M137.79,50.2c-1.15,1.29,1.58,3.09-.65,3.16-.57-2.87-4.82.29-3.74-3.31-.29-.57-1.58-.5-1.29-1.14.72-.22,1.51-.8,1.94-1.52-.79-1.51-2.3.65-3.16-.28.22,0,1.94.14,2.37-.8-.15-1.65-2.3-.43-3.32-1l-.28.43c-.51-2.3.86-4.1.65-6.11-.58-.72.29-1.23.43-1.8,1.43,4.38,8.41,6.97,7.05,12.37"/><path id="path3053" class="cls-1" d="M169.21,49.48c.15.65-.22,1.51-.79,2.09-1.23,1.08-3.53.79-3.89,2.51,1.3,1.08,2.23-.5,3.46-.57,1,.07,2.01-.07,2.87-.58,1.15-1,1.52-2.3,2.09-3.59.36-.29.86-.15,1.29-.15-1.8,2.09.65,6.18-2.51,7.48-1.01.44-2.52.22-3.46-.57-.65-.65-1.22-1.43-2.08-1.37-.86,1.52,1.86,2.3,1.65,3.89.22,1.43-.43,2.74-1.65,3.45h-2.09c.72-.43,1.94-.57,2.37-1.65.65-1.44-.5-2.52-.71-3.75-1.09-1.36-2.88-1.94-4.18-1.65-2.01.51-4.53,1.58-4.96,3.88-.29,1.66-.29,3.89-.43,5.25-1.23-2.16-1.08-5.47.43-7.63.94-1.72,3.31-1.22,3.74-3.31,2.37-2.23,6.83-.86,7.91-4.67.57,0,.57.65.94.94"/><path id="path3055" class="cls-1" d="M140.74,54.44c-.22,1-.86,2.45,0,3.37,1.08.15,1.51-1.22,2.45-1.57l3.23-.65c-1.44.94-2.8,2.38-4.31,3.17-.51.29-.65-.43-1.09-.43-.85.51-.64,1.87-1.79,2.23.36-.65.71-1.43.5-2.09-.22-.14-.36-.43-.65-.28-.79.71-.79,1.72-1.65,2.37-.22-.43,0-1.29-.72-1.66-1.22.15-.58,3.32-2.08,1.37-.8-.07-1.15.94-1.8,1.15.28-.22.28-1.43-.58-1.58l-1.51,1.15-.14-1.37c-1.15-.5-1.87.94-2.74,1.37-.43-.79,2.59-1.29.94-2.37-.94-.15-1.37,1-2.23,1,.43-1.37,2.09-.86,2.52-2.08,1.28.79,3.23.5,4.45-.29,1.87-2.15,4.67-2.74,7.19-2.8"/><path id="path3057" class="cls-1" d="M148.86,57.53c-.43,1.58-.57,4.09.14,5.68v1.08c-1.94.36-4.6-.14-6.04.43-.36,1.01.15,1.8-.42,2.74l-1.8-.15c-.57-.93.65-2.66-1.01-3.02-.36.14-.93.14-1.22-.29-.14-1.29,1.08-1.58,1.94-2.08,1.37-1.72,3.52-2.3,4.96-3.89,1.14-.22,2.16-1.14,2.8-2.3,1.44-.07.22,1.15.65,1.8"/><path id="path3059" class="cls-1" d="M154.54,32.3c.51-.29.43-1.08,1.15-.8,1.44.94.65,4.18,3.17,3.31.86,1.51-3.09,1.23-1.51,3.03.5-.15,1.22-.29,1.36.43-.07.72.15,1.72-.71,1.94h-.36c0-.57.8-1.29-.14-1.66-.65-.14-.86.36-1.15-.28.07-.36.72-.72.29-1.23-.8-.14-1.51-1.51-2.37-.57-.51-.29-.22-1.15-.94-1.08-.57-.15-1.22.29-1.66.79-.22-1.86-.36-3.38.15-5.4,1.08.22,1.65,1.44,2.73,1.52"/><path id="path3061" class="cls-1" d="M129.94,35.1c-1.72.65.36,2.59-1.14,3.45.07,1.23.43,2.23-.29,3.32-1.08-.72-1.58-2.01-2.09-3.17.44-1.44.8-3.09,1.72-4.17l.36-1.09c.72.22.94,1.15,1.43,1.66"/><path id="path3063" class="cls-1" d="M148.5,35.74c0,.22,0,.79.5,1h.43c.15.44-.43.36-.43.72-.07.72.51,1.37,1.15,1.52.51.07.86,0,1.22-.29-.57.22-1.36.86-2.08.57-1.08-.5.29-2.37-1.22-2.52-1.01.87-.43,2.52-1.15,3.32-.29,1.22-1.44,2.3-.79,3.74-.36,1.43-1.66,1.58-2.81,2.08-1.29.29-2.66.29-3.74.86.51-3.02,4.89-1.72,5.68-4.88-1-.8-1.79.71-2.73,1l-1.52.51c-.14-.72.51-1.37.94-1.95.86-.28,1.87-1.29,2.8-.65.8-.07.43-1.08.36-1.51-.79-.72-.51-1.65-.15-2.52l.29-.28c.36.57.94,1.15,1.66,1.22.86-.86-.58-2.37.57-3.31.58.43,1.65.22,1.01,1.37"/><path id="path3065" class="cls-1" d="M148.72,46.31c-1.15,1.52-2.16,2.74-2.16,4.53.29.36.65.51,1.09.43-1.01,2.3-3.67,1.94-5.25,3.45.07-2.08,3.31-3.02,3.46-5.39-.22-.29-.43-.36-.72-.29-1.22,1.44-2.8,2.88-3.89,4.46-.85-1.87,3.24-3.31,2.67-6.12,1.79.22,3.16-3.8,4.82-1.08"/><path id="path3067" class="cls-1" d="M142.24,47.68c.51,2.09-2.37,2.88-2.81,4.6-.71-.93-.57-1.72-.21-2.94.43-1.3,1.79-1.58,3.02-1.66"/><path id="path3069" class="cls-1" d="M151.37,42.57c-.07.36-.42.51-.57.8h-.65c-.14-.43.29-.65.36-.94.29.07.65-.07.86.14"/><path id="path3071" class="cls-1" d="M156.91,44.08c.22.43-.28.43-.42.58-.8,0-.86-.86-1.09-1.44,0-.28.07-.79.43-.65,0,.65.51,1.29,1.08,1.51"/><path id="path3073" class="cls-1" d="M154.69,45.17c.65.57,1.22,1.14,1.14,2.08-.07-.07-.14-.22-.28-.14-.07.43.28.86-.29,1.29-.79-.8-.22-2.81-1.66-3.23-.93.64-.07,1.65-.14,2.51-.65-.72-2.09-1.08-1.51-2.23.72-.43,1.01-1.58,1.94-1.8l.8,1.52"/><path id="path3075" class="cls-1" d="M152.31,50.05c-.71-.65-.5-1.65-1.36-2.22.71.36,1.43,1.29,1.36,2.22"/><path id="path3077" class="cls-1" d="M150.95,52.28l-.44.94c.36-1.51-2.51-2.73-.21-3.88.42.93,1.07,1.94.65,2.94"/><path id="path3079" class="cls-1" d="M149.07,41.93l-.66-.5s-.17.58.16,1c.34.41.51-.51.51-.51"/><path id="path3081" class="cls-2" d="M152.88,41.33s.86-.65,1.54-.66c-.24.02-.95.05-.95.05,0,0-.34-.55-.34-1.59-.21,1.14-.55,1.84-.55,1.84l.3.36"/><path id="path3083" class="cls-11" d="M229.31,74.14c3.09.93,5.97,4.17,7.04,7.19,2.09,8.06,1.37,17.12-5.68,22.43-2.08.51-4.88,0-5.83,2.3.22.94,1.23,0,1.66.72-2.44-.29-4.53,1.43-6.18,3.31-.15.79-.86,1.58-.58,2.37-1.43,1.23-2.59,2.59-2.37,4.46.15.29.43.36.72.36-1.08,1.51-1.8,3.59-.86,5.17.14.22.29.43.57.36.94-1.65,2.09-2.8,3.88-3.31h2.23c-1.94.58-4.31,1.37-5.03,3.6-.93,1.72-.93,3.95,0,5.68,1.72,2.45,4.61,4.03,7.92,3.75l1.5-.44c.15,2.81,1.73,6.26-.79,8.35-2.8,3.23-6.83,3.66-10.63,4.53-.15.14-.44.29-.44.57,1.09.87,2.37-.36,3.74-.14,3.32-1,6.62-1.94,9.13-4.82.79,1.87,1.66,4.38.43,6.32-1.44,1.66-3.45,3.31-5.54,4.03-5.03,2.38-11.14,3.6-17.04,2.66h-.43c-.28-.36-1-.36-1.51-.57-.51-.72-2.01-.22-1.94-1.37,4.82-1.08,9.71-3.6,12.01-8.2,1.36-2.23,5.39-.86,5.68-4.38-.8-.57-1.51.51-2.3.79-1.72.44-3.09,1.08-4.89.72-2.16.86-3.23,3.24-3.73,5.25-.94.07-1.38,1.15-2.09,1.51-1.08-1.57-2.16,1.01-3.31,1.23-1.09.29-1.73.07-2.74.58-2.74,1.65-6.69,2.94-7.62,6.54.28,3.17-2.3,5.75-1.3,8.55.29,3.03,3.24,6.11.86,9.13-.28.65.44,1.14.87,1.22.93-.36,1,.58,1.37,1.01,1.22,1.43,2.94,2.59,4.38,3.88-1.66.14-3.24-1.22-4.24-2.37-.22.22-.73.22-.73.57,1.09,1.87,1.95,4.38,4.18,5.11.29.22.07.65.43.72.15-.79,1.08-.29,1.52-.29.14.22.36.29.28.51-3.38.94-4.6-2.74-6.26-4.82.07-.65-.22-1.23-.71-1.51-.65,0-1.37,0-1.52.57.72,3.6,1.72,7.41,4.89,10.07-4.02-1.81-3.66-6.62-5.54-9.85-.43-.22-.79.29-.86.57.15,3.67.58,7.26,2.23,10.29-2.3-.43-2.45-3.09-2.95-4.89-.36-4.17.94-8.2-.79-11.86.07-4.38.57-9.56-.43-14.02.36-1.94.29-4.09,1.22-5.83,1.66-2.15,3.32-4.24,5.32-6.03l.22.14.57-1.15,6.9-6.9c.36-2.95-.65-6.47.14-9.56,0-.51.86-1.08.14-1.51-1.22.5-1.37,1.94-1.79,3.02-.3,2.8.57,5.54-.8,7.91-1.08.51-1.51-.07-1.8-1.08,0-2.23-.65-4.24,0-6.25.07-.51-.07-.94-.43-1.38-1.51.36-.79,2.16-1.15,3.17v7.91c-1.72-6.61-1.22-13.66,2.95-19.41,1.65-8.77,8.7-17.32,17.04-20.99,1.58-.57,3.16-2.95,4.96-1.29.28,0,.57-.07.71-.29.14-.65-.57-.5-.71-.94,1.08-1,2.51.8,4.17.15.28-.07.14-.36.14-.58-.51-.43-1.15-.36-1.66-.93,1.58.5,3.38-.07,4.24-1.15-.79-.51-1.57.36-2.22-.29.43-.93,1.57-1.94,2.51-2.74.94-2.08,3.02-4.09,2.23-6.54-1.15.36-.94,1.8-1.37,2.66-.72.94-.79,2.45-2.23,2.66-1.22,0-2.23-.07-3.17,1.08-1.14-.94-2.01,1.23-3.23.43-2.3-.5-2.01-3.37-3.88-4.31-1.01,1.08.71,3.45-1.51,3.74-1.09.22-2.3.65-2.74,1.8.07,1.37.15,2.88-1.28,3.45l-.51-.14c.51-.94,1.29-1.94.79-3.17-.14-.79-1.08-1.15-1.65-1.51-3.02-.36-4.82,5.17-7.77,1.66-.5-8.27,9.71-10.86,12.23-17.62,2.3-2.15,4.96-4.6,8.26-4.38,1.37.86,2.52,2.37,4.46,2.09"/><path id="path3085" class="cls-11" d="M232.19,153.74c-5.03,5.46-12.01,7.69-19.2,7.19-1.8-.36-3.03-.86-4.75-1.51-1.86-.94-2.51-2.95-3.45-4.61,7.77,1.66,15.67.07,22.01-3.74,1.43-1.22,2.94-2.37,4.45-3.59.72,1.94,2.37,4.17.94,6.26"/><path id="path3087" class="cls-11" d="M234.99,156.32c.58,1,.51,2.45.29,3.6-2.37,4.38-7.41,6.17-12.08,6.97-5.11-.07-11.79,1.15-13.95-5.03l-.14-.15c1.37-.14,3.23.94,5.1.72,7.41.58,14.6-2.51,19.27-8.05,1.15.14.86,1.37,1.51,1.94"/><path id="path3089" class="cls-11" d="M238.02,163.66c.57,2.15-1.23,3.37-2.09,4.89-5.25,3.95-13.3,6.61-19.49,2.88-.79-1.15-1.72-2.23-2.37-3.46,3.38.29,7.84,1.44,11.5.15,3.31-.72,6.11-2.45,8.84-4.61.72-.79,1.44-2.01,2.37-2.3l1.23,2.45"/><path id="path3091" class="cls-11" d="M240.39,169.77c-.57,3.81-4.89,6.9-8.34,7.91-3.45,1.01-8.06,1.58-10.92-1l-1.8-2.09c2.87-.07,6.9.29,9.85-.93,2.3-.51,4.6-2.09,6.76-3.32,1.23-1.08,1.87-2.73,3.31-3.59.65.86.58,2.08,1.15,3.02"/><path id="path3093" class="cls-11" d="M241.9,174.23c.57,1.65.28,3.74-.94,4.96-2.87,3.88-7.76,5.03-12.51,4.17-1.94-.58-3.17-1.66-4.38-3.24,6.47.72,13.8-1.51,16.75-7.83.72.28.65,1.37,1.09,1.94"/><path id="path3095" class="cls-11" d="M242.76,184.29c-2.73,3.52-7.77,3.89-11.65,3.17-1.08-.43-1.8-1.51-2.37-2.45,5.31.8,11.21-1.08,14.24-6.11.79,1.57.93,3.88-.22,5.39"/><path id="path3097" class="cls-11" d="M243.84,189.97c-2.88,2.01-7.19,2.59-10.5,1.22-.79-.29-.86-1.22-1.29-1.8,4.24.15,9.13-.36,11.94-4.38.65,1.44.79,3.67-.14,4.96"/><path id="path3099" class="cls-11" d="M243.4,195.36c-2.22,1.37-5.74,1.23-8.26.15-.43-.65-1.15-1.37-.86-2.09,3.52.65,7.11-.29,10-2.09-.29,1.01.65,3.24-.87,4.03"/><path id="path3101" class="cls-11" d="M243.11,199.25c-2.01,1.65-5.17,1.29-7.33.29-.86-.65-.57-1.23-.65-2.24,2.44.72,6.04,1.3,8.41-.43.07.72-.07,1.66-.44,2.38"/><path id="path3103" class="cls-11" d="M242.33,201.33c-.36,1.44-1.14,2.66-1.94,3.89-1.65.29-3.6.36-4.74-1.01-.43-1.08-1.01-1.86-.36-3.02,2.23.72,4.82,1.22,7.04.14"/><path id="path3105" class="cls-11" d="M237.59,206.72c.57-.43,1.36-.29,1.94-.15-3.09,4.24-7.34,7.48-12.15,8.35-3.38-.07-6.69,1.22-8.98-1.58-.43-1.08.07-2.15.79-3.02,3.88-2.88,8.49-2.88,12.87-4.67l.14.22c-1,2.01-3.23,3.74-5.11,4.89v.43c2.01.65,3.23-1.58,5.11-1.95.22,1.23,1.58,1.23,2.38,1.37.14-.14.42-.28.42-.57-.78-.57-1.72-.86-1.94-1.94.36-1.08.51-2.23,1.52-3.03.65,1.01,1.86,1.44,3.02,1.66"/><path id="path3107" class="cls-11" d="M222.41,68.18l-.86-.87-.42.58c.21.14.07.43.14.57-.51-1.29-.94-2.8-.8-4.17,1.01,1.15,1.8,2.37,1.94,3.89"/><path id="path3109" class="cls-11" d="M219.04,69.54c.14.29-.87-.57-1.08.29v.72c-.65-.72-1.3-1.66-.86-2.66.79.14,1.57.86,1.94,1.65"/><path id="path3111" class="cls-1" d="M193.72,131.02c.43,3.23,2.01,5.96,2.66,9.13-1.43,1.23-3.31-.72-4.31,1.23-2.37,2.94,1.15,7.83-2.52,10.28-2.09,4.53-.65,10.28-.51,14.67-.5,3.31-.43,7.11.65,10.64-3.32-13.24-9.71-27.33-3.75-40.99,1.58-2.59,4.1-5.4,7.34-5.4l.43.44"/><path id="path3113" class="cls-1" d="M229.31,66.38c.43,1.43-1.44,2.73-.14,3.59,1.58-1.14,1.51-4.17,4.03-4.31,0,1.65-1.01,3.23-1.3,4.89l.29.36c1.8-1.08,1.8-3.45,4.03-3.81.14,1.87-1.23,3.46-1.8,5.11,1.15.51,1.51-1,2.52-1.51.65-.22,1.15-.79,1.94-.57-.57,1.51-2.59,2.59-2.23,4.17,1.44,0,2.09-2.37,3.74-2.23-.72,1.58-3.02,2.45-2.37,4.17,1.57-.29,2.37-2.45,4.17-2.08-.43,1.51-3.52,2.51-2.52,4.38,1.09-.29,1.8-1.66,3.09-1.37-1.08.86-3.23,1.8-2.8,3.45,1.58-.43,2.88-2.37,4.6-1.65-.21.5-1.15.72-1,1.51.14.79,1,.57,1.51,1-1.22-.65-2.52-.07-3.46.65.3,1.15,1.66.15,2.24.87-.36.14-.86,0-1.09.43.36,1.08,1.73,1.36,2.88,1.36,1.23.58,1.8,1.8,2.38,2.88-2.01,0-2.88-1.8-4.75-1.94-.43,0-.65.65-.28.86,1.65,1.72,4.82,2.81,4.88,5.54-1.8-.86-3.37-2.3-5.54-2.37-.57,1.43,1.37,1.51,2.09,2.23,1,.94,1.86,1.94,2.09,3.17-1.3-1.29-3.03-2.88-4.9-2.74-.28.22-.14.65-.14.94.22.65.94.28,1.29.57,3.09,2.01,2.59,5.83,3.96,8.7-3.03-1-2.88-4.75-5.76-5.83-1,1,1.09,1.94,1.37,2.95,1.44,2.59,2.38,6.18.94,8.98-4.03,4.03-10.14,5.9-11.36,11.79-1.8,4.09-8.05,3.38-7.83,8.55-1.01-.86-.36-2.3-.15-3.31,1.58-3.02,5.9-1.8,6.76-5.11-.22-.36-.58-.29-.94-.29-2.66,2.15-7.4,2.67-7.91,6.9-.15,1.09.57,1.87.79,2.88-1.36-.65-2.37-2.3-2.59-3.74.14-2.01,1.09-3.74,3.02-4.67,2.8-.72,6.12-1.29,8.49-3.59.07-.29,0-.58-.29-.72-1.86.65-4.09,1.29-6.11.57-2.16-.86-4.6.22-6.47,1.37,0-1.15,1.08-2.01,1.94-2.74,3.67-1.36,7.26,1.15,11.29.51.44-.43.86-1.01.72-1.8.72-.28,1.66-.65,1.95-1.37-.72-.36-2.09,0-3.03-.28-2.51-.94-2.3-4.46-5.4-4.53h-2.65c.93-.86,2.36-.86,3.59-.57,3.31,1.15,4.03,6.4,8.34,4.46.51-.36,1.3-.15,1.66-.87l-.57-.57c-1.44-.22-3.17.36-4.32-.5-1.37-1.73-1.51-4.1-3.59-5.4,1.08-.15,2.22.29,3.3.79,2.01,2.3,4.24,5.04,7.63,3.89.43-.29,1.08-.29,1.43-.94l-.14-.43c-2.08-.29-5.32.43-6.4-2.23-.36-.51,0-1,.15-1.52,1.5,1.59,3.8,3.67,6.61,2.88.72-.65,2.3-.43,2.37-1.8-.94-1.23-1.72.36-2.74.29-1.23.07-2.44,0-3.23-.94-1.52-3.89,3.17-6.33,2.66-10.43,1.51-7.98-.36-17.76-7.91-22.79-1.95-1.08-4.04-2.01-6.19-2.66-.57-1.15,1.01-1.94,1.52-2.74.21-.79.79-1.51.64-2.51.51.36.8,1.15,1.01,1.8"/><path id="path3115" class="cls-1" d="M229.74,115.34c-3.02.86-5.54-3.95-9.13-2.01,1.37-1.51,3.46-1.37,5.25-1,1.59.57,2.09,2.88,3.89,3.02"/><path id="path3117" class="cls-1" d="M234.85,133.53c-.51,2.15-1.65,5.32-.14,7.48.65,1.44,1.94,2.45,3.02,3.46-1.14,1.94-2.16,4.31-.65,6.32.94,1.72,4.46,1.8,2.3,4.17-.58,1.29-.51,2.37-.51,3.89-3.95-8.7-7.69-18.13-7.19-28.11.94,1,1.94,2.37,3.17,2.8"/><path id="path3119" class="cls-1" d="M243.55,164.23c-.29,1.72-1.95,3.23-.94,5.11.79,1.43,2.09,2.74,3.45,3.45-.65,1.23-1,2.66-1.51,4.04-1.86-5.18-2.8-10.79-4.89-15.9,1.09,1.37,2.59,2.23,3.89,3.31"/><path id="path3121" class="cls-1" d="M247.29,182.64l-1.51,1.65c-.36-1.43-.43-3.02-.58-4.53.51,1.29,1.66,1.51,2.09,2.88"/><path id="path3123" class="cls-4" d="M192.16,128.51c-.46.14.53-.72.6-1.25.07-.54.33,1.19.33,1.19,0,0-.46-.07-.93.06"/><path id="path3125" class="cls-11" d="M219.47,115.78l.57-.44h.43l-1,.44"/><path id="path3127" class="cls-1" d="M227.95,127.13c.57,1,.22,2.3.36,3.45-.43.65-1.07,0-1.5,0-.87-.57-1.37-1.57-.94-2.59.36-.51.51-1.29,1.09-1.58.72-.29.65.65,1,.72"/><path id="path3129" class="cls-7" d="M223.06,77.45c.8-.29,1.73-.07,2.38.43.36.79-.58.86-.86,1.22-3.03.72-5.4,3.89-8.84,2.23.14-.8.79-1.44,1.15-2.23.57-.79,1.36-1.51,2.3-1.8,1.29.07,2.74,1.94,3.88.15"/><path id="path3131" class="cls-11" d="M244.27,167.83c-.58-1.95,4.67-4.75,0-5.11-.87-.58-1.95-1.15-2.37-2.23,2.8-.65,5.67-1.08,8.69-1.37.43.29,1.08.15,1.43.65.86.43.65,1.72.51,2.52-.79.79-1.66,1.8-2.44,2.23,0,.29-.57.72,0,.94-1.74,1.06-5.25,2.23-5.82,2.37"/><path id="path3133" class="cls-1" d="M254.63,123.25c1.37,1.36,2.3,3.16,4.17,4.02.43-.07.65-.51.79-.86,1.95,2.23,2.74,5.32,3.89,8.06.29,0,.65.07.86-.29.79,2.08.29,3.95.42,6.4,1.44,2.37.51,5.61-.28,7.98-.51,2.01-2.94,2.45-3.45,4.46.72.86,1.29,0,2.08-.15,1.72-.28,3.03.36,4.24,1.23-.57,1.8-1.72,3.74-3.59,4.6-.43.15-.58.58-.43,1.08,1.43,1.09,3.52.65,4.74,2.37,1.51,1.58,2.08,3.53,2.88,5.4-1.43.72.07,2.01-.14,3.09-.22,1.66,2.01,3.74.14,5.11-.51,1.87-1.15,3.67-1.08,5.68-1.58,1.87-2.09,4.18-4.46,5.25-1.29.79-2.52,2.15-3.45,3.31-.72-1.44.65-3.02.57-4.67,1.08-3.46,3.23-6.83,1.8-10.86-.94-3.74-4.1-6.61-7.77-7.55-3.6-.43-7.34-.43-10.5.51-.57.14-1.22.29-1.79.43,2.8-1.04,4.04-1.6,5.82-2.37,1.58-1.09,3.89-2.09,4.24-4.24-.22-.87-.29-1.87-.79-2.66-1.8-1.66-3.81-.58-5.98-.94l-3.16.36c5.68-3.8,10-10.06,11.07-16.97.71-5.82-.58-12.08-1.15-17.75h.29"/><path id="path3135" class="cls-7" d="M257.29,127.7c2.66,7.91,1.72,16.97-1.51,24.24-.29.57-.94,1.29-1.58.79-.51-1.15.57-2.37,1.14-3.46,2.16-5.82,3.6-12.51,1.66-18.83-.36-1.01-.65-2.08-.29-3.17.22,0,.43.29.58.43"/><path id="path3137" class="cls-7" d="M262.39,139.21v.51h-.43v-.79c.21,0,.43.07.43.28"/><path id="path3139" class="cls-7" d="M260.59,149.71c-1.08,1.36-1.58,3.6-3.6,3.88-.86-1.86,1.87-2.66,2.23-4.45,1.58-2.45,1.94-5.4,2.59-8.27l.43-.29c.15,3.17-.71,6.26-1.65,9.13"/><path id="path3141" class="cls-7" d="M267.07,166.46c1.58,2.59,2.37,6.11,1.58,9.13-.58-.79-.08-1.51-.44-2.37-.65-3.67-2.37-7.13-5.82-9.56-.07-.51.22-1.15.94-.94,1.43,1,2.65,2.3,3.74,3.74"/><path id="path3143" class="cls-7" d="M266.41,177.96c-.65,3.31-1.5,6.9-3.31,9.92-.22-.14-.29-.51-.29-.93.29-.73.73-1.44.8-2.38.72-2.59,1.66-5.11,1.95-7.91-.15-3.24-1.73-6.18-4.03-8.7-.15-.36,0-.79.43-.86,3.6,2.38,4.96,6.98,4.45,10.86"/><path id="path3145" class="cls-8" d="M277.92,204.78c.58,4.75-4.02,8.99-7.48,11.51l-2.66,1.65c-1.43-3.23-2.66-6.9-3.6-10.49,2.88-2.45,6.55-3.09,10.21-4.03,1.3.65,2.74-.22,3.52,1.36h0Z"/><path id="path3147" class="cls-8" d="M286.62,211.4c1.58,6.75,6.04,12.8,4.82,20.49-4.74,10.14-15.89,14.81-25.16,19.13-1.08.28-2.09.71-3.31.71-2.74-7.4-4.82-15.03-6.83-22.72.94-.5,2.51-.36,3.6-1.08,9.85-3.31,21.21-8.41,25.38-19.27.71.51,1.01,1.8,1.51,2.74h0Z"/><path id="path3149" class="cls-9" d="M247.15,227.93c-.15.65-.87,1.22-1.37,1.51-1.15.72-2.23,1.44-3.46,1.94.72-1.14,2.95-2.87,4.82-3.45Z"/><path id="path3151" class="cls-8" d="M64.59,243.97c12.08,3.52,24.02,7.19,36.53,9.56,9.92,2.66,20.92,3.46,31.71,4.53,15.74,2.01,31.7-.43,46.65-1.95,11.65-1.65,22.93-4.31,34.02-7.47,13.09-3.67,26.38-6.76,37.81-14.38l2.88-3.32.57.58c2.16,8.55,4.96,16.83,7.91,25.02.72,2.94,1.44,6.83-1.14,8.98-19.7,11.21-41.2,16.46-63.49,21.35-4.53.51-9.42,1.44-13.88,2.09-16.17,2.01-34.07,2.44-50.76,2.01-5.75-.22-11-.72-16.61-1.37-8.26-.36-16.03-2.09-23.95-3.46-20.78-4.45-41.7-9.84-60.11-20.2-2.3-1.65-2.8-4.09-2.37-6.61,2.16-7.91,5.25-15.38,7.48-23.3.51-1.86.86-3.74,1.8-5.39,6.9,7.55,16.1,10.14,24.95,13.3h0Z"/><path id="path3153" class="cls-9" d="M230.54,231.38c-2.59,1.52-5.32,2.15-8.27,1.95-.29-.86,1.08-.58,1.51-1.15,2.3-.65,4.24-.65,6.76-.8Z"/><path id="path3155" class="cls-9" d="M220.61,239.8c-.71.36-2.3.86-3.73.86-.36-.43-.29-1.3-.29-1.8l4.02.94Z"/><path id="path3157" class="cls-1" d="M282.6,201.04c2.65,5.98-1.09,11.65-5.25,15.68-5.4,4.74-11.94,7.48-18.55,9.63l-3.17.43c.29-.71-.57-1.08-.29-1.8,9.28-3.02,18.91-6.97,24.24-16.46.65-1.58.8-3.52,0-5.11-1.66-2.23-4.03-1.58-6.4-1.51-3.74,1.08-7.48,2.01-10.64,4.38l-.43,1c1.44,3.81,2.52,7.7,3.74,11.58-.72.51-1.72.86-2.51,1.29-1.58-2.3-1.87-5.46-3.17-8.05-.14-2.74-4.03-6.26-.43-8.27,5.39-2.81,11.29-4.96,17.47-5.54,1.94.07,4.09.86,5.4,2.73"/><path id="path3159" class="cls-1" d="M66.82,234.7c2.59.57,5.89,1.07,7.83-1.01.58-1.51-1.22-2.23-2.01-2.88-4.03-1.94-9.13-1.72-13.73-1.94-.72-.58-1.44-1.01-2.09-1.8,5.61-.65,11.58.36,16.9,1.51,1.72,1.22,4.53,1.58,4.96,4.17.36,1.66-.51,3.17-1.81,3.75-4.17,1.72-7.76.71-12.15.14-4.31-.8-7.97-3.24-11.21-6.69-2.52-2.45-5.25-5.54-8.69-4.38-.65.65-.73,1.72-.43,2.59l.79,1.29c5.68,4.46,12.15,6.9,18.7,9.13,2.37.72,4.96,1.86,7.62,2.59,16.03,4.24,31.21,9.21,48.32,10.93,7.11,1.22,15.38,1.51,22.57,2.22l.29-.28c21.14.07,40.05-2.37,59.74-7.19,4.24-1.14,7.92-2.3,12.23-3.31,9.49-2.37,18.98-5.68,27.97-9.85,2.66-2.01,7.84-2.88,7.05-7.34-.58-1.15-2.1-.94-3.17-.79-5.83,2.59-9.21,10.07-15.68,10.93-5.17.57-11.43,3.16-15.24-1.66-.07-1.23-.07-2.52.72-3.46,3.45-3.3,8.27-3.37,12.87-4.17h8.27c-1.38,3.67-5.61,1.15-7.99,2.09-3.16.5-6.83.57-9.42,2.88-.29.57-.79,1.36-.14,1.94,3.52,2.66,8.34.29,12-.94,6.47-3.31,11.21-12.51,19.7-9.56,1.08.42,1.8,1.65,1.95,2.73-.07,2.74-1.95,5.11-4.18,6.55-4.88,3.8-10.63,5.89-16.32,8.12-19.49,6.55-40.26,11.43-61.33,14.16-6.12.29-12.3,1.22-18.56,1.51-14.8.14-29.4-1-43.85-3.6-1.15.29-2.23-.5-3.45-.43-18.84-4.24-37.6-8.34-55.15-16.17-4.1-2.38-11-5.25-10.07-11.22.86-1.65,2.45-2.3,4.18-2.66,8.91.29,13.51,10.57,22,12.08"/><path id="path3161" class="cls-8" d="M30.01,207.16l-3.6,10.35c-4.46-2.15-8.63-5.96-10.43-10.78-.07-1-.07-2.09.57-2.88,2.81-1.37,5.9,0,8.55.65,1.73.72,3.46,1.72,4.9,2.66Z"/><path id="path3163" class="cls-8" d="M12.53,214.92c6.47,7.98,16.11,10.78,25.17,13.81-.22,2.65-1.44,5.25-2.01,7.91-1.29,4.24-2.66,8.4-4.03,12.58-.86.65,0,3.23-1.94,2.23-8.56-2.8-16.68-6.9-23.44-13.73-2.95-3.31-5.69-7.4-4.1-11.87,1.52-5.68,4.17-10.92,5.83-16.61l.65-1.14c.86,2.45,2.23,4.82,3.88,6.83h0Z"/><path id="path3165" class="cls-9" d="M51.87,231.24c-1.8-.71-4.1-1.94-4.75-3.6,1.87.58,3.38,2.23,4.75,3.6Z"/><path id="path3167" class="cls-9" d="M71.93,232.75c0,.86-1.08.22-1.51.58-2.01-.43-4.67-.65-6.41-2.09,2.81.14,5.62.14,7.92,1.51h0Z"/><path id="path3169" class="cls-9" d="M77.75,238.72c-.29.65,0,1.66-.72,1.95l-3.46-1.01c1.38-.43,2.81-.57,4.18-.94Z"/><path id="path3171" class="cls-1" d="M29.43,201.19c2.23,1.15,4.75,1.72,6.61,3.74-.51,3.17-2.08,5.83-2.88,8.84-1,1.94-1.08,4.24-2.23,6.12-.93-.15-1.86-.8-2.51-1.23.22-1.8,1.08-3.88,1.43-5.68.8-1.8,1.66-3.6,2.09-5.54.43-1.51-1.29-2.09-2.23-2.67-3.89-2.22-8.7-3.74-13.16-3.3-1.08.29-2.16,1.22-2.51,2.23-.86,6.61,5.39,11.21,10.14,14.66,4.53,2.74,9.27,4.67,14.23,6.33.36.5,0,1.37-.28,1.94-5.83-1.15-11.29-3.38-16.33-6.47-6.32-3.52-12.29-10-11.21-17.32.43-2.38,2.74-4.39,5.11-4.82,4.82-.07,9.49,1.66,13.73,3.17"/><path id="path3173" class="cls-7" d="M39.77,260.45c1.26.35,1.87.43,2.41-.89l3.83-9.48c-.56-1.83-.86-2.02-1.12-2.13l.2-.5,4.22,1.71,3.49,11.35h.04s2.45-6.05,2.45-6.05c.48-1.2.51-1.96-1.06-2.74l.2-.49,4.3,1.73-.2.5c-1.52-.4-1.82.02-2.21.98l-4.76,11.78-.56-.23-4.52-14.44-.04-.02-3.23,8.01c-.58,1.44-.31,1.99,1.1,2.75l-.2.5-4.54-1.83.2-.51"/><path id="path3175" class="cls-7" d="M58.9,253.1l11.84,3.85-1.33,4.13-.51-.17c.47-3.07-.81-4.05-3.58-4.96-1.14-.36-1.52-.4-1.82.47l-1.55,4.77c1.96.65,3.19.46,4.33-1.98l.53.17-2.25,6.94-.54-.17c.59-2.64-.26-3.6-2.29-4.26l-1.61,4.96c-.3.9.02,1.28,1.34,1.71,2.01.65,4.28.8,6.58-1.87l.57.18-2.2,4-12-3.9.17-.51c1.21.26,1.86.4,2.28-.88l3.22-9.92c.44-1.36-.41-1.68-1.33-2.05l.17-.51"/><path id="path3177" class="cls-7" d="M91.29,262.47c-.75-.11-1.33.29-1.77,1.01l-7.12,11.69-.56-.14-1.27-10.65-.14-.02-6.1,8.95-.59-.14-1.53-13.68c-.12-1.09-.29-1.34-1.14-1.67l.12-.53,6.18,1.43-.12.53c-.77-.12-1.37-.21-1.55.57-.05.22-.04.47,0,.73l.75,8.16h.04s3.95-5.84,3.95-5.84l-.27-2.19c-.17-.52-.35-.81-1.34-1.09l.12-.52,6.56,1.51-.12.53c-.92-.15-1.53-.27-1.7.45-.06.25,0,.8.02,1.23l.64,7.51.04.02,3.98-6.61c.12-.2.26-.41.36-.85.2-.86-.53-1.05-1.24-1.26l.12-.52,3.83.89-.12.52"/><path id="path3179" class="cls-7" d="M102.74,275.73c-1.83,1.52-3.7,2.59-6.43,2.16-4.96-.79-7.09-4.71-6.46-8.69.69-4.33,4.28-7.16,8.75-6.46,1.91.31,3.4,1.61,3.95,1.7.57.09.84-.32,1.14-.83l.58.09-.8,4.99-.53-.09c-.46-1.96-1.85-4.74-4.28-5.13-3.11-.49-4.46,2.64-5.03,6.23-.2,1.28-.39,3.35.17,4.83.65,1.68,2.29,2.26,2.95,2.37,1.66.27,3.36-.12,5.44-1.82l.56.64"/><path id="path3181" class="cls-7" d="M116.29,280.3l-6.94-.86.07-.53c1.34.06,1.73.08,1.82-.62.07-.57-.42-2.25-.64-2.97l-4.82-.59c-.79,1.47-1.23,2.3-1.28,2.64-.1.81.92,1,1.65,1.13l-.07.54-4.34-.53.07-.54c1.19-.02,1.57-.71,2.4-2.24l6.2-11.16.6.07,3.39,11.85c.68,2.4.94,3.17,1.96,3.26l-.06.54ZM110.38,274.44l-1.52-5.46-2.65,4.96,4.18.51"/><path id="path3183" class="cls-7" d="M126.89,270.66c-.28-1.53-1.4-4.09-3.94-4.28-1.13-.07-2.35.49-2.45,1.88-.08,1.17.3,1.67,2.05,2.7l3.05,1.79c.7.41,2.25,1.77,2.09,4.13-.13,1.88-1.69,4.39-5.65,4.12-2.05-.15-2.96-.94-3.63-.99-.45-.03-.59.35-.7.69l-.62-.04.37-5.31.62.04c.28,2.2,1.36,4.72,4.09,4.91,2.59.17,2.84-1.94,2.86-2.22.11-1.44-.87-2.03-2.22-2.79l-1.39-.79c-3.56-2.03-3.43-3.88-3.37-4.87.1-1.31.97-4.19,5.06-3.9,1.72.12,2.69.9,3.31.94.5.04.62-.27.76-.68l.65.05-.32,4.67-.61-.04"/><path id="path3185" class="cls-7" d="M138.72,281.49l-7.69-.27.02-.54c1.58-.07,2.1-.1,2.16-1.91l.4-11.35c-1.51.03-3.74.07-4.29,3.5l-.62-.02.22-4.33,12.94.46-.11,4.33-.63-.02c-.31-3.46-2.53-3.66-4.01-3.79l-.4,11.36c-.07,1.82.46,1.89,2.05,2.05l-.02.55"/><path id="path3187" class="cls-7" d="M154.93,281.63h-12.47v-.54c1.21-.15,1.86-.22,1.86-1.53v-10.44c0-1.43-.89-1.47-1.86-1.53v-.55h7.53v.55c-1.51.06-2.17.08-2.17,1.98v10.17c0,1.04.47,1.21,1.91,1.21,3.26,0,4.47-1.79,5.45-4.22h.63l-.89,4.89"/><path id="path3189" class="cls-7" d="M155.37,267.02l12.42-.65.23,4.33-.54.03c-.65-3.04-2.22-3.5-5.12-3.35-1.19.07-1.57.17-1.52,1.1l.27,4.99c2.07-.08,3.14-.7,3.32-3.39l.56-.02.38,7.28-.56.02c-.4-2.68-1.53-3.27-3.66-3.15l.27,5.21c.05.95.47,1.19,1.86,1.11,2.11-.1,4.29-.78,5.47-4.1l.61-.03-.63,4.53-12.6.65-.03-.53c1.23-.2,1.89-.3,1.82-1.63l-.56-10.42c-.07-1.43-.98-1.42-1.97-1.43l-.02-.54"/><path id="path3191" class="cls-7" d="M187.82,265.09c-1.16.29-1.63.58-1.48,2l.72,6.85c.13,1.26.03,3.21-.76,4.26-.95,1.28-2.78,1.88-4.07,2.01-.94.1-2.97.18-4.49-.89-1-.72-1.64-1.41-1.89-3.72l-.75-7.17c-.19-1.81-.75-1.79-1.96-1.79l-.06-.53,7.25-.76.06.53c-1.41.22-2.07.31-1.87,2.2l.75,7.16c.12,1.23.44,4.18,3.52,3.85,3.78-.39,3.48-3.68,3.33-5.05l-.69-6.55c-.13-1.31-.46-2.01-2.32-1.91l-.06-.53,4.72-.49.06.53"/><path id="path3193" class="cls-7" d="M189.99,278.31c1.25-.36,1.82-.6,1.61-2.01l-1.61-10.1c-1.43-1.28-1.77-1.29-2.05-1.24l-.09-.54,4.5-.71,8.84,7.93h.03s-1.02-6.46-1.02-6.46c-.2-1.28-.57-1.94-2.31-1.8l-.08-.53,4.58-.72.08.53c-1.5.43-1.55.94-1.38,1.96l1.98,12.55-.6.09-11.31-10.04h-.04s1.35,8.52,1.35,8.52c.24,1.54.75,1.87,2.35,1.79l.08.54-4.83.76-.08-.53"/><path id="path3195" class="cls-7" d="M212.88,274.61l-7.38,1.57-.12-.53c1.12-.35,1.92-.61,1.65-1.91l-2.17-10.21c-.3-1.39-1.3-1.23-2.29-1.09l-.11-.52,7.38-1.57.11.53c-.98.25-1.99.49-1.68,1.92l2.17,10.21c.29,1.35,1.14,1.23,2.32,1.07l.12.53"/><path id="path3197" class="cls-7" d="M223.98,271.71l-7.44,2-.13-.52c1.48-.54,1.97-.71,1.51-2.46l-2.95-10.98c-1.43.47-3.56,1.16-3.07,4.6l-.61.16-1.05-4.2,12.5-3.35,1.16,4.18-.61.17c-1.31-3.22-3.48-2.75-4.94-2.45l2.94,10.98c.47,1.77.99,1.67,2.55,1.37l.14.52"/><path id="path3199" class="cls-7" d="M223.59,256.69l11.76-4.04,1.42,4.1-.51.17c-1.48-2.73-3.09-2.74-5.84-1.8-1.13.39-1.47.6-1.17,1.48l1.63,4.73c1.96-.65,2.83-1.54,2.26-4.18l.53-.18,2.37,6.9-.53.18c-1.13-2.46-2.37-2.72-4.39-2.02l1.7,4.93c.31.9.78,1.01,2.11.56,2-.69,3.9-1.94,4.13-5.46l.56-.19.65,4.53-11.94,4.1-.17-.51c1.11-.52,1.72-.8,1.29-2.07l-3.4-9.87c-.46-1.34-1.34-1.09-2.3-.83l-.17-.51"/><path id="path3201" class="cls-7" d="M242.12,265c1.24-.56,1.38-1.3,1.05-2.02l-4.33-9.72c-.53-1.2-1.42-.85-2.22-.59l-.22-.5,6.02-2.67c5.52-2.46,8.84.17,10.19,3.2,1.61,3.63.85,7.65-4.04,10.02l-6.23,2.78-.22-.5h0ZM246.35,261.51c.36.79.69,1.06,1.63.65,2.2-.99,3.38-3.02,1.28-7.72-.8-1.8-3.12-5.79-6.51-4.29-1.27.56-1.03,1.04-.81,1.48l4.4,9.89"/><path id="path3203" class="cls-7" d="M74.02,78.16c.79-.79,1.94-.79,2.87-.28,1.08.86,1.87,2.37,2.52,3.59-1.58-.07-3.81.94-5.25-.28-1.29-1.3-2.88-1.73-4.46-2.38-.07-.22-.29-.57,0-.79.43-.57,1.15-.57,1.94-.57.8.28,1.44,1.36,2.38.71"/><path id="path3205" class="cls-7" d="M87.46,89.1c-.07.22-.36.29-.29.51.65-.07,1.51.07,2.09.43.79.79.22,1.72.22,2.66-.43.5-1.23.36-1.66.14-.72-.36-.65-1.15-1.22-1.58-.29.29-.07,1.15-.72,1-.65-1-1.29-2.01-1.66-3.16.36.07,1.09.57,1.66.14.36-.43.86-.79,1.43-.86.29.15.15.51.15.72"/><path id="path3207" class="cls-5" d="M77.5,80.82l-1.48.18c-.41.05-.89-.07-1.29-.5-.12-.11-.22-.3-.39-.4.19-.02.31-.06.46-.23,0,0,.16.82,1.05.82.63,0,.93-.66.93-.66l.72.79"/><path id="path3209" class="cls-7" d="M210.48,88.96h.42c-.28.93-1.22,1.94-1.51,3.02-.72.22-.72-.65-.86-1.08-.5.65-.65,1.58-1.51,1.94-.57.14-1.08,0-1.51-.43.28-.94-.65-2.52.79-2.8.36-.07.72-.22,1.15-.15l.36.29c.22-.36-.28-.86-.22-1.37,1.29-.57,1.73,1.8,2.88.58"/><path id="path3211" class="cls-5" d="M217.13,80.74s.64.34,1.12.32c.46-.02,1.24-.13,1.67-.54.13-.1.24-.28.41-.39-.19-.03-.32-.07-.46-.24,0,0-.18.81-1.09.79-.62-.02-.9-.7-.9-.7l-.75.76"/><path id="path3213" class="cls-11" d="M76.39,116.63c-.65-.65-1.58-1-2.23-1.51.86.36,1.72.86,2.23,1.51"/><path id="path3215" class="cls-1" d="M68.91,69.11v.72c-5.46,1.51-11.51,5.83-13.16,11.65-2.45,6.9-2.16,16.18,2.09,22.29.22,1.37-.22,2.24-1.15,2.88-1.37.5-3.24.36-4.38-.43-.36-.07-.87,0-.87.43.22,1.65,2.16,1.57,3.46,1.94,2.3,0,4.38-1.37,5.54-3.32.51.73.07,1.38,0,2.09-1.23,2.59-4.6,1.29-6.47,2.23.86,1.87,3.09,1,4.53,1.08,3.16-.79,4.17-5.54,7.91-4.6-3.09,1.37-1.58,6.18-5.68,6.11-1.01,0-2.09-.71-2.88.15,1.08,1.08,2.8,1.65,4.53,1.22,3.1-1,4.03-6.18,8.2-4.67.36.15.65.44,1.08.44-1.65,0-3.45,0-4.96,1.08-1.37,1.22-1.66,3.95-4.03,3.74-.79.36-2.01-.8-2.23.43.57,1.08,2.88.57,2.09,2.23,1.72,1.43,4.38.57,6.25.14l.15.22c1-.29,1.94-.72,3.02-.8,1.65.36,3.66.65,4.46,2.52l.22.8c-2.23-1.44-5.61-2.3-7.98-1.08-1.94.07-3.16-.36-4.89-.87-.43.15-.43.65-.14.87,3.37,4.31,12.72,1.36,11.36,9.27-.51,1-1.23,2.15-2.3,2.59.65-1.15.79-2.59.51-3.88-1.3-3.75-5.4-3.67-7.99-5.9-.28,0-.5.07-.71.36-.29,1.15,1.14,1.58,1.8,2.09,1.8.94,4.38.94,5.25,3.46.07.79.43,2.01-.29,2.66-.07-1.8-1.65-3.89-3.6-4.96-2.73-.8-4.82-3.09-5.39-5.97-2.16-4.82-7.91-5.32-10.79-9.56-1.8-4.03.44-7.77,2.88-10.78,0-.36-.07-.86-.51-.86-2.74,1.15-2.66,5.03-5.68,5.82,1.43-3.08,1-7.97,5.1-8.98.15-.29.36-.51.29-.94-1.22-.93-2.59.51-3.74,1.09-.58.43-1,1.22-1.65,1.36.71-1.65,2.23-3.66,4.03-4.17.36-.22.5-.65.64-.94-.71-.65-1.51,0-2.3,0l-3.38,2.09c-.22-2.88,3.46-3.81,4.89-6.11-1.15-.51-2.38.79-3.6,1.22l-1.65.43c.07-.72,1-1.51,1.51-2.23,1.15-.71,2.52-1,3.74-1.51.15-.43-.22-.65-.43-.94h-.72c.65-.51,2.01-.14,2.37-.86-.93-.72-2.08-1.15-3.3-.79,0-.07,1.65-.22,1.36-1.3-.36-.28-.65-.79-1.08-.93v-.29c1.8-.43,3.23,1.15,4.67,1.8.22-.14.29-.43.29-.72-.58-1.37-2.01-1.94-3.17-2.73,1.08-.44,2.09.79,3.17,1.22.94-2.01-1.87-2.37-2.52-4.03,1.66-.94,2.74,1.51,4.17,1.94.57-.22.22-.86.15-1.22-.65-1.22-1.8-1.8-2.52-3.02,1.51-.36,2.23,1.72,3.74,2.3.29-.43,0-1.29-.36-1.8-.86-.65-1.3-1.72-1.94-2.59,1.86-.14,2.87,1.8,4.38,2.37.07-1.8-2.01-3.16-1.66-5.32,2.3.07,2.45,2.88,4.17,3.75.29-1.8-1-3.32-1.22-5.11.71-.43,1.51.58,2.3.87.85,1,.5,3.66,2.37,2.88-.58-1.58-.94-3.67.28-5.11.36,1.58.94,3.45,2.38,4.53"/><path id="path3217" class="cls-1" d="M74.3,113.54c.07.15-.36-.07-.86,0-1.37-.36-2.95.22-4.31.87-1.15.57-2.23,1.57-3.46,1.22,2.16-1.22,3.74-4.53,7.34-3.02l1.29.93"/><path id="path3219" class="cls-1" d="M69.27,127.99c.22,1.01.22,2.3-.79,2.74-.43.36-.87.5-1.52.43-.28-1.58-.14-3.46,1.09-4.46.65.07.93.79,1.22,1.29"/><path id="path3221" class="cls-11" d="M68.19,151.07c3.66,2.38,7.77,4.32,12.29,4.32,3.24,1,7.05.07,10.14-.29-.94,2.95-3.53,5.11-6.41,5.83-6.11.94-12.37.07-17.4-3.31-2.09-1.86-5.18-3.66-4.17-6.98.65-.79.57-2.87,1.94-2.44,1.08,1.22,2.23,2.3,3.6,2.87"/><path id="path3223" class="cls-11" d="M84.22,162.57l1.94-.71c0,1.29-1.65,2.23-2.23,3.46-3.66,2.3-8.4,2.65-12.86,1.79-4.32-.94-9.06-2.52-11.07-6.76-.72-2.01.43-3.95,1.58-5.54,5.89,6.69,14.31,8.99,22.64,7.77"/><path id="path3225" class="cls-11" d="M77.75,168.9c.79-.29,1.86-.14,2.59-.22.22-.07.07-.36.43-.29h.43c-1.29,3.09-4.17,5.11-7.48,5.25-5.46.22-10.58-1.37-14.67-4.96-.72-1.37-2.45-2.59-1.8-4.46.65-.79.44-1.94,1.37-2.66,4.82,5.54,11.72,8.77,19.13,7.34"/><path id="path3227" class="cls-11" d="M56.39,167.4c4.75,6.18,12.01,8.41,19.56,7.48-1.58,3.02-4.6,4.38-7.91,4.17-4.75-.07-10.14-2.22-12.59-6.75-1.43-1.72.29-3.09.58-4.89h.36"/><path id="path3229" class="cls-11" d="M71.21,180.55c-1.43,2.45-3.66,3.31-6.18,3.74-4.82.22-9.56-1.79-11.79-6.11-.57-1.8.36-3.67.87-5.4,3.37,6.33,10.21,8.49,17.11,7.77"/><path id="path3231" class="cls-11" d="M66.53,185.66c-1.51,3.38-5.39,2.66-8.69,2.52-2.74-.58-5.61-2.59-6.26-5.4.29-1,0-2.3.72-3.17,3.16,4.96,8.98,6.69,14.23,6.04"/><path id="path3233" class="cls-11" d="M63.22,189.97c-.28.86-.94,1.86-1.94,2.08-2.45.94-5.61.65-8.06-.14-.85-.58-2.01-1.23-2.37-2.23-.36-1.37-.07-2.8.29-4.03,2.8,3.95,7.55,4.53,12.08,4.32"/><path id="path3235" class="cls-11" d="M61.14,194c0,.93-.43,1.65-1.15,2.22-1.94.65-4.75,1.44-6.9.51-1-.22-1.51-1.08-2.09-1.8v-2.88c2.81,2.01,6.7,2.45,10.14,1.95"/><path id="path3237" class="cls-11" d="M60.28,197.88c.07,1-.07,2.01-1.09,2.45-2.22,1-4.88,1.37-6.9-.36-.72-.58-.43-1.58-.72-2.38,2.59,1.22,5.97,1.58,8.7.29"/><path id="path3239" class="cls-11" d="M60.42,202.41c.36,1.01-.72,1.44-.65,2.37-.94.65-1.87,1.52-3.09,1.38-.51-.15-1.29-.22-1.94-.29-.58-1.29-1.44-2.38-1.66-3.81,2.23,1.15,4.75.57,7.05-.14l.28.5"/><path id="path3241" class="cls-11" d="M62.36,208.37c.43,1.95-2.59,1.23-1.65,2.81,1.15.36,1.8-.43,2.51-1.01v-.28c1.8.36,3.09,2.3,4.96,2.08.29-.14.14-.5.14-.79-1.43-.8-3.02-1.72-4.02-3.24-.3-.57-.94-1-.94-1.65,4.32,2.23,10,1.43,13.52,5.25.22.71.8,1.79.15,2.51-3.31,2.94-7.69,1.36-11.5.72-3.81-1.51-7.41-4.18-9.78-7.63,1.65.51,3.81,0,4.96-1.29,1,.36,1.08,1.66,1.65,2.51"/><path id="path3243" class="cls-11" d="M45.18,166.03l.14-.15c-.79-1.86-3.95-2.59-2.73-5.1,1.5-1.72,3.37-.36,5.39-.58,1.65.51,3.6.29,5.25.72-.71,1.94-3.08,2.15-4.31,3.45.14,1.58,2.51,2.16,1.94,4.03-1.07-.46-4.49-1.99-5.68-2.37"/><path id="path3245" class="cls-11" d="M74.65,64.58c-.07,1.43-.36,2.51-.79,3.6-.14.28.29-.72-.29-.58-.42-.22-.79.29-.93.58-.36-1.23,1.14-2.38,1.65-3.6h.36"/><path id="path3247" class="cls-11" d="M77.89,68.03c.36,1.01-.22,1.94-.86,2.66v-1h-1.08c.5-.58,1.08-1.58,1.94-1.66"/><path id="path3249" class="cls-1" d="M39.29,133.89c-.36,7.19.57,14.02,5.54,19.42,1.79,1.86,3.59,3.59,5.68,5.1-2.81.22-6.18-1.14-8.92.58-.86.94-.86,2.45-.65,3.59,1.08,1.73,2.51,2.74,4.24,3.46.8.06,4.3,1.48,5.68,2.37-4.82-1.37-11.43-2.01-15.89.65-3.95,2.37-4.82,6.9-4.46,10.92.65,3.74,2.81,6.9,2.81,10.86-2.24-3.32-7.34-4.53-8.21-8.92.07-2.45-.57-4.6-1.79-6.47.43-1.94.86-3.95,1.29-5.96.07-.51-.07-.94-.43-1.23h-.15v-.43c1.15-3.24,3.46-6.83,7.34-7.05,1.29-1.58-1.57-1.66-2.08-2.81-.86-.93-1.08-2.08-1.66-3.17,1.3-1.07,3.17-1.72,4.82-1.07.29.14.58.43,1.01.36.72-.36.29-.94.14-1.37-3.52-2.23-4.53-6.75-4.17-10.64,1.51-1.86,0-4.82.94-7.19.14-.29.5.43,1,.14,1.01-2.74,2.16-5.46,3.6-8.06l.43-.14c0,.36.14.65.51.86h.57l3.89-4.03c.65,3.31-1.15,6.61-1.08,10.21"/><path id="path3251" class="cls-1" d="M57.12,157.33l-.72,1.8c.72-2.52-3.52-5.68.58-6.83,1-.65,1.51-1.72,1.94-2.74.93-2.37-3.52-4.6,0-5.97,2.16-2.01,2.8-5.39,1.8-7.91-.43-.36-.29-1.01-.72-1.36,1.37-.94,2.45-2.16,3.6-3.46.14,9.78-2.74,18.33-6.47,26.46"/><path id="path3253" class="cls-7" d="M38.28,127.85c-.22,4.82-2.23,9.71-.57,14.81.36,3.59,1.8,6.68,3.37,9.77.15.51-.14.94-.57,1.01-1.15.14-1.29-1.15-1.8-1.8-3.23-7.26-3.52-16.1-.86-23.8h.43"/><path id="path3255" class="cls-7" d="M33.03,139.85v.44c-.22,0-.51.14-.58-.15-.07-.29,0-.57.29-.72.07.22.36.07.29.43"/><path id="path3257" class="cls-7" d="M33.17,141.51c.8,4.31,1.94,8.49,5.25,11.79.15.43-.28.79-.57.93-1.37-.14-2.01-1.65-2.74-2.59-1.79-3.03-2.37-6.61-2.66-10.28.29-.29.44,0,.72.14"/><path id="path3259" class="cls-7" d="M32.74,163.8c0,1.15-1.15,1.01-1.66,1.94-3.16,2.74-4.09,6.69-4.67,10.64h-.29c-.79-5.46,1.44-10.21,5.68-13.01.43-.14.65.22.94.43"/><path id="path3261" class="cls-7" d="M31.66,171.13c-4.17,5.54-.58,11.79.51,17.47-.8-.14-.94-1.15-1.23-1.8-1.94-5.11-4.45-12.51,0-17.32.72-.58,1.23-1.52,2.09-1.8,1.51,1.43-1.08,2.22-1.37,3.45"/><path id="path3263" class="cls-11" d="M124.13,122.81c-.22-.22-.72-.71-.57-1.22.22.36.5.79.57,1.22"/><path id="path3265" class="cls-11" d="M171.44,122.81c-.36-.22-.07-.79.29-1.08-.07.36-.15.79-.29,1.08"/><path id="path3267" class="cls-11" d="M80.62,176.38c.51,2.3,1.44,4.89.87,7.34.22.14.36.36.64.29,1.52-1.95.8-4.82.58-6.9,2.66,3.23,2.95,7.77,3.17,11.94.14.36.43.36.72.22,1.5-1.73.14-4.17.57-6.32,2.16,3.16,2.09,7.76,1.8,11.35.22.15.36.43.65.29.51-.51.8-1.15.86-1.94.72,3.66.15,7.83-1.22,11.43.64-10.06-6.18-18.62-14.31-24.09.14-1,1.14-2.23,2.22-2.74.22,1.15-.57,2.74.43,3.46,1.73-1.66-.5-5.4,1.94-6.47l1.08,2.15"/><path id="path3269" class="cls-11" d="M218.1,180.27c.79-1.08-.29-2.3.29-3.45.94.64,1.86,1.43,2.22,2.51-8.12,5.75-14.95,14.09-14.31,24.38-1.37-3.1-1.94-7.55-1.22-11.79.14.86.28,1.8,1.08,2.23,1.22-.72-.51-2.52.29-3.89,0-2.74.21-5.74,2.08-7.91,0,2.3-.79,4.89.58,6.55.36.14.65-.15.79-.43-.51-4.03.43-8.27,2.8-11.5.14,2.3-1.08,5.03,1.08,6.54l.29-.29c-.22-3.31,0-6.9,2.09-9.42,2.23,1.57-.07,4.96,1.94,6.47"/><path id="path3271" class="cls-5" d="M94.5,184.15l-.86-.14c.86-.72,2.3-.43,3.31-1.23,1.23-1.08,1.65-2.51,2.8-3.74-1.23,2.09-2.52,4.89-5.25,5.11"/><path id="path3273" class="cls-5" d="M97.66,185.66c-.86-.93.86-1.37,1.23-2.3.07,1-1,1.43-1.23,2.3"/><path id="path3275" class="cls-5" d="M97.52,188.18c1.44-1.37,2.66-3.31,3.46-5.25.07,2.08-1.87,3.95-3.46,5.25"/><path id="path3277" class="cls-5" d="M198.04,185.66c-.58-.93-1.29-1.8-1.66-2.88.36,1.15,2.59,1.37,1.66,2.88"/><path id="path3279" class="cls-5" d="M200.12,185.95v.57c-.22.07-.28-.14-.43-.29v-.57c.22-.07.29.15.43.29"/><path id="path3281" class="cls-5" d="M95.58,186.96c-.36-.15,0-.58.14-.87h.29l-.43.87"/><path id="path3283" class="cls-4" d="M103.55,128.75c.44.21-.39-.81-.36-1.35.02-.53-.54,1.12-.54,1.12,0,0,.47.02.9.23"/><path id="path3285" class="cls-3" d="M128.15,43.37c.07,3.95-.07,8.48-.14,12.22-.14.29-.43.15-.71.15-.22-4.53-.22-8.63,0-12.87.36,0,.85.07.85.51"/><path id="path3287" class="cls-3" d="M83.14,95.99s1.78.18,2.4,1.01c.63.84,2.31,3.41,4.5,2.3,0,0,.65,1.12-1.37,1.12s-3.06-1.47-3.61-2.44c-.56-.98-1.25-1.28-1.77-1.41l-.15-.58"/><path id="path3289" class="cls-3" d="M211.98,95.85s-.62,1.23-1.62,1.65c-.99.41-.87,1.07-.97,1.23,0,0-1.62,1.62-3.02,1.62s-1.21-.2-1.33-.69c-.12-.5.49-.63.84-.42.35.21,1.19.7,2.37-.9,1.18-1.6,3.07-2.65,3.72-2.48"/><path id="path3291" class="cls-1" d="M110.68,139.21c3.52,13.16-1.58,25.53-4.67,37.61.5-2.67.94-5.83.79-8.7-1.58-4.61,1.73-8.92-.29-13.16.15-1.86-.85-3.67-2.22-5.11-.15-3.23.42-6.83-1.66-9.27-1.15.14-2.66.51-3.6-.28.8-3.32,1.95-6.41,2.95-9.56,4.38.5,7.55,4.6,8.7,8.48"/><path id="path3293" class="cls-3" d="M131.17,3.97c.51.65.36,1.72.15,2.45-.36.43-.72.65-1.16.72.22-.94.87-1.8.44-2.81-.8-.93-1.72-2.15-3.03-2.15-1.22.14-2.3.94-2.94,1.94-1.15,1.8.71,3.24.86,4.67-.86-.43-1.51-1.08-1.94-1.94-.36-1.29-.15-2.66.57-3.74,1.58-.86,3.52-2.23,5.4-1.08.71.65,1.22,1.22,1.65,1.94"/><path id="path3295" class="cls-3" d="M128.37,5.62l-.36,1.95c.14,8.05.43,15.81.36,24.08-.36.36-.43,1.15-1.08,1.09-.07-10-.58-18.62-.15-27.68.51,0,1.23-.07,1.23.57"/><path id="path3297" class="cls-1" d="M50.72,177.24c-.57-1.29-.72-2.66-1.66-3.74,1.8-.86,3.74-2.74,3.74-4.96.15-1.37-.79-2.38-1.22-3.6,1.15-1.23,2.88-2.01,3.88-3.6-2.08,5.11-3.16,10.78-4.74,15.89"/><path id="path3299" class="cls-1" d="M49.49,184.73c-.43,0-1.08-1.23-1.65-1.66.72-.65,1.65-1.72,2.23-2.66-.14,1.43-.14,3.02-.58,4.32"/><path id="path3301" class="cls-1" d="M200.27,189.39c.65.94.65,2.66.65,3.89.94,12.08-4.17,22.72-14.38,28.69-12.81,9.35-27.76,15.03-38.47,27.82l-.43.14c-6.04-7.76-14.89-12.72-22.72-17.89-2.88-1.23-5.33-3.17-8.13-4.53-1.72-1.29-3.74-2.09-5.39-3.6-10.29-5.82-16.97-15.03-16.76-26.89.57-2.09-.5-5.03.36-6.9.86-.51,2.16.36,3.23-.14l.65-.29c.14.51-.51,1.43.43,1.94,1.15.07,2.09-.29,3.17-.65-1.29,12.23,4.74,22.73,15.24,28.33,10.35,5.75,21.28,10.78,30.05,19.92,1.36.07,1.36-1.51,2.23-2.15,10-9.71,22.93-13.73,33.65-21.93,7.19-6.26,10.49-15.03,9.34-24.45,1.3,0,2.88,1.37,3.89,0l-.51-1.65c1.08.94,2.74,1,3.89.36"/><path id="path3303" class="cls-5" d="M124.92,138.35s10-1.68,13.29-3.45v92.9s-.19.56-1.58-.56c-1.38-1.12-11.86-6.78-11.86-6.78l.15-82.11"/><path id="path3305" class="cls-5" d="M157.1,134.9s5.15,1.99,7.94,2.41c2.78.41,5.07.71,5.32,1.47v81.9s-11.81,6.59-13.16,7.62l-.1-93.39"/><path id="path3307" class="cls-5" d="M127.86,63.08l.11,39.63-.45,3.53s-.44-5.95-.44-9.16v-33s0-.99.78-.99"/></g></g></g></svg>