<svg xmlns="http://www.w3.org/2000/svg" viewBox="0 0 337.5 337.5"><title>Queens Park Rangers FC logo - Brandlogos.net</title><path d="M531.45,383.46a14.7,14.7,0,0,0,1.52.26,5.11,5.11,0,0,1,1.19.33c.07-1.05.26-2.44.53-4.15s.66-3.76,1.12-6.2h.07c.79,1.91,1.58,3.89,2.31,5.8s1.52,3.82,2.31,5.73l1.45.2c.46.07.92.2,1.45.26s1,.2,1.52.26a10.41,10.41,0,0,1,1.71.4c-.33-.59-.79-1.52-1.32-2.7s-1.12-2.5-1.71-3.89-1.25-2.83-1.85-4.28-1.19-2.83-1.65-4c.53-.46,1.32-1.05,2.24-1.85s2-1.58,3-2.37,2-1.58,3-2.24,1.65-1.19,2-1.52c-.4,0-.73-.07-1.05-.07a3.89,3.89,0,0,1-.92-.13l-.92-.2c-.33-.07-.59-.2-.92-.26-.4.4-.92.92-1.71,1.58s-1.71,1.45-2.64,2.31-2,1.71-3,2.57-2,1.71-3,2.44l.59-3.16c.33-1.58.59-3.1.86-4.42a18.08,18.08,0,0,1,.79-3,9,9,0,0,1-1.25-.13c-.46-.07-.92-.13-1.52-.26s-1.05-.2-1.45-.33-.86-.26-1.19-.33l-.59,4.35c-.2,1.45-.53,3-.86,4.88l-.86,4.48c-.33,1.85-.66,3.43-1,4.88l-1,4.15a4.48,4.48,0,0,1,1.25.2A7.66,7.66,0,0,0,531.45,383.46Zm32.43,9.23c.53.26,1,.46,1.38.66s.79.4,1.12.59c.53-1.32,1.05-2.57,1.65-4s1.25-2.83,2.11-4.48l.59-1.25.26.13.86,12.19,1.38.59c.46.2.92.46,1.38.66s.92.46,1.38.66a8.44,8.44,0,0,1,1.32.73c-.33-2.24-.59-4.42-.92-6.66s-.53-4.48-.66-6.66a7,7,0,0,0,4.42-.33,6,6,0,0,0,3-3,5,5,0,0,0,.59-2.64,6.09,6.09,0,0,0-.66-2.37,9.64,9.64,0,0,0-.59-.86,10.14,10.14,0,0,0-.86-.79,15.56,15.56,0,0,0-1.32-.86,13.75,13.75,0,0,0-2-1c-1.05-.53-1.91-.86-2.64-1.19a18.8,18.8,0,0,1-1.91-.79,11.85,11.85,0,0,1-1.32-.73c-.4-.2-.73-.46-1.05-.66-.53,1.38-1.12,2.7-1.71,4s-1.25,2.83-2.11,4.48l-2,4.15c-.79,1.65-1.52,3.16-2.24,4.42s-1.32,2.5-2,3.76a8,8,0,0,1,1.12.46C563,392.23,563.42,392.49,563.88,392.69Zm11.54-17.93c.86.4,1.52.79,2.11,1.12a3.52,3.52,0,0,1,1.19,1.25,2.53,2.53,0,0,1,.26,1.58,7.9,7.9,0,0,1-.73,2.24,5.17,5.17,0,0,1-2.64,2.77,4.36,4.36,0,0,1-3.56-.4c-.13-.07-.2-.13-.33-.2s-.2-.13-.33-.2C572.64,380.23,574,377.53,575.41,374.76Zm70.93,118.65c1.65-1.58,3.3-3,5-4.42a7.46,7.46,0,0,0,2.83,3.43,6.32,6.32,0,0,0,6.59-.46,6.08,6.08,0,0,0,1.52-1.91,5.8,5.8,0,0,0,.33-1,5.91,5.91,0,0,0,.13-1.19,13.8,13.8,0,0,0-.07-1.58c-.07-.59-.2-1.32-.33-2.18-.2-1.12-.4-2-.59-2.83s-.33-1.45-.46-2a6.39,6.39,0,0,1-.2-1.52c-.07-.46-.07-.86-.13-1.25l-4.28,1c-1.38.33-3,.66-4.88,1l-4.48.86c-1.85.33-3.49.59-4.88.86l-4.22.59a7.66,7.66,0,0,1,.26,1.19c.07.46.2.92.26,1.52A14.7,14.7,0,0,1,639,485a9,9,0,0,1,.13,1.25q2-.49,4.15-1c1.38-.33,3-.66,4.88-1l1.38-.26.07.33-9.36,7.84a12.47,12.47,0,0,1,.33,1.52c.07.53.2,1,.26,1.52s.2,1,.26,1.52.13,1,.2,1.52C643,496.51,644.69,495,646.34,493.41Zm13.78-11.27a20.15,20.15,0,0,1,.33,2.37,4.46,4.46,0,0,1-.26,1.71,2.31,2.31,0,0,1-1.12,1.12,7.44,7.44,0,0,1-2.24.73,4.91,4.91,0,0,1-3.76-.53,4.57,4.57,0,0,1-1.78-3.1c0-.13-.07-.2-.07-.33v-.4C654.05,483.13,657.09,482.6,660.12,482.14ZM505.28,368.3v4.55c0,1.85,0,3.49-.07,4.94s-.13,2.9-.2,4.28a7.57,7.57,0,0,1,1.25-.07h3a7.57,7.57,0,0,1,1.25.07c-.07-1.38-.13-2.83-.2-4.28s-.07-3.1-.07-4.94v-1.38h.33l6.06,10.61a12.18,12.18,0,0,1,1.52-.07h3a12.18,12.18,0,0,1,1.52.07c-1.25-1.85-2.5-3.76-3.69-5.6s-2.37-3.82-3.49-5.73a7.46,7.46,0,0,0,3.89-2.18,5.81,5.81,0,0,0,1.32-4,5.56,5.56,0,0,0-.59-2.64,6.05,6.05,0,0,0-1.58-1.85,4.2,4.2,0,0,0-.92-.53,5.57,5.57,0,0,0-1.12-.33L515,359a21.21,21.21,0,0,0-2.18-.07c-1.12,0-2.11,0-2.9.07s-1.45.07-2,.07a10.69,10.69,0,0,1-1.52-.07c-.46-.07-.86-.07-1.25-.13l.2,4.35C505.28,364.81,505.28,366.45,505.28,368.3Zm5.08-7.38a23.27,23.27,0,0,1,2.37.13,3.3,3.3,0,0,1,1.65.59,2.81,2.81,0,0,1,.92,1.32,7.59,7.59,0,0,1,.33,2.37,4.9,4.9,0,0,1-1.19,3.63,4.61,4.61,0,0,1-3.43,1.19h-.33a.84.84,0,0,1-.4-.07C510.29,367,510.35,363.95,510.35,360.92Zm-8.17,281.93a7.32,7.32,0,0,0-2.11-1.38,10.14,10.14,0,0,0-3.1-.79,10.67,10.67,0,0,0-2.9,0,7.2,7.2,0,0,0-2.37.79A6.3,6.3,0,0,0,490,643a4.37,4.37,0,0,0-.79,2.24,4.91,4.91,0,0,0,.13,1.71,6.22,6.22,0,0,0,.66,1.52,4.8,4.8,0,0,0,1.12,1.19,4.67,4.67,0,0,0,1.38.73v.26a6.32,6.32,0,0,0-1.85.46,5.11,5.11,0,0,0-1.58,1.05,6.21,6.21,0,0,0-1.19,1.65,7.88,7.88,0,0,0-.66,2.31,6.28,6.28,0,0,0,.26,3,5,5,0,0,0,1.38,2.24,6,6,0,0,0,2.31,1.45,13.62,13.62,0,0,0,3,.73,13.23,13.23,0,0,0,3.23,0,6.12,6.12,0,0,0,4.61-3,7.19,7.19,0,0,0,1-3,5.28,5.28,0,0,0-.13-2.31,5.92,5.92,0,0,0-.86-1.85,8.31,8.31,0,0,0-1.32-1.32,5.3,5.3,0,0,0-1.52-.73V651a5.7,5.7,0,0,0,1.52-.4,4.55,4.55,0,0,0,1.32-.86,5.28,5.28,0,0,0,1-1.38,5.46,5.46,0,0,0,.53-1.85,5.4,5.4,0,0,0-.2-2A10,10,0,0,0,502.18,642.85ZM498,657.35a6.93,6.93,0,0,1-1.38,4,2.32,2.32,0,0,1-4.15-.53,10.72,10.72,0,0,1,.92-8,2.37,2.37,0,0,1,4.15.53A6.85,6.85,0,0,1,498,657.35Zm1-10.88a5.33,5.33,0,0,1-1.12,3,2.51,2.51,0,0,1-2.11.92,2.22,2.22,0,0,1-1.65-1.19,4.7,4.7,0,0,1-.46-3,8.91,8.91,0,0,1,1-3.23,2.2,2.2,0,0,1,2.24-.92,2.06,2.06,0,0,1,1.78,1.38A5,5,0,0,1,498.95,646.47Zm165.92-138a7,7,0,0,0-1.38-2.37,6.67,6.67,0,0,0-2.31-1.65,7.64,7.64,0,0,0-3.1-.59,5.93,5.93,0,0,0-3.16.79,7.87,7.87,0,0,0-2,1.85,14.62,14.62,0,0,0-1.38,2.44c-.4.86-.79,1.71-1.19,2.44a6.77,6.77,0,0,1-1.38,1.85,3.18,3.18,0,0,1-2.11.79,3.62,3.62,0,0,1-2.44-.92,4,4,0,0,1-1.05-3,5.69,5.69,0,0,1,.26-1.85,4.74,4.74,0,0,1,.79-1.38,3.64,3.64,0,0,1,1.12-.92,6,6,0,0,1,1.38-.53v-.66c-.79-.13-1.45-.26-2.11-.4s-1.38-.33-2.18-.53a6.73,6.73,0,0,0-.92,2.18,10.15,10.15,0,0,0-.33,3.23,10.46,10.46,0,0,0,.59,3.63,7.5,7.5,0,0,0,1.52,2.77,6,6,0,0,0,2.44,1.78,7.87,7.87,0,0,0,3.1.59,5.93,5.93,0,0,0,3.16-.79,8.1,8.1,0,0,0,2-1.91,11.82,11.82,0,0,0,1.45-2.5c.4-.86.79-1.71,1.19-2.5a7.14,7.14,0,0,1,1.38-1.91,2.73,2.73,0,0,1,2-.79,3,3,0,0,1,2.11.92,3.55,3.55,0,0,1,.92,2.5,4,4,0,0,1-2.83,4.09v.53l1.85.53c.46.13,1,.33,1.52.53a6.69,6.69,0,0,0,1.19-2.37,11.54,11.54,0,0,0,.4-3.16A10.84,10.84,0,0,0,664.86,508.51ZM623.14,432.9a9.67,9.67,0,0,0-1.58,4.22,13,13,0,0,0,.26,4.75,17.73,17.73,0,0,0,2.11,4.94,34.47,34.47,0,0,0,2.64,3.69,38.16,38.16,0,0,0,3.16,3.36,8.31,8.31,0,0,1,.86-.59c.4-.26.86-.53,1.32-.79l.92-.59c.46-.26.92-.59,1.45-.86s1-.59,1.45-.86.86-.46,1.25-.66.66-.26.79-.33c-.13-.2-.33-.4-.59-.73s-.53-.86-1-1.52-.59-1.05-.79-1.38a7.39,7.39,0,0,1-.33-.86l-1.45,1.05c-.73.53-1.85,1.25-3.43,2.18a10.67,10.67,0,0,1-1.19.66c-.33.2-.66.33-.92.46a2.16,2.16,0,0,1-.53-.4,7.22,7.22,0,0,1-.66-.73l-.66-.86c-.2-.33-.4-.59-.53-.86a8.6,8.6,0,0,1-1.19-3.36,6.74,6.74,0,0,1,.4-3.23,8.23,8.23,0,0,1,1.71-2.9,11.42,11.42,0,0,1,2.9-2.37,13.21,13.21,0,0,1,4.35-1.78,10.71,10.71,0,0,1,3.82-.07,8.17,8.17,0,0,1,3.1,1.32,7.24,7.24,0,0,1,2.18,2.31,8.41,8.41,0,0,1,1.25,3.82,8.2,8.2,0,0,1-.73,3.56l.26.4a13,13,0,0,1,1.71-.53,16.51,16.51,0,0,0,1.71-.46,19.07,19.07,0,0,0-.59-4,15.49,15.49,0,0,0-1.85-4.09,15.25,15.25,0,0,0-3.56-4.28,12.26,12.26,0,0,0-4.35-2.57,11.33,11.33,0,0,0-4.94-.46,13.29,13.29,0,0,0-5.34,2A11.14,11.14,0,0,0,623.14,432.9ZM556.23,655.83a7.28,7.28,0,0,1-.2-1.05c-.07-.33-.13-.73-.2-1.05q-2.27.79-4.55,1.38c-1.52.4-3,.86-4.61,1.25l-.07-.07c1.45-2.11,2.64-3.89,3.56-5.41a20.32,20.32,0,0,0,2-4,9.66,9.66,0,0,0,.73-3,6.42,6.42,0,0,0-.2-2.31,5.48,5.48,0,0,0-2.5-3.36,6.52,6.52,0,0,0-2.7-.73,12.62,12.62,0,0,0-3.89.46,7.52,7.52,0,0,0-4.22,2.37,6.34,6.34,0,0,0-1.52,3.56c.53.26,1.05.46,1.52.73s1,.53,1.58.79l.33-.2a9,9,0,0,1-.26-1.52,6.77,6.77,0,0,1,.07-1.65,4.43,4.43,0,0,1,.66-1.52,2.59,2.59,0,0,1,1.38-.92,2.69,2.69,0,0,1,1.25-.07,3,3,0,0,1,1.25.53,4.21,4.21,0,0,1,1.12,1.25,8.76,8.76,0,0,1,.86,2.18,11,11,0,0,1,.33,3.3,17.82,17.82,0,0,1-.73,3.76,39,39,0,0,1-1.91,4.42q-1.29,2.37-3.16,5.34l.33,1.38,3.49-1c1.19-.33,2.37-.59,3.49-.92s2.44-.66,3.63-.92,2.44-.59,3.69-.86c-.13-.33-.2-.59-.33-1A5.55,5.55,0,0,0,556.23,655.83Zm23.07-255.5a7,7,0,0,1,.73.46l.66.46.66.46a4.26,4.26,0,0,1,.59.53c.92-.73,1.85-1.38,2.83-2.11s2-1.38,3-2c.46.33,1,.66,1.45,1s.92.66,1.45,1,1.19.86,1.71,1.25l1.71,1.32c-.33,1.19-.66,2.37-1.05,3.49s-.73,2.31-1.05,3.36l1.19.79c.4.26.79.59,1.19.86a13.36,13.36,0,0,1,1.19.86,14.48,14.48,0,0,1,1.19.92c.26-1.45.59-3.16,1.05-5.14s1-4.09,1.52-6.26,1.12-4.42,1.78-6.66,1.19-4.35,1.71-6.33c-.2-.07-.4-.2-.59-.26a1.44,1.44,0,0,1-.53-.33,2.87,2.87,0,0,1-.46-.4,3,3,0,0,0-.46-.46q-1.68,1.09-3.76,2.37c-1.38.86-2.7,1.71-4.09,2.57l-4.15,2.57c-1.38.86-2.64,1.65-3.89,2.37s-2.31,1.38-3.23,2S579.83,400,579.3,400.33Zm13.91-5.73c1.19-.79,2.44-1.52,3.69-2.24-.33,1.38-.73,2.77-1.12,4.15s-.79,2.7-1.19,4.09l-5-3.63C590.84,396.18,592,395.39,593.21,394.6Zm38.1-1.91A168.69,168.69,0,1,0,680.75,512,167.42,167.42,0,0,0,631.31,392.69ZM512,673.63c-89.12,0-161.63-72.51-161.63-161.63S422.88,350.37,512,350.37,673.63,422.88,673.63,512,601.12,673.63,512,673.63Zm88-257.74c.4.33.73.73,1.12,1.12.2.2.33.4.53.59a5.76,5.76,0,0,1,.53.66,7.93,7.93,0,0,0,.66-.73c.26-.33.66-.66,1.12-1.12s1.05-1,1.71-1.65,1.52-1.45,2.5-2.37l2.83-2.64c.46-.46,1-.92,1.45-1.32s1-.86,1.45-1.32c-.46,7.51-1.12,14.77-1.91,21.82a12.11,12.11,0,0,1,.92.92c.33.33.59.73.92,1.05l3-2.77c1.19-1.12,2.31-2.11,3.36-3.1s2.11-1.91,3.23-2.9,2.31-2,3.56-3,2.64-2.24,4.22-3.56a11.56,11.56,0,0,1-1.19-1,5.57,5.57,0,0,1-.92-1.25,7.07,7.07,0,0,1-.86,1L626.57,416c-.66.59-1.38,1.32-2.11,2s-1.58,1.45-2.37,2.24l-2.37,2.24-2.18,2c.26-3.69.59-7.32.86-10.88s.59-7.12.92-10.74a11.56,11.56,0,0,1-1.19-1,5.57,5.57,0,0,1-.92-1.25l-2,2c-.73.73-1.65,1.65-2.83,2.7s-2.57,2.37-4,3.56-2.7,2.31-3.89,3.36-2.24,1.91-3.1,2.57S600.13,415.76,600,415.89ZM640.34,458c-1.71.66-3.3,1.19-4.68,1.65s-2.7.92-4.09,1.32a2.58,2.58,0,0,1,.26.59,6,6,0,0,1,.4,1.05c.2.46.4,1.12.73,1.85s.66,1.85,1.19,3.1c.53,1.45,1,2.57,1.25,3.43s.53,1.52.73,2.11a2.87,2.87,0,0,1,.46-.26c.2-.07.46-.2.79-.33s.59-.2.79-.26.4-.07.66-.13c-.59-1.19-1.19-2.31-1.65-3.49s-1-2.37-1.45-3.56c1.25-.53,2.57-1.05,3.89-1.58.66-.26,1.32-.46,2-.73s1.38-.46,2-.73c.86,2.37,1.65,4.81,2.37,7.25.33-.2.59-.33.73-.4s.33-.2.53-.26l.59-.2a5.65,5.65,0,0,1,.86-.2c-.53-1.19-1-2.31-1.45-3.43s-.92-2.31-1.45-3.69c1.19-.46,2.31-.86,3.43-1.25s2.31-.79,3.49-1.12c.07.26.2.59.4,1.19s.4,1.19.59,1.91.46,1.45.66,2.18.46,1.45.59,2a2.67,2.67,0,0,1,.59-.33c.2-.07.46-.2.79-.33a7.59,7.59,0,0,1,1.38-.4q-.3-.59-1-2.37t-1.58-4.15c-.33-.92-.66-1.91-1-2.83s-.59-1.91-.92-2.83c-1.32.59-2.7,1.12-4,1.71s-2.9,1.12-4.61,1.78Zm-6.39,117a6.48,6.48,0,0,0-2.24-.46,7.92,7.92,0,0,0-1.71.2,5.35,5.35,0,0,0,.53.4c1.19.86,4.81,4.22,2.9,12.19-1.25,5.21-8,15-24.85,15h0c-1.05,0-2.11-.07-3.23-.13a44,44,0,0,1-9.89-2c.79-.73,1.58-1.52,2.37-2.31,2.31-2.31,4.55-4.75,6.66-7.25a25.08,25.08,0,0,1-6.53-1.38c-2.7,3-5.54,5.87-8.5,8.57a150.29,150.29,0,0,1-19-10.88c-2.57-1.65-6.92-4.55-9.23-6-8.11-5.08-16.22-9.89-26.3-13.38V550.76c16.15,3.76,31.64,15,39,20.24.92.66,1.85,1.38,2.9,2.18,6.86,5.08,19.58,14.24,32.3,14.24,16.48,0,17.2-10.68,17.07-11.34,0,0-.33.33-.59.66-.92.92-3.3,3-9,2.83a14.9,14.9,0,0,1-3.3-.53A121.51,121.51,0,0,0,511.87,390.58C445,390.51,390.51,445,390.51,512A121.55,121.55,0,0,0,582.2,611.21a55.9,55.9,0,0,1-6.53-2.57,115.52,115.52,0,1,1,32.17-31.71,182.44,182.44,0,0,1-16.41-9.36c-1-.66-2.11-1.32-3.16-2-9-5.8-15.62-9.36-20.9-11.21a14.65,14.65,0,0,0-2.57-.66v-.4c28.08-.46,50.23-21.82,50.23-50.49C615,473.9,592.55,454,564,454h-2c-8-16.48-25.18-26.7-45.88-26.7A62.38,62.38,0,0,0,487.87,434v-5.08H471.33s4.09,3.76,4.09,12.59V454a57.84,57.84,0,0,0-13-1.58,56.73,56.73,0,0,0-36.12,13.05c-8,6.79-17.67,19.25-17.67,39.81s10,32.83,18.26,39.68A58.18,58.18,0,0,0,451,556.49a30.51,30.51,0,0,0,2.77-6.66,22.59,22.59,0,0,1-3.76-1.12c-4.68-1.85-7.45-5.34-7.45-9.49,0-6.13,4.42-8.31,7.45-8.31,4.22,0,8.57,2.83,8.77,11h0c.46,21.69-23.33,36.52-25.51,37.84a96.77,96.77,0,0,0,6.72,7.05c.59-.33,1.38-.73,2-1.05,8.11-4.42,26.89-15,54-14.83h0a87.77,87.77,0,0,1,23,3.16V563.55a108.88,108.88,0,0,0-16.08-1.19A116.15,116.15,0,0,0,450,575l-.13-.2a65,65,0,0,0,12.92-16.94c1.38,0,3-.07,4.35-.2a12.79,12.79,0,0,0,1.52-1.71,14,14,0,0,0,2.57-6,39.62,39.62,0,0,1-5.6.86,33.23,33.23,0,0,0,1.32-7.58c.2-6.72-1.52-12.39-4.94-16a16,16,0,0,0-11.8-4.61c-6.26,0-14.11,4.22-14.63,13.51a12.37,12.37,0,0,0,.4,3.49l-.33.13c-8.37-8.24-13.51-20.57-13.51-34.74,0-25.77,17.47-45.22,40.61-45.22,23.33,0,40.21,19.05,40.21,45.22a54.08,54.08,0,0,1-.66,8.7,42.6,42.6,0,0,1-14.37-8.17v-31a33.69,33.69,0,0,0-12.52-8.44v79.37a20.71,20.71,0,0,1-4.09,12.79h20.1a17.72,17.72,0,0,1-2.83-6.86,57.08,57.08,0,0,0,9.82-6.39,48.93,48.93,0,0,0,13.45-17.2,77.33,77.33,0,0,1-12.92-1.91,44.42,44.42,0,0,1-11,15.56V517.93A68.19,68.19,0,0,0,516.22,524a52.41,52.41,0,0,0,18.92-3.23,47.57,47.57,0,0,0,31.71-45.42,55.91,55.91,0,0,0-.73-8.9A50.31,50.31,0,0,0,552.34,468a45.46,45.46,0,0,1,.59,7.45c0,16-7.12,28.67-17.73,35.33v-38c8.17-6.39,16-10.55,29.33-10.55,20.3,0,36.45,16.55,36.45,40.61s-16.48,42-38.17,42a51.26,51.26,0,0,1-27.69-7.91V524.66a59.87,59.87,0,0,1-12.46,2.7V574a20.51,20.51,0,0,1-4.15,12.79h20.57a14.24,14.24,0,0,1-3.23-6.39,137.23,137.23,0,0,1,17,9.69c2.11,1.38,4,2.7,5.8,3.89,14,9,26.7,17,45.48,17,12.33,0,20.17-3.89,25.11-7.51,5.73-4.22,9-10,9.82-15.16C640.67,578.18,635.07,575.48,633.95,575ZM535,461.18V455.9H518.46s4.15,4.68,4.15,13.51v46.14a32.36,32.36,0,0,1-5.67.46h-1.38a54.66,54.66,0,0,0,1-10.74c0-20.57-9.76-33-18-39.81a54.42,54.42,0,0,0-10.61-6.92V446.41a39.43,39.43,0,0,1,28.08-11,35.9,35.9,0,0,1,32.43,20.43A59.63,59.63,0,0,0,535,461.18Zm-155.43,4.28c-1.38-.4-2.77-.73-4-1.12s-2.44-.73-3.43-1.05-2-.59-2.77-.86-1.45-.46-1.91-.66a3.86,3.86,0,0,1-.13.86,5.2,5.2,0,0,1-.2.86,3.72,3.72,0,0,1-.26.79c-.13.26-.2.53-.33.86l4.55,1c1.52.33,3,.73,4.48,1.12s3,.86,4.35,1.32a14.9,14.9,0,0,1,3.56,1.71,6.19,6.19,0,0,1,2.18,2.37,4.32,4.32,0,0,1,.13,3.3,11.56,11.56,0,0,1-1.05,2.7,4.06,4.06,0,0,1-1.85,1.65,6.43,6.43,0,0,1-3.16.46,23.79,23.79,0,0,1-4.88-.86c-1.85-.53-3.69-1-5.47-1.58s-3.69-1.19-5.73-2a10.23,10.23,0,0,1-.26,1.38A7.71,7.71,0,0,1,363,479c-.13.46-.26.86-.4,1.32s-.33.86-.46,1.32c.53.13,1.38.26,2.44.53s2.5.66,4.28,1.12c.59.13,1.12.33,1.71.46s1.12.33,1.71.46,1.19.33,1.91.53,1.45.4,2.31.66a9.1,9.1,0,0,0,4.15.26,7.1,7.1,0,0,0,3.23-1.38,8.64,8.64,0,0,0,2.31-2.77,19.43,19.43,0,0,0,1.52-3.76c.86-3.16.66-5.73-.53-7.84C385.83,468,383.33,466.45,379.57,465.46Zm6.06,28.74c-.13.33-.46,1.52-.59,2q-.4,1.29-1,3c-.33.92-.66,1.78-1.05,2.7a15.7,15.7,0,0,0-1.65-3.69,12.88,12.88,0,0,0-2.5-2.83,11.71,11.71,0,0,0-3.16-1.85,10.3,10.3,0,0,0-3.76-.73,13.45,13.45,0,0,0-5.34.73,10.56,10.56,0,0,0-3.89,2.57,10.94,10.94,0,0,0-2.37,4,16.91,16.91,0,0,0-1,5,13.81,13.81,0,0,0,.73,5.34,11.85,11.85,0,0,0,6.13,7,12.18,12.18,0,0,0,4.61,1.12,13,13,0,0,0,5.47-.79,9.8,9.8,0,0,0,3.82-2.57,10.52,10.52,0,0,0,2.31-3.89,15.5,15.5,0,0,0,.86-4.68c.66-1.19,1.32-2.57,1.78-3.36s.86-1.65,1.32-2.44c.33-.59.73-1.25,1.12-1.85a14.22,14.22,0,0,1-1.05-2.24C386.1,495.78,385.7,494.4,385.64,494.2ZM380.69,509a5.48,5.48,0,0,1-1.71,2.18,7.6,7.6,0,0,1-3,1.38,15.78,15.78,0,0,1-4.55.4,15.55,15.55,0,0,1-4-.66,11.35,11.35,0,0,1-3.23-1.58,6.55,6.55,0,0,1-2.11-2.37,5.5,5.5,0,0,1-.66-3.1,7.63,7.63,0,0,1,.79-3,6.41,6.41,0,0,1,2-2.24,9.88,9.88,0,0,1,3-1.38,14.91,14.91,0,0,1,4-.4,14.19,14.19,0,0,1,4.75.86,9.39,9.39,0,0,1,3.23,1.78,6.69,6.69,0,0,1,1.85,2.5,7.3,7.3,0,0,1,.53,2.9A11.69,11.69,0,0,1,380.69,509Zm92.42,128.74c-1.71.2-3.49.4-5.34.53a6.17,6.17,0,0,1,.53,1c.2.46.4.86.53,1.25l1.12-.2a8.48,8.48,0,0,0,1.25-.26l1.12-.2a4.87,4.87,0,0,1,.79-.13l-2.64,9.1c-.26.92-.53,1.78-.86,2.7s-.59,1.71-.86,2.5-.53,1.52-.73,2.11-.4,1.12-.53,1.45a9.64,9.64,0,0,1,1.32.33l1.25.4c.46.13.86.26,1.25.4a9.61,9.61,0,0,1,1.25.46c.4-1.58.73-3,1.05-4.22l1-3.56.73-2.44.59-2c.26-.79.46-1.65.79-2.5s.53-1.71.79-2.5.53-1.65.79-2.44.53-1.52.73-2.11l-.53-.46C476.6,637.31,474.76,637.57,473.11,637.77Zm-80-177.52c.13-.26.26-.59.46-1.05s.53-1.05.86-1.78.86-1.78,1.45-3,1.19-2.5,1.58-3.3l1-2a2,2,0,0,1-.53-.13c-.2-.07-.46-.2-.79-.33a2.36,2.36,0,0,1-.73-.4,4.63,4.63,0,0,0-.59-.4,34.25,34.25,0,0,1-1.38,3.63c-.53,1.19-1.05,2.37-1.58,3.49-1.25-.53-2.5-1.12-3.82-1.71-.66-.33-1.32-.66-1.91-.92s-1.32-.66-1.91-.92c1.12-2.31,2.31-4.55,3.63-6.72-.33-.13-.59-.2-.79-.26l-.53-.2a2.67,2.67,0,0,1-.59-.33c-.2-.13-.4-.26-.73-.53-.53,1.19-1,2.31-1.45,3.36s-1,2.31-1.65,3.63c-1.12-.53-2.24-1.05-3.3-1.58s-2.18-1.12-3.23-1.71c.13-.2.33-.59.59-1.12s.59-1.12.92-1.71.73-1.32,1.12-2,.73-1.32,1.05-1.85c-.26-.07-.46-.13-.66-.2s-.46-.2-.79-.33a7.79,7.79,0,0,1-1.19-.73c-.13.4-.53,1.25-1.05,2.37s-1.19,2.5-1.91,4c-.46.92-.92,1.78-1.38,2.64s-.92,1.78-1.38,2.64c1.32.59,2.7,1.12,4,1.71s2.83,1.32,4.48,2.11l4.15,2c1.65.79,3.16,1.52,4.42,2.24s2.57,1.32,3.76,2C392.89,460.65,393,460.45,393.08,460.25ZM529.73,654.51a6.21,6.21,0,0,0-1.19-1.65,5.11,5.11,0,0,0-1.58-1.05,5.67,5.67,0,0,0-1.65-.46v-.26a5.77,5.77,0,0,0,1.45-.66,4.8,4.8,0,0,0,1.19-1.12,5.38,5.38,0,0,0,.73-1.52,8.52,8.52,0,0,0,.2-1.91,5.28,5.28,0,0,0-.59-2,4.68,4.68,0,0,0-1.45-1.58,6.77,6.77,0,0,0-2.31-1,12.31,12.31,0,0,0-3.23-.2,12,12,0,0,0-2.83.53,6.87,6.87,0,0,0-2.18,1.19,5.45,5.45,0,0,0-1.38,1.85,4.76,4.76,0,0,0-.4,2.37,4.36,4.36,0,0,0,.46,1.65,3.93,3.93,0,0,0,.92,1.32,3.68,3.68,0,0,0,1.32.92,4.06,4.06,0,0,0,1.52.46v.26a8.09,8.09,0,0,0-1.71.79,6.57,6.57,0,0,0-1.38,1.32,5.92,5.92,0,0,0-.86,1.85,7.19,7.19,0,0,0-.2,2.44,6.22,6.22,0,0,0,.79,2.83,6.11,6.11,0,0,0,4.35,3,10,10,0,0,0,3.16.13,12.24,12.24,0,0,0,3.16-.59,6.86,6.86,0,0,0,2.44-1.45,6.12,6.12,0,0,0,1.52-2.31,7.86,7.86,0,0,0,.4-3.1C530.19,656,530,655.17,529.73,654.51ZM519.45,644a2.22,2.22,0,0,1,2-1.32,2,2,0,0,1,2,1,6.88,6.88,0,0,1,.86,3,5.6,5.6,0,0,1-.53,3.16,2.27,2.27,0,0,1-1.91,1.25,2.31,2.31,0,0,1-1.85-.86,4.34,4.34,0,0,1-1-2.9A6.41,6.41,0,0,1,519.45,644Zm5.27,17.67a2.51,2.51,0,0,1-2,1.45,2.35,2.35,0,0,1-2.18-1.19,8.14,8.14,0,0,1-1.05-4,7.61,7.61,0,0,1,.53-4.09,2.19,2.19,0,0,1,2-1.32,2.53,2.53,0,0,1,2.24,1.12,7.58,7.58,0,0,1,1.12,3.89A7.9,7.9,0,0,1,524.72,661.63ZM391.24,434.48l3.76,2.64c1.52,1.05,2.9,2,4,2.9s2.31,1.71,3.36,2.57c.07-.13.2-.33.33-.59a9,9,0,0,1,.66-.92c.26-.4.66-1,1.12-1.65s1.12-1.58,1.91-2.7,1.58-2.24,2.11-3,1-1.32,1.32-1.78a3.21,3.21,0,0,0-.46-.2,5.94,5.94,0,0,1-.73-.46,7.57,7.57,0,0,1-.66-.53c-.13-.13-.33-.26-.53-.46-.59,1.19-1.25,2.31-1.91,3.36s-1.38,2.18-2.11,3.23c-1.12-.73-2.31-1.52-3.49-2.31-.59-.4-1.19-.86-1.78-1.25s-1.19-.86-1.78-1.25c1.45-2.11,3-4.09,4.61-6.06a6,6,0,0,1-.73-.4,2.87,2.87,0,0,1-.46-.26c-.2-.13-.33-.26-.53-.4s-.4-.33-.66-.59c-.66,1.12-1.32,2.11-2,3.1s-1.38,2.11-2.18,3.3c-1-.73-2-1.38-3-2.11s-2-1.45-2.9-2.24c.13-.2.4-.53.73-1s.73-1,1.19-1.58l1.38-1.78c.46-.59.92-1.19,1.32-1.65a4.78,4.78,0,0,1-.59-.33,5.94,5.94,0,0,1-.73-.46,5.21,5.21,0,0,1-1.05-.92,22.92,22.92,0,0,1-1.38,2.18c-.73,1.05-1.52,2.31-2.5,3.69-.59.86-1.19,1.65-1.78,2.44l-1.78,2.37c1.25.79,2.44,1.58,3.69,2.37A48.87,48.87,0,0,1,391.24,434.48Zm69.54-56.76,1.45,4.35c.59,1.78,1.05,3.36,1.52,4.75s.79,2.77,1.12,4.09a11.26,11.26,0,0,1,1.19-.46c.4-.13.92-.33,1.45-.46s1-.33,1.45-.46a11,11,0,0,1,1.19-.33c-.59-1.52-1.19-3.1-1.78-4.61s-1.12-3.16-1.65-4.75l1.65-.53a14,14,0,0,0,3.16-1.45,7.22,7.22,0,0,0,2.18-2,5.6,5.6,0,0,0,1-2.7,7,7,0,0,0-.46-3.36,5.6,5.6,0,0,0-1.32-2.31,5.36,5.36,0,0,0-2.11-1.38,5,5,0,0,0-2.31-.33,15,15,0,0,0-3.69.86c-.79.26-1.52.53-2.31.86s-1.52.59-2.31.86a6.86,6.86,0,0,1-1.45.4,10.71,10.71,0,0,1-1.25.26c.53,1.38,1.05,2.7,1.58,4.09S460.19,375.95,460.78,377.73Zm2.77-8.77c.13-.07.2-.07.33-.13l.73-.26a5,5,0,0,1,1.38-.2,3,3,0,0,1,1.32.33,4.27,4.27,0,0,1,1.19,1.05,6.14,6.14,0,0,1,.92,2,6.91,6.91,0,0,1,.4,2.64,3.59,3.59,0,0,1-.66,1.78,4.59,4.59,0,0,1-1.32,1.19,16.86,16.86,0,0,1-1.58.73c-.53-1.52-1-3-1.45-4.48s-1-3-1.45-4.55C463.35,369.09,463.42,369,463.55,369Zm17.6,16.55c.26-.07.53-.07.79-.13a3.21,3.21,0,0,1,.79-.07c.13-1.12.26-2.31.46-3.49s.4-2.37.66-3.63a15.7,15.7,0,0,1,1.71-.33c.59-.13,1.12-.2,1.71-.33s1.38-.26,2.11-.33,1.45-.2,2.11-.33l1.78,3.16c.59,1.05,1.12,2.11,1.65,3.1.46-.13.92-.2,1.38-.33a20214598.85,20214598.85,0,0,0,2.77-.53l1.52-.2c-.86-1.19-1.85-2.64-2.9-4.35s-2.24-3.56-3.43-5.47-2.37-3.89-3.49-5.93-2.31-3.89-3.3-5.67l-.59.2a1.92,1.92,0,0,1-.59.13,2.24,2.24,0,0,1-.66.07H485c-.26,1.32-.59,2.77-.92,4.35s-.66,3.16-1.05,4.75-.73,3.23-1.05,4.75-.66,3-1,4.42-.59,2.64-.86,3.69-.46,2-.66,2.57a5.2,5.2,0,0,1,.86-.2A1,1,0,0,0,481.15,385.5Zm4-13.65c.26-1.38.59-2.77.92-4.22.73,1.25,1.52,2.44,2.18,3.69s1.38,2.44,2.11,3.69l-6.06,1.05C484.64,374.69,484.91,373.24,485.17,371.86ZM403.7,413.58c1.19,1.25,2.37,2.5,3.63,3.89s2.37,2.64,3.43,3.82,1.91,2.18,2.64,3a9.55,9.55,0,0,1,1.19,1.52c.33-.4.73-.79,1.05-1.12a4,4,0,0,0,.53-.53,5.76,5.76,0,0,1,.66-.53,6,6,0,0,1-.73-.66c-.33-.26-.73-.66-1.19-1.12s-1.05-1-1.71-1.71-1.45-1.52-2.37-2.44l-2.7-2.83c-.46-.46-.92-1-1.38-1.45s-.86-1-1.32-1.45c7.51.33,14.83.79,21.88,1.45a11.8,11.8,0,0,1,.92-1,7.06,7.06,0,0,1,1.05-.92l-2.83-2.9c-1.12-1.19-2.18-2.24-3.16-3.3l-3-3.16c-1-1.05-2-2.24-3.1-3.49s-2.31-2.64-3.63-4.15a11.56,11.56,0,0,1-1,1.19,6.77,6.77,0,0,1-1.19.92,7.06,7.06,0,0,1,1,.86c.46.46,1.05,1,1.65,1.65s1.32,1.32,2,2.11,1.52,1.52,2.24,2.31l2.24,2.37,2,2.11c-3.69-.2-7.32-.4-10.88-.66s-7.12-.46-10.81-.73a11.56,11.56,0,0,1-1,1.19,6.77,6.77,0,0,1-1.19.92c.59.59,1.25,1.19,2,1.91S402.64,412.46,403.7,413.58ZM427,393a6.17,6.17,0,0,0,2.31,2.24,7.84,7.84,0,0,0,2.7.73,13.83,13.83,0,0,0,2.83-.13c.92-.13,1.85-.26,2.7-.33a6.42,6.42,0,0,1,2.31.2,3.2,3.2,0,0,1,1.78,1.32,3.54,3.54,0,0,1,.53,2.57,3.81,3.81,0,0,1-2,2.44,4.79,4.79,0,0,1-1.71.73,4.27,4.27,0,0,1-1.58.07,3.74,3.74,0,0,1-1.45-.46,4.11,4.11,0,0,1-1.19-.92l-.53.33a20.53,20.53,0,0,1,.79,2c.2.66.46,1.32.66,2.11a5.88,5.88,0,0,0,2.37-.4,15.25,15.25,0,0,0,3-1.45,11.14,11.14,0,0,0,2.77-2.44,7.68,7.68,0,0,0,1.52-2.77,5.7,5.7,0,0,0,.2-3,7.18,7.18,0,0,0-1.12-2.9,5.86,5.86,0,0,0-2.37-2.24,7.84,7.84,0,0,0-2.7-.73,13.62,13.62,0,0,0-2.83.13c-.92.13-1.85.26-2.7.33a7,7,0,0,1-2.37-.2,2.63,2.63,0,0,1-1.71-1.32,2.79,2.79,0,0,1-.33-2.31,3.22,3.22,0,0,1,1.65-2.11,4.16,4.16,0,0,1,5,.2l.4-.26c-.2-.73-.4-1.38-.53-1.85s-.26-1-.4-1.52a7.34,7.34,0,0,0-2.64.26,10.51,10.51,0,0,0-2.9,1.38,8,8,0,0,0-3.43,4.42,6.51,6.51,0,0,0-.2,2.77A6.9,6.9,0,0,0,427,393Z" transform="translate(-343.25 -343.25)" style="fill:#0e4e8b"/></svg>