<?xml version="1.0" encoding="UTF-8"?><svg id="Layer_1" xmlns="http://www.w3.org/2000/svg" viewBox="0 0 245.18 245.18"><defs><style>.cls-1{fill:#fcee23;}.cls-2{fill:#010101;}.cls-3{fill:#ec2227;}.cls-4{fill:#fff;}</style></defs><path class="cls-4" d="M245.18,122.59c0,67.7-54.89,122.59-122.59,122.59-67.71,0-122.59-54.89-122.59-122.59S54.89,0,122.59,0s122.59,54.89,122.59,122.59Z"/><path class="cls-3" d="M239.05,122.59c0,64.31-52.14,116.45-116.45,116.45S6.14,186.9,6.14,122.59,58.28,6.14,122.59,6.14s116.45,52.14,116.45,116.45Z"/><path class="cls-4" d="M205.85,122.59c0,45.99-37.28,83.26-83.26,83.26s-83.26-37.27-83.26-83.26S76.61,39.33,122.59,39.33c45.98,0,83.26,37.28,83.26,83.26Z"/><circle class="cls-2" cx="122.59" cy="122.59" r="77.3"/><path class="cls-4" d="M119.09,89.23c-1.24,1.79-4.71,7.46-6.97,10.51,1.24,4.82,4.97,1.38,10.17,1.16,4.94-.21,7.16,3.87,10.29-1.33-2.05-3.41-5.68-8.92-6.9-10.52-.95.68-2.12,1.09-3.37,1.1-1.18.02-2.28-.33-3.22-.91"/><path class="cls-4" d="M121.82,78.2h0s-.31-9.04-.32-13.59c-3.88-3.11-5.22,2.18-9.25,5.48-3.83,3.12-8.46,1.49-7.85,7.52,3.8,1.55,10.73,3.56,12.43,4.05.88-1.93,2.76-3.3,5-3.46"/><path class="cls-4" d="M116.48,82.64c-1.33-.42-8.57-2.66-12.75-3.47-3.82,4.72.96,5.88,2.44,10.6,1.57,4.97-.21,10.13,4.74,9.64,2.15-3.25,6.3-9.15,7.42-10.76-1.24-1.08-2.05-2.65-2.08-4.43,0-.55.09-1.07.22-1.58"/><path class="cls-4" d="M122.7,78.2c2.24.16,4.11,1.53,5,3.46,1.69-.48,8.62-2.49,12.43-4.05.61-6.03-4.02-4.4-7.85-7.52-4.04-3.3-5.37-8.59-9.25-5.48-.01,4.55-.33,13.58-.33,13.58h0"/><path class="cls-4" d="M128.04,82.64c.13.51.23,1.03.22,1.58-.03,1.78-.72,3.27-1.97,4.35,1.13,1.6,5.16,7.07,7.31,10.33,4.95.49,3.17-4.16,4.74-9.13,1.48-4.72,6.26-5.88,2.44-10.6-4.18.81-11.41,3.05-12.75,3.47"/><path class="cls-4" d="M101.42,79.2c-.06.05-.9,2.56-.4,5.09.28,1.44,2.8,2.43,3.76,5.03,1.44,3.94-.59,11.25,4.76,11.03-10.36,7.27-19.03-18.09-8.12-21.15"/><path class="cls-4" d="M142.54,78.7c11.18,1.64,3.57,21.9-1.06,22.91-1.83.59-4.2-.05-5.6-.65,4.45-1.47,2.74-5.36,4.02-11.14.74-3.34,4-4.14,4.07-6.98.16-2.03-1.35-2.36-1.43-4.14"/><path class="cls-4" d="M110.94,101.72c2.49,4.75,5.81,1.03,12.49,1.24,4.47.14,8.73,2.37,10.61-1.06,3.3,10.99-25.5,12.78-23.1-.18"/><path class="cls-4" d="M120.9,62.9c-4.86-2.28-5.25,2.69-10.7,6.57-3.64,2.59-8.39,3.38-7.82,7.26-9.27-6.76,12.58-25.6,18.51-13.83"/><path class="cls-4" d="M123.52,62.9c4.86-2.28,5.25,2.69,10.7,6.57,3.64,2.59,8.39,3.38,7.81,7.26,9.27-6.76-12.58-25.6-18.51-13.83"/><path class="cls-4" d="M124.75,58.41s-2.59,1.83-2.52,3.85c-.1-2.13-2.62-3.79-2.62-3.79,0,0,2.62-1.84,2.53-3.85.19,2.73,2.61,3.79,2.61,3.79"/><path class="cls-4" d="M147.67,78.89s-2.64-1.62-4.5-1.46c2.26-.66,3.32-3.37,3.32-3.37,0,0,1.7,1.78,4.51,1.45-1.76.41-3.33,3.37-3.33,3.37"/><path class="cls-4" d="M135.85,107.02s.8-2.71-.23-4.76c1.3,1.7,4.55,1.44,4.55,1.44,0,0-1.07,3.11.23,4.77-1.3-1.62-4.55-1.44-4.55-1.44"/><path class="cls-4" d="M105.18,103.17s2.72.96,4.56-1.17c-1.2,1.95-.18,4.7-.18,4.7,0,0-2.79-.37-4.56,1.18,1.39-2.31.18-4.7.18-4.7"/><path class="cls-4" d="M98.19,74.46c-.02,1.93,2.7,3.42,2.7,3.42,0,0-2.13-.49-3.99,1.76-.53-2.35-2.72-3.43-2.72-3.43,0,0,3.21-.02,4-1.75"/><path class="cls-4" d="M127.39,84.11c.03,2.82-2.23,5.14-5.06,5.17-2.83.04-5.16-2.22-5.19-5.04-.03-2.82,2.23-5.13,5.06-5.17,2.83-.03,5.16,2.23,5.19,5.04"/><path class="cls-2" d="M122.27,87.09c-.28.41-.72.65-1.21.65-1.16-.02-2.3-1.13-2.34-2.29,0-.49.22-.93.62-1.22-.41-.28-.65-.71-.65-1.2.01-1.16,1.12-2.31,2.29-2.35.49,0,.93.22,1.22.62.28-.41.72-.65,1.21-.65,1.16.02,2.3,1.13,2.34,2.29.01.49-.22.93-.62,1.22.41.29.65.72.65,1.21-.01,1.16-1.13,2.3-2.29,2.34h0c-.49,0-.92-.22-1.21-.62"/><path class="cls-4" d="M120.99,81.7c-.6.02-1.28.72-1.29,1.34,0,.17.12.29.21.36l1.17.81-1.15.85c-.1.07-.21.2-.21.38.02.6.72,1.28,1.33,1.3.18,0,.3-.12.36-.21l.81-1.19.85,1.16c.1.14.22.2.37.2.61-.02,1.29-.72,1.3-1.33,0-.14-.07-.27-.21-.37l-1.17-.82,1.16-.84c.14-.1.21-.22.2-.37-.02-.61-.72-1.29-1.34-1.3-.13,0-.26.07-.36.21l-.82,1.16-.84-1.14c-.07-.09-.19-.2-.39-.2h0Z"/><path class="cls-2" d="M124.08,82.79c-.11-.05-.24-.08-.39-.08-.01-.36-.2-.62-.33-.74-.31-.29-.74-.41-1.16-.41-.42,0-.85.14-1.15.44-.13.12-.3.38-.31.75-.15,0-.28.04-.39.09-.51.23-.77.79-.76,1.4,0,.61.28,1.17.8,1.38.11.05.24.07.39.08.02.37.2.61.33.75.31.29.74.41,1.16.4.42,0,.85-.13,1.15-.43.12-.13.31-.38.31-.75.15,0,.28-.04.39-.09.51-.23.77-.79.76-1.4,0-.61-.28-1.17-.8-1.38"/><path class="cls-4" d="M123.72,84.66h-.04c-.07.01-.24-.05-.44-.2.02-.09.04-.19.04-.28,0-.09-.02-.18-.04-.26.19-.15.35-.22.42-.21h.04s.18.18.17.47c.01.29-.13.47-.16.48"/><path class="cls-4" d="M122.7,85.71c-.05.06-.25.14-.45.14-.2,0-.4-.07-.45-.13l-.03-.08c-.02-.09.09-.28.22-.45.09.02.17.04.27.04.08,0,.16-.02.24-.04.12.17.24.35.23.44l-.03.08Z"/><path class="cls-4" d="M120.79,84.7h-.03s-.18-.19-.17-.48c-.01-.29.13-.48.15-.48h.04s.02,0,.02,0c.07,0,.24.07.44.22-.02.08-.03.16-.03.25,0,.09.02.18.04.27-.21.17-.38.24-.46.23"/><path class="cls-4" d="M121.76,82.69c.06-.07.25-.14.45-.14.2,0,.39.06.45.13l.03.07c.02.08-.08.26-.2.42-.08-.02-.17-.03-.26-.03-.1,0-.19.02-.28.05-.13-.16-.23-.34-.22-.42l.02-.08Z"/><circle class="cls-4" cx="122.23" cy="84.2" r=".34"/><path class="cls-4" d="M105.27,175.99c1.01,1.88.85,3.87-.91,4.61-1.76.74-4.66-.07-5.88-1.95-4.95-7.49-2.2-16.43-6.41-23.92-1.01-1.87-.84-3.87.92-4.6,1.75-.73,4.66.07,5.88,1.95,4.95,7.49,2.2,16.43,6.4,23.91"/><path class="cls-4" d="M152.92,154.74c1-1.88.84-3.87-.92-4.61-1.75-.73-4.66.08-5.88,1.95-4.95,7.5-2.2,16.43-6.4,23.92-1,1.87-.85,3.87.92,4.6,1.75.74,4.67-.07,5.88-1.95,4.95-7.49,2.2-16.43,6.4-23.92"/><path class="cls-1" d="M76.91,164.44c1.02.31,1.59,1.38,1.29,2.4l-1.62,5.38c-.3,1.02-1.38,1.59-2.39,1.29-1.02-.31-1.6-1.38-1.29-2.4l1.61-5.38c.31-1.02,1.38-1.6,2.4-1.29"/><path class="cls-1" d="M82.03,164.28c1.03.31,1.6,1.38,1.29,2.39l-1.62,5.38c-.31,1.02-1.38,1.6-2.39,1.29-1.02-.31-1.6-1.38-1.3-2.4l1.62-5.38c.3-1.02,1.38-1.59,2.39-1.29"/><path class="cls-1" d="M87.41,163.72c1.01.31,1.59,1.38,1.29,2.4l-1.61,5.37c-.31,1.02-1.38,1.6-2.4,1.29-1.02-.3-1.6-1.38-1.29-2.39l1.61-5.38c.31-1.02,1.38-1.6,2.4-1.29"/><path class="cls-1" d="M92.62,163.32c1.02.31,1.6,1.38,1.29,2.4l-1.62,5.38c-.31,1.01-1.38,1.59-2.4,1.29-1.02-.31-1.6-1.38-1.29-2.4l1.62-5.38c.31-1.02,1.38-1.6,2.4-1.29"/><path class="cls-1" d="M168.25,164.44c-1.02.31-1.59,1.38-1.29,2.4l1.62,5.38c.3,1.02,1.38,1.59,2.4,1.29,1.02-.31,1.6-1.38,1.29-2.4l-1.62-5.38c-.31-1.02-1.37-1.6-2.39-1.29"/><path class="cls-1" d="M163.11,164.28c-1.01.31-1.59,1.38-1.29,2.4l1.62,5.38c.3,1.02,1.38,1.6,2.4,1.3,1.02-.31,1.59-1.38,1.29-2.41l-1.61-5.37c-.31-1.02-1.38-1.6-2.41-1.29"/><path class="cls-1" d="M157.74,163.72c-1.02.3-1.6,1.38-1.29,2.4l1.61,5.38c.31,1.02,1.38,1.6,2.4,1.29,1.02-.3,1.59-1.38,1.29-2.39l-1.62-5.38c-.3-1.02-1.38-1.59-2.39-1.29"/><path class="cls-1" d="M152.53,163.32c-1.02.31-1.6,1.38-1.29,2.4l1.62,5.38c.3,1.01,1.38,1.59,2.4,1.29,1.02-.3,1.59-1.38,1.29-2.39l-1.62-5.38c-.31-1.02-1.37-1.6-2.39-1.29"/><path class="cls-4" d="M156.09,96.03c-3,25.9-16.4,41.05-32.28,54.08,2.62,1.8,5.29,3.45,7.95,4.98,24.4-13.87,44.07-32.47,45.59-69.22-7.28,3.2-14.07,6.88-21.26,10.17Z"/><path class="cls-4" d="M103.1,161.75c.46,1.73.37,3.5.83,4.62,5.65-2.2,12.38-3.83,17.49-6.56-2.74-1.15-5.49-2.41-8.21-3.78-2.85,2.19-6.32,3.95-10.19,5.13.03.2.05.4.08.6Z"/><path class="cls-4" d="M141.56,164.54c.11-1,.22-2.01.36-3.03-26.77-12.78-48.11-30.66-52.83-65.49-7.19-3.28-13.97-6.97-21.25-10.17,2.63,48.27,35.3,68.73,73.59,79.81.04-.38.08-.75.13-1.13Z"/><path class="cls-4" d="M25.84,117.06c2.38.22,3.48-1.54,3.68-3.64.13-1.38-.07-3.51-1.9-3.69-1.93-.18-2.5,2.46-3.45,5.02-.95,2.58-2.23,5.16-5.58,4.85-3.65-.35-5.08-3.96-4.77-7.19.35-3.73,2.3-7,6.43-6.61l-.36,3.8c-2.16-.08-2.86,1.4-3.03,3.27-.12,1.25.27,2.75,1.77,2.89,1.38.13,1.63-.7,3.21-5.07.45-1.27,1.65-5.19,5.7-4.81,3.28.31,5.48,3.12,5.02,7.97-.37,3.95-2.67,7.47-7.07,7l.36-3.8Z"/><path class="cls-4" d="M15.9,99.77l1.09-3.79,6.62,1.9,2-6.98-6.62-1.9,1.09-3.79,17.24,4.95-1.09,3.79-7.44-2.13-2,6.98,7.44,2.13-1.09,3.79-17.24-4.95Z"/><path class="cls-4" d="M22.37,79.65l6.01-11.99,2.96,1.48-4.24,8.47,3.44,1.72,3.89-7.77,2.74,1.37-3.89,7.77,3.93,1.97,4.33-8.65,2.96,1.48-6.1,12.17-16.04-8.03Z"/><path class="cls-4" d="M31.61,62.61l7.49-10.14,2.67,1.97-5.15,6.97,3.33,2.46,4.46-6.04,2.47,1.82-4.46,6.04,5.96,4.4-2.34,3.17-14.43-10.65Z"/><path class="cls-4" d="M41.69,49.59l8.93-8.91,2.34,2.35-6.14,6.12,2.93,2.93,5.32-5.3,2.16,2.17-5.32,5.3,5.23,5.25-2.79,2.79-12.67-12.7Z"/><path class="cls-4" d="M53.59,38.42l3.09-2.45,11.13,14.07-3.09,2.45-11.13-14.07Z"/><path class="cls-4" d="M60.88,32.72l11.48-6.94,1.72,2.84-8.1,4.9,1.99,3.29,7.44-4.5,1.59,2.62-7.44,4.5,2.27,3.76,8.28-5,1.72,2.84-11.65,7.04-9.28-15.35Z"/><path class="cls-4" d="M77.92,23.17l3.68-1.43,5.29,13.63,8.15-3.16,1.2,3.09-11.83,4.59-6.49-16.72Z"/><path class="cls-4" d="M95.46,16.92l7.61-1.39c4.57-.84,8.53,1.4,9.6,7.26.94,5.11-.99,9.4-6.37,10.38l-7.61,1.39-3.23-17.64ZM101.97,30.59l3.46-.63c2.25-.41,4.14-2.19,3.43-6.09-.65-3.56-2.3-5.6-6.16-4.9l-2.77.51,2.03,11.12Z"/><path class="cls-4" d="M141.22,26.4c-.54,4.82-3.65,6.84-8.42,6.31-4.79-.54-7.33-3.17-6.78-8.02l1.24-11.08,3.92.44-1.24,11.08c-.22,1.95.06,3.92,3.23,4.28,2.79.31,3.83-.81,4.13-3.45l1.24-11.08,3.92.44-1.24,11.08Z"/><path class="cls-4" d="M147.75,16.43l3.74,1.17,3.57,13.71h.05s3.58-11.47,3.58-11.47l3.53,1.1-5.33,17.12-3.76-1.17-3.55-13.68-.05-.02-3.57,11.46-3.53-1.1,5.33-17.12Z"/><path class="cls-4" d="M167.19,23.29l3.57,1.68-7.65,16.22-3.57-1.68,7.65-16.22Z"/><path class="cls-4" d="M176.58,31.91l-4.57-2.84,1.75-2.82,12.48,7.76-1.75,2.82-4.56-2.84-7.72,12.42-3.35-2.08,7.72-12.42Z"/><path class="cls-4" d="M188.99,36.15l10.13,8.78-2.17,2.5-7.15-6.2-2.52,2.9,6.57,5.69-2.01,2.32-6.57-5.69-2.88,3.32,7.31,6.33-2.17,2.51-10.29-8.91,11.74-13.55Z"/><path class="cls-4" d="M203.59,49.54l4.77,6.09c2.87,3.66,2.73,8.2-1.96,11.87-4.09,3.21-8.78,3.5-12.16-.81l-4.77-6.09,14.11-11.06ZM194.52,61.66l2.17,2.77c1.41,1.8,3.87,2.65,6.99.2,2.85-2.23,3.89-4.65,1.47-7.73l-1.74-2.21-8.89,6.97Z"/><path class="cls-4" d="M221.14,76.05l4.78,11.67-3.07,1.26-3.29-8.02-3.83,1.57,2.85,6.95-2.83,1.16-2.85-6.95-6.86,2.81-1.5-3.65,16.59-6.8Z"/><path class="cls-4" d="M212.71,93.18l1.14,3.77-3.7,1.12-1.14-3.77,3.7-1.12Z"/><path class="cls-4" d="M224.71,110c1.72-.54,2.78-2.45,2.46-4.38-.58-3.49-3.77-4.31-6.87-3.8-2.95.49-5.71,2.29-5.13,5.79.39,2.38,2.25,3.45,4.63,3.36l.62,3.77c-4.48.33-7.81-2.25-8.53-6.58-.91-5.48,2.65-9.38,7.75-10.22,5.25-.87,9.88,1.67,10.78,7.15.64,3.89-1.09,7.54-5.1,8.69l-.63-3.77Z"/><path class="cls-4" d="M217.23,117.54l.13,3.94-3.87.12-.13-3.94,3.87-.12Z"/><path class="cls-4" d="M102.49,229.48l-3.49-.75,2.39-11.15-4.32-.93.56-2.63c2.42.57,4.84.21,5.77-2.33l2.78.59-3.69,17.2Z"/><path class="cls-4" d="M114.49,213.01c4.35.39,5.59,3.52,5.44,5.22-.15,1.73-1.18,3.05-2.88,3.5v-.05s0,.02,0,.02v.02c2.03.66,3.09,2.37,2.9,4.57-.33,3.68-3.79,5.21-7.04,4.92-3.38-.3-6.5-2.29-6.17-6.07.2-2.23,1.59-3.69,3.69-4.01v-.05c-1.65-.63-2.41-2.11-2.25-3.83.28-3.15,3.48-4.51,6.33-4.25ZM113.13,228.55c1.7.15,3.11-.93,3.26-2.69.15-1.68-1.1-2.92-2.75-3.07-1.73-.15-3.19.7-3.35,2.5-.16,1.8,1.14,3.1,2.84,3.25ZM113.83,220.41c1.45.13,2.7-.57,2.83-2.07.08-.9-.21-2.46-2.41-2.66-1.43-.13-2.75.64-2.89,2.19-.14,1.53,1.05,2.41,2.47,2.54Z"/><path class="cls-4" d="M128.23,213.19c4.36-.27,6.05,2.65,6.16,4.36.11,1.73-.71,3.19-2.33,3.89v-.05s0,.02,0,.02v.02c2.11.35,3.41,1.88,3.55,4.09.23,3.69-2.97,5.72-6.23,5.92-3.39.21-6.78-1.3-7.01-5.08-.14-2.23,1.02-3.89,3.05-4.52v-.05c-1.74-.37-2.7-1.72-2.81-3.45-.19-3.16,2.77-4.98,5.63-5.15ZM128.68,220.61c1.45-.09,2.58-.96,2.49-2.47-.06-.9-.58-2.41-2.78-2.27-1.43.09-2.63,1.04-2.53,2.6.09,1.53,1.39,2.23,2.82,2.14ZM129.2,228.76c1.7-.1,2.93-1.39,2.83-3.14-.1-1.68-1.53-2.73-3.18-2.62-1.73.11-3.05,1.17-2.94,2.97.11,1.81,1.59,2.9,3.29,2.79Z"/><path class="cls-4" d="M141.8,225.05c.47,1.11,1.56,1.9,2.77,1.64,2.53-.54,2.48-4,2.17-5.94l-.06-.04c-.67,1.56-1.8,2.39-3.47,2.75-1.47.32-3.12-.05-4.33-.92-1.13-.86-1.86-2.2-2.15-3.55-.75-3.51,1.08-6.81,4.67-7.58,5.21-1.12,7.58,3.13,8.51,7.48.9,4.2.06,9.39-4.83,10.44-2.97.64-5.56-.63-6.6-3.57l3.32-.71ZM145.57,216.86c-.34-1.6-1.72-2.97-3.46-2.6-1.67.36-2.29,2.16-1.95,3.71.35,1.62,1.53,3.06,3.32,2.68,1.87-.4,2.45-2.09,2.09-3.79Z"/></svg>