<?xml version="1.0" encoding="UTF-8"?><svg id="Layer_1" xmlns="http://www.w3.org/2000/svg" viewBox="0 0 158.79 185.33"><defs><style>.cls-1{stroke-width:.29px;}.cls-1,.cls-2{stroke:#213b8a;}.cls-1,.cls-2,.cls-3{fill:none;}.cls-2{stroke-width:.27px;}.cls-4{fill:#fff;}.cls-3{stroke:#dd2f34;stroke-width:.28px;}.cls-5{fill:#d1162e;}.cls-6{fill:#212c55;}</style></defs><path class="cls-4" d="M155.99,126.21l-.06-.06-.06-.06-11.46-9.19c-1.54-1.45-3.57-2.27-5.69-2.29h-.42c-.65,0-1.3.07-1.94.19.67-3.24,1.15-6.51,1.43-9.8.22-2.5.34-5,.35-7.37V0H20.37v97.64c0,2.4.13,4.87.35,7.37.28,3.28.76,6.53,1.42,9.75-.55-.09-1.1-.14-1.65-.14h-.5c-2.12.02-4.15.84-5.69,2.29l-11.43,9.18-.06.06-.06.06c-1.98,1.76-2.99,4.37-2.7,7,.65,5,6.18,8.4,6.8,8.77l1.51.88,1.37-1.07,3-2.59c.93-.18,1.9.06,2.63.67.44.38,1.25,1.13,1.63,3.75l.2,1.35-1.64,1.41-1.73,1.5,1.3,1.89c2.13,3.26,4.52,6.34,7.13,9.23,15.24,17.19,34.85,26.28,56.74,26.33h1c21.68-.18,41.14-9.27,56.25-26.29,2.62-2.91,5.02-6.01,7.16-9.29l1.29-1.89-1.73-1.5-1.39-1.2.23-1.56c.38-2.62,1.19-3.37,1.63-3.75.73-.61,1.7-.85,2.63-.67l3,2.59,1.37,1.07,1.5-.88c.63-.37,6.16-3.74,6.81-8.77.29-2.63-.72-5.24-2.7-7"/><path class="cls-6" d="M125.55,134.68c1.92-2.96,3.58-6.08,4.95-9.33,2.65-6.56,4.25-13.5,4.77-20.56.21-2.42.33-4.82.34-7.16V2.56H22.93v95.07c0,2.33.13,4.74.34,7.16.5,7.05,2.09,13.99,4.72,20.55,1.39,3.25,3.07,6.38,5,9.34l-15.78,13.62c2.09,3.18,4.44,6.19,7,9,14.7,16.62,33.65,25.42,54.78,25.46h1c20.94-.17,39.73-9,54.36-25.43,2.57-2.81,4.91-5.82,7-9l-15.8-13.65Z"/><path class="cls-4" d="M79.34,7.74H28.11v87.26s-.83,15.45,4.69,28.43c0,0,13.12,33.49,46.36,33.49h.18c33.24,0,46.54-33.49,46.54-33.49,5.52-13,4.69-28.43,4.69-28.43V7.74h-51.23Z"/><path class="cls-6" d="M71.29,138.78c0-1.81.53-2.75,1.58-2.75s1.56.87,1.56,2.75-.51,2.73-1.56,2.73-1.58-.89-1.58-2.73M74.87,142c1.47-.45,2.43-1.87,2.3-3.4,0-2.44-1.48-3.79-4.17-3.79s-4.47,1.52-4.47,3.79c-.14,1.54.84,2.95,2.32,3.38v.17c-1.89.51-2.86,2-2.86,4.34,0,2.89,1.75,4.15,4.86,4.75s4.86-.89,4.86-3.83c0-2.13-1-4.8-2.85-5.26v-.15ZM71.19,146.34c0-2.37.53-3.55,1.67-3.55s1.67,1.18,1.67,3.55-.59,3.52-1.67,3.52-1.67-1.13-1.67-3.52"/><path class="cls-6" d="M85.55,146.58c0,2.49-.49,3.73-1.48,3.73s-1.54-1.26-1.54-3.82c0-2.27.49-3.38,1.5-3.38s1.51,1.11,1.51,3.48M82.54,142.59v-.07c0-3.95.82-6.24,2.61-6.24.91.05,1.71.6,2.09,1.43l.12-.05c.05-.78.14-1.57.28-2.34-1.06-.37-2.18-.56-3.3-.57-3.9,0-5.22,4.45-5.22,10.49,0,4.62,1.74,6.85,5,6.34,3-.46,4.77-2.12,4.77-5.65,0-2.89-1.42-4.59-3.64-4.59-1.05-.06-2.07.42-2.7,1.26"/><path class="cls-6" d="M90.83,147.21c.43.64,1.13,1.04,1.9,1.09,2.87-.12,2.53-4.64,2.53-4.64-.31-2.33-2.06-2-3.46-1.91-.24,0-.58,0-.79.09l.05-1.69c.16,0,.31,0,.47,0,1.52-.14,2.55-.59,2.83-2.09.17-.91,0-2.34-1.55-2.29-1.74,0-2,1.33-2.51,2l-.21-.11-.19-2c.9-1.08,3.18-1.23,3.18-1.23,2.34-.21,4.16,1.09,4.33,2.94.12,1.35-.37,1.91-2,2.69v.13c1.95-.11,2.71.53,3.16,1.89.73,2.2.5,7.85-9.11,8.29.6-.89.95-1.93,1-3l.37-.16Z"/><path class="cls-2" d="M90.83,147.21c.43.64,1.13,1.04,1.9,1.09,2.87-.12,2.53-4.64,2.53-4.64-.31-2.33-2.06-2-3.46-1.91-.24,0-.58,0-.79.09l.05-1.69c.16,0,.31,0,.47,0,1.52-.14,2.55-.59,2.83-2.09.17-.91,0-2.34-1.55-2.29-1.74,0-2,1.33-2.51,2l-.21-.11-.19-2c.9-1.08,3.18-1.23,3.18-1.23,2.34-.21,4.16,1.09,4.33,2.94.12,1.35-.37,1.91-2,2.69v.13c1.95-.11,2.71.53,3.16,1.89.73,2.2.5,7.85-9.11,8.29.6-.89.95-1.93,1-3l.37-.16Z"/><path class="cls-6" d="M66.41,149.5c-1.36-.57-2.7-1.2-4-1.9.3-2.88.44-5.77.42-8.66,0-.51,0-.87-.08-1.59-.77.31-.45,0-1.22.5l-.85-1.29c1.7-.44,3.34-1.06,4.91-1.85l.39.21c-.06,4.14,0,6.44,0,7.78,0,1.7.22,4.44.37,6.13,0,.35.1.68.1.68"/><path class="cls-1" d="M66.41,149.5c-1.36-.57-2.7-1.2-4-1.9.3-2.88.44-5.77.42-8.66,0-.51,0-.87-.08-1.59-.77.31-.45,0-1.22.5l-.85-1.29c1.7-.44,3.34-1.06,4.91-1.85l.39.21c-.06,4.14,0,6.44,0,7.78,0,1.7.22,4.44.37,6.13,0,.35.06.67.06.67Z"/><path class="cls-4" d="M63.91,168.46l.67-2.58.25-1c0-.08.09-.34.21-.78l.55.09c1.11.29,1.5,1.12,1.15,2.48-.44,1.69-1.25,2.16-2.83,1.75M63.61,169.62l.55.16c2.77.72,4.47-.14,5.11-2.58.56-2.18-.34-3.38-2.67-4-1-.25-1.91-.39-2.78-.61-.39-.11-.77-.24-1.14-.39-.4,2.16-.88,4.11-1.32,5.82-.4,1.53-.89,3.44-1.67,5.71.6.1,1.08.19,1.44.29s.84.25,1.4.45c.24-1.43.42-2.29.49-2.56l.59-2.29Z"/><path class="cls-4" d="M74.12,170.64c0-3.23,1.23-5.07,3.14-5.07s3.13,1.8,3.14,5.06-1.27,5-3.13,5-3.15-1.78-3.15-5M71.32,170.79c0,3.88,2.08,6,5.82,6s6.08-2.37,6.07-6.46c0-3.79-2.14-5.92-5.8-5.92s-6.09,2.31-6.08,6.37"/><path class="cls-4" d="M89.99,165.24c.1,1,.24,1.79.35,2.43l.12.7c.43,2.51.84,4.88,1.42,7.13-.68.06-1.18.11-1.46.16s-.85.18-1.43.33c-.2-2.16-.49-4.11-.8-5.89-.16-.95-.47-2.43-.86-4.42-.92.16-1.83.38-2.72.68,0-.33,0-.65-.1-.9s-.1-.39-.19-.75c1.67-.22,3.05-.4,4.1-.58s2.35-.46,4-.82c0,.36.06.61.08.76s.11.56.2.88c-.93.02-1.85.11-2.77.27"/><path class="cls-4" d="M99.86,162.34c.26.94.54,1.73.75,2.34l.23.67c.84,2.4,1.63,4.67,2.57,6.8-.66.18-1.14.3-1.41.4s-.81.32-1.36.57c-.55-2.1-1.16-4-1.76-5.68-.32-.9-.86-2.32-1.57-4.21-.88.31-1.74.68-2.57,1.12-.08-.33-.15-.63-.24-.88s-.16-.37-.31-.71c1.61-.49,2.94-.9,4-1.25s2.25-.84,3.85-1.48c.09.36.16.59.21.74s.2.54.34.84c-.91.17-1.81.41-2.69.72"/><path class="cls-4" d="M107.53,164.86l-.58-1.05-.35-.64c-.82-1.54-1.72-3.04-2.69-4.49,1.31-.66,2.21-1.11,2.68-1.37.73-.4,1.68-1,2.82-1.64.13.31.23.55.32.72s.24.37.42.64c-.79.33-1.51.69-2.2,1.06-.3.17-.6.33-.87.5.39.78.79,1.54,1.19,2.27l.44.81,2.89-1.77c.1.26.21.51.34.75.08.14.23.35.44.67-1.06.48-2.06.98-3,1.49l.91,1.67c.42.76.8,1.43,1.18,2,.98-.54,1.94-1.13,2.85-1.78.13.3.25.54.35.74s.24.37.45.69c-1.58.81-2.74,1.4-3.44,1.79-.53.29-1.21.68-2,1.21-.62-1.46-1.32-2.88-2.1-4.26"/><path class="cls-4" d="M116.79,156.62l-1.48-1.9c-.3-.38-.71-.91-1.18-1.58.17-.13.28-.2.32-.22.64-.73,1.76-.81,2.5-.16.16.14.3.32.4.51,1,1.28.82,2.28-.51,3.32h0M118.74,163.33c.42-.39.76-.71,1-.93s.65-.47,1.14-.78c-.75-.81-1.45-1.65-2.13-2.54l-1.4-1.8c1.97.73,3.89,1.61,5.73,2.63.43-.4.81-.74,1.15-1s.77-.55,1.38-1c-1.76-.62-3.87-1.45-6.35-2.59,1.07-.99,1.14-2.67.14-3.74-.01-.02-.03-.03-.04-.05-1.34-1.72-2.79-1.74-4.63-.3-.89.7-1.63,1.43-2.38,2-.28.22-.61.43-1,.67,1.52,1.64,2.76,3.21,3.82,4.58l.38.48c.91,1.17,2,2.57,3.12,4.33"/><path class="cls-4" d="M125.62,152.87l.17-.2c1.3.79,2.34.72,3.21-.27.71-.6.8-1.66.2-2.37-.06-.07-.13-.14-.2-.2-.77-.68-1.53-.4-2.9.13-2,.76-3.22,1-4.67-.21-1.67-1.48-1.82-3.53-.13-5.45.63-.75,1.45-1.3,2.38-1.59.39.7.83,1.36,1.31,2l-.12.14c-1.24-.52-2.12-.41-2.83.39-.64.57-.69,1.55-.12,2.19.04.04.08.08.12.12.77.68,1.55.25,3.11-.35,1.83-.68,3-1,4.54.3,1.83,1.61,1.9,3.83,0,5.95-.62.72-1.38,1.29-2.25,1.68-.65-.82-1.27-1.57-1.83-2.25"/><path class="cls-4" d="M36.44,146.14c-.74.64-1.34,1.22-1.8,1.67l-.51.5c-1.82,1.77-3.55,3.45-5.08,5.2-.44-.52-.76-.9-1-1.11s-.63-.6-1.09-1c1.67-1.39,3.11-2.73,4.41-4,.69-.67,1.74-1.76,3.16-3.21-.65-.67-1.36-1.29-2.1-1.86.24-.18.47-.38.69-.59.11-.11.27-.3.51-.58,1.12,1.26,2.06,2.29,2.8,3.05s1.71,1.68,3,2.87c-.29.23-.47.39-.58.5s-.4.41-.62.67c-.54-.76-1.14-1.47-1.79-2.14"/><path class="cls-4" d="M36.99,154.23l.43-.53c1.1-1.33,2.35-2.88,3.65-4.71.45.46.78.8,1,1,.39.3.79.58,1.21.84-.66.68-1.27,1.37-1.86,2.08l-1.21,1.47c.75.66,1.26,1.12,1.53,1.35.49.4,1.08.85,1.75,1.35l1.21-1.47c.59-.72,1.14-1.46,1.68-2.24.47.48.82.83,1.06,1,.38.29.77.56,1.18.81-1.53,1.62-2.8,3.14-3.92,4.5l-.43.52c-.9,1.09-2,2.45-3.21,4.17-.42-.41-.76-.74-1-1s-.69-.52-1.19-.86c.61-.63,1.19-1.26,1.74-1.93l2-2.39c-.64-.58-1.21-1.07-1.67-1.45s-.86-.68-1.61-1.26l-2,2.4c-.55.67-1.07,1.35-1.57,2.07-.43-.42-.78-.76-1.08-1s-.68-.51-1.15-.84c1.46-1.53,2.58-2.87,3.48-4"/><path class="cls-4" d="M47.78,163.13l.57-1.06.35-.64c.85-1.52,1.62-3.09,2.31-4.7,1.27.75,2.13,1.25,2.61,1.51.73.4,1.72.89,2.91,1.47-.18.27-.34.49-.43.66s-.18.4-.31.71c-.67-.46-1.37-.88-2.09-1.27-.3-.16-.6-.32-.89-.46-.44.75-.86,1.5-1.26,2.23l-.44.82,3.05,1.47c-.16.22-.31.45-.44.69-.08.14-.17.38-.33.73-.98-.63-1.95-1.21-2.9-1.75l-.9,1.67c-.42.76-.77,1.45-1,2.08.97.53,1.97,1.01,3,1.43-.18.28-.32.5-.43.7s-.18.4-.34.75c-1.54-.89-2.67-1.54-3.37-1.92-.53-.29-1.23-.65-2.11-1,.89-1.31,1.7-2.67,2.43-4.08"/><path class="cls-5" d="M54.3,29.39v-12.46c-2.5.13-4.95.74-7.23,1.78l1.48-4.62h18.35l-2,4.1c-1.69-.83-3.55-1.26-5.43-1.26v12.46c-.06,1.85.3,3.69,1.05,5.38h-7.3c.75-1.69,1.11-3.53,1.05-5.38"/><path class="cls-5" d="M89.66,29.39v-9.92c.06-1.85-.3-3.69-1.05-5.38h7.3c-.75,1.69-1.11,3.53-1.05,5.38v4l6.31-7.16c.57-.52.93-1.23,1-2v-.25h8.15c-1.62.93-3.11,2.06-4.44,3.36l-5.43,5.87,7.29,8.71c.88.99,1.84,1.92,2.86,2.76h-8.15c.03-.24.05-.47.06-.71-.04-.85-.4-1.66-1-2.27l-6.64-8v5.57c-.06,1.85.3,3.69,1.05,5.38h-7.3c.75-1.69,1.11-3.53,1.05-5.38"/><path class="cls-5" d="M112.61,29.39v-9.92c.06-1.85-.3-3.69-1.05-5.38h14.11l-2.34,4c-1.77-.62-3.64-.94-5.52-.93v5.71h7.14l-2.66,3.74c-1.23-.66-2.61-.97-4-.9h-.46v5.93c.69,0,1.38.06,2,.06,2.54.08,5.08-.29,7.49-1.09l-2,4.13h-13.77c.75-1.69,1.11-3.53,1.05-5.38"/><path class="cls-5" d="M63.84,41.48c-2.52-.16-4.69,1.76-4.85,4.27-.01.18-.01.36,0,.54,0,3,2.09,4.89,5.22,4.89,1.62.06,3.18-.62,4.25-1.85l-.47,3.14c-1.53.57-3.16.86-4.79.85-1.72.05-3.41-.41-4.87-1.32-1.84-1.09-2.96-3.07-2.94-5.21,0-2.27,1.12-4.4,3-5.67,1.79-1.23,3.91-1.87,6.08-1.83,1.25.02,2.5.2,3.7.55v3.43c-1.18-1.11-2.73-1.74-4.35-1.78"/><path class="cls-3" d="M63.84,41.48c-2.52-.16-4.69,1.76-4.85,4.27-.01.18-.01.36,0,.54,0,3,2.09,4.89,5.22,4.89,1.62.06,3.18-.62,4.25-1.85l-.47,3.14c-1.53.57-3.16.86-4.79.85-1.72.05-3.41-.41-4.87-1.32-1.84-1.09-2.96-3.07-2.94-5.21,0-2.27,1.12-4.4,3-5.67,1.79-1.23,3.91-1.87,6.08-1.83,1.25.02,2.5.2,3.7.55v3.43c-1.17-1.11-2.72-1.75-4.33-1.79Z"/><path class="cls-5" d="M71.1,49.58v-6.58c.04-1.23-.19-2.45-.68-3.58h4.69c-.49,1.13-.72,2.35-.68,3.58v6.59c-.04,1.23.19,2.45.68,3.58h-4.69c.49-1.13.72-2.35.68-3.58"/><path class="cls-3" d="M71.1,49.58v-6.58c.04-1.23-.19-2.45-.68-3.58h4.69c-.49,1.13-.72,2.35-.68,3.58v6.59c-.04,1.23.19,2.45.68,3.58h-4.69c.49-1.13.72-2.36.68-3.59Z"/><path class="cls-5" d="M80.99,49.58v-8.29c-1.61.09-3.19.49-4.65,1.18l1-3.07h11.74l-1.27,2.72c-1.08-.55-2.28-.84-3.49-.84v8.28c-.05,1.23.18,2.46.67,3.6h-4.68c.49-1.13.72-2.35.68-3.58"/><path class="cls-3" d="M80.99,49.58v-8.29c-1.61.09-3.19.49-4.65,1.18l1-3.07h11.74l-1.27,2.72c-1.08-.55-2.28-.84-3.49-.84v8.28c-.05,1.23.18,2.46.67,3.6h-4.68c.49-1.13.72-2.35.68-3.58Z"/><path class="cls-5" d="M99.39,53.16h-4.69c.48-1.13.71-2.35.67-3.58v-2.85l-3.53-5c-.56-.82-1.18-1.59-1.85-2.32h4.67c-.01.1-.01.21,0,.31,0,.31.07.61.23.87l2.39,3.54,2-3.29c.18-.3.28-.65.29-1,0-.14,0-.28,0-.42h4.27c-.76.69-1.44,1.48-2,2.34l-3,4.42v3.41c-.04,1.23.19,2.45.68,3.58"/><path class="cls-3" d="M99.39,53.16h-4.69c.48-1.13.71-2.35.67-3.58v-2.85l-3.53-5c-.56-.82-1.18-1.59-1.85-2.32h4.67c-.01.1-.01.21,0,.31,0,.31.07.61.23.87l2.39,3.54,2-3.29c.18-.3.28-.65.29-1,0-.14,0-.28,0-.42h4.27c-.76.69-1.44,1.48-2,2.34l-3,4.42v3.41c-.08,1.22.11,2.43.55,3.57Z"/><path class="cls-5" d="M87.23,24.46c0,6.83-4.82,10.54-10.78,10.54s-10.77-3.52-10.77-10.54c.18-5.95,5.15-10.63,11.1-10.45,5.7.17,10.27,4.75,10.45,10.45M76.44,16.46c-3.34,0-4.89,3.87-4.89,7.94s1.55,7.93,4.89,7.93,4.89-3.87,4.89-7.93-1.55-7.94-4.89-7.94"/><path class="cls-5" d="M44.82,24.2c-.72-.51-2.46-1.34-4.49-2.5-1.61-.93-2.83-1.71-2.79-2.83s1.13-2.26,3-2.19c2.13.25,4.05,1.37,5.32,3.1l-.07-5.17c-1.3-.39-2.64-.61-4-.65-5.62-.19-9.09,2.15-9.23,5.84-.07,2.37,1.43,3.9,4.43,5.53,2.64,1.48,4.88,2.14,4.95,4-.05,1.35-1.31,2.52-3.26,2.45s-4-1.44-5.53-3.43l.06,5.82c1.47.45,2.99.7,4.53.74,5.87.2,9.43-2.43,9.58-6.58-.05-1.71-.97-3.27-2.45-4.12"/><path class="cls-5" d="M143.99,126.53c2.14-2.25.09-6,.09-6,0,0-1.86-3.48-5.59-3.31-.94,0-1.87.14-2.76.45-.73,2.92-1.67,5.79-2.83,8.57h0c-1.17,2.76-2.54,5.44-4.1,8l1.41,1.22,9.06,7.82c1.12-7.68,5.43-5.8,5.43-5.8l-10.17-8.1c7.74-.3,9.47-2.8,9.47-2.8"/><path class="cls-6" d="M146.4,121.16s3.86,8.26-7.84,9.13l12.06,9.45s9.67-5.65,3.58-11.72l-7.8-6.86Z"/><path class="cls-5" d="M14.68,126.64c-2.14-2.24-.09-6-.09-6,0,0,1.85-3.48,5.59-3.31.94,0,1.87.14,2.76.45.73,2.92,1.67,5.79,2.83,8.57h0c1.17,2.76,2.54,5.44,4.1,8l-1.41,1.22-9.06,7.82c-1.12-7.68-5.43-5.8-5.43-5.8l10.17-8.1c-7.74-.3-9.46-2.8-9.46-2.8"/><path class="cls-6" d="M12.27,121.26s-3.86,8.26,7.84,9.13l-12.06,9.45s-9.67-5.65-3.58-11.72l7.8-6.86Z"/><rect class="cls-5" x="69.83" y="57.33" width="18.91" height="73.93"/><path class="cls-5" d="M106.55,141.23c1.51-1.33,2.94-2.76,4.29-4.26,4.13-4.59,7.51-9.8,10-15.45v-.13c3.89-9.16,4.32-19.94,4.32-24.24v-58.02h-18.61v102.1Z"/><path class="cls-5" d="M51.99,141.23c-1.53-1.32-2.98-2.74-4.34-4.23-4.13-4.59-7.51-9.8-10-15.45v-.13c-3.89-9.16-4.32-19.94-4.32-24.24v-58.05h18.66v102.1Z"/></svg>