<svg xmlns="http://www.w3.org/2000/svg" viewBox="0 0 200.44 200.44"><title>Swansea City logo</title><path d="M609.88,512A97.88,97.88,0,1,1,512,414.12,98,98,0,0,1,609.88,512Z" transform="translate(-411.78 -411.78)" style="fill:#fff"/><path d="M607.41,512a95.41,95.41,0,1,1-95.4-95.4A95.52,95.52,0,0,1,607.41,512ZM512,411.78A100.22,100.22,0,1,0,612.22,512,100.34,100.34,0,0,0,512,411.78Z" transform="translate(-411.78 -411.78)" style="fill:#060000"/><path d="M492.52,529.16c-8.53,14.05-26.66,15-45,7.87a34,34,0,0,0,13.73-3.75c5.66-3.11,6.21-4.85,11.8-11.71,16-19.69,30.54-28.55,45.41-14.37C518.51,507.2,505.14,508.36,492.52,529.16Z" transform="translate(-411.78 -411.78)" style="fill:#060000"/><path d="M512,541.29c-8.54,14.06-26.66,15-45,7.87a34.14,34.14,0,0,0,13.74-3.75c5.64-3.11,6.21-4.85,11.79-11.72,16-19.68,30.55-28.55,45.41-14.37C537.93,519.33,524.56,520.5,512,541.29Z" transform="translate(-411.78 -411.78)" style="fill:#060000"/><path d="M575.18,521.2c.76,7.94-4.15,15.1-20.19,24.6,0,0,24.65-21-5.58-35.7-18.85-9.19-33.09-17.13-38.15-28.92-3.49-8.14-.14-21.86,10.13-26.49,0,0,11.32-5.52,31.8,2,0,0,11.37,4,5.23,11.81,0,0,1.58,2.68,3.17,6,1.22,2.52.89,3.78-1.77,2.18,0,0-29.71-26-37.64-10.68a13.38,13.38,0,0,0,.84,12.15c3,4.06,5.45,5.19,10.23,7.93,7.34,3.88,12.32,6.52,21.46,11.58C554.7,497.67,573.85,507.05,575.18,521.2Z" transform="translate(-411.78 -411.78)" style="fill:#060000"/><path d="M533,552.45c-8.53,14.06-26.65,15-45,7.88a34.09,34.09,0,0,0,13.73-3.76c5.66-3.11,6.23-4.85,11.8-11.72,16-19.68,30.54-28.55,45.4-14.37C559,530.49,545.65,531.66,533,552.45Z" transform="translate(-411.78 -411.78)" style="fill:#060000"/><path d="M444.37,548.07a5.61,5.61,0,0,0-.58-2.4c-.44-.93-1.3-1.86-2.51-1.27-2.22,1.08.71,5.79-3.09,7.64-2.46,1.2-4.35-.23-5.48-2.54a8.46,8.46,0,0,1-.67-2.59l1.61-.59a7.57,7.57,0,0,0,.61,2.67,2.29,2.29,0,0,0,3,1.35c2.58-1.25-.54-5.86,3-7.61,2-1,3.93.1,4.94,2.17a8.68,8.68,0,0,1,.78,2.66Z" transform="translate(-411.78 -411.78)" style="fill:#060000"/><path d="M446.81,549.52l1.21,1.62-6.95,9,0,0,10.42-4.4,1.57,2.09L446,566.71l0,0,10.62-4.14,1.18,1.56-12.63,4.53-1.41-1.9,7.29-9,0,0-10.65,4.48-1.47-2Z" transform="translate(-411.78 -411.78)" style="fill:#060000"/><path d="M462.56,568l1.46,1.26-4.27,13.25-1.51-1.31,1.12-3.3-4.76-4.1-3.1,1.6L450,574.11Zm-.45,1.89L456,573l3.87,3.33Z" transform="translate(-411.78 -411.78)" style="fill:#060000"/><path d="M470.14,574l2.16,1.25L472,587.06l0,0,5.18-8.93,1.59.92-6.44,11.09-2-1.18.27-12,0,0-5.3,9.12-1.59-.92Z" transform="translate(-411.78 -411.78)" style="fill:#060000"/><path d="M487,584.42a5.71,5.71,0,0,0-2-1.36c-1-.37-2.23-.46-2.72.79-.89,2.3,4.46,3.75,2.93,7.69-1,2.55-3.35,2.8-5.75,1.88a8.42,8.42,0,0,1-2.25-1.45l.78-1.52a7.94,7.94,0,0,0,2.26,1.54,2.29,2.29,0,0,0,3.1-1c1-2.67-4.39-3.92-3-7.64.83-2.13,2.94-2.61,5.1-1.77a8.54,8.54,0,0,1,2.38,1.42Z" transform="translate(-411.78 -411.78)" style="fill:#060000"/><path d="M491.29,583.8l7,1.68-.39,1.57-5.19-1.25-.88,3.64,4.73,1.14-.37,1.57L491.45,591l-1,4.11,5.2,1.25-.38,1.58-7-1.69Z" transform="translate(-411.78 -411.78)" style="fill:#060000"/><path d="M505.68,586.4l1.92.14,4.47,13.18-2-.15L509,596.26l-6.26-.46-1.54,3.13-1.92-.14Zm.76,1.79-3,6.15,5.09.37Z" transform="translate(-411.78 -411.78)" style="fill:#060000"/><path d="M529.74,586.85a5.17,5.17,0,0,0-2.73-.26,5,5,0,0,0,1.61,9.9,6.23,6.23,0,0,0,2.64-1.09l.42,1.74a8.16,8.16,0,0,1-2.81.95c-4,.68-7.1-1.43-7.79-5.45s1.71-7,5.57-7.63a7.06,7.06,0,0,1,2.94.05Z" transform="translate(-411.78 -411.78)" style="fill:#060000"/><path d="M532,583.95l1.76-.51,3.59,12.31-1.76.52Z" transform="translate(-411.78 -411.78)" style="fill:#060000"/><path d="M540.11,582.9l-3.69,1.52-.62-1.5,9.08-3.73.61,1.49-3.69,1.52,4.26,10.36-1.7.7Z" transform="translate(-411.78 -411.78)" style="fill:#060000"/><path d="M553.82,582.66l-8.16-3.78,1.85-1.12,6.25,2.94.2-6.85,1.84-1.12-.41,9,2.79,4.58-1.57,1Z" transform="translate(-411.78 -411.78)" style="fill:#060000"/><path d="M564.6,565l1.35-1.37,12.94,5.13-1.41,1.43-3.22-1.34-4.41,4.47,1.38,3.2-1.35,1.37Zm1.86.57,2.73,6.27,3.59-3.64Z" transform="translate(-411.78 -411.78)" style="fill:#060000"/><path d="M571,557.91l4-5.54,1.31.94-2.89,4,3,2.18,2.77-3.87,1.32.94-2.77,3.87,4.76,3.4-1.07,1.49Z" transform="translate(-411.78 -411.78)" style="fill:#060000"/><path d="M582.4,543a5.1,5.1,0,0,0-1.85,2,5,5,0,0,0,8.86,4.69,6.48,6.48,0,0,0,.73-2.76l1.64.72a8,8,0,0,1-.94,2.8c-1.86,3.61-5.42,4.81-9,2.93s-4.52-5.57-2.74-9a7.09,7.09,0,0,1,1.82-2.31Z" transform="translate(-411.78 -411.78)" style="fill:#060000"/></svg>