<?xml version="1.0" encoding="UTF-8"?><svg id="Layer_1" xmlns="http://www.w3.org/2000/svg" viewBox="0 0 95.81 107.72"><defs><style>.cls-1,.cls-2{fill:#ec2027;}.cls-3,.cls-2,.cls-4{fill-rule:evenodd;}.cls-5,.cls-4{fill:#fbed21;}</style></defs><polygon class="cls-1" points="6.86 0 6.86 23.64 15.77 23.64 0 59.81 47.9 107.72 95.81 59.81 80.04 23.64 88.95 23.64 88.95 0 6.86 0"/><rect class="cls-5" x="11.35" y="4.49" width="73.12" height="14.66"/><path class="cls-3" d="M47.91,23.64h-27.24c-4.18,9.58-13.71,31.45-15.33,35.16,3.67,3.67,37.3,37.3,42.57,42.57V23.64Z"/><path class="cls-4" d="M75.15,23.64h-27.24v77.73c5.27-5.27,38.89-38.89,42.57-42.57-1.62-3.71-11.15-25.58-15.33-35.16"/><polygon class="cls-3" points="21.77 9.91 23.36 17.29 25.44 17.29 27.9 6.86 26 6.86 24.41 14.88 22.83 6.86 20.83 6.86 19.23 14.88 17.61 6.86 15.68 6.86 18.14 17.29 20.3 17.29 21.77 9.91"/><path class="cls-3" d="M31.44,13.59l1.15-3.54,1.15,3.54h-2.29ZM34.93,17.29h2l-3.35-9.11h-1.98l-3.35,9.11h2l.69-2.12h3.32l.69,2.12Z"/><polygon class="cls-3" points="36.96 8.18 36.96 9.77 39.45 9.77 39.45 17.29 41.36 17.29 41.36 9.77 43.8 9.77 44.18 8.18 36.96 8.18"/><polygon class="cls-3" points="45.8 8.18 45.8 17.29 47.65 17.29 47.65 13.34 50.41 13.34 50.41 11.76 47.65 11.76 47.65 9.77 50.85 9.77 51.23 8.18 45.8 8.18"/><path class="cls-3" d="M56.64,16.08c-1.82,0-2.27-1.48-2.27-3.3s.45-3.3,2.27-3.3,2.27,1.48,2.27,3.3-.45,3.3-2.27,3.3M56.64,8.07c-3.1,0-4.4,2.11-4.4,4.71s1.3,4.71,4.4,4.71,4.4-2.11,4.4-4.71-1.3-4.71-4.4-4.71"/><path class="cls-3" d="M66.54,12.14h-1.43v-2.37h1.43c.52,0,1.3.08,1.3,1.11s-.78,1.26-1.3,1.26M67.72,13.44v-.1c.61,0,2.14-.58,2.14-2.53s-1.48-2.64-3.18-2.64h-3.45v9.11h1.88v-3.8h.16c.63,0,2.86,3.8,2.86,3.8h2.38l-2.79-3.85Z"/><path class="cls-3" d="M75.76,15.71h-1.44v-5.94h1.44c1.24,0,1.96,1.2,1.96,2.99s-.71,2.95-1.96,2.95M75.69,8.18h-3.23v9.11h3.23c2.9,0,4.11-1.94,4.11-4.53s-1.21-4.58-4.11-4.58"/><path class="cls-3" d="M32.49,30.82c0,.28.03.45.06.61.03.17.06.34.06.78,0,1.39-.32,2.04-.54,2.04-.04,0-.07,0-.08,0-.03-.03-.07-.09-.11-.14-.38-.54-.89-1.11-2.27-1.11-1.29,0-2.15.91-2.15,2.27,0,1.99.5,3.6.91,4.89.24.75.44,1.4.44,1.83,0,.35-.17.69-.27.76-.5,0-.67-.17-1.03-.52-.48-.48-1.14-1.13-2.61-1.13-.63,0-2.09.22-2.09,2.22,0,.87.3,1.62.6,2.34.31.76.63,1.55.63,2.59,0,.08,0,.82-.25.82-.95,0-1.3-.59-1.85-1.62-.48-.9-1.07-2.02-2.44-2.02-2.25,0-2.25,3.36-2.25,4.62,0,7.14,6.78,9.74,11.34,9.74.87,0,1.37-.07,1.86-.14.5-.07.98-.14,1.93-.14,2.76,0,4.86.55,6.12,1.6-.69-.26-1.52-.44-2.51-.44-2.38,0-3.26.57-4.09,1.25-.32.26-.54.45-.97.57l-3.38.97,3.43.77c1.43.32,2.23,1.45,3.07,2.64.9,1.27,1.91,2.71,3.77,2.71.17,0,.34-.01.5-.04-.16.88-.29,1.99-.29,3.28,0,1.86.46,2.59,1.05,3.34l.29.38c.26.39.55.77.83,1.13.98,1.3,1.91,2.53,1.91,4.21,0,.9.04,1.62.08,2.32.04.7.08,1.36.08,2.19,0,2.48,1.71,3.25,2.63,3.66.09.04.2.09.29.14.18.85,1.01,1.12,1.54,1.29l.18.06.19.08c.27.11.63.27,1.29.27,1.71,0,2.46-1.27,2.62-2.33.03-.01.06-.03.09-.04.76-.33,2.33-1.03,2.33-3.24,0-1.16-.14-2.03-.27-2.8-.09-.57-.18-1.06-.18-1.55,0-1.4.57-2.11,1.36-3.09,1.07-1.32,2.39-2.97,2.39-6.67,0-1.31-.07-2.31-.17-3.07.21.05.44.09.67.09,2.45,0,3.3-1.47,3.91-2.69,1.15-2.28,3.37-2.15,3.37-2.15,0,0-1.76-3.05-5.95-3.05-1.28,0-2.26.26-3,.59.34-.99.93-1.43,1.41-1.68,1.15-.61,2.87-.67,4.39-.67.94,0,1.6.07,2.24.14.6.06,1.23.13,2.03.13,6.18,0,7.8-1.96,9.52-4.03,1.46-1.76,2.42-3.47,2.42-6.11,0-1.78-.51-3.67-1.95-3.67-1.25,0-1.78,1.17-2.22,2.1-.52,1.12-.82,1.58-1.35,1.58-.69,0-1.26-.68-1.26-1.52,0-.78.52-1.76,1.01-2.7.57-1.08,1.16-2.2,1.16-3.31,0-.62-.26-1.18-.73-1.57-.39-.32-.9-.5-1.42-.5-1.1,0-1.97.91-2.82,1.8-.54.56-1.27,1.33-1.72,1.36-.09-.08-.23-.39-.23-.64,0-.77.35-1.91.68-3.01.36-1.18.7-2.3.7-3.2,0-1.93-1.13-2.8-2.25-2.8-1.02,0-1.68.48-2.21.86-.4.29-.65.45-.97.48,0-.01-.01-.03-.01-.04,0-.04,0-.93,0-.93,0-.28,0-.55,0-.82,0-2.05-.08-3.44-.88-4.24-.39-.39-.89-.59-1.5-.59-2.81,0-4.07,3.71-4.07,7.38,0,1.71.07,3.21.14,4.67.07,1.39.13,2.7.13,4.12,0,3.41-.7,6.2-1.29,7.66-.19-1.63-.49-4.08-2.38-4.08-1.57,0-1.93,2.01-2.36,4.33-.38,2.08-.9,4.94-2.2,4.94-1.09,0-1.4-1.98-1.7-4.58-.29-2.54-.63-5.43-2.89-5.43-2.46,0-2.62,3.19-2.73,5.3-.01.26-.03.58-.05.88-.6-1.18-1.33-3.21-1.33-5.07,0-2.36.15-4.22.29-6.01.14-1.72.28-3.49.28-5.65,0-4.75-1.18-6.04-2.23-7.17l-.07-.08c-.7-.76-1.36-1.48-2.39-1.48-1.49,0-2.27,1.4-2.27,2.79"/><path class="cls-2" d="M54.51,70.39l-.15.25s-.85-.28-1.63-.28c-1.41,0-1.92.97-1.92.97,0,0,.46-.28,1.38-.28,1.21,0,2.09.65,2.09.89s-.37.39-.67.39c0,.58-.79,1.39-3.18,1.39,0,1.18.73,1.96.73,2.3-.6,0-.69.58-.69,1.62,0,0-.84-3.31-.84-4.64,0-1.97.79-3.45,2.48-3.45,1.2,0,2.42.85,2.42.85M59.61,63.76c.37,0,.58.07.58.07-2.22.4-2.19,3.09-3.97,3.09-.39,0-.64-.17-.64-.17.25-.49,1.08-.6,1.08-1.26-.58,0-1,.05-1.56.16,0-.21,1.77-1.88,4.51-1.88M44.75,77.78v-1.43c0-.4-.18-.57-.53-.57l.92-2.11v-.21c-1.64,0-3.06-.33-3.06-1.5h-.46c-.1,0-.31-.11-.31-.31,0-.14.55-.77,1.85-.77.99,0,1.58.42,1.58.42,0,0-.56-1.32-2.07-1.32-.89,0-1.12.12-1.12.12,0,0,.54-.69,1.27-.69,2.28,0,2.87,1.43,2.87,3.95,0,2.66-.95,4.42-.95,4.42M38.42,65.89c0,.23.74.41,1.17.41,0,.26-.52.65-1,.65-1.86,0-.96-2.88-4.68-3.61,0,0,.2-.09.68-.09,2.94,0,3.79,2.28,5.38,2.28-.46.05-1.55.09-1.55.36M75.64,46.88c-1.48,0-1.39,3.69-3.56,3.69-1.21,0-2.16-1.08-2.16-2.42,0-1.96,2.17-4.2,2.17-6.02,0-.78-.65-1.18-1.26-1.18-1.46,0-2.95,3.16-4.56,3.16-.76,0-1.1-.99-1.1-1.54,0-1.76,1.38-4.63,1.38-6.21,0-1.27-.57-1.9-1.35-1.9-1.43,0-1.91,1.35-3.26,1.35-.52,0-.83-.56-.83-.92,0-3.53.18-5.69-1.48-5.69-2.15,0-3.17,3.25-3.17,6.49s.26,5.83.26,8.79c0,4.58-1.11,8.42-2.07,9.26,0,0-.24,2.67.82,2.67,2.13,0,5.59-5.96,9.88-5.96,1.94,0,2.07,1.19,2.07,1.67,0,1.56-2.2,2.35-2.2,3.34,0,.51.77.55,1.72.55,2.82,0,4.89-1.74,4.89-1.74,0,0-2.02,2.4-5.19,2.4-1.39,0-2.46-.44-2.46-1.25,0-1.3,2.62-2.33,2.62-3.63,0-.4-.44-.95-1.43-.95-3.5,0-7.2,6.62-10.08,6.62-.59,0-1.42-.4-1.42-1.9,0-1.28-.1-6.6-1.71-6.6-1.93,0-1.01,9.26-4.56,9.26-3.76,0-1.51-10.01-4.59-10.01-1.87,0-1.58,2.71-1.87,5.15-.24,2-.82,3.81-2.05,3.81-1.62,0-2.76-.74-4.14-1.6-.88-.54-1.81-1.08-2.58-1.66-1.26-.94-1.94-1.88-3.18-1.88-.66,0-1.39.36-1.39,1.04,0,1.32,1.39,1.83,1.39,2.97,0,.64-.94,1.16-2.01,1.16-3.27,0-5.23-2.15-5.23-3,0,0,1.63,2.31,5.38,2.31.81,0,1.11-.18,1.11-.58,0-.74-1.12-1.4-1.12-2.84,0-.91.71-1.65,1.73-1.65,1.3,0,2.19.95,3.53,1.93,1.94,1.41,4.45,3,6.39,3,.74,0,1.24-.33,1.24-1.1,0-.73-2.19-2.74-2.19-6.85,0-4.7.58-7.33.58-11.66s-1.08-5.58-2.06-6.64c-.74-.8-1.14-1.19-1.73-1.19-1.02,0-1.37,1.12-1.37,1.89,0,.47.12.5.12,1.39,0,1.6-.38,2.94-1.44,2.94-1.24,0-.59-1.26-2.46-1.26-.9,0-1.25.64-1.25,1.37,0,3.1,1.34,5.31,1.34,6.72,0,.7-.4,1.66-1.13,1.66-1.86,0-1.53-1.65-3.67-1.65-.91,0-1.19.53-1.19,1.32,0,1.53,1.23,2.71,1.23,4.93,0,.98-.33,1.72-1.14,1.72-2.78,0-2.44-3.64-4.28-3.64-.94,0-1.35,1.23-1.35,3.73,0,6.67,6.51,8.84,10.44,8.84,1.67,0,1.85-.29,3.79-.29,9.12,0,8.38,5.58,8.38,5.58,0,0-1.16-2.63-4.77-2.63s-3.13,1.3-4.82,1.78c3.5.79,3.82,5.32,6.65,5.32,1.26,0,1.89-.97,1.89-.97,0,0-.79,2.04-.79,5.11,0,2.1.62,2.38,1.18,3.22,1.21,1.77,2.89,3.34,2.89,5.84.4,0,.71-1.86.93-1.86.15,0,.27.29.27.7,0,.96-1.04,2.64-1.04,5.67,0,1.82,1.14,2.4,1.99,2.79.21,0,1.4-2.5,1.4-2.5-.71,1.95-.49,3.04-.49,3.17,0,.52.5.62,1.15.84.36.12.55.3,1.19.3,1.49,0,1.76-1.33,1.76-1.85s-.54-1.52-.54-2.11c0,0-.02-.36.07-.36.19,0,.98,2.08.98,2.08.7-.31,1.88-.76,1.88-2.46,0-1.97-1.19-4.64-1.19-5.85,0-.28.1-.46.2-.46.23,0,.62,1.09.62,1.09.51-3.01,3.68-3.3,3.68-8.89,0-3.54-.54-4.68-.54-4.68,0,0,.94.79,1.94.79,3.41,0,2.6-3.4,5.28-4.53,0-.34-1.44-1.55-3.95-1.55-3.17,0-4.19,1.72-4.19,1.72,0-4.97,3.48-5.27,7-5.27,1.88,0,2.69.26,4.27.26,5.76,0,7.18-1.72,8.83-3.71,1.47-1.77,2.21-3.3,2.21-5.53,0-1.2-.3-2.77-1.06-2.77"/><path class="cls-2" d="M50.72,72.68l-.13.29s.27.2.87.2c1.19,0,1.71-.96,1.6-1.08-.12-.12-.63.74-1.55.74-.55,0-.78-.14-.78-.14"/><path class="cls-2" d="M52.01,72.35c0,.09-.12.16-.26.16s-.26-.07-.26-.16.12-.16.26-.16.26.07.26.16"/><path class="cls-2" d="M42.91,71.9c.12.09.37.72,1.02.72.47,0,.54-.18.69-.26.15-.08.3.07.21.21-.09.14-.27.31-.87.31-.78,0-1.24-.64-1.3-.79-.1-.27,0-.36.26-.19"/><path class="cls-2" d="M44.05,72.09c0,.08-.1.15-.22.15s-.22-.07-.22-.15.1-.15.22-.15.22.07.22.15"/></svg>