<?xml version="1.0" encoding="UTF-8"?><svg id="Layer_1" xmlns="http://www.w3.org/2000/svg" viewBox="0 0 168.51 187.43"><defs><style>.cls-1{fill:#cda938;}.cls-2{fill:#d6a93a;}.cls-3{fill:#2dafe5;}.cls-4{fill:#fff;}.cls-5{fill:#7c2c3b;}.cls-6{fill:#f8d742;}</style></defs><g id="g10"><g id="g496"><g id="g498"><g id="g504"><path id="path506" class="cls-3" d="M168.5,6.08h0C140.6,1.95,112.44-.08,84.25,0,56.05-.08,27.89,1.95,0,6.07v70.31c.02,59.42,34.47,92.84,82.88,110.61l1.38.44h0s1.37-.44,1.37-.44c48.41-17.77,82.86-51.19,82.88-110.61V6.08h-.01ZM84.25,90.46l-.02-.02.11.11-.09-.09Z"/></g><g id="g508"><path id="path510" class="cls-5" d="M162.68,11.9h0c-25.97-3.85-52.18-5.73-78.43-5.66-26.25-.08-52.46,1.81-78.43,5.65v66.62c.02,55.32,32.09,86.43,77.15,102.97l1.28.41h0s1.28-.41,1.28-.41c45.06-16.54,77.13-47.65,77.15-102.97V11.9h0Z"/></g><g id="g512"><path id="path514" class="cls-2" d="M122.96,151.37c1.24,1.24,3.23-.07,5.27-2.11,2.04-2.04,3.35-4.02,2.11-5.27L52.56,68.17c-1.24-1.24-3.46-1.04-4.96.46s-1.7,3.72-.46,4.96l75.82,77.78Z"/></g><g id="g516"><path id="path518" class="cls-6" d="M54.98,67.02l6.36-7.48s.6-.8-.33-1.94c-2.31-2.59-4.77-5.05-7.37-7.34-.71-.53-1.19-.4-1.98.35-3.89,3.73-13.8,13.31-14.4,13.93-.79.62-1.13,1.65-.85,2.62.24,1.33.95,3.55-.28,5.71l-6.7,10.54c-.84,1.29-1.08,2.42-.45,3.04.34.33,1.19.72,2.92-.48.83-.57,9.93-6.7,12.84-9.09,1.7-1.4,3-2.67,3-2.67l5.5-5.39s1.16-1.14,1.76-1.79"/></g><g id="g520"><path id="path522" class="cls-2" d="M31.93,85.28c-1.9,1.29-1.9,1.48-1.63,1.44.57-.15,1.11-.41,1.59-.77.83-.57,9.93-6.7,12.83-9.09,1.2-.99,2.19-1.91,2.68-2.37-1.65.33-3.21,1.02-4.56,2.01-1.55,1.3-8.18,6.92-10.91,8.77"/></g><g id="g524"><path id="path526" class="cls-2" d="M54.98,67.02l6.36-7.48c.23-.38.26-.86.07-1.26,0,0-.52-.59-2.36,1.55-1.54,1.8-2.27,2.5-3.57,4.05-1.03,1.4-1.73,3.01-2.04,4.72.36-.36,1.1-1.09,1.54-1.57"/></g><g id="g528"><path id="path530" class="cls-2" d="M45.71,151.37c-1.24,1.24-3.23-.07-5.27-2.11-2.04-2.04-3.35-4.02-2.11-5.27l77.81-75.85c1.24-1.24,3.46-1.04,4.96.46,1.5,1.5,1.7,3.72.46,4.96l-75.85,77.81Z"/></g><g id="g532"><path id="path534" class="cls-6" d="M44.96,150.62l72.59-74.55c1.24-1.24,1.04-3.46-.46-4.96-.72-.74-1.67-1.19-2.7-1.26l-76.06,74.14c-1.19,1.19-.04,3.05,1.83,4.99,1.87,1.76,3.64,2.79,4.79,1.64"/></g><g id="g536"><path id="path538" class="cls-6" d="M113.73,66.99l-6.36-7.48s-.6-.8.33-1.94c2.31-2.59,4.77-5.05,7.37-7.34.71-.53,1.2-.4,1.98.35,3.89,3.73,13.8,13.31,14.4,13.93.79.62,1.13,1.65.85,2.62-.24,1.33-.95,3.55.28,5.71l6.7,10.54c.84,1.29,1.08,2.42.45,3.04-.34.33-1.19.72-2.92-.48-.83-.57-9.93-6.7-12.83-9.09-1.7-1.4-3-2.67-3-2.67l-5.49-5.39s-1.16-1.14-1.76-1.79"/></g><g id="g540"><path id="path542" class="cls-2" d="M136.77,85.25c1.9,1.29,1.9,1.48,1.63,1.44-.57-.15-1.11-.41-1.59-.77-.83-.57-9.93-6.7-12.83-9.09-1.2-.99-2.19-1.91-2.68-2.37,1.65.33,3.21,1.02,4.56,2.01,1.55,1.3,8.18,6.92,10.91,8.77"/></g><g id="g544"><path id="path546" class="cls-2" d="M113.73,66.99l-6.36-7.48c-.23-.38-.26-.86-.07-1.26,0,0,.52-.59,2.36,1.55,1.54,1.8,2.27,2.5,3.57,4.05,1.03,1.4,1.73,3.01,2.05,4.72-.36-.36-1.1-1.09-1.54-1.57"/></g><g id="g548"><path id="path550" class="cls-2" d="M125.98,69.15c-.6.6-1.57.6-2.17,0l-3.26-3.26c-.6-.6-.6-1.57,0-2.17.6-.6,1.57-.6,2.17,0l3.26,3.26c.6.6.6,1.57,0,2.17h0"/></g><g id="g552"><path id="path554" class="cls-1" d="M120.99,65.89c-.6-.6-.6-1.57,0-2.17.23-.23.54-.39.87-.43-.84-.12-1.62.46-1.74,1.3-.07.48.09.96.43,1.3l3.26,3.26c.34.34.83.5,1.3.43-.33-.05-.63-.2-.87-.43l-3.26-3.26Z"/></g><g id="g556"><path id="path558" class="cls-2" d="M122.43,67.09c-.07.06-.17.06-.23,0-.06-.06-.06-.17,0-.23l1.49-1.49c.06-.06.17-.06.23,0s.06.17,0,.23h0l-1.49,1.5Z"/></g><g id="g560"><path id="path562" class="cls-2" d="M122.92,67.59c-.06.06-.17.06-.23,0,0,0,0,0,0,0-.06-.06-.06-.17,0-.23s.17-.06.23,0,.06.17,0,.23h0"/></g><g id="g564"><path id="path566" class="cls-2" d="M121.89,66.56c-.06.06-.17.06-.23,0-.06-.06-.06-.17,0-.23.06-.06.17-.06.23,0h0c.06.06.06.17,0,.23"/></g><g id="g568"><path id="path570" class="cls-2" d="M123.1,64.54l-.51-.51c-.07-.06-.17-.06-.24,0-.06.06-.06.17,0,.23l.08.08s.03.08,0,.11l-1.32,1.32c-.06.07-.06.17,0,.24.06.06.17.06.23,0l1.33-1.33s.08-.02.1,0l.08.08c.07.06.17.06.24,0,.06-.06.06-.17,0-.23"/></g><g id="g572"><path id="path574" class="cls-2" d="M125.83,67.3c-.05-.07-.16-.09-.23-.04,0,0,0,0,0,0l-.87.63s-.09.02-.12,0c-.03-.03-.03-.07-.02-.1l.18-.36c.03-.06.02-.13-.02-.18h0s0-.01,0-.01h0s0-.01,0-.01h0s0,0,0,0c-.05-.04-.12-.05-.18-.02l-.35.18s-.08.01-.11-.02c-.03-.03-.04-.08,0-.12l.63-.87c.05-.07.04-.18-.04-.23-.07-.05-.18-.04-.23.04,0,0,0,0,0,0l-1.24,1.71c-.05.06-.04.15.01.21h0s0,0,0,0c.05.05.12.06.19.03l.61-.3s.1,0,.12.04c.01.03.01.06,0,.08l-.3.6c-.03.06-.02.14.03.19h0s0,0,0,0c.06.06.15.06.21.01l1.71-1.24c.07-.05.09-.16.04-.23,0,0,0,0,0,0"/></g><g id="g576"><path id="path578" class="cls-6" d="M54.75,70.31c-1.04,0-2.04.43-2.76,1.18-1.39,1.39-1.58,3.46-.43,4.61l31.08,31.85,5.29-5.29-33.18-32.35Z"/></g><g id="g580"><path id="path582" class="cls-6" d="M130.34,143.99l-39.21-38.21c-2.86,1.28-4.14,4.63-2.87,7.49.18.41.41.8.69,1.15l35.07,35.96c1.15,1.16,3-.07,4.9-1.96.32-.32.62-.64.89-.95,1.01-1.36,1.4-2.6.53-3.47"/></g><g id="g584"><path id="path586" class="cls-6" d="M122.35,67.02c-.07.06-.17.06-.23,0-.06-.06-.06-.17,0-.23l1.49-1.49c.06-.07.17-.07.23,0,.07.06.07.17,0,.23,0,0,0,0,0,0l-1.49,1.5Z"/></g><g id="g588"><path id="path590" class="cls-6" d="M122.85,67.52c-.06.06-.17.06-.23,0h0c-.06-.07-.06-.17,0-.23s.17-.06.23,0,.06.17,0,.23h0"/></g><g id="g592"><path id="path594" class="cls-6" d="M121.82,66.49c-.06.06-.17.06-.23,0s-.06-.17,0-.23c.06-.06.17-.06.23,0,.06.06.06.17,0,.23"/></g><g id="g596"><path id="path598" class="cls-6" d="M123.03,64.47l-.51-.51c-.07-.06-.17-.06-.24,0-.06.06-.07.17,0,.23h0s.08.08.08.08c.03.03.03.08,0,.11l-1.32,1.32c-.06.07-.06.17,0,.24.06.06.17.06.23,0l1.33-1.33s.08-.02.11,0l.08.08c.07.06.17.06.24,0,.06-.06.06-.17,0-.23"/></g><g id="g600"><path id="path602" class="cls-6" d="M125.76,67.22c-.05-.07-.16-.09-.23-.04,0,0,0,0,0,0l-.87.63s-.1.02-.13-.02c-.02-.03-.02-.06,0-.1l.18-.36c.03-.06.02-.13-.02-.18h0s0-.01,0-.01h0s0,0,0,0h0s0,0,0,0c-.05-.04-.12-.05-.18-.02l-.35.18s-.08.01-.11-.02c-.03-.03-.04-.08,0-.12l.63-.87c.05-.07.04-.18-.04-.23-.07-.05-.18-.04-.23.04h0s-1.24,1.71-1.24,1.71c-.05.06-.04.15.01.21h0s0,0,0,0c.05.05.12.06.19.03l.61-.3s.1,0,.12.05c.01.03.01.06,0,.08l-.3.6c-.03.06-.02.14.03.19h0s0,0,0,0c.06.06.15.06.21.01l1.71-1.24c.07-.05.09-.16.04-.23,0,0,0,0,0,0"/></g><g id="g604"><path id="path606" class="cls-2" d="M48.15,63.75c.6.6.6,1.57,0,2.17l-3.26,3.26c-.6.6-1.57.6-2.17,0-.6-.6-.6-1.57,0-2.17l3.26-3.26c.6-.6,1.57-.6,2.17,0h0"/></g><g id="g608"><path id="path610" class="cls-1" d="M43,67.29l3.26-3.26c.55-.55,1.41-.6,2.02-.13-.04-.05-.08-.1-.13-.15-.6-.6-1.57-.6-2.17,0l-3.26,3.26c-.6.6-.6,1.57,0,2.17,0,0,0,0,0,0,.05.05.09.09.15.13-.47-.61-.42-1.48.13-2.02"/></g><g id="g612"><path id="path614" class="cls-2" d="M46.02,67.55c.07.06.07.17,0,.23s-.17.07-.23,0c0,0,0,0,0,0l-1.49-1.49c-.06-.07-.06-.17,0-.23.06-.06.17-.06.23,0l1.49,1.49Z"/></g><g id="g616"><path id="path618" class="cls-2" d="M46.51,67.05c.06.06.06.17,0,.23-.06.06-.17.06-.23,0-.06-.06-.06-.17,0-.23.06-.06.17-.06.23,0"/></g><g id="g620"><path id="path622" class="cls-2" d="M45.49,68.08c.06.06.06.17,0,.23-.06.06-.17.06-.23,0-.06-.06-.06-.17,0-.23.06-.06.17-.06.23,0,0,0,0,0,0,0"/></g><g id="g624"><path id="path626" class="cls-2" d="M43.47,66.88l-.51.51c-.06.07-.06.17,0,.24.06.06.17.06.23,0l.08-.08s.08-.03.11,0l1.32,1.32c.07.06.17.06.24,0,.06-.06.06-.17,0-.23l-1.33-1.33s-.02-.08,0-.11l.08-.08c.06-.07.06-.17,0-.24-.06-.06-.17-.06-.23,0"/></g><g id="g628"><path id="path630" class="cls-2" d="M46.22,64.14c-.07.05-.09.16-.04.23,0,0,0,0,0,0l.63.87s.02.09,0,.12c-.03.03-.07.03-.1.02l-.36-.18c-.06-.03-.13-.02-.18.02h0s0,0,0,0h0s0,0,0,0h0s0,.01,0,.01c-.04.05-.05.12-.02.18l.18.36s0,.1-.04.12c-.03.02-.07.01-.09,0l-.87-.63c-.07-.05-.18-.04-.23.03-.05.07-.04.18.03.23,0,0,0,0,0,0l1.71,1.24c.06.05.15.04.21-.01h0s0-.01,0-.01c.05-.05.06-.12.03-.18l-.3-.61s0-.1.05-.12c.03-.01.06-.01.08,0l.6.3c.06.03.14.02.19-.02h0s0-.01,0-.01c.06-.06.06-.15.01-.21l-1.24-1.71c-.05-.07-.16-.09-.23-.04"/></g><g id="g632"><path id="path634" class="cls-6" d="M46.02,67.38c.07.06.07.17,0,.23s-.17.07-.23,0c0,0,0,0,0,0l-1.49-1.49c-.06-.07-.06-.17,0-.23.06-.06.17-.06.23,0l1.49,1.49Z"/></g><g id="g636"><path id="path638" class="cls-6" d="M46.51,66.89c.06.06.06.17,0,.23-.06.06-.17.06-.23,0-.06-.06-.06-.17,0-.23.06-.06.17-.06.23,0"/></g><g id="g640"><path id="path642" class="cls-6" d="M45.49,67.92c.06.06.06.17,0,.23-.06.06-.17.06-.23,0-.06-.06-.06-.17,0-.23.06-.06.17-.06.23,0"/></g><g id="g644"><path id="path646" class="cls-6" d="M43.47,66.71l-.51.51c-.06.07-.06.17,0,.24.06.06.17.06.23,0l.08-.08s.08-.03.11,0l1.32,1.32c.06.06.17.07.23,0,.06-.06.07-.17,0-.23l-1.33-1.33s-.02-.08,0-.1l.08-.08c.06-.07.06-.17,0-.24-.06-.06-.17-.07-.23,0,0,0,0,0,0,0"/></g><g id="g648"><path id="path650" class="cls-6" d="M46.22,63.98c-.07.05-.09.16-.04.23,0,0,0,0,0,0l.63.87s.02.09,0,.12c-.03.03-.07.03-.1.02l-.36-.18c-.06-.03-.13-.02-.18.02h0s0,0,0,0h0s0,0,0,0h0s0,.01,0,.01c-.04.05-.05.12-.02.18l.18.36s.01.08-.02.11c-.03.03-.08.04-.12,0l-.87-.63c-.07-.05-.18-.04-.23.04-.05.07-.04.18.04.23l1.71,1.24c.06.05.15.04.21-.01h0s0-.01,0-.01c.05-.05.06-.12.03-.18l-.3-.61s0-.1.05-.12c.03-.01.06-.01.08,0l.6.3c.06.03.14.02.19-.03h0s0-.01,0-.01c.06-.06.06-.15.01-.21l-1.24-1.71c-.05-.07-.16-.09-.23-.04,0,0,0,0,0,0"/></g><g id="g652"><path id="path654" class="cls-4" d="M53.67,45.1c-2.79.4-5.38-1.55-5.78-4.34-.02-.15-.03-.29-.04-.44-.09-2.84-.18-5.69-.27-8.53,1.33-.1,2-.15,3.34-.25.08,2.84.16,5.69.24,8.53-.04,1.1.82,2.02,1.92,2.05.16,0,.33,0,.49-.04.2-.01.3-.02.49-.03,1.2.07,2.22-.84,2.29-2.04,0-.09,0-.18,0-.28-.07-2.85-.14-5.69-.21-8.53,1.34-.08,2.01-.12,3.34-.19.06,2.84.12,5.69.18,8.54-.03,3.03-2.48,5.49-5.51,5.52-.2.01-.29.02-.49.03"/></g><g id="g656"><path id="path658" class="cls-4" d="M62.05,30.9c1.55-.07,2.33-.11,3.88-.17,1.74,2.81,3.48,5.62,5.2,8.44h.04c-.03-2.87-.06-5.74-.08-8.61,1.34-.04,2.01-.05,3.35-.08.04,4.5.08,9,.11,13.51-1.53.03-2.29.05-3.82.09-1.72-2.81-3.45-5.62-5.2-8.42h-.04c.04,2.87.08,5.73.13,8.6-1.32.05-1.98.08-3.31.15-.09-4.5-.17-9-.26-13.5"/></g><g id="g660"><path id="path662" class="cls-4" d="M76.88,30.45c1.34-.02,2.01-.03,3.35-.04.02,4.5.03,9,.05,13.51-1.32.01-1.99.02-3.31.04-.03-4.5-.06-9-.09-13.51"/></g><g id="g664"><path id="path666" class="cls-4" d="M86.97,33.23c-1.72,0-2.58,0-4.31,0,0-1.13,0-1.7,0-2.83,4,0,7.99.03,11.98.11,0,1.13-.01,1.7-.03,2.83-1.72-.04-2.58-.05-4.31-.08-.02,3.56-.04,7.11-.05,10.67-1.32-.02-1.99-.02-3.31-.03,0-3.56.02-7.11.02-10.67"/></g><g id="g668"><path id="path670" class="cls-4" d="M97.06,30.55c3.02.09,6.04.2,9.06.33-.02,1.13-.03,1.7-.05,2.83-2.28-.11-3.42-.15-5.7-.23-.01.98-.02,1.47-.03,2.46,1.86.06,2.79.1,4.64.18-.02,1.13-.03,1.7-.05,2.83-1.85-.08-2.78-.12-4.63-.18-.01,1.02-.02,1.53-.04,2.55,2.37.08,3.56.13,5.93.24-.02,1.13-.03,1.7-.05,2.83-3.07-.14-6.15-.25-9.22-.34.05-4.5.1-9,.15-13.5"/></g><g id="g672"><path id="path674" class="cls-4" d="M108.66,30.98c2.14.11,3.21.17,5.35.3,3.88.11,6.93,3.34,6.83,7.22-.08,3.58-3.05,6.41-6.63,6.32-.18,0-.36-.02-.54-.04-2.11-.13-3.17-.19-5.29-.3.09-4.5.19-9,.28-13.5M113.61,41.95c2.29.14,3.73-1.11,3.8-3.7.07-2.57-1.35-4-3.6-4.14-.75-.05-1.12-.07-1.87-.11l-.19,7.84c.74.04,1.11.07,1.85.11"/></g><g id="g676"><path id="path678" class="cls-4" d="M19.59,15.18c1.74-.22,2.61-.33,4.35-.53.78,3.83,1.56,7.67,2.34,11.5h.05c.89-4.03,1.79-8.05,2.68-12.07,1.5-.16,2.25-.24,3.75-.39.87,3.84,1.74,7.68,2.61,11.52h.05c.84-4.01,1.69-8.01,2.54-12.01,1.72-.15,2.58-.23,4.29-.36-1.43,5.78-2.86,11.56-4.29,17.33-2.01.18-3.02.27-5.03.47-.68-3.25-1.37-6.49-2.05-9.74h-.05c-.68,3.39-1.37,6.78-2.05,10.17-2.03.22-3.05.33-5.07.57-1.37-5.49-2.74-10.98-4.12-16.47"/></g><g id="g680"><path id="path682" class="cls-4" d="M128.9,13.08c1.87.16,2.8.25,4.67.42,1.23,3.64,2.47,7.29,3.7,10.93h.05c1.23-3.38,2.46-6.77,3.7-10.16,1.85.2,2.77.31,4.61.53,1.02,5.78,2.03,11.56,3.05,17.35-1.71-.22-2.57-.32-4.28-.52-.5-3.78-1-7.55-1.51-11.33h-.05c-1.21,3.58-2.43,7.16-3.64,10.75-1.5-.16-2.25-.24-3.75-.39-1.24-3.84-2.48-7.67-3.71-11.51-.02,0-.03,0-.05,0-.44,3.68-.88,7.36-1.32,11.04-1.75-.16-2.62-.23-4.36-.37.96-5.58,1.93-11.15,2.89-16.73"/></g><g id="g684"><path id="path686" class="cls-4" d="M43.91,12.75c3.82-.29,7.64-.54,11.46-.76-.08,1.43-.12,2.14-.21,3.57-2.37.14-4.73.28-7.1.44v3.09c2.32-.16,3.48-.23,5.8-.37v3.56c-2.32.13-3.48.21-5.8.37v3.2c2.48-.17,4.96-.32,7.43-.46,0,1.42,0,2.14,0,3.56-3.87.22-7.73.47-11.59.76V12.75"/></g><g id="g688"><path id="path690" class="cls-4" d="M74.91,14.88c-2.15.04-3.22.06-5.37.12v-3.56c4.97-.13,9.93-.19,14.9-.19v3.56c-2.15,0-3.22,0-5.37.02v13.41c-1.66.01-2.5.02-4.16.05v-13.41"/></g><g id="g692"><path id="path694" class="cls-4" d="M91.36,11.29c1.66.02,2.5.03,4.16.07v6.79c2.4.06,4.81.12,7.21.2v-6.79c1.66.06,2.5.09,4.16.16v16.97c-1.66-.07-2.5-.1-4.16-.16v-6.65c-2.4-.08-4.81-.14-7.21-.2v6.65c-1.66-.03-2.5-.05-4.16-.07V11.29"/></g><g id="g696"><path id="path698" class="cls-4" d="M119.34,25.81c-2.28-.16-3.42-.23-5.71-.36-.41,1.4-.61,2.1-1.02,3.5-1.71-.09-2.57-.14-4.28-.21,1.72-5.57,3.44-11.14,5.16-16.71,2.24.13,3.36.2,5.61.35,1.86,5.79,3.71,11.58,5.56,17.38-1.71-.13-2.56-.2-4.27-.32-.42-1.45-.63-2.18-1.04-3.63M116.47,16.08c-.62,2.04-1.25,4.07-1.87,6.11,1.5.09,2.26.13,3.76.23-.61-2.11-1.23-4.23-1.84-6.34h-.05"/></g><g id="g700"><path id="path702" class="cls-4" d="M63.24,11.35c-3.1.11-6.61,2.02-6.63,5.5-.04,5.32,7.95,3.89,8.44,6.8.14.8-.77,1.48-1.92,1.48-1.94.04-3.85-.42-5.57-1.31-.08,1.47-.15,2.24-.21,3.57,1.7,1.06,3.67,1.59,5.67,1.52,2.99.08,6.58-1.99,6.61-5.49.05-5.28-7.87-4.08-8.45-6.83-.15-.7.71-1.4,1.99-1.47,1.52-.08,3.04.2,4.44.81.09-1.69.11-1.93.21-3.57-1.4-.76-3-1.11-4.59-1.01"/></g></g></g><g id="g704"><path id="path706" class="cls-4" d="M59.68,151.55l2.02.88-2.85,6.53,3.37,1.47-.76,1.73-5.39-2.36,3.61-8.26Z"/></g><g id="g708"><g id="g710"><g id="g716"><path id="path718" class="cls-4" d="M69.66,155.12c2.45.58,3.96,3.04,3.38,5.49-.02.07-.03.13-.05.19-.69,2.51-3.28,3.99-5.79,3.3-2.51-.69-3.99-3.28-3.3-5.79h0c.64-2.43,3.14-3.89,5.57-3.24.06.02.13.04.19.06M67.73,162.15c1.37.32,2.73-.54,3.05-1.9,0-.02,0-.03.01-.05.43-1.27-.25-2.66-1.52-3.09-1.27-.43-2.66.25-3.09,1.52-.03.09-.06.19-.08.28-.45,1.33.25,2.77,1.58,3.23.02,0,.03.01.05.02"/></g><g id="g720"><path id="path722" class="cls-4" d="M75.1,156.6l2.22.23,2.06,4.44c.23.52.43,1.06.6,1.61h.03s0-.97.06-1.54l.43-4.19,2.19.22-.91,8.97-2.21-.22-2.07-4.43c-.23-.52-.43-1.06-.6-1.61h-.03s0,.97-.06,1.54l-.43,4.18-2.19-.22.91-8.97Z"/></g><g id="g724"><path id="path726" class="cls-4" d="M84.23,157.4l3.2-.17c2.83-.15,4.73,1.4,4.89,4.23.15,2.83-1.57,4.62-4.4,4.77l-3.2.17-.48-9ZM87.73,164.34c1.44-.17,2.47-1.47,2.3-2.91-.15-1.31-1.26-2.31-2.58-2.32l-.91.05.28,5.22.91-.05Z"/></g><g id="g728"><path id="path730" class="cls-4" d="M97.03,155.81c2.44-.62,4.92.85,5.55,3.29.02.06.03.13.05.19.56,2.54-1.05,5.06-3.59,5.62-2.54.56-5.06-1.05-5.62-3.59h0c-.57-2.45.97-4.9,3.42-5.47.07-.02.13-.03.2-.04M98.6,162.94c1.36-.36,2.17-1.75,1.81-3.11,0-.02,0-.03-.01-.05-.21-1.33-1.46-2.24-2.79-2.03-1.33.21-2.24,1.46-2.03,2.79.02.1.04.19.06.29.22,1.39,1.52,2.34,2.9,2.12.02,0,.03,0,.05,0"/></g><g id="g732"><path id="path734" class="cls-4" d="M102.53,154.6l2.07-.83,3.89,2.97c.45.36.87.74,1.28,1.14h.02s-.46-.87-.67-1.4l-1.57-3.9,2.04-.83,3.37,8.36-2.06.83-3.9-2.95c-.45-.36-.87-.74-1.28-1.14h-.02s.46.87.67,1.4l1.57,3.89-2.05.83-3.37-8.36Z"/></g></g></g></g></svg>